<svg width="65" height="65" viewBox="0 0 65 65" fill="none" xmlns="http://www.w3.org/2000/svg">
<circle cx="32.5" cy="32.5" r="32" fill="white" stroke="black"/>
<path d="M48 33.5C48.8284 33.5 49.5 32.8284 49.5 32C49.5 31.1716 48.8284 30.5 48 30.5V33.5ZM16.9393 30.9393C16.3536 31.5251 16.3536 32.4749 16.9393 33.0607L26.4853 42.6066C27.0711 43.1924 28.0208 43.1924 28.6066 42.6066C29.1924 42.0208 29.1924 41.0711 28.6066 40.4853L20.1213 32L28.6066 23.5147C29.1924 22.9289 29.1924 21.9792 28.6066 21.3934C28.0208 20.8076 27.0711 20.8076 26.4853 21.3934L16.9393 30.9393ZM48 30.5L18 30.5V33.5L48 33.5V30.5Z" fill="black"/>
</svg>
