<svg width="217" height="44" viewBox="0 0 217 44" fill="none" xmlns="http://www.w3.org/2000/svg">
<g clip-path="url(#clip0_454_5193)">
<rect width="1512" height="44" fill="#F7A491"/>
<path d="M5.80797 21.78C5.80797 20.9133 5.96797 20.0667 6.28797 19.24C6.60797 18.4 7.07464 17.64 7.68797 16.96C8.3013 16.28 9.04797 15.74 9.92797 15.34C10.808 14.9267 11.808 14.72 12.928 14.72C14.2613 14.72 15.4146 15.0067 16.388 15.58C17.3746 16.1533 18.108 16.9 18.588 17.82L16.068 19.58C15.8546 19.0733 15.568 18.68 15.208 18.4C14.8613 18.12 14.4746 17.9267 14.048 17.82C13.6346 17.7 13.2346 17.64 12.848 17.64C12.2213 17.64 11.6746 17.7667 11.208 18.02C10.7413 18.26 10.3546 18.5867 10.048 19C9.7413 19.4133 9.51464 19.8733 9.36797 20.38C9.2213 20.8867 9.14797 21.3933 9.14797 21.9C9.14797 22.46 9.23464 23 9.40797 23.52C9.5813 24.04 9.82797 24.5 10.148 24.9C10.4813 25.3 10.8813 25.62 11.348 25.86C11.8146 26.0867 12.328 26.2 12.888 26.2C13.288 26.2 13.6946 26.1333 14.108 26C14.5213 25.8667 14.9013 25.66 15.248 25.38C15.608 25.0867 15.8813 24.7067 16.068 24.24L18.748 25.82C18.468 26.5133 18.008 27.1067 17.368 27.6C16.728 28.0933 16.0013 28.4733 15.188 28.74C14.388 28.9933 13.5946 29.12 12.808 29.12C11.7813 29.12 10.8346 28.9133 9.96797 28.5C9.11464 28.0733 8.37464 27.5133 7.74797 26.82C7.13464 26.1133 6.65464 25.3267 6.30797 24.46C5.97464 23.58 5.80797 22.6867 5.80797 21.78ZM20.9975 29V14.8H24.2775V29H20.9975ZM29.6536 14.8L32.9936 25.16L36.2936 14.8H39.7536L34.5936 29H31.3736L26.1736 14.8H29.6536ZM41.6702 29V14.8H44.9502V29H41.6702ZM48.2663 29V14.8H51.5463V26.12H58.4263V29H48.2663ZM75.2275 26.12V29H65.2475V14.8H75.0475V17.68H68.5275V20.44H74.1275V23.1H68.5275V26.12H75.2275ZM79.9002 14.8L82.9802 19.7L86.0602 14.8H89.6202L84.9202 22L89.4602 29H85.9002L82.9802 24.3L80.0602 29H76.4802L81.0202 22L76.3202 14.8H79.9002ZM91.4475 29V14.8H97.5075C98.1875 14.8 98.8075 14.94 99.3675 15.22C99.9408 15.4867 100.434 15.8533 100.848 16.32C101.261 16.7733 101.581 17.2867 101.808 17.86C102.034 18.4333 102.148 19.02 102.148 19.62C102.148 20.4333 101.954 21.2067 101.568 21.94C101.194 22.6733 100.668 23.2733 99.9875 23.74C99.3208 24.1933 98.5275 24.42 97.6075 24.42H94.7275V29H91.4475ZM94.7275 21.56H97.4075C97.6608 21.56 97.8942 21.4867 98.1075 21.34C98.3208 21.1933 98.4942 20.9733 98.6275 20.68C98.7608 20.3867 98.8275 20.0267 98.8275 19.6C98.8275 19.16 98.7475 18.8 98.5875 18.52C98.4408 18.2267 98.2475 18.0133 98.0075 17.88C97.7808 17.7467 97.5408 17.68 97.2875 17.68H94.7275V21.56ZM110.728 29.12C109.662 29.12 108.695 28.92 107.828 28.52C106.975 28.1067 106.235 27.56 105.608 26.88C104.995 26.1867 104.522 25.4133 104.188 24.56C103.855 23.6933 103.688 22.8 103.688 21.88C103.688 20.9333 103.862 20.0333 104.208 19.18C104.568 18.3267 105.062 17.5667 105.688 16.9C106.328 16.22 107.082 15.6867 107.948 15.3C108.815 14.9133 109.762 14.72 110.788 14.72C111.842 14.72 112.795 14.9267 113.648 15.34C114.515 15.74 115.255 16.2867 115.868 16.98C116.495 17.6733 116.975 18.4533 117.308 19.32C117.642 20.1733 117.808 21.0467 117.808 21.94C117.808 22.8867 117.635 23.7867 117.288 24.64C116.942 25.4933 116.448 26.26 115.808 26.94C115.168 27.6067 114.415 28.14 113.548 28.54C112.695 28.9267 111.755 29.12 110.728 29.12ZM107.028 21.92C107.028 22.4667 107.108 23 107.268 23.52C107.428 24.0267 107.662 24.48 107.968 24.88C108.288 25.28 108.682 25.6 109.148 25.84C109.615 26.08 110.148 26.2 110.748 26.2C111.375 26.2 111.922 26.08 112.388 25.84C112.855 25.5867 113.242 25.2533 113.548 24.84C113.855 24.4267 114.082 23.9667 114.228 23.46C114.388 22.94 114.468 22.4133 114.468 21.88C114.468 21.3333 114.388 20.8067 114.228 20.3C114.068 19.7933 113.828 19.34 113.508 18.94C113.188 18.5267 112.795 18.2067 112.328 17.98C111.862 17.7533 111.335 17.64 110.748 17.64C110.122 17.64 109.575 17.76 109.108 18C108.655 18.24 108.268 18.5667 107.948 18.98C107.642 19.38 107.408 19.84 107.248 20.36C107.102 20.8667 107.028 21.3867 107.028 21.92ZM125.572 29V14.8H128.852V29H125.572ZM142.988 17.68H138.668V29H135.388V17.68H131.048V14.8H142.988V17.68ZM153.71 18.96C153.67 18.8933 153.53 18.7933 153.29 18.66C153.05 18.5133 152.75 18.36 152.39 18.2C152.03 18.04 151.636 17.9 151.21 17.78C150.783 17.66 150.356 17.6 149.93 17.6C149.37 17.6 148.936 17.7 148.63 17.9C148.323 18.0867 148.17 18.38 148.17 18.78C148.17 19.1 148.283 19.3533 148.51 19.54C148.75 19.7267 149.09 19.8933 149.53 20.04C149.97 20.1733 150.51 20.3333 151.15 20.52C152.056 20.76 152.843 21.0533 153.51 21.4C154.176 21.7333 154.683 22.1667 155.03 22.7C155.39 23.2333 155.57 23.94 155.57 24.82C155.57 25.62 155.423 26.3 155.13 26.86C154.836 27.4067 154.436 27.8533 153.93 28.2C153.436 28.5333 152.87 28.78 152.23 28.94C151.59 29.0867 150.93 29.16 150.25 29.16C149.556 29.16 148.843 29.0933 148.11 28.96C147.39 28.8133 146.696 28.6133 146.03 28.36C145.363 28.0933 144.75 27.7733 144.19 27.4L145.63 24.54C145.683 24.6067 145.856 24.7333 146.15 24.92C146.443 25.0933 146.803 25.28 147.23 25.48C147.67 25.6667 148.156 25.8333 148.69 25.98C149.223 26.1267 149.763 26.2 150.31 26.2C150.896 26.2 151.33 26.1067 151.61 25.92C151.903 25.7333 152.05 25.4733 152.05 25.14C152.05 24.78 151.896 24.5 151.59 24.3C151.296 24.1 150.89 23.92 150.37 23.76C149.863 23.6 149.276 23.42 148.61 23.22C147.743 22.9533 147.023 22.6533 146.45 22.32C145.89 21.9867 145.47 21.58 145.19 21.1C144.923 20.62 144.79 20.02 144.79 19.3C144.79 18.3 145.023 17.46 145.49 16.78C145.97 16.0867 146.61 15.5667 147.41 15.22C148.21 14.86 149.083 14.68 150.03 14.68C150.696 14.68 151.336 14.76 151.95 14.92C152.576 15.08 153.156 15.28 153.69 15.52C154.236 15.76 154.723 16 155.15 16.24L153.71 18.96ZM162.702 29C162.702 28.3733 162.749 27.8133 162.842 27.32C162.949 26.8267 163.116 26.38 163.342 25.98C163.582 25.5667 163.896 25.1867 164.282 24.84C164.682 24.48 165.182 24.14 165.782 23.82C166.409 23.4867 166.929 23.2067 167.342 22.98C167.769 22.74 168.109 22.54 168.362 22.38C168.616 22.22 168.789 22.0667 168.882 21.92C168.989 21.76 169.042 21.5867 169.042 21.4C169.042 21.1467 168.982 20.9267 168.862 20.74C168.742 20.5533 168.569 20.4133 168.342 20.32C168.116 20.2133 167.836 20.16 167.502 20.16C167.236 20.16 166.982 20.1933 166.742 20.26C166.502 20.3267 166.269 20.4267 166.042 20.56C165.829 20.6933 165.622 20.8533 165.422 21.04C165.222 21.2133 165.022 21.4133 164.822 21.64L162.802 19.28C163.029 19.0533 163.316 18.8267 163.662 18.6C164.022 18.3733 164.429 18.1733 164.882 18C165.336 17.8133 165.829 17.6667 166.362 17.56C166.909 17.44 167.476 17.38 168.062 17.38C169.022 17.38 169.829 17.5267 170.482 17.82C171.149 18.1 171.656 18.5 172.002 19.02C172.349 19.54 172.522 20.1533 172.522 20.86C172.522 21.3133 172.449 21.7133 172.302 22.06C172.169 22.3933 171.989 22.6933 171.762 22.96C171.536 23.2267 171.276 23.4667 170.982 23.68C170.702 23.8933 170.422 24.0867 170.142 24.26C169.822 24.42 169.522 24.58 169.242 24.74C168.962 24.8867 168.702 25.0333 168.462 25.18C168.222 25.3133 167.996 25.46 167.782 25.62C167.582 25.7667 167.389 25.9333 167.202 26.12H172.742V29H162.702ZM185.564 23.14C185.564 24.3133 185.337 25.36 184.884 26.28C184.431 27.1867 183.811 27.9 183.024 28.42C182.237 28.94 181.344 29.2 180.344 29.2C179.357 29.2 178.464 28.94 177.664 28.42C176.877 27.9 176.257 27.1867 175.804 26.28C175.351 25.36 175.124 24.3133 175.124 23.14C175.124 21.9667 175.351 20.9267 175.804 20.02C176.257 19.1 176.877 18.38 177.664 17.86C178.464 17.3267 179.357 17.06 180.344 17.06C181.344 17.06 182.237 17.3267 183.024 17.86C183.811 18.38 184.431 19.1 184.884 20.02C185.337 20.9267 185.564 21.9667 185.564 23.14ZM182.344 23.14C182.344 22.5133 182.257 21.9667 182.084 21.5C181.911 21.0333 181.671 20.6667 181.364 20.4C181.071 20.1333 180.731 20 180.344 20C179.944 20 179.591 20.1333 179.284 20.4C178.977 20.6667 178.737 21.0333 178.564 21.5C178.404 21.9667 178.324 22.5133 178.324 23.14C178.324 23.7667 178.404 24.3133 178.564 24.78C178.737 25.2467 178.977 25.6133 179.284 25.88C179.591 26.1333 179.944 26.26 180.344 26.26C180.731 26.26 181.071 26.1333 181.364 25.88C181.671 25.6133 181.911 25.2467 182.084 24.78C182.257 24.3133 182.344 23.7667 182.344 23.14ZM187.789 29C187.789 28.3733 187.836 27.8133 187.929 27.32C188.036 26.8267 188.202 26.38 188.429 25.98C188.669 25.5667 188.982 25.1867 189.369 24.84C189.769 24.48 190.269 24.14 190.869 23.82C191.496 23.4867 192.016 23.2067 192.429 22.98C192.856 22.74 193.196 22.54 193.449 22.38C193.702 22.22 193.876 22.0667 193.969 21.92C194.076 21.76 194.129 21.5867 194.129 21.4C194.129 21.1467 194.069 20.9267 193.949 20.74C193.829 20.5533 193.656 20.4133 193.429 20.32C193.202 20.2133 192.922 20.16 192.589 20.16C192.322 20.16 192.069 20.1933 191.829 20.26C191.589 20.3267 191.356 20.4267 191.129 20.56C190.916 20.6933 190.709 20.8533 190.509 21.04C190.309 21.2133 190.109 21.4133 189.909 21.64L187.889 19.28C188.116 19.0533 188.402 18.8267 188.749 18.6C189.109 18.3733 189.516 18.1733 189.969 18C190.422 17.8133 190.916 17.6667 191.449 17.56C191.996 17.44 192.562 17.38 193.149 17.38C194.109 17.38 194.916 17.5267 195.569 17.82C196.236 18.1 196.742 18.5 197.089 19.02C197.436 19.54 197.609 20.1533 197.609 20.86C197.609 21.3133 197.536 21.7133 197.389 22.06C197.256 22.3933 197.076 22.6933 196.849 22.96C196.622 23.2267 196.362 23.4667 196.069 23.68C195.789 23.8933 195.509 24.0867 195.229 24.26C194.909 24.42 194.609 24.58 194.329 24.74C194.049 24.8867 193.789 25.0333 193.549 25.18C193.309 25.3133 193.082 25.46 192.869 25.62C192.669 25.7667 192.476 25.9333 192.289 26.12H197.829V29H187.789ZM207.151 24.26C207.711 24.3533 208.197 24.5733 208.611 24.92C209.037 25.2533 209.364 25.6733 209.591 26.18C209.831 26.6733 209.951 27.2333 209.951 27.86C209.951 28.6867 209.731 29.4067 209.291 30.02C208.851 30.6333 208.224 31.1067 207.411 31.44C206.597 31.7733 205.637 31.94 204.531 31.94C203.517 31.94 202.611 31.7867 201.811 31.48C201.024 31.1867 200.344 30.7467 199.771 30.16L201.491 27.88C201.851 28.24 202.264 28.52 202.731 28.72C203.197 28.92 203.744 29.02 204.371 29.02C205.131 29.02 205.697 28.8867 206.071 28.62C206.444 28.34 206.631 27.92 206.631 27.36C206.631 26.76 206.404 26.3067 205.951 26C205.511 25.6933 204.811 25.54 203.851 25.54H203.251V23.24H203.911C204.644 23.24 205.224 23.0867 205.651 22.78C206.077 22.46 206.291 22.0533 206.291 21.56C206.291 21.2667 206.217 21.02 206.071 20.82C205.937 20.62 205.744 20.4733 205.491 20.38C205.251 20.2733 204.957 20.22 204.611 20.22C204.077 20.22 203.584 20.3467 203.131 20.6C202.677 20.8533 202.297 21.2267 201.991 21.72L199.971 19.4C200.264 19.0133 200.664 18.68 201.171 18.4C201.691 18.1067 202.277 17.88 202.931 17.72C203.584 17.56 204.264 17.48 204.971 17.48C205.917 17.48 206.744 17.6267 207.451 17.92C208.171 18.2133 208.724 18.6267 209.111 19.16C209.511 19.68 209.711 20.3 209.711 21.02C209.711 21.54 209.604 22.0333 209.391 22.5C209.177 22.9533 208.877 23.34 208.491 23.66C208.104 23.9667 207.657 24.1667 207.151 24.26ZM217.085 21.78C217.085 20.9133 217.245 20.0667 217.565 19.24C217.885 18.4 218.352 17.64 218.965 16.96C219.579 16.28 220.325 15.74 221.205 15.34C222.085 14.9267 223.085 14.72 224.205 14.72C225.539 14.72 226.692 15.0067 227.665 15.58C228.652 16.1533 229.385 16.9 229.865 17.82L227.345 19.58C227.132 19.0733 226.845 18.68 226.485 18.4C226.139 18.12 225.752 17.9267 225.325 17.82C224.912 17.7 224.512 17.64 224.125 17.64C223.499 17.64 222.952 17.7667 222.485 18.02C222.019 18.26 221.632 18.5867 221.325 19C221.019 19.4133 220.792 19.8733 220.645 20.38C220.499 20.8867 220.425 21.3933 220.425 21.9C220.425 22.46 220.512 23 220.685 23.52C220.859 24.04 221.105 24.5 221.425 24.9C221.759 25.3 222.159 25.62 222.625 25.86C223.092 26.0867 223.605 26.2 224.165 26.2C224.565 26.2 224.972 26.1333 225.385 26C225.799 25.8667 226.179 25.66 226.525 25.38C226.885 25.0867 227.159 24.7067 227.345 24.24L230.025 25.82C229.745 26.5133 229.285 27.1067 228.645 27.6C228.005 28.0933 227.279 28.4733 226.465 28.74C225.665 28.9933 224.872 29.12 224.085 29.12C223.059 29.12 222.112 28.9133 221.245 28.5C220.392 28.0733 219.652 27.5133 219.025 26.82C218.412 26.1133 217.932 25.3267 217.585 24.46C217.252 23.58 217.085 22.6867 217.085 21.78ZM232.275 29V14.8H235.555V29H232.275ZM240.931 14.8L244.271 25.16L247.571 14.8H251.031L245.871 29H242.651L237.451 14.8H240.931ZM252.947 29V14.8H256.227V29H252.947ZM259.544 29V14.8H262.824V26.12H269.704V29H259.544ZM286.505 26.12V29H276.525V14.8H286.325V17.68H279.805V20.44H285.405V23.1H279.805V26.12H286.505ZM291.177 14.8L294.257 19.7L297.337 14.8H300.897L296.197 22L300.737 29H297.177L294.257 24.3L291.337 29H287.757L292.297 22L287.597 14.8H291.177ZM302.725 29V14.8H308.785C309.465 14.8 310.085 14.94 310.645 15.22C311.218 15.4867 311.712 15.8533 312.125 16.32C312.538 16.7733 312.858 17.2867 313.085 17.86C313.312 18.4333 313.425 19.02 313.425 19.62C313.425 20.4333 313.232 21.2067 312.845 21.94C312.472 22.6733 311.945 23.2733 311.265 23.74C310.598 24.1933 309.805 24.42 308.885 24.42H306.005V29H302.725ZM306.005 21.56H308.685C308.938 21.56 309.172 21.4867 309.385 21.34C309.598 21.1933 309.772 20.9733 309.905 20.68C310.038 20.3867 310.105 20.0267 310.105 19.6C310.105 19.16 310.025 18.8 309.865 18.52C309.718 18.2267 309.525 18.0133 309.285 17.88C309.058 17.7467 308.818 17.68 308.565 17.68H306.005V21.56ZM322.006 29.12C320.939 29.12 319.972 28.92 319.106 28.52C318.252 28.1067 317.512 27.56 316.886 26.88C316.272 26.1867 315.799 25.4133 315.466 24.56C315.132 23.6933 314.966 22.8 314.966 21.88C314.966 20.9333 315.139 20.0333 315.486 19.18C315.846 18.3267 316.339 17.5667 316.966 16.9C317.606 16.22 318.359 15.6867 319.226 15.3C320.092 14.9133 321.039 14.72 322.066 14.72C323.119 14.72 324.072 14.9267 324.926 15.34C325.792 15.74 326.532 16.2867 327.146 16.98C327.772 17.6733 328.252 18.4533 328.586 19.32C328.919 20.1733 329.086 21.0467 329.086 21.94C329.086 22.8867 328.912 23.7867 328.566 24.64C328.219 25.4933 327.726 26.26 327.086 26.94C326.446 27.6067 325.692 28.14 324.826 28.54C323.972 28.9267 323.032 29.12 322.006 29.12ZM318.306 21.92C318.306 22.4667 318.386 23 318.546 23.52C318.706 24.0267 318.939 24.48 319.246 24.88C319.566 25.28 319.959 25.6 320.426 25.84C320.892 26.08 321.426 26.2 322.026 26.2C322.652 26.2 323.199 26.08 323.666 25.84C324.132 25.5867 324.519 25.2533 324.826 24.84C325.132 24.4267 325.359 23.9667 325.506 23.46C325.666 22.94 325.746 22.4133 325.746 21.88C325.746 21.3333 325.666 20.8067 325.506 20.3C325.346 19.7933 325.106 19.34 324.786 18.94C324.466 18.5267 324.072 18.2067 323.606 17.98C323.139 17.7533 322.612 17.64 322.026 17.64C321.399 17.64 320.852 17.76 320.386 18C319.932 18.24 319.546 18.5667 319.226 18.98C318.919 19.38 318.686 19.84 318.526 20.36C318.379 20.8667 318.306 21.3867 318.306 21.92ZM336.849 29V14.8H340.129V29H336.849ZM354.265 17.68H349.945V29H346.665V17.68H342.325V14.8H354.265V17.68ZM364.987 18.96C364.947 18.8933 364.807 18.7933 364.567 18.66C364.327 18.5133 364.027 18.36 363.667 18.2C363.307 18.04 362.914 17.9 362.487 17.78C362.06 17.66 361.634 17.6 361.207 17.6C360.647 17.6 360.214 17.7 359.907 17.9C359.6 18.0867 359.447 18.38 359.447 18.78C359.447 19.1 359.56 19.3533 359.787 19.54C360.027 19.7267 360.367 19.8933 360.807 20.04C361.247 20.1733 361.787 20.3333 362.427 20.52C363.334 20.76 364.12 21.0533 364.787 21.4C365.454 21.7333 365.96 22.1667 366.307 22.7C366.667 23.2333 366.847 23.94 366.847 24.82C366.847 25.62 366.7 26.3 366.407 26.86C366.114 27.4067 365.714 27.8533 365.207 28.2C364.714 28.5333 364.147 28.78 363.507 28.94C362.867 29.0867 362.207 29.16 361.527 29.16C360.834 29.16 360.12 29.0933 359.387 28.96C358.667 28.8133 357.974 28.6133 357.307 28.36C356.64 28.0933 356.027 27.7733 355.467 27.4L356.907 24.54C356.96 24.6067 357.134 24.7333 357.427 24.92C357.72 25.0933 358.08 25.28 358.507 25.48C358.947 25.6667 359.434 25.8333 359.967 25.98C360.5 26.1267 361.04 26.2 361.587 26.2C362.174 26.2 362.607 26.1067 362.887 25.92C363.18 25.7333 363.327 25.4733 363.327 25.14C363.327 24.78 363.174 24.5 362.867 24.3C362.574 24.1 362.167 23.92 361.647 23.76C361.14 23.6 360.554 23.42 359.887 23.22C359.02 22.9533 358.3 22.6533 357.727 22.32C357.167 21.9867 356.747 21.58 356.467 21.1C356.2 20.62 356.067 20.02 356.067 19.3C356.067 18.3 356.3 17.46 356.767 16.78C357.247 16.0867 357.887 15.5667 358.687 15.22C359.487 14.86 360.36 14.68 361.307 14.68C361.974 14.68 362.614 14.76 363.227 14.92C363.854 15.08 364.434 15.28 364.967 15.52C365.514 15.76 366 16 366.427 16.24L364.987 18.96ZM373.98 29C373.98 28.3733 374.026 27.8133 374.12 27.32C374.226 26.8267 374.393 26.38 374.62 25.98C374.86 25.5667 375.173 25.1867 375.56 24.84C375.96 24.48 376.46 24.14 377.06 23.82C377.686 23.4867 378.206 23.2067 378.62 22.98C379.046 22.74 379.386 22.54 379.64 22.38C379.893 22.22 380.066 22.0667 380.16 21.92C380.266 21.76 380.32 21.5867 380.32 21.4C380.32 21.1467 380.26 20.9267 380.14 20.74C380.02 20.5533 379.846 20.4133 379.62 20.32C379.393 20.2133 379.113 20.16 378.78 20.16C378.513 20.16 378.26 20.1933 378.02 20.26C377.78 20.3267 377.546 20.4267 377.32 20.56C377.106 20.6933 376.9 20.8533 376.7 21.04C376.5 21.2133 376.3 21.4133 376.1 21.64L374.08 19.28C374.306 19.0533 374.593 18.8267 374.94 18.6C375.3 18.3733 375.706 18.1733 376.16 18C376.613 17.8133 377.106 17.6667 377.64 17.56C378.186 17.44 378.753 17.38 379.34 17.38C380.3 17.38 381.106 17.5267 381.76 17.82C382.426 18.1 382.933 18.5 383.28 19.02C383.626 19.54 383.8 20.1533 383.8 20.86C383.8 21.3133 383.726 21.7133 383.58 22.06C383.446 22.3933 383.266 22.6933 383.04 22.96C382.813 23.2267 382.553 23.4667 382.26 23.68C381.98 23.8933 381.7 24.0867 381.42 24.26C381.1 24.42 380.8 24.58 380.52 24.74C380.24 24.8867 379.98 25.0333 379.74 25.18C379.5 25.3133 379.273 25.46 379.06 25.62C378.86 25.7667 378.666 25.9333 378.48 26.12H384.02V29H373.98ZM396.841 23.14C396.841 24.3133 396.615 25.36 396.161 26.28C395.708 27.1867 395.088 27.9 394.301 28.42C393.515 28.94 392.621 29.2 391.621 29.2C390.635 29.2 389.741 28.94 388.941 28.42C388.155 27.9 387.535 27.1867 387.081 26.28C386.628 25.36 386.401 24.3133 386.401 23.14C386.401 21.9667 386.628 20.9267 387.081 20.02C387.535 19.1 388.155 18.38 388.941 17.86C389.741 17.3267 390.635 17.06 391.621 17.06C392.621 17.06 393.515 17.3267 394.301 17.86C395.088 18.38 395.708 19.1 396.161 20.02C396.615 20.9267 396.841 21.9667 396.841 23.14ZM393.621 23.14C393.621 22.5133 393.535 21.9667 393.361 21.5C393.188 21.0333 392.948 20.6667 392.641 20.4C392.348 20.1333 392.008 20 391.621 20C391.221 20 390.868 20.1333 390.561 20.4C390.255 20.6667 390.015 21.0333 389.841 21.5C389.681 21.9667 389.601 22.5133 389.601 23.14C389.601 23.7667 389.681 24.3133 389.841 24.78C390.015 25.2467 390.255 25.6133 390.561 25.88C390.868 26.1333 391.221 26.26 391.621 26.26C392.008 26.26 392.348 26.1333 392.641 25.88C392.948 25.6133 393.188 25.2467 393.361 24.78C393.535 24.3133 393.621 23.7667 393.621 23.14ZM399.066 29C399.066 28.3733 399.113 27.8133 399.206 27.32C399.313 26.8267 399.48 26.38 399.706 25.98C399.946 25.5667 400.26 25.1867 400.646 24.84C401.046 24.48 401.546 24.14 402.146 23.82C402.773 23.4867 403.293 23.2067 403.706 22.98C404.133 22.74 404.473 22.54 404.726 22.38C404.98 22.22 405.153 22.0667 405.246 21.92C405.353 21.76 405.406 21.5867 405.406 21.4C405.406 21.1467 405.346 20.9267 405.226 20.74C405.106 20.5533 404.933 20.4133 404.706 20.32C404.48 20.2133 404.2 20.16 403.866 20.16C403.6 20.16 403.346 20.1933 403.106 20.26C402.866 20.3267 402.633 20.4267 402.406 20.56C402.193 20.6933 401.986 20.8533 401.786 21.04C401.586 21.2133 401.386 21.4133 401.186 21.64L399.166 19.28C399.393 19.0533 399.68 18.8267 400.026 18.6C400.386 18.3733 400.793 18.1733 401.246 18C401.7 17.8133 402.193 17.6667 402.726 17.56C403.273 17.44 403.84 17.38 404.426 17.38C405.386 17.38 406.193 17.5267 406.846 17.82C407.513 18.1 408.02 18.5 408.366 19.02C408.713 19.54 408.886 20.1533 408.886 20.86C408.886 21.3133 408.813 21.7133 408.666 22.06C408.533 22.3933 408.353 22.6933 408.126 22.96C407.9 23.2267 407.64 23.4667 407.346 23.68C407.066 23.8933 406.786 24.0867 406.506 24.26C406.186 24.42 405.886 24.58 405.606 24.74C405.326 24.8867 405.066 25.0333 404.826 25.18C404.586 25.3133 404.36 25.46 404.146 25.62C403.946 25.7667 403.753 25.9333 403.566 26.12H409.106V29H399.066ZM411.268 29C411.268 28.3733 411.315 27.8133 411.408 27.32C411.515 26.8267 411.681 26.38 411.908 25.98C412.148 25.5667 412.461 25.1867 412.848 24.84C413.248 24.48 413.748 24.14 414.348 23.82C414.975 23.4867 415.495 23.2067 415.908 22.98C416.335 22.74 416.675 22.54 416.928 22.38C417.181 22.22 417.355 22.0667 417.448 21.92C417.555 21.76 417.608 21.5867 417.608 21.4C417.608 21.1467 417.548 20.9267 417.428 20.74C417.308 20.5533 417.135 20.4133 416.908 20.32C416.681 20.2133 416.401 20.16 416.068 20.16C415.801 20.16 415.548 20.1933 415.308 20.26C415.068 20.3267 414.835 20.4267 414.608 20.56C414.395 20.6933 414.188 20.8533 413.988 21.04C413.788 21.2133 413.588 21.4133 413.388 21.64L411.368 19.28C411.595 19.0533 411.881 18.8267 412.228 18.6C412.588 18.3733 412.995 18.1733 413.448 18C413.901 17.8133 414.395 17.6667 414.928 17.56C415.475 17.44 416.041 17.38 416.628 17.38C417.588 17.38 418.395 17.5267 419.048 17.82C419.715 18.1 420.221 18.5 420.568 19.02C420.915 19.54 421.088 20.1533 421.088 20.86C421.088 21.3133 421.015 21.7133 420.868 22.06C420.735 22.3933 420.555 22.6933 420.328 22.96C420.101 23.2267 419.841 23.4667 419.548 23.68C419.268 23.8933 418.988 24.0867 418.708 24.26C418.388 24.42 418.088 24.58 417.808 24.74C417.528 24.8867 417.268 25.0333 417.028 25.18C416.788 25.3133 416.561 25.46 416.348 25.62C416.148 25.7667 415.955 25.9333 415.768 26.12H421.308V29H411.268ZM428.578 21.78C428.578 20.9133 428.738 20.0667 429.058 19.24C429.378 18.4 429.844 17.64 430.458 16.96C431.071 16.28 431.818 15.74 432.698 15.34C433.578 14.9267 434.578 14.72 435.698 14.72C437.031 14.72 438.184 15.0067 439.158 15.58C440.144 16.1533 440.878 16.9 441.358 17.82L438.838 19.58C438.624 19.0733 438.338 18.68 437.978 18.4C437.631 18.12 437.244 17.9267 436.818 17.82C436.404 17.7 436.004 17.64 435.618 17.64C434.991 17.64 434.444 17.7667 433.978 18.02C433.511 18.26 433.124 18.5867 432.818 19C432.511 19.4133 432.284 19.8733 432.138 20.38C431.991 20.8867 431.918 21.3933 431.918 21.9C431.918 22.46 432.004 23 432.178 23.52C432.351 24.04 432.598 24.5 432.918 24.9C433.251 25.3 433.651 25.62 434.118 25.86C434.584 26.0867 435.098 26.2 435.658 26.2C436.058 26.2 436.464 26.1333 436.878 26C437.291 25.8667 437.671 25.66 438.018 25.38C438.378 25.0867 438.651 24.7067 438.838 24.24L441.518 25.82C441.238 26.5133 440.778 27.1067 440.138 27.6C439.498 28.0933 438.771 28.4733 437.958 28.74C437.158 28.9933 436.364 29.12 435.578 29.12C434.551 29.12 433.604 28.9133 432.738 28.5C431.884 28.0733 431.144 27.5133 430.518 26.82C429.904 26.1133 429.424 25.3267 429.078 24.46C428.744 23.58 428.578 22.6867 428.578 21.78ZM443.767 29V14.8H447.047V29H443.767ZM452.423 14.8L455.763 25.16L459.063 14.8H462.523L457.363 29H454.143L448.943 14.8H452.423ZM464.44 29V14.8H467.72V29H464.44ZM471.036 29V14.8H474.316V26.12H481.196V29H471.036ZM497.997 26.12V29H488.017V14.8H497.817V17.68H491.297V20.44H496.897V23.1H491.297V26.12H497.997ZM502.67 14.8L505.75 19.7L508.83 14.8H512.39L507.69 22L512.23 29H508.67L505.75 24.3L502.83 29H499.25L503.79 22L499.09 14.8H502.67ZM514.217 29V14.8H520.277C520.957 14.8 521.577 14.94 522.137 15.22C522.71 15.4867 523.204 15.8533 523.617 16.32C524.03 16.7733 524.35 17.2867 524.577 17.86C524.804 18.4333 524.917 19.02 524.917 19.62C524.917 20.4333 524.724 21.2067 524.337 21.94C523.964 22.6733 523.437 23.2733 522.757 23.74C522.09 24.1933 521.297 24.42 520.377 24.42H517.497V29H514.217ZM517.497 21.56H520.177C520.43 21.56 520.664 21.4867 520.877 21.34C521.09 21.1933 521.264 20.9733 521.397 20.68C521.53 20.3867 521.597 20.0267 521.597 19.6C521.597 19.16 521.517 18.8 521.357 18.52C521.21 18.2267 521.017 18.0133 520.777 17.88C520.55 17.7467 520.31 17.68 520.057 17.68H517.497V21.56ZM533.498 29.12C532.431 29.12 531.465 28.92 530.598 28.52C529.745 28.1067 529.005 27.56 528.378 26.88C527.765 26.1867 527.291 25.4133 526.958 24.56C526.625 23.6933 526.458 22.8 526.458 21.88C526.458 20.9333 526.631 20.0333 526.978 19.18C527.338 18.3267 527.831 17.5667 528.458 16.9C529.098 16.22 529.851 15.6867 530.718 15.3C531.585 14.9133 532.531 14.72 533.558 14.72C534.611 14.72 535.565 14.9267 536.418 15.34C537.285 15.74 538.025 16.2867 538.638 16.98C539.265 17.6733 539.745 18.4533 540.078 19.32C540.411 20.1733 540.578 21.0467 540.578 21.94C540.578 22.8867 540.405 23.7867 540.058 24.64C539.711 25.4933 539.218 26.26 538.578 26.94C537.938 27.6067 537.185 28.14 536.318 28.54C535.465 28.9267 534.525 29.12 533.498 29.12ZM529.798 21.92C529.798 22.4667 529.878 23 530.038 23.52C530.198 24.0267 530.431 24.48 530.738 24.88C531.058 25.28 531.451 25.6 531.918 25.84C532.385 26.08 532.918 26.2 533.518 26.2C534.145 26.2 534.691 26.08 535.158 25.84C535.625 25.5867 536.011 25.2533 536.318 24.84C536.625 24.4267 536.851 23.9667 536.998 23.46C537.158 22.94 537.238 22.4133 537.238 21.88C537.238 21.3333 537.158 20.8067 536.998 20.3C536.838 19.7933 536.598 19.34 536.278 18.94C535.958 18.5267 535.565 18.2067 535.098 17.98C534.631 17.7533 534.105 17.64 533.518 17.64C532.891 17.64 532.345 17.76 531.878 18C531.425 18.24 531.038 18.5667 530.718 18.98C530.411 19.38 530.178 19.84 530.018 20.36C529.871 20.8667 529.798 21.3867 529.798 21.92ZM548.341 29V14.8H551.621V29H548.341ZM565.757 17.68H561.437V29H558.157V17.68H553.817V14.8H565.757V17.68ZM576.479 18.96C576.439 18.8933 576.299 18.7933 576.059 18.66C575.819 18.5133 575.519 18.36 575.159 18.2C574.799 18.04 574.406 17.9 573.979 17.78C573.553 17.66 573.126 17.6 572.699 17.6C572.139 17.6 571.706 17.7 571.399 17.9C571.093 18.0867 570.939 18.38 570.939 18.78C570.939 19.1 571.053 19.3533 571.279 19.54C571.519 19.7267 571.859 19.8933 572.299 20.04C572.739 20.1733 573.279 20.3333 573.919 20.52C574.826 20.76 575.613 21.0533 576.279 21.4C576.946 21.7333 577.453 22.1667 577.799 22.7C578.159 23.2333 578.339 23.94 578.339 24.82C578.339 25.62 578.193 26.3 577.899 26.86C577.606 27.4067 577.206 27.8533 576.699 28.2C576.206 28.5333 575.639 28.78 574.999 28.94C574.359 29.0867 573.699 29.16 573.019 29.16C572.326 29.16 571.613 29.0933 570.879 28.96C570.159 28.8133 569.466 28.6133 568.799 28.36C568.133 28.0933 567.519 27.7733 566.959 27.4L568.399 24.54C568.453 24.6067 568.626 24.7333 568.919 24.92C569.213 25.0933 569.573 25.28 569.999 25.48C570.439 25.6667 570.926 25.8333 571.459 25.98C571.993 26.1267 572.533 26.2 573.079 26.2C573.666 26.2 574.099 26.1067 574.379 25.92C574.673 25.7333 574.819 25.4733 574.819 25.14C574.819 24.78 574.666 24.5 574.359 24.3C574.066 24.1 573.659 23.92 573.139 23.76C572.633 23.6 572.046 23.42 571.379 23.22C570.513 22.9533 569.793 22.6533 569.219 22.32C568.659 21.9867 568.239 21.58 567.959 21.1C567.693 20.62 567.559 20.02 567.559 19.3C567.559 18.3 567.793 17.46 568.259 16.78C568.739 16.0867 569.379 15.5667 570.179 15.22C570.979 14.86 571.853 14.68 572.799 14.68C573.466 14.68 574.106 14.76 574.719 14.92C575.346 15.08 575.926 15.28 576.459 15.52C577.006 15.76 577.493 16 577.919 16.24L576.479 18.96ZM585.472 29C585.472 28.3733 585.519 27.8133 585.612 27.32C585.719 26.8267 585.885 26.38 586.112 25.98C586.352 25.5667 586.665 25.1867 587.052 24.84C587.452 24.48 587.952 24.14 588.552 23.82C589.179 23.4867 589.699 23.2067 590.112 22.98C590.539 22.74 590.879 22.54 591.132 22.38C591.385 22.22 591.559 22.0667 591.652 21.92C591.759 21.76 591.812 21.5867 591.812 21.4C591.812 21.1467 591.752 20.9267 591.632 20.74C591.512 20.5533 591.339 20.4133 591.112 20.32C590.885 20.2133 590.605 20.16 590.272 20.16C590.005 20.16 589.752 20.1933 589.512 20.26C589.272 20.3267 589.039 20.4267 588.812 20.56C588.599 20.6933 588.392 20.8533 588.192 21.04C587.992 21.2133 587.792 21.4133 587.592 21.64L585.572 19.28C585.799 19.0533 586.085 18.8267 586.432 18.6C586.792 18.3733 587.199 18.1733 587.652 18C588.105 17.8133 588.599 17.6667 589.132 17.56C589.679 17.44 590.245 17.38 590.832 17.38C591.792 17.38 592.599 17.5267 593.252 17.82C593.919 18.1 594.425 18.5 594.772 19.02C595.119 19.54 595.292 20.1533 595.292 20.86C595.292 21.3133 595.219 21.7133 595.072 22.06C594.939 22.3933 594.759 22.6933 594.532 22.96C594.305 23.2267 594.045 23.4667 593.752 23.68C593.472 23.8933 593.192 24.0867 592.912 24.26C592.592 24.42 592.292 24.58 592.012 24.74C591.732 24.8867 591.472 25.0333 591.232 25.18C590.992 25.3133 590.765 25.46 590.552 25.62C590.352 25.7667 590.159 25.9333 589.972 26.12H595.512V29H585.472ZM608.333 23.14C608.333 24.3133 608.107 25.36 607.653 26.28C607.2 27.1867 606.58 27.9 605.793 28.42C605.007 28.94 604.113 29.2 603.113 29.2C602.127 29.2 601.233 28.94 600.433 28.42C599.647 27.9 599.027 27.1867 598.573 26.28C598.12 25.36 597.893 24.3133 597.893 23.14C597.893 21.9667 598.12 20.9267 598.573 20.02C599.027 19.1 599.647 18.38 600.433 17.86C601.233 17.3267 602.127 17.06 603.113 17.06C604.113 17.06 605.007 17.3267 605.793 17.86C606.58 18.38 607.2 19.1 607.653 20.02C608.107 20.9267 608.333 21.9667 608.333 23.14ZM605.113 23.14C605.113 22.5133 605.027 21.9667 604.853 21.5C604.68 21.0333 604.44 20.6667 604.133 20.4C603.84 20.1333 603.5 20 603.113 20C602.713 20 602.36 20.1333 602.053 20.4C601.747 20.6667 601.507 21.0333 601.333 21.5C601.173 21.9667 601.093 22.5133 601.093 23.14C601.093 23.7667 601.173 24.3133 601.333 24.78C601.507 25.2467 601.747 25.6133 602.053 25.88C602.36 26.1333 602.713 26.26 603.113 26.26C603.5 26.26 603.84 26.1333 604.133 25.88C604.44 25.6133 604.68 25.2467 604.853 24.78C605.027 24.3133 605.113 23.7667 605.113 23.14ZM610.559 29C610.559 28.3733 610.605 27.8133 610.699 27.32C610.805 26.8267 610.972 26.38 611.199 25.98C611.439 25.5667 611.752 25.1867 612.139 24.84C612.539 24.48 613.039 24.14 613.639 23.82C614.265 23.4867 614.785 23.2067 615.199 22.98C615.625 22.74 615.965 22.54 616.219 22.38C616.472 22.22 616.645 22.0667 616.739 21.92C616.845 21.76 616.899 21.5867 616.899 21.4C616.899 21.1467 616.839 20.9267 616.719 20.74C616.599 20.5533 616.425 20.4133 616.199 20.32C615.972 20.2133 615.692 20.16 615.359 20.16C615.092 20.16 614.839 20.1933 614.599 20.26C614.359 20.3267 614.125 20.4267 613.899 20.56C613.685 20.6933 613.479 20.8533 613.279 21.04C613.079 21.2133 612.879 21.4133 612.679 21.64L610.659 19.28C610.885 19.0533 611.172 18.8267 611.519 18.6C611.879 18.3733 612.285 18.1733 612.739 18C613.192 17.8133 613.685 17.6667 614.219 17.56C614.765 17.44 615.332 17.38 615.919 17.38C616.879 17.38 617.685 17.5267 618.339 17.82C619.005 18.1 619.512 18.5 619.859 19.02C620.205 19.54 620.379 20.1533 620.379 20.86C620.379 21.3133 620.305 21.7133 620.159 22.06C620.025 22.3933 619.845 22.6933 619.619 22.96C619.392 23.2267 619.132 23.4667 618.839 23.68C618.559 23.8933 618.279 24.0867 617.999 24.26C617.679 24.42 617.379 24.58 617.099 24.74C616.819 24.8867 616.559 25.0333 616.319 25.18C616.079 25.3133 615.852 25.46 615.639 25.62C615.439 25.7667 615.245 25.9333 615.059 26.12H620.599V29H610.559ZM622.76 29C622.76 28.3733 622.807 27.8133 622.9 27.32C623.007 26.8267 623.174 26.38 623.4 25.98C623.64 25.5667 623.954 25.1867 624.34 24.84C624.74 24.48 625.24 24.14 625.84 23.82C626.467 23.4867 626.987 23.2067 627.4 22.98C627.827 22.74 628.167 22.54 628.42 22.38C628.674 22.22 628.847 22.0667 628.94 21.92C629.047 21.76 629.1 21.5867 629.1 21.4C629.1 21.1467 629.04 20.9267 628.92 20.74C628.8 20.5533 628.627 20.4133 628.4 20.32C628.174 20.2133 627.894 20.16 627.56 20.16C627.294 20.16 627.04 20.1933 626.8 20.26C626.56 20.3267 626.327 20.4267 626.1 20.56C625.887 20.6933 625.68 20.8533 625.48 21.04C625.28 21.2133 625.08 21.4133 624.88 21.64L622.86 19.28C623.087 19.0533 623.374 18.8267 623.72 18.6C624.08 18.3733 624.487 18.1733 624.94 18C625.394 17.8133 625.887 17.6667 626.42 17.56C626.967 17.44 627.534 17.38 628.12 17.38C629.08 17.38 629.887 17.5267 630.54 17.82C631.207 18.1 631.714 18.5 632.06 19.02C632.407 19.54 632.58 20.1533 632.58 20.86C632.58 21.3133 632.507 21.7133 632.36 22.06C632.227 22.3933 632.047 22.6933 631.82 22.96C631.594 23.2267 631.334 23.4667 631.04 23.68C630.76 23.8933 630.48 24.0867 630.2 24.26C629.88 24.42 629.58 24.58 629.3 24.74C629.02 24.8867 628.76 25.0333 628.52 25.18C628.28 25.3133 628.054 25.46 627.84 25.62C627.64 25.7667 627.447 25.9333 627.26 26.12H632.8V29H622.76ZM640.07 21.78C640.07 20.9133 640.23 20.0667 640.55 19.24C640.87 18.4 641.336 17.64 641.95 16.96C642.563 16.28 643.31 15.74 644.19 15.34C645.07 14.9267 646.07 14.72 647.19 14.72C648.523 14.72 649.676 15.0067 650.65 15.58C651.636 16.1533 652.37 16.9 652.85 17.82L650.33 19.58C650.116 19.0733 649.83 18.68 649.47 18.4C649.123 18.12 648.736 17.9267 648.31 17.82C647.896 17.7 647.496 17.64 647.11 17.64C646.483 17.64 645.936 17.7667 645.47 18.02C645.003 18.26 644.616 18.5867 644.31 19C644.003 19.4133 643.776 19.8733 643.63 20.38C643.483 20.8867 643.41 21.3933 643.41 21.9C643.41 22.46 643.496 23 643.67 23.52C643.843 24.04 644.09 24.5 644.41 24.9C644.743 25.3 645.143 25.62 645.61 25.86C646.076 26.0867 646.59 26.2 647.15 26.2C647.55 26.2 647.956 26.1333 648.37 26C648.783 25.8667 649.163 25.66 649.51 25.38C649.87 25.0867 650.143 24.7067 650.33 24.24L653.01 25.82C652.73 26.5133 652.27 27.1067 651.63 27.6C650.99 28.0933 650.263 28.4733 649.45 28.74C648.65 28.9933 647.856 29.12 647.07 29.12C646.043 29.12 645.096 28.9133 644.23 28.5C643.376 28.0733 642.636 27.5133 642.01 26.82C641.396 26.1133 640.916 25.3267 640.57 24.46C640.236 23.58 640.07 22.6867 640.07 21.78ZM655.259 29V14.8H658.539V29H655.259ZM663.915 14.8L667.255 25.16L670.555 14.8H674.015L668.855 29H665.635L660.435 14.8H663.915ZM675.932 29V14.8H679.212V29H675.932ZM682.528 29V14.8H685.808V26.12H692.688V29H682.528ZM709.489 26.12V29H699.509V14.8H709.309V17.68H702.789V20.44H708.389V23.1H702.789V26.12H709.489ZM714.162 14.8L717.242 19.7L720.322 14.8H723.882L719.182 22L723.722 29H720.162L717.242 24.3L714.322 29H710.742L715.282 22L710.582 14.8H714.162ZM725.709 29V14.8H731.769C732.449 14.8 733.069 14.94 733.629 15.22C734.203 15.4867 734.696 15.8533 735.109 16.32C735.523 16.7733 735.843 17.2867 736.069 17.86C736.296 18.4333 736.409 19.02 736.409 19.62C736.409 20.4333 736.216 21.2067 735.829 21.94C735.456 22.6733 734.929 23.2733 734.249 23.74C733.583 24.1933 732.789 24.42 731.869 24.42H728.989V29H725.709ZM728.989 21.56H731.669C731.923 21.56 732.156 21.4867 732.369 21.34C732.583 21.1933 732.756 20.9733 732.889 20.68C733.023 20.3867 733.089 20.0267 733.089 19.6C733.089 19.16 733.009 18.8 732.849 18.52C732.703 18.2267 732.509 18.0133 732.269 17.88C732.043 17.7467 731.803 17.68 731.549 17.68H728.989V21.56ZM744.99 29.12C743.923 29.12 742.957 28.92 742.09 28.52C741.237 28.1067 740.497 27.56 739.87 26.88C739.257 26.1867 738.783 25.4133 738.45 24.56C738.117 23.6933 737.95 22.8 737.95 21.88C737.95 20.9333 738.123 20.0333 738.47 19.18C738.83 18.3267 739.323 17.5667 739.95 16.9C740.59 16.22 741.343 15.6867 742.21 15.3C743.077 14.9133 744.023 14.72 745.05 14.72C746.103 14.72 747.057 14.9267 747.91 15.34C748.777 15.74 749.517 16.2867 750.13 16.98C750.757 17.6733 751.237 18.4533 751.57 19.32C751.903 20.1733 752.07 21.0467 752.07 21.94C752.07 22.8867 751.897 23.7867 751.55 24.64C751.203 25.4933 750.71 26.26 750.07 26.94C749.43 27.6067 748.677 28.14 747.81 28.54C746.957 28.9267 746.017 29.12 744.99 29.12ZM741.29 21.92C741.29 22.4667 741.37 23 741.53 23.52C741.69 24.0267 741.923 24.48 742.23 24.88C742.55 25.28 742.943 25.6 743.41 25.84C743.877 26.08 744.41 26.2 745.01 26.2C745.637 26.2 746.183 26.08 746.65 25.84C747.117 25.5867 747.503 25.2533 747.81 24.84C748.117 24.4267 748.343 23.9667 748.49 23.46C748.65 22.94 748.73 22.4133 748.73 21.88C748.73 21.3333 748.65 20.8067 748.49 20.3C748.33 19.7933 748.09 19.34 747.77 18.94C747.45 18.5267 747.057 18.2067 746.59 17.98C746.123 17.7533 745.597 17.64 745.01 17.64C744.383 17.64 743.837 17.76 743.37 18C742.917 18.24 742.53 18.5667 742.21 18.98C741.903 19.38 741.67 19.84 741.51 20.36C741.363 20.8667 741.29 21.3867 741.29 21.92ZM759.833 29V14.8H763.113V29H759.833ZM777.25 17.68H772.93V29H769.65V17.68H765.31V14.8H777.25V17.68ZM787.971 18.96C787.931 18.8933 787.791 18.7933 787.551 18.66C787.311 18.5133 787.011 18.36 786.651 18.2C786.291 18.04 785.898 17.9 785.471 17.78C785.045 17.66 784.618 17.6 784.191 17.6C783.631 17.6 783.198 17.7 782.891 17.9C782.585 18.0867 782.431 18.38 782.431 18.78C782.431 19.1 782.545 19.3533 782.771 19.54C783.011 19.7267 783.351 19.8933 783.791 20.04C784.231 20.1733 784.771 20.3333 785.411 20.52C786.318 20.76 787.105 21.0533 787.771 21.4C788.438 21.7333 788.945 22.1667 789.291 22.7C789.651 23.2333 789.831 23.94 789.831 24.82C789.831 25.62 789.685 26.3 789.391 26.86C789.098 27.4067 788.698 27.8533 788.191 28.2C787.698 28.5333 787.131 28.78 786.491 28.94C785.851 29.0867 785.191 29.16 784.511 29.16C783.818 29.16 783.105 29.0933 782.371 28.96C781.651 28.8133 780.958 28.6133 780.291 28.36C779.625 28.0933 779.011 27.7733 778.451 27.4L779.891 24.54C779.945 24.6067 780.118 24.7333 780.411 24.92C780.705 25.0933 781.065 25.28 781.491 25.48C781.931 25.6667 782.418 25.8333 782.951 25.98C783.485 26.1267 784.025 26.2 784.571 26.2C785.158 26.2 785.591 26.1067 785.871 25.92C786.165 25.7333 786.311 25.4733 786.311 25.14C786.311 24.78 786.158 24.5 785.851 24.3C785.558 24.1 785.151 23.92 784.631 23.76C784.125 23.6 783.538 23.42 782.871 23.22C782.005 22.9533 781.285 22.6533 780.711 22.32C780.151 21.9867 779.731 21.58 779.451 21.1C779.185 20.62 779.051 20.02 779.051 19.3C779.051 18.3 779.285 17.46 779.751 16.78C780.231 16.0867 780.871 15.5667 781.671 15.22C782.471 14.86 783.345 14.68 784.291 14.68C784.958 14.68 785.598 14.76 786.211 14.92C786.838 15.08 787.418 15.28 787.951 15.52C788.498 15.76 788.985 16 789.411 16.24L787.971 18.96ZM796.964 29C796.964 28.3733 797.011 27.8133 797.104 27.32C797.211 26.8267 797.377 26.38 797.604 25.98C797.844 25.5667 798.157 25.1867 798.544 24.84C798.944 24.48 799.444 24.14 800.044 23.82C800.671 23.4867 801.191 23.2067 801.604 22.98C802.031 22.74 802.371 22.54 802.624 22.38C802.877 22.22 803.051 22.0667 803.144 21.92C803.251 21.76 803.304 21.5867 803.304 21.4C803.304 21.1467 803.244 20.9267 803.124 20.74C803.004 20.5533 802.831 20.4133 802.604 20.32C802.377 20.2133 802.097 20.16 801.764 20.16C801.497 20.16 801.244 20.1933 801.004 20.26C800.764 20.3267 800.531 20.4267 800.304 20.56C800.091 20.6933 799.884 20.8533 799.684 21.04C799.484 21.2133 799.284 21.4133 799.084 21.64L797.064 19.28C797.291 19.0533 797.577 18.8267 797.924 18.6C798.284 18.3733 798.691 18.1733 799.144 18C799.597 17.8133 800.091 17.6667 800.624 17.56C801.171 17.44 801.737 17.38 802.324 17.38C803.284 17.38 804.091 17.5267 804.744 17.82C805.411 18.1 805.917 18.5 806.264 19.02C806.611 19.54 806.784 20.1533 806.784 20.86C806.784 21.3133 806.711 21.7133 806.564 22.06C806.431 22.3933 806.251 22.6933 806.024 22.96C805.797 23.2267 805.537 23.4667 805.244 23.68C804.964 23.8933 804.684 24.0867 804.404 24.26C804.084 24.42 803.784 24.58 803.504 24.74C803.224 24.8867 802.964 25.0333 802.724 25.18C802.484 25.3133 802.257 25.46 802.044 25.62C801.844 25.7667 801.651 25.9333 801.464 26.12H807.004V29H796.964ZM819.826 23.14C819.826 24.3133 819.599 25.36 819.146 26.28C818.692 27.1867 818.072 27.9 817.286 28.42C816.499 28.94 815.606 29.2 814.606 29.2C813.619 29.2 812.726 28.94 811.926 28.42C811.139 27.9 810.519 27.1867 810.066 26.28C809.612 25.36 809.386 24.3133 809.386 23.14C809.386 21.9667 809.612 20.9267 810.066 20.02C810.519 19.1 811.139 18.38 811.926 17.86C812.726 17.3267 813.619 17.06 814.606 17.06C815.606 17.06 816.499 17.3267 817.286 17.86C818.072 18.38 818.692 19.1 819.146 20.02C819.599 20.9267 819.826 21.9667 819.826 23.14ZM816.606 23.14C816.606 22.5133 816.519 21.9667 816.346 21.5C816.172 21.0333 815.932 20.6667 815.626 20.4C815.332 20.1333 814.992 20 814.606 20C814.206 20 813.852 20.1333 813.546 20.4C813.239 20.6667 812.999 21.0333 812.826 21.5C812.666 21.9667 812.586 22.5133 812.586 23.14C812.586 23.7667 812.666 24.3133 812.826 24.78C812.999 25.2467 813.239 25.6133 813.546 25.88C813.852 26.1333 814.206 26.26 814.606 26.26C814.992 26.26 815.332 26.1333 815.626 25.88C815.932 25.6133 816.172 25.2467 816.346 24.78C816.519 24.3133 816.606 23.7667 816.606 23.14ZM822.051 29C822.051 28.3733 822.097 27.8133 822.191 27.32C822.297 26.8267 822.464 26.38 822.691 25.98C822.931 25.5667 823.244 25.1867 823.631 24.84C824.031 24.48 824.531 24.14 825.131 23.82C825.757 23.4867 826.277 23.2067 826.691 22.98C827.117 22.74 827.457 22.54 827.711 22.38C827.964 22.22 828.137 22.0667 828.231 21.92C828.337 21.76 828.391 21.5867 828.391 21.4C828.391 21.1467 828.331 20.9267 828.211 20.74C828.091 20.5533 827.917 20.4133 827.691 20.32C827.464 20.2133 827.184 20.16 826.851 20.16C826.584 20.16 826.331 20.1933 826.091 20.26C825.851 20.3267 825.617 20.4267 825.391 20.56C825.177 20.6933 824.971 20.8533 824.771 21.04C824.571 21.2133 824.371 21.4133 824.171 21.64L822.151 19.28C822.377 19.0533 822.664 18.8267 823.011 18.6C823.371 18.3733 823.777 18.1733 824.231 18C824.684 17.8133 825.177 17.6667 825.711 17.56C826.257 17.44 826.824 17.38 827.411 17.38C828.371 17.38 829.177 17.5267 829.831 17.82C830.497 18.1 831.004 18.5 831.351 19.02C831.697 19.54 831.871 20.1533 831.871 20.86C831.871 21.3133 831.797 21.7133 831.651 22.06C831.517 22.3933 831.337 22.6933 831.111 22.96C830.884 23.2267 830.624 23.4667 830.331 23.68C830.051 23.8933 829.771 24.0867 829.491 24.26C829.171 24.42 828.871 24.58 828.591 24.74C828.311 24.8867 828.051 25.0333 827.811 25.18C827.571 25.3133 827.344 25.46 827.131 25.62C826.931 25.7667 826.737 25.9333 826.551 26.12H832.091V29H822.051ZM834.252 29C834.252 28.3733 834.299 27.8133 834.392 27.32C834.499 26.8267 834.666 26.38 834.892 25.98C835.132 25.5667 835.446 25.1867 835.832 24.84C836.232 24.48 836.732 24.14 837.332 23.82C837.959 23.4867 838.479 23.2067 838.892 22.98C839.319 22.74 839.659 22.54 839.912 22.38C840.166 22.22 840.339 22.0667 840.432 21.92C840.539 21.76 840.592 21.5867 840.592 21.4C840.592 21.1467 840.532 20.9267 840.412 20.74C840.292 20.5533 840.119 20.4133 839.892 20.32C839.666 20.2133 839.386 20.16 839.052 20.16C838.786 20.16 838.532 20.1933 838.292 20.26C838.052 20.3267 837.819 20.4267 837.592 20.56C837.379 20.6933 837.172 20.8533 836.972 21.04C836.772 21.2133 836.572 21.4133 836.372 21.64L834.352 19.28C834.579 19.0533 834.866 18.8267 835.212 18.6C835.572 18.3733 835.979 18.1733 836.432 18C836.886 17.8133 837.379 17.6667 837.912 17.56C838.459 17.44 839.026 17.38 839.612 17.38C840.572 17.38 841.379 17.5267 842.032 17.82C842.699 18.1 843.206 18.5 843.552 19.02C843.899 19.54 844.072 20.1533 844.072 20.86C844.072 21.3133 843.999 21.7133 843.852 22.06C843.719 22.3933 843.539 22.6933 843.312 22.96C843.086 23.2267 842.826 23.4667 842.532 23.68C842.252 23.8933 841.972 24.0867 841.692 24.26C841.372 24.42 841.072 24.58 840.792 24.74C840.512 24.8867 840.252 25.0333 840.012 25.18C839.772 25.3133 839.546 25.46 839.332 25.62C839.132 25.7667 838.939 25.9333 838.752 26.12H844.292V29H834.252ZM851.562 21.78C851.562 20.9133 851.722 20.0667 852.042 19.24C852.362 18.4 852.829 17.64 853.442 16.96C854.055 16.28 854.802 15.74 855.682 15.34C856.562 14.9267 857.562 14.72 858.682 14.72C860.015 14.72 861.169 15.0067 862.142 15.58C863.129 16.1533 863.862 16.9 864.342 17.82L861.822 19.58C861.609 19.0733 861.322 18.68 860.962 18.4C860.615 18.12 860.229 17.9267 859.802 17.82C859.389 17.7 858.989 17.64 858.602 17.64C857.975 17.64 857.429 17.7667 856.962 18.02C856.495 18.26 856.109 18.5867 855.802 19C855.495 19.4133 855.269 19.8733 855.122 20.38C854.975 20.8867 854.902 21.3933 854.902 21.9C854.902 22.46 854.989 23 855.162 23.52C855.335 24.04 855.582 24.5 855.902 24.9C856.235 25.3 856.635 25.62 857.102 25.86C857.569 26.0867 858.082 26.2 858.642 26.2C859.042 26.2 859.449 26.1333 859.862 26C860.275 25.8667 860.655 25.66 861.002 25.38C861.362 25.0867 861.635 24.7067 861.822 24.24L864.502 25.82C864.222 26.5133 863.762 27.1067 863.122 27.6C862.482 28.0933 861.755 28.4733 860.942 28.74C860.142 28.9933 859.349 29.12 858.562 29.12C857.535 29.12 856.589 28.9133 855.722 28.5C854.869 28.0733 854.129 27.5133 853.502 26.82C852.889 26.1133 852.409 25.3267 852.062 24.46C851.729 23.58 851.562 22.6867 851.562 21.78ZM866.751 29V14.8H870.031V29H866.751ZM875.407 14.8L878.747 25.16L882.047 14.8H885.507L880.347 29H877.127L871.927 14.8H875.407ZM887.424 29V14.8H890.704V29H887.424ZM894.02 29V14.8H897.3V26.12H904.18V29H894.02ZM920.981 26.12V29H911.001V14.8H920.801V17.68H914.281V20.44H919.881V23.1H914.281V26.12H920.981ZM925.654 14.8L928.734 19.7L931.814 14.8H935.374L930.674 22L935.214 29H931.654L928.734 24.3L925.814 29H922.234L926.774 22L922.074 14.8H925.654ZM937.201 29V14.8H943.261C943.941 14.8 944.561 14.94 945.121 15.22C945.695 15.4867 946.188 15.8533 946.601 16.32C947.015 16.7733 947.335 17.2867 947.561 17.86C947.788 18.4333 947.901 19.02 947.901 19.62C947.901 20.4333 947.708 21.2067 947.321 21.94C946.948 22.6733 946.421 23.2733 945.741 23.74C945.075 24.1933 944.281 24.42 943.361 24.42H940.481V29H937.201ZM940.481 21.56H943.161C943.415 21.56 943.648 21.4867 943.861 21.34C944.075 21.1933 944.248 20.9733 944.381 20.68C944.515 20.3867 944.581 20.0267 944.581 19.6C944.581 19.16 944.501 18.8 944.341 18.52C944.195 18.2267 944.001 18.0133 943.761 17.88C943.535 17.7467 943.295 17.68 943.041 17.68H940.481V21.56ZM956.482 29.12C955.416 29.12 954.449 28.92 953.582 28.52C952.729 28.1067 951.989 27.56 951.362 26.88C950.749 26.1867 950.276 25.4133 949.942 24.56C949.609 23.6933 949.442 22.8 949.442 21.88C949.442 20.9333 949.616 20.0333 949.962 19.18C950.322 18.3267 950.816 17.5667 951.442 16.9C952.082 16.22 952.836 15.6867 953.702 15.3C954.569 14.9133 955.516 14.72 956.542 14.72C957.596 14.72 958.549 14.9267 959.402 15.34C960.269 15.74 961.009 16.2867 961.622 16.98C962.249 17.6733 962.729 18.4533 963.062 19.32C963.396 20.1733 963.562 21.0467 963.562 21.94C963.562 22.8867 963.389 23.7867 963.042 24.64C962.696 25.4933 962.202 26.26 961.562 26.94C960.922 27.6067 960.169 28.14 959.302 28.54C958.449 28.9267 957.509 29.12 956.482 29.12ZM952.782 21.92C952.782 22.4667 952.862 23 953.022 23.52C953.182 24.0267 953.416 24.48 953.722 24.88C954.042 25.28 954.436 25.6 954.902 25.84C955.369 26.08 955.902 26.2 956.502 26.2C957.129 26.2 957.676 26.08 958.142 25.84C958.609 25.5867 958.996 25.2533 959.302 24.84C959.609 24.4267 959.836 23.9667 959.982 23.46C960.142 22.94 960.222 22.4133 960.222 21.88C960.222 21.3333 960.142 20.8067 959.982 20.3C959.822 19.7933 959.582 19.34 959.262 18.94C958.942 18.5267 958.549 18.2067 958.082 17.98C957.616 17.7533 957.089 17.64 956.502 17.64C955.876 17.64 955.329 17.76 954.862 18C954.409 18.24 954.022 18.5667 953.702 18.98C953.396 19.38 953.162 19.84 953.002 20.36C952.856 20.8667 952.782 21.3867 952.782 21.92ZM971.326 29V14.8H974.606V29H971.326ZM988.742 17.68H984.422V29H981.142V17.68H976.802V14.8H988.742V17.68ZM999.464 18.96C999.424 18.8933 999.284 18.7933 999.044 18.66C998.804 18.5133 998.504 18.36 998.144 18.2C997.784 18.04 997.39 17.9 996.964 17.78C996.537 17.66 996.11 17.6 995.684 17.6C995.124 17.6 994.69 17.7 994.384 17.9C994.077 18.0867 993.924 18.38 993.924 18.78C993.924 19.1 994.037 19.3533 994.264 19.54C994.504 19.7267 994.844 19.8933 995.284 20.04C995.724 20.1733 996.264 20.3333 996.904 20.52C997.81 20.76 998.597 21.0533 999.264 21.4C999.93 21.7333 1000.44 22.1667 1000.78 22.7C1001.14 23.2333 1001.32 23.94 1001.32 24.82C1001.32 25.62 1001.18 26.3 1000.88 26.86C1000.59 27.4067 1000.19 27.8533 999.684 28.2C999.19 28.5333 998.624 28.78 997.984 28.94C997.344 29.0867 996.684 29.16 996.004 29.16C995.31 29.16 994.597 29.0933 993.864 28.96C993.144 28.8133 992.45 28.6133 991.784 28.36C991.117 28.0933 990.504 27.7733 989.944 27.4L991.384 24.54C991.437 24.6067 991.61 24.7333 991.904 24.92C992.197 25.0933 992.557 25.28 992.984 25.48C993.424 25.6667 993.91 25.8333 994.444 25.98C994.977 26.1267 995.517 26.2 996.064 26.2C996.65 26.2 997.084 26.1067 997.364 25.92C997.657 25.7333 997.804 25.4733 997.804 25.14C997.804 24.78 997.65 24.5 997.344 24.3C997.05 24.1 996.644 23.92 996.124 23.76C995.617 23.6 995.03 23.42 994.364 23.22C993.497 22.9533 992.777 22.6533 992.204 22.32C991.644 21.9867 991.224 21.58 990.944 21.1C990.677 20.62 990.544 20.02 990.544 19.3C990.544 18.3 990.777 17.46 991.244 16.78C991.724 16.0867 992.364 15.5667 993.164 15.22C993.964 14.86 994.837 14.68 995.784 14.68C996.45 14.68 997.09 14.76 997.704 14.92C998.33 15.08 998.91 15.28 999.444 15.52C999.99 15.76 1000.48 16 1000.9 16.24L999.464 18.96ZM1008.46 29C1008.46 28.3733 1008.5 27.8133 1008.6 27.32C1008.7 26.8267 1008.87 26.38 1009.1 25.98C1009.34 25.5667 1009.65 25.1867 1010.04 24.84C1010.44 24.48 1010.94 24.14 1011.54 23.82C1012.16 23.4867 1012.68 23.2067 1013.1 22.98C1013.52 22.74 1013.86 22.54 1014.12 22.38C1014.37 22.22 1014.54 22.0667 1014.64 21.92C1014.74 21.76 1014.8 21.5867 1014.8 21.4C1014.8 21.1467 1014.74 20.9267 1014.62 20.74C1014.5 20.5533 1014.32 20.4133 1014.1 20.32C1013.87 20.2133 1013.59 20.16 1013.26 20.16C1012.99 20.16 1012.74 20.1933 1012.5 20.26C1012.26 20.3267 1012.02 20.4267 1011.8 20.56C1011.58 20.6933 1011.38 20.8533 1011.18 21.04C1010.98 21.2133 1010.78 21.4133 1010.58 21.64L1008.56 19.28C1008.78 19.0533 1009.07 18.8267 1009.42 18.6C1009.78 18.3733 1010.18 18.1733 1010.64 18C1011.09 17.8133 1011.58 17.6667 1012.12 17.56C1012.66 17.44 1013.23 17.38 1013.82 17.38C1014.78 17.38 1015.58 17.5267 1016.24 17.82C1016.9 18.1 1017.41 18.5 1017.76 19.02C1018.1 19.54 1018.28 20.1533 1018.28 20.86C1018.28 21.3133 1018.2 21.7133 1018.06 22.06C1017.92 22.3933 1017.74 22.6933 1017.52 22.96C1017.29 23.2267 1017.03 23.4667 1016.74 23.68C1016.46 23.8933 1016.18 24.0867 1015.9 24.26C1015.58 24.42 1015.28 24.58 1015 24.74C1014.72 24.8867 1014.46 25.0333 1014.22 25.18C1013.98 25.3133 1013.75 25.46 1013.54 25.62C1013.34 25.7667 1013.14 25.9333 1012.96 26.12H1018.5V29H1008.46ZM1031.32 23.14C1031.32 24.3133 1031.09 25.36 1030.64 26.28C1030.18 27.1867 1029.56 27.9 1028.78 28.42C1027.99 28.94 1027.1 29.2 1026.1 29.2C1025.11 29.2 1024.22 28.94 1023.42 28.42C1022.63 27.9 1022.01 27.1867 1021.56 26.28C1021.1 25.36 1020.88 24.3133 1020.88 23.14C1020.88 21.9667 1021.1 20.9267 1021.56 20.02C1022.01 19.1 1022.63 18.38 1023.42 17.86C1024.22 17.3267 1025.11 17.06 1026.1 17.06C1027.1 17.06 1027.99 17.3267 1028.78 17.86C1029.56 18.38 1030.18 19.1 1030.64 20.02C1031.09 20.9267 1031.32 21.9667 1031.32 23.14ZM1028.1 23.14C1028.1 22.5133 1028.01 21.9667 1027.84 21.5C1027.66 21.0333 1027.42 20.6667 1027.12 20.4C1026.82 20.1333 1026.48 20 1026.1 20C1025.7 20 1025.34 20.1333 1025.04 20.4C1024.73 20.6667 1024.49 21.0333 1024.32 21.5C1024.16 21.9667 1024.08 22.5133 1024.08 23.14C1024.08 23.7667 1024.16 24.3133 1024.32 24.78C1024.49 25.2467 1024.73 25.6133 1025.04 25.88C1025.34 26.1333 1025.7 26.26 1026.1 26.26C1026.48 26.26 1026.82 26.1333 1027.12 25.88C1027.42 25.6133 1027.66 25.2467 1027.84 24.78C1028.01 24.3133 1028.1 23.7667 1028.1 23.14ZM1033.54 29C1033.54 28.3733 1033.59 27.8133 1033.68 27.32C1033.79 26.8267 1033.96 26.38 1034.18 25.98C1034.42 25.5667 1034.74 25.1867 1035.12 24.84C1035.52 24.48 1036.02 24.14 1036.62 23.82C1037.25 23.4867 1037.77 23.2067 1038.18 22.98C1038.61 22.74 1038.95 22.54 1039.2 22.38C1039.46 22.22 1039.63 22.0667 1039.72 21.92C1039.83 21.76 1039.88 21.5867 1039.88 21.4C1039.88 21.1467 1039.82 20.9267 1039.7 20.74C1039.58 20.5533 1039.41 20.4133 1039.18 20.32C1038.96 20.2133 1038.68 20.16 1038.34 20.16C1038.08 20.16 1037.82 20.1933 1037.58 20.26C1037.34 20.3267 1037.11 20.4267 1036.88 20.56C1036.67 20.6933 1036.46 20.8533 1036.26 21.04C1036.06 21.2133 1035.86 21.4133 1035.66 21.64L1033.64 19.28C1033.87 19.0533 1034.16 18.8267 1034.5 18.6C1034.86 18.3733 1035.27 18.1733 1035.72 18C1036.18 17.8133 1036.67 17.6667 1037.2 17.56C1037.75 17.44 1038.32 17.38 1038.9 17.38C1039.86 17.38 1040.67 17.5267 1041.32 17.82C1041.99 18.1 1042.5 18.5 1042.84 19.02C1043.19 19.54 1043.36 20.1533 1043.36 20.86C1043.36 21.3133 1043.29 21.7133 1043.14 22.06C1043.01 22.3933 1042.83 22.6933 1042.6 22.96C1042.38 23.2267 1042.12 23.4667 1041.82 23.68C1041.54 23.8933 1041.26 24.0867 1040.98 24.26C1040.66 24.42 1040.36 24.58 1040.08 24.74C1039.8 24.8867 1039.54 25.0333 1039.3 25.18C1039.06 25.3133 1038.84 25.46 1038.62 25.62C1038.42 25.7667 1038.23 25.9333 1038.04 26.12H1043.58V29H1033.54ZM1045.74 29C1045.74 28.3733 1045.79 27.8133 1045.88 27.32C1045.99 26.8267 1046.16 26.38 1046.38 25.98C1046.62 25.5667 1046.94 25.1867 1047.32 24.84C1047.72 24.48 1048.22 24.14 1048.82 23.82C1049.45 23.4867 1049.97 23.2067 1050.38 22.98C1050.81 22.74 1051.15 22.54 1051.4 22.38C1051.66 22.22 1051.83 22.0667 1051.92 21.92C1052.03 21.76 1052.08 21.5867 1052.08 21.4C1052.08 21.1467 1052.02 20.9267 1051.9 20.74C1051.78 20.5533 1051.61 20.4133 1051.38 20.32C1051.16 20.2133 1050.88 20.16 1050.54 20.16C1050.28 20.16 1050.02 20.1933 1049.78 20.26C1049.54 20.3267 1049.31 20.4267 1049.08 20.56C1048.87 20.6933 1048.66 20.8533 1048.46 21.04C1048.26 21.2133 1048.06 21.4133 1047.86 21.64L1045.84 19.28C1046.07 19.0533 1046.36 18.8267 1046.7 18.6C1047.06 18.3733 1047.47 18.1733 1047.92 18C1048.38 17.8133 1048.87 17.6667 1049.4 17.56C1049.95 17.44 1050.52 17.38 1051.1 17.38C1052.06 17.38 1052.87 17.5267 1053.52 17.82C1054.19 18.1 1054.7 18.5 1055.04 19.02C1055.39 19.54 1055.56 20.1533 1055.56 20.86C1055.56 21.3133 1055.49 21.7133 1055.34 22.06C1055.21 22.3933 1055.03 22.6933 1054.8 22.96C1054.58 23.2267 1054.32 23.4667 1054.02 23.68C1053.74 23.8933 1053.46 24.0867 1053.18 24.26C1052.86 24.42 1052.56 24.58 1052.28 24.74C1052 24.8867 1051.74 25.0333 1051.5 25.18C1051.26 25.3133 1051.04 25.46 1050.82 25.62C1050.62 25.7667 1050.43 25.9333 1050.24 26.12H1055.78V29H1045.74ZM1063.05 21.78C1063.05 20.9133 1063.21 20.0667 1063.53 19.24C1063.85 18.4 1064.32 17.64 1064.93 16.96C1065.55 16.28 1066.29 15.74 1067.17 15.34C1068.05 14.9267 1069.05 14.72 1070.17 14.72C1071.51 14.72 1072.66 15.0067 1073.63 15.58C1074.62 16.1533 1075.35 16.9 1075.83 17.82L1073.31 19.58C1073.1 19.0733 1072.81 18.68 1072.45 18.4C1072.11 18.12 1071.72 17.9267 1071.29 17.82C1070.88 17.7 1070.48 17.64 1070.09 17.64C1069.47 17.64 1068.92 17.7667 1068.45 18.02C1067.99 18.26 1067.6 18.5867 1067.29 19C1066.99 19.4133 1066.76 19.8733 1066.61 20.38C1066.47 20.8867 1066.39 21.3933 1066.39 21.9C1066.39 22.46 1066.48 23 1066.65 23.52C1066.83 24.04 1067.07 24.5 1067.39 24.9C1067.73 25.3 1068.13 25.62 1068.59 25.86C1069.06 26.0867 1069.57 26.2 1070.13 26.2C1070.53 26.2 1070.94 26.1333 1071.35 26C1071.77 25.8667 1072.15 25.66 1072.49 25.38C1072.85 25.0867 1073.13 24.7067 1073.31 24.24L1075.99 25.82C1075.71 26.5133 1075.25 27.1067 1074.61 27.6C1073.97 28.0933 1073.25 28.4733 1072.43 28.74C1071.63 28.9933 1070.84 29.12 1070.05 29.12C1069.03 29.12 1068.08 28.9133 1067.21 28.5C1066.36 28.0733 1065.62 27.5133 1064.99 26.82C1064.38 26.1133 1063.9 25.3267 1063.55 24.46C1063.22 23.58 1063.05 22.6867 1063.05 21.78ZM1078.24 29V14.8H1081.52V29H1078.24ZM1086.9 14.8L1090.24 25.16L1093.54 14.8H1097L1091.84 29H1088.62L1083.42 14.8H1086.9ZM1098.92 29V14.8H1102.2V29H1098.92ZM1105.51 29V14.8H1108.79V26.12H1115.67V29H1105.51ZM1132.47 26.12V29H1122.49V14.8H1132.29V17.68H1125.77V20.44H1131.37V23.1H1125.77V26.12H1132.47ZM1137.15 14.8L1140.23 19.7L1143.31 14.8H1146.87L1142.17 22L1146.71 29H1143.15L1140.23 24.3L1137.31 29H1133.73L1138.27 22L1133.57 14.8H1137.15ZM1148.69 29V14.8H1154.75C1155.43 14.8 1156.05 14.94 1156.61 15.22C1157.19 15.4867 1157.68 15.8533 1158.09 16.32C1158.51 16.7733 1158.83 17.2867 1159.05 17.86C1159.28 18.4333 1159.39 19.02 1159.39 19.62C1159.39 20.4333 1159.2 21.2067 1158.81 21.94C1158.44 22.6733 1157.91 23.2733 1157.23 23.74C1156.57 24.1933 1155.77 24.42 1154.85 24.42H1151.97V29H1148.69ZM1151.97 21.56H1154.65C1154.91 21.56 1155.14 21.4867 1155.35 21.34C1155.57 21.1933 1155.74 20.9733 1155.87 20.68C1156.01 20.3867 1156.07 20.0267 1156.07 19.6C1156.07 19.16 1155.99 18.8 1155.83 18.52C1155.69 18.2267 1155.49 18.0133 1155.25 17.88C1155.03 17.7467 1154.79 17.68 1154.53 17.68H1151.97V21.56ZM1167.97 29.12C1166.91 29.12 1165.94 28.92 1165.07 28.52C1164.22 28.1067 1163.48 27.56 1162.85 26.88C1162.24 26.1867 1161.77 25.4133 1161.43 24.56C1161.1 23.6933 1160.93 22.8 1160.93 21.88C1160.93 20.9333 1161.11 20.0333 1161.45 19.18C1161.81 18.3267 1162.31 17.5667 1162.93 16.9C1163.57 16.22 1164.33 15.6867 1165.19 15.3C1166.06 14.9133 1167.01 14.72 1168.03 14.72C1169.09 14.72 1170.04 14.9267 1170.89 15.34C1171.76 15.74 1172.5 16.2867 1173.11 16.98C1173.74 17.6733 1174.22 18.4533 1174.55 19.32C1174.89 20.1733 1175.05 21.0467 1175.05 21.94C1175.05 22.8867 1174.88 23.7867 1174.53 24.64C1174.19 25.4933 1173.69 26.26 1173.05 26.94C1172.41 27.6067 1171.66 28.14 1170.79 28.54C1169.94 28.9267 1169 29.12 1167.97 29.12ZM1164.27 21.92C1164.27 22.4667 1164.35 23 1164.51 23.52C1164.67 24.0267 1164.91 24.48 1165.21 24.88C1165.53 25.28 1165.93 25.6 1166.39 25.84C1166.86 26.08 1167.39 26.2 1167.99 26.2C1168.62 26.2 1169.17 26.08 1169.63 25.84C1170.1 25.5867 1170.49 25.2533 1170.79 24.84C1171.1 24.4267 1171.33 23.9667 1171.47 23.46C1171.63 22.94 1171.71 22.4133 1171.71 21.88C1171.71 21.3333 1171.63 20.8067 1171.47 20.3C1171.31 19.7933 1171.07 19.34 1170.75 18.94C1170.43 18.5267 1170.04 18.2067 1169.57 17.98C1169.11 17.7533 1168.58 17.64 1167.99 17.64C1167.37 17.64 1166.82 17.76 1166.35 18C1165.9 18.24 1165.51 18.5667 1165.19 18.98C1164.89 19.38 1164.65 19.84 1164.49 20.36C1164.35 20.8667 1164.27 21.3867 1164.27 21.92ZM1182.82 29V14.8H1186.1V29H1182.82ZM1200.23 17.68H1195.91V29H1192.63V17.68H1188.29V14.8H1200.23V17.68ZM1210.96 18.96C1210.92 18.8933 1210.78 18.7933 1210.54 18.66C1210.3 18.5133 1210 18.36 1209.64 18.2C1209.28 18.04 1208.88 17.9 1208.46 17.78C1208.03 17.66 1207.6 17.6 1207.18 17.6C1206.62 17.6 1206.18 17.7 1205.88 17.9C1205.57 18.0867 1205.42 18.38 1205.42 18.78C1205.42 19.1 1205.53 19.3533 1205.76 19.54C1206 19.7267 1206.34 19.8933 1206.78 20.04C1207.22 20.1733 1207.76 20.3333 1208.4 20.52C1209.3 20.76 1210.09 21.0533 1210.76 21.4C1211.42 21.7333 1211.93 22.1667 1212.28 22.7C1212.64 23.2333 1212.82 23.94 1212.82 24.82C1212.82 25.62 1212.67 26.3 1212.38 26.86C1212.08 27.4067 1211.68 27.8533 1211.18 28.2C1210.68 28.5333 1210.12 28.78 1209.48 28.94C1208.84 29.0867 1208.18 29.16 1207.5 29.16C1206.8 29.16 1206.09 29.0933 1205.36 28.96C1204.64 28.8133 1203.94 28.6133 1203.28 28.36C1202.61 28.0933 1202 27.7733 1201.44 27.4L1202.88 24.54C1202.93 24.6067 1203.1 24.7333 1203.4 24.92C1203.69 25.0933 1204.05 25.28 1204.48 25.48C1204.92 25.6667 1205.4 25.8333 1205.94 25.98C1206.47 26.1267 1207.01 26.2 1207.56 26.2C1208.14 26.2 1208.58 26.1067 1208.86 25.92C1209.15 25.7333 1209.3 25.4733 1209.3 25.14C1209.3 24.78 1209.14 24.5 1208.84 24.3C1208.54 24.1 1208.14 23.92 1207.62 23.76C1207.11 23.6 1206.52 23.42 1205.86 23.22C1204.99 22.9533 1204.27 22.6533 1203.7 22.32C1203.14 21.9867 1202.72 21.58 1202.44 21.1C1202.17 20.62 1202.04 20.02 1202.04 19.3C1202.04 18.3 1202.27 17.46 1202.74 16.78C1203.22 16.0867 1203.86 15.5667 1204.66 15.22C1205.46 14.86 1206.33 14.68 1207.28 14.68C1207.94 14.68 1208.58 14.76 1209.2 14.92C1209.82 15.08 1210.4 15.28 1210.94 15.52C1211.48 15.76 1211.97 16 1212.4 16.24L1210.96 18.96ZM1219.95 29C1219.95 28.3733 1220 27.8133 1220.09 27.32C1220.2 26.8267 1220.36 26.38 1220.59 25.98C1220.83 25.5667 1221.14 25.1867 1221.53 24.84C1221.93 24.48 1222.43 24.14 1223.03 23.82C1223.66 23.4867 1224.18 23.2067 1224.59 22.98C1225.02 22.74 1225.36 22.54 1225.61 22.38C1225.86 22.22 1226.04 22.0667 1226.13 21.92C1226.24 21.76 1226.29 21.5867 1226.29 21.4C1226.29 21.1467 1226.23 20.9267 1226.11 20.74C1225.99 20.5533 1225.82 20.4133 1225.59 20.32C1225.36 20.2133 1225.08 20.16 1224.75 20.16C1224.48 20.16 1224.23 20.1933 1223.99 20.26C1223.75 20.3267 1223.52 20.4267 1223.29 20.56C1223.08 20.6933 1222.87 20.8533 1222.67 21.04C1222.47 21.2133 1222.27 21.4133 1222.07 21.64L1220.05 19.28C1220.28 19.0533 1220.56 18.8267 1220.91 18.6C1221.27 18.3733 1221.68 18.1733 1222.13 18C1222.58 17.8133 1223.08 17.6667 1223.61 17.56C1224.16 17.44 1224.72 17.38 1225.31 17.38C1226.27 17.38 1227.08 17.5267 1227.73 17.82C1228.4 18.1 1228.9 18.5 1229.25 19.02C1229.6 19.54 1229.77 20.1533 1229.77 20.86C1229.77 21.3133 1229.7 21.7133 1229.55 22.06C1229.42 22.3933 1229.24 22.6933 1229.01 22.96C1228.78 23.2267 1228.52 23.4667 1228.23 23.68C1227.95 23.8933 1227.67 24.0867 1227.39 24.26C1227.07 24.42 1226.77 24.58 1226.49 24.74C1226.21 24.8867 1225.95 25.0333 1225.71 25.18C1225.47 25.3133 1225.24 25.46 1225.03 25.62C1224.83 25.7667 1224.64 25.9333 1224.45 26.12H1229.99V29H1219.95ZM1242.81 23.14C1242.81 24.3133 1242.58 25.36 1242.13 26.28C1241.68 27.1867 1241.06 27.9 1240.27 28.42C1239.48 28.94 1238.59 29.2 1237.59 29.2C1236.6 29.2 1235.71 28.94 1234.91 28.42C1234.12 27.9 1233.5 27.1867 1233.05 26.28C1232.6 25.36 1232.37 24.3133 1232.37 23.14C1232.37 21.9667 1232.6 20.9267 1233.05 20.02C1233.5 19.1 1234.12 18.38 1234.91 17.86C1235.71 17.3267 1236.6 17.06 1237.59 17.06C1238.59 17.06 1239.48 17.3267 1240.27 17.86C1241.06 18.38 1241.68 19.1 1242.13 20.02C1242.58 20.9267 1242.81 21.9667 1242.81 23.14ZM1239.59 23.14C1239.59 22.5133 1239.5 21.9667 1239.33 21.5C1239.16 21.0333 1238.92 20.6667 1238.61 20.4C1238.32 20.1333 1237.98 20 1237.59 20C1237.19 20 1236.84 20.1333 1236.53 20.4C1236.22 20.6667 1235.98 21.0333 1235.81 21.5C1235.65 21.9667 1235.57 22.5133 1235.57 23.14C1235.57 23.7667 1235.65 24.3133 1235.81 24.78C1235.98 25.2467 1236.22 25.6133 1236.53 25.88C1236.84 26.1333 1237.19 26.26 1237.59 26.26C1237.98 26.26 1238.32 26.1333 1238.61 25.88C1238.92 25.6133 1239.16 25.2467 1239.33 24.78C1239.5 24.3133 1239.59 23.7667 1239.59 23.14ZM1245.04 29C1245.04 28.3733 1245.08 27.8133 1245.18 27.32C1245.28 26.8267 1245.45 26.38 1245.68 25.98C1245.92 25.5667 1246.23 25.1867 1246.62 24.84C1247.02 24.48 1247.52 24.14 1248.12 23.82C1248.74 23.4867 1249.26 23.2067 1249.68 22.98C1250.1 22.74 1250.44 22.54 1250.7 22.38C1250.95 22.22 1251.12 22.0667 1251.22 21.92C1251.32 21.76 1251.38 21.5867 1251.38 21.4C1251.38 21.1467 1251.32 20.9267 1251.2 20.74C1251.08 20.5533 1250.9 20.4133 1250.68 20.32C1250.45 20.2133 1250.17 20.16 1249.84 20.16C1249.57 20.16 1249.32 20.1933 1249.08 20.26C1248.84 20.3267 1248.6 20.4267 1248.38 20.56C1248.16 20.6933 1247.96 20.8533 1247.76 21.04C1247.56 21.2133 1247.36 21.4133 1247.16 21.64L1245.14 19.28C1245.36 19.0533 1245.65 18.8267 1246 18.6C1246.36 18.3733 1246.76 18.1733 1247.22 18C1247.67 17.8133 1248.16 17.6667 1248.7 17.56C1249.24 17.44 1249.81 17.38 1250.4 17.38C1251.36 17.38 1252.16 17.5267 1252.82 17.82C1253.48 18.1 1253.99 18.5 1254.34 19.02C1254.68 19.54 1254.86 20.1533 1254.86 20.86C1254.86 21.3133 1254.78 21.7133 1254.64 22.06C1254.5 22.3933 1254.32 22.6933 1254.1 22.96C1253.87 23.2267 1253.61 23.4667 1253.32 23.68C1253.04 23.8933 1252.76 24.0867 1252.48 24.26C1252.16 24.42 1251.86 24.58 1251.58 24.74C1251.3 24.8867 1251.04 25.0333 1250.8 25.18C1250.56 25.3133 1250.33 25.46 1250.12 25.62C1249.92 25.7667 1249.72 25.9333 1249.54 26.12H1255.08V29H1245.04ZM1257.24 29C1257.24 28.3733 1257.28 27.8133 1257.38 27.32C1257.48 26.8267 1257.65 26.38 1257.88 25.98C1258.12 25.5667 1258.43 25.1867 1258.82 24.84C1259.22 24.48 1259.72 24.14 1260.32 23.82C1260.94 23.4867 1261.46 23.2067 1261.88 22.98C1262.3 22.74 1262.64 22.54 1262.9 22.38C1263.15 22.22 1263.32 22.0667 1263.42 21.92C1263.52 21.76 1263.58 21.5867 1263.58 21.4C1263.58 21.1467 1263.52 20.9267 1263.4 20.74C1263.28 20.5533 1263.1 20.4133 1262.88 20.32C1262.65 20.2133 1262.37 20.16 1262.04 20.16C1261.77 20.16 1261.52 20.1933 1261.28 20.26C1261.04 20.3267 1260.8 20.4267 1260.58 20.56C1260.36 20.6933 1260.16 20.8533 1259.96 21.04C1259.76 21.2133 1259.56 21.4133 1259.36 21.64L1257.34 19.28C1257.56 19.0533 1257.85 18.8267 1258.2 18.6C1258.56 18.3733 1258.96 18.1733 1259.42 18C1259.87 17.8133 1260.36 17.6667 1260.9 17.56C1261.44 17.44 1262.01 17.38 1262.6 17.38C1263.56 17.38 1264.36 17.5267 1265.02 17.82C1265.68 18.1 1266.19 18.5 1266.54 19.02C1266.88 19.54 1267.06 20.1533 1267.06 20.86C1267.06 21.3133 1266.98 21.7133 1266.84 22.06C1266.7 22.3933 1266.52 22.6933 1266.3 22.96C1266.07 23.2267 1265.81 23.4667 1265.52 23.68C1265.24 23.8933 1264.96 24.0867 1264.68 24.26C1264.36 24.42 1264.06 24.58 1263.78 24.74C1263.5 24.8867 1263.24 25.0333 1263 25.18C1262.76 25.3133 1262.53 25.46 1262.32 25.62C1262.12 25.7667 1261.92 25.9333 1261.74 26.12H1267.28V29H1257.24ZM1274.55 21.78C1274.55 20.9133 1274.71 20.0667 1275.03 19.24C1275.35 18.4 1275.81 17.64 1276.43 16.96C1277.04 16.28 1277.79 15.74 1278.67 15.34C1279.55 14.9267 1280.55 14.72 1281.67 14.72C1283 14.72 1284.15 15.0067 1285.13 15.58C1286.11 16.1533 1286.85 16.9 1287.33 17.82L1284.81 19.58C1284.59 19.0733 1284.31 18.68 1283.95 18.4C1283.6 18.12 1283.21 17.9267 1282.79 17.82C1282.37 17.7 1281.97 17.64 1281.59 17.64C1280.96 17.64 1280.41 17.7667 1279.95 18.02C1279.48 18.26 1279.09 18.5867 1278.79 19C1278.48 19.4133 1278.25 19.8733 1278.11 20.38C1277.96 20.8867 1277.89 21.3933 1277.89 21.9C1277.89 22.46 1277.97 23 1278.15 23.52C1278.32 24.04 1278.57 24.5 1278.89 24.9C1279.22 25.3 1279.62 25.62 1280.09 25.86C1280.55 26.0867 1281.07 26.2 1281.63 26.2C1282.03 26.2 1282.43 26.1333 1282.85 26C1283.26 25.8667 1283.64 25.66 1283.99 25.38C1284.35 25.0867 1284.62 24.7067 1284.81 24.24L1287.49 25.82C1287.21 26.5133 1286.75 27.1067 1286.11 27.6C1285.47 28.0933 1284.74 28.4733 1283.93 28.74C1283.13 28.9933 1282.33 29.12 1281.55 29.12C1280.52 29.12 1279.57 28.9133 1278.71 28.5C1277.85 28.0733 1277.11 27.5133 1276.49 26.82C1275.87 26.1133 1275.39 25.3267 1275.05 24.46C1274.71 23.58 1274.55 22.6867 1274.55 21.78ZM1289.74 29V14.8H1293.02V29H1289.74ZM1298.39 14.8L1301.73 25.16L1305.03 14.8H1308.49L1303.33 29H1300.11L1294.91 14.8H1298.39ZM1310.41 29V14.8H1313.69V29H1310.41ZM1317 29V14.8H1320.28V26.12H1327.16V29H1317ZM1343.97 26.12V29H1333.99V14.8H1343.79V17.68H1337.27V20.44H1342.87V23.1H1337.27V26.12H1343.97ZM1348.64 14.8L1351.72 19.7L1354.8 14.8H1358.36L1353.66 22L1358.2 29H1354.64L1351.72 24.3L1348.8 29H1345.22L1349.76 22L1345.06 14.8H1348.64ZM1360.19 29V14.8H1366.25C1366.93 14.8 1367.55 14.94 1368.11 15.22C1368.68 15.4867 1369.17 15.8533 1369.59 16.32C1370 16.7733 1370.32 17.2867 1370.55 17.86C1370.77 18.4333 1370.89 19.02 1370.89 19.62C1370.89 20.4333 1370.69 21.2067 1370.31 21.94C1369.93 22.6733 1369.41 23.2733 1368.73 23.74C1368.06 24.1933 1367.27 24.42 1366.35 24.42H1363.47V29H1360.19ZM1363.47 21.56H1366.15C1366.4 21.56 1366.63 21.4867 1366.85 21.34C1367.06 21.1933 1367.23 20.9733 1367.37 20.68C1367.5 20.3867 1367.57 20.0267 1367.57 19.6C1367.57 19.16 1367.49 18.8 1367.33 18.52C1367.18 18.2267 1366.99 18.0133 1366.75 17.88C1366.52 17.7467 1366.28 17.68 1366.03 17.68H1363.47V21.56ZM1379.47 29.12C1378.4 29.12 1377.43 28.92 1376.57 28.52C1375.71 28.1067 1374.97 27.56 1374.35 26.88C1373.73 26.1867 1373.26 25.4133 1372.93 24.56C1372.59 23.6933 1372.43 22.8 1372.43 21.88C1372.43 20.9333 1372.6 20.0333 1372.95 19.18C1373.31 18.3267 1373.8 17.5667 1374.43 16.9C1375.07 16.22 1375.82 15.6867 1376.69 15.3C1377.55 14.9133 1378.5 14.72 1379.53 14.72C1380.58 14.72 1381.53 14.9267 1382.39 15.34C1383.25 15.74 1383.99 16.2867 1384.61 16.98C1385.23 17.6733 1385.71 18.4533 1386.05 19.32C1386.38 20.1733 1386.55 21.0467 1386.55 21.94C1386.55 22.8867 1386.37 23.7867 1386.03 24.64C1385.68 25.4933 1385.19 26.26 1384.55 26.94C1383.91 27.6067 1383.15 28.14 1382.29 28.54C1381.43 28.9267 1380.49 29.12 1379.47 29.12ZM1375.77 21.92C1375.77 22.4667 1375.85 23 1376.01 23.52C1376.17 24.0267 1376.4 24.48 1376.71 24.88C1377.03 25.28 1377.42 25.6 1377.89 25.84C1378.35 26.08 1378.89 26.2 1379.49 26.2C1380.11 26.2 1380.66 26.08 1381.13 25.84C1381.59 25.5867 1381.98 25.2533 1382.29 24.84C1382.59 24.4267 1382.82 23.9667 1382.97 23.46C1383.13 22.94 1383.21 22.4133 1383.21 21.88C1383.21 21.3333 1383.13 20.8067 1382.97 20.3C1382.81 19.7933 1382.57 19.34 1382.25 18.94C1381.93 18.5267 1381.53 18.2067 1381.07 17.98C1380.6 17.7533 1380.07 17.64 1379.49 17.64C1378.86 17.64 1378.31 17.76 1377.85 18C1377.39 18.24 1377.01 18.5667 1376.69 18.98C1376.38 19.38 1376.15 19.84 1375.99 20.36C1375.84 20.8667 1375.77 21.3867 1375.77 21.92ZM1394.31 29V14.8H1397.59V29H1394.31ZM1411.73 17.68H1407.41V29H1404.13V17.68H1399.79V14.8H1411.73V17.68ZM1422.45 18.96C1422.41 18.8933 1422.27 18.7933 1422.03 18.66C1421.79 18.5133 1421.49 18.36 1421.13 18.2C1420.77 18.04 1420.37 17.9 1419.95 17.78C1419.52 17.66 1419.09 17.6 1418.67 17.6C1418.11 17.6 1417.67 17.7 1417.37 17.9C1417.06 18.0867 1416.91 18.38 1416.91 18.78C1416.91 19.1 1417.02 19.3533 1417.25 19.54C1417.49 19.7267 1417.83 19.8933 1418.27 20.04C1418.71 20.1733 1419.25 20.3333 1419.89 20.52C1420.79 20.76 1421.58 21.0533 1422.25 21.4C1422.91 21.7333 1423.42 22.1667 1423.77 22.7C1424.13 23.2333 1424.31 23.94 1424.31 24.82C1424.31 25.62 1424.16 26.3 1423.87 26.86C1423.57 27.4067 1423.17 27.8533 1422.67 28.2C1422.17 28.5333 1421.61 28.78 1420.97 28.94C1420.33 29.0867 1419.67 29.16 1418.99 29.16C1418.29 29.16 1417.58 29.0933 1416.85 28.96C1416.13 28.8133 1415.43 28.6133 1414.77 28.36C1414.1 28.0933 1413.49 27.7733 1412.93 27.4L1414.37 24.54C1414.42 24.6067 1414.59 24.7333 1414.89 24.92C1415.18 25.0933 1415.54 25.28 1415.97 25.48C1416.41 25.6667 1416.89 25.8333 1417.43 25.98C1417.96 26.1267 1418.5 26.2 1419.05 26.2C1419.63 26.2 1420.07 26.1067 1420.35 25.92C1420.64 25.7333 1420.79 25.4733 1420.79 25.14C1420.79 24.78 1420.63 24.5 1420.33 24.3C1420.03 24.1 1419.63 23.92 1419.11 23.76C1418.6 23.6 1418.01 23.42 1417.35 23.22C1416.48 22.9533 1415.76 22.6533 1415.19 22.32C1414.63 21.9867 1414.21 21.58 1413.93 21.1C1413.66 20.62 1413.53 20.02 1413.53 19.3C1413.53 18.3 1413.76 17.46 1414.23 16.78C1414.71 16.0867 1415.35 15.5667 1416.15 15.22C1416.95 14.86 1417.82 14.68 1418.77 14.68C1419.43 14.68 1420.07 14.76 1420.69 14.92C1421.31 15.08 1421.89 15.28 1422.43 15.52C1422.97 15.76 1423.46 16 1423.89 16.24L1422.45 18.96ZM1431.44 29C1431.44 28.3733 1431.49 27.8133 1431.58 27.32C1431.69 26.8267 1431.85 26.38 1432.08 25.98C1432.32 25.5667 1432.63 25.1867 1433.02 24.84C1433.42 24.48 1433.92 24.14 1434.52 23.82C1435.15 23.4867 1435.67 23.2067 1436.08 22.98C1436.51 22.74 1436.85 22.54 1437.1 22.38C1437.35 22.22 1437.53 22.0667 1437.62 21.92C1437.73 21.76 1437.78 21.5867 1437.78 21.4C1437.78 21.1467 1437.72 20.9267 1437.6 20.74C1437.48 20.5533 1437.31 20.4133 1437.08 20.32C1436.85 20.2133 1436.57 20.16 1436.24 20.16C1435.97 20.16 1435.72 20.1933 1435.48 20.26C1435.24 20.3267 1435.01 20.4267 1434.78 20.56C1434.57 20.6933 1434.36 20.8533 1434.16 21.04C1433.96 21.2133 1433.76 21.4133 1433.56 21.64L1431.54 19.28C1431.77 19.0533 1432.05 18.8267 1432.4 18.6C1432.76 18.3733 1433.17 18.1733 1433.62 18C1434.07 17.8133 1434.57 17.6667 1435.1 17.56C1435.65 17.44 1436.21 17.38 1436.8 17.38C1437.76 17.38 1438.57 17.5267 1439.22 17.82C1439.89 18.1 1440.39 18.5 1440.74 19.02C1441.09 19.54 1441.26 20.1533 1441.26 20.86C1441.26 21.3133 1441.19 21.7133 1441.04 22.06C1440.91 22.3933 1440.73 22.6933 1440.5 22.96C1440.27 23.2267 1440.01 23.4667 1439.72 23.68C1439.44 23.8933 1439.16 24.0867 1438.88 24.26C1438.56 24.42 1438.26 24.58 1437.98 24.74C1437.7 24.8867 1437.44 25.0333 1437.2 25.18C1436.96 25.3133 1436.73 25.46 1436.52 25.62C1436.32 25.7667 1436.13 25.9333 1435.94 26.12H1441.48V29H1431.44ZM1454.3 23.14C1454.3 24.3133 1454.08 25.36 1453.62 26.28C1453.17 27.1867 1452.55 27.9 1451.76 28.42C1450.98 28.94 1450.08 29.2 1449.08 29.2C1448.1 29.2 1447.2 28.94 1446.4 28.42C1445.62 27.9 1445 27.1867 1444.54 26.28C1444.09 25.36 1443.86 24.3133 1443.86 23.14C1443.86 21.9667 1444.09 20.9267 1444.54 20.02C1445 19.1 1445.62 18.38 1446.4 17.86C1447.2 17.3267 1448.1 17.06 1449.08 17.06C1450.08 17.06 1450.98 17.3267 1451.76 17.86C1452.55 18.38 1453.17 19.1 1453.62 20.02C1454.08 20.9267 1454.3 21.9667 1454.3 23.14ZM1451.08 23.14C1451.08 22.5133 1451 21.9667 1450.82 21.5C1450.65 21.0333 1450.41 20.6667 1450.1 20.4C1449.81 20.1333 1449.47 20 1449.08 20C1448.68 20 1448.33 20.1333 1448.02 20.4C1447.72 20.6667 1447.48 21.0333 1447.3 21.5C1447.14 21.9667 1447.06 22.5133 1447.06 23.14C1447.06 23.7667 1447.14 24.3133 1447.3 24.78C1447.48 25.2467 1447.72 25.6133 1448.02 25.88C1448.33 26.1333 1448.68 26.26 1449.08 26.26C1449.47 26.26 1449.81 26.1333 1450.1 25.88C1450.41 25.6133 1450.65 25.2467 1450.82 24.78C1451 24.3133 1451.08 23.7667 1451.08 23.14ZM1456.53 29C1456.53 28.3733 1456.57 27.8133 1456.67 27.32C1456.77 26.8267 1456.94 26.38 1457.17 25.98C1457.41 25.5667 1457.72 25.1867 1458.11 24.84C1458.51 24.48 1459.01 24.14 1459.61 23.82C1460.23 23.4867 1460.75 23.2067 1461.17 22.98C1461.59 22.74 1461.93 22.54 1462.19 22.38C1462.44 22.22 1462.61 22.0667 1462.71 21.92C1462.81 21.76 1462.87 21.5867 1462.87 21.4C1462.87 21.1467 1462.81 20.9267 1462.69 20.74C1462.57 20.5533 1462.39 20.4133 1462.17 20.32C1461.94 20.2133 1461.66 20.16 1461.33 20.16C1461.06 20.16 1460.81 20.1933 1460.57 20.26C1460.33 20.3267 1460.09 20.4267 1459.87 20.56C1459.65 20.6933 1459.45 20.8533 1459.25 21.04C1459.05 21.2133 1458.85 21.4133 1458.65 21.64L1456.63 19.28C1456.85 19.0533 1457.14 18.8267 1457.49 18.6C1457.85 18.3733 1458.25 18.1733 1458.71 18C1459.16 17.8133 1459.65 17.6667 1460.19 17.56C1460.73 17.44 1461.3 17.38 1461.89 17.38C1462.85 17.38 1463.65 17.5267 1464.31 17.82C1464.97 18.1 1465.48 18.5 1465.83 19.02C1466.17 19.54 1466.35 20.1533 1466.35 20.86C1466.35 21.3133 1466.27 21.7133 1466.13 22.06C1465.99 22.3933 1465.81 22.6933 1465.59 22.96C1465.36 23.2267 1465.1 23.4667 1464.81 23.68C1464.53 23.8933 1464.25 24.0867 1463.97 24.26C1463.65 24.42 1463.35 24.58 1463.07 24.74C1462.79 24.8867 1462.53 25.0333 1462.29 25.18C1462.05 25.3133 1461.82 25.46 1461.61 25.62C1461.41 25.7667 1461.21 25.9333 1461.03 26.12H1466.57V29H1456.53ZM1468.73 29C1468.73 28.3733 1468.78 27.8133 1468.87 27.32C1468.98 26.8267 1469.14 26.38 1469.37 25.98C1469.61 25.5667 1469.92 25.1867 1470.31 24.84C1470.71 24.48 1471.21 24.14 1471.81 23.82C1472.44 23.4867 1472.96 23.2067 1473.37 22.98C1473.8 22.74 1474.14 22.54 1474.39 22.38C1474.64 22.22 1474.82 22.0667 1474.91 21.92C1475.02 21.76 1475.07 21.5867 1475.07 21.4C1475.07 21.1467 1475.01 20.9267 1474.89 20.74C1474.77 20.5533 1474.6 20.4133 1474.37 20.32C1474.14 20.2133 1473.86 20.16 1473.53 20.16C1473.26 20.16 1473.01 20.1933 1472.77 20.26C1472.53 20.3267 1472.3 20.4267 1472.07 20.56C1471.86 20.6933 1471.65 20.8533 1471.45 21.04C1471.25 21.2133 1471.05 21.4133 1470.85 21.64L1468.83 19.28C1469.06 19.0533 1469.34 18.8267 1469.69 18.6C1470.05 18.3733 1470.46 18.1733 1470.91 18C1471.36 17.8133 1471.86 17.6667 1472.39 17.56C1472.94 17.44 1473.5 17.38 1474.09 17.38C1475.05 17.38 1475.86 17.5267 1476.51 17.82C1477.18 18.1 1477.68 18.5 1478.03 19.02C1478.38 19.54 1478.55 20.1533 1478.55 20.86C1478.55 21.3133 1478.48 21.7133 1478.33 22.06C1478.2 22.3933 1478.02 22.6933 1477.79 22.96C1477.56 23.2267 1477.3 23.4667 1477.01 23.68C1476.73 23.8933 1476.45 24.0867 1476.17 24.26C1475.85 24.42 1475.55 24.58 1475.27 24.74C1474.99 24.8867 1474.73 25.0333 1474.49 25.18C1474.25 25.3133 1474.02 25.46 1473.81 25.62C1473.61 25.7667 1473.42 25.9333 1473.23 26.12H1478.77V29H1468.73Z" fill="white"/>
</g>
<defs>
<clipPath id="clip0_454_5193">
<rect width="217" height="44" fill="white"/>
</clipPath>
</defs>
</svg>
