<svg width="215" height="473" viewBox="0 0 215 473" fill="none" xmlns="http://www.w3.org/2000/svg">
<path d="M162.75 10.8243C162.75 10.8243 16.5132 32.4428 23.8062 141.924C25.6467 169.552 39.7986 189.821 59.8027 203.454M59.8027 203.454C119.069 243.846 229.703 225.992 223.734 168.705C216.868 102.818 88.3386 119.248 59.8027 203.454ZM59.8027 203.454C55.1523 217.177 53.1575 232.7 54.7778 249.96C59.1245 296.263 86.5017 325.611 118.751 341.037M118.751 341.037C172.289 366.647 239.255 353.892 236.571 316.658C232.77 263.936 136.307 280.671 118.751 341.037ZM118.751 341.037C116.44 348.984 115.496 357.688 116.312 367.089C123.323 447.896 228.457 441.809 228.457 441.809" stroke="url(#paint0_linear_253_11787)" stroke-width="20"/>
<defs>
<linearGradient id="paint0_linear_253_11787" x1="93.054" y1="26.8124" x2="192.946" y2="450.188" gradientUnits="userSpaceOnUse">
<stop stop-color="#E8ECEC"/>
<stop offset="1" stop-color="#8098C7" stop-opacity="0"/>
</linearGradient>
</defs>
</svg>
