<svg width="295" height="61" viewBox="0 0 295 61" fill="none" xmlns="http://www.w3.org/2000/svg">
<path d="M36.8638 30.8182C36.8638 34.7836 36.1122 38.1572 34.6088 40.9389C33.1174 43.7206 31.0814 45.8454 28.5009 47.3132C25.9322 48.7692 23.044 49.4972 19.8361 49.4972C16.6046 49.4972 13.7045 48.7633 11.1358 47.2955C8.56718 45.8277 6.53711 43.7029 5.04563 40.9212C3.55415 38.1394 2.80842 34.7718 2.80842 30.8182C2.80842 26.8527 3.55415 23.4792 5.04563 20.6974C6.53711 17.9157 8.56718 15.7969 11.1358 14.3409C13.7045 12.8731 16.6046 12.1392 19.8361 12.1392C23.044 12.1392 25.9322 12.8731 28.5009 14.3409C31.0814 15.7969 33.1174 17.9157 34.6088 20.6974C36.1122 23.4792 36.8638 26.8527 36.8638 30.8182ZM29.0691 30.8182C29.0691 28.2495 28.6844 26.0833 27.915 24.3196C27.1574 22.5559 26.0861 21.2183 24.7012 20.3068C23.3162 19.3954 21.6945 18.9396 19.8361 18.9396C17.9777 18.9396 16.356 19.3954 14.9711 20.3068C13.5861 21.2183 12.5089 22.5559 11.7395 24.3196C10.9819 26.0833 10.6032 28.2495 10.6032 30.8182C10.6032 33.3868 10.9819 35.553 11.7395 37.3168C12.5089 39.0805 13.5861 40.4181 14.9711 41.3295C16.356 42.241 17.9777 42.6967 19.8361 42.6967C21.6945 42.6967 23.3162 42.241 24.7012 41.3295C26.0861 40.4181 27.1574 39.0805 27.915 37.3168C28.6844 35.553 29.0691 33.3868 29.0691 30.8182ZM59.9062 37.3878V21.7273H67.4702V49H60.2081V44.0462H59.924C59.3085 45.6442 58.2846 46.9285 56.8523 47.8991C55.4318 48.8698 53.6977 49.3551 51.6499 49.3551C49.8269 49.3551 48.223 48.9408 46.8381 48.1122C45.4531 47.2836 44.37 46.1058 43.5888 44.5788C42.8194 43.0518 42.4287 41.223 42.4169 39.0923V21.7273H49.9808V37.7429C49.9927 39.3527 50.4247 40.6252 51.277 41.5604C52.1293 42.4955 53.2715 42.9631 54.7038 42.9631C55.6153 42.9631 56.4676 42.7559 57.2607 42.3416C58.0537 41.9155 58.6929 41.2881 59.1783 40.4595C59.6754 39.6309 59.9181 38.607 59.9062 37.3878ZM118.567 18.9751V12.6364H148.432V18.9751H137.299V49H129.699V18.9751H118.567ZM160.772 33.233V49H153.208V12.6364H160.559V26.5391H160.878C161.494 24.9292 162.488 23.6686 163.861 22.7571C165.234 21.8338 166.957 21.3722 169.028 21.3722C170.922 21.3722 172.573 21.7865 173.982 22.6151C175.403 23.4318 176.503 24.6096 177.285 26.1484C178.078 27.6754 178.468 29.5043 178.456 31.6349V49H170.893V32.9844C170.904 31.3035 170.478 29.9955 169.614 29.0604C168.762 28.1252 167.566 27.6577 166.028 27.6577C164.998 27.6577 164.086 27.8767 163.293 28.3146C162.512 28.7526 161.896 29.3918 161.447 30.2322C161.009 31.0608 160.784 32.0611 160.772 33.233ZM219.126 49V21.7273H226.335V26.5391H226.654C227.222 24.9411 228.169 23.6804 229.495 22.7571C230.821 21.8338 232.407 21.3722 234.254 21.3722C236.124 21.3722 237.716 21.8397 239.03 22.7749C240.344 23.6982 241.22 24.9529 241.658 26.5391H241.942C242.498 24.9766 243.504 23.7277 244.96 22.7926C246.428 21.8456 248.162 21.3722 250.163 21.3722C252.708 21.3722 254.773 22.183 256.36 23.8047C257.958 25.4145 258.757 27.6991 258.757 30.6584V49H251.21V32.1499C251.21 30.6347 250.808 29.4983 250.003 28.7408C249.198 27.9832 248.192 27.6044 246.985 27.6044C245.611 27.6044 244.54 28.0424 243.771 28.9183C243.001 29.7824 242.617 30.9247 242.617 32.3452V49H235.284V31.9901C235.284 30.6525 234.899 29.5871 234.129 28.794C233.372 28.0009 232.372 27.6044 231.129 27.6044C230.288 27.6044 229.531 27.8175 228.856 28.2436C228.193 28.6579 227.666 29.2438 227.276 30.0014C226.885 30.7472 226.69 31.6231 226.69 32.6293V49H219.126Z" fill="#003459"/>
<path d="M77.7165 33.2798C71.1258 36.6388 71.7848 44.163 72.312 49H87.0746V31.3988C87.8649 27.771 89.8425 29.9208 89.8425 31.3988V34.7578H105V24.5464C105 19.0645 100.431 16.6191 98.1462 16.0816C92.7686 15.2217 89.0513 21.3665 87.8649 24.5464C87.3373 18.312 82.9005 16.3056 80.748 16.0816H72.312L72.8397 31.3988L78.6391 30.9957C86.9692 27.556 84.3896 20.9266 82.0171 18.0154C86.024 18.8753 86.2349 22.718 85.8395 25.4052C84.126 30.9957 80.5723 31.4435 77.7165 33.2798Z" fill="#003459"/>
<path d="M209.862 46.9803C216.983 44.1679 213.508 38.445 209.862 38.9162C204.542 40.7371 193.457 45.0064 191.069 45.5496C189.138 45.9888 188.108 45.5496 187.464 44.7692C186.435 43.5206 188.15 41.8535 189.138 41.3875C193.17 39.4855 202.628 37.0953 203.04 37.0953C207.715 35.7136 209.647 33.9304 209.862 32.8031C210.805 29.9417 208.23 28.0397 206.258 27.3404L190.554 25.2593C189.696 25.2593 188.279 25.2593 188.279 23.7475C188.279 22.1322 188.922 21.5269 191.368 21.4064C196.645 21.1462 207.39 22.4239 209.862 22.5279C212.333 22.632 213.037 21.2706 213.08 20.5769C214.11 16.3108 205.27 16.2496 200.594 16.0246C191.944 15.6084 186.049 20.5769 184.504 23.3083C180.062 31.1607 186.563 32.8464 189.782 32.4129L196.089 29.9417C198.576 28.9502 199.436 28.5109 200.594 28.5109C202.309 29.0802 200.208 30.6353 199.436 31.1123C196.089 32.9765 188.726 37.5895 186.049 41.1273C183.371 44.6651 187.164 47.2838 189.396 48.1509C194.75 50.1279 205.271 48.1942 209.862 46.9803Z" fill="#003459"/>
<path d="M286.909 47.0055C294.318 45.0761 291.561 38.9745 287.885 39.0007C282.383 40.1639 270.863 43.0592 268.427 43.3092C266.457 43.5114 265.488 42.9507 264.943 42.0981C264.072 40.7339 265.977 39.2869 267.014 38.9439C271.247 37.5443 280.925 36.3171 281.333 36.367C286.142 35.5617 288.276 34.0255 288.625 32.9326C289.908 30.2064 287.583 28.0066 285.709 27.0735L270.373 23.1059C269.521 23.002 268.114 22.8304 268.298 21.3298C268.493 19.7263 269.205 19.2035 271.648 19.38C276.918 19.7609 287.429 22.3304 289.87 22.733C292.31 23.1356 293.174 21.8695 293.3 21.1861C294.839 17.0761 286.072 15.9447 281.458 15.1552C272.922 13.6945 266.468 17.9125 264.604 20.4366C259.243 27.6933 265.493 30.154 268.74 30.1134L275.3 28.4242C277.889 27.7412 278.796 27.4093 279.946 27.5496C281.579 28.3224 279.305 29.6116 278.481 29.9915C274.933 31.4367 267.066 35.1241 263.979 38.3116C260.893 41.4991 264.341 44.5578 266.451 45.6888C271.527 48.2997 282.204 47.6545 286.909 47.0055Z" fill="#003459"/>
</svg>
