<svg width="353" height="380" viewBox="0 0 353 380" fill="none" xmlns="http://www.w3.org/2000/svg">
<g clip-path="url(#clip0_290_5142)">
<path d="M11 70.4256V173.309V305.242C11 332.354 36.8217 342.36 49.7325 343.974C117.514 343.571 261.309 343.006 294.232 343.974C327.154 344.942 336.192 318.556 336.595 305.242V112.789C336.595 88.5815 322.5 84.9504 294.232 84.9504C262.358 85.3538 201 84.9504 186.507 84.9504C176.775 84.9504 171.982 78.8984 170.772 76.4776C166 41.5 145 36.5347 118.725 36.5347C105.411 36.1312 72.2458 35.5663 46.1014 36.5347C19.9569 37.503 11.8069 59.5321 11 70.4256Z" fill="#466496" stroke="url(#paint0_linear_290_5142)" stroke-width="2"/>
<rect x="284.107" y="49.2914" width="89" height="89" rx="44.5" transform="rotate(25.8575 284.107 49.2914)" fill="white"/>
<path d="M297.272 138.964L293.22 137.122L304.14 77.6976L291.797 75.4296L281.463 131.669L277.411 129.827L287.926 72.6054C288.033 72.0211 288.368 71.5034 288.857 71.1662C289.346 70.8289 289.949 70.6998 290.534 70.8072L306.964 73.8262C307.548 73.9336 308.066 74.2687 308.403 74.7577C308.74 75.2468 308.869 75.8498 308.762 76.4341L297.272 138.964Z" fill="#231F20"/>
<path d="M300.538 101.608L281.415 112.331L283.526 116.097L302.65 105.375L300.538 101.608Z" fill="#231F20"/>
<path d="M289.182 85.3034L285.87 88.0731L299.933 104.893L303.245 102.124L289.182 85.3034Z" fill="#231F20"/>
<path d="M305.599 74.0759L286.476 84.798L288.587 88.5644L307.711 77.8423L305.599 74.0759Z" fill="#231F20"/>
<path d="M284.144 112.716L280.831 115.486L294.894 132.306L298.207 129.537L284.144 112.716Z" fill="#231F20"/>
<path d="M336.22 103.091C336.677 103.176 337.082 103.439 337.346 103.822C337.61 104.204 337.711 104.676 337.629 105.133L332.021 135.652C331.967 135.945 331.839 136.22 331.65 136.45C331.461 136.68 331.216 136.858 330.939 136.968L312.967 144.702C312.649 144.84 312.298 144.88 311.958 144.818C311.777 144.788 311.603 144.728 311.441 144.641L311.388 144.631L270.673 126.119C270.317 125.958 270.025 125.682 269.844 125.335C269.663 124.989 269.603 124.592 269.674 124.207L275.284 93.6772C275.327 93.4478 275.415 93.2293 275.543 93.0342C275.672 92.8392 275.837 92.6715 276.031 92.5411C276.224 92.4107 276.442 92.3201 276.671 92.2745C276.899 92.229 277.135 92.2294 277.364 92.2758L336.236 103.094M312.283 141.168L312.718 140.979L328.21 134.321L328.74 134.095L333.86 106.23L278.438 96.0458L273.395 123.491L274.166 123.836L311.852 140.974L312.288 141.169M336.415 102.029L277.559 91.2141C276.819 91.0782 276.056 91.2413 275.436 91.6676C274.817 92.0939 274.392 92.7486 274.254 93.488L268.647 124.007C268.533 124.63 268.632 125.273 268.927 125.834C269.222 126.394 269.696 126.84 270.273 127.099L310.983 145.611C311.235 145.74 311.505 145.832 311.784 145.884C312.334 145.984 312.902 145.918 313.415 145.695L331.387 137.967C331.828 137.787 332.216 137.499 332.516 137.129C332.816 136.759 333.018 136.32 333.104 135.851L338.712 105.332C338.847 104.593 338.684 103.83 338.257 103.211C337.831 102.593 337.176 102.169 336.437 102.033L336.415 102.029ZM312.296 139.991L274.61 122.853L279.305 97.3026L332.598 107.095L327.777 133.33L312.285 139.989L312.296 139.991Z" fill="#231F20"/>
<path d="M325.924 96.1993L303.676 92.1112L304.456 87.8643L326.704 91.9525C327.674 92.1305 328.674 91.9167 329.485 91.3579C330.297 90.7992 330.854 89.9411 331.033 88.9722C331.211 88.0022 330.997 87.001 330.437 86.189C329.877 85.3771 329.018 84.8207 328.048 84.6425L305.81 80.5563L306.59 76.3094L328.828 80.3956C330.924 80.7808 332.782 81.9831 333.992 83.7378C335.202 85.4926 335.665 87.6562 335.28 89.7526C334.894 91.8478 333.691 93.7039 331.937 94.9127C330.182 96.1216 328.019 96.5844 325.924 96.1993Z" fill="#231F20"/>
<path d="M325.986 95.9199L318.427 94.5309L317.522 99.4573L325.081 100.846L325.986 95.9199Z" fill="#231F20"/>
<path d="M324.175 97.1128L319.7 96.2905L318.795 101.217L323.27 102.039L324.175 97.1128Z" fill="#231F20"/>
<path d="M321.969 100.999L320.376 100.706L318.919 108.637L320.511 108.93L321.969 100.999Z" fill="#231F20"/>
<path d="M322.508 115.388C322.148 116.065 321.608 116.628 320.947 117.017C320.287 117.405 319.531 117.602 318.765 117.587C317.999 117.572 317.252 117.344 316.607 116.93C315.963 116.516 315.445 115.932 315.113 115.241C314.78 114.551 314.646 113.782 314.724 113.02C314.802 112.257 315.09 111.532 315.556 110.923C316.021 110.315 316.646 109.847 317.362 109.573C318.077 109.298 318.855 109.227 319.608 109.368C319.875 109.416 320.137 109.492 320.39 109.593L320.682 108.001C319.62 107.645 318.477 107.606 317.393 107.89C316.309 108.173 315.332 108.766 314.579 109.596C313.827 110.426 313.333 111.457 313.158 112.564C312.982 113.67 313.133 114.804 313.591 115.826C314.05 116.848 314.796 117.715 315.739 118.319C316.682 118.924 317.781 119.241 318.901 119.231C320.021 119.221 321.114 118.885 322.047 118.264C322.979 117.643 323.71 116.764 324.151 115.734L322.508 115.388Z" fill="#231F20"/>
<rect x="10" y="134" width="326.806" height="210.608" rx="24.2078" fill="#466496" stroke="url(#paint1_linear_290_5142)" stroke-width="2"/>
</g>
<defs>
<linearGradient id="paint0_linear_290_5142" x1="-141" y1="27" x2="337" y2="131" gradientUnits="userSpaceOnUse">
<stop stop-color="white"/>
<stop offset="1" stop-color="white" stop-opacity="0"/>
</linearGradient>
<linearGradient id="paint1_linear_290_5142" x1="-154" y1="22" x2="327.123" y2="344.608" gradientUnits="userSpaceOnUse">
<stop stop-color="white"/>
<stop offset="1" stop-color="white" stop-opacity="0"/>
</linearGradient>
<clipPath id="clip0_290_5142">
<rect width="353" height="380" fill="white"/>
</clipPath>
</defs>
</svg>
