<svg width="353" height="380" viewBox="0 0 353 380" fill="none" xmlns="http://www.w3.org/2000/svg">
<g clip-path="url(#clip0_290_5219)">
<path d="M7 70.4256V173.309V305.242C7 332.354 32.8217 342.36 45.7325 343.974C113.514 343.571 257.309 343.006 290.232 343.974C323.154 344.942 332.192 318.556 332.595 305.242V112.789C332.595 88.5815 318.5 84.9504 290.232 84.9504C258.358 85.3538 197 84.9504 182.507 84.9504C172.775 84.9504 167.982 78.8984 166.772 76.4776C162 41.5 141 36.5347 114.725 36.5347C101.411 36.1312 68.2458 35.5663 42.1014 36.5347C15.9569 37.503 7.80693 59.5321 7 70.4256Z" fill="#4F8E55" stroke="url(#paint0_linear_290_5219)" stroke-width="2"/>
<rect x="272.76" y="56.9017" width="89" height="89" rx="44.5" transform="rotate(12.1052 272.76 56.9017)" fill="white"/>
<path d="M282.498 101.533L332.71 112.303C333.024 112.37 333.321 112.499 333.584 112.682C333.848 112.865 334.073 113.097 334.246 113.367C334.42 113.636 334.539 113.938 334.596 114.253C334.653 114.569 334.648 114.892 334.58 115.206L328.965 141.385C328.88 141.786 328.695 142.159 328.427 142.469C328.16 142.78 327.819 143.019 327.435 143.163L311.802 149.394C311.468 149.529 311.107 149.586 310.748 149.563C310.388 149.539 310.039 149.435 309.725 149.258L275.291 132.313C274.8 132.074 274.402 131.677 274.162 131.186C273.922 130.695 273.853 130.138 273.966 129.603L279.584 103.41C279.718 102.778 280.098 102.224 280.64 101.871C281.182 101.518 281.842 101.395 282.475 101.528L282.498 101.533ZM330.292 116.002L283.059 105.871L278.122 128.888L311.223 145.295L325.224 139.629L330.292 116.002Z" stroke="#231F20" stroke-width="0.973874" stroke-miterlimit="10"/>
<path d="M295.287 127.49C293.775 127.162 292.455 126.248 291.614 124.949C290.774 123.65 290.482 122.07 290.803 120.557L296.848 92.3728C297.173 90.8588 298.085 89.5357 299.386 88.6947C300.686 87.8538 302.267 87.5637 303.781 87.8885C305.295 88.2132 306.618 89.1261 307.459 90.4263C308.3 91.7265 308.59 93.3076 308.265 94.8216L302.22 123.01C301.891 124.521 300.977 125.841 299.678 126.68C298.379 127.519 296.8 127.811 295.287 127.49ZM302.951 91.7566C302.468 91.6529 301.963 91.7455 301.548 92.014C301.133 92.2824 300.842 92.7048 300.738 93.1881L294.692 121.377C294.589 121.86 294.681 122.365 294.95 122.78C295.218 123.195 295.641 123.486 296.124 123.59C296.607 123.694 297.112 123.601 297.527 123.332C297.942 123.064 298.234 122.642 298.337 122.158L304.379 93.9881C304.483 93.5047 304.39 93 304.122 92.585C303.853 92.1699 303.431 91.8785 302.947 91.7748L302.951 91.7566Z" fill="#231F20"/>
<path d="M311.384 146.23C309.871 145.903 308.55 144.99 307.709 143.69C306.868 142.391 306.577 140.811 306.899 139.297L319.798 79.1571C320.123 77.643 321.036 76.32 322.336 75.479C323.636 74.638 325.217 74.348 326.731 74.6727C328.245 74.9974 329.568 75.9103 330.409 77.2105C331.25 78.5108 331.54 80.0918 331.216 81.6059L318.317 141.746C317.989 143.258 317.075 144.579 315.776 145.419C314.477 146.26 312.898 146.551 311.384 146.23ZM325.902 78.5408C325.418 78.4371 324.914 78.5297 324.498 78.7982C324.083 79.0667 323.792 79.489 323.688 79.9724L310.79 140.113C310.686 140.596 310.779 141.101 311.047 141.516C311.316 141.931 311.738 142.222 312.221 142.326C312.705 142.429 313.209 142.337 313.624 142.068C314.039 141.8 314.331 141.378 314.435 140.894L327.333 80.7541C327.437 80.2708 327.344 79.766 327.076 79.351C326.807 78.9359 326.385 78.6445 325.902 78.5408Z" fill="#231F20"/>
<path d="M323.458 90.1165C323.754 90.1813 324.025 90.3323 324.237 90.5505L324.868 91.1625L336.239 102.913C336.415 103.096 336.544 103.319 336.615 103.562C336.686 103.806 336.696 104.063 336.645 104.311L328.632 141.671C328.578 141.927 328.459 142.165 328.286 142.363C328.114 142.56 327.894 142.71 327.647 142.799L311.681 149.115C311.468 149.201 311.239 149.237 311.01 149.222C310.782 149.207 310.56 149.14 310.36 149.027L310.337 149.023L310.315 149.018L275.087 131.688C274.779 131.536 274.53 131.285 274.381 130.976C274.231 130.667 274.189 130.317 274.261 129.981L282.274 92.6212C282.349 92.2703 282.545 91.9568 282.826 91.7345C283.108 91.5122 283.459 91.3951 283.817 91.4033L283.872 91.415L323.083 90.0839C323.209 90.0807 323.334 90.0916 323.458 90.1165ZM323.653 89.2053C323.455 89.1626 323.252 89.1448 323.05 89.1522L283.833 90.4631C283.255 90.4498 282.69 90.6386 282.235 90.9969C281.781 91.3553 281.466 91.8607 281.344 92.4264L273.331 129.786C273.212 130.326 273.277 130.89 273.516 131.388C273.754 131.886 274.153 132.291 274.647 132.537L309.883 149.831C310.1 149.95 310.334 150.037 310.576 150.089C311.055 150.191 311.553 150.149 312.008 149.967L327.979 143.651C328.37 143.505 328.718 143.262 328.99 142.946C329.263 142.63 329.452 142.25 329.539 141.842L337.552 104.482C337.637 104.081 337.623 103.666 337.509 103.272C337.396 102.879 337.187 102.52 336.901 102.226L324.899 89.8825C324.552 89.5262 324.107 89.2814 323.62 89.1793L323.653 89.2053Z" fill="#231F20"/>
<path d="M322.227 93.651L332.983 104.717L331.417 112.021L283.892 101.828L285.343 95.0664L322.227 93.651Z" stroke="#231F20" stroke-width="0.931937" stroke-miterlimit="10"/>
<rect x="6" y="134" width="326.806" height="210.608" rx="24.2078" fill="#4F8E55" stroke="url(#paint1_linear_290_5219)" stroke-width="2"/>
</g>
<defs>
<linearGradient id="paint0_linear_290_5219" x1="-145" y1="27" x2="333" y2="131" gradientUnits="userSpaceOnUse">
<stop stop-color="white"/>
<stop offset="1" stop-color="white" stop-opacity="0"/>
</linearGradient>
<linearGradient id="paint1_linear_290_5219" x1="-158" y1="22" x2="323.123" y2="344.608" gradientUnits="userSpaceOnUse">
<stop stop-color="white"/>
<stop offset="1" stop-color="white" stop-opacity="0"/>
</linearGradient>
<clipPath id="clip0_290_5219">
<rect width="353" height="380" fill="white"/>
</clipPath>
</defs>
</svg>
