<svg width="353" height="380" viewBox="0 0 353 380" fill="none" xmlns="http://www.w3.org/2000/svg">
<g clip-path="url(#clip0_290_5201)">
<path d="M19 70.4256V173.309V305.242C19 332.354 44.8217 342.36 57.7325 343.974C125.514 343.571 269.309 343.006 302.232 343.974C335.154 344.942 344.192 318.556 344.595 305.242V112.789C344.595 88.5815 330.5 84.9504 302.232 84.9504C270.358 85.3538 209 84.9504 194.507 84.9504C184.775 84.9504 179.982 78.8984 178.772 76.4776C174 41.5 153 36.5347 126.725 36.5347C113.411 36.1312 80.2458 35.5663 54.1014 36.5347C27.9569 37.503 19.8069 59.5321 19 70.4256Z" fill="#9A67AB" stroke="url(#paint0_linear_290_5201)" stroke-width="2"/>
<rect x="293.935" y="50.2072" width="89" height="89" rx="44.5" transform="rotate(29.1404 293.935 50.2072)" fill="white"/>
<path d="M298.311 77.1362C298.017 77.0647 297.707 77.0816 297.422 77.1846L296.503 77.5149L281.431 82.9994C281.196 83.0861 280.986 83.2293 280.819 83.4165C280.652 83.6037 280.534 83.829 280.475 84.0726L271.533 120.769C271.472 121.02 271.476 121.283 271.545 121.533C271.615 121.783 271.746 122.011 271.928 122.195L283.404 134.713C283.609 134.934 283.874 135.089 284.168 135.159C284.321 135.2 284.48 135.216 284.638 135.206L284.679 135.216L296.711 135.146L298.029 135.139L299.781 135.127L296.792 132.105L293.167 132.128L291.845 132.133L285.624 132.169L285.209 132.169L284.932 131.865L275.023 121.103L274.684 120.736L283.243 85.6098L283.715 85.4355L297.463 80.4382L297.85 80.2962L298.217 80.4916L301.208 82.0593L302.375 82.6713L305.793 84.4681L309.867 83.1763L308.073 82.233L306.883 81.6348L298.673 77.2919C298.565 77.2326 298.45 77.1882 298.33 77.1599M298.551 76.25C298.746 76.2973 298.934 76.3691 299.111 76.4636L307.328 80.7792L308.495 81.3912L312.284 83.3845L305.701 85.4771L301.916 83.4849L300.75 82.8729L297.758 81.3053L284.009 86.3026L275.695 120.424L285.603 131.186L291.81 131.17L293.132 131.165L297.149 131.136L301.983 136.021L298.005 136.049L296.687 136.055L284.673 136.13C284.429 136.142 284.185 136.119 283.948 136.06C283.477 135.946 283.05 135.696 282.721 135.341L271.229 122.849C270.943 122.55 270.737 122.184 270.629 121.785C270.522 121.386 270.517 120.966 270.614 120.564L279.556 83.868C279.653 83.4747 279.844 83.1112 280.115 82.8097C280.385 82.5082 280.725 82.2779 281.105 82.1393L297.103 76.3211C297.56 76.153 298.056 76.1247 298.53 76.2399L298.551 76.25ZM297.431 131.142L297.167 131.141L297.447 131.156L297.431 131.142ZM302.304 136.027L302.178 136.208L302.001 136.025L302.304 136.027Z" fill="#231F20"/>
<path d="M350.684 101.432L344.102 94.8201L339.225 89.9349L329.629 80.3192C328.922 79.605 328.031 79.1009 327.054 78.863C326.077 78.625 325.054 78.6624 324.097 78.9711L295.672 88.0263C295.118 88.204 294.618 88.5206 294.221 88.946C293.824 89.3714 293.542 89.8915 293.403 90.4567L286.297 119.614C286.077 120.527 286.093 121.481 286.345 122.386C286.597 123.291 287.076 124.117 287.737 124.785L308.88 145.967C309.32 146.411 309.874 146.725 310.481 146.873C311.089 147.021 311.725 146.997 312.32 146.805L323.375 143.287L329.949 141.192L340.822 137.711C341.716 137.422 342.521 136.909 343.161 136.222C343.801 135.534 344.254 134.694 344.478 133.782L351.581 104.634C351.718 104.068 351.707 103.476 351.55 102.916C351.393 102.355 351.095 101.844 350.684 101.432ZM341.528 133.073C341.428 133.476 341.227 133.847 340.944 134.15C340.661 134.454 340.305 134.681 339.91 134.809L326.162 139.17L319.588 141.265L311.192 143.937L289.884 122.599C289.592 122.304 289.38 121.939 289.269 121.539C289.157 121.139 289.149 120.717 289.245 120.313L296.393 90.9829L325.028 81.8776C325.451 81.7412 325.904 81.7247 326.336 81.83C326.768 81.9353 327.162 82.1582 327.475 82.474L334.948 89.9627L339.83 94.849L348.666 103.721L341.528 133.073Z" fill="#231F20"/>
<path d="M302.954 117.813L291.131 105.967L295.092 89.7117L306.915 101.557L302.954 117.813ZM292.682 105.535L302.181 115.051L305.364 101.989L295.864 92.4783L292.682 105.535Z" fill="#231F20"/>
<path d="M310.772 145.763L298.949 133.917L302.91 117.662L314.733 129.507L310.772 145.763ZM300.501 133.481L309.999 143.001L313.186 129.921L303.683 120.424L300.501 133.481Z" fill="#231F20"/>
<path d="M322.718 96.5784L310.899 84.734L324.145 80.5154C324.957 80.2548 325.825 80.2238 326.654 80.4257C327.482 80.6276 328.239 81.0546 328.84 81.6595L338.66 91.4988L322.718 96.5784ZM313.52 85.3726L323.107 94.9815L336.04 90.8602L327.849 82.6421C327.43 82.2186 326.903 81.9197 326.324 81.7787C325.746 81.6378 325.14 81.6603 324.573 81.8439L313.52 85.3726Z" fill="#231F20"/>
<path d="M318.616 113.411L306.797 101.567L322.739 96.492L334.558 108.332L318.616 113.411ZM309.418 102.206L319.006 111.81L331.938 107.693L322.353 98.0752L309.418 102.206Z" fill="#231F20"/>
<path d="M314.639 129.576L318.6 113.321L334.547 108.242L330.58 124.52L314.639 129.576ZM319.773 114.44L316.591 127.497L329.403 123.419L332.589 110.344L319.773 114.44Z" fill="#231F20"/>
<path d="M326.555 140.702L330.516 124.447L346.463 119.368L343.12 133.085C342.929 133.858 342.543 134.57 341.999 135.153C341.456 135.736 340.773 136.17 340.015 136.415L326.555 140.702ZM331.694 125.544L328.511 138.605L339.589 135.077C340.117 134.905 340.594 134.602 340.973 134.195C341.352 133.788 341.621 133.292 341.755 132.752L344.506 121.465L331.694 125.544Z" fill="#231F20"/>
<path d="M330.497 124.524L334.458 108.269L350.405 103.19L346.444 119.446L330.497 124.524ZM335.631 109.388L332.449 122.445L345.261 118.367L348.447 105.292L335.631 109.388Z" fill="#231F20"/>
<path d="M310.699 145.745L314.66 129.489L330.607 124.411L326.646 140.666L310.699 145.745ZM315.833 130.609L312.651 143.666L325.464 139.583L328.65 126.508L315.833 130.609Z" fill="#231F20"/>
<path d="M334.482 108.347L322.664 96.5026L338.605 91.4275L350.42 103.266L334.482 108.347ZM325.284 97.1412L334.867 106.768L347.799 102.652L338.216 93.0244L325.284 97.1412Z" fill="#231F20"/>
<path d="M306.863 101.617L295.045 89.7723L310.986 84.6972L322.805 96.537L306.863 101.617ZM297.665 90.4108L307.248 100.038L320.167 95.894L310.597 86.2941L297.665 90.4108Z" fill="#231F20"/>
<path d="M314.711 129.594L302.883 117.771L306.85 101.493L318.673 113.338L314.711 129.594ZM304.44 117.316L313.939 126.832L317.12 113.775L307.621 104.259L304.44 117.316Z" fill="#231F20"/>
<path d="M299.012 133.99L289.033 123.992C288.473 123.426 288.066 122.726 287.852 121.958C287.637 121.191 287.622 120.381 287.808 119.606L291.15 105.89L302.973 117.735L299.012 133.99ZM291.924 108.647L289.174 119.934C289.045 120.475 289.056 121.04 289.205 121.575C289.355 122.111 289.638 122.6 290.028 122.996L298.241 131.224L301.422 118.167L291.924 108.647Z" fill="#231F20"/>
<rect x="18" y="134" width="326.806" height="210.608" rx="24.2078" fill="#9A67AB" stroke="url(#paint1_linear_290_5201)" stroke-width="2"/>
</g>
<defs>
<linearGradient id="paint0_linear_290_5201" x1="-133" y1="27" x2="345" y2="131" gradientUnits="userSpaceOnUse">
<stop stop-color="white"/>
<stop offset="1" stop-color="white" stop-opacity="0"/>
</linearGradient>
<linearGradient id="paint1_linear_290_5201" x1="-146" y1="22" x2="335.123" y2="344.608" gradientUnits="userSpaceOnUse">
<stop stop-color="white"/>
<stop offset="1" stop-color="white" stop-opacity="0"/>
</linearGradient>
<clipPath id="clip0_290_5201">
<rect width="353" height="380" fill="white"/>
</clipPath>
</defs>
</svg>
