<svg width="499" height="257" viewBox="0 0 499 257" fill="none" xmlns="http://www.w3.org/2000/svg">
<g clip-path="url(#clip0_2_1065)">
<path d="M320.625 126.835L317.735 131.335L328.017 137.442C328.017 137.442 329.783 139.05 332.514 136.638C335.245 134.226 343.435 114.297 343.435 114.297C343.435 114.297 344.548 111.761 343.435 109.734C342.323 107.707 335.416 101.033 335.416 101.033L332.685 105.619L340.395 112.047C340.395 112.047 341.398 113.655 341.138 114.297C340.878 114.939 330.838 131.731 330.838 131.731C330.838 131.731 329.792 133.905 327.705 132.309C325.618 130.713 320.625 126.835 320.625 126.835Z" fill="white" stroke="#1D1D1B" stroke-miterlimit="10"/>
<path d="M313.237 70.4194C323.494 76.1375 332.418 83.9715 339.42 93.4021L313.092 141.236L282.73 117.524L313.237 70.4194Z" fill="white" stroke="#1D1D1B" stroke-miterlimit="10"/>
<path d="M312.753 140.004C312.753 140.004 313.288 142.895 307.8 140.004C302.311 137.112 272.92 119.441 272.92 119.441L305.846 66.5562L313.556 70.4136L282.876 117.836L312.753 140.004Z" fill="#527AA4" stroke="#1D1D1B" stroke-miterlimit="10"/>
<path d="M307.132 126.835L309.285 128.281L329.781 94.206L328.313 92.8093L307.132 126.835Z" fill="#464646" stroke="#1D1D1B" stroke-miterlimit="10"/>
<path d="M322.472 87.532L328.608 93.3239L327.966 94.1278L322.472 88.5209V87.532Z" fill="#464646" stroke="#1D1D1B" stroke-miterlimit="10"/>
<path d="M366.226 103.528C366.226 103.528 355.645 106.099 355.004 96.4555C354.362 86.8119 351.747 72.9321 366.226 65.2461C366.916 64.8789 369.925 63.6962 372.584 63.9969C378.265 64.6331 383.508 72.3827 384.872 83.1164C385.204 83.0846 388.005 82.8706 390.013 85.0452C391.08 86.2339 391.655 87.785 391.62 89.3826C390.611 91.1138 389.014 92.4252 387.12 93.0781C386.033 93.4295 384.882 93.539 383.748 93.3991C383.748 93.3991 382.095 99.486 377.699 102.149L377.482 107.704L364.905 110.839L366.226 103.528Z" fill="white" stroke="#1D1D1B" stroke-miterlimit="10"/>
<path d="M378.135 101.762C378.135 101.762 393.555 104.494 395.474 85.2072C395.474 85.2072 416.539 62.3835 389.209 62.3835C388.244 62.3835 382.461 49.2035 366.239 60.1338C366.239 60.1338 344.232 55.4725 350.818 76.6884C350.818 76.6884 343.698 84.1894 349.587 87.0983C349.587 87.0983 352.905 87.7692 354.029 84.2327C355.153 80.6963 354.191 72.8223 364.953 66.2323C367.596 66.7603 370.298 66.9227 372.985 66.7152C372.985 66.7152 375.395 75.3901 384.068 81.5001L383.608 84.8833C383.608 84.8833 385.536 83.2785 389.067 84.5624C392.599 85.8463 390.512 89.7066 390.512 89.7066C390.512 89.7066 390.03 93.4021 382.961 93.4021C382.952 93.4021 385.201 95.4928 378.135 101.762Z" fill="#1D1D1B" stroke="#1D1D1B" stroke-miterlimit="10"/>
<path d="M354.358 89.7588C351.307 89.6518 350.503 88.2609 350.636 85.2855C350.769 82.31 354.358 82.4748 354.358 82.4748V89.7588Z" fill="white" stroke="#1D1D1B" stroke-miterlimit="10"/>
<path d="M361.265 73.6348L363.415 75.7919" stroke="#1D1D1B" stroke-miterlimit="10"/>
<path d="M367.841 75.792L371.451 72.51" stroke="#1D1D1B" stroke-miterlimit="10"/>
<path d="M373.913 80.2251L369.647 81.136L372.928 83.0618" fill="white"/>
<path d="M373.913 80.2251L369.647 81.136L372.928 83.0618" stroke="#1D1D1B" stroke-miterlimit="10"/>
<path d="M358.327 80.2251L361.263 82.2839L358.327 83.0618" fill="white"/>
<path d="M358.327 80.2251L361.263 82.2839L358.327 83.0618" stroke="#1D1D1B" stroke-miterlimit="10"/>
<path d="M362.309 82.2318C362.309 82.2318 357.948 81.9629 357.396 83.2236C356.844 84.4844 359.853 88.0729 359.853 88.0729" fill="white"/>
<path d="M362.309 82.2318C362.309 82.2318 357.948 81.9629 357.396 83.2236C356.844 84.4844 359.853 88.0729 359.853 88.0729" stroke="#1D1D1B" stroke-miterlimit="10"/>
<path d="M361.829 96.8575C365.471 99.0002 369.681 98.231 371.542 95.7009C373.242 93.3876 372.409 90.3918 372.271 89.9523C369.647 87.5869 365.78 87.5725 363.43 89.6631C361.52 91.3721 360.864 94.2522 361.829 96.8575Z" fill="white" stroke="#1D1D1B" stroke-miterlimit="10"/>
<path d="M363.435 97.6615C364.044 96.6709 364.75 95.743 365.542 94.8913C367.375 92.9377 369.617 91.414 372.108 90.4296C371.231 89.2878 369.981 88.4914 368.576 88.1799C366.076 87.6738 363.562 88.9519 362.311 90.9125C362.198 91.0889 360.432 93.9429 361.828 96.2157C362.221 96.8361 362.777 97.3364 363.435 97.6615Z" fill="#1D1D1B" stroke="#1D1D1B" stroke-miterlimit="10"/>
<path d="M385.014 88.1307C385.014 88.1307 386.303 85.4068 389.606 87.3963L385.014 88.1307Z" fill="white"/>
<path d="M385.014 88.1307C385.014 88.1307 386.303 85.4068 389.606 87.3963" stroke="#1D1D1B" stroke-miterlimit="10"/>
<path d="M444.314 193.724L447.849 204.062L456.559 197.394L452.013 188.482L444.314 193.724Z" fill="white" stroke="#1D1D1B" stroke-miterlimit="10"/>
<path d="M292.996 265.058C292.996 265.058 302.472 263.13 313.636 280.569L342.149 227.288L377.167 194.982L393.232 224.072C393.232 224.072 398.371 232.432 404.153 233.074C409.936 233.716 413.15 230.824 413.15 230.824L449.613 209.287C449.613 209.287 451.861 196.107 444.313 190.159L413.471 211.216L400.466 166.685L355.648 168.775L292.996 265.058Z" fill="#527AA4" stroke="#1D1D1B" stroke-miterlimit="10"/>
<path d="M338.778 183.41L354.84 162.356V167.764L357.089 167.489L342.899 189.029C342.899 189.029 337.813 187.751 338.778 183.41Z" fill="#527AA4" stroke="#1D1D1B" stroke-miterlimit="10"/>
<path d="M350.505 162.998C350.505 162.998 349.06 167.659 351.632 168.781C354.204 169.903 387.291 167.815 387.291 167.815L386.326 153.51C386.326 153.51 355.646 157.209 355.487 157.53C355.328 157.851 350.664 162.356 350.664 162.356" fill="white"/>
<path d="M350.505 162.998C350.505 162.998 349.06 167.659 351.632 168.781C354.204 169.903 387.291 167.815 387.291 167.815L386.326 153.51C386.326 153.51 355.646 157.209 355.487 157.53C355.328 157.851 350.664 162.356 350.664 162.356" stroke="#1D1D1B" stroke-miterlimit="10"/>
<path d="M365.2 107.227L351.065 111.885C351.065 111.885 347.851 114.777 349.458 119.115L353.955 153.991L338.696 181.314V183.355L354.9 163.571L364.726 151.579L362.636 113.487C362.636 113.487 364.076 108.028 365.2 107.227Z" fill="#527AA4" stroke="#1D1D1B" stroke-miterlimit="10"/>
<path d="M392.278 131.496C392.278 131.496 399.988 138.746 397.899 143.719C396.658 146.691 394.94 149.44 392.812 151.856L388.113 147.23L391.315 131.661L392.278 131.496Z" fill="#527AA4" stroke="#1D1D1B" stroke-miterlimit="10"/>
<path d="M451.141 189.115C450.54 188.722 454.681 184.052 459.337 185.379C463.993 186.707 463.66 196.68 463.66 196.68C463.66 196.68 469.923 212.107 465.909 214.518C461.894 216.93 461.25 206.161 452.574 200.696C452.586 200.688 458.53 193.939 451.141 189.115Z" fill="#1D1D1B" stroke="#1D1D1B" stroke-miterlimit="10"/>
<path d="M365.203 107.155C365.203 107.155 363.035 111.183 362.634 113.441C362.232 115.7 363.706 133.061 363.706 133.061L380.063 108.121L379.742 103.769C375.656 110.443 370.431 113.343 367.694 111.99C367.292 111.79 365.711 110.891 365.203 107.155Z" fill="white" stroke="#1D1D1B" stroke-miterlimit="10"/>
<path d="M364.798 107.065C365.054 107.525 365.437 107.902 365.902 108.15C367.289 108.864 370.107 109.335 377.329 104.333C377.988 103.876 379.063 103.43 379.739 103.85C380.846 104.544 380.242 107.343 380.06 108.187C379.661 110.035 378.436 113.681 373.794 117.51C372.131 117.185 370.613 116.34 369.459 115.098C368.742 114.308 368.195 113.377 367.853 112.366L365.283 115.257C364.934 115.408 363.662 115.914 362.971 115.35C362.76 115.173 362.336 114.67 362.867 112.204C363.262 110.407 363.912 108.677 364.798 107.065Z" fill="white" stroke="#1D1D1B" stroke-miterlimit="10"/>
<path d="M379.738 103.858C379.738 103.858 394.997 105.145 397.566 111.894C400.136 118.643 392.104 131.664 392.104 131.664L388.905 147.233L409.135 167.185C409.135 167.185 402.549 182.936 391.466 190.492C391.466 190.492 368.346 169.435 360.624 156.899L364.8 150.792L360.624 137.754L380.059 108.196L379.738 103.858Z" fill="#527AA4" stroke="#1D1D1B" stroke-miterlimit="10"/>
<path d="M353.427 124.184C353.427 124.184 362.551 132.775 357.887 146.122C357.887 146.122 350.569 140.495 353.427 124.184Z" fill="#527AA4" stroke="#1D1D1B" stroke-miterlimit="10"/>
<path d="M351.63 124.424L341.44 110.281C341.44 110.281 339.57 108.352 336.845 110.281C334.12 112.209 330.906 113.979 330.906 113.979C330.906 113.979 330.019 115.211 331.195 116.926L335.868 113.658L328.354 118.961C328.354 118.961 327.713 121.373 328.837 121.694C329.961 122.015 334.137 118.478 334.137 118.478L327.542 123.137C327.542 123.137 326.418 125.386 328.346 125.71C330.273 126.034 333.808 122.819 333.808 122.819L328.346 126.355C327.932 126.788 327.702 127.364 327.704 127.963C327.727 128.799 328.282 129.643 328.987 129.892C329.817 130.181 330.649 129.582 333.322 127.801C335.634 131.363 337.946 132.529 339.588 132.945C340.166 133.09 340.663 133.145 345.368 133.428L351.148 135.837L351.63 124.424Z" fill="white" stroke="#1D1D1B" stroke-miterlimit="10"/>
<path d="M351.148 123.299L350.345 135.996L364.8 139.853L365.766 129.727L351.148 123.299Z" fill="white" stroke="#1D1D1B" stroke-miterlimit="10"/>
<path d="M386.068 114.942L375.243 133.425L353.75 124.172C353.75 124.172 362.553 132.769 358.215 146.111L380.866 147.074C388.895 139.684 394.638 130.146 397.412 119.589" fill="#527AA4"/>
<path d="M386.068 114.942L375.243 133.425L353.75 124.172C353.75 124.172 362.553 132.769 358.215 146.111L380.866 147.074C388.895 139.684 394.638 130.146 397.412 119.589" stroke="#1D1D1B" stroke-miterlimit="10"/>
<path d="M360.301 152.713C361.455 152.713 362.391 151.777 362.391 150.622C362.391 149.467 361.455 148.531 360.301 148.531C359.147 148.531 358.212 149.467 358.212 150.622C358.212 151.777 359.147 152.713 360.301 152.713Z" fill="#527AA4" stroke="#1D1D1B" stroke-miterlimit="10"/>
<path d="M397.09 155.121C396.766 155.283 388.093 162.998 388.093 162.998L392.59 167.029C392.59 167.029 395.162 168.301 396.445 167.015L402.711 160.748L397.09 155.121Z" fill="#527AA4" stroke="#1D1D1B" stroke-miterlimit="10"/>
<path d="M144.09 165.41V159.239C145.115 158.531 146.257 158.008 147.462 157.695C149.39 157.212 161.912 150.466 161.912 150.466C161.912 150.466 164.643 151.59 164.643 153.039C164.643 154.488 165.605 158.663 165.605 158.663L162.874 158.984L162.233 154.647L148.578 160.109C148.578 160.109 146.65 160.109 146.974 162.038C147.164 163.155 147.28 164.283 147.321 165.415L144.09 165.41Z" fill="white" stroke="#1D1D1B" stroke-miterlimit="10"/>
<path d="M146.017 145.64L147.462 147.727L152.924 142.103L150.517 137.763L146.017 145.64Z" fill="white" stroke="#1D1D1B" stroke-miterlimit="10"/>
<path d="M161.435 155.121C162.721 153.033 160.473 150.139 160.473 150.139L152.601 140.816L147.139 147.406C147.139 147.406 143.928 153.675 145.855 156.729C147.783 159.782 148.425 154.962 148.425 154.962C148.425 154.962 149.87 159.623 148.907 160.745C147.945 161.867 150.835 163.154 150.835 163.154C150.835 163.154 153.083 161.708 152.921 160.583C152.76 159.459 156.618 160.1 156.618 160.1L161.435 155.121Z" fill="white" stroke="#1D1D1B" stroke-miterlimit="10"/>
<path d="M140.394 182.444L141.035 200.928L180.553 185.177L178.53 167.177L161.598 182.927L140.394 182.444Z" fill="white" stroke="#1D1D1B" stroke-miterlimit="10"/>
<path d="M134.612 170.551L137.67 198.678C137.67 198.678 139.563 201.318 140.993 200.861C141.459 200.711 141.785 200.26 142.028 199.632C145.129 191.68 139.598 176.016 139.598 176.016C138.904 174.056 138.288 172.5 137.921 171.601V171.56C137.878 170.192 136.924 168.573 136.063 168.622C135.202 168.671 134.635 170.47 134.612 170.551Z" fill="white" stroke="#1D1D1B" stroke-miterlimit="10"/>
<path d="M135.053 168.94C135.053 168.94 140.833 173.044 139.966 183.731H162.612L178.795 169.99C178.795 169.99 178.313 155.685 174.137 155.202C169.961 154.719 135.053 168.94 135.053 168.94Z" fill="white" stroke="#1D1D1B" stroke-miterlimit="10"/>
<path d="M160.5 182.375L161.778 188.051L167.413 185.174L166.28 180.14L160.5 182.375Z" fill="#BAD4D3" stroke="#1D1D1B" stroke-miterlimit="10"/>
<path d="M41.3499 117.596C41.3499 117.596 26.9838 127.274 37.5929 139.573C37.5929 139.564 53.7392 129.351 41.3499 117.596Z" fill="#527AA4" stroke="#1D1D1B" stroke-miterlimit="10"/>
<path d="M25.7043 107.039C26.8834 106.432 27.7591 106.614 29.8804 106.579C31.7213 106.55 31.4814 106.403 32.9322 106.42C34.1173 106.435 35.2992 106.545 36.4666 106.75C36.8823 107.272 37.1087 107.92 37.1087 108.588C37.1087 109.255 36.8823 109.903 36.4666 110.425C38.2844 109.74 39.9115 109.905 40.5357 110.761C40.6998 110.992 40.7923 111.267 40.8016 111.55C42.0761 114.63 41.8131 116.59 41.2842 117.839C40.7553 119.089 39.7756 120.089 40.16 121.214C40.3941 121.905 41.027 122.252 41.7668 122.66C43.4488 123.574 45.1828 124.48 46.9688 125.378L42.0963 137.584L34.0419 132.196C34.0419 132.196 22.482 129.704 20.7249 123.117C20.7249 123.117 19.7596 121.408 20.7249 119.048C20.7249 119.048 20.7249 116.527 22.4907 115.24C22.4648 114.755 22.5056 114.268 22.6121 113.794C22.7659 113.103 23.0515 112.448 23.453 111.865C23.401 111.287 23.2623 109.095 24.7391 107.707C25.0275 107.44 25.3525 107.215 25.7043 107.039Z" fill="white" stroke="#1D1D1B" stroke-miterlimit="10"/>
<path d="M38.347 123.117C38.347 123.117 40.1041 128.822 33.6277 131.112L38.347 123.117Z" fill="white"/>
<path d="M38.347 123.117C38.347 123.117 40.1041 128.822 33.6277 131.112" stroke="#1D1D1B" stroke-miterlimit="10"/>
<path d="M24.9368 123.117C25.7171 123.406 26.5609 123.695 27.4713 123.941C28.1389 124.129 28.7833 124.288 29.3989 124.424C29.414 125.141 29.6369 125.839 30.0405 126.433C30.3295 126.838 30.6907 127.37 31.3265 127.477C32.3669 127.653 33.1761 126.534 33.2079 126.488C33.4316 126.154 33.5759 125.773 33.6298 125.375C33.8251 124.22 33.663 123.032 33.1651 121.972C32.6672 120.911 31.8573 120.028 30.8439 119.441C29.4366 118.626 27.7842 118.341 26.1852 118.637" fill="white"/>
<path d="M24.9368 123.117C25.7171 123.406 26.5609 123.695 27.4713 123.941C28.1389 124.129 28.7833 124.288 29.3989 124.424C29.414 125.141 29.6369 125.839 30.0405 126.433C30.3295 126.838 30.6907 127.37 31.3265 127.477C32.3669 127.653 33.1761 126.534 33.2079 126.488C33.4316 126.154 33.5759 125.773 33.6298 125.375C33.8251 124.22 33.663 123.032 33.1651 121.972C32.6672 120.911 31.8573 120.028 30.8439 119.441C29.4366 118.626 27.7842 118.341 26.1852 118.637" stroke="#1D1D1B" stroke-miterlimit="10"/>
<path d="M27.562 114.919C28.5473 114.566 29.5998 114.443 30.6398 114.557C31.2035 114.619 31.757 114.752 32.2871 114.954C33.5597 115.232 34.6804 115.981 35.4256 117.05C36.2926 118.337 36.8706 120.485 35.7753 121.636C34.5124 122.949 33.9142 123.082 33.631 122.914C33.5532 122.853 33.49 122.776 33.4461 122.687C33.4021 122.598 33.3784 122.501 33.3767 122.402" stroke="#1D1D1B" stroke-miterlimit="10"/>
<path d="M39.9676 114.615C39.9676 114.615 37.3464 118.4 36.7453 118.186C36.3032 118.03 34.2686 117.66 33.89 116.388C33.7311 115.853 33.942 115.393 34.2859 114.615C34.7744 113.508 35.3899 112.149 36.1413 110.602C35.9353 110.857 35.6772 111.066 35.3841 111.215C34.5489 111.628 33.6819 111.379 33.0895 111.244C31.8515 110.967 30.582 110.859 29.3152 110.923" fill="white"/>
<path d="M39.9676 114.615C39.9676 114.615 37.3464 118.4 36.7453 118.186C36.3032 118.03 34.2686 117.66 33.89 116.388C33.7311 115.853 33.942 115.393 34.2859 114.615C34.7744 113.508 35.3899 112.149 36.1413 110.602C35.9353 110.857 35.6772 111.066 35.3841 111.215C34.5489 111.628 33.6819 111.379 33.0895 111.244C31.8515 110.967 30.582 110.859 29.3152 110.923" stroke="#1D1D1B" stroke-miterlimit="10"/>
<path d="M91.3965 96.849C92.0208 100.082 94.5119 102.413 97.1765 102.566C100.954 102.783 104.306 98.5956 103.725 96.9242C103.725 96.8982 103.725 96.878 103.696 96.849C102.959 95.9816 102.477 87.457 102.477 87.457C102.477 87.457 111.311 82.3128 110.829 80.546C110.829 80.546 116.609 82.3128 118.539 77.3305C120.47 72.3482 112.115 72.6692 112.115 72.6692C112.115 72.6692 115.649 57.7223 107.939 54.0268C100.228 50.3313 99.5867 50.0074 98.9423 50.0074C98.2978 50.0074 83.845 46.6329 78.383 67.6869C72.9209 88.7409 86.735 86.6531 86.735 86.6531C86.735 86.6531 93.0005 88.9028 92.356 92.1183C91.7116 95.3338 91.3965 96.849 91.3965 96.849Z" fill="white" stroke="#1D1D1B" stroke-miterlimit="10"/>
<path d="M141.601 199.242L152.043 202.457L150.595 211.297L139.35 209.848L141.601 199.242Z" fill="white" stroke="#1D1D1B" stroke-miterlimit="10"/>
<path d="M147.382 200.205C147.382 200.205 154.607 206.795 148.507 211.771C148.507 211.771 153.969 226.38 158.223 228.56C162.477 230.74 161.035 204.701 161.035 204.701C161.035 204.701 158.786 198.921 147.382 200.205Z" fill="#1D1D1B" stroke="#1D1D1B" stroke-miterlimit="10"/>
<path d="M84.8159 155.925C89.9216 156.715 95.1401 156.33 100.075 154.8C103.143 153.812 106.06 152.406 108.745 150.622C111.724 148.695 114.426 146.37 116.776 143.711L120.475 193.858L146.017 195.945C146.017 195.945 149.39 205.751 143.448 215.074L109.713 207.197C109.713 207.197 101.361 201.09 97.185 189.034C93.009 176.979 86.102 167.185 84.8159 155.925Z" fill="#527AA4" stroke="#1D1D1B" stroke-miterlimit="10"/>
<path d="M44.629 240.682C44.629 240.682 61.362 246.896 61.8446 253.983C62.3272 261.071 40.1062 247.648 44.629 240.682Z" fill="#527AA4" stroke="#1D1D1B" stroke-miterlimit="10"/>
<path d="M49.4754 254.452L58.3101 243.842L63.5467 249.146L52.5272 266.024L46.1028 258.951L49.4754 254.452Z" fill="white" stroke="#1D1D1B" stroke-miterlimit="10"/>
<path d="M49.4783 253.807C49.4783 253.807 46.4265 262.97 53.4925 264.416C53.4925 264.416 49.1575 273.898 44.1752 273.256C39.1929 272.614 36.5804 266.857 37.9675 263.546C37.9675 263.546 30.8438 262.326 30.8438 245.771C30.8438 245.771 34.2164 239.181 40.6437 249.949C40.6437 249.949 46.4265 253.807 49.4783 253.807Z" fill="#222023" stroke="#1D1D1B" stroke-miterlimit="10"/>
<path d="M99.1119 159.462C99.1119 159.462 76.7839 184.214 74.0529 196.428L43.9971 241.969C43.9971 241.969 59.7648 246.413 61.2098 255.27L84.8151 209.114C84.8151 209.114 119.206 175.522 121.922 170.059C124.639 164.597 128.026 152.218 123.047 150.289" fill="#527AA4"/>
<path d="M99.1119 159.462C99.1119 159.462 76.7839 184.214 74.0529 196.428L43.9971 241.969C43.9971 241.969 59.7648 246.413 61.2098 255.27L84.8151 209.114C84.8151 209.114 119.206 175.522 121.922 170.059C124.639 164.597 128.026 152.218 123.047 150.289" stroke="#1D1D1B" stroke-miterlimit="10"/>
<path d="M89.636 99.9922C89.5782 100.391 89.5233 100.79 89.4684 101.189L82.2434 155.121C82.2434 155.121 107.944 164.927 120.796 149.176C116.557 133.69 112.327 118.207 108.106 102.725" fill="white"/>
<path d="M89.636 99.9922C89.5782 100.391 89.5233 100.79 89.4684 101.189L82.2434 155.121C82.2434 155.121 107.944 164.927 120.796 149.176C116.557 133.69 112.327 118.207 108.106 102.725" stroke="#1D1D1B" stroke-miterlimit="10"/>
<path d="M95.9799 103.529L98.3901 107.224L94.2141 152.713L103.852 157.854L109.152 150.301L101.682 107.181V104.471L99.6733 100.316L95.9799 103.529Z" fill="#1D1D1B" stroke="#1D1D1B" stroke-miterlimit="10"/>
<path d="M91.7232 93.4021L98.6303 100.316L103.789 95.539L110.196 101.921L103.289 106.423L99.4337 102.245L94.1941 106.423L88.7783 99.0986L91.7232 93.4021Z" fill="white" stroke="#1D1D1B" stroke-miterlimit="10"/>
<path d="M104.292 94.8943C104.292 94.8943 114.118 101.395 118.71 103.367C119.834 103.858 143.769 119.762 152.121 137.283L145.671 147.892C145.671 147.892 134.4 125.916 116.918 121.393L115.017 130.852C115.017 130.852 129.001 141.62 129.955 150.784C130.909 159.947 129.351 171.161 128.206 173.989L99.7864 137.45C99.7864 137.45 105.303 122.807 104.292 120.56C103.28 118.314 109.15 112.14 104.292 94.8943Z" fill="#527AA4" stroke="#1D1D1B" stroke-miterlimit="10"/>
<path d="M89.845 94.8941H78.7735C78.7735 94.8941 79.8341 90.9904 71.6411 101.114C63.448 111.238 53.4891 123.938 52.6857 123.938C51.8823 123.938 42.406 118.634 42.406 118.634C42.406 118.634 49.4749 131.974 38.3918 139.208H56.3791C56.3791 139.208 62.9682 136.476 74.0513 121.367L82.4033 137.112C82.4033 137.112 67.1442 162.668 74.0513 175.204L76.1408 176.649C76.1408 176.649 69.7134 171.187 85.9378 152.542L101.659 135.4C101.659 135.4 107.578 133.512 101.659 126.954C95.7406 120.395 90.5964 106.091 90.5964 106.091C90.5964 106.091 89.0965 102.013 89.845 94.8941Z" fill="#527AA4" stroke="#1D1D1B" stroke-miterlimit="10"/>
<path d="M91.9657 92.4392C86.7493 108.028 101.04 126.352 101.04 126.352C77.747 108.511 83.5299 99.5468 83.5299 99.5468H87.0643L83.5299 96.6292L90.5988 92.4508L91.9657 92.4392Z" fill="#527AA4" stroke="#1D1D1B" stroke-miterlimit="10"/>
<path d="M102.991 92.76L104.129 94.4227L110.363 103.528L107.615 104.494L110.346 107.993L102.973 127.945C102.973 127.945 105.895 98.7081 102.991 92.76Z" fill="#527AA4" stroke="#1D1D1B" stroke-miterlimit="10"/>
<path d="M79.8359 63.0255C79.703 62.5657 78.5585 58.3989 81.1711 55.2383C81.9972 54.2573 83.0594 53.5029 84.2576 53.0464C84.2576 53.0464 88.6706 35.5405 97.0226 38.5883C97.0226 38.5883 96.5429 40.676 99.271 40.1931C99.271 40.1931 111.319 34.8899 118.388 45.3373C118.388 45.3373 115.175 46.3031 117.423 48.3909C119.671 50.4787 117.501 69.2859 126.093 69.2859C126.093 69.2859 121.926 76.3588 119.836 76.0349C119.836 76.0349 121.353 75.8904 120.515 79.4182C119.33 84.3947 104.196 86.3581 103.057 89.4579C103.011 89.5794 102.805 90.2039 102.649 90.1808C102.41 90.1461 102.436 88.6367 102.488 87.4482L110.84 80.5372C111.129 80.6529 113.813 81.7459 116.143 80.2162C117.278 79.4702 118.882 77.7352 118.391 75.8788C118.207 75.2895 117.873 74.7578 117.423 74.3353C116.973 73.9128 116.421 73.6137 115.822 73.4672C115.383 73.3631 114.981 73.3746 112.287 73.9501C112.287 73.9501 112.666 68.9678 112.475 69.2887C112.285 69.6097 107.95 67.1981 108.27 62.8606C108.467 60.2899 108.413 57.7062 108.111 55.1458C105.219 55.0734 102.352 54.5865 99.5976 53.6999C96.618 52.7284 94.439 51.4647 91.3207 52.3958C89.8526 52.8325 89.1503 53.5987 85.8297 56.9848C83.3183 59.5353 81.2491 61.6115 79.8359 63.0255Z" fill="#1D1D1B" stroke="#1D1D1B" stroke-miterlimit="10"/>
<path d="M87.3862 55.7935C87.3862 55.7935 90.9207 54.5067 90.9207 58.5261" stroke="#1D1D1B" stroke-miterlimit="10"/>
<path d="M96.7205 57.0629C96.7205 57.0629 100.96 55.4725 101.633 58.5261" stroke="#1D1D1B" stroke-miterlimit="10"/>
<path d="M100.409 65.009C100.695 63.1196 99.9663 61.4424 98.7812 61.2627C97.5961 61.083 96.4035 62.469 96.1174 64.3583C95.8313 66.2477 96.5601 67.9249 97.7452 68.1046C98.9303 68.2843 100.123 66.8983 100.409 65.009Z" fill="#1D1D1B" stroke="#1D1D1B" stroke-miterlimit="10"/>
<path d="M89.1227 65.0337C89.4063 63.1465 88.6766 61.4722 87.4928 61.2941C86.309 61.1161 85.1195 62.5016 84.836 64.3888C84.5524 66.276 85.2821 67.9503 86.4659 68.1283C87.6497 68.3064 88.8392 66.9209 89.1227 65.0337Z" fill="#1D1D1B" stroke="#1D1D1B" stroke-miterlimit="10"/>
<path d="M87.3852 71.3852C85.1715 69.1095 84.7553 66.5967 85.6657 65.6309C86.3506 64.9051 87.8361 64.9976 88.8447 65.4371C90.5613 66.1948 90.9052 68.0194 90.9312 68.1697" fill="white"/>
<path d="M87.3852 71.3852C85.1715 69.1095 84.7553 66.5967 85.6657 65.6309C86.3506 64.9051 87.8361 64.9976 88.8447 65.4371C90.5613 66.1948 90.9052 68.0194 90.9312 68.1697" stroke="#1D1D1B" stroke-miterlimit="10"/>
<path d="M95.3222 82.4461C98.7295 80.4778 100.323 76.8561 98.8805 74.357C97.4385 71.8578 93.5073 71.4275 90.1001 73.3958C86.6928 75.3641 85.0997 78.9857 86.5418 81.4849C87.9838 83.984 91.915 84.4144 95.3222 82.4461Z" fill="#1D1D1B" stroke="#1D1D1B" stroke-miterlimit="10"/>
<path d="M99.1128 77.9724C98.7689 77.2726 97.1274 77.394 96.061 77.4924C94.5706 77.6198 93.1354 78.1167 91.885 78.9382L88.5095 83.1166C90.2386 83.6394 92.0835 83.6394 93.8126 83.1166C97.0378 82.0872 99.6475 79.0596 99.1128 77.9724Z" fill="white" stroke="#1D1D1B" stroke-miterlimit="10"/>
<path d="M113.246 76.1912C113.246 76.1912 115.269 75.0519 116.902 76.1912H113.246Z" fill="white"/>
<path d="M113.246 76.1912C113.246 76.1912 115.269 75.0519 116.902 76.1912" stroke="#1D1D1B" stroke-miterlimit="10"/>
<path d="M79.0476 65.168C79.0476 65.168 72.4498 67.0591 77.4639 72.5069L79.0476 65.168Z" fill="white" stroke="#1D1D1B" stroke-miterlimit="10"/>
<path d="M299.742 39.8809L310.493 33.1144C313.524 29.2165 316.313 27.4382 318.377 26.5417C318.377 26.5417 318.776 26.3682 323.125 24.6101C323.125 24.6101 322.874 22.6843 324.48 22.3633C326.087 22.0424 332.029 19.9517 334.118 20.5937C336.208 21.2356 335.563 22.3633 335.563 22.3633C335.563 22.3633 338.008 21.7156 338.875 24.6101C339.693 25.2088 340.371 25.9772 340.864 26.8627C340.864 26.8627 341.991 26.5417 342.15 27.8256C342.309 29.1095 342.15 40.4707 342.15 40.4707C341.84 41.1442 341.388 41.7429 340.826 42.226C339.046 43.7412 336.815 43.4781 336.367 43.4173C334.315 43.1282 333.445 42.9836 331.387 42.6135C329.408 42.2578 328.625 42.3734 325.122 42.2925C323.021 42.2433 320.013 42.1248 316.287 41.8096C316.287 41.8096 310.507 48.5615 310.184 48.3996C309.86 48.2377 299.742 39.8809 299.742 39.8809Z" fill="white" stroke="#1D1D1B" stroke-miterlimit="10"/>
<path d="M331.387 24.772C330.476 25.5527 329.361 26.0547 328.173 26.2178C325.43 26.5764 323.448 24.8934 323.124 24.6072" fill="white"/>
<path d="M331.387 24.772C330.476 25.5527 329.361 26.0547 328.173 26.2178C325.43 26.5764 323.448 24.8934 323.124 24.6072" stroke="#1D1D1B" stroke-miterlimit="10"/>
<path d="M327.251 26.27C330.43 28.2942 329.991 28.6296 329.991 28.6296" stroke="#1D1D1B" stroke-miterlimit="10"/>
<path d="M333.478 33.6117C333.478 33.6117 335.244 34.0946 335.406 30.882C335.567 27.6694 335.565 22.3633 335.565 22.3633" stroke="#1D1D1B" stroke-miterlimit="10"/>
<path d="M335.566 37.929C335.566 37.929 338.485 37.5097 338.713 34.5979C338.941 31.686 338.878 24.613 338.878 24.613" stroke="#1D1D1B" stroke-miterlimit="10"/>
<path d="M335.566 40.5547C336.049 40.6848 340.066 41.0058 340.545 38.2732C341.025 35.5406 340.866 26.8628 340.866 26.8628" stroke="#1D1D1B" stroke-miterlimit="10"/>
<path d="M110.356 276.631C110.356 276.631 108.588 296.872 125.457 295.276L149.55 263.13L140.716 253.327L122.884 281.454C122.884 281.454 115.495 282.9 110.356 276.631Z" fill="white" stroke="#1D1D1B" stroke-miterlimit="10"/>
<path d="M257.981 192.733L268.902 189.196C268.902 189.196 274.526 188.392 275.65 194.178C276.774 199.965 277.095 212.824 277.095 212.824C277.095 212.824 273.65 218.127 270.474 212.824L267.538 200.679L263.602 203.672L257.981 206.702V192.733Z" fill="white" stroke="#1D1D1B" stroke-miterlimit="10"/>
<path d="M266.815 189.517C266.815 189.517 274.525 187.267 275.167 194.499C275.809 201.731 276.774 211.537 276.774 211.537C276.774 211.537 271.474 219.894 269.867 210.25C269.867 210.25 268.581 225.206 276.774 224.96C284.967 224.714 279.022 203.018 279.022 203.018V189.187C279.022 189.187 276.612 182.606 266.815 189.517Z" fill="#1D1D1B" stroke="#1D1D1B" stroke-miterlimit="10"/>
<path d="M237.739 67.5279C237.712 66.2235 237.875 64.9221 238.222 63.6646C240.343 56.0047 248.724 52.8123 250.27 52.2513C251.429 52.8982 252.661 53.4039 253.941 53.7579C256.198 54.3773 258.56 54.5211 260.876 54.1801C263.726 52.6128 264.657 49.0214 263.125 46.4652C261.755 44.1779 258.697 43.2005 256.059 44.3774C254.914 44.7259 253.687 44.6926 252.563 44.2827C251.438 43.8727 250.478 43.1083 249.825 42.1046C249.825 42.1046 260.082 23.6646 244.415 16.2592C244.415 16.2592 223.128 12.393 215.9 37.9464C215.9 37.9464 207.868 53.5381 222.807 62.2159L223.448 65.4314L237.739 67.5279Z" fill="white" stroke="#1D1D1B" stroke-miterlimit="10"/>
<path d="M128.509 260.076C128.509 260.076 152.603 274.702 147.462 286.436L189.869 219.414L238.38 180.036C238.38 180.036 263.439 160.977 233.242 130.806C233.242 130.806 194.369 134.388 192.12 126.514C192.12 126.514 182.294 160.266 191.629 175.455L128.509 260.076Z" fill="white" stroke="#1D1D1B" stroke-miterlimit="10"/>
<path d="M236.508 201.411C236.303 200.725 234.581 182.444 234.581 182.444L206.632 206.072C206.632 206.072 215.467 225.191 221.57 225.116C221.57 225.116 223.431 227.429 232.942 225.116C242.453 222.803 263.455 204.296 263.455 204.296V186.368C263.455 186.368 260.854 179.223 256.23 182.436C251.606 185.648 236.289 200.717 236.289 200.717" fill="white"/>
<path d="M236.508 201.411C236.303 200.725 234.581 182.444 234.581 182.444L206.632 206.072C206.632 206.072 215.467 225.191 221.57 225.116C221.57 225.116 223.431 227.429 232.942 225.116C242.453 222.803 263.455 204.296 263.455 204.296V186.368C263.455 186.368 260.854 179.223 256.23 182.436C251.606 185.648 236.289 200.717 236.289 200.717" stroke="#1D1D1B" stroke-miterlimit="10"/>
<path d="M191.628 175.455C191.628 175.455 207.7 152.551 213.482 153.513L191.628 175.455Z" fill="white"/>
<path d="M191.628 175.455C191.628 175.455 207.7 152.551 213.482 153.513" stroke="#1D1D1B" stroke-miterlimit="10"/>
<path d="M209.63 21.3483C205.786 31.0931 210.24 40.6269 211.396 42.9344C211.396 42.9344 198.064 46.4709 198.868 57.8841C198.868 57.8841 199.03 65.92 207.702 65.7581C213.154 65.6364 218.591 65.1447 223.976 64.2862C223.225 62.4906 222.051 60.9033 220.554 59.6596C218.144 57.7309 208.821 50.629 217.577 33.606C226.334 16.5829 238.741 16.5945 238.741 16.5945C238.741 16.5945 242.399 16.4239 242.882 17.8697C242.882 17.8697 244.905 31.8536 250.552 34.5862C250.552 34.5862 248.182 43.5879 252.841 44.3918C257.5 45.1957 265.473 45.1436 262.609 50.4642C259.745 55.7848 256.323 54.2494 256.323 54.2494C256.323 54.2494 251.595 51.0686 250.272 52.257C248.827 53.5438 240.157 54.8277 238.223 60.9319C236.29 67.0362 238.741 69.1326 238.741 69.1326C238.741 69.1326 238.021 123.053 251.535 120.919C251.535 120.919 291.39 126.991 298.297 103.685C305.204 80.3782 258.621 81.9975 258.621 81.9975C258.621 81.9975 254.925 72.831 261.361 64.7952C267.797 56.7593 274.877 35.5636 264.586 23.9797C254.295 12.3958 243.37 13.6826 243.37 13.6826C241.986 12.0749 238.044 7.95717 231.811 7.04631C222.274 5.64387 215.277 12.9481 213.638 14.8075C211.937 16.7412 210.581 18.9538 209.63 21.3483Z" fill="#1D1D1B" stroke="#1D1D1B" stroke-miterlimit="10"/>
<path d="M293.639 45.9878C293.639 45.9878 299.78 45.0133 310.265 60.1568C310.265 60.1481 297.682 64.2166 293.639 45.9878Z" fill="white" stroke="#1D1D1B" stroke-miterlimit="10"/>
<path d="M226.555 21.8805C226.555 21.8805 230.252 21.0766 230.411 23.9682" stroke="#1D1D1B" stroke-miterlimit="10"/>
<path d="M238.156 23.968C238.766 23.968 241.656 22.0422 242.942 25.2548" stroke="#1D1D1B" stroke-miterlimit="10"/>
<path d="M224.391 26.9436L226.561 30.4251L222.946 31.2839" stroke="#1D1D1B" stroke-miterlimit="10"/>
<path d="M240.552 33.0508H234.192L238.16 36.3328" stroke="#1D1D1B" stroke-miterlimit="10"/>
<path d="M227.495 33.0509C224.735 30.9978 223.486 30.8821 222.871 31.2841C222.871 31.2841 222.674 31.4113 221.576 33.0509C221.352 34.088 221.439 35.1682 221.825 36.1565C222.211 37.1603 222.875 38.0337 223.738 38.6751" stroke="#1D1D1B" stroke-miterlimit="10"/>
<path d="M221.917 41.2546C221.87 41.8705 221.454 48.2668 224.489 50.7305C225.017 51.1528 225.614 51.4797 226.254 51.6963C228.327 52.3209 230.205 51.3522 230.977 50.9531C233.763 49.5073 234.861 46.8441 235.17 45.994L234.794 38.8372L219.668 41.5698" fill="#1D1D1B"/>
<path d="M221.917 41.2546C221.87 41.8705 221.454 48.2668 224.489 50.7305C225.017 51.1528 225.614 51.4797 226.254 51.6963C228.327 52.3209 230.205 51.3522 230.977 50.9531C233.763 49.5073 234.861 46.8441 235.17 45.994L234.794 38.8372L219.668 41.5698" stroke="#1D1D1B" stroke-miterlimit="10"/>
<path d="M223.844 50.0884C224.757 48.5442 227.39 44.496 231.153 43.7268C231.945 43.5649 233.977 43.1485 234.768 44.149C235.001 44.4762 235.114 44.8732 235.089 45.2738C235.063 48.1018 230.248 52.8615 226.254 51.7048C225.311 51.4114 224.474 50.8498 223.844 50.0884Z" fill="white" stroke="#1D1D1B" stroke-miterlimit="10"/>
<path d="M153.406 106.423L164.651 109.315L185.052 137.925H178.942L153.406 106.423Z" fill="white" stroke="#1D1D1B" stroke-miterlimit="10"/>
<path d="M153.243 106.099L165.291 109.641L177.822 88.5875C177.822 88.5875 179.319 76.4658 169.173 86.3841C159.026 96.3024 153.243 106.099 153.243 106.099Z" fill="white" stroke="#1D1D1B" stroke-miterlimit="10"/>
<path d="M184.73 137.604L201.434 113.493L179.268 82.6335C177.963 93.116 173.033 102.811 165.333 110.038L184.73 137.604Z" fill="white" stroke="#1D1D1B" stroke-miterlimit="10"/>
<path d="M159.027 98.0749L156.137 95.8252L169.142 81.8412C169.142 81.8412 181.994 76.6999 179.745 87.7893L167.061 112.533L164.007 108.997L176.723 90.2617C176.723 90.2617 179.902 85.369 175.728 84.0852C171.555 82.8013 159.027 98.0749 159.027 98.0749Z" fill="white" stroke="#1D1D1B" stroke-miterlimit="10"/>
<path d="M195.815 107.707C195.815 107.707 176.539 118.958 177.663 125.386C178.787 131.815 190.668 135.675 190.668 135.675L197.254 123.458C198.271 118.176 197.77 112.715 195.809 107.707H195.815Z" fill="#527AA4" stroke="#1D1D1B" stroke-miterlimit="10"/>
<path d="M181.034 2.43127L181.118 2.5932C181.422 3.17664 181.692 3.77717 181.927 4.39179C182.453 5.774 182.505 6.47088 182.961 6.93354C183.606 7.57548 184.406 9.50421 184.406 9.50421C186.334 13.3616 180.389 18.023 180.389 18.023L183.441 31.3621L172.841 36.6682L171.396 19.3184C171.396 19.3184 164.006 12.2455 162.726 10.5568C161.445 8.86805 162.726 6.45931 162.726 6.45931C162.726 6.45931 163.347 4.5971 163.85 3.56768C164.486 2.28968 165.419 1.18229 166.569 0.337722C168.701 0.0547048 170.853 -0.0507201 173.003 0.0225334C173.003 0.0225334 179.863 0.248081 181.034 2.43127Z" fill="white" stroke="#1D1D1B" stroke-miterlimit="10"/>
<path d="M165.124 6.12109C165.124 6.12109 175.574 6.28013 177.958 9.97854C180.342 13.6769 177.224 17.0486 177.224 17.0486" fill="white"/>
<path d="M165.124 6.12109C165.124 6.12109 175.574 6.28013 177.958 9.97854C180.342 13.6769 177.224 17.0486 177.224 17.0486" stroke="#1D1D1B" stroke-miterlimit="10"/>
<path d="M167.703 3.07603C168.295 5.24475 169.564 6.79467 170.986 6.93636C171.591 6.98587 172.194 6.8132 172.682 6.45057C173.14 6.07561 173.475 5.57204 173.644 5.00475C173.736 4.80109 173.79 4.58266 173.803 4.35991C173.818 4.09388 172.584 2.28372 170.59 0.0224609" fill="white"/>
<path d="M167.703 3.07603C168.295 5.24475 169.564 6.79467 170.986 6.93636C171.591 6.98587 172.194 6.8132 172.682 6.45057C173.14 6.07561 173.475 5.57204 173.644 5.00475C173.736 4.80109 173.79 4.58266 173.803 4.35991C173.818 4.09388 172.584 2.28372 170.59 0.0224609" stroke="#1D1D1B" stroke-miterlimit="10"/>
<path d="M171.238 0.826425C171.922 1.37458 172.517 2.02515 173.003 2.75515C173.506 3.51854 173.839 4.01301 173.795 4.67519C173.732 5.75666 172.746 6.45066 172.518 6.60391C172.678 6.93876 172.902 7.23881 173.177 7.4869C173.453 7.73499 173.775 7.92625 174.125 8.04973C174.194 8.06997 175.104 8.35914 175.731 8.04973C176.763 7.53791 177.124 5.35762 176.214 2.74647L174.711 0.548828" fill="white"/>
<path d="M171.238 0.826425C171.922 1.37458 172.517 2.02515 173.003 2.75515C173.506 3.51854 173.839 4.01301 173.795 4.67519C173.732 5.75666 172.746 6.45066 172.518 6.60391C172.678 6.93876 172.902 7.23881 173.177 7.4869C173.453 7.73499 173.775 7.92625 174.125 8.04973C174.194 8.06997 175.104 8.35914 175.731 8.04973C176.763 7.53791 177.124 5.35762 176.214 2.74647L174.711 0.548828" stroke="#1D1D1B" stroke-miterlimit="10"/>
<path d="M178.304 0.826475C180.347 3.08484 180.977 5.90997 179.911 7.89652C179.501 8.64132 178.888 9.25485 178.145 9.6662H177.662C177.237 9.53319 177.18 9.50427 177.18 9.50427C176.974 9.39282 176.806 9.22139 176.7 9.0127C176.295 8.36208 176.538 6.92493 176.538 6.92493C176.849 5.67293 176.77 4.35551 176.311 3.14993C175.852 1.94435 175.034 0.908466 173.969 0.181641" fill="white"/>
<path d="M178.304 0.826475C180.347 3.08484 180.977 5.90997 179.911 7.89652C179.501 8.64132 178.888 9.25485 178.145 9.6662H177.662C177.237 9.53319 177.18 9.50427 177.18 9.50427C176.974 9.39282 176.806 9.22139 176.7 9.0127C176.295 8.36208 176.538 6.92493 176.538 6.92493C176.849 5.67293 176.77 4.35551 176.311 3.14993C175.852 1.94435 175.034 0.908466 173.969 0.181641" stroke="#1D1D1B" stroke-miterlimit="10"/>
<path d="M180.516 9.66631C180.516 9.66631 178.493 6.51732 178.959 4.63487C179.363 3.01555 179.843 1.74323 180.297 1.75769C180.331 1.75769 180.381 1.75769 180.516 1.87914C180.902 2.19249 181.192 2.60705 181.354 3.07628C181.606 3.77316 182.103 5.12645 182.482 5.96791C182.669 6.39009 182.846 6.72263 182.961 6.93372C183.999 8.13408 184.638 9.62762 184.791 11.2076" fill="white"/>
<path d="M180.516 9.66631C180.516 9.66631 178.493 6.51732 178.959 4.63487C179.363 3.01555 179.843 1.74323 180.297 1.75769C180.331 1.75769 180.381 1.75769 180.516 1.87914C180.902 2.19249 181.192 2.60705 181.354 3.07628C181.606 3.77316 182.103 5.12645 182.482 5.96791C182.669 6.39009 182.846 6.72263 182.961 6.93372C183.999 8.13408 184.638 9.62762 184.791 11.2076" stroke="#1D1D1B" stroke-miterlimit="10"/>
<path d="M188.744 126.352C188.675 125.413 189.256 124.348 189.75 123.443C190.802 121.551 192.419 120.034 194.374 119.106L191.556 106.75C191.556 106.75 204.81 70.1043 221.834 67.8546C222.23 66.2985 223.115 64.9107 224.358 63.896C225.602 62.8813 227.139 62.2933 228.742 62.2188C232.209 61.9297 235.293 64.1013 237.9 66.5563C237.9 66.5563 244.154 72.4523 252.061 90.872C247.024 102.537 241.985 114.2 236.943 125.861C237.303 126.378 237.473 127.003 237.426 127.631C237.339 128.498 236.81 129.033 236.302 129.559C235.67 130.203 234.901 130.698 234.053 131.005C222.129 134.426 212.667 134.137 206.746 133.417C199.845 132.587 189.025 130.109 188.744 126.352Z" fill="white" stroke="#1D1D1B" stroke-miterlimit="10"/>
<path d="M293.613 45.9879L301.511 37.6311C301.511 37.6311 313.233 41.3266 314.036 45.9879C314.84 50.6492 310.346 59.9719 310.346 59.9719C310.346 59.9719 300.494 47.5957 293.613 45.9879Z" fill="white" stroke="#1D1D1B" stroke-miterlimit="10"/>
<path d="M169.63 44.2211C169.63 44.2211 176.216 31.362 186.337 36.3443C196.458 41.3265 171.396 51.615 169.63 44.2211Z" fill="#527AA4" stroke="#1D1D1B" stroke-miterlimit="10"/>
<path d="M186.799 37.1482L182.634 28.6295C182.634 28.6295 172.043 25.92 169.788 36.5179V45.3316C169.788 45.3316 172.516 34.4156 186.799 37.1482Z" fill="#527AA4" stroke="#1D1D1B" stroke-miterlimit="10"/>
<path d="M224.244 64.795L219.267 88.7955C213.755 93.9669 207.967 98.8349 201.927 103.378C196.624 107.328 191.509 110.798 186.657 113.814C182.236 116.617 179.026 120.976 177.66 126.031C177.66 126.031 173.143 123.281 177.66 118.146C182.177 113.01 180.721 115.254 180.721 115.254L179.903 104.645L194.422 92.3378C194.422 92.3378 191.804 85.1983 193.252 80.216C193.252 80.216 193.694 77.1596 195.159 77.3244C195.159 77.3244 174.455 60.6079 173.484 39.8748C173.484 39.8748 179.105 33.7677 186.489 36.3384C186.489 36.3384 190.185 53.6882 210.103 63.6643L224.244 64.795Z" fill="#527AA4" stroke="#1D1D1B" stroke-miterlimit="10"/>
<path d="M237.91 125.71C237.91 125.71 251.553 126.908 251.553 133.258C251.553 139.608 241.034 139.619 241.034 139.619L233.965 131.04C239.389 127.949 236.924 125.719 236.924 125.719L237.91 125.71Z" fill="#527AA4" stroke="#1D1D1B" stroke-miterlimit="10"/>
<path d="M252.198 132.46L251.554 128.281C251.554 128.281 260.55 123.62 250.592 117.996C240.633 112.371 250.592 98.6853 250.592 98.6853L259.585 85.2074C259.585 85.2074 288.485 72.6693 292.196 68.8118L307.937 55.9556C305.962 53.0756 303.382 50.6617 300.377 48.8827C298.422 47.7303 296.312 46.8646 294.112 46.312C277.434 57.0111 271.356 60.4058 269.856 60.7702C268.378 61.1173 266.971 61.7169 265.697 62.5428C265.313 62.7914 265.047 62.991 265.004 63.0228C263.594 64.084 259.111 66.6229 242.566 67.8489L214.776 83.1167C214.776 83.1167 210.6 83.9206 217.024 100.467C217.024 100.467 221.2 114.61 223.611 117.816C223.611 117.816 227.787 125.21 233.087 125.21C233.087 125.21 250.277 127.781 251.08 131.959L251.881 133.729L252.198 132.46Z" fill="#527AA4" stroke="#1D1D1B" stroke-miterlimit="10"/>
<path d="M217.902 90.0306C219.278 90.0306 220.393 88.9146 220.393 87.538C220.393 86.1614 219.278 85.0454 217.902 85.0454C216.526 85.0454 215.411 86.1614 215.411 87.538C215.411 88.9146 216.526 90.0306 217.902 90.0306Z" fill="#527AA4" stroke="#1D1D1B" stroke-miterlimit="10"/>
<path d="M173.004 86.1702C174.326 83.2355 176.005 80.4752 178.004 77.9522C182.256 72.6557 187.774 68.5174 194.049 65.9201C202.527 61.7831 212.174 60.7044 221.356 62.8666L224.087 63.1875L222.96 65.1163C199.967 64.7635 189.919 70.22 185.067 75.5637C184.599 76.0756 184.099 76.677 174.787 87.6161L173.004 86.1702Z" fill="white" stroke="#1D1D1B" stroke-miterlimit="10"/>
<path d="M174.851 89.5197C175.93 88.0009 176.014 86.207 175.039 85.5128C174.063 84.8186 172.397 85.4871 171.318 87.0059C170.238 88.5246 170.154 90.3186 171.13 91.0128C172.105 91.707 173.771 91.0385 174.851 89.5197Z" fill="#BAD4D3" stroke="#1D1D1B" stroke-miterlimit="10"/>
<path d="M0 179.391L11.2449 170.077C16.6196 174.4 22.6864 177.783 29.1888 180.082C34.4746 181.935 42.7139 183.98 58.1493 182.933C68.8942 182.204 86.0116 179.781 106.502 171.202C117.776 163.89 127.717 154.703 135.895 144.038C145.51 131.823 166.839 113.155 186.577 108.41C206.662 103.584 232.508 105.518 263.763 123.787C267.522 126.084 271.157 128.576 274.655 131.254C298.278 149.37 301.575 165.311 317.265 176.652C324.377 181.799 336.113 187.499 355.496 187.583C373.48 189.21 391.608 187.244 408.825 181.799C439.54 172.043 458.946 153.727 467.781 144.191L477.581 149.011C470.776 154.848 463.585 160.217 456.056 165.083C436.352 177.806 406.551 197.073 367.062 194.98C358.305 194.514 322.574 198.256 301.685 170.401C289.637 154.326 274.86 137.291 274.86 137.291C274.86 137.291 235.973 97.4215 172.682 120.404C168.082 122.985 163.673 125.893 159.489 129.105C148.877 137.251 144.432 143.754 134.451 153.837C128.275 160.064 121.731 165.914 114.854 171.355C103.773 177.459 81.7662 187.617 52.3664 188.392C34.4907 188.846 16.6995 185.788 0 179.391Z" fill="white" stroke="#1D1D1B" stroke-miterlimit="10"/>
<path d="M99.1918 134.067C100.568 134.067 101.683 132.951 101.683 131.575C101.683 130.198 100.568 129.082 99.1918 129.082C97.816 129.082 96.7007 130.198 96.7007 131.575C96.7007 132.951 97.816 134.067 99.1918 134.067Z" fill="#527AA4" stroke="#1D1D1B" stroke-miterlimit="10"/>
</g>
<defs>
<clipPath id="clip0_2_1065">
<rect width="499" height="257" fill="white"/>
</clipPath>
</defs>
</svg>
