<svg width="332" height="332" viewBox="0 0 332 332" fill="none" xmlns="http://www.w3.org/2000/svg">
<rect x="1.53516" y="1.65698" width="328.965" height="328.591" fill="white" stroke="black"/>
<path d="M1.03545 221.982L38.1567 198.087L73.6278 330.747H1.03548C1.15828 279.256 0.912641 273.479 1.03545 221.982Z" fill="#1D1D1B" stroke="#1D1D1B" stroke-width="1.02" stroke-miterlimit="10"/>
<path d="M109.302 198.328L120.463 193.869L162.557 330.628H147.02L109.302 198.328Z" fill="#1D1D1B" stroke="#1D1D1B" stroke-miterlimit="10"/>
<path d="M44.0723 221.547C44.0723 221.547 85.8611 182.348 109.672 200.929L148.559 330.628H72.5789L44.0723 221.547Z" fill="white" stroke="#1D1D1B" stroke-miterlimit="10"/>
<path d="M103.348 213.937L135.716 330.985" stroke="#1D1D1B" stroke-width="2" stroke-miterlimit="10"/>
<path d="M148.366 288.634L154.319 293.837L187.692 253.85L181.851 248.498L148.366 287.764V288.634Z" fill="#527AA4" stroke="#1D1D1B" stroke-width="1.67" stroke-miterlimit="10"/>
<path d="M181.107 247.755L189.293 254.444L190.037 251.471L194.256 247.755L187.804 241.809L184.828 247.011L181.107 247.755Z" fill="#1D1D1B" stroke="#1D1D1B" stroke-width="2" stroke-miterlimit="10"/>
<path d="M170.458 295.985C168.97 294.008 167.437 291.979 165.324 290.693C160.487 287.72 152.279 286.531 146.885 287.958C139.786 289.838 133.074 293.079 126.794 296.81C126.794 296.81 120.097 299.783 114.144 314.648C114.144 314.648 105.959 323.567 106.703 329.514L199.009 330.628C199.009 330.628 187.059 280.458 162.503 287.148H152.086" fill="white"/>
<path d="M170.458 295.985C168.97 294.008 167.437 291.979 165.324 290.693C160.487 287.72 152.279 286.531 146.885 287.958C139.786 289.838 133.074 293.079 126.794 296.81C126.794 296.81 120.097 299.783 114.144 314.648C114.144 314.648 105.959 323.567 106.703 329.514L199.009 330.628C199.009 330.628 187.059 280.458 162.503 287.148H152.086" stroke="#1D1D1B" stroke-width="2" stroke-miterlimit="10"/>
<path d="M114.637 315.822C121.163 311.586 129.176 310.523 136.707 308.561C140.546 307.557 144.788 305.87 146.187 302.161" fill="white"/>
<path d="M114.637 315.822C121.163 311.586 129.176 310.523 136.707 308.561C140.546 307.557 144.788 305.87 146.187 302.161" stroke="#1D1D1B" stroke-width="2" stroke-miterlimit="10"/>
<path d="M128.075 329.364C130.739 329.476 132.8 327.194 135.211 326.057C137.272 325.076 139.72 324.912 141.566 323.574C142.761 322.599 143.724 321.37 144.386 319.977" fill="white"/>
<path d="M128.075 329.364C130.739 329.476 132.8 327.194 135.211 326.057C137.272 325.076 139.72 324.912 141.566 323.574C142.761 322.599 143.724 321.37 144.386 319.977" stroke="#1D1D1B" stroke-width="2" stroke-miterlimit="10"/>
<path d="M145.152 111.738C145.152 111.738 148.873 102.819 156.314 104.306" stroke="#1D1D1B" stroke-width="2" stroke-miterlimit="10"/>
<path d="M268.673 175.658C268.673 175.658 250.621 158.935 244.765 157.27C238.909 155.605 237.971 157.27 237.971 157.27L220.998 177.762C220.998 177.762 211.734 185.068 202.254 177.762C192.774 170.456 180.869 160.05 180.869 160.05L172.996 164.138C172.996 164.138 156.789 170.552 161.016 150.432V141.706L140.687 119.914C140.687 119.914 130.27 105.049 131.758 82.0077C131.758 82.0077 185.4 108.668 210.633 74.5305C210.633 74.5305 214.696 50.0773 233.856 59.7248C253.017 69.3723 231.438 91.685 231.438 91.685C231.438 91.685 231.066 95.4013 233.856 93.9148C235.445 93.1425 236.7 91.8226 237.391 90.1985C237.391 90.1985 252.273 102.091 246.32 124.388C246.32 124.388 258.441 129.911 258.702 102.247C258.702 102.247 264.558 109.62 262.876 114.771C262.876 114.771 261.946 121.415 271.619 110.266L289.85 97.3115L268.673 175.658Z" fill="white" stroke="#1D1D1B" stroke-width="2" stroke-miterlimit="10"/>
<path d="M195.006 157.077C195.006 157.077 203.935 148.901 203.191 140.725" stroke="#1D1D1B" stroke-width="2" stroke-miterlimit="10"/>
<path d="M222.539 77.5484C222.539 77.5484 220.306 68.6293 230.724 70.8591" stroke="#1D1D1B" stroke-width="2" stroke-miterlimit="10"/>
<path d="M161.522 123.631C161.522 123.631 166.597 136.407 178.942 133.739C178.942 133.739 184.151 124.515 170.228 119.238C170.228 119.238 160.034 116.941 161.522 123.631Z" fill="#1D1D1B" stroke="#1D1D1B" stroke-width="2" stroke-miterlimit="10"/>
<path d="M154.081 122.887C154.081 122.887 163.42 118.427 167.676 122.887" stroke="#1D1D1B" stroke-width="2" stroke-miterlimit="10"/>
<path d="M267.794 331C267.794 331 241.855 326.912 261.15 256.302C266.224 237.721 276.5 207.158 272.988 205.627C271.961 205.181 270.317 207.507 268.167 206.876C264.907 205.924 264.193 199.25 263.985 197.258C256.544 127.733 286.866 100.634 286.866 100.634C292.744 95.3717 304.055 86.8985 322.114 82.4092C322.114 82.4092 322.858 74.0252 330.671 73.0144V331H267.794Z" fill="#527AA4" stroke="#1D1D1B" stroke-width="1.67" stroke-miterlimit="10"/>
<path d="M298.303 109.137C298.303 109.137 287.142 135.656 298.303 143.58C303.925 139.434 308.614 134.157 312.069 128.09C318.223 117.075 316.66 109.196 322.487 93.9001C324.678 88.1546 327.419 82.6338 330.672 77.4146" stroke="#1D1D1B" stroke-width="2" stroke-miterlimit="10"/>
<path d="M307.978 153.732C307.978 153.732 283.422 168.598 290.863 227.315C298.304 286.033 304.064 331 304.064 331" stroke="#1D1D1B" stroke-width="2" stroke-miterlimit="10"/>
<path d="M204.919 180.49L173.667 204.274C173.667 204.274 169.202 207.99 169.946 200.558C170.69 193.125 166.97 183.463 166.97 183.463V206.459C166.97 206.459 163.011 210.867 157.549 206.459C157.549 206.459 160.273 180.49 148.367 166.368C136.461 152.246 129.764 144.813 114.138 129.948C114.138 129.948 100 103.934 106.697 75.6902C106.697 75.6902 113.394 56.3654 119.347 52.6491C119.347 52.6491 131.736 19.2024 160.511 1H250.079C250.079 1 285.282 19.9457 285.282 98.7312L267.424 115.826C267.424 115.826 262.959 120.286 262.215 112.853C261.471 105.421 258.494 103.191 258.494 103.191C258.494 103.191 261.471 120.286 250.309 126.232C250.309 126.232 244.356 130.691 246.589 119.543C248.821 108.394 241.38 97.2447 241.38 97.2447C241.38 97.2447 239.148 92.0419 236.171 92.7851L234.683 94.2717C234.683 94.2717 231.707 95.7582 230.218 95.0149C228.73 94.2717 231.707 91.2986 231.707 91.2986C231.707 91.2986 248.077 76.4334 234.683 61.5682C234.683 61.5682 211.616 49.6761 213.104 75.6902C213.104 75.6902 190.781 109.137 131.997 83.866C131.997 83.866 127.532 108.394 145.391 125.489L162.505 144.07L161.017 154.476C161.017 154.476 160.131 167.854 171.732 165.253L178.429 160.466C178.429 160.466 178.868 159.679 182.588 162.652L204.919 180.49Z" fill="#1D1D1B" stroke="#1D1D1B" stroke-width="2" stroke-miterlimit="10"/>
<path d="M146.879 111.739C146.879 111.739 152.088 103.139 158.785 105.123" stroke="#1D1D1B" stroke-width="1.89" stroke-miterlimit="10"/>
</svg>
