<svg width="202" height="240" viewBox="0 0 202 240" fill="none" xmlns="http://www.w3.org/2000/svg">
<path d="M7.27924 133.153L58.2884 163.191L61.689 150.156H85.4933C85.4933 150.156 97.3954 148.455 97.9622 135.709V114.342C102.686 114.2 107.164 112.207 110.431 108.793C110.811 108.356 113.667 104.939 112.698 101.425C111.616 97.4575 105.999 94.4763 99.6625 96.324L99.0957 36.8133C99.0957 36.8133 47.5198 22.6441 34.4841 94.6237C34.4841 94.6237 29.3832 72.5197 15.7808 86.6889C15.7808 86.6889 6.14571 105.392 21.4484 112.193C21.4484 112.193 24.2823 113.894 28.8164 112.76L29.3832 115.594C25.9868 116.232 22.4862 116.038 19.1814 115.027L18.0478 124.662C18.0478 124.662 6.1457 126.555 7.27924 124.759V133.153Z" fill="white" stroke="#1D1D1B" stroke-width="1.67" stroke-miterlimit="10"/>
<path d="M79.8262 63.4401C79.8262 63.4401 87.5004 59.4726 91.0314 63.4401" stroke="#1D1D1B" stroke-width="1.67" stroke-miterlimit="10"/>
<path d="M76.9922 117.283C76.9922 117.283 81.2657 123.614 91.0314 122.435" stroke="#1D1D1B" stroke-width="1.67" stroke-miterlimit="10"/>
<path d="M85.4317 77.2979C88.0406 80.3985 89.4711 84.3206 89.4711 88.3728C89.4711 92.4249 88.0406 96.347 85.4317 99.4477C85.0293 99.1416 79.2368 94.6187 79.8263 87.2562C80.3137 81.2143 84.7402 77.8136 85.4317 77.2979Z" fill="#1D1D1B" stroke="#1D1D1B" stroke-width="1.67" stroke-miterlimit="10"/>
<path d="M16.915 92.345C16.915 92.345 26.5503 86.6772 29.3842 94.6121" stroke="#1D1D1B" stroke-width="1.67" stroke-miterlimit="10"/>
<path d="M5.20227 126.714L16.7629 124.44L18.6666 115.285C18.6666 115.285 20.231 118.199 28.3235 115.357V112.515C28.3235 112.515 10.4431 117.631 13.3333 92.6207C13.3333 92.6207 25.4333 67.0425 32.9477 96.5995C32.9477 96.5995 34.1038 98.8732 36.4159 92.6207C38.728 86.3683 43.3522 80.3716 43.3522 80.3716C43.3522 80.3716 54.3348 79.5474 53.1787 61.9268C53.1787 61.9268 59.6527 46.5799 72.6005 53.4007C72.6005 53.4007 82.6583 51.6955 87.2825 43.1694C87.2825 43.1694 87.1149 55.106 93.5541 53.4007C93.5541 53.4007 110.404 49.4219 103.467 28.3909C96.531 7.35992 65.3174 1.67587 65.3174 1.67587C65.3174 1.67587 19.075 -4.00818 0 17.5912V119.324L5.20227 126.714Z" fill="#1D1D1B" stroke="#1D1D1B" stroke-width="1.67" stroke-miterlimit="10"/>
<path d="M0.761719 144.782L8.12971 132.88L59.7056 161.785V188.446L68.5869 239.432H0.761719V144.782Z" fill="#527AA4" stroke="#1D1D1B" stroke-width="1.67" stroke-miterlimit="10"/>
<path d="M10.3975 159.52L49.0567 186.158L56.8725 167.454" stroke="#1D1D1B" stroke-width="3" stroke-miterlimit="10"/>
<path d="M157.756 71.9418C157.756 71.9418 167.391 62.3067 178.727 74.2089L154.356 174.527C154.356 174.527 144.721 168.292 135.652 170.559L157.756 71.9418Z" fill="white" stroke="#1D1D1B" stroke-width="3" stroke-miterlimit="10"/>
<path d="M178.728 74.7871L186.663 75.3539L162.858 178.506L154.356 174.538L178.728 74.7871Z" fill="white" stroke="#1D1D1B" stroke-width="3" stroke-miterlimit="10"/>
<path d="M186.663 74.7754H191.338L166.826 182.461L140.981 179.628C140.981 179.628 132.253 175.093 137.354 171.693C142.455 168.292 163.521 178.041 163.521 178.041L186.663 74.7754Z" fill="#527AA4" stroke="#1D1D1B" stroke-width="1.67" stroke-miterlimit="10"/>
<path d="M189.496 84.9775L197.431 85.5443C189.118 119.743 180.806 153.938 172.493 188.129C170.752 187.129 168.822 186.502 166.825 186.287C163.434 185.979 160.038 186.828 157.19 188.696C154.243 189.274 151.187 188.663 148.689 186.996C147.245 185.974 146.077 184.611 145.288 183.028C147.912 181.118 150.032 180.761 151.523 180.761C152.463 180.761 153.024 180.96 155.49 181.328C157.394 181.612 158.964 181.787 160.024 181.895L165.692 182.462L189.496 84.9775Z" fill="#527AA4" stroke="#1D1D1B" stroke-width="1.67" stroke-miterlimit="10"/>
<path d="M120.917 200.598L124.828 183.436L125.451 182.461C123.783 174.805 123.783 166.88 125.451 159.224C126.585 154.123 128.512 145.508 135.653 139.387C137.693 137.641 140.612 135.142 144.721 134.853C148.83 134.564 154.453 136.553 154.453 136.553C154.453 136.553 157.785 149.022 150.417 150.156C143.049 151.289 141.349 146.188 141.349 146.188L137.382 169.426C137.382 169.426 133.981 175.66 140.782 177.361C140.782 177.361 133.981 181.328 142.483 186.429C150.984 191.53 171.818 189.829 171.818 189.829C171.818 189.829 151.982 204.843 146.382 204.707C146.382 204.707 147.447 206.498 146.382 210.375C145.316 214.251 143.049 224.431 143.049 224.431C143.049 224.431 124.884 232.904 120.917 200.598Z" fill="white" stroke="#1D1D1B" stroke-width="3" stroke-miterlimit="10"/>
<path d="M128.494 192.664C128.455 197.125 131.895 201.064 135.987 202.826C140.079 204.589 144.727 204.561 149.171 204.147" stroke="#1D1D1B" stroke-width="3" stroke-miterlimit="10"/>
<path d="M139.241 180.195C139.241 180.195 132.819 192.097 149.822 192.664C166.825 193.231 177.594 190.397 177.594 190.397L199.698 95.1797L195.731 90.6455L173.06 187.563C167.428 185.966 161.417 186.379 156.057 188.73C156.057 188.73 146.989 188.13 145.855 183.029C144.594 183.32 143.274 183.202 142.085 182.693C140.896 182.183 139.9 181.308 139.241 180.195Z" fill="white" stroke="#1D1D1B" stroke-width="3" stroke-miterlimit="10"/>
<path d="M103.914 239.999L116.383 197.492C116.383 197.492 119.217 194.091 122.051 193.524C122.051 193.524 116.468 205.427 127.764 216.762C139.059 228.097 144.721 222.43 144.721 222.43C144.721 222.43 146.422 215.062 146.422 214.495V215.062C146.422 215.062 153.223 224.13 145.288 238.299L103.914 239.999Z" fill="#527AA4" stroke="#1D1D1B" stroke-width="1.67" stroke-miterlimit="10"/>
</svg>
