<svg width="158" height="45" viewBox="0 0 158 45" fill="none" xmlns="http://www.w3.org/2000/svg">
<path fill-rule="evenodd" clip-rule="evenodd" d="M1.06692 6.95476L28.1965 0.0604847C28.325 0.0191004 28.4591 -0.00129422 28.5939 6.35904e-05C28.8594 -2.86632e-05 29.1188 0.0808318 29.3385 0.232199L39.4695 7.09786C39.5748 7.15997 39.6716 7.23589 39.7574 7.32364C39.8802 7.44902 39.9775 7.59785 40.0435 7.76158C40.1096 7.9253 40.1431 8.1007 40.1422 8.27765V36.001C40.1418 36.1843 40.1043 36.3655 40.0322 36.5334C39.9601 36.7013 39.8548 36.8524 39.7229 36.9773C39.6536 37.0465 39.5758 37.1064 39.4914 37.1554L29.3385 44.0306C29.2711 44.077 29.2 44.1174 29.1258 44.1514C29.0815 44.1726 29.0354 44.1896 28.9881 44.2023H28.9693H28.5939C28.4592 44.2021 28.3253 44.1818 28.1965 44.1419L0.998084 37.2921C0.712721 37.2208 0.459196 37.0542 0.278198 36.8189C0.0972004 36.5836 -0.000772314 36.2933 4.58506e-06 35.9947V8.23949V8.21405V8.09639H0.021906V8.06777V8.03915V8.01053V7.9819V7.95646V7.9342V7.90877V7.88969V7.87378V7.85153V7.8229C0.021906 7.80382 0.021906 7.78792 0.0438074 7.76884V7.74977V7.73069V7.71161V7.69253V7.67027V7.648V7.62257V7.60349V7.5844V7.5685V7.54942L0.0594513 7.53034H0.334784L0.353556 7.50808H0.334784L0.353556 7.489L0.372329 7.46992H0.387973H0.406745L0.425518 7.45403L0.447419 7.43812L0.469321 7.42222H0.488093H0.506866H0.525639H0.647661L0.691464 7.39678H0.716494H0.735267H0.757168H0.77907H0.800971H0.819744H0.841645H0.869804H0.960539H0.988698C1.01612 7.38741 1.04443 7.38101 1.07317 7.3777L1.06692 6.95476ZM29.9111 3.8447V8.52886L35.3552 7.53353L29.9111 3.8447ZM29.9111 11.2637V32.9991L37.5015 34.3856V9.88037L29.9111 11.2637ZM29.9111 35.7498V40.4308L35.3552 36.742L29.9111 35.7498ZM27.2735 41.2194V35.2569L13.5914 32.7606L5.74444 35.7371L27.2735 41.2067V41.2194ZM27.2735 32.5316V11.747L14.8085 14.0208V30.2389L27.2735 32.5126V32.5316ZM27.2735 9.02177V3.05606L5.74444 8.52569L13.5914 11.5054L27.2735 9.00905V9.02177ZM12.1741 13.83L2.63443 10.1984V34.0676L12.1678 30.4487L12.1741 13.83Z" fill="white"/>
<path fill-rule="evenodd" clip-rule="evenodd" d="M152.728 9.55273L150.141 13.3465L147.535 9.55273H142.76L147.735 16.835L142.263 24.7596H147.037L150.141 20.298L153.226 24.7596H158L152.528 16.835L157.503 9.55273H152.728Z" fill="white"/>
<path fill-rule="evenodd" clip-rule="evenodd" d="M120.727 24.7405H130V21.4842H124.647V18.6953H129.381V15.3372H124.647V12.8504H130V9.55273H120.727V24.7405Z" fill="white"/>
<path fill-rule="evenodd" clip-rule="evenodd" d="M104.326 9.55273L100.387 18.1992L96.4665 9.55273H92.5273L99.492 24.7596H101.282L108.224 9.55273H104.326Z" fill="white"/>
<path d="M80.0473 9.55273H76.127V24.7182H80.0473V9.55273Z" fill="white"/>
<path fill-rule="evenodd" clip-rule="evenodd" d="M62.3286 11.7597C61.6407 11.057 60.8225 10.5001 59.9213 10.1213C59.02 9.74243 58.0538 9.5492 57.0785 9.55278C55.8496 9.55128 54.6393 9.85829 53.5552 10.4465C52.4711 11.0348 51.5467 11.8861 50.8642 12.9248C50.1816 13.9634 49.7621 15.1574 49.6427 16.4005C49.5233 17.6437 49.7079 18.8975 50.18 20.0508C50.6521 21.204 51.3972 22.2208 52.3489 23.011C53.3007 23.8011 54.4297 24.3401 55.6358 24.5801C56.8418 24.8201 58.0875 24.7537 59.2621 24.3867C60.4368 24.0197 61.5041 23.3635 62.3693 22.4764L59.5847 19.6843C59.1759 20.1003 58.6726 20.4074 58.1193 20.5786C57.566 20.7498 56.9796 20.7798 56.4122 20.6659C55.8447 20.552 55.3137 20.2977 54.8659 19.9256C54.4182 19.5534 54.0676 19.0748 53.8451 18.5322C53.6226 17.9895 53.5352 17.3995 53.5905 16.8143C53.6457 16.2291 53.842 15.6668 54.162 15.1771C54.482 14.6873 54.9158 14.2853 55.425 14.0065C55.9343 13.7277 56.5032 13.5808 57.0816 13.5787C57.5425 13.5669 58.0011 13.6483 58.4307 13.8181C58.8604 13.9879 59.2526 14.2426 59.5847 14.5677L62.3286 11.7597Z" fill="white"/>
<path d="M54.2693 29.9206C54.0553 29.7113 53.7683 29.5969 53.4714 29.6026C53.1858 29.618 52.9169 29.7441 52.7201 29.9551C52.5233 30.166 52.4136 30.4456 52.4136 30.7363C52.4136 31.027 52.5233 31.3066 52.7201 31.5175C52.9169 31.7284 53.1858 31.8546 53.4714 31.87C53.6186 31.874 53.7651 31.848 53.9021 31.7933C54.0392 31.7387 54.1641 31.6566 54.2693 31.552L55.1579 32.4392C54.8824 32.7209 54.5428 32.9292 54.1692 33.0456C53.7956 33.1619 53.3995 33.1828 53.0161 33.1063C52.6326 33.0298 52.2737 32.8584 51.971 32.6071C51.6684 32.3559 51.4315 32.0326 51.2812 31.666C51.1309 31.2993 51.072 30.9007 51.1097 30.5054C51.1473 30.11 51.2804 29.7303 51.497 29.3997C51.7136 29.0692 52.0072 28.7981 52.3516 28.6105C52.696 28.4229 53.0807 28.3246 53.4714 28.3242C53.7823 28.323 54.0904 28.3845 54.3777 28.5051C54.665 28.6258 54.9259 28.8032 55.1453 29.027L54.2693 29.9206Z" fill="white"/>
<path d="M59.5879 28.3242H60.8394V33.1547H59.5879V28.3242Z" fill="white"/>
<path d="M69.8592 28.3184L67.6471 33.1552H67.0777L64.8594 28.3184H66.1109L67.3624 31.0691L68.6139 28.3184H69.8592Z" fill="white"/>
<path d="M73.8828 28.3242H75.1343V33.1547H73.8828V28.3242Z" fill="white"/>
<path d="M79.5742 28.3242H80.8257V31.8795H82.534V33.1515H79.5773L79.5742 28.3242Z" fill="white"/>
<path d="M93.2598 28.3242H96.2102V29.3736H94.5113V30.1591H96.0162V31.2276H94.5113V32.118H96.2133V33.1547H93.2598V28.3242Z" fill="white"/>
<path d="M105.008 28.3242L103.425 30.6361L105.167 33.1547H103.647L102.664 31.7364L101.676 33.1547H100.143L101.885 30.6361L100.302 28.3242H101.823L102.652 29.5294L103.478 28.3242H105.008Z" fill="white"/>
<path d="M109.195 28.3243H111.197C111.66 28.3209 112.105 28.5046 112.435 28.835C112.765 29.1654 112.952 29.6154 112.955 30.086C112.959 30.5566 112.778 31.0093 112.453 31.3444C112.128 31.6796 111.685 31.8698 111.222 31.8732H110.443V33.1452H109.191L109.195 28.3243ZM110.446 30.7792H111.219C111.4 30.7792 111.573 30.7062 111.701 30.5762C111.829 30.4462 111.901 30.2699 111.901 30.086C111.901 29.9021 111.829 29.7258 111.701 29.5958C111.573 29.4658 111.4 29.3928 111.219 29.3928H110.446V30.7792Z" fill="white"/>
<path d="M119.375 28.3242C119.846 28.3224 120.306 28.4624 120.699 28.7267C121.091 28.991 121.397 29.3676 121.579 29.8088C121.76 30.2501 121.809 30.7362 121.718 31.2055C121.628 31.6749 121.402 32.1064 121.071 32.4455C120.739 32.7845 120.315 33.0159 119.854 33.1103C119.393 33.2047 118.914 33.1579 118.479 32.9757C118.044 32.7936 117.672 32.4843 117.41 32.0871C117.148 31.6898 117.007 31.2225 117.007 30.7442C117.008 30.1049 117.257 29.4917 117.701 29.0384C118.144 28.5851 118.746 28.3284 119.375 28.3242ZM119.375 29.5962C119.151 29.5962 118.931 29.664 118.744 29.791C118.557 29.918 118.412 30.0985 118.326 30.3096C118.24 30.5207 118.218 30.753 118.262 30.977C118.306 31.201 118.414 31.4067 118.573 31.568C118.732 31.7293 118.935 31.839 119.156 31.8831C119.376 31.9273 119.605 31.904 119.812 31.8162C120.02 31.7283 120.197 31.5798 120.321 31.3896C120.446 31.1993 120.512 30.9759 120.511 30.7474C120.513 30.5951 120.485 30.4439 120.428 30.3027C120.372 30.1615 120.288 30.0332 120.183 29.9252C120.077 29.8171 119.951 29.7316 119.812 29.6734C119.674 29.6153 119.525 29.5859 119.375 29.5867V29.5962Z" fill="white"/>
<path d="M134.3 30.3913C134.426 30.2571 134.501 30.0808 134.509 29.8952C134.501 29.748 134.438 29.6095 134.334 29.507C134.229 29.4045 134.091 29.3456 133.946 29.3419C133.873 29.3423 133.8 29.3574 133.733 29.3865C133.665 29.4156 133.604 29.458 133.553 29.5112C133.502 29.5644 133.462 29.6275 133.435 29.6967C133.407 29.7659 133.394 29.8398 133.395 29.9143H132.369C132.37 29.7042 132.412 29.4965 132.493 29.3029C132.573 29.1093 132.69 28.9336 132.837 28.786C132.984 28.6384 133.158 28.5216 133.349 28.4424C133.541 28.3631 133.746 28.323 133.952 28.3242C134.159 28.3255 134.363 28.3681 134.554 28.4497C134.744 28.5312 134.917 28.6501 135.062 28.7995C135.208 28.9489 135.323 29.126 135.4 29.3205C135.478 29.515 135.518 29.7233 135.517 29.9333C135.509 30.2519 135.41 30.5613 135.232 30.8237L134.325 32.1307H135.667V33.1547H132.382L134.3 30.3913Z" fill="white"/>
<path d="M140.066 29.9019C140.105 29.5097 140.286 29.1461 140.573 28.8816C140.861 28.6171 141.235 28.4707 141.623 28.4707C142.011 28.4707 142.385 28.6171 142.672 28.8816C142.96 29.1461 143.141 29.5097 143.18 29.9019V31.5714C143.141 31.9637 142.96 32.3273 142.672 32.5917C142.385 32.8562 142.011 33.0026 141.623 33.0026C141.235 33.0026 140.861 32.8562 140.573 32.5917C140.286 32.3273 140.105 31.9637 140.066 31.5714V29.9019ZM141.061 31.5714C141.072 31.7146 141.135 31.8485 141.239 31.9462C141.342 32.0438 141.479 32.0981 141.62 32.0981C141.761 32.0981 141.897 32.0438 142.001 31.9462C142.104 31.8485 142.168 31.7146 142.178 31.5714V29.9146C142.168 29.7714 142.104 29.6376 142.001 29.5399C141.897 29.4422 141.761 29.3879 141.62 29.3879C141.479 29.3879 141.342 29.4422 141.239 29.5399C141.135 29.6376 141.072 29.7714 141.061 29.9146V31.5714Z" fill="white"/>
<path d="M149.509 30.3913C149.636 30.2571 149.71 30.0808 149.719 29.8952C149.71 29.748 149.648 29.6095 149.543 29.507C149.439 29.4045 149.301 29.3456 149.156 29.3419C149.082 29.3423 149.01 29.3574 148.942 29.3865C148.875 29.4156 148.814 29.458 148.763 29.5112C148.711 29.5644 148.671 29.6275 148.644 29.6967C148.617 29.7659 148.604 29.8398 148.605 29.9143H147.585C147.586 29.7042 147.628 29.4965 147.708 29.3029C147.789 29.1093 147.906 28.9336 148.053 28.786C148.2 28.6384 148.374 28.5216 148.565 28.4424C148.757 28.3631 148.961 28.323 149.168 28.3242C149.375 28.3255 149.579 28.3681 149.77 28.4497C149.96 28.5312 150.133 28.6501 150.278 28.7995C150.423 28.9489 150.538 29.126 150.616 29.3205C150.694 29.515 150.734 29.7233 150.733 29.9333C150.725 30.2519 150.626 30.5613 150.448 30.8237L149.54 32.1307H150.883V33.1547H147.597L149.509 30.3913Z" fill="white"/>
<path d="M156.035 31.9848C156.109 32.0641 156.205 32.1193 156.31 32.1433C156.415 32.1672 156.525 32.1589 156.626 32.1194C156.726 32.0799 156.813 32.011 156.875 31.9214C156.937 31.8317 156.971 31.7254 156.974 31.6159C156.978 31.5436 156.967 31.4713 156.943 31.4031C156.92 31.3349 156.883 31.2721 156.835 31.2183C156.788 31.1645 156.73 31.1209 156.666 31.0898C156.601 31.0587 156.532 31.0408 156.461 31.0371C156.129 31.0371 156.035 31.2089 156.035 31.2089L155.334 30.4902L156.085 29.3867H155.115V28.3818H157.987L156.811 30.0831C157.139 30.176 157.429 30.3754 157.636 30.6509C157.842 30.9264 157.955 31.2631 157.956 31.6096C157.958 32.0145 157.802 32.4038 157.524 32.6931C157.245 32.9824 156.865 33.1483 156.467 33.155C156.046 33.1587 155.64 32.9969 155.334 32.7035C155.334 32.7035 156.035 31.9657 156.035 31.9848Z" fill="white"/>
</svg>
