<svg width="37" height="30" viewBox="0 0 37 30" fill="none" xmlns="http://www.w3.org/2000/svg">
<path d="M36.9176 3.52941C35.5588 4.14706 34.0941 4.55294 32.5765 4.74706C34.1294 3.81176 35.3294 2.32941 35.8941 0.547059C34.4294 1.42941 32.8059 2.04706 31.0941 2.4C29.7 0.882353 27.7412 0 25.5176 0C21.3706 0 17.9824 3.38824 17.9824 7.57059C17.9824 8.17059 18.0529 8.75294 18.1765 9.3C11.8941 8.98235 6.3 5.96471 2.57647 1.39412C1.92353 2.50588 1.55294 3.81176 1.55294 5.18824C1.55294 7.81765 2.87647 10.1471 4.92353 11.4706C3.67059 11.4706 2.50588 11.1176 1.48235 10.5882V10.6412C1.48235 14.3118 4.09412 17.3824 7.55294 18.0706C6.44246 18.3745 5.27664 18.4168 4.14706 18.1941C4.62636 19.6985 5.56507 21.0148 6.83121 21.9581C8.09735 22.9014 9.62726 23.4242 11.2059 23.4529C8.52993 25.5714 5.21293 26.7164 1.8 26.7C1.2 26.7 0.6 26.6647 0 26.5941C3.35294 28.7471 7.34118 30 11.6118 30C25.5176 30 33.1588 18.4588 33.1588 8.45294C33.1588 8.11765 33.1588 7.8 33.1412 7.4647C34.6235 6.40588 35.8941 5.06471 36.9176 3.52941Z" fill="#2F2F2F"/>
</svg>
