<svg width="38" height="30" viewBox="0 0 38 30" fill="none" xmlns="http://www.w3.org/2000/svg">
<path d="M19.2087 0C20.21 0.00562535 22.7152 0.0300018 25.3778 0.136883L26.3229 0.178136C29.0024 0.303769 31.6801 0.521282 33.0096 0.89068C34.7815 1.38946 36.1729 2.8408 36.6435 4.68217C37.3936 7.60735 37.4873 13.3115 37.4986 14.6934L37.5005 14.9784V15.3047C37.4873 16.6867 37.3936 22.3926 36.6435 25.316C36.1673 27.1629 34.774 28.6162 33.0096 29.1074C31.6801 29.4768 29.0024 29.6944 26.3229 29.82L25.3778 29.8631C22.7152 29.9681 20.21 29.9944 19.2087 29.9981L18.768 30H18.2899C16.171 29.9869 7.30921 29.8912 4.48903 29.1074C2.71892 28.6087 1.32571 27.1573 0.855054 25.316C0.105007 22.3908 0.0112507 16.6867 0 15.3047V14.6934C0.0112507 13.3115 0.105007 7.60548 0.855054 4.68217C1.33133 2.83518 2.72455 1.38196 4.49091 0.892555C7.30921 0.106881 16.1729 0.0112507 18.2918 0H19.2087ZM14.9991 8.43803V21.5638L26.2498 15.0009L14.9991 8.43803Z" fill="#2F2F2F"/>
</svg>
