<svg width="15" height="14" viewBox="0 0 15 14" fill="none" xmlns="http://www.w3.org/2000/svg">
<g id="streamline:interface-content-book-edit-pencil-content-write-notebook-book-edit-composition-creation" clip-path="url(#clip0_46_2711)">
<path id="Vector" d="M8.5 13.5H2C1.73478 13.5 1.48043 13.3946 1.29289 13.2071C1.10536 13.0196 1 12.7652 1 12.5V1.5C1 1.23478 1.10536 0.98043 1.29289 0.792893C1.48043 0.605357 1.73478 0.5 2 0.5H9.5M11 9.5H14M4 0.5V13.5M6.5 4H8.5M11 3.5L12.5 0.5L14 3.5V12C14 12.3978 13.842 12.7794 13.5607 13.0607C13.2794 13.342 12.8978 13.5 12.5 13.5C12.1022 13.5 11.7206 13.342 11.4393 13.0607C11.158 12.7794 11 12.3978 11 12V3.5Z" stroke="#527AA4" stroke-linecap="round" stroke-linejoin="round"/>
</g>
<defs>
<clipPath id="clip0_46_2711">
<rect width="14" height="14" fill="white" transform="translate(0.5)"/>
</clipPath>
</defs>
</svg>
