<svg width="17" height="17" viewBox="0 0 17 17" fill="none" xmlns="http://www.w3.org/2000/svg">
<path d="M1.70711 0.292893C1.31658 -0.0976311 0.683418 -0.0976311 0.292893 0.292893C-0.0976311 0.683418 -0.0976311 1.31658 0.292893 1.70711L1.70711 0.292893ZM15.1421 16.1421C15.6944 16.1421 16.1421 15.6944 16.1421 15.1421L16.1421 6.14214C16.1421 5.58985 15.6944 5.14214 15.1421 5.14214C14.5899 5.14214 14.1421 5.58985 14.1421 6.14214V14.1421H6.14214C5.58985 14.1421 5.14214 14.5899 5.14214 15.1421C5.14214 15.6944 5.58985 16.1421 6.14214 16.1421L15.1421 16.1421ZM0.292893 1.70711L14.435 15.8492L15.8492 14.435L1.70711 0.292893L0.292893 1.70711Z" fill="white"/>
</svg>
