<svg width="17" height="14" viewBox="0 0 17 14" fill="none" xmlns="http://www.w3.org/2000/svg">
<path id="Vector" d="M14.7869 10.9445C15.3992 10.5139 15.8583 9.89945 16.0977 9.19023C16.3371 8.48101 16.3443 7.71395 16.1181 7.00039C15.6544 5.53606 14.2333 4.73355 12.6974 4.73508H11.81C11.5984 3.90943 11.2021 3.14256 10.6511 2.49223C10.1002 1.84189 9.40881 1.32504 8.62915 0.980583C7.8495 0.636128 7.00185 0.47305 6.15005 0.503627C5.29824 0.534205 4.46447 0.757641 3.71152 1.15711C2.95857 1.55658 2.30606 2.12168 1.80313 2.80985C1.3002 3.49801 0.959956 4.29131 0.808016 5.13002C0.656076 5.96873 0.696401 6.83097 0.925955 7.65184C1.15551 8.4727 1.56831 9.23079 2.13327 9.86901M8.4746 13.5L8.47154 6.61806M10.9047 11.0669L8.47154 13.5L6.03839 11.0669" stroke="#527AA4" stroke-linecap="round" stroke-linejoin="round"/>
</svg>
