<svg width="139" height="165" viewBox="0 0 139 165" fill="none" xmlns="http://www.w3.org/2000/svg">
<path d="M30.6429 27.4485C30.0841 27.4492 29.5379 27.6143 29.0723 27.9231L27.5708 28.9155L2.97714 45.3113C2.59396 45.5691 2.28015 45.9174 2.06343 46.3252C1.84671 46.7331 1.73375 47.188 1.73451 47.6499V117.254C1.73506 117.732 1.85743 118.201 2.08998 118.618C2.32253 119.034 2.6576 119.385 3.06347 119.636L29.0723 137.041C29.5353 137.348 30.0789 137.51 30.6342 137.507C30.9265 137.515 31.2181 137.474 31.4972 137.387H31.5749L53.0878 132.01L55.4436 131.424L58.5761 130.638L51.9056 126.531L45.425 128.153L43.0605 128.74L31.9373 131.519L31.1952 131.7L30.5652 131.277L8.1289 116.331L7.36087 115.822V49.1945L8.1289 48.6767L30.5652 33.7307L31.1952 33.3079L31.9373 33.4977L37.9778 34.9992L40.3337 35.586L47.2372 37.3119L53.9681 33.2216L50.3437 32.3155L47.9534 31.7632L31.3591 27.5693C31.1397 27.5105 30.9132 27.4814 30.686 27.483M30.686 25.7572C31.0557 25.7568 31.4239 25.8032 31.782 25.8952L48.3762 30.0373L50.732 30.6241L58.3863 32.5398L47.5133 39.1586L39.8677 37.2428L37.5119 36.656L31.4713 35.1545L9.03497 50.1006V114.821L31.4713 129.767L42.5773 127.031L44.9417 126.445L52.1214 124.641L62.9081 131.277L55.7975 133.063L53.4417 133.65L31.9632 139.026C31.5318 139.154 31.0841 139.218 30.6342 139.216C29.7416 139.218 28.8681 138.957 28.1231 138.465L2.09698 121.112C1.45467 120.702 0.925869 120.137 0.559402 119.468C0.192935 118.8 0.000552539 118.051 0 117.289V47.6844C0.000718787 46.9383 0.185391 46.2038 0.537597 45.5461C0.889803 44.8883 1.3987 44.3275 2.01929 43.9133L28.1231 26.5165C28.8682 26.0161 29.7453 25.7488 30.6429 25.7485L30.686 25.7572ZM52.6305 124.529L52.1559 124.641L52.665 124.546L52.6305 124.529ZM63.4862 131.148L63.3395 131.527L62.9426 131.277L63.4862 131.148Z" fill="#231F20"/>
<path d="M135.015 48.0986L120.345 39.1327L109.481 32.514L88.1058 19.4837C86.5278 18.5136 84.7116 18 82.8592 18C81.0068 18 79.1906 18.5136 77.6125 19.4837L30.6688 48.0986C29.7539 48.6585 28.9975 49.4434 28.4718 50.3784C27.9461 51.3135 27.6687 52.3675 27.6658 53.4402V108.746C27.6692 110.477 28.1149 112.178 28.9607 113.688C29.8065 115.199 31.0242 116.468 32.4982 117.375L79.5973 146.076C80.5782 146.68 81.7074 147 82.8592 147C84.011 147 85.1403 146.68 86.1211 146.076L104.381 134.953L115.237 128.334L133.186 117.358C134.66 116.45 135.877 115.181 136.723 113.671C137.569 112.161 138.015 110.459 138.018 108.729V53.4402C138.015 52.3675 137.738 51.3135 137.212 50.3784C136.686 49.4434 135.93 48.6585 135.015 48.0986ZM132.426 108.746C132.423 109.511 132.225 110.263 131.85 110.93C131.476 111.597 130.937 112.158 130.286 112.56L107.574 126.367L96.7179 132.986L82.8505 141.434L35.3891 112.525C34.7377 112.124 34.1995 111.563 33.8251 110.896C33.4507 110.228 33.2524 109.476 33.249 108.711V53.0778L80.5465 24.2816C81.2448 23.8527 82.0483 23.6257 82.8678 23.6257C83.6873 23.6257 84.4908 23.8527 85.1891 24.2816L101.835 34.4297L112.708 41.0484L132.4 53.0778L132.426 108.746Z" fill="#231F20"/>
<path d="M56.7035 98.2525L30.3667 82.2018V51.3691L56.7035 67.4198V98.2525ZM32.9555 80.7521L54.1147 93.6444V68.8695L32.9555 55.9858V80.7521Z" fill="#231F20"/>
<path d="M82.8937 144.886L56.5569 128.835V98.0022L82.8937 114.053V144.886ZM59.1457 127.377L80.3049 140.277V115.468L59.1457 102.61V127.377Z" fill="#231F20"/>
<path d="M82.8245 51.6108L56.4963 35.5602L78.3717 22.2278C79.7119 21.407 81.253 20.9727 82.8245 20.9727C84.3961 20.9727 85.9371 21.407 87.2773 22.2278L109.153 35.5602L82.8245 51.6108ZM61.4669 35.5602L82.8245 48.5819L104.182 35.5602L85.9311 24.4197C84.9972 23.8439 83.9216 23.539 82.8245 23.539C81.7274 23.539 80.6518 23.8439 79.7179 24.4197L61.4669 35.5602Z" fill="#231F20"/>
<path d="M82.8245 83.5394L56.4963 67.4888L82.8245 51.4468L109.153 67.4888L82.8245 83.5394ZM61.4669 67.4888L82.8245 80.5018L104.182 67.4888L82.8245 54.4498L61.4669 67.4888Z" fill="#231F20"/>
<path d="M82.7554 114.217V83.3839L109.092 67.3333V98.2091L82.7554 114.217ZM85.3442 84.8767V109.643L106.503 96.7507V71.95L85.3442 84.8767Z" fill="#231F20"/>
<path d="M108.946 128.938V98.1058L135.283 82.0552V108.073C135.277 109.541 134.897 110.984 134.178 112.264C133.459 113.545 132.426 114.621 131.175 115.39L108.946 128.938ZM111.535 99.5555V124.33L129.829 113.181C130.7 112.643 131.421 111.891 131.922 110.997C132.423 110.104 132.689 109.097 132.694 108.073V86.6633L111.535 99.5555Z" fill="#231F20"/>
<path d="M108.946 98.2525V67.4198L135.283 51.3691V82.2018L108.946 98.2525ZM111.535 68.9126V93.6789L132.694 80.7866V55.9858L111.535 68.9126Z" fill="#231F20"/>
<path d="M82.7554 144.886V114.053L109.092 98.0022V128.835L82.7554 144.886ZM85.3442 115.546V140.312L106.503 127.411V102.61L85.3442 115.546Z" fill="#231F20"/>
<path d="M109.024 67.5491L82.6953 51.4985L109.024 35.4565L135.343 51.4985L109.024 67.5491ZM87.6658 51.4985L109.024 64.5548L130.381 51.5417L109.024 38.4855L87.6658 51.4985Z" fill="#231F20"/>
<path d="M56.6345 67.5491L30.3064 51.4985L56.6345 35.4565L82.9627 51.4985L56.6345 67.5491ZM35.2769 51.4985L56.6345 64.5548L77.9577 51.4985L56.6345 38.4855L35.2769 51.4985Z" fill="#231F20"/>
<path d="M82.8937 114.217L56.5569 98.2091V67.3333L82.8937 83.3839V114.217ZM59.1457 96.7162L80.3049 109.608V84.8422L59.1457 71.95V96.7162Z" fill="#231F20"/>
<path d="M56.7035 128.938L34.4743 115.39C33.2236 114.621 32.1899 113.545 31.4711 112.264C30.7523 110.984 30.3722 109.541 30.3667 108.073V82.0552L56.7035 98.1058V128.938ZM32.9555 86.6546V108.064C32.9606 109.089 33.2262 110.095 33.7274 110.989C34.2286 111.883 34.9489 112.634 35.8205 113.173L54.1147 124.322V99.5555L32.9555 86.6546Z" fill="#231F20"/>
</svg>
