<svg width="122" height="165" viewBox="0 0 122 165" fill="none" xmlns="http://www.w3.org/2000/svg">
<path d="M57.1699 139.595L49.1699 137.595V25.655H25.9199V131.595L17.9199 129.595V21.805C17.9199 20.7044 18.3572 19.6488 19.1354 18.8705C19.9137 18.0923 20.9693 17.655 22.0699 17.655H53.0199C54.1206 17.655 55.1761 18.0923 55.9544 18.8705C56.7327 19.6488 57.1699 20.7044 57.1699 21.805V139.595Z" fill="#231F20"/>
<path d="M50.613 70.4313L19.3555 96.3726L24.4645 102.529L55.7221 76.5874L50.613 70.4313Z" fill="#231F20"/>
<path d="M24.4606 44.5226L19.3516 50.6787L50.6091 76.62L55.7182 70.4639L24.4606 44.5226Z" fill="#231F20"/>
<path d="M50.6169 18.5668L19.3594 44.5081L24.4684 50.6641L55.726 24.7229L50.6169 18.5668Z" fill="#231F20"/>
<path d="M24.4582 96.1618L19.3491 102.318L50.6067 128.259L55.7157 122.103L24.4582 96.1618Z" fill="#231F20"/>
<path d="M116.13 61.1851C116.991 61.1877 117.816 61.531 118.425 62.1399C119.034 62.7488 119.377 63.5739 119.38 64.4351V121.925C119.379 122.477 119.239 123.02 118.971 123.503C118.704 123.985 118.318 124.392 117.85 124.685L87.69 144.795C87.1579 145.153 86.5313 145.344 85.89 145.345C85.5507 145.35 85.2129 145.299 84.89 145.195H84.79L4.40002 125.095C3.69683 124.921 3.07236 124.516 2.62643 123.945C2.1805 123.374 1.93882 122.67 1.94 121.945V64.4351C1.94126 64.0027 2.02852 63.5749 2.19669 63.1766C2.36485 62.7783 2.61056 62.4174 2.91953 62.1149C3.22849 61.8125 3.59452 61.5745 3.99634 61.4148C4.39815 61.2552 4.82772 61.1771 5.26001 61.1851H116.16M85.26 138.585L85.99 138.095L111.99 120.775L112.88 120.185V67.6951H8.48001V119.395L10 119.765L84.41 138.375L85.27 138.585M116.13 59.1851H5.26001C3.8667 59.1851 2.53031 59.7379 1.54416 60.7221C0.558005 61.7064 0.00264887 63.0418 0 64.4351V121.925C0.00201633 123.098 0.397069 124.237 1.1221 125.16C1.84713 126.083 2.86034 126.736 4 127.015L84.38 147.115C84.8827 147.267 85.4049 147.344 85.93 147.345C86.9668 147.343 87.9797 147.034 88.84 146.455L119 126.355C119.743 125.879 120.354 125.224 120.777 124.45C121.2 123.676 121.421 122.807 121.42 121.925V64.4351C121.42 63.0427 120.867 61.7073 119.882 60.7227C118.898 59.7382 117.562 59.1851 116.17 59.1851H116.13ZM84.89 136.435L10.48 117.825V69.6951H110.87V119.115L84.87 136.435H84.89Z" fill="#231F20"/>
<path d="M95.0599 52.0749H53.1499V44.0749H95.0599C96.8855 44.0749 98.6365 43.3504 99.9283 42.0604C101.22 40.7705 101.947 39.0205 101.95 37.1949C101.95 35.3676 101.224 33.6151 99.9319 32.323C98.6397 31.0308 96.8872 30.3049 95.0599 30.3049H53.1699V22.3049H95.0599C99.0089 22.3049 102.796 23.8737 105.589 26.6661C108.381 29.4585 109.95 33.2459 109.95 37.1949C109.947 41.1423 108.377 44.927 105.585 47.7173C102.793 50.5075 99.0072 52.0749 95.0599 52.0749Z" fill="#231F20"/>
<path d="M95.0799 51.5449H80.8398V60.8249H95.0799V51.5449Z" fill="#231F20"/>
<path d="M92.18 54.325H83.75V63.6049H92.18V54.325Z" fill="#231F20"/>
<path d="M89.46 62.145H86.46V77.085H89.46V62.145Z" fill="#231F20"/>
<path d="M95.2601 88.1851C94.8313 89.5384 94.0357 90.7464 92.9618 91.6748C91.8879 92.6033 90.5776 93.2159 89.1765 93.4447C87.7754 93.6735 86.3384 93.5094 85.0249 92.9707C83.7114 92.4321 82.573 91.5399 81.7359 90.3933C80.8989 89.2467 80.3961 87.8905 80.2833 86.4753C80.1704 85.0602 80.4521 83.6414 81.0969 82.3767C81.7417 81.112 82.7245 80.0507 83.936 79.3108C85.1476 78.5708 86.5405 78.1812 87.9602 78.1851C88.4639 78.1845 88.9665 78.2347 89.4602 78.3351V75.3351C87.4054 75.0423 85.3099 75.3545 83.4297 76.2336C81.5496 77.1128 79.9664 78.5206 78.8736 80.2852C77.7808 82.0497 77.2259 84.0944 77.2766 86.1693C77.3274 88.2442 77.9815 90.2593 79.1592 91.9683C80.3369 93.6774 81.9871 95.0062 83.9079 95.7924C85.8287 96.5786 87.937 96.7881 89.975 96.3952C92.0129 96.0024 93.8923 95.0242 95.3833 93.5803C96.8742 92.1364 97.9121 90.2894 98.3701 88.2651L95.2601 88.1851Z" fill="#231F20"/>
</svg>
