<svg width="12" height="14" viewBox="0 0 12 14" fill="none" xmlns="http://www.w3.org/2000/svg">
<g id="Group 40047">
<path id="Vector" d="M3.21387 7.57534H6.92815V8.50391H3.21387V7.57534ZM3.21387 5.25391H8.7853V6.18248H3.21387V5.25391ZM3.21387 9.89676H5.5353V10.8253H3.21387V9.89676Z" fill="#527AA4"/>
<path id="Vector_2" d="M10.1783 1.53934H8.78544V1.07506C8.78544 0.828783 8.6876 0.592598 8.51346 0.418457C8.33932 0.244316 8.10314 0.146484 7.85686 0.146484H4.14258C3.89631 0.146484 3.66012 0.244316 3.48598 0.418457C3.31184 0.592598 3.21401 0.828783 3.21401 1.07506V1.53934H1.82115C1.57488 1.53934 1.33869 1.63717 1.16455 1.81131C0.990409 1.98545 0.892578 2.22164 0.892578 2.46791V12.2179C0.892578 12.4642 0.990409 12.7004 1.16455 12.8745C1.33869 13.0487 1.57488 13.1465 1.82115 13.1465H10.1783C10.4246 13.1465 10.6608 13.0487 10.8349 12.8745C11.009 12.7004 11.1069 12.4642 11.1069 12.2179V2.46791C11.1069 2.22164 11.009 1.98545 10.8349 1.81131C10.6608 1.63717 10.4246 1.53934 10.1783 1.53934ZM4.14258 1.07506H7.85686V2.9322H4.14258V1.07506ZM10.1783 12.2179H1.82115V2.46791H3.21401V3.86077H8.78544V2.46791H10.1783V12.2179Z" fill="#527AA4"/>
</g>
</svg>
