<svg width="139" height="165" viewBox="0 0 139 165" fill="none" xmlns="http://www.w3.org/2000/svg">
<path d="M109.273 54.0909C109.273 54.0909 80.8636 93.8636 38.25 93.8636M38.25 93.8636C26.8864 93.8636 7 99.5454 7 122.273V137C7 141.418 10.5817 145 15 145H61.5C65.9183 145 69.5 141.418 69.5 137V122.273C69.5 108.733 84.9883 115.843 106.122 82.0889C108.037 79.0312 107.503 75.0485 104.952 72.4975L100.75 68.2955M38.25 93.8636C43.5242 93.8636 48.5824 91.7685 52.3118 88.0391C56.0412 84.3096 58.1364 79.2515 58.1364 73.9773C58.1364 68.7031 56.0412 63.6449 52.3118 59.9155C48.5824 56.1861 43.5242 54.0909 38.25 54.0909C32.9758 54.0909 27.9176 56.1861 24.1882 59.9155C20.4588 63.6449 18.3636 68.7031 18.3636 73.9773C18.3636 79.2515 20.4588 84.3096 24.1882 88.0391C27.9176 91.7685 32.9758 93.8636 38.25 93.8636ZM18.3636 42.7273V33.6818C18.3636 29.2635 21.9454 25.6818 26.3636 25.6818H75.1818H124C128.418 25.6818 132 29.2635 132 33.6818V97.2273C132 101.646 128.418 105.227 124 105.227H114.955M68.8182 31.3636H81.5455C84.3069 31.3636 86.5455 29.1251 86.5455 26.3636V25C86.5455 22.2386 84.3069 20 81.5455 20H68.8182C66.0568 20 63.8182 22.2386 63.8182 25V26.3636C63.8182 29.1251 66.0568 31.3636 68.8182 31.3636Z" stroke="black" stroke-width="7"/>
</svg>
