<svg width="370" height="269" viewBox="0 0 370 269" fill="none" xmlns="http://www.w3.org/2000/svg">
<path d="M83.1071 60.4132L83.1108 50.5582C83.0862 42.1526 86.8094 23.3039 101.899 15.1536C105.996 12.9406 110.31 11.6672 114.564 11.0527C116.722 9.66748 121.799 6.78811 124.847 6.35213C128.656 5.80716 144.05 10.8972 146.612 11.5161C148.662 12.0112 156.936 21.93 160.817 26.8276L155.516 31.7608C157.163 35.2384 158.325 39.0102 158.587 42.9138C164.296 44.265 175.853 47.6965 176.412 50.6123C176.97 53.5281 177.252 56.0762 177.324 56.9858L158.021 56.8842L83.1071 60.4132Z" fill="white"/>
<path d="M83.1108 50.5582L83.1071 60.4132L158.021 56.8842M83.1108 50.5582L158.08 49.6872M83.1108 50.5582C83.0862 42.1526 86.8094 23.3039 101.899 15.1536C105.996 12.9406 110.31 11.6672 114.564 11.0527M158.08 49.6872L159.103 56.8333L158.021 56.8842M158.08 49.6872C158.593 47.4067 158.736 45.1389 158.587 42.9138M158.587 42.9138C164.296 44.265 175.853 47.6965 176.412 50.6123C176.97 53.5281 177.252 56.0762 177.324 56.9858L158.021 56.8842M158.587 42.9138C158.325 39.0102 157.163 35.2384 155.516 31.7608M155.516 31.7608C151.931 24.1933 146.05 18.0192 142.15 14.9135C136.957 12.4979 125.977 9.40396 114.564 11.0527M155.516 31.7608L160.817 26.8276C156.936 21.93 148.662 12.0112 146.612 11.5161C144.05 10.8972 128.656 5.80716 124.847 6.35213C121.799 6.78811 116.722 9.66748 114.564 11.0527M112.649 29.7769L113.787 37.7307C117.451 36.1674 126.631 33.3991 134.045 34.8324C141.459 36.2658 144.638 36.8287 145.3 36.931L146.512 33.0489C144.47 31.9495 140.351 29.7555 140.213 29.7753C140.04 29.8001 128.406 27.5228 123.557 28.2164C118.709 28.91 114.826 28.9399 112.649 29.7769Z" stroke="black" stroke-width="2"/>
<path d="M55.4124 141.474C51.265 142.132 59.82 228.764 36.9004 287.457H167.66L156.273 234.267L167.66 160.901H126.155C102.78 158.616 59.5598 140.816 55.4124 141.474Z" fill="#93B4D1" stroke="black" stroke-width="2"/>
<path d="M218.442 155.35L173.279 163.184L166.702 218.511L242.641 183.059L276.8 112.78L233.894 101.629L218.442 155.35Z" fill="white" stroke="black" stroke-width="2"/>
<path d="M92.1278 71.6631L85.835 144.389L117.323 155.092H141.102L157.792 146.859L154.782 114.475H168.462L141.102 71.6631H92.1278Z" fill="white"/>
<path d="M146.891 114.475H154.782M154.782 114.475H168.462L141.102 71.6631H92.1278L85.835 144.389L117.323 155.092H141.102L157.792 146.859L154.782 114.475Z" stroke="black" stroke-width="2"/>
<path d="M14.2653 215.709L48.4125 151.143L46.0107 219.011L31.3364 281.742L37.5729 300.39L16.6231 307.781L9.09038 285.496L14.2653 215.709Z" fill="white"/>
<path d="M9.09038 285.496L14.2653 215.709L48.4125 151.143L46.0107 219.011L31.3364 281.742M9.09038 285.496L31.3364 281.742M9.09038 285.496L16.6231 307.781L37.5729 300.39L31.3364 281.742" stroke="black" stroke-width="2"/>
<ellipse cx="124.343" cy="95.3283" rx="3.20882" ry="10.0276" fill="black"/>
<ellipse cx="139.984" cy="96.1306" rx="2.80772" ry="9.22536" fill="black"/>
<path d="M116.854 82.3076C119.325 80.0979 124.926 76.3414 127.562 78.9931M137.722 82.3076C139.918 80.6503 144.97 79.3797 147.606 87.5556M107.518 119.596C107.152 122.635 111.197 129.816 130.308 134.235" stroke="black" stroke-width="2"/>
<path d="M82.0421 87.9254C85.1649 84.9595 88.5479 89.1611 89.849 91.6327L88.4295 110.169L86.6552 109.798C85.1175 109.428 81.6162 108.019 79.9129 105.35C77.7837 102.013 78.1386 91.6327 82.0421 87.9254Z" fill="white" stroke="black" stroke-width="2"/>
<path d="M84.3682 92.5205C83.418 93.2476 82.11 94.9787 81.8662 97.5417M82.854 102.949C81.9516 100.877 81.7214 99.063 81.8662 97.5417M81.8662 97.5417L86.6394 98.3142" stroke="black" stroke-width="2"/>
<path d="M97.1541 97.6985L90.5439 101.345H89.4422V96.24V90.4058C89.4422 87.1969 85.0354 86.1516 82.832 86.0301L79.1597 68.8921C80.3838 68.8921 81.4366 68.7462 75.8546 68.1628C70.2727 67.5794 72.3047 66.4611 74.0185 65.975L82.832 60.1407L167.663 57.2236V59.0468C167.663 59.7761 167.516 61.8181 166.928 64.1518C166.341 66.4855 161.787 69.2567 159.583 70.3506C155.422 72.2954 145.702 76.1848 140.12 76.1848C133.143 76.1848 125.064 73.2677 122.86 72.1738C120.657 71.0799 120.657 68.8921 116.25 72.1738C112.725 74.7992 103.764 81.0467 99.7247 83.8422L97.1541 97.6985Z" fill="#101010" stroke="black" stroke-width="2"/>
<path d="M243.012 62.6085L245.152 98.1589L273.065 107.495L277.059 98.0743L293.806 85.1924L290.653 78.9526L275.596 90.4397L292 69.8807L286.007 65.2823L269.564 83.6102L282.608 60.6982L274.8 55.8305L261.81 78.3796L268.631 54.9147L260.285 53.6757L252.67 79.9898L250.269 63.6859L243.012 62.6085Z" fill="white"/>
<path d="M252.67 79.9898L250.269 63.6859L243.012 62.6085L245.152 98.1589L273.065 107.495L277.059 98.0743L293.806 85.1924L290.653 78.9526L275.596 90.4397L292 69.8807L286.007 65.2823L269.564 83.6102L282.608 60.6982L274.8 55.8305L261.81 78.3796L268.631 54.9147L260.285 53.6757L252.67 79.9898ZM252.67 79.9898C253.579 79.561 251.234 79.6046 252.67 79.9898ZM252.67 79.9898C254.384 80.4493 259.888 81.5417 260.841 84.9113" stroke="black" stroke-width="2"/>
<path d="M92.4694 207.847C88.931 202.866 86.5721 168.905 85.835 152.547V151.082L114.216 159.139L125.642 161.336H140.385C133.505 175.253 118.639 204.038 114.216 207.847C109.793 211.655 102.053 216.514 98.7353 218.467C98.121 217.002 96.0078 212.827 92.4694 207.847Z" stroke="black" stroke-width="2"/>
<path d="M99.9096 218.243L93.3476 286.655M92.2539 153.489C93.1045 167.757 95.0975 197.097 96.264 200.317C97.4306 203.536 99.1805 208 99.9096 209.829L101.003 212.755L113.034 204.341C120.689 190.561 136.074 162.782 136.365 161.904C136.657 161.026 130.411 161.538 127.251 161.904L113.034 158.977L92.2539 153.489Z" stroke="black" stroke-width="2"/>
<path d="M274.514 118.192L232.639 108.565L234.083 102.147L275.958 112.844L274.514 118.192Z" stroke="black" stroke-width="2"/>
<path d="M225.17 71.039C222.599 61.597 223.235 42.056 246.343 39.4278" stroke="black" stroke-width="2"/>
<path d="M349.785 97.6582C357.216 91.2917 367.669 74.7693 350.029 59.6124" stroke="black" stroke-width="2"/>
<path d="M212.108 56.0018C209.789 45.759 211.256 23.7224 235.681 17.519" stroke="black" stroke-width="2"/>
<path d="M321.209 51.0889C332.171 62.2939 346.386 88.8839 315.543 105.604" stroke="black" stroke-width="2"/>
</svg>
