<svg width="139" height="165" viewBox="0 0 139 165" fill="none" xmlns="http://www.w3.org/2000/svg">
<path d="M69.8911 25.0083C74.8377 25.0083 79.5817 26.9462 83.0795 30.3959C86.5772 33.8455 88.5422 38.5242 88.5422 43.4027C88.5422 48.2812 86.5772 52.9599 83.0795 56.4095C79.5817 59.8592 74.8377 61.7972 69.8911 61.7972C64.9434 61.7972 60.1984 59.8587 56.6998 56.4083C53.2013 52.9579 51.2358 48.2782 51.2358 43.3986C51.2358 38.519 53.2013 33.8392 56.6998 30.3888C60.1984 26.9384 64.9434 25.0083 69.8911 25.0083ZM69.8911 33.268C67.1657 33.268 64.552 34.3358 62.6248 36.2364C60.6977 38.137 59.615 40.7148 59.615 43.4027C59.615 46.0906 60.6977 48.6684 62.6248 50.569C64.552 52.4697 67.1657 53.5374 69.8911 53.5374C72.6176 53.5374 75.2325 52.4692 77.1604 50.5678C79.0883 48.6664 80.1714 46.0876 80.1714 43.3986C80.1714 40.7096 79.0883 38.1307 77.1604 36.2293C75.2325 34.3279 72.6176 33.268 69.8911 33.268ZM11.509 95.2987C11.509 96.394 11.0678 97.4444 10.2825 98.2189C9.4972 98.9934 8.43209 99.4285 7.3215 99.4285C6.21091 99.4285 5.1458 98.9934 4.36049 98.2189C3.57518 97.4444 3.134 96.394 3.134 95.2987V74.765C3.13427 72.7419 3.88738 70.7892 5.25049 69.2774C6.6136 67.7656 8.4919 66.7997 10.5291 66.563L11.509 66.5052H34.5989C33.3803 68.579 32.637 70.8908 32.4214 73.2782L32.3544 74.765H11.5006L11.509 95.2987ZM132.729 99.4285C133.839 99.4285 134.904 98.9934 135.69 98.2189C136.475 97.4444 136.916 96.394 136.916 95.2987V74.765L136.858 73.8068C136.62 71.7961 135.641 69.9417 134.108 68.5957C132.575 67.2496 130.594 66.5057 128.541 66.5052H105.225C106.448 68.5949 107.235 70.9902 107.42 73.5342L107.461 74.7732H128.541V95.2987C128.541 96.394 128.982 97.4444 129.768 98.2189C130.553 98.9934 131.618 99.4285 132.729 99.4285ZM90.7197 66.5052C92.7723 66.5057 94.7533 67.2496 96.2864 68.5957C97.8195 69.9417 98.798 71.7961 99.0361 73.8068L99.0864 74.765V95.2987C99.0864 96.394 98.6452 97.4444 97.8599 98.2189C97.0746 98.9934 96.0095 99.4285 94.8989 99.4285C93.7883 99.4285 92.7232 98.9934 91.9379 98.2189C91.1526 97.4444 90.7114 96.394 90.7114 95.2987V74.765H49.1044V95.2987C49.1044 96.394 48.6632 97.4444 47.8779 98.2189C47.0926 98.9934 46.0275 99.4285 44.9169 99.4285C43.8063 99.4285 42.7412 98.9934 41.9559 98.2189C41.1706 97.4444 40.7294 96.394 40.7294 95.2987V74.765C40.7296 72.7419 41.4828 70.7892 42.8459 69.2774C44.209 67.7656 46.0873 66.7997 48.1245 66.563L49.1044 66.5052H90.7114H90.7197ZM127.687 45.9963C127.687 41.8045 125.999 37.7844 122.993 34.8204C119.988 31.8564 115.912 30.1912 111.661 30.1912C107.411 30.1912 103.335 31.8564 100.33 34.8204C97.3243 37.7844 95.6359 41.8045 95.6359 45.9963C95.6359 50.188 97.3243 54.2081 100.33 57.1721C103.335 60.1361 107.411 61.8013 111.661 61.8013C115.912 61.8013 119.988 60.1361 122.993 57.1721C125.999 54.2081 127.687 50.188 127.687 45.9963ZM104.011 45.9963C104.011 43.9951 104.817 42.076 106.252 40.661C107.686 39.2459 109.632 38.451 111.661 38.451C113.69 38.451 115.636 39.2459 117.071 40.661C118.506 42.076 119.312 43.9951 119.312 45.9963C119.312 47.9974 118.506 49.9166 117.071 51.3316C115.636 52.7466 113.69 53.5415 111.661 53.5415C109.632 53.5415 107.686 52.7466 106.252 51.3316C104.817 49.9166 104.011 47.9974 104.011 45.9963ZM28.259 30.1871C32.5092 30.1871 36.5854 31.8523 39.5908 34.8163C42.5962 37.7803 44.2846 41.8004 44.2846 45.9921C44.2846 50.1839 42.5962 54.204 39.5908 57.168C36.5854 60.132 32.5092 61.7972 28.259 61.7972C24.0088 61.7972 19.9326 60.132 16.9272 57.168C13.9218 54.204 12.2334 50.1839 12.2334 45.9921C12.2334 41.8004 13.9218 37.7803 16.9272 34.8163C19.9326 31.8523 24.0088 30.1871 28.259 30.1871ZM28.259 38.4469C26.2299 38.4469 24.284 39.2418 22.8492 40.6568C21.4145 42.0718 20.6084 43.991 20.6084 45.9921C20.6084 47.9933 21.4145 49.9124 22.8492 51.3275C24.284 52.7425 26.2299 53.5374 28.259 53.5374C30.2881 53.5374 32.234 52.7425 33.6688 51.3275C35.1035 49.9124 35.9096 47.9933 35.9096 45.9921C35.9096 43.991 35.1035 42.0718 33.6688 40.6568C32.234 39.2418 30.2881 38.4469 28.259 38.4469ZM7.1875 107.688C6.07691 107.688 5.0118 108.123 4.22649 108.898C3.44118 109.672 3 110.723 3 111.818V120.078C3 125.554 5.20591 130.807 9.13245 134.679C13.059 138.552 18.3845 140.727 23.9375 140.727H116.062C121.615 140.727 126.941 138.552 130.868 134.679C134.794 130.807 137 125.554 137 120.078V111.818C137 110.723 136.559 109.672 135.774 108.898C134.988 108.123 133.923 107.688 132.812 107.688H7.1875ZM11.375 120.078V115.948H128.625V120.078C128.625 123.364 127.301 126.515 124.946 128.839C122.59 131.162 119.394 132.468 116.062 132.468H23.9375C20.6057 132.468 17.4104 131.162 15.0545 128.839C12.6985 126.515 11.375 123.364 11.375 120.078Z" fill="black"/>
</svg>
