<svg width="15" height="16" viewBox="0 0 15 16" fill="none" xmlns="http://www.w3.org/2000/svg">
<g id="ic:outline-whatsapp">
<path id="Vector" d="M11.9062 3.56879C11.3332 2.98999 10.6507 2.53108 9.89852 2.21882C9.14631 1.90656 8.33945 1.7472 7.525 1.75004C4.1125 1.75004 1.33125 4.53129 1.33125 7.94379C1.33125 9.03754 1.61875 10.1 2.15625 11.0375L1.28125 14.25L4.5625 13.3875C5.46875 13.8813 6.4875 14.1438 7.525 14.1438C10.9375 14.1438 13.7188 11.3625 13.7188 7.95004C13.7188 6.29379 13.075 4.73754 11.9062 3.56879ZM7.525 13.0938C6.6 13.0938 5.69375 12.8438 4.9 12.375L4.7125 12.2625L2.7625 12.775L3.28125 10.875L3.15625 10.6813C2.64234 9.86064 2.36946 8.91206 2.36875 7.94379C2.36875 5.10629 4.68125 2.79379 7.51875 2.79379C8.89375 2.79379 10.1875 3.33129 11.1562 4.30629C11.6359 4.78376 12.0161 5.3517 12.2746 5.97718C12.5332 6.60265 12.665 7.27323 12.6625 7.95004C12.675 10.7875 10.3625 13.0938 7.525 13.0938ZM10.35 9.24379C10.1937 9.16879 9.43125 8.79379 9.29375 8.73754C9.15 8.68754 9.05 8.66254 8.94375 8.81254C8.8375 8.96879 8.54375 9.31879 8.45625 9.41879C8.36875 9.52504 8.275 9.53754 8.11875 9.45629C7.9625 9.38129 7.4625 9.21254 6.875 8.68754C6.4125 8.27504 6.10625 7.76879 6.0125 7.61254C5.925 7.45629 6 7.37504 6.08125 7.29379C6.15 7.22504 6.2375 7.11254 6.3125 7.02504C6.3875 6.93754 6.41875 6.86879 6.46875 6.76879C6.51875 6.66254 6.49375 6.57504 6.45625 6.50004C6.41875 6.42504 6.10625 5.66254 5.98125 5.35004C5.85625 5.05004 5.725 5.08754 5.63125 5.08129H5.33125C5.225 5.08129 5.0625 5.11879 4.91875 5.27504C4.78125 5.43129 4.38125 5.80629 4.38125 6.56879C4.38125 7.33129 4.9375 8.06879 5.0125 8.16879C5.0875 8.27504 6.10625 9.83754 7.65625 10.5063C8.025 10.6688 8.3125 10.7625 8.5375 10.8313C8.90625 10.95 9.24375 10.9313 9.5125 10.8938C9.8125 10.85 10.4312 10.5188 10.5562 10.1563C10.6875 9.79379 10.6875 9.48754 10.6437 9.41879C10.6 9.35004 10.5062 9.31879 10.35 9.24379Z" fill="#527AA4"/>
</g>
</svg>
