<svg width="124" height="165" viewBox="0 0 124 165" fill="none" xmlns="http://www.w3.org/2000/svg">
<g id="Group 8">
<path id="Vector" d="M7.31449 76.0305H117.178C117.864 76.0318 118.543 76.1682 119.176 76.4319C119.81 76.6957 120.385 77.0815 120.869 77.5675C121.353 78.0535 121.737 78.63 121.998 79.2643C122.259 79.8985 122.393 80.5781 122.392 81.264V138.544C122.393 139.42 122.173 140.283 121.753 141.053C121.333 141.823 120.727 142.475 119.989 142.95L90.0836 162.996C89.445 163.428 88.7173 163.711 87.9545 163.823C87.1917 163.935 86.4135 163.874 85.6775 163.644L6.04848 143.647C4.91325 143.367 3.90421 142.716 3.18173 141.796C2.45926 140.877 2.06479 139.743 2.06104 138.573V81.264C2.05839 79.8804 2.60483 78.5522 3.58041 77.571C4.55599 76.5898 5.88101 76.0358 7.26465 76.0305H7.31449ZM113.779 94.8527C113.779 89.3299 109.302 84.8527 103.779 84.8527H20.4347C14.9118 84.8527 10.4347 89.3299 10.4347 94.8527V127.438C10.4347 132.012 13.5382 136.003 17.9713 137.13L82.6779 153.576C85.448 154.28 88.3871 153.765 90.7528 152.161L109.391 139.525C112.135 137.664 113.779 134.564 113.779 131.248V94.8527Z" stroke="#231F20" stroke-width="2.09" stroke-miterlimit="10"/>
<path id="Vector_2" d="M45.7135 124.587C42.4032 124.579 39.2308 123.261 36.89 120.92C34.5493 118.579 33.2308 115.407 33.2229 112.097V50.4311C33.2229 47.1183 34.5389 43.9413 36.8813 41.5988C39.2238 39.2564 42.4008 37.9404 45.7135 37.9404C49.0263 37.9404 52.2033 39.2564 54.5457 41.5988C56.8882 43.9413 58.2042 47.1183 58.2042 50.4311V112.107C58.1936 115.415 56.874 118.585 54.5335 120.924C52.1931 123.262 49.0221 124.579 45.7135 124.587ZM45.7135 46.4237C45.7135 46.4127 45.7046 46.4038 45.6936 46.4038C44.6432 46.4091 43.6371 46.8286 42.894 47.5716C42.1462 48.3194 41.7261 49.3337 41.7261 50.3912V112.067C41.7261 113.124 42.1462 114.139 42.894 114.886C43.6418 115.634 44.656 116.054 45.7135 116.054C46.7711 116.054 47.7853 115.634 48.5331 114.886C49.2809 114.139 49.701 113.124 49.701 112.067V50.4311C49.701 49.3735 49.2809 48.3593 48.5331 47.6115C47.79 46.8684 46.7838 46.4489 45.7335 46.4437C45.7225 46.4436 45.7135 46.4347 45.7135 46.4237Z" fill="#231F20"/>
<path id="Vector_3" d="M87.7909 156.567C84.4798 156.561 81.3058 155.244 78.9645 152.902C76.6232 150.561 75.3056 147.387 75.3003 144.076V12.4906C75.3003 9.17791 76.6163 6.00087 78.9587 3.65842C81.3012 1.31597 84.4782 0 87.7909 0C91.1037 0 94.2807 1.31597 96.6231 3.65842C98.9656 6.00087 100.282 9.17791 100.282 12.4906V144.076C100.274 147.386 98.9552 150.559 96.6144 152.899C94.2737 155.24 91.1012 156.559 87.7909 156.567ZM87.7909 8.46333C86.7334 8.46333 85.7192 8.88343 84.9714 9.63122C84.2236 10.379 83.8035 11.3932 83.8035 12.4508V144.036C83.8035 145.094 84.2236 146.108 84.9714 146.856C85.7192 147.603 86.7334 148.023 87.7909 148.023C88.8485 148.023 89.8627 147.603 90.6105 146.856C91.3583 146.108 91.7784 145.094 91.7784 144.036V12.4508C91.7784 11.3932 91.3583 10.379 90.6105 9.63122C89.8627 8.88343 88.8485 8.46333 87.7909 8.46333Z" fill="#231F20"/>
<path id="Vector_4" d="M87.8707 33.7734C88.5204 33.7758 89.1551 33.97 89.6949 34.3316L91.2899 35.3285L120.348 54.8071C120.798 55.1099 121.168 55.5177 121.425 55.9953C121.682 56.473 121.819 57.0061 121.824 57.5485V139.291C121.825 139.852 121.682 140.403 121.41 140.894C121.138 141.384 120.745 141.796 120.269 142.092L89.7049 162.468C89.2987 162.742 88.836 162.921 88.351 162.992C87.8824 163.06 87.4049 163.026 86.9514 162.891C86.9197 162.882 86.8869 162.877 86.8539 162.877C86.8208 162.877 86.7878 162.872 86.7557 162.864L5.34074 142.431C4.62838 142.251 3.9964 141.839 3.54496 141.259C3.09353 140.679 2.84846 139.966 2.8486 139.231V57.4886C2.84893 56.721 3.11689 55.9775 3.60634 55.3862C4.08475 54.8082 4.7455 54.4109 5.47922 54.259C5.51303 54.252 5.54753 54.2489 5.58207 54.2489C5.62703 54.2489 5.67183 54.2433 5.71545 54.2324L87.0732 33.8731C87.3344 33.8099 87.6019 33.7765 87.8707 33.7734ZM87.8305 31.7596C87.8405 31.7646 87.837 31.7797 87.8258 31.7798C87.4073 31.783 86.9906 31.8365 86.5847 31.9392L5.14137 52.2751C3.92537 52.5069 2.82819 53.1553 2.03857 54.1086C1.24896 55.062 0.816289 56.2607 0.815006 57.4986V139.241C0.809153 140.423 1.19833 141.573 1.92075 142.509C2.64316 143.444 3.65741 144.111 4.80244 144.405L86.2657 164.771C86.7735 164.923 87.3007 165 87.8308 165C88.8784 165 89.9022 164.687 90.7715 164.103L121.345 143.727C122.098 143.245 122.717 142.582 123.145 141.798C123.574 141.014 123.798 140.134 123.797 139.241V57.4986C123.797 56.6226 123.58 55.7603 123.166 54.9882C122.752 54.2162 122.154 53.5581 121.425 53.0726L90.7815 32.637C89.9082 32.0556 88.8837 31.7438 87.8352 31.7398C87.8241 31.7397 87.8206 31.7546 87.8305 31.7596Z" fill="#231F20"/>
<path id="Vector_5" d="M82.5683 42.8187C85.3153 42.1184 88.2304 42.6169 90.5886 44.1901L109.897 57.0718C112.677 58.9267 114.347 62.0481 114.347 65.3904V66.0204C114.347 71.5433 109.87 76.0204 104.347 76.0204H18.6897C14.0921 76.0204 10.365 72.2933 10.365 67.6957V67.6957C10.365 63.8901 12.9456 60.5691 16.6331 59.629L82.5683 42.8187Z" stroke="#231F20" stroke-width="2" stroke-miterlimit="10"/>
</g>
</svg>
