<svg width="13" height="14" viewBox="0 0 13 14" fill="none" xmlns="http://www.w3.org/2000/svg">
<path d="M10.9062 2.56879C10.3332 1.98999 9.65074 1.53108 8.89852 1.21882C8.14631 0.906559 7.33945 0.7472 6.525 0.750037C3.1125 0.750037 0.33125 3.53129 0.33125 6.94379C0.33125 8.03754 0.61875 9.10004 1.15625 10.0375L0.28125 13.25L3.5625 12.3875C4.46875 12.8813 5.4875 13.1438 6.525 13.1438C9.9375 13.1438 12.7188 10.3625 12.7188 6.95004C12.7188 5.29379 12.075 3.73754 10.9062 2.56879ZM6.525 12.0938C5.6 12.0938 4.69375 11.8438 3.9 11.375L3.7125 11.2625L1.7625 11.775L2.28125 9.87504L2.15625 9.68129C1.64234 8.86064 1.36946 7.91206 1.36875 6.94379C1.36875 4.10629 3.68125 1.79379 6.51875 1.79379C7.89375 1.79379 9.1875 2.33129 10.1562 3.30629C10.6359 3.78376 11.0161 4.3517 11.2746 4.97718C11.5332 5.60265 11.665 6.27323 11.6625 6.95004C11.675 9.78754 9.3625 12.0938 6.525 12.0938ZM9.35 8.24379C9.19375 8.16879 8.43125 7.79379 8.29375 7.73754C8.15 7.68754 8.05 7.66254 7.94375 7.81254C7.8375 7.96879 7.54375 8.31879 7.45625 8.41879C7.36875 8.52504 7.275 8.53754 7.11875 8.45629C6.9625 8.38129 6.4625 8.21254 5.875 7.68754C5.4125 7.27504 5.10625 6.76879 5.0125 6.61254C4.925 6.45629 5 6.37504 5.08125 6.29379C5.15 6.22504 5.2375 6.11254 5.3125 6.02504C5.3875 5.93754 5.41875 5.86879 5.46875 5.76879C5.51875 5.66254 5.49375 5.57504 5.45625 5.50004C5.41875 5.42504 5.10625 4.66254 4.98125 4.35004C4.85625 4.05004 4.725 4.08754 4.63125 4.08129H4.33125C4.225 4.08129 4.0625 4.11879 3.91875 4.27504C3.78125 4.43129 3.38125 4.80629 3.38125 5.56879C3.38125 6.33129 3.9375 7.06879 4.0125 7.16879C4.0875 7.27504 5.10625 8.83754 6.65625 9.50629C7.025 9.66879 7.3125 9.76254 7.5375 9.83129C7.90625 9.95004 8.24375 9.93129 8.5125 9.89379C8.8125 9.85004 9.43125 9.51879 9.55625 9.15629C9.6875 8.79379 9.6875 8.48754 9.64375 8.41879C9.6 8.35004 9.50625 8.31879 9.35 8.24379Z" fill="#527AA4"/>
</svg>
