<svg width="30" height="30" viewBox="0 0 30 30" fill="none" xmlns="http://www.w3.org/2000/svg">
<circle cx="15" cy="15" r="15" fill="white"/>
<path d="M19.8222 8.13333C19.0627 7.26625 18.6441 6.1527 18.6444 5H15.2111V18.7778C15.1846 19.5234 14.8699 20.2296 14.3331 20.7477C13.7963 21.2658 13.0794 21.5555 12.3333 21.5556C10.7556 21.5556 9.44444 20.2667 9.44444 18.6667C9.44444 16.7556 11.2889 15.3222 13.1889 15.9111V12.4C9.35556 11.8889 6 14.8667 6 18.6667C6 22.3667 9.06667 25 12.3222 25C15.8111 25 18.6444 22.1667 18.6444 18.6667V11.6778C20.0367 12.6776 21.7082 13.2141 23.4222 13.2111V9.77778C23.4222 9.77778 21.3333 9.87778 19.8222 8.13333Z" fill="#1B1B1B"/>
</svg>
