<svg width="101" height="451" viewBox="0 0 101 451" fill="none" xmlns="http://www.w3.org/2000/svg">
<g clip-path="url(#clip0_453_5192)">
<path d="M42.5938 201.028L19.3872 207.33C18.1685 207.661 17.13 208.459 16.5003 209.547C15.8706 210.636 15.7012 211.926 16.0294 213.134L20.6337 230.088C20.7597 230.554 20.9771 230.991 21.2737 231.373C21.5703 231.756 21.9401 232.076 22.362 232.316C22.7839 232.555 23.2497 232.71 23.7326 232.77C24.2155 232.831 24.7062 232.797 25.1765 232.669L39.3881 228.809C39.8853 228.674 40.3096 228.35 40.5689 227.907L45.9723 218.698C46.231 218.256 46.6546 217.933 47.151 217.798C47.6473 217.663 48.1764 217.728 48.6232 217.978L57.9426 223.189C58.3903 223.439 58.9203 223.504 59.4176 223.37L73.6292 219.51C74.5782 219.251 75.3865 218.629 75.8764 217.78C76.3664 216.932 76.498 215.927 76.2423 214.986L71.6381 198.032C71.3099 196.824 70.511 195.796 69.4172 195.176C68.3233 194.555 67.0242 194.393 65.8054 194.724L42.5938 201.028Z" fill="#F49540"/>
<path d="M68.3244 217.014L60.6774 219.09C59.8702 219.309 59.0102 219.203 58.2838 218.796L50.8939 214.668C49.8131 214.039 48.5584 213.768 47.3093 213.891C46.4059 213.988 45.5374 214.296 44.7746 214.789C44.0118 215.281 43.3761 215.945 42.9193 216.727L38.5819 224.115C38.1468 224.859 37.4341 225.403 36.5989 225.63L28.9969 227.694C27.8181 228.014 26.5614 227.857 25.5034 227.257C24.4453 226.657 23.6726 225.663 23.3551 224.494L20.7426 214.875C20.4772 213.892 20.6159 212.843 21.1284 211.959C21.6408 211.074 22.485 210.427 23.4756 210.158L64.2162 199.093C65.2068 198.824 66.2628 198.956 67.1522 199.46C68.0416 199.963 68.6918 200.798 68.9599 201.78L71.5723 211.399C71.8898 212.568 71.7259 213.816 71.1168 214.869C70.5077 215.922 69.5033 216.693 68.3244 217.014V217.014Z" fill="#C4C3C3"/>
<path opacity="0.3" d="M31.6238 207.944L26.0681 227.252C27.0917 227.772 28.276 227.892 29.3879 227.588L33.7576 226.401L39.6817 205.756L31.6238 207.944Z" fill="white"/>
<path opacity="0.3" d="M53.3516 202.043L49.9153 213.978C50.3382 214.105 50.7458 214.276 51.1308 214.491L56.337 217.415L61.4096 199.855L53.3516 202.043Z" fill="white"/>
<path d="M16.4221 214.58L8.51953 216.727L11.4451 227.499L19.3477 225.353L16.4221 214.58Z" fill="#454444"/>
<path d="M3.78253 220.345L9.10938 218.898L10.8542 225.323L5.52734 226.77C5.28147 226.836 5.01937 226.803 4.79869 226.678C4.57801 226.553 4.41684 226.346 4.35063 226.102L3.10511 221.516C3.07233 221.395 3.06385 221.269 3.08015 221.145C3.09645 221.021 3.13721 220.901 3.20012 220.792C3.26302 220.683 3.34683 220.588 3.44676 220.511C3.54669 220.434 3.66079 220.378 3.78253 220.345V220.345Z" fill="#454444"/>
<path d="M74.9568 210.251L82.8594 208.104L79.9338 197.332L72.0312 199.478L74.9568 210.251Z" fill="#454444"/>
<path d="M87.5965 204.486L82.2697 205.932L80.5248 199.508L85.8517 198.061C86.0962 197.996 86.3562 198.029 86.5753 198.154C86.7945 198.278 86.955 198.483 87.022 198.725L88.2689 203.316C88.3349 203.559 88.3012 203.818 88.1752 204.038C88.0492 204.257 87.8412 204.418 87.5965 204.486Z" fill="#454444"/>
<path d="M42.5938 201.028L19.3872 207.33C18.1685 207.661 17.13 208.459 16.5003 209.547C15.8706 210.636 15.7012 211.926 16.0294 213.134L20.6337 230.088C20.7597 230.554 20.9771 230.991 21.2737 231.373C21.5703 231.756 21.9401 232.076 22.362 232.316C22.7839 232.555 23.2497 232.71 23.7326 232.77C24.2155 232.831 24.7062 232.797 25.1765 232.669L39.3881 228.809C39.8853 228.674 40.3096 228.35 40.5689 227.907L45.9723 218.698C46.231 218.256 46.6546 217.933 47.151 217.798C47.6473 217.663 48.1764 217.728 48.6232 217.978L57.9426 223.189C58.3903 223.439 58.9203 223.504 59.4176 223.37L73.6292 219.51C74.5782 219.251 75.3865 218.629 75.8764 217.78C76.3664 216.932 76.498 215.927 76.2423 214.986L71.6381 198.032C71.3099 196.824 70.511 195.796 69.4172 195.176C68.3233 194.555 67.0242 194.393 65.8054 194.724L42.5938 201.028Z" stroke="#1D1D1B" stroke-width="2" stroke-miterlimit="10"/>
<path d="M68.3244 217.014L60.6774 219.09C59.8702 219.309 59.0102 219.203 58.2838 218.796L50.8939 214.668C49.8131 214.039 48.5584 213.768 47.3093 213.891C46.4059 213.988 45.5374 214.296 44.7746 214.789C44.0118 215.281 43.3761 215.945 42.9193 216.727L38.5819 224.115C38.1468 224.859 37.4341 225.403 36.5989 225.63L28.9969 227.694C27.8181 228.014 26.5614 227.857 25.5034 227.257C24.4453 226.657 23.6726 225.663 23.3551 224.494L20.7426 214.875C20.4772 213.892 20.6159 212.843 21.1284 211.959C21.6408 211.074 22.485 210.427 23.4756 210.158L64.2162 199.093C65.2068 198.824 66.2628 198.956 67.1522 199.46C68.0416 199.963 68.6918 200.798 68.9599 201.78L71.5723 211.399C71.8898 212.568 71.7259 213.816 71.1168 214.869C70.5077 215.922 69.5033 216.693 68.3244 217.014V217.014Z" stroke="#1D1D1B" stroke-width="2" stroke-miterlimit="10"/>
<path d="M16.4221 214.58L8.51953 216.727L11.4451 227.499L19.3477 225.353L16.4221 214.58Z" stroke="#1D1D1B" stroke-width="2" stroke-miterlimit="10"/>
<path d="M3.78253 220.345L9.10938 218.898L10.8542 225.323L5.52734 226.77C5.28147 226.836 5.01937 226.803 4.79869 226.678C4.57801 226.553 4.41684 226.346 4.35063 226.102L3.10511 221.516C3.07233 221.395 3.06385 221.269 3.08015 221.145C3.09645 221.021 3.13721 220.901 3.20012 220.792C3.26302 220.683 3.34683 220.588 3.44676 220.511C3.54669 220.434 3.66079 220.378 3.78253 220.345V220.345Z" stroke="#1D1D1B" stroke-width="2" stroke-miterlimit="10"/>
<path d="M74.9568 210.251L82.8594 208.104L79.9338 197.332L72.0312 199.478L74.9568 210.251Z" stroke="#1D1D1B" stroke-width="2" stroke-miterlimit="10"/>
<path d="M87.5965 204.486L82.2697 205.932L80.5248 199.508L85.8517 198.061C86.0962 197.996 86.3562 198.029 86.5753 198.154C86.7945 198.278 86.955 198.483 87.022 198.725L88.2689 203.316C88.3349 203.559 88.3012 203.818 88.1752 204.038C88.0492 204.257 87.8412 204.418 87.5965 204.486Z" stroke="#1D1D1B" stroke-width="2" stroke-miterlimit="10"/>
<path opacity="0.3" d="M31.6238 207.944L26.0681 227.252C27.0917 227.772 28.276 227.892 29.3879 227.588L33.7576 226.401L39.6817 205.756L31.6238 207.944Z" stroke="#1D1D1B" stroke-width="2" stroke-miterlimit="10"/>
<path opacity="0.3" d="M53.3516 202.043L49.9153 213.978C50.3382 214.105 50.7458 214.276 51.1308 214.491L56.3507 217.405L61.4096 199.855L53.3516 202.043Z" stroke="#1D1D1B" stroke-width="2" stroke-miterlimit="10"/>
</g>
<g clip-path="url(#clip1_453_5192)">
<path d="M16.8548 30.5691C34.3627 36.8286 51.2977 47.2813 67.8564 60.6122C68.6171 61.9485 80.18 39.0779 78.5144 38.061C77.24 37.3103 59.8784 40.4547 60.6407 38.8232C58.3523 30.0294 57.3759 22.3006 58.0331 15.8679C58.0438 15.76 58.0231 15.6511 57.9735 15.5541C57.9239 15.457 57.8475 15.376 57.7533 15.3205C57.6591 15.265 57.5511 15.2374 57.4422 15.2411C57.3333 15.2448 57.228 15.2795 57.1388 15.3411C51.3216 19.7403 44.5665 22.7621 37.3807 24.1798C33.4946 18.4867 30.9228 12.5663 31.6337 6.09366C31.6381 6.04479 31.6268 5.99566 31.6014 5.95334C31.5759 5.91103 31.5377 5.87773 31.4923 5.85824C31.4468 5.83875 31.3964 5.83408 31.3484 5.8449C31.3003 5.85572 31.2571 5.88148 31.225 5.91846C25.0628 13.2563 20.204 21.5911 16.8548 30.5691V30.5691Z" fill="#EFDC70" stroke="#231F20" stroke-width="2" stroke-miterlimit="10"/>
</g>
<g clip-path="url(#clip2_453_5192)">
<path d="M83.8511 444.097L63.1621 436.842L62.2545 439.43L82.9435 446.685L83.8511 444.097Z" fill="#B19F81"/>
<path d="M83.7974 443.966L63.1084 436.711L62.2008 439.299L82.8898 446.554L83.7974 443.966Z" stroke="#1D1D1B" stroke-width="2" stroke-miterlimit="10"/>
<path d="M85.009 444.502L82.6934 443.69L80.88 448.861L83.1956 449.673L85.009 444.502Z" fill="#3B3C3C"/>
<path d="M84.9602 444.374L82.6445 443.562L80.8312 448.732L83.1468 449.545L84.9602 444.374Z" stroke="#1D1D1B" stroke-width="2" stroke-miterlimit="10"/>
<path d="M57.3672 440.616C60.712 441.789 64.3744 440.029 65.5474 436.684C66.7204 433.339 64.9597 429.677 61.6149 428.504C58.2701 427.331 54.6077 429.091 53.4347 432.436C52.2617 435.781 54.0224 439.443 57.3672 440.616Z" fill="#323030"/>
<path d="M57.3184 440.488C60.6632 441.66 64.3256 439.9 65.4986 436.555C66.6716 433.21 64.9109 429.548 61.5661 428.375C58.2213 427.202 54.5589 428.962 53.3859 432.307C52.2129 435.652 53.9736 439.315 57.3184 440.488Z" stroke="#1D1D1B" stroke-width="2" stroke-miterlimit="10"/>
<path fill-rule="evenodd" clip-rule="evenodd" d="M21.7763 399.253L14.9986 418.58C14.9986 418.58 12.7572 424.972 20.38 427.645L57.5353 440.675L66.1263 416.177C67.056 410.709 66.4315 405.09 64.3239 399.96C60.8088 391.697 39.715 375.127 21.7763 399.253Z" fill="#3B3C3C"/>
<path fill-rule="evenodd" clip-rule="evenodd" d="M21.7218 399.14L14.9515 418.446C14.9515 418.446 12.7082 424.843 20.3311 427.516L57.4864 440.546L66.0774 416.048C67.008 410.579 66.3841 404.958 64.2768 399.826C60.7565 391.561 39.6679 374.993 21.7218 399.14Z" stroke="#1D1D1B" stroke-width="2" stroke-miterlimit="10"/>
<path d="M66.0801 395.899L64.9932 391.713L62.0591 392.475L63.146 396.661L66.0801 395.899Z" fill="#F3952A"/>
<path d="M66.0302 395.77L64.9434 391.584L62.0093 392.346L63.0962 396.532L66.0302 395.77Z" stroke="#1D1D1B" stroke-width="2" stroke-miterlimit="10"/>
<path d="M67.3085 397.55L61.2402 390.488L57.7917 393.452L63.86 400.513L67.3085 397.55Z" fill="#3B3C3C"/>
<path d="M67.2548 397.414L61.1865 390.353L57.738 393.316L63.8063 400.377L67.2548 397.414Z" stroke="#1D1D1B" stroke-width="2" stroke-miterlimit="10"/>
<path d="M36.0565 430.236C46.9358 434.052 58.8482 428.325 62.6634 417.446C66.4786 406.566 60.752 394.654 49.8726 390.839C38.9933 387.024 27.081 392.75 23.2658 403.629C19.4505 414.509 25.1771 426.421 36.0565 430.236Z" fill="#F3952A"/>
<path d="M36.0018 430.105C46.8812 433.921 58.7935 428.194 62.6087 417.315C66.4239 406.435 60.6973 394.523 49.8179 390.708C38.9386 386.893 27.0263 392.619 23.2111 403.499C19.3958 414.378 25.1225 426.29 36.0018 430.105Z" stroke="#1D1D1B" stroke-width="2" stroke-miterlimit="10"/>
<path d="M37.6231 425.767C46.043 428.72 55.2624 424.288 58.2151 415.868C61.1679 407.448 56.7359 398.229 48.3159 395.276C39.896 392.323 30.6766 396.755 27.7239 405.175C24.7712 413.595 29.2032 422.815 37.6231 425.767Z" fill="#FABA4D"/>
<path d="M37.5714 425.632C45.9913 428.584 55.2106 424.152 58.1634 415.732C61.1161 407.312 56.6841 398.093 48.2642 395.14C39.8443 392.188 30.6249 396.62 27.6721 405.04C24.7194 413.459 29.1514 422.679 37.5714 425.632Z" stroke="#1D1D1B" stroke-width="2" stroke-miterlimit="10"/>
<path d="M35.6881 411.893C35.4008 411.607 35.1968 411.249 35.0984 410.856C34.9958 410.429 34.9949 409.983 35.0958 409.555L36.2798 409.97C36.2302 410.188 36.2358 410.414 36.2959 410.629C36.3575 410.821 36.4701 410.993 36.6218 411.126C36.7967 411.274 36.9989 411.387 37.2172 411.458C37.3753 411.525 37.5449 411.559 37.7164 411.56C37.8878 411.56 38.0577 411.527 38.2162 411.461C38.3676 411.387 38.5017 411.282 38.6098 411.153C38.718 411.023 38.7979 410.873 38.8442 410.711L38.9287 410.47C39.0724 410.132 39.0858 409.753 38.9663 409.406C38.8976 409.253 38.7963 409.116 38.6695 409.005C38.5426 408.895 38.3933 408.813 38.2318 408.766L37.6397 408.559L38.0311 407.443L38.6179 407.649C38.7532 407.705 38.8991 407.732 39.0457 407.728C39.1924 407.724 39.3364 407.688 39.4681 407.623C39.7383 407.462 39.9365 407.203 40.0219 406.9L40.1119 406.643C40.1699 406.507 40.1984 406.36 40.1956 406.212C40.1927 406.064 40.1586 405.918 40.0954 405.784C39.9413 405.517 39.6892 405.321 39.3928 405.237C39.2131 405.171 39.0209 405.146 38.8303 405.164C38.6435 405.186 38.4654 405.255 38.3127 405.365C38.1335 405.499 37.9838 405.669 37.873 405.864L36.689 405.448C36.8907 405.056 37.1724 404.71 37.516 404.432C37.8222 404.19 38.1878 404.033 38.5748 403.98C38.9797 403.927 39.3912 403.975 39.7736 404.118C40.3919 404.292 40.916 404.704 41.2307 405.264C41.3588 405.542 41.428 405.843 41.4342 406.149C41.4403 406.455 41.3832 406.759 41.2663 407.042L41.2186 407.178C41.0903 407.567 40.84 407.904 40.5048 408.14C40.1532 408.375 39.737 408.494 39.3143 408.481C39.7075 408.709 39.9989 409.078 40.1288 409.514C40.2522 409.995 40.2204 410.503 40.0377 410.965L39.99 411.101C39.8512 411.534 39.6067 411.925 39.2787 412.24C38.9757 412.512 38.5969 412.685 38.1929 412.736C37.7258 412.783 37.2543 412.72 36.8156 412.553C36.3956 412.419 36.0105 412.193 35.6881 411.893V411.893Z" fill="#1D1D1B"/>
<path d="M49.8814 407.757L50.9711 408.139L48.0664 416.422L46.9767 416.04L49.152 409.837L49.081 410.223L45.3953 414.191L44.5675 413.9L44.1335 408.612L44.3583 408.155L42.183 414.358L41.0514 413.962L43.9561 405.679L45.0405 406.059L45.5534 412.381L49.8814 407.757Z" fill="#1D1D1B"/>
<path d="M35.6514 411.88C35.3618 411.595 35.156 411.236 35.0565 410.842C34.9538 410.414 34.9529 409.968 35.0539 409.54L36.2431 409.957C36.191 410.175 36.1966 410.402 36.2592 410.616C36.3196 410.807 36.4303 410.978 36.5799 411.111C36.7552 411.259 36.9573 411.372 37.1752 411.443C37.4961 411.578 37.8572 411.58 38.1795 411.448C38.3301 411.373 38.4633 411.268 38.5705 411.138C38.6778 411.009 38.7567 410.858 38.8022 410.696L38.8867 410.455C39.0314 410.117 39.0429 409.736 38.9191 409.39C38.851 409.236 38.7499 409.099 38.623 408.988C38.4961 408.877 38.3464 408.796 38.1845 408.75L37.5978 408.544L37.9891 407.428L38.5759 407.634C38.7118 407.692 38.8586 407.719 39.0062 407.715C39.1538 407.711 39.2988 407.675 39.4314 407.61C39.7016 407.449 39.8998 407.19 39.9852 406.887L40.0752 406.63C40.1332 406.494 40.1617 406.347 40.1588 406.199C40.156 406.051 40.1219 405.905 40.0587 405.771C39.9032 405.503 39.6492 405.306 39.3508 405.223C39.1709 405.158 38.9789 405.132 38.7883 405.149C38.6024 405.169 38.4254 405.239 38.276 405.352C38.0967 405.486 37.9471 405.656 37.8363 405.851L36.6522 405.435C36.8641 405.042 37.1587 404.7 37.5159 404.432C37.8213 404.191 38.1846 404.035 38.5695 403.978C38.9744 403.927 39.3856 403.974 39.7683 404.116C40.3881 404.291 40.9136 404.704 41.2307 405.264C41.3576 405.542 41.4259 405.843 41.4311 406.149C41.4363 406.454 41.3784 406.758 41.261 407.04L41.2133 407.176C41.0871 407.566 40.8364 407.904 40.4995 408.138C40.1507 408.375 39.7357 408.495 39.3142 408.481C39.7094 408.707 40.0014 409.077 40.1287 409.514C40.2566 409.995 40.2265 410.504 40.0429 410.966L39.9952 411.103C39.8572 411.537 39.6105 411.928 39.2787 412.24C38.9779 412.515 38.598 412.689 38.1929 412.736C37.7375 412.769 37.2803 412.708 36.8495 412.557C36.4187 412.406 36.0236 412.168 35.6886 411.857L35.6514 411.88Z" stroke="#1D1D1B" stroke-width="0.75" stroke-miterlimit="10"/>
<path d="M49.8813 407.757L50.9711 408.139L48.0664 416.422L46.9138 416.018L49.0891 409.815L49.0181 410.201L45.3376 414.171L44.5308 413.888L44.0967 408.599L44.3215 408.143L42.1462 414.346L41.0094 413.947L43.9141 405.664L45.0038 406.046L45.5166 412.368L49.8813 407.757Z" stroke="#1D1D1B" stroke-width="0.75" stroke-miterlimit="10"/>
<path fill-rule="evenodd" clip-rule="evenodd" d="M18.9375 415.955L23.7686 426.421L19.7136 424.999C19.7136 424.999 17.0591 424.18 17.2729 420.702L18.9375 415.955Z" fill="#777778"/>
<path fill-rule="evenodd" clip-rule="evenodd" d="M18.8877 415.826L23.7114 426.313L19.6302 424.882C19.6302 424.882 17.0054 424.079 17.214 420.599L18.8877 415.826Z" stroke="#1D1D1B" stroke-width="2" stroke-miterlimit="10"/>
</g>
<defs>
<clipPath id="clip0_453_5192">
<rect width="88" height="27" fill="white" transform="translate(0 212.062) rotate(-15.194)"/>
</clipPath>
<clipPath id="clip1_453_5192">
<rect width="62" height="35" fill="white" transform="translate(32.7656) rotate(30.5007)"/>
</clipPath>
<clipPath id="clip2_453_5192">
<rect width="75.7495" height="50" fill="white" transform="translate(28.5469 378) rotate(19.325)"/>
</clipPath>
</defs>
</svg>
