<svg width="117" height="22" viewBox="0 0 117 22" fill="none" xmlns="http://www.w3.org/2000/svg">
<path d="M6.73257 16.627V5.71786H10.7276C11.5017 5.71786 12.1427 5.8457 12.6505 6.10138C13.1584 6.35352 13.5383 6.6962 13.7905 7.12944C14.0426 7.55913 14.1687 8.04386 14.1687 8.58363C14.1687 9.03817 14.0852 9.4217 13.9183 9.7342C13.7514 10.0431 13.5277 10.2917 13.2471 10.4799C12.9701 10.6646 12.6647 10.7995 12.3309 10.8848V10.9913C12.6932 11.0091 13.0465 11.1262 13.391 11.3429C13.739 11.5559 14.0266 11.8596 14.2539 12.2537C14.4811 12.6479 14.5948 13.1273 14.5948 13.6919C14.5948 14.2495 14.4634 14.7502 14.2006 15.1941C13.9414 15.6344 13.5401 15.9842 12.9968 16.2434C12.4535 16.4991 11.7592 16.627 10.914 16.627H6.73257ZM8.37852 15.2154H10.7542C11.5426 15.2154 12.1072 15.0627 12.4481 14.7573C12.789 14.4519 12.9595 14.0701 12.9595 13.612C12.9595 13.2676 12.8725 12.9515 12.6985 12.6639C12.5245 12.3762 12.2759 12.1472 11.9527 11.9767C11.6331 11.8063 11.2532 11.7211 10.8128 11.7211H8.37852V15.2154ZM8.37852 10.4373H10.5838C10.9531 10.4373 11.2851 10.3663 11.5799 10.2243C11.8782 10.0822 12.1143 9.88334 12.2883 9.62766C12.4659 9.36843 12.5547 9.06303 12.5547 8.71147C12.5547 8.26048 12.3966 7.88228 12.0806 7.57688C11.7645 7.27148 11.2798 7.11879 10.6264 7.11879H8.37852V10.4373ZM22.0521 13.2338V8.44513H23.6501V16.627H22.084V15.21H21.9988C21.8106 15.6468 21.5087 16.0108 21.0933 16.302C20.6813 16.5897 20.1682 16.7335 19.5538 16.7335C19.0283 16.7335 18.5631 16.6181 18.1582 16.3873C17.757 16.1529 17.4409 15.8066 17.2101 15.3485C16.9828 14.8904 16.8692 14.324 16.8692 13.6493V8.44513H18.4619V13.4576C18.4619 14.0151 18.6163 14.459 18.9253 14.7892C19.2342 15.1195 19.6355 15.2846 20.1291 15.2846C20.4274 15.2846 20.7239 15.21 21.0187 15.0609C21.317 14.9118 21.5638 14.6863 21.7591 14.3844C21.958 14.0826 22.0556 13.699 22.0521 13.2338ZM27.2468 19.6951C27.0089 19.6951 26.7923 19.6756 26.597 19.6365C26.4017 19.601 26.2561 19.562 26.1602 19.5194L26.5437 18.2143C26.8349 18.2924 27.0941 18.3262 27.3214 18.3155C27.5487 18.3049 27.7493 18.2196 27.9233 18.0598C28.1009 17.9 28.2571 17.639 28.3921 17.2768L28.5892 16.7335L25.5955 8.44513H27.3001L29.3722 14.7946H29.4574L31.5295 8.44513H33.2394L29.8676 17.7189C29.7113 18.1451 29.5125 18.5055 29.271 18.8002C29.0295 19.0985 28.7419 19.3223 28.408 19.4714C28.0742 19.6206 27.6872 19.6951 27.2468 19.6951ZM48.5388 5.71786V16.627H47.026L41.4809 8.62624H41.3797V16.627H39.7337V5.71786H41.2572L46.8076 13.7292H46.9088V5.71786H48.5388ZM54.7083 16.7921C53.9413 16.7921 53.2719 16.6163 52.7002 16.2647C52.1284 15.9132 51.6845 15.4213 51.3685 14.7892C51.0524 14.1571 50.8944 13.4185 50.8944 12.5733C50.8944 11.7246 51.0524 10.9824 51.3685 10.3468C51.6845 9.71111 52.1284 9.21751 52.7002 8.86594C53.2719 8.51438 53.9413 8.3386 54.7083 8.3386C55.4754 8.3386 56.1448 8.51438 56.7165 8.86594C57.2882 9.21751 57.7321 9.71111 58.0482 10.3468C58.3642 10.9824 58.5223 11.7246 58.5223 12.5733C58.5223 13.4185 58.3642 14.1571 58.0482 14.7892C57.7321 15.4213 57.2882 15.9132 56.7165 16.2647C56.1448 16.6163 55.4754 16.7921 54.7083 16.7921ZM54.7137 15.4551C55.2108 15.4551 55.6228 15.3237 55.9495 15.0609C56.2762 14.7981 56.5176 14.4483 56.6739 14.0115C56.8337 13.5748 56.9136 13.0936 56.9136 12.568C56.9136 12.046 56.8337 11.5666 56.6739 11.1298C56.5176 10.6895 56.2762 10.3361 55.9495 10.0698C55.6228 9.80344 55.2108 9.67028 54.7137 9.67028C54.213 9.67028 53.7975 9.80344 53.4672 10.0698C53.1405 10.3361 52.8973 10.6895 52.7375 11.1298C52.5812 11.5666 52.5031 12.046 52.5031 12.568C52.5031 13.0936 52.5812 13.5748 52.7375 14.0115C52.8973 14.4483 53.1405 14.7981 53.4672 15.0609C53.7975 15.3237 54.213 15.4551 54.7137 15.4551ZM62.2748 16.627L59.8671 8.44513H61.5131L63.1164 14.4537H63.1963L64.805 8.44513H66.4509L68.049 14.427H68.1289L69.7215 8.44513H71.3675L68.9652 16.627H67.3405L65.6786 10.7196H65.5561L63.8941 16.627H62.2748Z" fill="white"/>
<path d="M115.855 11.5284C116.148 11.2355 116.148 10.7606 115.855 10.4677L111.082 5.69475C110.789 5.40185 110.314 5.40185 110.021 5.69475C109.728 5.98764 109.728 6.46251 110.021 6.75541L114.264 10.998L110.021 15.2407C109.728 15.5336 109.728 16.0085 110.021 16.3013C110.314 16.5942 110.789 16.5942 111.082 16.3013L115.855 11.5284ZM83.0371 11.748H115.324V10.248H83.0371V11.748Z" fill="white"/>
</svg>
