<svg width="117" height="22" viewBox="0 0 117 22" fill="none" xmlns="http://www.w3.org/2000/svg">
<path d="M6.8771 16.627V5.71786H10.8721C11.6463 5.71786 12.2873 5.8457 12.7951 6.10138C13.3029 6.35352 13.6829 6.6962 13.935 7.12944C14.1871 7.55913 14.3132 8.04386 14.3132 8.58363C14.3132 9.03817 14.2297 9.4217 14.0628 9.7342C13.8959 10.0431 13.6722 10.2917 13.3917 10.4799C13.1147 10.6646 12.8093 10.7995 12.4755 10.8848V10.9913C12.8377 11.0091 13.191 11.1262 13.5355 11.3429C13.8835 11.5559 14.1711 11.8596 14.3984 12.2537C14.6257 12.6479 14.7393 13.1273 14.7393 13.6919C14.7393 14.2495 14.6079 14.7502 14.3451 15.1941C14.0859 15.6344 13.6846 15.9842 13.1413 16.2434C12.598 16.4991 11.9037 16.627 11.0586 16.627H6.8771ZM8.52305 15.2154H10.8988C11.6871 15.2154 12.2517 15.0627 12.5927 14.7573C12.9336 14.4519 13.104 14.0701 13.104 13.612C13.104 13.2676 13.017 12.9515 12.843 12.6639C12.669 12.3762 12.4204 12.1472 12.0973 11.9767C11.7777 11.8063 11.3977 11.7211 10.9574 11.7211H8.52305V15.2154ZM8.52305 10.4373H10.7283C11.0976 10.4373 11.4297 10.3663 11.7244 10.2243C12.0227 10.0822 12.2588 9.88334 12.4329 9.62766C12.6104 9.36843 12.6992 9.06303 12.6992 8.71147C12.6992 8.26048 12.5412 7.88228 12.2251 7.57688C11.9091 7.27148 11.4243 7.11879 10.7709 7.11879H8.52305V10.4373ZM22.1966 13.2338V8.44513H23.7946V16.627H22.2286V15.21H22.1433C21.9551 15.6468 21.6533 16.0108 21.2378 16.302C20.8259 16.5897 20.3127 16.7335 19.6984 16.7335C19.1728 16.7335 18.7076 16.6181 18.3028 16.3873C17.9015 16.1529 17.5854 15.8066 17.3546 15.3485C17.1273 14.8904 17.0137 14.324 17.0137 13.6493V8.44513H18.6064V13.4576C18.6064 14.0151 18.7609 14.459 19.0698 14.7892C19.3788 15.1195 19.78 15.2846 20.2737 15.2846C20.572 15.2846 20.8685 15.21 21.1632 15.0609C21.4615 14.9118 21.7083 14.6863 21.9036 14.3844C22.1025 14.0826 22.2001 13.699 22.1966 13.2338ZM27.3914 19.6951C27.1534 19.6951 26.9368 19.6756 26.7415 19.6365C26.5462 19.601 26.4006 19.562 26.3047 19.5194L26.6882 18.2143C26.9794 18.2924 27.2387 18.3262 27.4659 18.3155C27.6932 18.3049 27.8938 18.2196 28.0679 18.0598C28.2454 17.9 28.4017 17.639 28.5366 17.2768L28.7337 16.7335L25.7401 8.44513H27.4446L29.5167 14.7946H29.6019L31.674 8.44513H33.3839L30.0121 17.7189C29.8558 18.1451 29.657 18.5055 29.4155 18.8002C29.174 19.0985 28.8864 19.3223 28.5526 19.4714C28.2188 19.6206 27.8317 19.6951 27.3914 19.6951ZM48.6833 5.71786V16.627H47.1705L41.6254 8.62624H41.5242V16.627H39.8783V5.71786H41.4017L46.9521 13.7292H47.0533V5.71786H48.6833ZM54.8529 16.7921C54.0858 16.7921 53.4164 16.6163 52.8447 16.2647C52.273 15.9132 51.8291 15.4213 51.513 14.7892C51.197 14.1571 51.0389 13.4185 51.0389 12.5733C51.0389 11.7246 51.197 10.9824 51.513 10.3468C51.8291 9.71111 52.273 9.21751 52.8447 8.86594C53.4164 8.51438 54.0858 8.3386 54.8529 8.3386C55.6199 8.3386 56.2893 8.51438 56.861 8.86594C57.4328 9.21751 57.8767 9.71111 58.1927 10.3468C58.5088 10.9824 58.6668 11.7246 58.6668 12.5733C58.6668 13.4185 58.5088 14.1571 58.1927 14.7892C57.8767 15.4213 57.4328 15.9132 56.861 16.2647C56.2893 16.6163 55.6199 16.7921 54.8529 16.7921ZM54.8582 15.4551C55.3554 15.4551 55.7673 15.3237 56.094 15.0609C56.4207 14.7981 56.6622 14.4483 56.8184 14.0115C56.9782 13.5748 57.0581 13.0936 57.0581 12.568C57.0581 12.046 56.9782 11.5666 56.8184 11.1298C56.6622 10.6895 56.4207 10.3361 56.094 10.0698C55.7673 9.80344 55.3554 9.67028 54.8582 9.67028C54.3575 9.67028 53.942 9.80344 53.6117 10.0698C53.285 10.3361 53.0418 10.6895 52.882 11.1298C52.7257 11.5666 52.6476 12.046 52.6476 12.568C52.6476 13.0936 52.7257 13.5748 52.882 14.0115C53.0418 14.4483 53.285 14.7981 53.6117 15.0609C53.942 15.3237 54.3575 15.4551 54.8582 15.4551ZM62.4193 16.627L60.0117 8.44513H61.6576L63.261 14.4537H63.3409L64.9495 8.44513H66.5955L68.1935 14.427H68.2734L69.8661 8.44513H71.512L69.1097 16.627H67.485L65.8231 10.7196H65.7006L64.0387 16.627H62.4193Z" fill="black"/>
<path d="M115.999 11.5284C116.292 11.2355 116.292 10.7606 115.999 10.4677L111.226 5.69475C110.933 5.40185 110.458 5.40185 110.166 5.69475C109.873 5.98764 109.873 6.46251 110.166 6.75541L114.408 10.998L110.166 15.2407C109.873 15.5336 109.873 16.0085 110.166 16.3013C110.458 16.5942 110.933 16.5942 111.226 16.3013L115.999 11.5284ZM83.1816 11.748H115.469V10.248H83.1816V11.748Z" fill="black"/>
</svg>
