<svg width="90" height="22" viewBox="0 0 90 22" fill="none" xmlns="http://www.w3.org/2000/svg">
<path d="M47.3862 16.627H43.8546V5.71786H47.4981C48.567 5.71786 49.4849 5.93626 50.252 6.37305C51.019 6.80629 51.6067 7.42951 52.0151 8.24272C52.427 9.05238 52.633 10.0236 52.633 11.1564C52.633 12.2928 52.4253 13.2694 52.0098 14.0861C51.5979 14.9029 51.0013 15.5314 50.22 15.9718C49.4388 16.4086 48.4942 16.627 47.3862 16.627ZM45.5006 15.1887H47.2957C48.1266 15.1887 48.8173 15.0325 49.3677 14.72C49.9182 14.4039 50.3301 13.9476 50.6035 13.351C50.877 12.7509 51.0137 12.0194 51.0137 11.1564C51.0137 10.3006 50.877 9.5744 50.6035 8.97781C50.3336 8.38121 49.9306 7.92844 49.3944 7.6195C48.8582 7.31055 48.1923 7.15607 47.3969 7.15607H45.5006V15.1887ZM58.5282 16.7921C57.7221 16.7921 57.0279 16.6199 56.4455 16.2754C55.8667 15.9274 55.4192 15.4391 55.1032 14.8105C54.7907 14.1784 54.6344 13.438 54.6344 12.5893C54.6344 11.7512 54.7907 11.0126 55.1032 10.3734C55.4192 9.7342 55.8596 9.23526 56.4242 8.8766C56.9924 8.51793 57.6564 8.3386 58.4164 8.3386C58.878 8.3386 59.3255 8.41495 59.7587 8.56765C60.1919 8.72035 60.5808 8.96005 60.9253 9.28675C61.2697 9.61346 61.5414 10.0378 61.7402 10.5598C61.9391 11.0783 62.0385 11.7086 62.0385 12.4508V13.0154H55.5346V11.8223H60.4778C60.4778 11.4032 60.3926 11.0321 60.2221 10.709C60.0517 10.3823 59.812 10.1248 59.503 9.93661C59.1976 9.7484 58.839 9.6543 58.427 9.6543C57.9796 9.6543 57.589 9.76438 57.2552 9.98455C56.9249 10.2012 56.6692 10.4853 56.4881 10.8368C56.3105 11.1848 56.2218 11.563 56.2218 11.9714V12.9036C56.2218 13.4505 56.3177 13.9157 56.5094 14.2992C56.7047 14.6827 56.9764 14.9757 57.3244 15.1781C57.6724 15.377 58.079 15.4764 58.5442 15.4764C58.8461 15.4764 59.1213 15.4338 59.3699 15.3485C59.6184 15.2598 59.8333 15.1284 60.0144 14.9544C60.1955 14.7804 60.334 14.5655 60.4299 14.3098L61.9373 14.5815C61.8166 15.0254 61.6 15.4142 61.2875 15.748C60.9785 16.0783 60.5897 16.3358 60.1209 16.5204C59.6557 16.7015 59.1248 16.7921 58.5282 16.7921ZM68.0749 8.44513V9.72354H63.6058V8.44513H68.0749ZM64.8043 6.48491H66.397V14.2246C66.397 14.5336 66.4432 14.7662 66.5355 14.9224C66.6278 15.0751 66.7468 15.1799 66.8924 15.2367C67.0415 15.29 67.2031 15.3166 67.3771 15.3166C67.505 15.3166 67.6168 15.3077 67.7127 15.29C67.8086 15.2722 67.8832 15.258 67.9364 15.2473L68.2241 16.563C68.1317 16.5985 68.0003 16.6341 67.8299 16.6696C67.6594 16.7086 67.4464 16.7299 67.1907 16.7335C66.7716 16.7406 66.381 16.666 66.0188 16.5098C65.6566 16.3535 65.3636 16.112 65.1399 15.7853C64.9162 15.4586 64.8043 15.0485 64.8043 14.5549V6.48491ZM72.6678 16.8081C72.1493 16.8081 71.6805 16.7122 71.2615 16.5204C70.8425 16.3251 70.5104 16.0428 70.2654 15.6735C70.0239 15.3042 69.9032 14.8514 69.9032 14.3152C69.9032 13.8535 69.992 13.4735 70.1695 13.1752C70.3471 12.877 70.5868 12.6408 70.8886 12.4668C71.1905 12.2928 71.5278 12.1614 71.9007 12.0726C72.2736 11.9838 72.6536 11.9164 73.0406 11.8702C73.5307 11.8134 73.9284 11.7672 74.2338 11.7317C74.5392 11.6926 74.7612 11.6305 74.8996 11.5453C75.0381 11.46 75.1074 11.3216 75.1074 11.1298V11.0925C75.1074 10.6273 74.976 10.2669 74.7132 10.0112C74.454 9.7555 74.0669 9.62766 73.552 9.62766C73.0158 9.62766 72.5932 9.74663 72.2842 9.98455C71.9788 10.2189 71.7675 10.4799 71.6504 10.7676L70.1536 10.4267C70.3311 9.92951 70.5903 9.52823 70.9313 9.22283C71.2757 8.91388 71.6717 8.69016 72.1191 8.55167C72.5666 8.40962 73.0371 8.3386 73.5307 8.3386C73.8574 8.3386 74.2036 8.37766 74.5694 8.45579C74.9387 8.53036 75.2832 8.66886 75.6028 8.87127C75.9259 9.07369 76.1905 9.3631 76.3965 9.73952C76.6024 10.1124 76.7054 10.5971 76.7054 11.1937V16.627H75.15V15.5083H75.0861C74.9831 15.7143 74.8286 15.9167 74.6227 16.1156C74.4167 16.3145 74.1521 16.4796 73.829 16.611C73.5058 16.7424 73.1188 16.8081 72.6678 16.8081ZM73.014 15.5297C73.4543 15.5297 73.8308 15.4426 74.1433 15.2686C74.4593 15.0946 74.699 14.8674 74.8624 14.5868C75.0293 14.3027 75.1127 13.9991 75.1127 13.676V12.6213C75.0559 12.6781 74.9458 12.7314 74.7825 12.7811C74.6227 12.8272 74.4398 12.8681 74.2338 12.9036C74.0278 12.9355 73.8272 12.9657 73.6319 12.9941C73.4366 13.019 73.2732 13.0403 73.1418 13.0581C72.8329 13.0971 72.5506 13.1628 72.2949 13.2551C72.0428 13.3475 71.8403 13.4806 71.6876 13.6547C71.5385 13.8251 71.4639 14.0524 71.4639 14.3365C71.4639 14.7306 71.6095 15.0289 71.9007 15.2314C72.1919 15.4302 72.563 15.5297 73.014 15.5297ZM79.2768 16.627V8.44513H80.8694V16.627H79.2768ZM80.0811 7.18271C79.8041 7.18271 79.5662 7.09038 79.3673 6.90572C79.172 6.71751 79.0743 6.49379 79.0743 6.23455C79.0743 5.97177 79.172 5.74805 79.3673 5.56339C79.5662 5.37518 79.8041 5.28107 80.0811 5.28107C80.3581 5.28107 80.5942 5.37518 80.7895 5.56339C80.9884 5.74805 81.0878 5.97177 81.0878 6.23455C81.0878 6.49379 80.9884 6.71751 80.7895 6.90572C80.5942 7.09038 80.3581 7.18271 80.0811 7.18271ZM85.0548 5.71786V16.627H83.4621V5.71786H85.0548Z" fill="white"/>
<path d="M0.459774 11.5284C0.166882 11.2355 0.166882 10.7606 0.459774 10.4677L5.23275 5.69475C5.52564 5.40185 6.00051 5.40185 6.29341 5.69475C6.5863 5.98764 6.5863 6.46251 6.29341 6.75541L2.05076 10.998L6.29341 15.2407C6.5863 15.5336 6.5863 16.0085 6.29341 16.3013C6.00051 16.5942 5.52564 16.5942 5.23275 16.3013L0.459774 11.5284ZM33.2773 11.748H0.990105V10.248H33.2773V11.748Z" fill="white"/>
</svg>
