<svg width="90" height="22" viewBox="0 0 90 22" fill="none" xmlns="http://www.w3.org/2000/svg">
<path d="M47.5288 16.627H43.9972V5.71786H47.6406C48.7095 5.71786 49.6275 5.93626 50.3946 6.37305C51.1616 6.80629 51.7493 7.42951 52.1577 8.24272C52.5696 9.05238 52.7756 10.0236 52.7756 11.1564C52.7756 12.2928 52.5678 13.2694 52.1524 14.0861C51.7404 14.9029 51.1438 15.5314 50.3626 15.9718C49.5813 16.4086 48.6367 16.627 47.5288 16.627ZM45.6431 15.1887H47.4382C48.2692 15.1887 48.9599 15.0325 49.5103 14.72C50.0607 14.4039 50.4727 13.9476 50.7461 13.351C51.0196 12.7509 51.1563 12.0194 51.1563 11.1564C51.1563 10.3006 51.0196 9.5744 50.7461 8.97781C50.4762 8.38121 50.0732 7.92844 49.537 7.6195C49.0007 7.31055 48.3349 7.15607 47.5394 7.15607H45.6431V15.1887ZM58.6708 16.7921C57.8647 16.7921 57.1705 16.6199 56.5881 16.2754C56.0092 15.9274 55.5618 15.4391 55.2457 14.8105C54.9332 14.1784 54.777 13.438 54.777 12.5893C54.777 11.7512 54.9332 11.0126 55.2457 10.3734C55.5618 9.7342 56.0021 9.23526 56.5668 8.8766C57.1349 8.51793 57.799 8.3386 58.559 8.3386C59.0206 8.3386 59.468 8.41495 59.9013 8.56765C60.3345 8.72035 60.7234 8.96005 61.0678 9.28675C61.4123 9.61346 61.684 10.0378 61.8828 10.5598C62.0817 11.0783 62.1811 11.7086 62.1811 12.4508V13.0154H55.6772V11.8223H60.6204C60.6204 11.4032 60.5352 11.0321 60.3647 10.709C60.1942 10.3823 59.9545 10.1248 59.6456 9.93661C59.3402 9.7484 58.9815 9.6543 58.5696 9.6543C58.1222 9.6543 57.7315 9.76438 57.3977 9.98455C57.0675 10.2012 56.8118 10.4853 56.6307 10.8368C56.4531 11.1848 56.3643 11.563 56.3643 11.9714V12.9036C56.3643 13.4505 56.4602 13.9157 56.652 14.2992C56.8473 14.6827 57.119 14.9757 57.467 15.1781C57.815 15.377 58.2216 15.4764 58.6868 15.4764C58.9886 15.4764 59.2639 15.4338 59.5124 15.3485C59.761 15.2598 59.9759 15.1284 60.157 14.9544C60.3381 14.7804 60.4766 14.5655 60.5724 14.3098L62.0799 14.5815C61.9592 15.0254 61.7425 15.4142 61.43 15.748C61.1211 16.0783 60.7322 16.3358 60.2635 16.5204C59.7983 16.7015 59.2674 16.7921 58.6708 16.7921ZM68.2175 8.44513V9.72354H63.7484V8.44513H68.2175ZM64.9469 6.48491H66.5396V14.2246C66.5396 14.5336 66.5857 14.7662 66.6781 14.9224C66.7704 15.0751 66.8894 15.1799 67.035 15.2367C67.1841 15.29 67.3457 15.3166 67.5197 15.3166C67.6475 15.3166 67.7594 15.3077 67.8553 15.29C67.9512 15.2722 68.0257 15.258 68.079 15.2473L68.3666 16.563C68.2743 16.5985 68.1429 16.6341 67.9725 16.6696C67.802 16.7086 67.5889 16.7299 67.3333 16.7335C66.9142 16.7406 66.5236 16.666 66.1614 16.5098C65.7992 16.3535 65.5062 16.112 65.2825 15.7853C65.0588 15.4586 64.9469 15.0485 64.9469 14.5549V6.48491ZM72.8103 16.8081C72.2919 16.8081 71.8231 16.7122 71.4041 16.5204C70.9851 16.3251 70.653 16.0428 70.408 15.6735C70.1665 15.3042 70.0458 14.8514 70.0458 14.3152C70.0458 13.8535 70.1346 13.4735 70.3121 13.1752C70.4897 12.877 70.7294 12.6408 71.0312 12.4668C71.3331 12.2928 71.6704 12.1614 72.0433 12.0726C72.4162 11.9838 72.7961 11.9164 73.1832 11.8702C73.6733 11.8134 74.071 11.7672 74.3764 11.7317C74.6818 11.6926 74.9037 11.6305 75.0422 11.5453C75.1807 11.46 75.25 11.3216 75.25 11.1298V11.0925C75.25 10.6273 75.1186 10.2669 74.8558 10.0112C74.5966 9.7555 74.2095 9.62766 73.6946 9.62766C73.1583 9.62766 72.7358 9.74663 72.4268 9.98455C72.1214 10.2189 71.9101 10.4799 71.7929 10.7676L70.2961 10.4267C70.4737 9.92951 70.7329 9.52823 71.0738 9.22283C71.4183 8.91388 71.8142 8.69016 72.2617 8.55167C72.7091 8.40962 73.1797 8.3386 73.6733 8.3386C74 8.3386 74.3462 8.37766 74.712 8.45579C75.0813 8.53036 75.4257 8.66886 75.7453 8.87127C76.0685 9.07369 76.3331 9.3631 76.539 9.73952C76.745 10.1124 76.848 10.5971 76.848 11.1937V16.627H75.2926V15.5083H75.2287C75.1257 15.7143 74.9712 15.9167 74.7652 16.1156C74.5593 16.3145 74.2947 16.4796 73.9716 16.611C73.6484 16.7424 73.2613 16.8081 72.8103 16.8081ZM73.1566 15.5297C73.5969 15.5297 73.9733 15.4426 74.2858 15.2686C74.6019 15.0946 74.8416 14.8674 75.0049 14.5868C75.1718 14.3027 75.2553 13.9991 75.2553 13.676V12.6213C75.1985 12.6781 75.0884 12.7314 74.925 12.7811C74.7652 12.8272 74.5824 12.8681 74.3764 12.9036C74.1704 12.9355 73.9698 12.9657 73.7745 12.9941C73.5792 13.019 73.4158 13.0403 73.2844 13.0581C72.9755 13.0971 72.6931 13.1628 72.4375 13.2551C72.1853 13.3475 71.9829 13.4806 71.8302 13.6547C71.6811 13.8251 71.6065 14.0524 71.6065 14.3365C71.6065 14.7306 71.7521 15.0289 72.0433 15.2314C72.3345 15.4302 72.7056 15.5297 73.1566 15.5297ZM79.4193 16.627V8.44513H81.012V16.627H79.4193ZM80.2237 7.18271C79.9467 7.18271 79.7088 7.09038 79.5099 6.90572C79.3146 6.71751 79.2169 6.49379 79.2169 6.23455C79.2169 5.97177 79.3146 5.74805 79.5099 5.56339C79.7088 5.37518 79.9467 5.28107 80.2237 5.28107C80.5007 5.28107 80.7368 5.37518 80.9321 5.56339C81.131 5.74805 81.2304 5.97177 81.2304 6.23455C81.2304 6.49379 81.131 6.71751 80.9321 6.90572C80.7368 7.09038 80.5007 7.18271 80.2237 7.18271ZM85.1974 5.71786V16.627H83.6047V5.71786H85.1974Z" fill="black"/>
<path d="M0.602352 11.5284C0.30946 11.2355 0.30946 10.7606 0.602352 10.4677L5.37532 5.69475C5.66822 5.40185 6.14309 5.40185 6.43598 5.69475C6.72888 5.98764 6.72888 6.46251 6.43598 6.75541L2.19334 10.998L6.43598 15.2407C6.72888 15.5336 6.72888 16.0085 6.43598 16.3013C6.14309 16.5942 5.66822 16.5942 5.37532 16.3013L0.602352 11.5284ZM33.4199 11.748H1.13268V10.248H33.4199V11.748Z" fill="black"/>
</svg>
