<svg width="388" height="436" viewBox="0 0 388 436" fill="none" xmlns="http://www.w3.org/2000/svg">
<path d="M339.258 371.063L323.209 357.847L311.88 371.063L326.985 385.224L326.041 393.72L322.265 406.937C322.265 405.426 316.601 406.937 313.769 407.881C306.972 413.923 312.509 419.209 315.656 422.041C324.718 422.797 331.111 420.166 337.368 417.321C347.753 412.601 365.691 392.776 367.579 389C369.089 385.979 368.208 383.336 367.579 382.392C362.544 378.93 352.097 371.818 350.586 371.063C349.076 370.308 342.405 370.749 339.258 371.063Z" fill="white" stroke="black" stroke-width="1.88808" stroke-linejoin="bevel"/>
<path d="M311.879 417.321C325.095 417.951 355.494 407.692 363.801 380.504M326.984 391.832C333.277 392.462 345.109 389.189 342.088 371.063" stroke="black" stroke-width="1.88808" stroke-linejoin="bevel"/>
<path d="M326.984 385.224C329.816 384.594 336.802 384.091 338.313 387.112" stroke="black" stroke-width="1.88808" stroke-linejoin="bevel"/>
<path d="M342.088 382.391C346.493 383.965 356.626 384.846 358.137 375.783" stroke="black" stroke-width="1.88808" stroke-linejoin="bevel"/>
<path d="M351.528 382.392L350.584 391.832" stroke="black" stroke-width="1.88808" stroke-linejoin="bevel"/>
<path d="M323.207 405.992C325.095 407.88 328.494 412.223 326.983 414.489" stroke="black" stroke-width="1.88808" stroke-linejoin="bevel"/>
<path d="M129.002 389.944L143.162 371.063L157.322 382.392L142.218 404.105C146.749 413.168 140.33 424.874 136.553 429.594C135.798 435.636 128.057 434.629 124.281 433.37L100.68 419.209C90.2959 413.231 70.6599 399.007 75.1913 389.944C79.7227 380.881 88.4078 385.539 92.184 389L129.002 389.944Z" fill="white" stroke="black" stroke-width="1.88808" stroke-linejoin="bevel"/>
<path d="M133.998 404.104V420.153" stroke="black" stroke-width="1.88808" stroke-linejoin="bevel"/>
<path d="M127.389 389.944C129.906 392.147 133.431 397.308 127.389 400.329" stroke="black" stroke-width="1.88808" stroke-linejoin="bevel"/>
<path d="M121.725 389.944C123.927 396.553 131.354 408.447 143.438 403.161" stroke="black" stroke-width="1.88808" stroke-linejoin="bevel"/>
<path d="M91.5156 389.944V398.441C93.7184 399.699 94.9142 403.916 93.4037 406.937" stroke="black" stroke-width="1.88808" stroke-linejoin="bevel"/>
<path d="M75.4668 389.944C77.9842 396.238 95.1028 414.678 135.885 430.538" stroke="black" stroke-width="1.88808" stroke-linejoin="bevel"/>
<path d="M116.061 421.097C117.634 420.153 127.955 414.678 133.997 419.209C140.039 423.74 142.808 419.209 143.438 416.377" stroke="black" stroke-width="1.88808" stroke-linejoin="bevel"/>
<path d="M129.277 368.231C140.606 365.965 173.018 283.582 187.808 242.674H271.827L330.358 358.791L312.421 378.107C265.219 343.686 252.632 311.395 243.506 280.871L164.207 390.888L129.277 368.231Z" fill="white" stroke="black" stroke-width="1.88808" stroke-linejoin="bevel"/>
<path d="M258.61 361.623L252.002 273.827L351.126 233.233L387 313.477L275.603 365.399L258.61 361.623Z" fill="white" stroke="black" stroke-width="1.88808" stroke-linejoin="bevel"/>
<path d="M138.901 55.7245C142.677 54.214 154.32 33.6969 159.669 23.6271C195.165 10.7882 222.291 34.0116 231.416 47.2281C227.64 59.3118 219.144 66.7383 215.368 68.941L231.416 90.6539C222.354 108.779 206.871 110.164 200.263 108.591L189.123 87.8218C183.303 91.0205 177.422 92.5719 168.925 90.6539C151.151 86.6415 150.989 75.5792 153.061 63.2768H142.677C134.369 63.2768 136.698 58.2419 138.901 55.7245Z" fill="white"/>
<path d="M189.123 87.8218C183.303 91.0205 177.422 92.5719 168.925 90.6539C151.151 86.6415 150.989 75.5792 153.061 63.2768H142.677C134.369 63.2768 136.698 58.2419 138.901 55.7245C142.677 54.214 154.32 33.6969 159.669 23.6271C195.165 10.7882 222.291 34.0116 231.416 47.2281C227.64 59.3118 219.144 66.7383 215.368 68.941L231.416 90.6539C222.354 108.779 206.871 110.164 200.263 108.591L189.123 87.8218ZM189.123 87.8218C191.957 86.2646 194.306 84.3831 195.543 82.1576C194.725 84.0456 192.032 85.9636 189.123 87.8218Z" stroke="black" stroke-width="1.88808" stroke-linejoin="round"/>
<path d="M198.222 1.29839C232.963 5.07455 234.725 36.2278 231.263 51.3325C228.242 49.0665 216.159 45.3536 210.495 43.7805C212.006 40.7595 209.866 36.2281 208.607 34.3401C203.321 29.0534 196.964 35.2841 194.447 39.0603C187.65 31.5079 167.355 30.5799 155.712 31.2092C133.81 23.6569 124.902 11.9978 125.531 6.96293C132.328 -3.6103 153.538 5.70401 163.293 11.6828C170.845 1.10958 189.726 0.354352 198.222 1.29839Z" fill="black" stroke="black" stroke-width="1.88808" stroke-linejoin="round"/>
<path d="M194.415 43.4792C194.729 36.5563 201.967 28.3774 208.575 34.9854C213.591 40.0008 210.841 53.6852 193.471 53.6852" stroke="black" stroke-width="1.88808" stroke-linejoin="round"/>
<path d="M150.044 40.6494C149.73 43.7962 149.87 49.1458 153.937 49.1458C157.701 49.1458 158.645 43.4815 158.645 40.6494" stroke="black" stroke-width="1.88808" stroke-linejoin="bevel"/>
<path d="M168.09 41.5938C167.775 44.4259 168.844 50.0901 171.865 50.0901C172.809 50.0901 175.643 50.0901 175.643 41.5938" stroke="black" stroke-width="1.88808" stroke-linejoin="bevel"/>
<path d="M159.486 75.5787C167.668 78.4108 183.654 78.4108 182.143 55.7539" stroke="black" stroke-width="1.88808" stroke-linejoin="bevel"/>
<path d="M76.5234 212.071C82.5024 200.743 100.502 180.729 124.669 191.302C130.648 193.505 141.473 203.765 136.942 227.177" stroke="black" stroke-width="1.88808" stroke-linejoin="bevel"/>
<path d="M135.054 252.509L58.5864 212.859L1 303.487H15.1606L16.1046 311.983L96.3479 347.857L135.054 252.509Z" fill="white" stroke="black" stroke-width="1.88808" stroke-linejoin="bevel"/>
<path d="M49.1467 246.845L21.7695 305.375" stroke="black" stroke-width="1.88808" stroke-linejoin="bevel"/>
<path d="M85.9629 211.502C88.795 202.376 99.1794 185.069 118.06 188.845C136.941 192.621 131.591 211.817 126.557 220.943" stroke="black" stroke-width="1.88808" stroke-linejoin="bevel"/>
<path d="M154.879 219.468L65.1956 197.755L34.9863 299.711L43.4827 297.823L50.091 304.431L138.831 322.368L154.879 219.468Z" fill="black" stroke="black" stroke-width="1.88808" stroke-linejoin="bevel"/>
<path d="M70.8586 208.14H68.0265L52.9219 299.711H57.6421L70.8586 208.14Z" fill="white" stroke="black" stroke-width="1.88808" stroke-linejoin="bevel"/>
<path d="M107.34 201.734C99.0327 203.244 100.732 196.07 102.62 192.293C104.823 190.091 109.984 186.44 113.005 189.461C116.026 192.482 110.487 198.902 107.34 201.734Z" fill="white" stroke="black" stroke-width="1.88808" stroke-linejoin="bevel"/>
<path d="M113.004 207.396C107.717 208.151 107.34 204.25 107.34 201.733C107.655 199.844 109.417 195.502 113.948 193.236C118.48 190.971 119.612 192.293 120.556 193.235C120.241 197.641 118.29 206.641 113.004 207.396Z" fill="white" stroke="black" stroke-width="1.88808" stroke-linejoin="bevel"/>
<path d="M123.387 206.454C120.366 210.23 117.722 208.657 116.778 207.398C113.946 207.398 117.722 195.125 122.443 194.181C126.219 193.426 127.163 195.125 127.163 196.069C127.163 197.958 126.407 202.678 123.387 206.454Z" fill="white" stroke="black" stroke-width="1.88808" stroke-linejoin="bevel"/>
<path d="M132.83 203.621C129.054 212.684 124.333 210.544 122.445 208.341C123.956 203.809 126.851 199.53 128.11 197.957C131.256 196.069 136.606 194.558 132.83 203.621Z" fill="white" stroke="black" stroke-width="1.88808" stroke-linejoin="bevel"/>
<path d="M179.462 159.993L151.141 143C147.679 153.384 136.603 173.776 119.988 172.265C113.065 171.636 99.2188 173.587 99.2188 186.426C98.9041 190.202 100.352 196.055 108.659 189.258C110.862 188.629 115.08 188.503 114.325 193.034C116.213 191.461 120.178 189.447 120.933 193.978C121.877 192.09 128.485 193.978 126.597 197.754C128.484 196.81 132.448 195.3 133.204 196.81C154.351 194.545 172.854 171.321 179.462 159.993Z" fill="white"/>
<path d="M108.659 189.258C100.352 196.055 98.9041 190.202 99.2188 186.426C99.2188 173.587 113.065 171.636 119.988 172.265C136.603 173.776 147.679 153.384 151.141 143L179.462 159.993C172.854 171.321 154.351 194.545 133.204 196.81C132.448 195.3 128.484 196.81 126.597 197.754C128.485 193.978 121.877 192.09 120.933 193.978C120.178 189.447 116.213 191.461 114.325 193.034C115.08 188.503 110.862 188.629 108.659 189.258ZM108.659 189.258C109.604 187.055 111.115 182.083 109.605 179.818" stroke="black" stroke-width="1.88808" stroke-linejoin="bevel"/>
<path d="M193.441 99.2016L193.473 99.1796C213.864 108.998 223.367 97.2916 230.29 89.7393C270.317 95.7811 293.855 121.207 298.261 134.109L282.212 148.27V241.73C277.681 243.995 211.095 242.674 178.368 241.73L179.052 162.401C171.418 161.428 156.58 150.726 150.047 145.438C150.047 128.836 180.52 108.025 193.441 99.2016Z" fill="white" stroke="black" stroke-width="1.88808" stroke-linejoin="bevel"/>
<path d="M266.516 233.256H257.666C257.666 232.501 258.295 224.13 258.61 220.039C259.554 214.06 265.407 201.914 281.267 201.159C297.127 200.403 301.092 218.466 301.092 227.592L293.539 228.536V225.704C295.05 211.354 285.987 207.138 281.267 206.823C265.407 207.578 264.825 224.76 266.516 233.256Z" stroke="black" stroke-width="1.88808" stroke-linejoin="bevel"/>
<path d="M346.406 212.464L221.793 239.841L235.954 352.182H259.555L374.727 321.028L346.406 212.464Z" fill="black" stroke="black" stroke-width="1.88808" stroke-linejoin="bevel"/>
<path d="M236.897 244.562H233.121L256.722 344.63L260.498 342.742L236.897 244.562Z" fill="white" stroke="black" stroke-width="1.88808" stroke-linejoin="bevel"/>
<mask id="path-39-outside-1_1014_1989" maskUnits="userSpaceOnUse" x="276.127" y="255.984" width="49.1727" height="52.6867" fill="black">
<rect fill="white" x="276.127" y="255.984" width="49.1727" height="52.6867"/>
<path d="M314.664 272.602L307.128 274.649C306.726 273.711 306.21 272.922 305.58 272.28C304.947 271.627 304.224 271.121 303.412 270.763C302.601 270.405 301.72 270.201 300.771 270.151C299.833 270.098 298.859 270.209 297.85 270.483C296.026 270.978 294.561 271.863 293.454 273.137C292.343 274.399 291.649 275.992 291.371 277.914C291.09 279.826 291.281 282.003 291.945 284.446C292.628 286.958 293.574 288.967 294.784 290.473C296.005 291.976 297.411 292.98 299.001 293.483C300.591 293.987 302.275 293.998 304.052 293.515C305.05 293.244 305.938 292.861 306.715 292.367C307.503 291.869 308.161 291.278 308.69 290.592C309.214 289.895 309.595 289.121 309.832 288.268C310.079 287.413 310.162 286.491 310.078 285.504L317.622 283.491C317.867 285.161 317.803 286.854 317.432 288.568C317.068 290.268 316.393 291.886 315.407 293.422C314.429 294.944 313.133 296.294 311.519 297.471C309.914 298.634 307.982 299.522 305.722 300.136C302.58 300.99 299.577 301.043 296.713 300.294C293.861 299.542 291.352 298.013 289.186 295.707C287.031 293.398 285.434 290.329 284.393 286.498C283.349 282.656 283.183 279.191 283.896 276.103C284.609 273.015 286.012 270.429 288.106 268.346C290.197 266.25 292.791 264.782 295.887 263.941C297.929 263.386 299.899 263.158 301.798 263.258C303.709 263.355 305.49 263.77 307.143 264.503C308.792 265.225 310.256 266.262 311.535 267.614C312.825 268.963 313.868 270.626 314.664 272.602Z"/>
</mask>
<path d="M314.664 272.602L307.128 274.649C306.726 273.711 306.21 272.922 305.58 272.28C304.947 271.627 304.224 271.121 303.412 270.763C302.601 270.405 301.72 270.201 300.771 270.151C299.833 270.098 298.859 270.209 297.85 270.483C296.026 270.978 294.561 271.863 293.454 273.137C292.343 274.399 291.649 275.992 291.371 277.914C291.09 279.826 291.281 282.003 291.945 284.446C292.628 286.958 293.574 288.967 294.784 290.473C296.005 291.976 297.411 292.98 299.001 293.483C300.591 293.987 302.275 293.998 304.052 293.515C305.05 293.244 305.938 292.861 306.715 292.367C307.503 291.869 308.161 291.278 308.69 290.592C309.214 289.895 309.595 289.121 309.832 288.268C310.079 287.413 310.162 286.491 310.078 285.504L317.622 283.491C317.867 285.161 317.803 286.854 317.432 288.568C317.068 290.268 316.393 291.886 315.407 293.422C314.429 294.944 313.133 296.294 311.519 297.471C309.914 298.634 307.982 299.522 305.722 300.136C302.58 300.99 299.577 301.043 296.713 300.294C293.861 299.542 291.352 298.013 289.186 295.707C287.031 293.398 285.434 290.329 284.393 286.498C283.349 282.656 283.183 279.191 283.896 276.103C284.609 273.015 286.012 270.429 288.106 268.346C290.197 266.25 292.791 264.782 295.887 263.941C297.929 263.386 299.899 263.158 301.798 263.258C303.709 263.355 305.49 263.77 307.143 264.503C308.792 265.225 310.256 266.262 311.535 267.614C312.825 268.963 313.868 270.626 314.664 272.602Z" fill="white"/>
<path d="M314.664 272.602L315.322 275.024L318.046 274.283L316.992 271.664L314.664 272.602ZM307.128 274.649L304.822 275.639L305.682 277.643L307.787 277.071L307.128 274.649ZM305.58 272.28L303.777 274.027L303.783 274.033L303.789 274.039L305.58 272.28ZM303.412 270.763L302.399 273.059L302.399 273.059L303.412 270.763ZM300.771 270.151L300.629 272.657L300.639 272.658L300.771 270.151ZM293.454 273.137L295.338 274.794L295.343 274.789L295.348 274.783L293.454 273.137ZM291.371 277.914L293.855 278.28L293.855 278.274L291.371 277.914ZM294.784 290.473L292.826 292.045L292.835 292.056L294.784 290.473ZM299.001 293.483L298.242 295.876L299.001 293.483ZM306.715 292.367L305.375 290.244L305.367 290.249L306.715 292.367ZM308.69 290.592L310.678 292.124L310.686 292.113L310.694 292.103L308.69 290.592ZM309.832 288.268L307.421 287.57L307.417 287.584L307.413 287.598L309.832 288.268ZM310.078 285.504L309.431 283.079L307.4 283.621L307.577 285.716L310.078 285.504ZM317.622 283.491L320.106 283.128L319.698 280.34L316.975 281.066L317.622 283.491ZM317.432 288.568L314.979 288.036L314.977 288.043L317.432 288.568ZM315.407 293.422L317.519 294.779L317.519 294.778L315.407 293.422ZM311.519 297.471L312.992 299.504L312.999 299.499L311.519 297.471ZM296.713 300.294L296.073 302.721L296.078 302.722L296.713 300.294ZM289.186 295.707L287.351 297.419L287.356 297.426L289.186 295.707ZM283.896 276.103L286.342 276.668L283.896 276.103ZM288.106 268.346L289.877 270.125L289.883 270.119L288.106 268.346ZM301.798 263.258L301.666 265.765L301.671 265.765L301.798 263.258ZM307.143 264.503L306.125 266.797L306.136 266.803L307.143 264.503ZM311.535 267.614L309.711 269.339L309.721 269.349L311.535 267.614ZM314.005 270.179L306.47 272.227L307.787 277.071L315.322 275.024L314.005 270.179ZM309.435 273.659C308.926 272.473 308.246 271.413 307.371 270.522L303.789 274.039C304.173 274.431 304.526 274.949 304.822 275.639L309.435 273.659ZM307.382 270.533C306.53 269.654 305.541 268.959 304.426 268.467L302.399 273.059C302.907 273.284 303.364 273.6 303.777 274.027L307.382 270.533ZM304.426 268.467C303.316 267.977 302.134 267.709 300.902 267.644L300.639 272.658C301.306 272.693 301.885 272.833 302.399 273.059L304.426 268.467ZM300.912 267.645C299.676 267.575 298.432 267.723 297.191 268.061L298.508 272.905C299.286 272.694 299.989 272.621 300.629 272.657L300.912 267.645ZM297.191 268.061C294.948 268.67 293.031 269.797 291.559 271.49L295.348 274.783C296.091 273.929 297.105 273.286 298.508 272.905L297.191 268.061ZM291.569 271.479C290.089 273.161 289.224 275.227 288.887 277.555L293.855 278.274C294.075 276.756 294.597 275.637 295.338 274.794L291.569 271.479ZM288.888 277.549C288.543 279.891 288.795 282.426 289.523 285.104L294.367 283.788C293.767 281.58 293.637 279.761 293.855 278.28L288.888 277.549ZM289.523 285.104C290.266 287.84 291.339 290.193 292.827 292.045L296.741 288.901C295.808 287.74 294.989 286.075 294.367 283.788L289.523 285.104ZM292.835 292.056C294.315 293.876 296.114 295.202 298.242 295.876L299.759 291.091C298.707 290.757 297.695 290.076 296.732 288.89L292.835 292.056ZM298.242 295.876C300.339 296.541 302.518 296.533 304.711 295.937L303.394 291.093C302.031 291.463 300.842 291.434 299.759 291.091L298.242 295.876ZM304.711 295.937C305.923 295.608 307.048 295.13 308.062 294.484L305.367 290.249C304.828 290.592 304.178 290.88 303.394 291.093L304.711 295.937ZM308.054 294.489C309.072 293.847 309.956 293.061 310.678 292.124L306.701 289.06C306.367 289.495 305.934 289.891 305.375 290.244L308.054 294.489ZM310.694 292.103C311.411 291.151 311.931 290.09 312.25 288.939L307.413 287.598C307.259 288.151 307.018 288.64 306.685 289.082L310.694 292.103ZM312.242 288.967C312.585 287.785 312.686 286.552 312.579 285.293L307.577 285.716C307.637 286.431 307.574 287.041 307.421 287.57L312.242 288.967ZM310.725 287.929L318.27 285.916L316.975 281.066L309.431 283.079L310.725 287.929ZM315.139 283.855C315.338 285.215 315.289 286.604 314.979 288.036L319.885 289.1C320.318 287.103 320.396 285.107 320.106 283.128L315.139 283.855ZM314.977 288.043C314.68 289.433 314.126 290.771 313.295 292.066L317.519 294.778C318.661 293.001 319.457 291.102 319.886 289.092L314.977 288.043ZM313.295 292.065C312.501 293.301 311.429 294.43 310.04 295.444L312.999 299.499C314.837 298.158 316.356 296.588 317.519 294.779L313.295 292.065ZM310.047 295.439C308.727 296.394 307.083 297.166 305.064 297.714L306.38 302.559C308.881 301.879 311.101 300.874 312.992 299.504L310.047 295.439ZM305.064 297.714C302.301 298.465 299.746 298.492 297.348 297.865L296.078 302.722C299.407 303.593 302.858 303.516 306.38 302.559L305.064 297.714ZM297.353 297.867C294.989 297.243 292.883 295.977 291.015 293.988L287.356 297.426C289.82 300.048 292.733 301.84 296.073 302.721L297.353 297.867ZM291.021 293.994C289.208 292.051 287.776 289.376 286.815 285.84L281.971 287.156C283.092 291.282 284.855 294.745 287.351 297.419L291.021 293.994ZM286.815 285.84C285.852 282.297 285.743 279.262 286.342 276.668L281.45 275.539C280.624 279.12 280.845 283.015 281.971 287.156L286.815 285.84ZM286.342 276.668C286.956 274.005 288.142 271.851 289.877 270.125L286.336 266.566C283.882 269.008 282.261 272.025 281.45 275.539L286.342 276.668ZM289.883 270.119C291.638 268.36 293.835 267.099 296.545 266.363L295.229 261.518C291.746 262.465 288.756 264.141 286.329 266.573L289.883 270.119ZM296.545 266.363C298.358 265.87 300.062 265.681 301.666 265.765L301.93 260.752C299.737 260.636 297.499 260.902 295.229 261.518L296.545 266.363ZM301.671 265.765C303.292 265.847 304.77 266.196 306.125 266.797L308.161 262.209C306.211 261.343 304.125 260.863 301.925 260.751L301.671 265.765ZM306.136 266.803C307.467 267.385 308.656 268.223 309.711 269.339L313.359 265.889C311.857 264.301 310.117 263.065 308.149 262.204L306.136 266.803ZM309.721 269.349C310.762 270.437 311.642 271.818 312.335 273.539L316.992 271.664C316.094 269.433 314.889 267.489 313.349 265.879L309.721 269.349Z" fill="black" mask="url(#path-39-outside-1_1014_1989)"/>
<path d="M250.115 139.773L273.716 155.822L291.653 139.773" stroke="black" stroke-width="1.88808" stroke-linejoin="bevel"/>
<path d="M276.786 152.99L297.318 135.054C300.387 140.718 308.647 159.599 300.387 183.2L295.43 192.64L291.89 199.248C291.89 203.025 290.758 216.807 286.226 219.073C281.695 221.339 280.562 219.388 280.562 218.129C281.821 216.241 284.338 212.087 284.338 210.577C284.338 208.689 281.506 221.905 275.842 219.073C274.886 217.545 273.127 216.759 274.894 210.908C272.539 216.29 269.221 220.598 266.165 213.409C266.282 212.331 266.781 210.788 267.397 209.208C264.652 213.596 260.79 216.697 258.849 211.521C258.722 209.502 258.677 207.861 259.124 205.847C259.026 206.171 258.935 206.486 258.849 206.801C251.296 206.801 254.835 199.248 256.723 197.36C257.982 196.731 263.495 193.247 269.233 186.032C277.492 175.647 282.214 165.263 276.786 152.99Z" fill="white" stroke="black" stroke-width="1.88808" stroke-linejoin="bevel"/>
<path d="M242.563 143.078C239.572 142.704 239.36 143.152 237.738 145.91C236.553 147.924 236.275 149.476 236.426 152.046C236.62 155.33 244.653 155.889 245.867 153.462" stroke="black" stroke-width="1.88808" stroke-linecap="round"/>
</svg>
