<svg width="160" height="167" viewBox="0 0 160 167" fill="none" xmlns="http://www.w3.org/2000/svg">
<path d="M38.2604 157.103C46.8527 152.668 43.5266 124.304 41.5864 110.26C44.0256 88.0865 38.9071 78.1082 36.043 75.8908C40.4777 69.9778 49.3473 62.8632 57.1081 82.2658C58.7712 92.7979 53.5603 103.054 43.8038 118.576C49.3473 127.63 59.769 148.677 57.1081 160.429" stroke="black" stroke-width="8.3152" stroke-linecap="round" stroke-linejoin="round"/>
<path d="M9.43477 99.8847C9.43477 92.4007 5 92.4007 5 86.8575C6.99565 78.4314 15.0706 79.651 18.8587 81.314C22 84.6401 24.9565 92.1236 22.7391 99.8847C20.3707 108.174 24.125 123.721 24.125 130.651C24.3467 151.494 15.7174 148.944 11.375 145.064C8.273 142.292 6.94021 134.808 6.94021 127.602C6.94021 122.207 10.2663 109.863 9.43477 99.8847Z" stroke="black" stroke-width="8.3152" stroke-linecap="round" stroke-linejoin="round"/>
<path d="M70.0715 107.169C73.9519 90.6482 74.7834 72.2454 72.2889 63.3758C76.2806 54.5063 82.0821 56.5389 84.484 58.6639C96.0139 67.3117 87.073 98.1318 84.484 116.316C84.484 125.018 88.9187 121.25 88.9187 143.202C88.9187 165.154 78.9408 163.435 73.9519 159.832C75.7073 154.566 75.7732 143.464 73.9519 135.995C72.2888 129.175 67.441 118.365 70.0715 107.169Z" stroke="black" stroke-width="8.3152" stroke-linecap="round" stroke-linejoin="round"/>
<path d="M116.423 76.7895L102.01 69.583C104.412 81.7786 107.775 108.276 102.01 116.702M102.01 116.702C103.673 129.822 104.504 155.608 104.504 158.278C104.504 161.05 115.591 155.23 118.363 152.181M102.01 116.702H114.205" stroke="black" stroke-width="8.3152" stroke-linecap="round" stroke-linejoin="round"/>
<path d="M130.285 152.872C131.671 152.872 136.434 135.593 132.554 127C129.449 120.126 131.26 100.854 132.554 92.0765C138.744 90.6907 150.297 93.3906 144.975 108.247C143.22 112.59 136.6 122.439 133.939 122.66C134.216 129.59 146.084 142.229 154.954 145.111" stroke="black" stroke-width="8.3152" stroke-linecap="round" stroke-linejoin="round"/>
<path d="M33.7969 50.799C36.6034 47.4887 41.1814 40.0116 41.8645 31.8348M41.8645 31.8348C42.0638 29.4487 41.9315 27.003 41.3267 24.5839C38.6494 13.8748 40.3876 9.65604 43.2789 7.29317C48.5777 2.96285 66.4262 3.24248 60.0119 21.7951C58.3253 25.2346 52.3345 32.0579 41.8645 31.8348Z" stroke="black" stroke-width="8.3665" stroke-linecap="round" stroke-linejoin="round"/>
<path d="M65.0312 51.9547C70.7019 46.6559 80.5372 31.8193 74.5133 14.8632C78.8825 12.5392 89.8519 11.6077 90.9674 23.5086C89.2941 31.9659 85.1666 34.4406 78.6965 35.7793C81.9502 41.171 87.8997 47.8625 94.0351 48.8868" stroke="black" stroke-width="8.3665" stroke-linecap="round" stroke-linejoin="round"/>
<path d="M123.141 15.2808C122.583 15.2808 103.061 6.63541 104.735 21.1373C106.408 35.6393 107.244 40.3805 109.754 42.0538C112.264 43.7271 126.766 50.978 126.766 51.5358" stroke="black" stroke-width="8.3665" stroke-linecap="round" stroke-linejoin="round"/>
<path d="M106.305 26.668C109.744 29.2709 116.066 31.6879 120.528 31.6879" stroke="black" stroke-width="8.3665" stroke-linecap="round" stroke-linejoin="round"/>
</svg>
