<svg width="293" height="472" viewBox="0 0 293 472" fill="none" xmlns="http://www.w3.org/2000/svg">
<path d="M240.283 469.942C191.026 469.828 92.1011 469.668 90.4554 469.942L80.8555 385.6H253.655L240.283 469.942Z" fill="black" stroke="black" stroke-width="3.42855" stroke-linejoin="round"/>
<path d="M201 102.053C212.657 99.6529 218.586 60.5285 219.5 47.5C221.886 28.5 211.5 14.5001 194.5 11.0019C169.993 5.95909 127.488 -2.36034 127.488 64.0029V102.053C127.488 106.51 123.831 120.91 121.316 127.767C127.351 133.801 162.459 131.653 179.259 129.824C179.488 126.967 180.15 119.881 180.973 114.396C181.796 108.91 186.345 105.939 188.516 105.139L201 102.053Z" fill="white" stroke="black" stroke-width="3.42855"/>
<path d="M181.025 130.514C167.585 133.805 136.111 131.885 122.054 130.514C110.282 135.542 83.1052 150.811 68.5681 171.656C54.0311 192.502 39.1969 218.513 33.5969 228.913C32.5684 231.085 31.8141 236.113 37.0255 238.856C42.2369 241.599 54.0543 246.399 59.3116 248.456L72.6829 252.913V406.169C112.34 413.255 219.026 418.923 260.168 395.884L262.568 257.713L263.597 251.542L262.568 243.999L260.168 229.256L252.969 204.228C244.054 180.228 223.264 144.776 181.025 130.514Z" fill="white" stroke="black" stroke-width="3.42855" stroke-linejoin="round"/>
<path d="M84.2853 254.955C82.091 184.738 107.303 141.83 119.646 130.516C102.046 132.344 66.024 156.573 62.7326 238.858C56.5612 250.858 45.5426 274.858 36.6756 284.8C22.6138 300.568 12.2186 333.6 3.76146 353.029C0.790043 360.914 -0.558521 379.566 17.8185 391.086C36.1956 402.606 103.646 432.685 135.075 446.285C151.189 453.257 186.64 461.782 199.531 440.114C212.423 418.445 240.56 348.343 253.017 316L193.703 297.486C191.256 296.115 188.903 295.086 188.903 287.2C188.903 279.315 186.799 271.524 183.074 269.029C171.303 261.143 144.628 249.144 133.703 246.401C130.389 245.486 121.772 245.029 113.818 250.515C105.863 256.001 101.361 258.515 100.103 259.086C99.1892 259.772 96.3321 260.732 92.2178 259.086C88.1035 257.441 75.6465 249.944 69.9322 246.401L84.2853 254.955Z" fill="white" stroke="black" stroke-width="3.42855" stroke-linejoin="round"/>
<path d="M173.058 281.475C164.281 273.521 139.458 264.218 128.144 260.561C124.373 259.301 123.687 260.561 116.487 266.389C110.727 271.052 115.144 272.982 118.544 274.618C124.744 277.602 150.887 289.132 163.801 293.818C174.498 298.48 174.43 287.532 173.058 281.475Z" fill="white" stroke="black" stroke-width="3.42855" stroke-linejoin="round"/>
<path d="M142.228 300.914C142.228 303.012 140.264 305.029 137.428 305.029C134.593 305.029 132.628 303.012 132.628 300.914C132.628 298.817 134.593 296.8 137.428 296.8C140.264 296.8 142.228 298.817 142.228 300.914Z" fill="white" stroke="black" stroke-width="3.42855"/>
<path d="M167.256 446.285C169.575 446.285 171.662 445.493 173.942 445.428C175.296 445.389 176.49 444.571 177.808 444.571C178.495 444.571 180.227 443.985 180.761 443.504C181.356 442.968 182.412 442.925 182.932 442.257C183.482 441.549 184.477 441.033 185.122 440.323C185.831 439.544 186.865 438.639 187.151 437.638C187.505 436.398 188.958 435.52 189.37 434.285" stroke="black" stroke-width="3.42855" stroke-linecap="round"/>
<path d="M208.228 400C203.543 409.029 193.828 427.223 192.457 427.771M225.714 358.172C220.457 369.029 210.08 390.949 210.628 391.772M229.485 348.572L239.771 325.943" stroke="black" stroke-width="3.42855" stroke-linejoin="round"/>
<path d="M61.6562 281.372C104.17 301.943 193.93 343.086 212.855 343.086" stroke="black" stroke-width="3.42855" stroke-linejoin="round"/>
<path d="M252.284 260.457L215.414 264.914C214.043 277.257 221.928 302.514 226.043 313.6C234.957 336.114 253.402 382.171 255.871 386.285C258.339 390.399 261.884 394.513 258.957 402.742C258.957 408.913 264.785 413.576 270.271 421.256C275.757 428.936 277.397 432.952 276.442 435.656C270.271 453.142 273.471 455.656 275.071 455.542C288.099 457.942 289.128 433.599 290.842 423.999C292.214 416.319 284.328 394.056 280.214 383.885C274.271 359.542 261.974 309.554 260.328 304.342C258.682 299.131 256.442 289.828 255.528 285.828L252.284 260.457Z" fill="white" stroke="black" stroke-width="3.42855" stroke-linejoin="round"/>
<path d="M180.283 130.857C204.854 135.657 256.397 167.817 263.254 253.942C262.911 255.885 261.128 259.84 256.74 260.114C252.351 260.388 224.969 263.885 211.826 265.6C208.969 265.828 203.117 265.051 202.569 260.114C201.883 253.942 199.14 218.286 200.855 213.143" stroke="black" stroke-width="3.42855" stroke-linejoin="round"/>
<path d="M183.221 105C158.821 110.6 134.517 110 123.747 99.4997C103.747 79.9997 107.945 15.1388 146.745 5.13884C195.245 -7.36116 212.744 11.6387 218.244 20.1387C223.744 28.6387 213.721 98 183.221 105Z" fill="black" stroke="black"/>
<path d="M61.7848 331.387C61.5033 330.029 58.6405 329.898 57.6083 329.98C56.7338 330.05 55.788 330.319 55.2114 331.059C54.602 331.841 52.7806 332.836 52.6173 333.702C52.2809 335.487 52.4259 338.246 53.3807 339.608C53.7583 340.146 54.7541 341.066 55.3415 341.337C56.0001 341.641 57.7116 342.138 57.7599 342.74" stroke="black" stroke-width="2.41721" stroke-linecap="round"/>
<path d="M66.584 333.323C66.6786 334.504 66.0319 334.847 65.6454 335.898C65.2511 336.97 65.1691 338.44 64.321 339.294C63.882 339.736 63.8868 340.844 63.4586 341.411C63.1677 341.796 63.006 343.007 63.0435 343.476" stroke="black" stroke-width="2.41721" stroke-linecap="round"/>
<path d="M68.5684 336.36C68.7425 338.533 69.9541 340.458 70.2304 342.613C70.3133 343.259 70.2015 346.521 71.4973 345.543C74.4609 343.306 76.2703 340.021 79.4476 338.101" stroke="black" stroke-width="2.41721" stroke-linecap="round"/>
<path d="M82.8041 340.154C81.809 341.455 80.683 343.873 80.6192 345.489C80.6151 345.593 79.8238 347.262 79.7362 347.35C79.3368 347.752 78.9954 348.337 78.8596 348.887" stroke="black" stroke-width="2.41721" stroke-linecap="round"/>
<path d="M86.6695 341.294C86.7915 342.817 84.9996 344.464 84.3563 345.833C83.6592 347.317 82.5774 348.351 82.1379 349.946C81.819 351.104 80.7249 351.697 82.4542 352.081C83.5014 352.314 84.9671 352.746 85.8865 353.258" stroke="black" stroke-width="2.41721" stroke-linecap="round"/>
<path d="M103.177 349.119C102.869 347.52 99.7941 348.089 98.8369 347.274C98.1728 346.709 97.5391 351.27 97.189 352.066C96.8742 352.783 96.0371 354.192 96.0947 354.912C96.1562 355.679 95.6283 356.804 95.1951 357.37C93.637 359.408 97.8722 360.104 98.6451 361.383" stroke="black" stroke-width="2.41721" stroke-linecap="round"/>
<path d="M97.1543 353.668C98.2168 353.583 101.615 354.997 101.688 355.917" stroke="black" stroke-width="2.41721" stroke-linecap="round"/>
<path d="M105.983 351.508C106.025 350.571 106.685 353.019 106.712 353.352C106.792 354.356 106.873 355.361 106.953 356.365C107.02 357.207 108.42 362.282 107.75 362.687" stroke="black" stroke-width="2.41721" stroke-linecap="round"/>
<path d="M101.968 359.377C103.139 359.134 104.395 358.224 105.457 357.646C106.753 356.941 107.925 355.928 109.389 355.589C110.487 355.336 111.012 354.298 112.004 354.219" stroke="black" stroke-width="2.41721" stroke-linecap="round"/>
<path d="M117.863 354.91C117.739 354.36 116.952 356.103 116.876 356.279C116.508 357.139 116.132 358.008 115.792 358.849C115.081 360.611 114.285 362.394 113.538 364.126C113.457 364.314 112.685 365.01 113.187 364.573C113.576 364.234 113.673 363.832 113.832 363.36C114.071 362.649 114.861 361.387 114.841 360.667C114.804 359.317 115.74 358.098 116.284 356.939C116.675 356.107 118.208 354.882 119.161 354.806C120.72 354.681 120.963 355.764 121.642 356.784C122.136 357.527 122.14 359.319 121.575 359.982C120.216 361.579 117.487 359.894 115.926 359.71" stroke="black" stroke-width="2.41721" stroke-linecap="round"/>
<path d="M128.71 359.845C127.911 359.909 126.537 359.756 125.831 360.14C125.131 360.521 123.174 362.111 123.15 362.902C123.083 365.08 123.273 367.277 124.937 368.694C126.783 370.266 130.387 369.002 131.317 367.021C131.846 365.896 130.608 360.563 129.357 360.664" stroke="black" stroke-width="2.41721" stroke-linecap="round"/>
<path d="M144.48 366.034C144.465 366.784 143.844 368.133 143.284 368.613C142.486 369.296 142.171 370.524 141.787 371.474C141.214 372.894 140.48 374.206 139.728 375.558" stroke="black" stroke-width="2.41721" stroke-linecap="round"/>
<path d="M150.922 368.566C151.671 368.6 150.618 370.142 150.551 370.273C150.049 371.251 149.445 372.093 149.039 373.144C148.703 374.015 148.07 375.024 147.915 375.919C147.845 376.324 147.536 377.117 147.277 377.421" stroke="black" stroke-width="2.41721" stroke-linecap="round"/>
<path d="M146.746 367.158C147.352 367.11 148.697 367.497 149.129 367.911C149.399 368.17 149.791 368.102 150.106 368.34C150.491 368.631 150.975 368.901 151.447 368.967C152.013 369.046 152.399 369.717 153.045 369.701C153.349 369.694 154.535 370.04 154.689 370.295" stroke="black" stroke-width="2.41721" stroke-linecap="round"/>
<path d="M161.289 372.959C161.237 372.304 159.627 372.296 159.107 372.086C158.41 371.805 157.944 372.138 157.603 372.642C157.184 373.261 157.131 374.141 157.234 374.881C157.338 375.622 158.643 375.837 158.942 376.276C159.178 376.622 159.563 376.707 159.804 377.07C160.074 377.475 160.137 377.937 160.122 378.423C160.091 379.446 159.423 380.075 158.455 380.153C157.658 380.217 156.436 380.34 155.873 379.626C155.493 379.144 154.752 379.074 154.336 378.661C153.976 378.303 153.587 378.05 153.249 377.667" stroke="black" stroke-width="2.41721" stroke-linecap="round"/>
<path d="M87.396 369.294C87.9438 369.25 88.6379 369.082 89.1832 369.159C89.2617 369.17 89.5829 369.795 89.6867 369.908C89.8869 370.127 89.8335 370.653 89.8497 370.936C89.9036 371.878 89.497 373.006 88.9056 373.744C88.323 374.472 87.3453 375.808 86.406 376.057C85.7267 376.238 85.2097 376.435 84.4897 376.493C84.1415 376.521 82.9625 376.47 83.9093 376.394C85.3284 376.281 86.9575 377.405 88.1611 378.037C88.8167 378.382 89.5291 378.748 90.1452 379.152C90.4952 379.382 90.5158 379.249 90.489 378.915" stroke="black" stroke-width="2.41721" stroke-linecap="round"/>
<path d="M101.113 373.856C100.702 373.545 99.249 373.767 98.8003 373.969C97.9069 374.371 97.2263 375.437 96.6247 376.199C95.9278 377.082 95.2232 379.008 95.6849 380.169C96.0241 381.022 97.0544 381.593 97.8963 381.806C98.4642 381.949 99.0275 382.133 99.6064 382.217C100.353 382.326 100.489 381.964 101.01 381.621C101.896 381.037 102.804 379.639 102.91 378.566C103.006 377.589 102.921 376.495 102.843 375.515C102.796 374.932 102.698 374.678 102.438 374.185C102.209 373.751 101.616 373.005 101.546 373.821" stroke="black" stroke-width="2.41721" stroke-linecap="round"/>
<path d="M106.781 375.722C107.085 375.659 107.356 375.531 107.707 375.502C108.182 375.464 108.262 375.621 108.619 375.72C109.333 375.916 109.954 376.585 110.211 377.269C110.578 378.25 110.805 379.023 110.386 380.061C110.205 380.51 109.504 381.129 109.161 381.481C108.663 381.995 108.317 382.679 107.748 383.159C107.167 383.648 106.171 384.043 105.412 384.104C105 384.137 104.325 384.33 103.967 384.075C103.823 383.972 103.112 383.555 103.678 383.695C105.83 384.225 107.156 386.618 109.17 387.431" stroke="black" stroke-width="2.41721" stroke-linecap="round"/>
<path d="M116.52 379.587C116.566 379.314 117.544 379.319 117.777 379.373C118.284 379.493 118.367 379.838 118.677 380.14C119.337 380.783 119.547 381.785 118.994 382.59C118.637 383.109 118.038 383.539 117.599 383.999C117.416 384.192 116.932 384.241 117.014 383.837C117.048 383.664 117.817 383.692 117.977 383.679C118.465 383.64 118.732 383.561 119.062 383.947C119.656 384.639 120.134 384.847 120.215 385.854C120.318 387.142 119.386 387.733 118.763 388.663C118.53 389.011 117.816 388.917 117.423 388.948C116.697 389.006 116.452 388.661 115.774 388.387C114.639 387.929 113.44 387.748 112.407 387.028C112.128 386.833 111.924 386.486 111.56 386.515" stroke="black" stroke-width="2.41721" stroke-linecap="round"/>
<path d="M86.4879 410.119C86.5478 409.884 85.8243 409.428 85.5835 409.366C85.3627 409.31 84.7243 409.147 84.7243 409.147C84.2519 409.027 83.6545 409.396 83.6545 409.396C83.6545 409.396 83.1252 409.499 83.0319 409.557C82.8595 409.663 82.4767 410.515 82.3346 410.626C82.1495 410.771 82.0608 411.456 82.0844 411.607C82.108 411.758 82.3053 412.707 82.3053 412.707C82.3053 412.707 82.6497 413.162 82.6527 413.318C83 413.929 84.1956 414.234 84.8894 414.411" stroke="black" stroke-linecap="round"/>
<path d="M89.2836 412.92C88.5877 415.648 85.9053 417.286 83.3201 416.627C80.7348 415.967 79.1648 413.244 79.8607 410.516C80.5566 407.788 83.2391 406.15 85.8243 406.81C88.4095 407.469 89.9795 410.192 89.2836 412.92Z" stroke="black"/>
</svg>
