<svg width="293" height="410" viewBox="0 0 293 410" fill="none" xmlns="http://www.w3.org/2000/svg">
<path d="M240.283 408.067C191.026 407.953 92.1011 407.793 90.4554 408.067L80.8555 323.725H253.655L240.283 408.067Z" fill="black" stroke="black" stroke-width="3.42855" stroke-linejoin="round"/>
<path d="M199.487 40.1819C211.144 37.7819 216.402 15.1535 217.316 2.125H127.488V40.1819C127.488 44.639 123.831 59.039 121.316 65.8961C127.351 71.9303 162.459 69.7818 179.259 67.9532C179.488 65.0961 180.15 58.0104 180.973 52.5247C181.796 47.039 186.345 44.0676 188.516 43.2676L199.487 40.1819Z" fill="white" stroke="black" stroke-width="3.42855"/>
<path d="M198.355 2.12508H103.384C99.5438 2.12508 102.374 6.81669 103.384 9.66801C107.269 20.6394 122.309 42.3764 151.383 41.5535C187.726 40.525 200.069 10.6965 201.783 5.89649C203.155 2.05651 200.006 2.12489 198.355 2.12508Z" fill="black" stroke="black" stroke-width="3.42855"/>
<path d="M263.406 368.294C264.503 366.1 264.549 355.494 264.435 350.466L276.777 365.209C275.977 370.009 273.143 379.883 268.206 380.98C263.269 382.077 262.949 372.98 263.406 368.294Z" fill="white" stroke="black" stroke-width="3.42855" stroke-linejoin="round"/>
<path d="M181.025 68.6387C167.585 71.9301 136.111 70.0101 122.054 68.6387C110.282 73.6672 83.1052 88.9357 68.5681 109.781C54.0311 130.627 39.1969 156.638 33.5969 167.038C32.5684 169.21 31.8141 174.238 37.0255 176.981C42.2369 179.724 54.0543 184.524 59.3116 186.581L72.6829 191.038V344.294C112.34 351.38 219.026 357.048 260.168 334.009L262.568 195.838L263.597 189.667L262.568 182.124L260.168 167.381L252.969 142.353C244.054 118.353 223.264 82.9014 181.025 68.6387Z" fill="white" stroke="black" stroke-width="3.42855" stroke-linejoin="round"/>
<path d="M84.2853 193.08C82.091 122.863 107.303 79.9548 119.646 68.6406C102.046 70.4692 66.024 94.6976 62.7326 176.983C56.5612 188.983 45.5426 212.983 36.6756 222.925C22.6138 238.693 12.2186 271.725 3.76146 291.154C0.790043 299.039 -0.558521 317.691 17.8185 329.211C36.1956 340.731 103.646 370.81 135.075 384.41C151.189 391.382 186.64 399.907 199.531 378.239C212.423 356.57 240.56 286.468 253.017 254.125L193.703 235.611C191.256 234.24 188.903 233.211 188.903 225.325C188.903 217.44 186.799 209.649 183.074 207.154C171.303 199.268 144.628 187.269 133.703 184.526C130.389 183.611 121.772 183.154 113.818 188.64C105.863 194.126 101.361 196.64 100.103 197.211C99.1892 197.897 96.3321 198.857 92.2178 197.211C88.1035 195.566 75.6465 188.069 69.9322 184.526L84.2853 193.08Z" fill="white" stroke="black" stroke-width="3.42855" stroke-linejoin="round"/>
<path d="M173.058 219.6C164.281 211.646 139.458 202.343 128.144 198.686C124.373 197.426 123.687 198.686 116.487 204.514C110.727 209.177 115.144 211.107 118.544 212.743C124.744 215.727 150.887 227.257 163.801 231.943C174.498 236.605 174.43 225.657 173.058 219.6Z" fill="white" stroke="black" stroke-width="3.42855" stroke-linejoin="round"/>
<path d="M142.228 239.039C142.228 241.137 140.264 243.154 137.428 243.154C134.593 243.154 132.628 241.137 132.628 239.039C132.628 236.942 134.593 234.925 137.428 234.925C140.264 234.925 142.228 236.942 142.228 239.039Z" fill="white" stroke="black" stroke-width="3.42855"/>
<path d="M167.256 384.41C169.575 384.41 171.662 383.618 173.942 383.553C175.296 383.514 176.49 382.696 177.808 382.696C178.495 382.696 180.227 382.11 180.761 381.629C181.356 381.093 182.412 381.05 182.932 380.382C183.482 379.674 184.477 379.158 185.122 378.448C185.831 377.669 186.865 376.764 187.151 375.763C187.505 374.523 188.958 373.645 189.37 372.41" stroke="black" stroke-width="3.42855" stroke-linecap="round"/>
<path d="M208.228 338.125C203.543 347.154 193.828 365.348 192.457 365.896M225.714 296.297C220.457 307.154 210.08 329.074 210.628 329.897M229.485 286.697L239.771 264.068" stroke="black" stroke-width="3.42855" stroke-linejoin="round"/>
<path d="M61.6562 219.497C104.17 240.068 193.93 281.211 212.855 281.211" stroke="black" stroke-width="3.42855" stroke-linejoin="round"/>
<path d="M252.284 198.582L215.414 203.039C214.043 215.382 221.928 240.639 226.043 251.725C234.957 274.239 253.402 320.296 255.871 324.41C258.339 328.524 261.884 332.638 258.957 340.867C258.957 347.038 264.785 351.701 270.271 359.381C275.757 367.061 277.397 371.077 276.442 373.781C270.271 391.267 273.471 393.781 275.071 393.667C288.099 396.067 289.128 371.724 290.842 362.124C292.214 354.444 284.328 332.181 280.214 322.01C274.271 297.667 261.974 247.679 260.328 242.467C258.682 237.256 256.442 227.953 255.528 223.953L252.284 198.582Z" fill="white" stroke="black" stroke-width="3.42855" stroke-linejoin="round"/>
<path d="M180.283 68.9824C204.854 73.7824 256.397 105.942 263.254 192.067C262.911 194.01 261.128 197.965 256.74 198.239C252.351 198.513 224.969 202.01 211.826 203.725C208.969 203.953 203.117 203.176 202.569 198.239C201.883 192.067 199.14 156.411 200.855 151.268" stroke="black" stroke-width="3.42855" stroke-linejoin="round"/>
</svg>
