<svg width="774" height="403" viewBox="0 0 774 403" fill="none" xmlns="http://www.w3.org/2000/svg">
<path d="M137.158 3C155.035 19.0104 205.956 41.4249 266.616 3C281.72 3.61578 311.208 14.0841 336.894 37.176C355.388 53.8022 394.041 90.7493 397 109.223L349.84 164.643L328.133 155.407C328.269 156.938 328.415 158.478 328.572 160.025L326.722 400.181H76.1271V160.025C76.5234 157.542 76.879 155.078 77.1963 152.636L48.3859 164.643L26.1929 136.009L4 107.375C26.7988 69.1749 55.4467 45.7637 65.7752 37.3232L65.9553 37.176C77.9765 23.3209 106.827 5.21682 137.158 3Z" fill="white"/>
<path d="M137.158 3C155.035 19.0104 205.956 41.4249 266.616 3M137.158 3C106.827 5.21682 77.9765 23.3209 65.9553 37.176M137.158 3C137.158 17.163 145.48 54.7259 197.264 60.2679C214.833 62.1483 263.735 53.6928 266.616 3M266.616 3C281.72 3.61578 311.208 14.0841 336.894 37.176M336.894 37.176C355.388 53.8022 394.041 90.7493 397 109.223L349.84 164.643L328.133 155.407M336.894 37.176C332.093 53.3616 323.144 99.1347 328.133 155.407M65.9553 37.176C55.7835 45.4891 26.9327 68.9505 4 107.375L26.1929 136.009L48.3859 164.643L77.1963 152.636M65.9553 37.176C69.51 45.1652 85.0214 92.3969 77.1963 152.636M328.133 155.407C328.269 156.938 328.415 158.478 328.572 160.025L326.722 400.181H76.1271V160.025C76.5234 157.542 76.879 155.078 77.1963 152.636" stroke="black" stroke-width="5.22606"/>
<path d="M268.961 4.56836V398.091" stroke="black" stroke-width="2.09043" stroke-dasharray="5.23 5.23"/>
<path d="M78.2109 154.557H329.062" stroke="black" stroke-width="2.09043" stroke-dasharray="5.23 5.23"/>
<path d="M133.724 173.602L129.862 159.919H132.528L134.993 169.974H135.12L137.753 159.919H140.178L142.817 169.98H142.937L145.402 159.919H148.068L144.207 173.602H141.761L139.022 164.001H138.915L136.169 173.602H133.724ZM150.244 173.602V163.339H152.663V173.602H150.244ZM151.46 161.883C151.077 161.883 150.748 161.756 150.472 161.502C150.195 161.244 150.057 160.934 150.057 160.574C150.057 160.208 150.195 159.899 150.472 159.645C150.748 159.387 151.077 159.257 151.46 159.257C151.848 159.257 152.177 159.387 152.449 159.645C152.725 159.899 152.863 160.208 152.863 160.574C152.863 160.934 152.725 161.244 152.449 161.502C152.177 161.756 151.848 161.883 151.46 161.883ZM159.523 173.782C158.716 173.782 157.995 173.575 157.358 173.161C156.721 172.746 156.218 172.145 155.848 171.357C155.478 170.568 155.293 169.611 155.293 168.484C155.293 167.344 155.481 166.382 155.855 165.598C156.233 164.809 156.743 164.215 157.385 163.814C158.026 163.409 158.741 163.206 159.529 163.206C160.131 163.206 160.625 163.308 161.012 163.513C161.4 163.714 161.707 163.956 161.934 164.241C162.162 164.522 162.337 164.787 162.462 165.036H162.562V159.919H164.988V173.602H162.609V171.985H162.462C162.337 172.234 162.157 172.499 161.921 172.78C161.685 173.056 161.373 173.292 160.986 173.488C160.598 173.684 160.11 173.782 159.523 173.782ZM160.197 171.798C160.71 171.798 161.146 171.66 161.507 171.383C161.868 171.103 162.142 170.713 162.329 170.214C162.516 169.715 162.609 169.134 162.609 168.471C162.609 167.807 162.516 167.23 162.329 166.74C162.146 166.25 161.874 165.869 161.514 165.598C161.157 165.326 160.718 165.19 160.197 165.19C159.658 165.19 159.209 165.33 158.848 165.611C158.487 165.892 158.215 166.279 158.033 166.774C157.85 167.268 157.759 167.834 157.759 168.471C157.759 169.112 157.85 169.684 158.033 170.188C158.22 170.686 158.494 171.081 158.854 171.37C159.22 171.655 159.667 171.798 160.197 171.798ZM173.254 163.339V165.21H167.354V163.339H173.254ZM168.811 160.881H171.229V170.515C171.229 170.84 171.278 171.089 171.376 171.263C171.479 171.432 171.612 171.548 171.777 171.611C171.942 171.673 172.125 171.704 172.325 171.704C172.476 171.704 172.614 171.693 172.739 171.671C172.868 171.648 172.966 171.628 173.033 171.611L173.441 173.501C173.312 173.546 173.127 173.595 172.886 173.648C172.65 173.702 172.361 173.733 172.018 173.742C171.412 173.76 170.866 173.668 170.381 173.468C169.895 173.263 169.51 172.947 169.225 172.519C168.944 172.092 168.806 171.557 168.811 170.916V160.881ZM178.48 167.589V173.602H176.061V159.919H178.426V165.083H178.547C178.787 164.504 179.159 164.048 179.662 163.714C180.17 163.375 180.816 163.206 181.6 163.206C182.312 163.206 182.934 163.355 183.464 163.653C183.994 163.952 184.404 164.388 184.693 164.963C184.987 165.538 185.134 166.239 185.134 167.067V173.602H182.716V167.442C182.716 166.751 182.537 166.215 182.181 165.832C181.829 165.444 181.335 165.25 180.698 165.25C180.27 165.25 179.887 165.344 179.549 165.531C179.215 165.713 178.952 165.978 178.76 166.326C178.573 166.673 178.48 167.094 178.48 167.589Z" fill="black"/>
<path d="M282.84 75.5439H296.523V78.0226H284.918V84.0489H282.84V75.5439ZM282.639 91.2008C282.639 90.172 282.853 89.2834 283.281 88.5351C283.713 87.7913 284.323 87.2189 285.111 86.8181C285.904 86.4172 286.837 86.2168 287.911 86.2168C288.966 86.2168 289.893 86.4172 290.69 86.8181C291.492 87.2234 292.115 87.7891 292.561 88.5151C293.011 89.2411 293.236 90.094 293.236 91.0739C293.236 91.7064 293.133 92.3032 292.928 92.8644C292.728 93.4301 292.416 93.9289 291.993 94.361C291.57 94.7975 291.031 95.1404 290.376 95.3899C289.726 95.6393 288.951 95.764 288.051 95.764H287.309V87.3526H288.94V93.4457C289.403 93.4412 289.815 93.341 290.176 93.145C290.541 92.9491 290.828 92.6751 291.037 92.3233C291.247 91.9758 291.351 91.5705 291.351 91.1073C291.351 90.6129 291.231 90.1786 290.991 89.8045C290.755 89.4304 290.443 89.1386 290.055 88.9293C289.672 88.7244 289.251 88.6197 288.793 88.6153H287.37C286.773 88.6153 286.261 88.7244 285.833 88.9426C285.41 89.1609 285.085 89.466 284.858 89.858C284.635 90.2499 284.523 90.7087 284.523 91.2342C284.523 91.5861 284.572 91.9046 284.67 92.1896C284.773 92.4747 284.922 92.7219 285.118 92.9312C285.314 93.1406 285.557 93.2987 285.846 93.4056L285.592 95.6638C284.996 95.5213 284.474 95.2496 284.029 94.8487C283.588 94.4523 283.245 93.9445 283 93.3254C282.76 92.7063 282.639 91.9981 282.639 91.2008ZM288.853 100.793H282.84V98.3745H293.102V100.686H291.358V100.806C291.933 101.042 292.389 101.419 292.728 101.935C293.066 102.457 293.236 103.1 293.236 103.866C293.236 104.574 293.084 105.191 292.781 105.717C292.478 106.247 292.04 106.657 291.465 106.946C290.891 107.24 290.193 107.385 289.374 107.381H282.84V104.962H289C289.686 104.962 290.222 104.784 290.61 104.428C290.997 104.076 291.191 103.588 291.191 102.964C291.191 102.541 291.098 102.165 290.911 101.835C290.728 101.51 290.463 101.254 290.116 101.067C289.768 100.884 289.347 100.793 288.853 100.793ZM278.778 114.867C278.778 113.998 278.896 113.252 279.132 112.628C279.363 112.005 279.675 111.504 280.067 111.125C280.459 110.747 280.893 110.484 281.37 110.337L281.898 112.515C281.697 112.613 281.499 112.755 281.303 112.942C281.103 113.129 280.938 113.381 280.809 113.697C280.675 114.018 280.608 114.421 280.608 114.907C280.608 115.593 280.775 116.16 281.109 116.61C281.439 117.06 281.982 117.285 282.74 117.285H284.684V117.165C284.434 117.04 284.178 116.857 283.915 116.617C283.653 116.381 283.432 116.067 283.254 115.675C283.076 115.287 282.987 114.8 282.987 114.212C282.987 113.423 283.172 112.709 283.541 112.067C283.915 111.43 284.472 110.922 285.212 110.544C285.955 110.17 286.886 109.983 288.004 109.983C289.131 109.983 290.082 110.17 290.857 110.544C291.637 110.922 292.227 111.432 292.628 112.074C293.033 112.715 293.236 113.43 293.236 114.218C293.236 114.82 293.133 115.314 292.928 115.702C292.728 116.094 292.485 116.405 292.2 116.637C291.919 116.869 291.654 117.045 291.405 117.165V117.298H293.102V119.684H282.673C281.795 119.684 281.069 119.474 280.495 119.056C279.92 118.637 279.49 118.065 279.205 117.339C278.92 116.612 278.778 115.788 278.778 114.867ZM284.884 114.887C284.884 115.399 285.009 115.835 285.258 116.196C285.508 116.557 285.866 116.831 286.334 117.018C286.802 117.205 287.363 117.298 288.018 117.298C288.663 117.298 289.229 117.205 289.715 117.018C290.2 116.835 290.576 116.564 290.844 116.203C291.115 115.846 291.251 115.408 291.251 114.887C291.251 114.348 291.111 113.898 290.83 113.537C290.55 113.176 290.164 112.905 289.675 112.722C289.189 112.539 288.637 112.448 288.018 112.448C287.39 112.448 286.84 112.539 286.367 112.722C285.9 112.909 285.535 113.183 285.272 113.544C285.013 113.909 284.884 114.357 284.884 114.887ZM293.102 127.851H291.231V121.952H293.102V127.851ZM295.561 123.408V125.827H285.926C285.601 125.827 285.352 125.876 285.178 125.974C285.009 126.076 284.893 126.21 284.831 126.374C284.768 126.539 284.737 126.722 284.737 126.922C284.737 127.074 284.748 127.212 284.771 127.337C284.793 127.466 284.813 127.564 284.831 127.631L282.94 128.038C282.896 127.909 282.847 127.724 282.793 127.484C282.74 127.247 282.708 126.958 282.7 126.615C282.682 126.009 282.773 125.464 282.973 124.978C283.178 124.493 283.495 124.107 283.922 123.822C284.35 123.542 284.884 123.404 285.526 123.408H295.561ZM288.853 133.077H282.84V130.659H296.523V133.024H291.358V133.144C291.937 133.384 292.394 133.756 292.728 134.26C293.066 134.767 293.236 135.413 293.236 136.197C293.236 136.91 293.086 137.531 292.788 138.061C292.49 138.591 292.053 139.001 291.478 139.29C290.904 139.584 290.202 139.731 289.374 139.731H282.84V137.313H289C289.69 137.313 290.227 137.135 290.61 136.778C290.997 136.427 291.191 135.932 291.191 135.295C291.191 134.868 291.098 134.485 290.911 134.146C290.728 133.812 290.463 133.549 290.116 133.358C289.768 133.171 289.347 133.077 288.853 133.077Z" fill="black"/>
<g clip-path="url(#clip0_1022_2433)">
<rect x="516" y="30" width="258" height="343.111" rx="4.77778" fill="white"/>
<g clip-path="url(#clip1_1022_2433)">
<rect width="75.25" height="343.111" transform="translate(516 30)" fill="white" fill-opacity="0.01"/>
<mask id="path-9-inside-1_1022_2433" fill="white">
<path d="M516 30H591.25V72.8889H516V30Z"/>
</mask>
<path d="M516 30H591.25V72.8889H516V30Z" fill="white" fill-opacity="0.05"/>
<path d="M516 30V28.8056H514.806V30H516ZM516 31.1944H591.25V28.8056H516V31.1944ZM517.194 72.8889V30H514.806V72.8889H517.194Z" fill="black" mask="url(#path-9-inside-1_1022_2433)"/>
<path d="M544.67 49.3867C544.622 48.9422 544.422 48.5961 544.069 48.3484C543.72 48.1007 543.265 47.9768 542.705 47.9768C542.312 47.9768 541.974 48.0362 541.692 48.1549C541.411 48.2737 541.195 48.4349 541.046 48.6385C540.897 48.8421 540.82 49.0745 540.817 49.3358C540.817 49.553 540.866 49.7413 540.964 49.9008C541.066 50.0603 541.204 50.196 541.377 50.308C541.55 50.4166 541.741 50.5082 541.952 50.5829C542.162 50.6575 542.374 50.7203 542.588 50.7712L543.565 51.0155C543.959 51.1071 544.337 51.231 544.7 51.3871C545.067 51.5432 545.394 51.74 545.683 51.9775C545.975 52.215 546.205 52.5018 546.375 52.8377C546.545 53.1737 546.629 53.5673 546.629 54.0186C546.629 54.6294 546.473 55.1672 546.161 55.6321C545.849 56.0936 545.398 56.455 544.807 56.7163C544.22 56.9742 543.509 57.1031 542.675 57.1031C541.864 57.1031 541.159 56.9775 540.562 56.7264C539.968 56.4753 539.504 56.1089 539.168 55.627C538.835 55.1452 538.655 54.5581 538.628 53.8659H540.486C540.513 54.229 540.625 54.531 540.822 54.7719C541.019 55.0128 541.275 55.1927 541.59 55.3114C541.909 55.4302 542.266 55.4896 542.659 55.4896C543.07 55.4896 543.43 55.4285 543.738 55.3063C544.051 55.1808 544.295 55.0077 544.471 54.7872C544.648 54.5632 544.738 54.3019 544.741 54.0033C544.738 53.7318 544.658 53.5079 544.502 53.3314C544.346 53.1516 544.127 53.0023 543.845 52.8835C543.567 52.7614 543.241 52.6528 542.868 52.5578L541.682 52.2524C540.824 52.0318 540.145 51.6976 539.646 51.2496C539.151 50.7983 538.903 50.1994 538.903 49.4529C538.903 48.8387 539.069 48.3009 539.402 47.8394C539.738 47.3779 540.194 47.0199 540.771 46.7654C541.348 46.5075 542.001 46.3786 542.731 46.3786C543.47 46.3786 544.118 46.5075 544.675 46.7654C545.235 47.0199 545.674 47.3745 545.993 47.8292C546.312 48.2805 546.477 48.7997 546.487 49.3867H544.67ZM550.201 46.5211V56.9453H548.313V46.5211H550.201ZM552.053 56.9453V55.7695L557.397 48.104H552.022V46.5211H559.739V47.6969L554.399 55.3623H559.769V56.9453H552.053ZM561.597 56.9453V46.5211H568.376V48.104H563.485V50.9341H568.025V52.517H563.485V55.3623H568.417V56.9453H561.597Z" fill="black"/>
<mask id="path-12-inside-2_1022_2433" fill="white">
<path d="M516 72.8887H591.25V115.778H516V72.8887Z"/>
</mask>
<path d="M516 72.8887H591.25V115.778H516V72.8887Z" fill="white" fill-opacity="0.01"/>
<path d="M516 72.8887V71.6942H514.806V72.8887H516ZM516 74.0831H591.25V71.6942H516V74.0831ZM517.194 115.778V72.8887H514.806V115.778H517.194Z" fill="black" mask="url(#path-12-inside-2_1022_2433)"/>
<path d="M556.019 92.0158C555.957 91.5 555.71 91.0996 555.275 90.8146C554.841 90.5295 554.308 90.387 553.677 90.387C553.216 90.387 552.812 90.4617 552.466 90.611C552.123 90.7603 551.855 90.9656 551.662 91.2269C551.472 91.4881 551.377 91.7851 551.377 92.1176C551.377 92.3959 551.443 92.6351 551.575 92.8353C551.711 93.0321 551.884 93.1967 552.094 93.329C552.305 93.458 552.525 93.5648 552.756 93.6497C552.987 93.7311 553.199 93.7973 553.392 93.8482L554.451 94.1332C554.722 94.2045 555.024 94.3029 555.357 94.4284C555.693 94.554 556.013 94.7254 556.319 94.9425C556.628 95.1563 556.882 95.4312 557.082 95.7671C557.283 96.103 557.383 96.5153 557.383 97.004C557.383 97.5673 557.235 98.0763 556.94 98.531C556.648 98.9857 556.22 99.347 555.657 99.6151C555.097 99.8832 554.417 100.017 553.616 100.017C552.87 100.017 552.223 99.8968 551.677 99.6558C551.134 99.4149 550.706 99.079 550.394 98.648C550.085 98.2171 549.911 97.7166 549.87 97.1465H551.173C551.207 97.5401 551.339 97.8659 551.57 98.1238C551.804 98.3783 552.099 98.5683 552.456 98.6938C552.815 98.816 553.202 98.8771 553.616 98.8771C554.098 98.8771 554.531 98.799 554.914 98.6429C555.297 98.4834 555.601 98.2629 555.825 97.9812C556.049 97.6962 556.161 97.3637 556.161 96.9836C556.161 96.6375 556.064 96.3558 555.871 96.1387C555.678 95.9215 555.423 95.745 555.107 95.6093C554.792 95.4736 554.451 95.3548 554.084 95.253L552.802 94.8865C551.987 94.6524 551.343 94.3182 550.868 93.8838C550.392 93.4495 550.155 92.8811 550.155 92.1787C550.155 91.595 550.313 91.086 550.628 90.6517C550.947 90.214 551.375 89.8746 551.911 89.6337C552.451 89.3894 553.053 89.2672 553.718 89.2672C554.39 89.2672 554.987 89.3877 555.51 89.6286C556.032 89.8661 556.446 90.1919 556.752 90.6059C557.06 91.0199 557.223 91.4898 557.24 92.0158H556.019Z" fill="black"/>
<mask id="path-15-inside-3_1022_2433" fill="white">
<path d="M516 115.777H591.25V158.666H516V115.777Z"/>
</mask>
<path d="M516 115.777H591.25V158.666H516V115.777Z" fill="white" fill-opacity="0.01"/>
<path d="M516 115.777V114.583H514.806V115.777H516ZM516 116.972H591.25V114.583H516V116.972ZM517.194 158.666V115.777H514.806V158.666H517.194Z" fill="black" mask="url(#path-15-inside-3_1022_2433)"/>
<path d="M548.512 132.298H550.019L553.561 140.951H553.684L557.226 132.298H558.733V142.723H557.552V134.803H557.45L554.193 142.723H553.052L549.795 134.803H549.693V142.723H548.512V132.298Z" fill="black"/>
<mask id="path-18-inside-4_1022_2433" fill="white">
<path d="M516 158.666H591.25V201.555H516V158.666Z"/>
</mask>
<path d="M516 158.666H591.25V201.555H516V158.666Z" fill="white" fill-opacity="0.01"/>
<path d="M516 158.666V157.472H514.806V158.666H516ZM516 159.86H591.25V157.472H516V159.86ZM517.194 201.555V158.666H514.806V201.555H517.194Z" fill="black" mask="url(#path-18-inside-4_1022_2433)"/>
<path d="M550.857 185.611V175.187H552.119V184.492H556.965V185.611H550.857Z" fill="black"/>
<mask id="path-21-inside-5_1022_2433" fill="white">
<path d="M516 201.555H591.25V244.444H516V201.555Z"/>
</mask>
<path d="M516 201.555H591.25V244.444H516V201.555Z" fill="white" fill-opacity="0.01"/>
<path d="M516 201.555V200.36H514.806V201.555H516ZM516 202.749H591.25V200.36H516V202.749ZM517.194 244.444V201.555H514.806V244.444H517.194Z" fill="black" mask="url(#path-21-inside-5_1022_2433)"/>
<path d="M546.869 218.076L549.557 222.412H549.638L552.326 218.076H553.812L550.534 223.288L553.812 228.5H552.326L549.638 224.245H549.557L546.869 228.5H545.383L548.742 223.288L545.383 218.076H546.869ZM555.455 228.5V218.076H556.717V227.38H561.563V228.5H555.455Z" fill="black"/>
<mask id="path-24-inside-6_1022_2433" fill="white">
<path d="M516 244.445H591.25V287.334H516V244.445Z"/>
</mask>
<path d="M516 244.445H591.25V287.334H516V244.445Z" fill="white" fill-opacity="0.01"/>
<path d="M516 244.445V243.251H514.806V244.445H516ZM516 245.64H591.25V243.251H516V245.64ZM517.194 287.334V244.445H514.806V287.334H517.194Z" fill="black" mask="url(#path-24-inside-6_1022_2433)"/>
<path d="M542.271 260.966L544.959 265.303H545.04L547.728 260.966H549.214L545.936 266.179L549.214 271.391H547.728L545.04 267.135H544.959L542.271 271.391H540.785L544.144 266.179L540.785 260.966H542.271ZM551.468 260.966L554.155 265.303H554.236L556.924 260.966H558.41L555.132 266.179L558.41 271.391H556.924L554.236 267.135H554.155L551.468 271.391H549.981L553.341 266.179L549.981 260.966H551.468ZM560.053 271.391V260.966H561.315V270.271H566.161V271.391H560.053Z" fill="black"/>
<mask id="path-27-inside-7_1022_2433" fill="white">
<path d="M516 287.334H591.25V330.223H516V287.334Z"/>
</mask>
<path d="M516 287.334H591.25V330.223H516V287.334Z" fill="white" fill-opacity="0.01"/>
<path d="M516 287.334V286.14H514.806V287.334H516ZM516 288.528H591.25V286.14H516V288.528ZM517.194 330.223V287.334H514.806V330.223H517.194Z" fill="black" mask="url(#path-27-inside-7_1022_2433)"/>
<path d="M545.034 314.422C544.363 314.422 543.764 314.306 543.238 314.076C542.715 313.845 542.299 313.524 541.991 313.114C541.685 312.7 541.519 312.22 541.492 311.673H542.774C542.802 312.009 542.917 312.299 543.121 312.544C543.324 312.785 543.591 312.971 543.92 313.104C544.249 313.236 544.614 313.302 545.014 313.302C545.462 313.302 545.859 313.224 546.205 313.068C546.551 312.912 546.823 312.695 547.02 312.416C547.216 312.138 547.315 311.816 547.315 311.449C547.315 311.066 547.22 310.728 547.03 310.436C546.84 310.141 546.561 309.91 546.195 309.744C545.828 309.578 545.381 309.495 544.851 309.495H544.016V308.375H544.851C545.265 308.375 545.628 308.3 545.94 308.151C546.256 308.002 546.502 307.791 546.678 307.52C546.858 307.248 546.948 306.929 546.948 306.563C546.948 306.21 546.87 305.903 546.714 305.642C546.558 305.38 546.337 305.177 546.052 305.031C545.771 304.885 545.438 304.812 545.055 304.812C544.695 304.812 544.356 304.878 544.037 305.01C543.721 305.139 543.463 305.328 543.263 305.575C543.063 305.82 542.954 306.115 542.937 306.461H541.716C541.736 305.915 541.901 305.436 542.21 305.026C542.518 304.612 542.922 304.289 543.421 304.059C543.923 303.828 544.475 303.713 545.075 303.713C545.72 303.713 546.273 303.843 546.734 304.104C547.196 304.362 547.551 304.703 547.798 305.128C548.046 305.552 548.17 306.01 548.17 306.502C548.17 307.089 548.015 307.589 547.707 308.003C547.401 308.417 546.986 308.704 546.46 308.864V308.945C547.118 309.054 547.632 309.334 548.002 309.785C548.372 310.233 548.557 310.788 548.557 311.449C548.557 312.016 548.402 312.525 548.094 312.976C547.788 313.424 547.371 313.777 546.841 314.035C546.312 314.293 545.71 314.422 545.034 314.422ZM551.433 303.855L554.12 308.192H554.201L556.889 303.855H558.375L555.097 309.067L558.375 314.279H556.889L554.201 310.024H554.12L551.433 314.279H549.946L553.306 309.067L549.946 303.855H551.433ZM560.018 314.279V303.855H561.28V313.16H566.126V314.279H560.018Z" fill="black"/>
<mask id="path-30-inside-8_1022_2433" fill="white">
<path d="M516 330.223H591.25V373.112H516V330.223Z"/>
</mask>
<path d="M516 330.223H591.25V373.112H516V330.223Z" fill="white" fill-opacity="0.01"/>
<path d="M516 330.223V329.028H514.806V330.223H516ZM516 331.417H591.25V329.028H516V331.417ZM517.194 373.112V330.223H514.806V373.112H517.194Z" fill="black" mask="url(#path-30-inside-8_1022_2433)"/>
<path d="M541.233 355.03V353.992L545.814 346.744H546.567V348.352H546.058L542.597 353.829V353.91H548.766V355.03H541.233ZM546.14 357.168V354.715V354.231V346.744H547.341V357.168H546.14ZM551.468 346.744L554.155 351.08H554.236L556.924 346.744H558.41L555.132 351.956L558.41 357.168H556.924L554.236 352.913H554.155L551.468 357.168H549.981L553.341 351.956L549.981 346.744H551.468ZM560.053 357.168V346.744H561.315V356.048H566.161V357.168H560.053Z" fill="black"/>
</g>
<g clip-path="url(#clip2_1022_2433)">
<rect width="91.9722" height="343.111" transform="translate(591.25 30)" fill="white" fill-opacity="0.01"/>
<mask id="path-33-inside-9_1022_2433" fill="white">
<path d="M591.25 30H683.222V72.8889H591.25V30Z"/>
</mask>
<path d="M591.25 30H683.222V72.8889H591.25V30Z" fill="white" fill-opacity="0.05"/>
<path d="M591.25 30V28.8056H590.056V30H591.25ZM591.25 31.1944H683.222V28.8056H591.25V31.1944ZM592.444 72.8889V30H590.056V72.8889H592.444Z" fill="black" mask="url(#path-33-inside-9_1022_2433)"/>
<path d="M609.29 56.9453V46.5211H611.179V55.3623H615.77V56.9453H609.29ZM617.409 56.9453V46.5211H624.189V48.104H619.297V50.9341H623.837V52.517H619.297V55.3623H624.229V56.9453H617.409ZM634.682 46.5211V56.9453H633.002L628.09 49.8448H628.004V56.9453H626.115V46.5211H627.805L632.712 53.6267H632.803V46.5211H634.682ZM643.723 49.8499C643.638 49.575 643.521 49.329 643.371 49.1119C643.226 48.8913 643.049 48.703 642.842 48.5469C642.638 48.3908 642.404 48.2737 642.14 48.1957C641.875 48.1142 641.587 48.0735 641.274 48.0735C640.714 48.0735 640.216 48.2143 639.778 48.496C639.34 48.7776 638.996 49.1916 638.745 49.7379C638.497 50.2809 638.373 50.9426 638.373 51.723C638.373 52.5103 638.497 53.177 638.745 53.7234C638.992 54.2697 639.337 54.6854 639.778 54.9704C640.219 55.2521 640.731 55.3929 641.315 55.3929C641.844 55.3929 642.303 55.2911 642.689 55.0875C643.08 54.8839 643.38 54.5954 643.59 54.2222C643.801 53.8455 643.906 53.4044 643.906 52.8988L644.333 52.965H641.503V51.4889H645.733V52.741C645.733 53.6334 645.543 54.4054 645.163 55.0569C644.783 55.7085 644.26 56.2107 643.595 56.5636C642.93 56.9131 642.167 57.0878 641.305 57.0878C640.345 57.0878 639.501 56.8724 638.775 56.4414C638.052 56.0071 637.487 55.3912 637.08 54.5938C636.676 53.7929 636.475 52.8428 636.475 51.7434C636.475 50.9018 636.593 50.1502 636.831 49.4885C637.072 48.8268 637.408 48.2652 637.839 47.8037C638.27 47.3389 638.775 46.986 639.355 46.745C639.936 46.5007 640.567 46.3786 641.249 46.3786C641.826 46.3786 642.364 46.4634 642.862 46.633C643.361 46.7993 643.804 47.0369 644.191 47.3456C644.581 47.6544 644.902 48.0209 645.153 48.4451C645.404 48.8692 645.569 49.3375 645.647 49.8499H643.723ZM646.653 48.104V46.5211H654.97V48.104H651.748V56.9453H649.875V48.104H646.653ZM656.574 56.9453V46.5211H658.462V50.9341H663.292V46.5211H665.186V56.9453H663.292V52.517H658.462V56.9453H656.574Z" fill="black"/>
<mask id="path-36-inside-10_1022_2433" fill="white">
<path d="M591.25 72.8887H683.222V115.778H591.25V72.8887Z"/>
</mask>
<path d="M591.25 72.8887H683.222V115.778H591.25V72.8887Z" fill="white" fill-opacity="0.01"/>
<path d="M591.25 72.8887V71.6942H590.056V72.8887H591.25ZM591.25 74.0831H683.222V71.6942H591.25V74.0831ZM592.444 115.778V72.8887H590.056V115.778H592.444Z" fill="black" mask="url(#path-36-inside-10_1022_2433)"/>
<path d="M620.963 99.9765C620.535 99.9697 620.108 99.8883 619.68 99.7322C619.253 99.5761 618.862 99.3131 618.51 98.9432C618.157 98.57 617.873 98.0661 617.659 97.4315C617.446 96.7936 617.339 95.9928 617.339 95.0291C617.339 94.1061 617.425 93.2883 617.598 92.5757C617.771 91.8597 618.023 91.2574 618.352 90.7688C618.681 90.2767 619.078 89.9035 619.543 89.649C620.011 89.3945 620.539 89.2672 621.126 89.2672C621.709 89.2672 622.229 89.3843 622.683 89.6184C623.141 89.8492 623.515 90.1715 623.803 90.5855C624.092 90.9995 624.278 91.4763 624.363 92.0158H623.121C623.006 91.5475 622.782 91.159 622.449 90.8502C622.117 90.5414 621.675 90.387 621.126 90.387C620.318 90.387 619.682 90.7382 619.217 91.4406C618.756 92.1431 618.523 93.1288 618.52 94.3979H618.601C618.791 94.1095 619.017 93.8635 619.278 93.6599C619.543 93.4529 619.835 93.2934 620.154 93.1814C620.473 93.0694 620.81 93.0134 621.166 93.0134C621.764 93.0134 622.31 93.1627 622.805 93.4614C623.301 93.7566 623.698 94.1655 623.996 94.688C624.295 95.2072 624.444 95.8027 624.444 96.4746C624.444 97.1193 624.3 97.7098 624.012 98.2459C623.723 98.7787 623.318 99.2028 622.795 99.5184C622.276 99.8306 621.665 99.9833 620.963 99.9765ZM620.963 98.8567C621.39 98.8567 621.774 98.7498 622.113 98.536C622.456 98.3223 622.726 98.0355 622.923 97.6758C623.123 97.3161 623.223 96.9157 623.223 96.4746C623.223 96.0437 623.126 95.6517 622.933 95.2988C622.743 94.9425 622.48 94.6592 622.144 94.4488C621.811 94.2384 621.431 94.1332 621.004 94.1332C620.681 94.1332 620.381 94.1977 620.103 94.3266C619.824 94.4522 619.58 94.6253 619.37 94.8458C619.163 95.0664 619 95.3192 618.881 95.6042C618.762 95.8859 618.703 96.1828 618.703 96.495C618.703 96.909 618.8 97.2958 618.993 97.6555C619.19 98.0152 619.458 98.3053 619.797 98.5259C620.14 98.7464 620.529 98.8567 620.963 98.8567ZM626.772 99.834L631.434 90.611V90.5295H626.059V89.4097H632.737V90.5906L628.095 99.834H626.772ZM641.862 99.9969C641.129 99.9969 640.498 99.8238 639.969 99.4777C639.439 99.1316 639.032 98.6548 638.747 98.0474C638.462 97.44 638.32 96.7461 638.32 95.9656C638.32 95.1716 638.466 94.4709 638.757 93.8635C639.053 93.2527 639.463 92.7759 639.989 92.4332C640.519 92.0871 641.136 91.914 641.842 91.914C642.392 91.914 642.887 92.0158 643.328 92.2194C643.769 92.423 644.131 92.708 644.412 93.0745C644.694 93.441 644.869 93.8685 644.937 94.3572H643.735C643.644 94.0009 643.44 93.6853 643.125 93.4105C642.812 93.1322 642.392 92.9931 641.862 92.9931C641.394 92.9931 640.983 93.1152 640.63 93.3596C640.281 93.6005 640.008 93.9415 639.811 94.3826C639.618 94.8204 639.521 95.3345 639.521 95.9249C639.521 96.5289 639.616 97.0549 639.806 97.5028C639.999 97.9507 640.271 98.2985 640.62 98.5462C640.973 98.7939 641.387 98.9178 641.862 98.9178C642.174 98.9178 642.458 98.8635 642.712 98.7549C642.967 98.6463 643.182 98.4902 643.359 98.2866C643.535 98.083 643.661 97.8387 643.735 97.5537H644.937C644.869 98.0152 644.701 98.4309 644.433 98.8007C644.168 99.1672 643.817 99.459 643.379 99.6762C642.945 99.89 642.439 99.9969 641.862 99.9969ZM646.693 99.834V92.0158H647.853V93.2374H647.955C648.118 92.82 648.381 92.496 648.744 92.2652C649.107 92.0311 649.543 91.914 650.052 91.914C650.568 91.914 650.997 92.0311 651.34 92.2652C651.686 92.496 651.956 92.82 652.149 93.2374H652.231C652.431 92.8336 652.731 92.5129 653.131 92.2754C653.532 92.0345 654.012 91.914 654.572 91.914C655.271 91.914 655.843 92.1329 656.287 92.5706C656.732 93.005 656.954 93.6819 656.954 94.6015V99.834H655.753V94.6015C655.753 94.0246 655.595 93.6124 655.279 93.3646C654.964 93.1169 654.592 92.9931 654.165 92.9931C653.615 92.9931 653.189 93.1593 652.887 93.4919C652.585 93.821 652.434 94.2384 652.434 94.744V99.834H651.213V94.4793C651.213 94.0348 651.068 93.6768 650.78 93.4054C650.491 93.1305 650.12 92.9931 649.665 92.9931C649.353 92.9931 649.061 93.0762 648.79 93.2425C648.522 93.4088 648.304 93.6395 648.138 93.9347C647.975 94.2265 647.894 94.5642 647.894 94.9476V99.834H646.693Z" fill="black"/>
<mask id="path-39-inside-11_1022_2433" fill="white">
<path d="M591.25 115.777H683.222V158.666H591.25V115.777Z"/>
</mask>
<path d="M591.25 115.777H683.222V158.666H591.25V115.777Z" fill="white" fill-opacity="0.01"/>
<path d="M591.25 115.777V114.583H590.056V115.777H591.25ZM591.25 116.972H683.222V114.583H591.25V116.972ZM592.444 158.666V115.777H590.056V158.666H592.444Z" fill="black" mask="url(#path-39-inside-11_1022_2433)"/>
<path d="M617.932 142.723L622.595 133.5V133.418H617.22V132.298H623.898V133.479L619.256 142.723H617.932ZM628.971 142.865C628.204 142.865 627.551 142.656 627.012 142.239C626.472 141.818 626.06 141.209 625.775 140.412C625.49 139.611 625.347 138.644 625.347 137.511C625.347 136.384 625.49 135.422 625.775 134.625C626.063 133.824 626.477 133.213 627.017 132.792C627.56 132.368 628.211 132.156 628.971 132.156C629.731 132.156 630.381 132.368 630.921 132.792C631.464 133.213 631.878 133.824 632.163 134.625C632.451 135.422 632.595 136.384 632.595 137.511C632.595 138.644 632.453 139.611 632.168 140.412C631.883 141.209 631.47 141.818 630.931 142.239C630.391 142.656 629.738 142.865 628.971 142.865ZM628.971 141.745C629.731 141.745 630.322 141.379 630.743 140.646C631.163 139.913 631.374 138.868 631.374 137.511C631.374 136.608 631.277 135.839 631.084 135.205C630.894 134.57 630.619 134.087 630.259 133.754C629.903 133.422 629.474 133.255 628.971 133.255C628.218 133.255 627.629 133.627 627.205 134.37C626.781 135.11 626.569 136.157 626.569 137.511C626.569 138.413 626.664 139.18 626.854 139.811C627.044 140.442 627.317 140.923 627.673 141.252C628.033 141.581 628.466 141.745 628.971 141.745ZM641.757 142.886C641.024 142.886 640.393 142.712 639.864 142.366C639.334 142.02 638.927 141.543 638.642 140.936C638.357 140.329 638.215 139.635 638.215 138.854C638.215 138.06 638.361 137.36 638.652 136.752C638.948 136.141 639.358 135.665 639.884 135.322C640.414 134.976 641.031 134.803 641.737 134.803C642.287 134.803 642.782 134.904 643.223 135.108C643.664 135.312 644.026 135.597 644.307 135.963C644.589 136.33 644.764 136.757 644.832 137.246H643.63C643.539 136.89 643.335 136.574 643.02 136.299C642.707 136.021 642.287 135.882 641.757 135.882C641.289 135.882 640.878 136.004 640.526 136.248C640.176 136.489 639.903 136.83 639.706 137.271C639.513 137.709 639.416 138.223 639.416 138.814C639.416 139.418 639.511 139.944 639.701 140.391C639.894 140.839 640.166 141.187 640.515 141.435C640.868 141.683 641.282 141.806 641.757 141.806C642.069 141.806 642.353 141.752 642.607 141.644C642.862 141.535 643.077 141.379 643.254 141.175C643.43 140.972 643.556 140.727 643.63 140.442H644.832C644.764 140.904 644.596 141.32 644.328 141.689C644.063 142.056 643.712 142.348 643.274 142.565C642.84 142.779 642.334 142.886 641.757 142.886ZM646.588 142.723V134.904H647.748V136.126H647.85C648.013 135.709 648.276 135.385 648.639 135.154C649.002 134.92 649.438 134.803 649.947 134.803C650.463 134.803 650.892 134.92 651.235 135.154C651.581 135.385 651.851 135.709 652.044 136.126H652.126C652.326 135.722 652.626 135.402 653.026 135.164C653.427 134.923 653.907 134.803 654.467 134.803C655.166 134.803 655.738 135.022 656.182 135.459C656.627 135.894 656.849 136.571 656.849 137.49V142.723H655.648V137.49C655.648 136.913 655.49 136.501 655.174 136.253C654.859 136.006 654.487 135.882 654.06 135.882C653.51 135.882 653.084 136.048 652.782 136.381C652.48 136.71 652.329 137.127 652.329 137.633V142.723H651.108V137.368C651.108 136.923 650.963 136.565 650.675 136.294C650.386 136.019 650.015 135.882 649.56 135.882C649.248 135.882 648.956 135.965 648.685 136.131C648.417 136.297 648.199 136.528 648.033 136.823C647.87 137.115 647.789 137.453 647.789 137.836V142.723H646.588Z" fill="black"/>
<mask id="path-42-inside-12_1022_2433" fill="white">
<path d="M591.25 158.666H683.222V201.555H591.25V158.666Z"/>
</mask>
<path d="M591.25 158.666H683.222V201.555H591.25V158.666Z" fill="white" fill-opacity="0.01"/>
<path d="M591.25 158.666V157.472H590.056V158.666H591.25ZM591.25 159.86H683.222V157.472H591.25V159.86ZM592.444 201.555V158.666H590.056V201.555H592.444Z" fill="black" mask="url(#path-42-inside-12_1022_2433)"/>
<path d="M617.96 185.611L622.623 176.388V176.307H617.248V175.187H623.926V176.368L619.284 185.611H617.96ZM625.823 185.611V184.695L629.264 180.929C629.668 180.487 630 180.104 630.262 179.778C630.523 179.449 630.716 179.14 630.842 178.852C630.971 178.56 631.035 178.255 631.035 177.936C631.035 177.569 630.947 177.252 630.771 176.984C630.598 176.716 630.36 176.509 630.058 176.363C629.756 176.217 629.417 176.144 629.04 176.144C628.64 176.144 628.29 176.227 627.991 176.393C627.696 176.556 627.467 176.785 627.304 177.081C627.145 177.376 627.065 177.722 627.065 178.119H625.864C625.864 177.508 626.005 176.972 626.286 176.51C626.568 176.049 626.951 175.689 627.437 175.431C627.925 175.174 628.473 175.045 629.081 175.045C629.692 175.045 630.233 175.174 630.704 175.431C631.176 175.689 631.546 176.037 631.814 176.475C632.082 176.913 632.216 177.4 632.216 177.936C632.216 178.319 632.147 178.694 632.007 179.061C631.872 179.424 631.634 179.829 631.295 180.277C630.959 180.722 630.492 181.265 629.895 181.906L627.554 184.41V184.492H632.399V185.611H625.823ZM641.729 185.774C640.996 185.774 640.365 185.601 639.836 185.255C639.306 184.909 638.899 184.432 638.614 183.825C638.329 183.217 638.187 182.523 638.187 181.743C638.187 180.949 638.333 180.248 638.624 179.641C638.92 179.03 639.33 178.553 639.856 178.211C640.386 177.864 641.003 177.691 641.709 177.691C642.259 177.691 642.754 177.793 643.195 177.997C643.636 178.2 643.998 178.485 644.279 178.852C644.561 179.218 644.736 179.646 644.804 180.135H643.602C643.511 179.778 643.307 179.463 642.992 179.188C642.679 178.91 642.259 178.77 641.729 178.77C641.261 178.77 640.85 178.893 640.498 179.137C640.148 179.378 639.875 179.719 639.678 180.16C639.485 180.598 639.388 181.112 639.388 181.702C639.388 182.306 639.483 182.832 639.673 183.28C639.866 183.728 640.138 184.076 640.487 184.324C640.84 184.571 641.254 184.695 641.729 184.695C642.041 184.695 642.325 184.641 642.579 184.532C642.834 184.424 643.049 184.268 643.226 184.064C643.402 183.86 643.528 183.616 643.602 183.331H644.804C644.736 183.793 644.568 184.208 644.3 184.578C644.035 184.945 643.684 185.236 643.246 185.454C642.812 185.667 642.306 185.774 641.729 185.774ZM646.56 185.611V177.793H647.72V179.015H647.822C647.985 178.597 648.248 178.273 648.611 178.043C648.974 177.808 649.41 177.691 649.919 177.691C650.435 177.691 650.864 177.808 651.207 178.043C651.553 178.273 651.823 178.597 652.016 179.015H652.098C652.298 178.611 652.598 178.29 652.998 178.053C653.399 177.812 653.879 177.691 654.439 177.691C655.138 177.691 655.71 177.91 656.154 178.348C656.599 178.782 656.821 179.459 656.821 180.379V185.611H655.62V180.379C655.62 179.802 655.462 179.39 655.146 179.142C654.831 178.894 654.459 178.77 654.032 178.77C653.482 178.77 653.056 178.937 652.754 179.269C652.452 179.598 652.301 180.016 652.301 180.521V185.611H651.08V180.257C651.08 179.812 650.935 179.454 650.647 179.183C650.358 178.908 649.987 178.77 649.532 178.77C649.22 178.77 648.928 178.854 648.657 179.02C648.389 179.186 648.171 179.417 648.005 179.712C647.842 180.004 647.761 180.342 647.761 180.725V185.611H646.56Z" fill="black"/>
<mask id="path-45-inside-13_1022_2433" fill="white">
<path d="M591.25 201.555H683.222V244.444H591.25V201.555Z"/>
</mask>
<path d="M591.25 201.555H683.222V244.444H591.25V201.555Z" fill="white" fill-opacity="0.01"/>
<path d="M591.25 201.555V200.36H590.056V201.555H591.25ZM591.25 202.749H683.222V200.36H591.25V202.749ZM592.444 244.444V201.555H590.056V244.444H592.444Z" fill="black" mask="url(#path-45-inside-13_1022_2433)"/>
<path d="M618.121 228.5L622.784 219.277V219.196H617.409V218.076H624.087V219.257L619.445 228.5H618.121ZM624.9 226.362V225.324L629.481 218.076H630.234V219.684H629.725L626.264 225.161V225.242H632.433V226.362H624.9ZM629.807 228.5V226.047V225.563V218.076H631.008V228.5H629.807ZM641.568 228.663C640.835 228.663 640.204 228.49 639.675 228.144C639.145 227.798 638.738 227.321 638.453 226.713C638.168 226.106 638.026 225.412 638.026 224.632C638.026 223.838 638.172 223.137 638.463 222.529C638.759 221.919 639.169 221.442 639.695 221.099C640.225 220.753 640.842 220.58 641.548 220.58C642.098 220.58 642.593 220.682 643.034 220.885C643.475 221.089 643.837 221.374 644.118 221.741C644.4 222.107 644.575 222.535 644.643 223.023H643.441C643.35 222.667 643.146 222.351 642.831 222.076C642.518 221.798 642.098 221.659 641.568 221.659C641.1 221.659 640.689 221.781 640.337 222.026C639.987 222.266 639.714 222.608 639.517 223.049C639.324 223.486 639.227 224 639.227 224.591C639.227 225.195 639.322 225.721 639.512 226.169C639.705 226.617 639.977 226.965 640.326 227.212C640.679 227.46 641.093 227.584 641.568 227.584C641.881 227.584 642.164 227.53 642.418 227.421C642.673 227.312 642.888 227.156 643.065 226.953C643.241 226.749 643.367 226.505 643.441 226.22H644.643C644.575 226.681 644.407 227.097 644.139 227.467C643.874 227.833 643.523 228.125 643.085 228.342C642.651 228.556 642.145 228.663 641.568 228.663ZM646.399 228.5V220.682H647.559V221.903H647.661C647.824 221.486 648.087 221.162 648.45 220.931C648.813 220.697 649.249 220.58 649.758 220.58C650.274 220.58 650.703 220.697 651.046 220.931C651.392 221.162 651.662 221.486 651.855 221.903H651.937C652.137 221.5 652.437 221.179 652.837 220.941C653.238 220.7 653.718 220.58 654.278 220.58C654.977 220.58 655.549 220.799 655.993 221.237C656.438 221.671 656.66 222.348 656.66 223.268V228.5H655.459V223.268C655.459 222.691 655.301 222.278 654.985 222.031C654.67 221.783 654.298 221.659 653.871 221.659C653.321 221.659 652.895 221.825 652.593 222.158C652.291 222.487 652.14 222.904 652.14 223.41V228.5H650.919V223.145C650.919 222.701 650.774 222.343 650.486 222.071C650.198 221.797 649.826 221.659 649.371 221.659C649.059 221.659 648.767 221.742 648.496 221.908C648.228 222.075 648.011 222.306 647.844 222.601C647.681 222.893 647.6 223.23 647.6 223.614V228.5H646.399Z" fill="black"/>
<mask id="path-48-inside-14_1022_2433" fill="white">
<path d="M591.25 244.445H683.222V287.334H591.25V244.445Z"/>
</mask>
<path d="M591.25 244.445H683.222V287.334H591.25V244.445Z" fill="white" fill-opacity="0.01"/>
<path d="M591.25 244.445V243.251H590.056V244.445H591.25ZM591.25 245.64H683.222V243.251H591.25V245.64ZM592.444 287.334V244.445H590.056V287.334H592.444Z" fill="black" mask="url(#path-48-inside-14_1022_2433)"/>
<path d="M617.939 271.391L622.602 262.168V262.086H617.227V260.966H623.905V262.147L619.263 271.391H617.939ZM629.039 271.533C628.612 271.526 628.184 271.445 627.757 271.289C627.329 271.133 626.939 270.87 626.586 270.5C626.233 270.127 625.95 269.623 625.736 268.988C625.522 268.35 625.415 267.549 625.415 266.586C625.415 265.663 625.502 264.845 625.675 264.132C625.848 263.416 626.099 262.814 626.428 262.325C626.757 261.833 627.154 261.46 627.619 261.206C628.088 260.951 628.615 260.824 629.202 260.824C629.786 260.824 630.305 260.941 630.76 261.175C631.218 261.406 631.591 261.728 631.88 262.142C632.168 262.556 632.355 263.033 632.439 263.572H631.198C631.082 263.104 630.858 262.716 630.526 262.407C630.193 262.098 629.752 261.944 629.202 261.944C628.395 261.944 627.758 262.295 627.294 262.997C626.832 263.7 626.6 264.685 626.596 265.955H626.678C626.868 265.666 627.093 265.42 627.355 265.217C627.619 265.01 627.911 264.85 628.23 264.738C628.549 264.626 628.887 264.57 629.243 264.57C629.84 264.57 630.387 264.719 630.882 265.018C631.377 265.313 631.774 265.722 632.073 266.245C632.372 266.764 632.521 267.359 632.521 268.031C632.521 268.676 632.377 269.266 632.088 269.803C631.8 270.335 631.394 270.759 630.872 271.075C630.353 271.387 629.742 271.54 629.039 271.533ZM629.039 270.413C629.467 270.413 629.85 270.306 630.19 270.093C630.532 269.879 630.802 269.592 630.999 269.232C631.199 268.873 631.299 268.472 631.299 268.031C631.299 267.6 631.203 267.208 631.009 266.855C630.819 266.499 630.556 266.216 630.22 266.005C629.888 265.795 629.508 265.69 629.08 265.69C628.758 265.69 628.457 265.754 628.179 265.883C627.901 266.009 627.657 266.182 627.446 266.402C627.239 266.623 627.076 266.876 626.958 267.161C626.839 267.443 626.779 267.739 626.779 268.052C626.779 268.466 626.876 268.852 627.07 269.212C627.266 269.572 627.534 269.862 627.874 270.083C628.217 270.303 628.605 270.413 629.039 270.413ZM641.75 271.554C641.017 271.554 640.386 271.38 639.857 271.034C639.327 270.688 638.92 270.211 638.635 269.604C638.35 268.997 638.208 268.303 638.208 267.522C638.208 266.728 638.354 266.028 638.645 265.42C638.941 264.809 639.351 264.333 639.877 263.99C640.407 263.644 641.024 263.471 641.73 263.471C642.28 263.471 642.775 263.572 643.216 263.776C643.657 263.98 644.019 264.265 644.3 264.631C644.582 264.998 644.757 265.425 644.825 265.914H643.623C643.532 265.558 643.328 265.242 643.013 264.967C642.7 264.689 642.28 264.55 641.75 264.55C641.282 264.55 640.871 264.672 640.519 264.916C640.169 265.157 639.896 265.498 639.699 265.939C639.506 266.377 639.409 266.891 639.409 267.482C639.409 268.086 639.504 268.612 639.694 269.059C639.887 269.507 640.159 269.855 640.508 270.103C640.861 270.351 641.275 270.474 641.75 270.474C642.062 270.474 642.346 270.42 642.6 270.312C642.855 270.203 643.07 270.047 643.247 269.843C643.423 269.64 643.549 269.395 643.623 269.11H644.825C644.757 269.572 644.589 269.987 644.321 270.357C644.056 270.724 643.705 271.016 643.267 271.233C642.833 271.447 642.327 271.554 641.75 271.554ZM646.581 271.391V263.572H647.741V264.794H647.843C648.006 264.377 648.269 264.053 648.632 263.822C648.995 263.588 649.431 263.471 649.94 263.471C650.456 263.471 650.885 263.588 651.228 263.822C651.574 264.053 651.844 264.377 652.037 264.794H652.119C652.319 264.39 652.619 264.07 653.019 263.832C653.42 263.591 653.9 263.471 654.46 263.471C655.159 263.471 655.731 263.69 656.175 264.127C656.62 264.562 656.842 265.239 656.842 266.158V271.391H655.641V266.158C655.641 265.581 655.483 265.169 655.167 264.921C654.852 264.674 654.48 264.55 654.053 264.55C653.503 264.55 653.077 264.716 652.775 265.049C652.473 265.378 652.322 265.795 652.322 266.301V271.391H651.101V266.036C651.101 265.591 650.956 265.233 650.668 264.962C650.379 264.687 650.008 264.55 649.553 264.55C649.241 264.55 648.949 264.633 648.678 264.799C648.41 264.965 648.192 265.196 648.026 265.491C647.863 265.783 647.782 266.121 647.782 266.504V271.391H646.581Z" fill="black"/>
<mask id="path-51-inside-15_1022_2433" fill="white">
<path d="M591.25 287.334H683.222V330.223H591.25V287.334Z"/>
</mask>
<path d="M591.25 287.334H683.222V330.223H591.25V287.334Z" fill="white" fill-opacity="0.01"/>
<path d="M591.25 287.334V286.14H590.056V287.334H591.25ZM591.25 288.528H683.222V286.14H591.25V288.528ZM592.444 330.223V287.334H590.056V330.223H592.444Z" fill="black" mask="url(#path-51-inside-15_1022_2433)"/>
<path d="M617.988 314.279L622.651 305.056V304.975H617.276V303.855H623.954V305.036L619.312 314.279H617.988ZM628.98 314.422C628.281 314.422 627.664 314.298 627.127 314.05C626.595 313.799 626.179 313.455 625.88 313.017C625.582 312.576 625.434 312.074 625.438 311.51C625.434 311.069 625.521 310.662 625.697 310.289C625.874 309.912 626.115 309.598 626.42 309.347C626.729 309.093 627.073 308.931 627.453 308.864V308.802C626.954 308.674 626.557 308.394 626.262 307.963C625.967 307.528 625.821 307.035 625.824 306.481C625.821 305.952 625.955 305.479 626.227 305.061C626.498 304.644 626.871 304.315 627.346 304.074C627.825 303.833 628.369 303.713 628.98 303.713C629.584 303.713 630.124 303.833 630.599 304.074C631.074 304.315 631.447 304.644 631.719 305.061C631.993 305.479 632.133 305.952 632.136 306.481C632.133 307.035 631.982 307.528 631.683 307.963C631.388 308.394 630.996 308.674 630.507 308.802V308.864C630.884 308.931 631.223 309.093 631.525 309.347C631.827 309.598 632.068 309.912 632.248 310.289C632.428 310.662 632.519 311.069 632.523 311.51C632.519 312.074 632.367 312.576 632.065 313.017C631.766 313.455 631.35 313.799 630.818 314.05C630.288 314.298 629.676 314.422 628.98 314.422ZM628.98 313.302C629.452 313.302 629.859 313.226 630.202 313.073C630.545 312.92 630.809 312.705 630.996 312.427C631.182 312.148 631.277 311.823 631.281 311.449C631.277 311.056 631.176 310.708 630.975 310.406C630.775 310.104 630.502 309.866 630.156 309.693C629.813 309.52 629.421 309.434 628.98 309.434C628.536 309.434 628.139 309.52 627.789 309.693C627.443 309.866 627.17 310.104 626.97 310.406C626.773 310.708 626.676 311.056 626.68 311.449C626.676 311.823 626.766 312.148 626.949 312.427C627.136 312.705 627.402 312.92 627.748 313.073C628.095 313.226 628.505 313.302 628.98 313.302ZM628.98 308.355C629.353 308.355 629.684 308.28 629.973 308.131C630.265 307.981 630.494 307.773 630.66 307.505C630.826 307.236 630.911 306.923 630.914 306.563C630.911 306.21 630.828 305.903 630.665 305.642C630.502 305.377 630.276 305.173 629.988 305.031C629.7 304.885 629.364 304.812 628.98 304.812C628.59 304.812 628.249 304.885 627.957 305.031C627.665 305.173 627.44 305.377 627.28 305.642C627.121 305.903 627.043 306.21 627.046 306.563C627.043 306.923 627.122 307.236 627.285 307.505C627.452 307.773 627.681 307.981 627.972 308.131C628.264 308.28 628.6 308.355 628.98 308.355ZM641.701 314.442C640.968 314.442 640.337 314.269 639.808 313.923C639.278 313.577 638.871 313.1 638.586 312.493C638.301 311.885 638.159 311.191 638.159 310.411C638.159 309.617 638.305 308.916 638.596 308.309C638.892 307.698 639.302 307.221 639.828 306.878C640.358 306.532 640.975 306.359 641.681 306.359C642.231 306.359 642.726 306.461 643.167 306.665C643.608 306.868 643.97 307.153 644.251 307.52C644.533 307.886 644.708 308.314 644.776 308.802H643.574C643.483 308.446 643.279 308.131 642.964 307.856C642.651 307.578 642.231 307.438 641.701 307.438C641.233 307.438 640.822 307.561 640.47 307.805C640.12 308.046 639.847 308.387 639.65 308.828C639.457 309.266 639.36 309.78 639.36 310.37C639.36 310.974 639.455 311.5 639.645 311.948C639.838 312.396 640.11 312.744 640.459 312.992C640.812 313.239 641.226 313.363 641.701 313.363C642.013 313.363 642.297 313.309 642.551 313.2C642.806 313.092 643.021 312.936 643.198 312.732C643.374 312.528 643.5 312.284 643.574 311.999H644.776C644.708 312.46 644.54 312.876 644.272 313.246C644.007 313.613 643.656 313.904 643.218 314.122C642.784 314.335 642.278 314.442 641.701 314.442ZM646.532 314.279V306.461H647.692V307.683H647.794C647.957 307.265 648.22 306.941 648.583 306.711C648.946 306.476 649.382 306.359 649.891 306.359C650.407 306.359 650.836 306.476 651.179 306.711C651.525 306.941 651.795 307.265 651.988 307.683H652.07C652.27 307.279 652.57 306.958 652.97 306.721C653.371 306.48 653.851 306.359 654.411 306.359C655.11 306.359 655.682 306.578 656.126 307.016C656.571 307.45 656.793 308.127 656.793 309.047V314.279H655.592V309.047C655.592 308.47 655.434 308.058 655.118 307.81C654.803 307.562 654.431 307.438 654.004 307.438C653.454 307.438 653.028 307.605 652.726 307.937C652.424 308.266 652.273 308.684 652.273 309.189V314.279H651.052V308.925C651.052 308.48 650.907 308.122 650.619 307.851C650.33 307.576 649.959 307.438 649.504 307.438C649.192 307.438 648.9 307.522 648.629 307.688C648.361 307.854 648.143 308.085 647.977 308.38C647.814 308.672 647.733 309.009 647.733 309.393V314.279H646.532Z" fill="black"/>
<mask id="path-54-inside-16_1022_2433" fill="white">
<path d="M591.25 330.223H683.222V373.112H591.25V330.223Z"/>
</mask>
<path d="M591.25 330.223H683.222V373.112H591.25V330.223Z" fill="white" fill-opacity="0.01"/>
<path d="M591.25 330.223V329.028H590.056V330.223H591.25ZM591.25 331.417H683.222V329.028H591.25V331.417ZM592.444 373.112V330.223H590.056V373.112H592.444Z" fill="black" mask="url(#path-54-inside-16_1022_2433)"/>
<path d="M621.66 357.31C620.961 357.31 620.343 357.187 619.807 356.939C619.274 356.688 618.858 356.343 618.56 355.906C618.261 355.465 618.114 354.962 618.117 354.399C618.114 353.958 618.2 353.551 618.377 353.177C618.553 352.801 618.794 352.487 619.099 352.236C619.408 351.981 619.753 351.82 620.133 351.752V351.691C619.634 351.562 619.237 351.282 618.942 350.851C618.646 350.417 618.5 349.923 618.504 349.37C618.5 348.841 618.634 348.367 618.906 347.95C619.177 347.533 619.551 347.204 620.026 346.963C620.504 346.722 621.049 346.601 621.66 346.601C622.264 346.601 622.803 346.722 623.278 346.963C623.753 347.204 624.127 347.533 624.398 347.95C624.673 348.367 624.812 348.841 624.815 349.37C624.812 349.923 624.661 350.417 624.362 350.851C624.067 351.282 623.675 351.562 623.187 351.691V351.752C623.563 351.82 623.903 351.981 624.205 352.236C624.507 352.487 624.747 352.801 624.927 353.177C625.107 353.551 625.199 353.958 625.202 354.399C625.199 354.962 625.046 355.465 624.744 355.906C624.445 356.343 624.03 356.688 623.497 356.939C622.968 357.187 622.355 357.31 621.66 357.31ZM621.66 356.191C622.131 356.191 622.538 356.114 622.881 355.962C623.224 355.809 623.489 355.593 623.675 355.315C623.862 355.037 623.957 354.711 623.96 354.338C623.957 353.944 623.855 353.597 623.655 353.295C623.455 352.993 623.181 352.755 622.835 352.582C622.493 352.409 622.101 352.322 621.66 352.322C621.215 352.322 620.818 352.409 620.469 352.582C620.122 352.755 619.849 352.993 619.649 353.295C619.452 353.597 619.356 353.944 619.359 354.338C619.356 354.711 619.445 355.037 619.629 355.315C619.815 355.593 620.082 355.809 620.428 355.962C620.774 356.114 621.185 356.191 621.66 356.191ZM621.66 351.243C622.033 351.243 622.364 351.169 622.652 351.019C622.944 350.87 623.173 350.661 623.339 350.393C623.506 350.125 623.59 349.811 623.594 349.452C623.59 349.099 623.507 348.792 623.344 348.53C623.181 348.266 622.956 348.062 622.667 347.92C622.379 347.774 622.043 347.701 621.66 347.701C621.269 347.701 620.928 347.774 620.636 347.92C620.345 348.062 620.119 348.266 619.96 348.53C619.8 348.792 619.722 349.099 619.725 349.452C619.722 349.811 619.802 350.125 619.965 350.393C620.131 350.661 620.36 350.87 620.652 351.019C620.944 351.169 621.28 351.243 621.66 351.243ZM630.818 346.744V357.168H629.555V348.067H629.494L626.949 349.757V348.474L629.555 346.744H630.818ZM641.043 357.331C640.31 357.331 639.679 357.158 639.15 356.812C638.621 356.466 638.213 355.989 637.928 355.381C637.643 354.774 637.501 354.08 637.501 353.3C637.501 352.506 637.647 351.805 637.939 351.197C638.234 350.587 638.644 350.11 639.17 349.767C639.7 349.421 640.317 349.248 641.023 349.248C641.573 349.248 642.068 349.35 642.509 349.553C642.95 349.757 643.312 350.042 643.593 350.408C643.875 350.775 644.05 351.203 644.118 351.691H642.917C642.825 351.335 642.621 351.019 642.306 350.744C641.994 350.466 641.573 350.327 641.043 350.327C640.575 350.327 640.165 350.449 639.812 350.694C639.462 350.934 639.189 351.275 638.992 351.717C638.799 352.154 638.702 352.668 638.702 353.259C638.702 353.863 638.797 354.389 638.987 354.837C639.18 355.285 639.452 355.632 639.801 355.88C640.154 356.128 640.568 356.252 641.043 356.252C641.356 356.252 641.639 356.197 641.893 356.089C642.148 355.98 642.363 355.824 642.54 355.621C642.716 355.417 642.842 355.173 642.917 354.888H644.118C644.05 355.349 643.882 355.765 643.614 356.135C643.349 356.501 642.998 356.793 642.56 357.01C642.126 357.224 641.62 357.331 641.043 357.331ZM645.874 357.168V349.35H647.034V350.571H647.136C647.299 350.154 647.562 349.83 647.925 349.599C648.288 349.365 648.724 349.248 649.233 349.248C649.749 349.248 650.178 349.365 650.521 349.599C650.867 349.83 651.137 350.154 651.33 350.571H651.412C651.612 350.168 651.912 349.847 652.313 349.609C652.713 349.368 653.193 349.248 653.753 349.248C654.452 349.248 655.024 349.467 655.468 349.905C655.913 350.339 656.135 351.016 656.135 351.935V357.168H654.934V351.935C654.934 351.359 654.776 350.946 654.461 350.699C654.145 350.451 653.773 350.327 653.346 350.327C652.796 350.327 652.37 350.493 652.068 350.826C651.766 351.155 651.615 351.572 651.615 352.078V357.168H650.394V351.813C650.394 351.369 650.249 351.011 649.961 350.739C649.673 350.464 649.301 350.327 648.846 350.327C648.534 350.327 648.242 350.41 647.971 350.576C647.703 350.743 647.486 350.973 647.319 351.269C647.156 351.561 647.075 351.898 647.075 352.282V357.168H645.874Z" fill="black"/>
</g>
<g clip-path="url(#clip3_1022_2433)">
<rect width="90.7778" height="343.111" transform="translate(683.223 30)" fill="white" fill-opacity="0.01"/>
<mask id="path-57-inside-17_1022_2433" fill="white">
<path d="M683.223 30H774V72.8889H683.223V30Z"/>
</mask>
<path d="M683.223 30H774V72.8889H683.223V30Z" fill="white" fill-opacity="0.05"/>
<path d="M683.223 30V28.8056H682.028V30H683.223ZM683.223 31.1944H774V28.8056H683.223V31.1944ZM684.417 72.8889V30H682.028V72.8889H684.417Z" fill="black" mask="url(#path-57-inside-17_1022_2433)"/>
<path d="M707.626 56.9453L704.684 46.5211H706.715L708.593 54.1815H708.689L710.695 46.5211H712.543L714.553 54.1866H714.645L716.523 46.5211H718.554L715.612 56.9453H713.749L711.662 49.631H711.581L709.489 56.9453H707.626ZM721.752 46.5211V56.9453H719.863V46.5211H721.752ZM727.329 56.9453H723.796V46.5211H727.4C728.435 46.5211 729.324 46.7298 730.067 47.1471C730.814 47.5611 731.387 48.1566 731.788 48.9337C732.188 49.7108 732.388 50.6405 732.388 51.723C732.388 52.8089 732.186 53.742 731.783 54.5225C731.382 55.303 730.804 55.9019 730.047 56.3192C729.294 56.7366 728.388 56.9453 727.329 56.9453ZM725.685 55.3114H727.237C727.963 55.3114 728.569 55.1791 729.054 54.9144C729.54 54.6463 729.904 54.2476 730.149 53.7183C730.393 53.1855 730.515 52.5204 730.515 51.723C730.515 50.9256 730.393 50.2639 730.149 49.7379C729.904 49.2086 729.543 48.8133 729.065 48.552C728.59 48.2873 727.999 48.1549 727.293 48.1549H725.685V55.3114ZM733.263 48.104V46.5211H741.58V48.104H738.358V56.9453H736.484V48.104H733.263ZM743.183 56.9453V46.5211H745.071V50.9341H749.902V46.5211H751.795V56.9453H749.902V52.517H745.071V56.9453H743.183Z" fill="black"/>
<mask id="path-60-inside-18_1022_2433" fill="white">
<path d="M683.223 72.8887H774V115.778H683.223V72.8887Z"/>
</mask>
<path d="M683.223 72.8887H774V115.778H683.223V72.8887Z" fill="white" fill-opacity="0.01"/>
<path d="M683.223 72.8887V71.6942H682.028V72.8887H683.223ZM683.223 74.0831H774V71.6942H683.223V74.0831ZM684.417 115.778V72.8887H682.028V115.778H684.417Z" fill="black" mask="url(#path-60-inside-18_1022_2433)"/>
<path d="M708.185 97.6962V96.6578L712.766 89.4097H713.519V91.0182H713.01L709.549 96.495V96.5764H715.718V97.6962H708.185ZM713.092 99.834V97.3806V96.8971V89.4097H714.293V99.834H713.092ZM720.965 99.9765C720.266 99.9765 719.648 99.8526 719.112 99.6049C718.579 99.3538 718.163 99.0094 717.865 98.5717C717.566 98.1305 717.419 97.6283 717.422 97.065C717.419 96.6239 717.505 96.2167 717.682 95.8435C717.858 95.4668 718.099 95.1529 718.404 94.9018C718.713 94.6473 719.057 94.4861 719.438 94.4183V94.3572C718.939 94.2282 718.542 93.9483 718.246 93.5173C717.951 93.083 717.805 92.5893 717.809 92.0362C717.805 91.5068 717.939 91.0334 718.211 90.6161C718.482 90.1987 718.856 89.8695 719.331 89.6286C719.809 89.3877 720.354 89.2672 720.965 89.2672C721.569 89.2672 722.108 89.3877 722.583 89.6286C723.058 89.8695 723.431 90.1987 723.703 90.6161C723.978 91.0334 724.117 91.5068 724.12 92.0362C724.117 92.5893 723.966 93.083 723.667 93.5173C723.372 93.9483 722.98 94.2282 722.492 94.3572V94.4183C722.868 94.4861 723.208 94.6473 723.51 94.9018C723.812 95.1529 724.052 95.4668 724.232 95.8435C724.412 96.2167 724.504 96.6239 724.507 97.065C724.504 97.6283 724.351 98.1305 724.049 98.5717C723.75 99.0094 723.335 99.3538 722.802 99.6049C722.273 99.8526 721.66 99.9765 720.965 99.9765ZM720.965 98.8567C721.436 98.8567 721.843 98.7804 722.186 98.6277C722.529 98.475 722.794 98.2595 722.98 97.9812C723.167 97.703 723.262 97.3772 723.265 97.004C723.262 96.6103 723.16 96.2625 722.96 95.9605C722.76 95.6585 722.486 95.421 722.14 95.2479C721.798 95.0749 721.406 94.9883 720.965 94.9883C720.52 94.9883 720.123 95.0749 719.773 95.2479C719.427 95.421 719.154 95.6585 718.954 95.9605C718.757 96.2625 718.66 96.6103 718.664 97.004C718.66 97.3772 718.75 97.703 718.934 97.9812C719.12 98.2595 719.387 98.475 719.733 98.6277C720.079 98.7804 720.489 98.8567 720.965 98.8567ZM720.965 93.9093C721.338 93.9093 721.669 93.8346 721.957 93.6853C722.249 93.536 722.478 93.3273 722.644 93.0592C722.81 92.7912 722.895 92.4773 722.899 92.1176C722.895 91.7647 722.812 91.4576 722.649 91.1963C722.486 90.9316 722.261 90.728 721.972 90.5855C721.684 90.4396 721.348 90.3667 720.965 90.3667C720.574 90.3667 720.233 90.4396 719.941 90.5855C719.65 90.728 719.424 90.9316 719.264 91.1963C719.105 91.4576 719.027 91.7647 719.03 92.1176C719.027 92.4773 719.107 92.7912 719.27 93.0592C719.436 93.3273 719.665 93.536 719.957 93.6853C720.249 93.8346 720.584 93.9093 720.965 93.9093ZM733.686 99.9969C732.953 99.9969 732.322 99.8238 731.792 99.4777C731.263 99.1316 730.856 98.6548 730.571 98.0474C730.286 97.44 730.143 96.7461 730.143 95.9656C730.143 95.1716 730.289 94.4709 730.581 93.8635C730.876 93.2527 731.287 92.7759 731.813 92.4332C732.342 92.0871 732.959 91.914 733.665 91.914C734.215 91.914 734.71 92.0158 735.152 92.2194C735.593 92.423 735.954 92.708 736.236 93.0745C736.517 93.441 736.692 93.8685 736.76 94.3572H735.559C735.467 94.0009 735.264 93.6853 734.948 93.4105C734.636 93.1322 734.215 92.9931 733.686 92.9931C733.217 92.9931 732.807 93.1152 732.454 93.3596C732.104 93.6005 731.831 93.9415 731.634 94.3826C731.441 94.8204 731.344 95.3345 731.344 95.9249C731.344 96.5289 731.439 97.0549 731.629 97.5028C731.823 97.9507 732.094 98.2985 732.444 98.5462C732.797 98.7939 733.211 98.9178 733.686 98.9178C733.998 98.9178 734.281 98.8635 734.536 98.7549C734.79 98.6463 735.006 98.4902 735.182 98.2866C735.359 98.083 735.484 97.8387 735.559 97.5537H736.76C736.692 98.0152 736.524 98.4309 736.256 98.8007C735.991 99.1672 735.64 99.459 735.202 99.6762C734.768 99.89 734.262 99.9969 733.686 99.9969ZM738.516 99.834V92.0158H739.677V93.2374H739.778C739.941 92.82 740.204 92.496 740.567 92.2652C740.93 92.0311 741.366 91.914 741.875 91.914C742.391 91.914 742.82 92.0311 743.163 92.2652C743.509 92.496 743.779 92.82 743.972 93.2374H744.054C744.254 92.8336 744.554 92.5129 744.955 92.2754C745.355 92.0345 745.835 91.914 746.395 91.914C747.094 91.914 747.666 92.1329 748.111 92.5706C748.555 93.005 748.777 93.6819 748.777 94.6015V99.834H747.576V94.6015C747.576 94.0246 747.418 93.6124 747.103 93.3646C746.787 93.1169 746.416 92.9931 745.988 92.9931C745.438 92.9931 745.012 93.1593 744.71 93.4919C744.408 93.821 744.257 94.2384 744.257 94.744V99.834H743.036V94.4793C743.036 94.0348 742.892 93.6768 742.603 93.4054C742.315 93.1305 741.943 92.9931 741.489 92.9931C741.176 92.9931 740.885 93.0762 740.613 93.2425C740.345 93.4088 740.128 93.6395 739.962 93.9347C739.799 94.2265 739.717 94.5642 739.717 94.9476V99.834H738.516Z" fill="black"/>
<mask id="path-63-inside-19_1022_2433" fill="white">
<path d="M683.223 115.777H774V158.666H683.223V115.777Z"/>
</mask>
<path d="M683.223 115.777H774V158.666H683.223V115.777Z" fill="white" fill-opacity="0.01"/>
<path d="M683.223 115.777V114.583H682.028V115.777H683.223ZM683.223 116.972H774V114.583H683.223V116.972ZM684.417 158.666V115.777H682.028V158.666H684.417Z" fill="black" mask="url(#path-63-inside-19_1022_2433)"/>
<path d="M711.862 142.865C711.265 142.865 710.727 142.746 710.248 142.509C709.77 142.271 709.386 141.946 709.098 141.532C708.809 141.118 708.652 140.646 708.625 140.117H709.846C709.894 140.588 710.107 140.978 710.487 141.287C710.871 141.593 711.329 141.745 711.862 141.745C712.289 141.745 712.669 141.645 713.002 141.445C713.338 141.245 713.601 140.97 713.791 140.621C713.984 140.268 714.081 139.869 714.081 139.424C714.081 138.97 713.981 138.564 713.781 138.208C713.584 137.848 713.312 137.565 712.966 137.358C712.62 137.151 712.225 137.046 711.78 137.042C711.461 137.039 711.134 137.088 710.798 137.19C710.462 137.288 710.185 137.416 709.968 137.572L708.787 137.429L709.419 132.298H714.834V133.418H710.477L710.111 136.493H710.172C710.386 136.323 710.654 136.182 710.976 136.07C711.298 135.958 711.634 135.902 711.984 135.902C712.622 135.902 713.19 136.055 713.689 136.36C714.191 136.662 714.585 137.076 714.87 137.602C715.158 138.128 715.303 138.729 715.303 139.404C715.303 140.069 715.153 140.663 714.855 141.185C714.559 141.705 714.152 142.115 713.633 142.417C713.114 142.716 712.523 142.865 711.862 142.865ZM720.725 142.865C719.958 142.865 719.305 142.656 718.765 142.239C718.225 141.818 717.813 141.209 717.528 140.412C717.243 139.611 717.101 138.644 717.101 137.511C717.101 136.384 717.243 135.422 717.528 134.625C717.817 133.824 718.231 133.213 718.77 132.792C719.313 132.368 719.965 132.156 720.725 132.156C721.485 132.156 722.135 132.368 722.674 132.792C723.217 133.213 723.631 133.824 723.916 134.625C724.205 135.422 724.349 136.384 724.349 137.511C724.349 138.644 724.206 139.611 723.921 140.412C723.636 141.209 723.224 141.818 722.684 142.239C722.145 142.656 721.492 142.865 720.725 142.865ZM720.725 141.745C721.485 141.745 722.075 141.379 722.496 140.646C722.917 139.913 723.127 138.868 723.127 137.511C723.127 136.608 723.03 135.839 722.837 135.205C722.647 134.57 722.372 134.087 722.012 133.754C721.656 133.422 721.227 133.255 720.725 133.255C719.971 133.255 719.383 133.627 718.958 134.37C718.534 135.11 718.322 136.157 718.322 137.511C718.322 138.413 718.417 139.18 718.607 139.811C718.797 140.442 719.07 140.923 719.427 141.252C719.786 141.581 720.219 141.745 720.725 141.745ZM733.511 142.886C732.778 142.886 732.147 142.712 731.617 142.366C731.088 142.02 730.681 141.543 730.396 140.936C730.111 140.329 729.968 139.635 729.968 138.854C729.968 138.06 730.114 137.36 730.406 136.752C730.701 136.141 731.112 135.665 731.638 135.322C732.167 134.976 732.784 134.803 733.49 134.803C734.04 134.803 734.535 134.904 734.977 135.108C735.418 135.312 735.779 135.597 736.061 135.963C736.342 136.33 736.517 136.757 736.585 137.246H735.384C735.292 136.89 735.089 136.574 734.773 136.299C734.461 136.021 734.04 135.882 733.511 135.882C733.042 135.882 732.632 136.004 732.279 136.248C731.929 136.489 731.656 136.83 731.459 137.271C731.266 137.709 731.169 138.223 731.169 138.814C731.169 139.418 731.264 139.944 731.454 140.391C731.648 140.839 731.919 141.187 732.269 141.435C732.622 141.683 733.036 141.806 733.511 141.806C733.823 141.806 734.106 141.752 734.361 141.644C734.615 141.535 734.831 141.379 735.007 141.175C735.184 140.972 735.309 140.727 735.384 140.442H736.585C736.517 140.904 736.349 141.32 736.081 141.689C735.816 142.056 735.465 142.348 735.027 142.565C734.593 142.779 734.088 142.886 733.511 142.886ZM738.341 142.723V134.904H739.502V136.126H739.603C739.766 135.709 740.029 135.385 740.392 135.154C740.755 134.92 741.191 134.803 741.7 134.803C742.216 134.803 742.645 134.92 742.988 135.154C743.334 135.385 743.604 135.709 743.797 136.126H743.879C744.079 135.722 744.379 135.402 744.78 135.164C745.18 134.923 745.66 134.803 746.22 134.803C746.919 134.803 747.491 135.022 747.936 135.459C748.38 135.894 748.602 136.571 748.602 137.49V142.723H747.401V137.49C747.401 136.913 747.243 136.501 746.928 136.253C746.612 136.006 746.241 135.882 745.813 135.882C745.263 135.882 744.838 136.048 744.536 136.381C744.234 136.71 744.083 137.127 744.083 137.633V142.723H742.861V137.368C742.861 136.923 742.717 136.565 742.428 136.294C742.14 136.019 741.768 135.882 741.314 135.882C741.001 135.882 740.71 135.965 740.438 136.131C740.17 136.297 739.953 136.528 739.787 136.823C739.624 137.115 739.542 137.453 739.542 137.836V142.723H738.341Z" fill="black"/>
<mask id="path-66-inside-20_1022_2433" fill="white">
<path d="M683.223 158.666H774V201.555H683.223V158.666Z"/>
</mask>
<path d="M683.223 158.666H774V201.555H683.223V158.666Z" fill="white" fill-opacity="0.01"/>
<path d="M683.223 158.666V157.472H682.028V158.666H683.223ZM683.223 159.86H774V157.472H683.223V159.86ZM684.417 201.555V158.666H682.028V201.555H684.417Z" fill="black" mask="url(#path-66-inside-20_1022_2433)"/>
<path d="M712.002 185.754C711.405 185.754 710.867 185.635 710.388 185.398C709.91 185.16 709.526 184.834 709.238 184.42C708.949 184.006 708.792 183.535 708.765 183.005H709.986C710.034 183.477 710.247 183.867 710.627 184.176C711.011 184.481 711.469 184.634 712.002 184.634C712.429 184.634 712.809 184.534 713.142 184.334C713.478 184.134 713.741 183.859 713.931 183.509C714.124 183.156 714.221 182.758 714.221 182.313C714.221 181.858 714.121 181.453 713.921 181.097C713.724 180.737 713.452 180.453 713.106 180.247C712.76 180.04 712.365 179.934 711.92 179.931C711.601 179.928 711.274 179.977 710.938 180.079C710.602 180.177 710.325 180.304 710.108 180.46L708.927 180.318L709.559 175.187H714.974V176.307H710.617L710.251 179.381H710.312C710.526 179.212 710.794 179.071 711.116 178.959C711.438 178.847 711.774 178.791 712.124 178.791C712.762 178.791 713.33 178.943 713.829 179.249C714.331 179.551 714.725 179.965 715.01 180.491C715.298 181.017 715.443 181.617 715.443 182.293C715.443 182.958 715.293 183.552 714.995 184.074C714.699 184.593 714.292 185.004 713.773 185.306C713.254 185.605 712.663 185.754 712.002 185.754ZM717.465 185.611V184.695L720.905 180.929C721.309 180.487 721.642 180.104 721.903 179.778C722.164 179.449 722.358 179.14 722.483 178.852C722.612 178.56 722.677 178.255 722.677 177.936C722.677 177.569 722.588 177.252 722.412 176.984C722.239 176.716 722.001 176.509 721.699 176.363C721.397 176.217 721.058 176.144 720.681 176.144C720.281 176.144 719.931 176.227 719.633 176.393C719.338 176.556 719.109 176.785 718.946 177.081C718.786 177.376 718.706 177.722 718.706 178.119H717.505C717.505 177.508 717.646 176.972 717.928 176.51C718.209 176.049 718.593 175.689 719.078 175.431C719.567 175.174 720.115 175.045 720.722 175.045C721.333 175.045 721.874 175.174 722.346 175.431C722.817 175.689 723.187 176.037 723.455 176.475C723.724 176.913 723.858 177.4 723.858 177.936C723.858 178.319 723.788 178.694 723.649 179.061C723.513 179.424 723.276 179.829 722.936 180.277C722.6 180.722 722.134 181.265 721.537 181.906L719.195 184.41V184.492H724.041V185.611H717.465ZM733.371 185.774C732.638 185.774 732.007 185.601 731.477 185.255C730.948 184.909 730.541 184.432 730.256 183.825C729.971 183.217 729.828 182.523 729.828 181.743C729.828 180.949 729.974 180.248 730.266 179.641C730.561 179.03 730.972 178.553 731.498 178.211C732.027 177.864 732.645 177.691 733.35 177.691C733.9 177.691 734.395 177.793 734.837 177.997C735.278 178.2 735.639 178.485 735.921 178.852C736.202 179.218 736.377 179.646 736.445 180.135H735.244C735.152 179.778 734.949 179.463 734.633 179.188C734.321 178.91 733.9 178.77 733.371 178.77C732.902 178.77 732.492 178.893 732.139 179.137C731.789 179.378 731.516 179.719 731.319 180.16C731.126 180.598 731.029 181.112 731.029 181.702C731.029 182.306 731.124 182.832 731.314 183.28C731.508 183.728 731.779 184.076 732.129 184.324C732.482 184.571 732.896 184.695 733.371 184.695C733.683 184.695 733.966 184.641 734.221 184.532C734.475 184.424 734.691 184.268 734.867 184.064C735.044 183.86 735.169 183.616 735.244 183.331H736.445C736.377 183.793 736.209 184.208 735.941 184.578C735.676 184.945 735.325 185.236 734.887 185.454C734.453 185.667 733.948 185.774 733.371 185.774ZM738.201 185.611V177.793H739.362V179.015H739.463C739.626 178.597 739.889 178.273 740.252 178.043C740.615 177.808 741.051 177.691 741.56 177.691C742.076 177.691 742.505 177.808 742.848 178.043C743.194 178.273 743.464 178.597 743.657 179.015H743.739C743.939 178.611 744.239 178.29 744.64 178.053C745.04 177.812 745.52 177.691 746.08 177.691C746.779 177.691 747.351 177.91 747.796 178.348C748.24 178.782 748.462 179.459 748.462 180.379V185.611H747.261V180.379C747.261 179.802 747.103 179.39 746.788 179.142C746.472 178.894 746.101 178.77 745.673 178.77C745.123 178.77 744.698 178.937 744.396 179.269C744.094 179.598 743.943 180.016 743.943 180.521V185.611H742.721V180.257C742.721 179.812 742.577 179.454 742.288 179.183C742 178.908 741.628 178.77 741.174 178.77C740.861 178.77 740.57 178.854 740.298 179.02C740.03 179.186 739.813 179.417 739.647 179.712C739.484 180.004 739.402 180.342 739.402 180.725V185.611H738.201Z" fill="black"/>
<mask id="path-69-inside-21_1022_2433" fill="white">
<path d="M683.223 201.555H774V244.444H683.223V201.555Z"/>
</mask>
<path d="M683.223 201.555H774V244.444H683.223V201.555Z" fill="white" fill-opacity="0.01"/>
<path d="M683.223 201.555V200.36H682.028V201.555H683.223ZM683.223 202.749H774V200.36H683.223V202.749ZM684.417 244.444V201.555H682.028V244.444H684.417Z" fill="black" mask="url(#path-69-inside-21_1022_2433)"/>
<path d="M711.743 228.643C711.146 228.643 710.608 228.524 710.129 228.286C709.651 228.049 709.267 227.723 708.979 227.309C708.691 226.895 708.533 226.423 708.506 225.894H709.727C709.775 226.366 709.988 226.756 710.369 227.065C710.752 227.37 711.21 227.523 711.743 227.523C712.17 227.523 712.55 227.423 712.883 227.222C713.219 227.022 713.482 226.747 713.672 226.398C713.865 226.045 713.962 225.646 713.962 225.202C713.962 224.747 713.862 224.342 713.662 223.985C713.465 223.626 713.193 223.342 712.847 223.135C712.501 222.928 712.106 222.823 711.661 222.82C711.342 222.816 711.015 222.865 710.679 222.967C710.343 223.066 710.066 223.193 709.849 223.349L708.668 223.206L709.3 218.076H714.715V219.196H710.358L709.992 222.27H710.053C710.267 222.1 710.535 221.959 710.857 221.847C711.18 221.735 711.515 221.679 711.865 221.679C712.503 221.679 713.071 221.832 713.57 222.138C714.072 222.44 714.466 222.854 714.751 223.379C715.039 223.905 715.184 224.506 715.184 225.181C715.184 225.846 715.034 226.44 714.736 226.963C714.44 227.482 714.033 227.893 713.514 228.195C712.995 228.493 712.404 228.643 711.743 228.643ZM716.961 226.362V225.324L721.542 218.076H722.296V219.684H721.787L718.325 225.161V225.242H724.494V226.362H716.961ZM721.868 228.5V226.047V225.563V218.076H723.069V228.5H721.868ZM733.63 228.663C732.897 228.663 732.266 228.49 731.736 228.144C731.207 227.798 730.8 227.321 730.515 226.713C730.23 226.106 730.087 225.412 730.087 224.632C730.087 223.838 730.233 223.137 730.525 222.529C730.82 221.919 731.231 221.442 731.757 221.099C732.286 220.753 732.903 220.58 733.609 220.58C734.159 220.58 734.654 220.682 735.096 220.885C735.537 221.089 735.898 221.374 736.18 221.741C736.461 222.107 736.636 222.535 736.704 223.023H735.503C735.411 222.667 735.208 222.351 734.892 222.076C734.58 221.798 734.159 221.659 733.63 221.659C733.161 221.659 732.751 221.781 732.398 222.026C732.048 222.266 731.775 222.608 731.578 223.049C731.385 223.486 731.288 224 731.288 224.591C731.288 225.195 731.383 225.721 731.573 226.169C731.767 226.617 732.038 226.965 732.388 227.212C732.741 227.46 733.155 227.584 733.63 227.584C733.942 227.584 734.225 227.53 734.48 227.421C734.734 227.312 734.95 227.156 735.126 226.953C735.303 226.749 735.428 226.505 735.503 226.22H736.704C736.636 226.681 736.468 227.097 736.2 227.467C735.935 227.833 735.584 228.125 735.146 228.342C734.712 228.556 734.206 228.663 733.63 228.663ZM738.46 228.5V220.682H739.621V221.903H739.722C739.885 221.486 740.148 221.162 740.511 220.931C740.874 220.697 741.31 220.58 741.819 220.58C742.335 220.58 742.764 220.697 743.107 220.931C743.453 221.162 743.723 221.486 743.916 221.903H743.998C744.198 221.5 744.498 221.179 744.899 220.941C745.299 220.7 745.779 220.58 746.339 220.58C747.038 220.58 747.61 220.799 748.055 221.237C748.499 221.671 748.721 222.348 748.721 223.268V228.5H747.52V223.268C747.52 222.691 747.362 222.278 747.047 222.031C746.731 221.783 746.36 221.659 745.932 221.659C745.382 221.659 744.956 221.825 744.654 222.158C744.352 222.487 744.201 222.904 744.201 223.41V228.5H742.98V223.145C742.98 222.701 742.836 222.343 742.547 222.071C742.259 221.797 741.887 221.659 741.433 221.659C741.12 221.659 740.829 221.742 740.557 221.908C740.289 222.075 740.072 222.306 739.906 222.601C739.743 222.893 739.661 223.23 739.661 223.614V228.5H738.46Z" fill="black"/>
<mask id="path-72-inside-22_1022_2433" fill="white">
<path d="M683.223 244.445H774V287.334H683.223V244.445Z"/>
</mask>
<path d="M683.223 244.445H774V287.334H683.223V244.445Z" fill="white" fill-opacity="0.01"/>
<path d="M683.223 244.445V243.251H682.028V244.445H683.223ZM683.223 245.64H774V243.251H683.223V245.64ZM684.417 287.334V244.445H682.028V287.334H684.417Z" fill="black" mask="url(#path-72-inside-22_1022_2433)"/>
<path d="M711.925 271.533C711.328 271.533 710.79 271.414 710.311 271.177C709.833 270.939 709.449 270.614 709.161 270.2C708.872 269.786 708.715 269.314 708.688 268.785H709.909C709.957 269.256 710.17 269.646 710.55 269.955C710.934 270.261 711.392 270.413 711.925 270.413C712.352 270.413 712.732 270.313 713.065 270.113C713.401 269.913 713.664 269.638 713.854 269.288C714.047 268.936 714.144 268.537 714.144 268.092C714.144 267.638 714.044 267.232 713.844 266.876C713.647 266.516 713.375 266.233 713.029 266.026C712.683 265.819 712.288 265.714 711.843 265.71C711.524 265.707 711.197 265.756 710.861 265.858C710.525 265.956 710.248 266.083 710.031 266.24L708.85 266.097L709.482 260.966H714.897V262.086H710.54L710.174 265.161H710.235C710.449 264.991 710.717 264.85 711.039 264.738C711.361 264.626 711.697 264.57 712.047 264.57C712.685 264.57 713.253 264.723 713.752 265.028C714.254 265.33 714.648 265.744 714.933 266.27C715.221 266.796 715.366 267.397 715.366 268.072C715.366 268.737 715.216 269.331 714.918 269.853C714.622 270.373 714.215 270.783 713.696 271.085C713.177 271.384 712.586 271.533 711.925 271.533ZM720.727 271.533C720.028 271.533 719.41 271.409 718.874 271.162C718.341 270.91 717.925 270.566 717.627 270.128C717.328 269.687 717.181 269.185 717.184 268.622C717.181 268.181 717.267 267.773 717.444 267.4C717.62 267.023 717.861 266.71 718.166 266.458C718.475 266.204 718.82 266.043 719.2 265.975V265.914C718.701 265.785 718.304 265.505 718.009 265.074C717.713 264.64 717.567 264.146 717.571 263.593C717.567 263.063 717.701 262.59 717.973 262.173C718.244 261.755 718.618 261.426 719.093 261.185C719.571 260.944 720.116 260.824 720.727 260.824C721.331 260.824 721.87 260.944 722.345 261.185C722.82 261.426 723.194 261.755 723.465 262.173C723.74 262.59 723.879 263.063 723.882 263.593C723.879 264.146 723.728 264.64 723.429 265.074C723.134 265.505 722.742 265.785 722.254 265.914V265.975C722.63 266.043 722.97 266.204 723.272 266.458C723.574 266.71 723.814 267.023 723.994 267.4C724.174 267.773 724.266 268.181 724.269 268.622C724.266 269.185 724.113 269.687 723.811 270.128C723.512 270.566 723.097 270.91 722.564 271.162C722.035 271.409 721.422 271.533 720.727 271.533ZM720.727 270.413C721.198 270.413 721.605 270.337 721.948 270.184C722.291 270.032 722.556 269.816 722.742 269.538C722.929 269.26 723.024 268.934 723.027 268.561C723.024 268.167 722.922 267.819 722.722 267.517C722.522 267.215 722.248 266.978 721.902 266.805C721.56 266.632 721.168 266.545 720.727 266.545C720.282 266.545 719.885 266.632 719.536 266.805C719.189 266.978 718.916 267.215 718.716 267.517C718.519 267.819 718.423 268.167 718.426 268.561C718.423 268.934 718.512 269.26 718.696 269.538C718.882 269.816 719.149 270.032 719.495 270.184C719.841 270.337 720.252 270.413 720.727 270.413ZM720.727 265.466C721.1 265.466 721.431 265.391 721.719 265.242C722.011 265.093 722.24 264.884 722.406 264.616C722.573 264.348 722.657 264.034 722.661 263.674C722.657 263.321 722.574 263.014 722.411 262.753C722.248 262.488 722.023 262.285 721.734 262.142C721.446 261.996 721.11 261.923 720.727 261.923C720.336 261.923 719.995 261.996 719.703 262.142C719.412 262.285 719.186 262.488 719.027 262.753C718.867 263.014 718.789 263.321 718.792 263.674C718.789 264.034 718.869 264.348 719.032 264.616C719.198 264.884 719.427 265.093 719.719 265.242C720.011 265.391 720.347 265.466 720.727 265.466ZM733.448 271.554C732.715 271.554 732.084 271.38 731.554 271.034C731.025 270.688 730.618 270.211 730.333 269.604C730.048 268.997 729.905 268.303 729.905 267.522C729.905 266.728 730.051 266.028 730.343 265.42C730.638 264.809 731.049 264.333 731.575 263.99C732.104 263.644 732.721 263.471 733.427 263.471C733.977 263.471 734.472 263.572 734.914 263.776C735.355 263.98 735.716 264.265 735.998 264.631C736.279 264.998 736.454 265.425 736.522 265.914H735.321C735.229 265.558 735.026 265.242 734.71 264.967C734.398 264.689 733.977 264.55 733.448 264.55C732.979 264.55 732.569 264.672 732.216 264.916C731.866 265.157 731.593 265.498 731.396 265.939C731.203 266.377 731.106 266.891 731.106 267.482C731.106 268.086 731.201 268.612 731.391 269.059C731.585 269.507 731.856 269.855 732.206 270.103C732.559 270.351 732.973 270.474 733.448 270.474C733.76 270.474 734.043 270.42 734.298 270.312C734.552 270.203 734.768 270.047 734.944 269.843C735.121 269.64 735.246 269.395 735.321 269.11H736.522C736.454 269.572 736.286 269.987 736.018 270.357C735.753 270.724 735.402 271.016 734.964 271.233C734.53 271.447 734.025 271.554 733.448 271.554ZM738.278 271.391V263.572H739.439V264.794H739.54C739.703 264.377 739.966 264.053 740.329 263.822C740.692 263.588 741.128 263.471 741.637 263.471C742.153 263.471 742.582 263.588 742.925 263.822C743.271 264.053 743.541 264.377 743.734 264.794H743.816C744.016 264.39 744.316 264.07 744.717 263.832C745.117 263.591 745.597 263.471 746.157 263.471C746.856 263.471 747.428 263.69 747.873 264.127C748.317 264.562 748.539 265.239 748.539 266.158V271.391H747.338V266.158C747.338 265.581 747.18 265.169 746.865 264.921C746.549 264.674 746.178 264.55 745.75 264.55C745.2 264.55 744.775 264.716 744.473 265.049C744.171 265.378 744.02 265.795 744.02 266.301V271.391H742.798V266.036C742.798 265.591 742.654 265.233 742.365 264.962C742.077 264.687 741.705 264.55 741.251 264.55C740.938 264.55 740.647 264.633 740.375 264.799C740.107 264.965 739.89 265.196 739.724 265.491C739.561 265.783 739.479 266.121 739.479 266.504V271.391H738.278Z" fill="black"/>
<mask id="path-75-inside-23_1022_2433" fill="white">
<path d="M683.223 287.334H774V330.223H683.223V287.334Z"/>
</mask>
<path d="M683.223 287.334H774V330.223H683.223V287.334Z" fill="white" fill-opacity="0.01"/>
<path d="M683.223 287.334V286.14H682.028V287.334H683.223ZM683.223 288.528H774V286.14H683.223V288.528ZM684.417 330.223V287.334H682.028V330.223H684.417Z" fill="black" mask="url(#path-75-inside-23_1022_2433)"/>
<path d="M712.093 314.422C711.666 314.415 711.238 314.334 710.811 314.177C710.383 314.021 709.993 313.758 709.64 313.389C709.287 313.015 709.004 312.511 708.79 311.877C708.576 311.239 708.469 310.438 708.469 309.474C708.469 308.551 708.556 307.734 708.729 307.021C708.902 306.305 709.153 305.703 709.482 305.214C709.811 304.722 710.208 304.349 710.673 304.094C711.142 303.84 711.669 303.713 712.256 303.713C712.84 303.713 713.359 303.83 713.814 304.064C714.272 304.294 714.645 304.617 714.934 305.031C715.222 305.445 715.409 305.922 715.493 306.461H714.252C714.136 305.993 713.912 305.604 713.58 305.296C713.247 304.987 712.806 304.832 712.256 304.832C711.449 304.832 710.812 305.184 710.348 305.886C709.886 306.588 709.654 307.574 709.65 308.843H709.732C709.922 308.555 710.147 308.309 710.409 308.105C710.673 307.898 710.965 307.739 711.284 307.627C711.603 307.515 711.941 307.459 712.297 307.459C712.894 307.459 713.441 307.608 713.936 307.907C714.431 308.202 714.828 308.611 715.127 309.133C715.426 309.653 715.575 310.248 715.575 310.92C715.575 311.565 715.431 312.155 715.142 312.691C714.854 313.224 714.448 313.648 713.926 313.964C713.407 314.276 712.796 314.429 712.093 314.422ZM712.093 313.302C712.521 313.302 712.904 313.195 713.244 312.981C713.586 312.768 713.856 312.481 714.053 312.121C714.253 311.761 714.353 311.361 714.353 310.92C714.353 310.489 714.257 310.097 714.063 309.744C713.873 309.388 713.61 309.105 713.274 308.894C712.942 308.684 712.562 308.579 712.134 308.579C711.812 308.579 711.511 308.643 711.233 308.772C710.955 308.898 710.711 309.071 710.5 309.291C710.293 309.512 710.13 309.765 710.012 310.05C709.893 310.331 709.833 310.628 709.833 310.94C709.833 311.354 709.93 311.741 710.124 312.101C710.32 312.46 710.588 312.751 710.928 312.971C711.27 313.192 711.659 313.302 712.093 313.302ZM717.577 314.279V313.363L721.017 309.597C721.421 309.155 721.754 308.772 722.015 308.446C722.276 308.117 722.47 307.808 722.595 307.52C722.724 307.228 722.789 306.923 722.789 306.604C722.789 306.237 722.7 305.92 722.524 305.652C722.351 305.384 722.113 305.177 721.811 305.031C721.509 304.885 721.17 304.812 720.793 304.812C720.393 304.812 720.043 304.895 719.745 305.061C719.45 305.224 719.221 305.453 719.058 305.749C718.898 306.044 718.818 306.39 718.818 306.787H717.617C717.617 306.176 717.758 305.64 718.04 305.178C718.321 304.717 718.705 304.357 719.19 304.099C719.679 303.841 720.227 303.713 720.834 303.713C721.445 303.713 721.986 303.841 722.458 304.099C722.929 304.357 723.299 304.705 723.567 305.143C723.835 305.581 723.97 306.067 723.97 306.604C723.97 306.987 723.9 307.362 723.761 307.729C723.625 308.092 723.388 308.497 723.048 308.945C722.712 309.39 722.246 309.932 721.648 310.574L719.307 313.078V313.16H724.153V314.279H717.577ZM733.483 314.442C732.75 314.442 732.119 314.269 731.589 313.923C731.06 313.577 730.653 313.1 730.368 312.493C730.083 311.885 729.94 311.191 729.94 310.411C729.94 309.617 730.086 308.916 730.378 308.309C730.673 307.698 731.084 307.221 731.61 306.878C732.139 306.532 732.756 306.359 733.462 306.359C734.012 306.359 734.507 306.461 734.949 306.665C735.39 306.868 735.751 307.153 736.033 307.52C736.314 307.886 736.489 308.314 736.557 308.802H735.356C735.264 308.446 735.061 308.131 734.745 307.856C734.433 307.578 734.012 307.438 733.483 307.438C733.014 307.438 732.604 307.561 732.251 307.805C731.901 308.046 731.628 308.387 731.431 308.828C731.238 309.266 731.141 309.78 731.141 310.37C731.141 310.974 731.236 311.5 731.426 311.948C731.62 312.396 731.891 312.744 732.241 312.992C732.594 313.239 733.008 313.363 733.483 313.363C733.795 313.363 734.078 313.309 734.333 313.2C734.587 313.092 734.803 312.936 734.979 312.732C735.156 312.528 735.281 312.284 735.356 311.999H736.557C736.489 312.46 736.321 312.876 736.053 313.246C735.788 313.613 735.437 313.904 734.999 314.122C734.565 314.335 734.06 314.442 733.483 314.442ZM738.313 314.279V306.461H739.474V307.683H739.575C739.738 307.265 740.001 306.941 740.364 306.711C740.727 306.476 741.163 306.359 741.672 306.359C742.188 306.359 742.617 306.476 742.96 306.711C743.306 306.941 743.576 307.265 743.769 307.683H743.851C744.051 307.279 744.351 306.958 744.752 306.721C745.152 306.48 745.632 306.359 746.192 306.359C746.891 306.359 747.463 306.578 747.908 307.016C748.352 307.45 748.574 308.127 748.574 309.047V314.279H747.373V309.047C747.373 308.47 747.215 308.058 746.9 307.81C746.584 307.562 746.213 307.438 745.785 307.438C745.235 307.438 744.81 307.605 744.508 307.937C744.206 308.266 744.055 308.684 744.055 309.189V314.279H742.833V308.925C742.833 308.48 742.689 308.122 742.4 307.851C742.112 307.576 741.74 307.438 741.286 307.438C740.973 307.438 740.682 307.522 740.41 307.688C740.142 307.854 739.925 308.085 739.759 308.38C739.596 308.672 739.514 309.009 739.514 309.393V314.279H738.313Z" fill="black"/>
<mask id="path-78-inside-24_1022_2433" fill="white">
<path d="M683.223 330.223H774V373.112H683.223V330.223Z"/>
</mask>
<path d="M683.223 330.223H774V373.112H683.223V330.223Z" fill="white" fill-opacity="0.01"/>
<path d="M683.223 330.223V329.028H682.028V330.223H683.223ZM683.223 331.417H774V329.028H683.223V331.417ZM684.417 373.112V330.223H682.028V373.112H684.417Z" fill="black" mask="url(#path-78-inside-24_1022_2433)"/>
<path d="M711.96 357.31C711.533 357.304 711.105 357.222 710.678 357.066C710.25 356.91 709.86 356.647 709.507 356.277C709.154 355.904 708.871 355.4 708.657 354.766C708.443 354.128 708.336 353.327 708.336 352.363C708.336 351.44 708.423 350.622 708.596 349.91C708.769 349.194 709.02 348.591 709.349 348.103C709.678 347.611 710.075 347.237 710.54 346.983C711.009 346.728 711.536 346.601 712.123 346.601C712.707 346.601 713.226 346.718 713.681 346.952C714.139 347.183 714.512 347.506 714.801 347.92C715.089 348.333 715.276 348.81 715.36 349.35H714.119C714.003 348.882 713.779 348.493 713.447 348.184C713.114 347.875 712.673 347.721 712.123 347.721C711.316 347.721 710.679 348.072 710.215 348.775C709.753 349.477 709.521 350.463 709.517 351.732H709.599C709.789 351.443 710.014 351.197 710.276 350.994C710.54 350.787 710.832 350.627 711.151 350.515C711.47 350.403 711.808 350.347 712.164 350.347C712.761 350.347 713.308 350.497 713.803 350.795C714.298 351.091 714.695 351.499 714.994 352.022C715.293 352.541 715.442 353.137 715.442 353.809C715.442 354.453 715.298 355.044 715.009 355.58C714.721 356.113 714.315 356.537 713.793 356.852C713.274 357.165 712.663 357.317 711.96 357.31ZM711.96 356.191C712.388 356.191 712.771 356.084 713.111 355.87C713.453 355.656 713.723 355.37 713.92 355.01C714.12 354.65 714.22 354.25 714.22 353.809C714.22 353.378 714.124 352.986 713.93 352.633C713.74 352.277 713.477 351.993 713.141 351.783C712.809 351.572 712.429 351.467 712.001 351.467C711.679 351.467 711.378 351.532 711.1 351.661C710.822 351.786 710.578 351.959 710.367 352.18C710.16 352.4 709.997 352.653 709.879 352.938C709.76 353.22 709.7 353.517 709.7 353.829C709.7 354.243 709.797 354.63 709.991 354.989C710.187 355.349 710.455 355.639 710.795 355.86C711.138 356.08 711.526 356.191 711.96 356.191ZM720.905 357.31C720.477 357.304 720.05 357.222 719.622 357.066C719.194 356.91 718.804 356.647 718.451 356.277C718.098 355.904 717.815 355.4 717.601 354.766C717.388 354.128 717.281 353.327 717.281 352.363C717.281 351.44 717.367 350.622 717.54 349.91C717.713 349.194 717.964 348.591 718.294 348.103C718.623 347.611 719.02 347.237 719.485 346.983C719.953 346.728 720.481 346.601 721.068 346.601C721.651 346.601 722.17 346.718 722.625 346.952C723.083 347.183 723.456 347.506 723.745 347.92C724.033 348.333 724.22 348.81 724.305 349.35H723.063C722.947 348.882 722.724 348.493 722.391 348.184C722.058 347.875 721.617 347.721 721.068 347.721C720.26 347.721 719.624 348.072 719.159 348.775C718.697 349.477 718.465 350.463 718.462 351.732H718.543C718.733 351.443 718.959 351.197 719.22 350.994C719.485 350.787 719.776 350.627 720.095 350.515C720.414 350.403 720.752 350.347 721.108 350.347C721.706 350.347 722.252 350.497 722.747 350.795C723.243 351.091 723.64 351.499 723.938 352.022C724.237 352.541 724.386 353.137 724.386 353.809C724.386 354.453 724.242 355.044 723.954 355.58C723.665 356.113 723.26 356.537 722.737 356.852C722.218 357.165 721.607 357.317 720.905 357.31ZM720.905 356.191C721.332 356.191 721.716 356.084 722.055 355.87C722.398 355.656 722.668 355.37 722.864 355.01C723.065 354.65 723.165 354.25 723.165 353.809C723.165 353.378 723.068 352.986 722.875 352.633C722.685 352.277 722.422 351.993 722.086 351.783C721.753 351.572 721.373 351.467 720.945 351.467C720.623 351.467 720.323 351.532 720.045 351.661C719.766 351.786 719.522 351.959 719.312 352.18C719.105 352.4 718.942 352.653 718.823 352.938C718.704 353.22 718.645 353.517 718.645 353.829C718.645 354.243 718.741 354.63 718.935 354.989C719.132 355.349 719.4 355.639 719.739 355.86C720.082 356.08 720.47 356.191 720.905 356.191ZM733.616 357.331C732.883 357.331 732.252 357.158 731.722 356.812C731.193 356.466 730.786 355.989 730.501 355.381C730.216 354.774 730.073 354.08 730.073 353.3C730.073 352.506 730.219 351.805 730.511 351.197C730.806 350.587 731.217 350.11 731.743 349.767C732.272 349.421 732.889 349.248 733.595 349.248C734.145 349.248 734.64 349.35 735.082 349.553C735.523 349.757 735.884 350.042 736.166 350.408C736.447 350.775 736.622 351.203 736.69 351.691H735.489C735.397 351.335 735.194 351.019 734.878 350.744C734.566 350.466 734.145 350.327 733.616 350.327C733.147 350.327 732.737 350.449 732.384 350.694C732.034 350.934 731.761 351.275 731.564 351.717C731.371 352.154 731.274 352.668 731.274 353.259C731.274 353.863 731.369 354.389 731.559 354.837C731.753 355.285 732.024 355.632 732.374 355.88C732.727 356.128 733.141 356.252 733.616 356.252C733.928 356.252 734.211 356.197 734.466 356.089C734.72 355.98 734.936 355.824 735.112 355.621C735.289 355.417 735.414 355.173 735.489 354.888H736.69C736.622 355.349 736.454 355.765 736.186 356.135C735.921 356.501 735.57 356.793 735.132 357.01C734.698 357.224 734.192 357.331 733.616 357.331ZM738.446 357.168V349.35H739.607V350.571H739.708C739.871 350.154 740.134 349.83 740.497 349.599C740.86 349.365 741.296 349.248 741.805 349.248C742.321 349.248 742.75 349.365 743.093 349.599C743.439 349.83 743.709 350.154 743.902 350.571H743.984C744.184 350.168 744.484 349.847 744.885 349.609C745.285 349.368 745.765 349.248 746.325 349.248C747.024 349.248 747.596 349.467 748.041 349.905C748.485 350.339 748.707 351.016 748.707 351.935V357.168H747.506V351.935C747.506 351.359 747.348 350.946 747.033 350.699C746.717 350.451 746.346 350.327 745.918 350.327C745.368 350.327 744.942 350.493 744.64 350.826C744.338 351.155 744.187 351.572 744.187 352.078V357.168H742.966V351.813C742.966 351.369 742.822 351.011 742.533 350.739C742.245 350.464 741.873 350.327 741.419 350.327C741.106 350.327 740.815 350.41 740.543 350.576C740.275 350.743 740.058 350.973 739.892 351.269C739.729 351.561 739.647 351.898 739.647 352.282V357.168H738.446Z" fill="black"/>
</g>
</g>
<rect x="516.597" y="30.5972" width="256.806" height="341.917" rx="4.18056" stroke="black" stroke-width="1.19444"/>
<defs>
<clipPath id="clip0_1022_2433">
<rect x="516" y="30" width="258" height="343.111" rx="4.77778" fill="white"/>
</clipPath>
<clipPath id="clip1_1022_2433">
<rect width="75.25" height="343.111" fill="white" transform="translate(516 30)"/>
</clipPath>
<clipPath id="clip2_1022_2433">
<rect width="91.9722" height="343.111" fill="white" transform="translate(591.25 30)"/>
</clipPath>
<clipPath id="clip3_1022_2433">
<rect width="90.7778" height="343.111" fill="white" transform="translate(683.223 30)"/>
</clipPath>
</defs>
</svg>
