<svg width="232" height="421" viewBox="0 0 232 421" fill="none" xmlns="http://www.w3.org/2000/svg">
<g filter="url(#filter0_ii_280_3508)">
<mask id="mask0_280_3508" style="mask-type:alpha" maskUnits="userSpaceOnUse" x="40" y="40" width="341" height="341">
<path d="M233.118 204.455C238.825 160.969 242.308 102.71 237.66 83.9633C230.001 53.0653 198.743 34.2249 167.843 41.8846C136.944 49.5443 118.105 80.8035 125.765 111.702C130.412 130.448 160.703 180.335 186.061 216.12C180.354 259.606 176.871 317.865 181.518 336.612C189.178 367.51 220.436 386.35 251.335 378.69C282.234 371.031 301.073 339.771 293.414 308.873C288.767 290.127 258.475 240.24 233.118 204.455Z" fill="white"/>
<path d="M204.455 187.18C160.97 181.473 102.71 177.99 83.9634 182.637C53.0643 190.297 34.225 221.555 41.8847 252.454C49.5444 283.353 80.8025 302.193 111.702 294.533C130.448 289.886 180.336 259.594 216.12 234.237C259.605 239.944 317.865 243.426 336.612 238.779C367.511 231.119 386.35 199.861 378.69 168.962C371.031 138.063 339.773 119.224 308.873 126.884C290.127 131.531 240.239 161.822 204.455 187.18Z" fill="white"/>
</mask>
<g mask="url(#mask0_280_3508)">
<rect x="-210.149" y="-43.165" width="520.5" height="520.5" transform="rotate(-13.9226 -210.149 -43.165)" fill="url(#paint0_linear_280_3508)"/>
</g>
</g>
<defs>
<filter id="filter0_ii_280_3508" x="38.1777" y="29.7677" width="349.16" height="357.569" filterUnits="userSpaceOnUse" color-interpolation-filters="sRGB">
<feFlood flood-opacity="0" result="BackgroundImageFix"/>
<feBlend mode="normal" in="SourceGraphic" in2="BackgroundImageFix" result="shape"/>
<feColorMatrix in="SourceAlpha" type="matrix" values="0 0 0 0 0 0 0 0 0 0 0 0 0 0 0 0 0 0 127 0" result="hardAlpha"/>
<feOffset dx="-2" dy="-10.41"/>
<feGaussianBlur stdDeviation="6.94"/>
<feComposite in2="hardAlpha" operator="arithmetic" k2="-1" k3="1"/>
<feColorMatrix type="matrix" values="0 0 0 0 0 0 0 0 0 0 0 0 0 0 0 0 0 0 0.2 0"/>
<feBlend mode="normal" in2="shape" result="effect1_innerShadow_280_3508"/>
<feColorMatrix in="SourceAlpha" type="matrix" values="0 0 0 0 0 0 0 0 0 0 0 0 0 0 0 0 0 0 127 0" result="hardAlpha"/>
<feOffset dx="10.41" dy="10.41"/>
<feGaussianBlur stdDeviation="3.47"/>
<feComposite in2="hardAlpha" operator="arithmetic" k2="-1" k3="1"/>
<feColorMatrix type="matrix" values="0 0 0 0 1 0 0 0 0 1 0 0 0 0 1 0 0 0 0.25 0"/>
<feBlend mode="normal" in2="effect1_innerShadow_280_3508" result="effect2_innerShadow_280_3508"/>
</filter>
<linearGradient id="paint0_linear_280_3508" x1="67.0691" y1="148.327" x2="131.434" y2="561.966" gradientUnits="userSpaceOnUse">
<stop stop-color="#C3D1E4"/>
<stop offset="1" stop-color="#E1E6ED" stop-opacity="0"/>
</linearGradient>
</defs>
</svg>
