<svg width="428" height="97" viewBox="0 0 428 97" fill="none" xmlns="http://www.w3.org/2000/svg">
<path d="M36.9693 66.8182C36.9693 70.7836 36.2176 74.1572 34.7143 76.9389C33.2228 79.7206 31.1868 81.8454 28.6064 83.3132C26.0377 84.7692 23.1494 85.4972 19.9416 85.4972C16.71 85.4972 13.81 84.7633 11.2413 83.2955C8.67264 81.8277 6.64258 79.7029 5.1511 76.9212C3.65962 74.1394 2.91388 70.7718 2.91388 66.8182C2.91388 62.8527 3.65962 59.4792 5.1511 56.6974C6.64258 53.9157 8.67264 51.7969 11.2413 50.3409C13.81 48.8731 16.71 48.1392 19.9416 48.1392C23.1494 48.1392 26.0377 48.8731 28.6064 50.3409C31.1868 51.7969 33.2228 53.9157 34.7143 56.6974C36.2176 59.4792 36.9693 62.8527 36.9693 66.8182ZM29.1745 66.8182C29.1745 64.2495 28.7898 62.0833 28.0204 60.3196C27.2628 58.5559 26.1916 57.2183 24.8066 56.3068C23.4217 55.3954 21.8 54.9396 19.9416 54.9396C18.0832 54.9396 16.4615 55.3954 15.0765 56.3068C13.6916 57.2183 12.6144 58.5559 11.845 60.3196C11.0874 62.0833 10.7086 64.2495 10.7086 66.8182C10.7086 69.3868 11.0874 71.553 11.845 73.3168C12.6144 75.0805 13.6916 76.4181 15.0765 77.3295C16.4615 78.241 18.0832 78.6967 19.9416 78.6967C21.8 78.6967 23.4217 78.241 24.8066 77.3295C26.1916 76.4181 27.2628 75.0805 28.0204 73.3168C28.7898 71.553 29.1745 69.3868 29.1745 66.8182ZM60.0117 73.3878V57.7273H67.5756V85H60.3136V80.0462H60.0295C59.4139 81.6442 58.39 82.9285 56.9577 83.8991C55.5373 84.8698 53.8031 85.3551 51.7553 85.3551C49.9324 85.3551 48.3285 84.9408 46.9435 84.1122C45.5586 83.2836 44.4755 82.1058 43.6942 80.5788C42.9248 79.0518 42.5342 77.223 42.5224 75.0923V57.7273H50.0863V73.7429C50.0981 75.3527 50.5302 76.6252 51.3825 77.5604C52.2347 78.4955 53.377 78.9631 54.8093 78.9631C55.7208 78.9631 56.573 78.7559 57.3661 78.3416C58.1592 77.9155 58.7984 77.2881 59.2837 76.4595C59.7809 75.6309 60.0236 74.607 60.0117 73.3878Z" fill="black"/>
<path d="M76.7165 69.2798C70.1258 72.6388 70.7848 80.163 71.312 85H86.0746V67.3988C86.8649 63.771 88.8425 65.9208 88.8425 67.3988V70.7578H104V60.5464C104 55.0645 99.4308 52.6191 97.1462 52.0816C91.7686 51.2217 88.0513 57.3665 86.8649 60.5464C86.3373 54.312 81.9005 52.3056 79.748 52.0816H71.312L71.8397 67.3988L77.6391 66.9957C85.9692 63.556 83.3896 56.9266 81.0171 54.0154C85.024 54.8753 85.2349 58.718 84.8395 61.4052C83.126 66.9957 79.5723 67.4435 76.7165 69.2798Z" fill="black"/>
<path d="M135.528 85H127.289L139.843 48.6364H149.75L162.286 85H154.047L144.938 56.946H144.654L135.528 85ZM135.013 70.7067H154.473V76.7081H135.013V70.7067ZM207.171 57.7273V63.4091H190.747V57.7273H207.171ZM194.476 51.1932H202.04V76.6193C202.04 77.3177 202.146 77.8622 202.36 78.2528C202.573 78.6316 202.869 78.898 203.247 79.0518C203.638 79.2057 204.088 79.2827 204.597 79.2827C204.952 79.2827 205.307 79.2531 205.662 79.1939C206.017 79.1229 206.289 79.0696 206.479 79.0341L207.669 84.6626C207.29 84.781 206.757 84.9171 206.07 85.071C205.384 85.2367 204.549 85.3374 203.567 85.3729C201.744 85.4439 200.146 85.2012 198.773 84.6449C197.412 84.0885 196.352 83.2244 195.595 82.0526C194.837 80.8807 194.464 79.401 194.476 77.6136V51.1932ZM213.099 85V57.7273H220.662V85H213.099ZM216.898 54.2116C215.774 54.2116 214.809 53.8388 214.004 53.093C213.211 52.3355 212.814 51.4299 212.814 50.3764C212.814 49.3348 213.211 48.4411 214.004 47.6953C214.809 46.9377 215.774 46.5589 216.898 46.5589C218.023 46.5589 218.982 46.9377 219.775 47.6953C220.58 48.4411 220.982 49.3348 220.982 50.3764C220.982 51.4299 220.58 52.3355 219.775 53.093C218.982 53.8388 218.023 54.2116 216.898 54.2116ZM253.148 57.7273L243.613 85H235.09L225.555 57.7273H233.545L239.21 77.2408H239.494L245.14 57.7273H253.148ZM258.018 85V57.7273H265.582V85H258.018ZM261.818 54.2116C260.694 54.2116 259.729 53.8388 258.924 53.093C258.131 52.3355 257.734 51.4299 257.734 50.3764C257.734 49.3348 258.131 48.4411 258.924 47.6953C259.729 46.9377 260.694 46.5589 261.818 46.5589C262.943 46.5589 263.902 46.9377 264.695 47.6953C265.5 48.4411 265.902 49.3348 265.902 50.3764C265.902 51.4299 265.5 52.3355 264.695 53.093C263.902 53.8388 262.943 54.2116 261.818 54.2116ZM287.148 57.7273V63.4091H270.724V57.7273H287.148ZM274.453 51.1932H282.017V76.6193C282.017 77.3177 282.123 77.8622 282.336 78.2528C282.549 78.6316 282.845 78.898 283.224 79.0518C283.615 79.2057 284.064 79.2827 284.573 79.2827C284.928 79.2827 285.284 79.2531 285.639 79.1939C285.994 79.1229 286.266 79.0696 286.455 79.0341L287.645 84.6626C287.266 84.781 286.734 84.9171 286.047 85.071C285.36 85.2367 284.526 85.3374 283.544 85.3729C281.721 85.4439 280.123 85.2012 278.749 84.6449C277.388 84.0885 276.329 83.2244 275.571 82.0526C274.814 80.8807 274.441 79.401 274.453 77.6136V51.1932ZM293.075 85V57.7273H300.639V85H293.075ZM296.875 54.2116C295.75 54.2116 294.786 53.8388 293.981 53.093C293.188 52.3355 292.791 51.4299 292.791 50.3764C292.791 49.3348 293.188 48.4411 293.981 47.6953C294.786 46.9377 295.75 46.5589 296.875 46.5589C297.999 46.5589 298.958 46.9377 299.751 47.6953C300.556 48.4411 300.959 49.3348 300.959 50.3764C300.959 51.4299 300.556 52.3355 299.751 53.093C298.958 53.8388 297.999 54.2116 296.875 54.2116ZM355.534 65.5043L348.61 65.9304C348.491 65.3385 348.237 64.8059 347.846 64.3324C347.456 63.8471 346.941 63.4624 346.301 63.1783C345.674 62.8823 344.922 62.7344 344.047 62.7344C342.875 62.7344 341.886 62.983 341.081 63.4801C340.276 63.9654 339.874 64.6165 339.874 65.4332C339.874 66.0843 340.134 66.6347 340.655 67.0845C341.176 67.5343 342.07 67.8954 343.336 68.1676L348.272 69.1619C350.924 69.7064 352.901 70.5824 354.203 71.7898C355.505 72.9972 356.156 74.5833 356.156 76.5483C356.156 78.3357 355.629 79.9041 354.576 81.2536C353.534 82.603 352.102 83.6565 350.279 84.4141C348.468 85.1598 346.378 85.5327 344.011 85.5327C340.401 85.5327 337.524 84.781 335.382 83.2777C333.251 81.7625 332.002 79.7029 331.635 77.0987L339.075 76.7081C339.3 77.8089 339.844 78.6494 340.708 79.2294C341.573 79.7976 342.679 80.0817 344.029 80.0817C345.355 80.0817 346.42 79.8272 347.225 79.3182C348.042 78.7973 348.456 78.1286 348.468 77.3118C348.456 76.6252 348.166 76.063 347.598 75.625C347.029 75.1752 346.154 74.8319 344.97 74.5952L340.247 73.6541C337.583 73.1214 335.601 72.1982 334.299 70.8842C333.008 69.5703 332.363 67.8954 332.363 65.8594C332.363 64.1075 332.837 62.5982 333.784 61.3317C334.743 60.0651 336.086 59.0885 337.814 58.402C339.554 57.7154 341.59 57.3722 343.922 57.3722C347.367 57.3722 350.078 58.1001 352.054 59.5561C354.043 61.0121 355.203 62.9948 355.534 65.5043Z" fill="black"/>
<path d="M326.396 83.2251C332.598 80.7536 329.571 75.7244 326.396 76.1385C321.762 77.7387 312.107 81.4904 310.027 81.9678C308.346 82.3538 307.449 81.9678 306.888 81.282C305.991 80.1847 307.485 78.7198 308.346 78.3102C311.858 76.6388 320.095 74.5383 320.454 74.5383C324.526 73.3241 326.209 71.757 326.396 70.7664C327.217 68.2518 324.975 66.5803 323.257 65.9658L309.579 64.137C308.832 64.137 307.597 64.137 307.597 62.8084C307.597 61.3889 308.158 60.857 310.288 60.7511C314.885 60.5224 324.243 61.6452 326.396 61.7366C328.548 61.8281 329.161 60.6317 329.199 60.0221C330.096 56.2731 322.396 56.2193 318.324 56.0216C310.79 55.6558 305.656 60.0221 304.31 62.4224C300.441 69.3231 306.104 70.8045 308.906 70.4235L314.4 68.2518C316.566 67.3805 317.315 66.9945 318.324 66.9945C319.818 67.4948 317.988 68.8614 317.315 69.2805C314.4 70.9188 307.987 74.9726 305.655 78.0816C303.323 81.1906 306.627 83.4918 308.57 84.2538C313.234 85.9912 322.398 84.2919 326.396 83.2251Z" fill="black"/>
<path d="M186 58.6775V63.4467H181.574V60.787H179.665V58.6775H171.421V60.787H169.165V78.213H171.421V80.6894H179.665V78.213H181.574V75.645H186V80.6894H183.744V82.8905H181.574V85H169.165V82.8905H166.996V80.6894H165V58.6775H166.996V56.3846H169.165V54H181.574V56.3846H183.744V58.6775H186Z" fill="black" stroke="black"/>
<g filter="url(#filter0_ii_283_5039)">
<mask id="mask0_283_5039" style="mask-type:alpha" maskUnits="userSpaceOnUse" x="367" y="6" width="54" height="54">
<path d="M384.832 9.67799C385.09 6.8638 388.71 5.88962 390.346 8.19402L399.518 21.1138C400.032 21.8383 400.837 22.3019 401.722 22.3831L417.5 23.8317C420.314 24.0901 421.288 27.7099 418.984 29.3458L406.064 38.5176C405.34 39.0319 404.876 39.837 404.795 40.7218L403.346 56.4997C403.088 59.3139 399.468 60.2881 397.832 57.9837L388.66 45.0639C388.146 44.3395 387.341 43.8758 386.456 43.7946L370.678 42.346C367.864 42.0876 366.89 38.4678 369.194 36.8319L382.114 27.6601C382.838 27.1458 383.302 26.3407 383.383 25.456L384.832 9.67799Z" fill="white"/>
</mask>
<g mask="url(#mask0_283_5039)">
<rect x="358.333" y="4.12573" width="64.26" height="64.26" transform="rotate(-15.0627 358.333 4.12573)" fill="#82A6C8"/>
</g>
</g>
<defs>
<filter id="filter0_ii_283_5039" x="366.288" y="5.2882" width="55.0613" height="55.0613" filterUnits="userSpaceOnUse" color-interpolation-filters="sRGB">
<feFlood flood-opacity="0" result="BackgroundImageFix"/>
<feBlend mode="normal" in="SourceGraphic" in2="BackgroundImageFix" result="shape"/>
<feColorMatrix in="SourceAlpha" type="matrix" values="0 0 0 0 0 0 0 0 0 0 0 0 0 0 0 0 0 0 127 0" result="hardAlpha"/>
<feOffset dx="-1.62" dy="-1.62"/>
<feGaussianBlur stdDeviation="1.08"/>
<feComposite in2="hardAlpha" operator="arithmetic" k2="-1" k3="1"/>
<feColorMatrix type="matrix" values="0 0 0 0 0 0 0 0 0 0 0 0 0 0 0 0 0 0 0.2 0"/>
<feBlend mode="normal" in2="shape" result="effect1_innerShadow_283_5039"/>
<feColorMatrix in="SourceAlpha" type="matrix" values="0 0 0 0 0 0 0 0 0 0 0 0 0 0 0 0 0 0 127 0" result="hardAlpha"/>
<feOffset dx="1.62" dy="1.62"/>
<feGaussianBlur stdDeviation="0.54"/>
<feComposite in2="hardAlpha" operator="arithmetic" k2="-1" k3="1"/>
<feColorMatrix type="matrix" values="0 0 0 0 1 0 0 0 0 1 0 0 0 0 1 0 0 0 0.25 0"/>
<feBlend mode="normal" in2="effect1_innerShadow_283_5039" result="effect2_innerShadow_283_5039"/>
</filter>
</defs>
</svg>
