<svg width="32" height="32" viewBox="0 0 32 32" fill="none" xmlns="http://www.w3.org/2000/svg">
<g id="Group 40529">
<path id="Vector" d="M26.673 3.45312H4.50108C2.6643 3.45312 1.17529 4.94213 1.17529 6.77892V26.7337C1.17529 28.5704 2.6643 30.0595 4.50108 30.0595H26.673C28.5098 30.0595 29.9988 28.5704 29.9988 26.7337V6.77892C29.9988 4.94213 28.5098 3.45312 26.673 3.45312Z" stroke="black" stroke-width="2.34389" stroke-linejoin="round"/>
<path id="Vector_2" d="M18.3582 15.6481C19.2766 15.6481 20.0211 14.9036 20.0211 13.9852C20.0211 13.0668 19.2766 12.3223 18.3582 12.3223C17.4398 12.3223 16.6953 13.0668 16.6953 13.9852C16.6953 14.9036 17.4398 15.6481 18.3582 15.6481Z" fill="black"/>
<path id="Vector_3" d="M23.9012 15.6481C24.8196 15.6481 25.5641 14.9036 25.5641 13.9852C25.5641 13.0668 24.8196 12.3223 23.9012 12.3223C22.9828 12.3223 22.2383 13.0668 22.2383 13.9852C22.2383 14.9036 22.9828 15.6481 23.9012 15.6481Z" fill="black"/>
<path id="Vector_4" d="M18.3582 21.19C19.2766 21.19 20.0211 20.4455 20.0211 19.5272C20.0211 18.6088 19.2766 17.8643 18.3582 17.8643C17.4398 17.8643 16.6953 18.6088 16.6953 19.5272C16.6953 20.4455 17.4398 21.19 18.3582 21.19Z" fill="black"/>
<path id="Vector_5" d="M23.9012 21.19C24.8196 21.19 25.5641 20.4455 25.5641 19.5272C25.5641 18.6088 24.8196 17.8643 23.9012 17.8643C22.9828 17.8643 22.2383 18.6088 22.2383 19.5272C22.2383 20.4455 22.9828 21.19 23.9012 21.19Z" fill="black"/>
<path id="Vector_6" d="M7.27227 21.19C8.19066 21.19 8.93517 20.4455 8.93517 19.5272C8.93517 18.6088 8.19066 17.8643 7.27227 17.8643C6.35388 17.8643 5.60938 18.6088 5.60938 19.5272C5.60938 20.4455 6.35388 21.19 7.27227 21.19Z" fill="black"/>
<path id="Vector_7" d="M12.8162 21.19C13.7346 21.19 14.4791 20.4455 14.4791 19.5272C14.4791 18.6088 13.7346 17.8643 12.8162 17.8643C11.8978 17.8643 11.1533 18.6088 11.1533 19.5272C11.1533 20.4455 11.8978 21.19 12.8162 21.19Z" fill="black"/>
<path id="Vector_8" d="M7.27227 26.735C8.19066 26.735 8.93517 25.9905 8.93517 25.0721C8.93517 24.1537 8.19066 23.4092 7.27227 23.4092C6.35388 23.4092 5.60938 24.1537 5.60938 25.0721C5.60938 25.9905 6.35388 26.735 7.27227 26.735Z" fill="black"/>
<path id="Vector_9" d="M12.8162 26.735C13.7346 26.735 14.4791 25.9905 14.4791 25.0721C14.4791 24.1537 13.7346 23.4092 12.8162 23.4092C11.8978 23.4092 11.1533 24.1537 11.1533 25.0721C11.1533 25.9905 11.8978 26.735 12.8162 26.735Z" fill="black"/>
<path id="Vector_10" d="M18.3582 26.735C19.2766 26.735 20.0211 25.9905 20.0211 25.0721C20.0211 24.1537 19.2766 23.4092 18.3582 23.4092C17.4398 23.4092 16.6953 24.1537 16.6953 25.0721C16.6953 25.9905 17.4398 26.735 18.3582 26.735Z" fill="black"/>
<path id="Vector_11" d="M6.71826 1.23633V3.45352M24.4558 1.23633V3.45352" stroke="black" stroke-width="2.34389" stroke-linecap="round" stroke-linejoin="round"/>
<path id="Vector_12" d="M29.9988 8.99707H1.17529" stroke="black" stroke-width="2.34389" stroke-linejoin="round"/>
</g>
</svg>
