<svg width="29" height="29" viewBox="0 0 29 29" fill="none" xmlns="http://www.w3.org/2000/svg">
<path id="Vector" d="M14.4113 0.0585938C6.45103 0.0585938 -0.000488281 6.51011 -0.000488281 14.4704C-0.000488281 22.4306 6.45103 28.8821 14.4113 28.8821C22.3715 28.8821 28.823 22.4306 28.823 14.4704C28.823 6.51011 22.3715 0.0585938 14.4113 0.0585938ZM14.4113 26.4783C7.77961 26.4783 2.40335 21.102 2.40335 14.4704C2.40335 7.8387 7.77961 2.46243 14.4113 2.46243C21.0429 2.46243 26.4192 7.8387 26.4192 14.4704C26.4192 21.102 21.0429 26.4783 14.4113 26.4783ZM13.2122 13.2713L8.4045 18.0733L10.206 19.8748L15.6104 14.4704V4.86064H13.2065V13.2713H13.2122Z" fill="black"/>
</svg>
