<svg width="654" height="608" viewBox="0 0 654 608" fill="none" xmlns="http://www.w3.org/2000/svg">
<path fill-rule="evenodd" clip-rule="evenodd" d="M599.718 47.345L637.756 44.3301C637.938 44.3064 638.123 44.3094 638.304 44.339C638.663 44.3973 638.995 44.5624 639.257 44.8123L651.424 56.0453C651.554 56.1454 651.67 56.2624 651.769 56.393C651.909 56.5838 652.01 56.8002 652.064 57.0296C652.119 57.2589 652.126 57.4966 652.086 57.7285L646.112 94.0376C646.072 94.2781 645.982 94.5077 645.849 94.7124C645.716 94.917 645.541 95.0923 645.336 95.2274C645.227 95.3026 645.109 95.365 644.985 95.4135L629.819 102.175C629.718 102.219 629.614 102.255 629.507 102.282L629.31 102.318L629.234 102.305L628.994 102.266L628.918 102.253L628.821 102.237C628.64 102.207 628.464 102.151 628.299 102.07L593.087 87.0666C592.717 86.909 592.412 86.6338 592.219 86.2848C592.026 85.9358 591.956 85.5334 592.022 85.1419L598.009 48.7536L598.035 48.5995L598.064 48.6044L598.07 48.5669L598.076 48.5336L598.082 48.4961L598.089 48.4545L598.094 48.4211L598.1 48.3878L598.105 48.3545L598.109 48.3337L598.114 48.3004L598.12 48.267L598.16 48.2053L598.165 48.1761L598.168 48.1553L598.173 48.1303L598.176 48.1095L598.18 48.0845L598.185 48.0553L598.19 48.022L598.195 47.9928L598.199 47.9679L598.203 47.9429L598.207 47.922L598.211 47.8971L598.637 47.7575L598.641 47.7283L598.671 47.7075L598.675 47.6825L598.738 47.6672L598.741 47.6464L598.771 47.6256L598.804 47.6055L598.837 47.5895L598.863 47.5936L598.888 47.5978L598.913 47.602L599.09 47.6311L599.116 47.6353L599.18 47.6117L599.214 47.6172L599.239 47.6214L599.269 47.6262L599.298 47.6311L599.328 47.6359L599.353 47.6401L599.382 47.6449L599.565 47.3756L599.603 47.3818L599.721 47.3756L599.718 47.345ZM639.25 49.6705L638.241 55.8011L645.791 55.7044L639.25 49.6705ZM637.651 59.3871L632.967 87.8538L642.896 91.3482L648.177 59.2539L637.651 59.3871ZM632.378 91.4355L631.369 97.5662L639.498 93.946L632.378 91.4355ZM627.645 98.0185L628.928 90.2219L611.033 83.911L599.818 86.0738L627.646 98.0102L627.645 98.0185ZM629.518 86.636L633.994 59.4312L616.709 59.6457L613.215 80.8864L629.519 86.6277L629.518 86.636ZM634.584 55.8453L635.867 48.0487L605.681 50.4394L615.612 56.0815L634.584 55.8453ZM613.195 58.7937L601.135 51.9414L595.991 83.2027L609.611 80.5759L613.195 58.7937Z" fill="#434343"/>
<path d="M283.462 93.6406H274.258C274.286 92.419 274.13 91.3395 273.789 90.402C273.448 89.4503 272.936 88.6406 272.255 87.973C271.587 87.3054 270.77 86.8011 269.804 86.4602C268.838 86.1051 267.752 85.9276 266.544 85.9276C264.215 85.9276 262.077 86.5099 260.131 87.6747C258.185 88.8395 256.544 90.5298 255.209 92.7457C253.874 94.9474 252.951 97.6108 252.439 100.736C251.942 103.747 251.971 106.268 252.525 108.3C253.079 110.331 254.059 111.865 255.465 112.902C256.885 113.925 258.654 114.436 260.77 114.436C262.077 114.436 263.32 114.273 264.499 113.946C265.678 113.605 266.75 113.122 267.716 112.497C268.696 111.858 269.549 111.084 270.273 110.175C271.012 109.266 271.587 108.236 271.999 107.085H281.267C280.685 109.088 279.776 111.02 278.54 112.881C277.319 114.741 275.806 116.403 274.002 117.866C272.198 119.315 270.145 120.466 267.844 121.318C265.543 122.17 263.022 122.597 260.28 122.597C256.317 122.597 252.915 121.688 250.074 119.869C247.248 118.051 245.209 115.43 243.959 112.007C242.709 108.584 242.475 104.457 243.256 99.6278C244.037 94.9545 245.564 90.9915 247.837 87.7386C250.124 84.4716 252.901 81.9929 256.168 80.3026C259.449 78.6122 262.958 77.767 266.694 77.767C269.293 77.767 271.644 78.1222 273.746 78.8324C275.848 79.5426 277.638 80.5795 279.115 81.9432C280.607 83.2926 281.729 84.9474 282.482 86.9077C283.235 88.8679 283.561 91.1122 283.462 93.6406ZM287.041 122L292.496 89.2727H301.572L296.118 122H287.041ZM297.972 85.0114C296.622 85.0114 295.507 84.5639 294.626 83.669C293.76 82.7599 293.405 81.6804 293.561 80.4304C293.717 79.152 294.328 78.0724 295.393 77.1918C296.459 76.2969 297.666 75.8494 299.016 75.8494C300.365 75.8494 301.466 76.2969 302.318 77.1918C303.17 78.0724 303.526 79.152 303.384 80.4304C303.241 81.6804 302.638 82.7599 301.572 83.669C300.521 84.5639 299.321 85.0114 297.972 85.0114ZM341.155 89.2727L324.258 122H314.031L308.044 89.2727H317.291L320.189 112.689H320.53L331.204 89.2727H341.155ZM342.145 122L347.6 89.2727H356.676L351.222 122H342.145ZM353.075 85.0114C351.726 85.0114 350.611 84.5639 349.73 83.669C348.864 82.7599 348.509 81.6804 348.665 80.4304C348.821 79.152 349.432 78.0724 350.497 77.1918C351.563 76.2969 352.77 75.8494 354.12 75.8494C355.469 75.8494 356.57 76.2969 357.422 77.1918C358.274 78.0724 358.629 79.152 358.487 80.4304C358.345 81.6804 357.742 82.7599 356.676 83.669C355.625 84.5639 354.425 85.0114 353.075 85.0114ZM407.523 122L414.768 78.3636H444.171L442.893 85.9702H422.715L421.011 96.3679H439.675L438.397 103.974H419.732L418.028 114.393H438.29L437.012 122H407.523ZM458.931 89.2727L463.022 100.714L471.097 89.2727H480.408L468.199 105.636L475.209 122H465.941L461.36 110.686L453.135 122H443.76L456.204 105.636L449.556 89.2727H458.931ZM480.163 134.273L487.705 89.2727H496.654L495.738 94.7699H496.143C496.683 93.8892 497.4 92.9943 498.295 92.0852C499.204 91.1619 500.333 90.3949 501.683 89.7841C503.032 89.1591 504.616 88.8466 506.434 88.8466C508.835 88.8466 510.93 89.4716 512.72 90.7216C514.509 91.9574 515.802 93.8253 516.597 96.3253C517.407 98.8111 517.499 101.929 516.874 105.679C516.278 109.33 515.177 112.412 513.572 114.926C511.981 117.426 510.07 119.322 507.84 120.615C505.624 121.893 503.274 122.533 500.788 122.533C499.026 122.533 497.578 122.241 496.441 121.659C495.319 121.077 494.445 120.345 493.82 119.464C493.195 118.57 492.755 117.668 492.499 116.759H492.158L489.261 134.273H480.163ZM493.863 105.636C493.551 107.582 493.536 109.28 493.82 110.729C494.119 112.178 494.715 113.307 495.61 114.116C496.505 114.912 497.684 115.31 499.147 115.31C500.624 115.31 501.938 114.905 503.089 114.095C504.239 113.271 505.198 112.135 505.965 110.686C506.732 109.223 507.279 107.54 507.606 105.636C507.904 103.747 507.911 102.085 507.627 100.651C507.343 99.2159 506.761 98.0937 505.88 97.2841C504.999 96.4744 503.806 96.0696 502.301 96.0696C500.837 96.0696 499.524 96.4602 498.359 97.2415C497.208 98.0227 496.249 99.1307 495.482 100.565C494.715 102 494.176 103.69 493.863 105.636Z" fill="black"/>
<path d="M383.579 77.0214L369.202 74.5101L367.139 86.318C366.769 88.4368 364.049 90.6303 362.735 91.4621C358.266 94.7754 359.986 97.919 361.405 99.0765C364.37 100.231 364.407 102.823 364.055 103.975L360.74 122.955L375.117 125.467L378.586 105.603C378.803 99.1816 370.574 97.9489 366.432 98.1352C361.878 97.7945 361.453 97.0758 361.81 96.7591C361.121 95.0013 366.148 95.0151 368.747 95.2416C376.813 94.649 380.621 90.7198 381.516 88.8292L383.579 77.0214Z" fill="black"/>
<ellipse cx="538.709" cy="104.975" rx="17.4564" ry="17.2836" fill="black"/>
<ellipse cx="538.936" cy="104.677" rx="6.56776" ry="16.5922" transform="rotate(-29.4687 538.936 104.677)" fill="#E1E6ED"/>
<path d="M424.298 146.909V176H420.776V146.909H424.298ZM429.771 150.034V146.909H451.589V150.034H442.441V176H438.918V150.034H429.771ZM472.935 154.182C472.764 152.742 472.073 151.625 470.861 150.83C469.649 150.034 468.162 149.636 466.401 149.636C465.113 149.636 463.986 149.845 463.02 150.261C462.064 150.678 461.315 151.251 460.776 151.98C460.245 152.709 459.98 153.538 459.98 154.466C459.98 155.242 460.165 155.91 460.534 156.469C460.913 157.018 461.396 157.477 461.983 157.847C462.57 158.206 463.186 158.505 463.83 158.741C464.474 158.969 465.065 159.153 465.605 159.295L468.56 160.091C469.317 160.29 470.16 160.564 471.088 160.915C472.026 161.265 472.921 161.743 473.773 162.349C474.635 162.946 475.345 163.713 475.903 164.651C476.462 165.588 476.742 166.739 476.742 168.102C476.742 169.674 476.33 171.095 475.506 172.364C474.691 173.633 473.498 174.641 471.926 175.389C470.364 176.137 468.465 176.511 466.23 176.511C464.147 176.511 462.343 176.175 460.818 175.503C459.303 174.83 458.11 173.893 457.239 172.69C456.377 171.488 455.889 170.091 455.776 168.5H459.412C459.507 169.598 459.876 170.508 460.52 171.227C461.173 171.937 461.997 172.468 462.992 172.818C463.995 173.159 465.075 173.33 466.23 173.33C467.575 173.33 468.782 173.112 469.852 172.676C470.922 172.231 471.77 171.616 472.395 170.83C473.02 170.034 473.332 169.106 473.332 168.045C473.332 167.08 473.063 166.294 472.523 165.688C471.983 165.081 471.273 164.589 470.392 164.21C469.511 163.831 468.56 163.5 467.537 163.216L463.957 162.193C461.685 161.54 459.886 160.607 458.56 159.395C457.234 158.183 456.571 156.597 456.571 154.636C456.571 153.008 457.011 151.587 457.892 150.375C458.782 149.153 459.975 148.206 461.472 147.534C462.977 146.852 464.658 146.511 466.514 146.511C468.389 146.511 470.056 146.848 471.514 147.52C472.973 148.183 474.128 149.092 474.98 150.247C475.842 151.402 476.296 152.714 476.344 154.182H472.935ZM491.518 176V172.193L501.617 162.293C502.583 161.317 503.388 160.451 504.032 159.693C504.676 158.936 505.159 158.202 505.481 157.491C505.803 156.781 505.964 156.024 505.964 155.219C505.964 154.3 505.756 153.514 505.339 152.861C504.922 152.198 504.349 151.687 503.62 151.327C502.891 150.967 502.062 150.787 501.134 150.787C500.178 150.787 499.34 150.986 498.62 151.384C497.9 151.772 497.342 152.326 496.944 153.045C496.556 153.765 496.362 154.622 496.362 155.616H491.347C491.347 153.77 491.769 152.165 492.612 150.801C493.454 149.437 494.614 148.382 496.092 147.634C497.578 146.885 499.283 146.511 501.205 146.511C503.156 146.511 504.87 146.876 506.347 147.605C507.825 148.334 508.97 149.333 509.785 150.602C510.609 151.871 511.021 153.32 511.021 154.949C511.021 156.038 510.812 157.108 510.396 158.159C509.979 159.21 509.245 160.375 508.194 161.653C507.152 162.932 505.689 164.48 503.805 166.298L498.791 171.398V171.597H511.461V176H491.518ZM527.114 176.554C524.775 176.554 522.768 175.962 521.092 174.778C519.425 173.585 518.142 171.866 517.242 169.622C516.352 167.368 515.907 164.655 515.907 161.483C515.917 158.311 516.366 155.612 517.256 153.386C518.156 151.152 519.439 149.447 521.106 148.273C522.782 147.098 524.785 146.511 527.114 146.511C529.444 146.511 531.447 147.098 533.123 148.273C534.799 149.447 536.082 151.152 536.972 153.386C537.872 155.621 538.322 158.32 538.322 161.483C538.322 164.665 537.872 167.383 536.972 169.636C536.082 171.881 534.799 173.595 533.123 174.778C531.456 175.962 529.453 176.554 527.114 176.554ZM527.114 172.108C528.933 172.108 530.367 171.213 531.418 169.423C532.479 167.624 533.009 164.977 533.009 161.483C533.009 159.172 532.768 157.231 532.285 155.659C531.802 154.087 531.12 152.903 530.239 152.108C529.359 151.303 528.317 150.901 527.114 150.901C525.306 150.901 523.876 151.8 522.825 153.599C521.774 155.389 521.243 158.017 521.234 161.483C521.224 163.803 521.456 165.754 521.93 167.335C522.413 168.917 523.095 170.11 523.975 170.915C524.856 171.71 525.902 172.108 527.114 172.108ZM543.041 176V172.193L553.141 162.293C554.107 161.317 554.912 160.451 555.555 159.693C556.199 158.936 556.682 158.202 557.004 157.491C557.326 156.781 557.487 156.024 557.487 155.219C557.487 154.3 557.279 153.514 556.862 152.861C556.446 152.198 555.873 151.687 555.144 151.327C554.414 150.967 553.586 150.787 552.658 150.787C551.701 150.787 550.863 150.986 550.144 151.384C549.424 151.772 548.865 152.326 548.467 153.045C548.079 153.765 547.885 154.622 547.885 155.616H542.871C542.871 153.77 543.292 152.165 544.135 150.801C544.978 149.437 546.138 148.382 547.615 147.634C549.102 146.885 550.806 146.511 552.729 146.511C554.68 146.511 556.394 146.876 557.871 147.605C559.348 148.334 560.494 149.333 561.308 150.602C562.132 151.871 562.544 153.32 562.544 154.949C562.544 156.038 562.336 157.108 561.919 158.159C561.502 159.21 560.769 160.375 559.717 161.653C558.676 162.932 557.213 164.48 555.328 166.298L550.314 171.398V171.597H562.984V176H543.041Z" fill="black"/>
<path d="M569.693 149V153.17C571.103 152.205 572.851 151.524 573.548 151.305C576.357 149.823 579.861 149.82 580.302 149.82C583.076 149.82 582.745 150.536 582.745 151.305C582.393 153.149 578.488 155.497 576.543 156.576C574.428 158.376 574.576 160.341 574.705 160.963C574.529 162.016 576.228 162.938 577.348 163.542L581.093 164.914L584.617 166.054C589.023 168.161 586.453 170.261 584.617 171.047C578.097 173.462 572.924 171.261 570.795 169.743L569.253 173.145C573.262 176.481 578.596 176.218 580.763 175.669C583.002 175.248 587.624 173.266 588.197 168.7C588.77 164.134 584.801 161.932 582.745 161.402C582.213 161.219 580.487 160.688 577.844 160.03C575.2 159.371 576.742 157.634 577.844 156.847C579.551 155.75 583.615 153.105 586.214 151.305C588.814 149.505 587.591 149.018 586.655 149H569.693Z" fill="black" stroke="black" stroke-width="2"/>
<path d="M333.087 58L320.601 14.3636H330.679L337.902 44.6832H338.264L346.233 14.3636H354.862L362.81 44.7472H363.193L370.416 14.3636H380.494L368.009 58H359.017L350.707 29.4702H350.367L342.078 58H333.087ZM396.139 39.0795V58H387.062V14.3636H395.883V31.0469H396.266C397.005 29.1151 398.198 27.6023 399.846 26.5085C401.494 25.4006 403.56 24.8466 406.046 24.8466C408.319 24.8466 410.3 25.3437 411.991 26.3381C413.695 27.3182 415.016 28.7315 415.954 30.5781C416.906 32.4105 417.374 34.6051 417.36 37.1619V58H408.283V38.7812C408.298 36.7642 407.786 35.1946 406.749 34.0724C405.727 32.9503 404.292 32.3892 402.445 32.3892C401.21 32.3892 400.116 32.652 399.164 33.1776C398.227 33.7031 397.488 34.4702 396.948 35.4787C396.423 36.473 396.153 37.6733 396.139 39.0795ZM435.636 58.6179C433.548 58.6179 431.687 58.2557 430.053 57.5312C428.42 56.7926 427.127 55.706 426.175 54.2713C425.238 52.8224 424.769 51.0185 424.769 48.8594C424.769 47.0412 425.103 45.5142 425.771 44.2784C426.438 43.0426 427.347 42.0483 428.498 41.2955C429.648 40.5426 430.955 39.9744 432.418 39.5909C433.896 39.2074 435.444 38.9375 437.063 38.7812C438.967 38.5824 440.501 38.3977 441.665 38.2273C442.83 38.0426 443.675 37.7727 444.201 37.4176C444.727 37.0625 444.989 36.5369 444.989 35.8409V35.7131C444.989 34.3636 444.563 33.3196 443.711 32.581C442.873 31.8423 441.68 31.473 440.131 31.473C438.498 31.473 437.198 31.8352 436.232 32.5597C435.266 33.2699 434.627 34.1648 434.315 35.2443L425.92 34.5625C426.346 32.5739 427.184 30.8551 428.434 29.4062C429.684 27.9432 431.296 26.821 433.271 26.0398C435.259 25.2443 437.56 24.8466 440.174 24.8466C441.992 24.8466 443.732 25.0597 445.394 25.4858C447.07 25.9119 448.555 26.5724 449.847 27.4673C451.154 28.3622 452.184 29.5128 452.937 30.919C453.69 32.3111 454.066 33.9801 454.066 35.9261V58H445.458V53.4616H445.202C444.677 54.4844 443.974 55.3864 443.093 56.1676C442.212 56.9347 441.154 57.5384 439.918 57.9787C438.682 58.4048 437.255 58.6179 435.636 58.6179ZM438.235 52.3537C439.57 52.3537 440.749 52.0909 441.772 51.5653C442.795 51.0256 443.597 50.3011 444.18 49.392C444.762 48.483 445.053 47.4531 445.053 46.3026V42.8295C444.769 43.0142 444.378 43.1847 443.881 43.3409C443.398 43.483 442.852 43.6179 442.241 43.7457C441.63 43.8594 441.019 43.9659 440.408 44.0653C439.798 44.1506 439.244 44.2287 438.746 44.2997C437.681 44.456 436.751 44.7045 435.955 45.0455C435.16 45.3864 434.542 45.848 434.102 46.4304C433.661 46.9986 433.441 47.7088 433.441 48.5611C433.441 49.7969 433.888 50.7415 434.783 51.3949C435.692 52.0341 436.843 52.3537 438.235 52.3537ZM480.316 25.2727V32.0909H460.607V25.2727H480.316ZM465.081 17.4318H474.158V47.9432C474.158 48.7812 474.286 49.4347 474.541 49.9034C474.797 50.358 475.152 50.6776 475.607 50.8622C476.076 51.0469 476.615 51.1392 477.226 51.1392C477.652 51.1392 478.078 51.1037 478.504 51.0327C478.931 50.9474 479.257 50.8835 479.485 50.8409L480.912 57.5952C480.458 57.7372 479.818 57.9006 478.995 58.0852C478.171 58.2841 477.169 58.4048 475.99 58.4474C473.803 58.5327 471.885 58.2415 470.237 57.5739C468.604 56.9062 467.333 55.8693 466.424 54.4631C465.514 53.0568 465.067 51.2812 465.081 49.1364V17.4318ZM504.375 58V25.2727H510.746V58H504.375ZM507.593 20.223C506.485 20.223 505.533 19.8537 504.738 19.1151C503.956 18.3622 503.566 17.4673 503.566 16.4304C503.566 15.3793 503.956 14.4844 504.738 13.7457C505.533 12.9929 506.485 12.6165 507.593 12.6165C508.701 12.6165 509.645 12.9929 510.427 13.7457C511.222 14.4844 511.62 15.3793 511.62 16.4304C511.62 17.4673 511.222 18.3622 510.427 19.1151C509.645 19.8537 508.701 20.223 507.593 20.223Z" fill="black"/>
<path d="M517.253 48.1879H522.099V50.698H524.638V52.9799H536.407L536.638 51.1544H538.714V46.1342H536.638V43.396H524.638V40.8859H519.561V38.604H517.253V29.4765H519.561V26.5101L522.099 26.7383V24H538.714V26.5101L541.714 26.7383V29.4765H544.253V34.2685H539.176V31.9866H536.638V29.4765H524.638V31.9866H522.099V36.3221H524.638V38.604H537.099V40.8859H541.714V43.396H544.253V53.4362H541.714V55.9463H539.176V58H522.099V55.9463H519.561V53.4362H517.253V48.1879Z" fill="black" stroke="black"/>
<path d="M547.398 62.4296C546.5 62.0997 545.554 61.9239 544.598 61.9096C543.688 61.8396 543.398 61.6596 543.218 61.4596C542.35 60.2167 541.086 59.3053 539.632 58.8747C538.179 58.4441 536.622 58.5199 535.218 59.0896C534.826 57.8591 533.984 56.8219 532.861 56.1858C531.737 55.5498 530.414 55.3618 529.158 55.6596C529.258 52.8296 525.648 49.7896 522.398 49.0996C519.148 48.4096 516.578 48.7196 514.808 50.7696C512.908 47.0596 505.458 46.0096 501.428 47.9696C499.108 49.0996 497.148 50.2596 496.188 52.3796C495.548 53.6947 495.245 55.1485 495.308 56.6096C494.333 55.9136 493.205 55.4636 492.019 55.2982C490.833 55.1328 489.625 55.2568 488.498 55.6596C486.238 56.5296 486.068 58.2396 485.948 59.9696C484.609 59.5773 483.189 59.5531 481.838 59.8996C480.408 60.3196 479.588 61.4396 479.788 62.3396C478.658 62.2796 475.968 63.1896 476.278 64.3396C476.588 65.4896 479.698 65.5396 480.838 65.4996C481.918 65.4101 482.991 65.243 484.048 64.9996C484.582 65.2 485.147 65.3049 485.718 65.3096C487.718 65.3096 488.498 64.4596 488.808 63.7396C489.808 65.7396 493.148 67.2696 495.548 67.8896C500.068 69.0396 506.458 68.3396 509.238 64.9596C509.564 65.5944 510.021 66.1532 510.578 66.5996C511.774 67.5632 513.228 68.1512 514.758 68.2896C516.618 68.4696 521.588 68.6996 522.988 65.7596C523.988 67.7596 528.418 68.6096 531.788 68.1296C533.084 67.9337 534.346 67.5567 535.538 67.0096C536.285 66.6171 537.009 66.1831 537.708 65.7096C537.976 65.5241 538.289 65.4142 538.615 65.3913C538.94 65.3685 539.266 65.4335 539.558 65.5796C541.935 66.4224 544.53 66.4224 546.908 65.5796C548.778 64.8096 549.168 63.2296 547.398 62.4296Z" fill="#F0F0F0"/>
<path d="M277.606 121.047C276.757 120.735 275.861 120.569 274.956 120.557C274.096 120.487 273.826 120.317 273.656 120.137C272.834 118.952 271.633 118.084 270.252 117.675C268.87 117.266 267.39 117.34 266.056 117.887C265.679 116.725 264.88 115.748 263.817 115.148C262.754 114.548 261.505 114.369 260.316 114.647C260.416 111.967 256.996 109.097 253.936 108.447C250.876 107.797 248.426 108.047 246.746 110.047C244.956 106.537 237.906 105.547 234.096 107.407C231.906 108.477 230.096 109.567 229.096 111.577C228.496 112.822 228.215 114.196 228.276 115.577C227.354 114.918 226.287 114.494 225.165 114.339C224.044 114.184 222.901 114.303 221.836 114.687C219.696 115.507 219.536 117.127 219.426 118.767C218.159 118.397 216.816 118.373 215.536 118.697C214.186 119.097 213.406 120.147 213.596 121.007C212.526 120.947 209.986 121.807 210.276 122.937C210.566 124.067 213.506 124.067 214.596 124.027C215.607 123.946 216.61 123.786 217.596 123.547C218.096 123.742 218.629 123.844 219.166 123.847C221.016 123.847 221.796 123.047 222.096 122.357C222.996 124.257 226.206 125.707 228.476 126.287C232.746 127.377 238.786 126.707 241.416 123.517C241.741 124.121 242.199 124.644 242.756 125.047C243.9 125.967 245.293 126.524 246.756 126.647C248.506 126.817 253.216 127.037 254.536 124.247C255.476 126.107 259.666 126.947 262.856 126.497C264.092 126.31 265.294 125.946 266.426 125.417C267.115 125.044 267.782 124.633 268.426 124.187C268.682 124.004 268.983 123.894 269.296 123.869C269.61 123.845 269.924 123.906 270.206 124.047C272.469 124.854 274.942 124.854 277.206 124.047C278.906 123.277 279.276 121.787 277.606 121.047Z" fill="#F5F5F5"/>
<path d="M462.606 195.617C461.758 195.301 460.861 195.135 459.956 195.127C459.096 195.057 458.826 194.887 458.656 194.697C457.834 193.513 456.633 192.645 455.25 192.238C453.868 191.83 452.388 191.908 451.056 192.457C450.681 191.294 449.883 190.314 448.82 189.712C447.757 189.11 446.506 188.93 445.316 189.207C445.416 186.537 441.996 183.667 438.936 183.017C435.876 182.367 433.426 182.647 431.746 184.587C429.976 181.047 422.906 180.047 419.096 181.947C416.906 183.007 415.046 184.107 414.096 186.117C413.495 187.361 413.214 188.736 413.276 190.117C412.355 189.457 411.288 189.03 410.167 188.874C409.045 188.717 407.902 188.835 406.836 189.217C404.696 190.047 404.526 191.657 404.426 193.297C403.158 192.932 401.816 192.908 400.536 193.227C399.186 193.627 398.406 194.687 398.596 195.537C397.526 195.537 394.986 196.347 395.276 197.467C395.606 198.737 398.506 198.607 399.586 198.567C400.596 198.482 401.599 198.321 402.586 198.087C403.088 198.277 403.619 198.379 404.156 198.387C406.006 198.387 406.786 197.587 407.086 196.897C407.986 198.797 411.196 200.237 413.466 200.817C417.736 201.917 423.776 201.247 426.406 198.057C426.711 198.66 427.145 199.188 427.676 199.607C428.82 200.527 430.213 201.084 431.676 201.207C433.426 201.367 438.136 201.597 439.456 198.807C440.396 200.657 444.586 201.507 447.776 201.057C449.011 200.866 450.212 200.502 451.346 199.977C452.049 199.602 452.734 199.191 453.396 198.747C453.648 198.57 453.943 198.466 454.249 198.445C454.556 198.424 454.862 198.487 455.136 198.627C457.399 199.436 459.873 199.436 462.136 198.627C463.906 197.867 464.276 196.367 462.606 195.617Z" fill="#F5F5F5"/>
<path d="M612.226 208.589C611.51 208.584 610.799 208.456 610.126 208.209C609.388 207.928 608.71 207.511 608.126 206.979C607.56 206.468 607.101 205.849 606.776 205.159C606.464 204.473 606.288 203.733 606.256 202.979C606.232 202.182 606.361 201.388 606.636 200.639C606.911 199.901 607.326 199.222 607.856 198.639C608.364 198.076 608.98 197.621 609.666 197.299C610.359 196.985 611.106 196.805 611.866 196.769C612.67 196.729 613.474 196.85 614.23 197.127C614.986 197.404 615.679 197.829 616.266 198.379C616.815 198.901 617.266 199.518 617.596 200.199C617.928 200.907 618.115 201.674 618.148 202.455C618.181 203.236 618.058 204.016 617.786 204.749C617.516 205.497 617.09 206.178 616.536 206.749C616.013 207.3 615.388 207.745 614.696 208.059C614.007 208.362 613.268 208.535 612.516 208.569L612.226 208.589ZM607.676 201.039C607.452 201.643 607.347 202.285 607.366 202.929C607.387 203.536 607.531 204.133 607.788 204.683C608.046 205.233 608.413 205.725 608.866 206.129C609.568 206.782 610.446 207.216 611.392 207.375C612.337 207.535 613.309 207.415 614.186 207.029C614.745 206.777 615.248 206.417 615.666 205.969C616.112 205.504 616.453 204.948 616.666 204.339C616.891 203.739 616.99 203.099 616.956 202.459C616.931 201.846 616.782 201.243 616.516 200.689C616.254 200.132 615.887 199.63 615.436 199.209C614.966 198.769 614.412 198.429 613.806 198.209C612.606 197.774 611.283 197.821 610.116 198.339C609.567 198.601 609.075 198.968 608.666 199.419C608.231 199.893 607.892 200.447 607.666 201.049L607.676 201.039ZM618.726 195.769L612.166 193.359L613.716 187.229C613.938 186.123 614.51 185.117 615.346 184.359C616.146 183.669 617.055 183.118 618.036 182.729C619.07 182.328 620.129 181.994 621.206 181.729C622.28 181.455 623.333 181.104 624.356 180.679C625.33 180.274 626.237 179.724 627.046 179.049C627.867 178.334 628.482 177.412 628.826 176.379C629.085 175.725 629.191 175.021 629.136 174.319C629.08 173.665 628.882 173.03 628.556 172.459C628.205 171.847 627.736 171.31 627.176 170.879C626.534 170.385 625.819 169.994 625.056 169.719C624.039 169.32 622.967 169.078 621.876 168.999C621.058 168.947 620.237 168.981 619.426 169.099C618.706 169.219 618.086 169.339 617.576 169.459C617.051 169.617 616.491 169.617 615.966 169.459C615.505 169.313 615.096 169.037 614.788 168.665C614.479 168.293 614.284 167.839 614.226 167.359L613.226 162.709L613.686 162.529C614.747 162.126 615.833 161.792 616.936 161.529C618.113 161.255 619.311 161.085 620.516 161.019C621.817 160.962 623.12 161.032 624.406 161.229C625.844 161.448 627.255 161.817 628.616 162.329C630.472 162.982 632.209 163.935 633.756 165.149C635.131 166.228 636.279 167.567 637.136 169.089C637.94 170.563 638.411 172.194 638.516 173.869C638.615 175.661 638.336 177.453 637.696 179.129C637.156 180.7 636.325 182.156 635.246 183.419C634.341 184.455 633.282 185.345 632.106 186.059C631.041 186.711 629.899 187.228 628.706 187.599L625.536 188.599C624.657 188.871 623.798 189.205 622.966 189.599C622.356 189.861 621.848 190.314 621.516 190.889L618.726 195.769ZM613.536 192.629L618.206 194.349L620.506 190.199C620.964 189.406 621.666 188.782 622.506 188.419C623.389 188.024 624.298 187.69 625.226 187.419L628.386 186.419C629.489 186.073 630.547 185.597 631.536 184.999C632.609 184.337 633.576 183.518 634.406 182.569C635.391 181.415 636.148 180.085 636.636 178.649C637.218 177.122 637.474 175.491 637.386 173.859C637.292 172.356 636.869 170.891 636.146 169.569C635.363 168.178 634.313 166.954 633.056 165.969C631.603 164.835 629.975 163.944 628.236 163.329C625.799 162.406 623.201 161.985 620.596 162.089C619.457 162.145 618.326 162.306 617.216 162.569C616.327 162.788 615.449 163.052 614.586 163.359L615.386 167.089C615.408 167.37 615.516 167.638 615.695 167.856C615.874 168.074 616.115 168.232 616.386 168.309C616.713 168.402 617.059 168.402 617.386 168.309C617.916 168.179 618.556 168.059 619.306 167.929C620.197 167.802 621.098 167.765 621.996 167.819C623.207 167.9 624.397 168.167 625.526 168.609C626.404 168.927 627.227 169.379 627.966 169.949C628.643 170.474 629.211 171.126 629.636 171.869C630.034 172.585 630.279 173.374 630.356 174.189C630.424 175.057 630.294 175.929 629.976 176.739C629.564 177.966 628.833 179.06 627.856 179.909C626.951 180.654 625.94 181.26 624.856 181.709C623.785 182.156 622.682 182.524 621.556 182.809C620.536 183.078 619.534 183.412 618.556 183.809C617.694 184.147 616.895 184.631 616.196 185.239C615.506 185.817 615.022 186.603 614.816 187.479L613.536 192.629Z" fill="black"/>
<path d="M36.206 550.471L44.426 545.721C44.426 545.721 49.316 525.401 47.366 507.121C44.626 481.411 27.706 471.741 21.266 473.961C14.826 476.181 12.976 483.661 23.616 498.961C29.896 507.971 37.616 526.781 36.206 550.471Z" fill="#4D7A52"/>
<g opacity="0.65">
<path d="M36.206 550.471L44.426 545.721C44.426 545.721 49.316 525.401 47.366 507.121C44.626 481.411 27.706 471.741 21.266 473.961C14.826 476.181 12.976 483.661 23.616 498.961C29.896 507.971 37.616 526.781 36.206 550.471Z" fill="white"/>
</g>
<path d="M39.6058 540.471H39.5358C39.3866 540.441 39.2549 540.355 39.1688 540.23C39.0828 540.104 39.0494 539.95 39.0758 539.801C43.5858 516.091 35.2958 489.451 25.0758 478.361C25.0226 478.308 24.9803 478.246 24.9514 478.177C24.9226 478.109 24.9077 478.035 24.9077 477.961C24.9077 477.886 24.9226 477.812 24.9514 477.744C24.9803 477.675 25.0226 477.613 25.0758 477.561C25.1824 477.455 25.3261 477.397 25.4758 477.397C25.6255 477.397 25.7692 477.455 25.8758 477.561C36.3258 488.851 44.7658 515.931 40.1958 539.981C40.174 540.12 40.102 540.247 39.9933 540.337C39.8847 540.427 39.7469 540.475 39.6058 540.471Z" fill="white"/>
<path d="M17.076 562.471C15.846 563.091 11.076 560.211 10.076 559.531C8.51634 558.348 7.28695 556.785 6.50599 554.991C5.63893 552.956 5.42236 550.703 5.88599 548.541C6.13964 547.395 6.47381 546.269 6.88599 545.171C7.25599 544.081 7.63599 543.001 8.00599 541.911C8.44749 540.864 8.66875 539.737 8.65599 538.601C8.48599 536.321 6.55599 534.601 4.79599 533.181C2.85599 531.571 0.855992 529.461 1.00599 526.741C1.2585 524.634 2.20487 522.67 3.69599 521.161C5.07599 519.581 6.69599 518.161 7.95599 516.521C8.94413 515.355 9.50504 513.888 9.54599 512.361C9.46676 511.42 9.19803 510.505 8.75599 509.671C7.74244 507.926 6.86967 506.104 6.14599 504.221C5.58599 502.281 5.79599 499.921 7.35599 498.631C8.62599 497.571 10.446 497.511 12.096 497.701C13.6383 497.969 15.1029 498.574 16.386 499.471C20.586 502.091 22.796 507.331 27.286 509.411C29.0808 510.069 30.9143 510.616 32.776 511.051C33.7057 511.273 34.579 511.686 35.34 512.265C36.101 512.843 36.7331 513.574 37.196 514.411C38.706 517.861 35.376 521.851 36.376 525.481C37.266 528.691 40.276 530.061 41.856 532.991C42.4939 534.285 42.704 535.749 42.456 537.171C42.1841 539.58 41.4723 541.918 40.356 544.071C39.1011 546.278 37.7152 548.409 36.206 550.451C36.206 550.451 17.266 562.371 17.076 562.471Z" fill="#4D7A52"/>
<g opacity="0.3">
<path d="M17.076 562.471C15.846 563.091 11.076 560.211 10.076 559.531C8.51634 558.348 7.28695 556.785 6.50599 554.991C5.63893 552.956 5.42236 550.703 5.88599 548.541C6.13964 547.395 6.47381 546.269 6.88599 545.171C7.25599 544.081 7.63599 543.001 8.00599 541.911C8.44749 540.864 8.66875 539.737 8.65599 538.601C8.48599 536.321 6.55599 534.601 4.79599 533.181C2.85599 531.571 0.855992 529.461 1.00599 526.741C1.2585 524.634 2.20487 522.67 3.69599 521.161C5.07599 519.581 6.69599 518.161 7.95599 516.521C8.94413 515.355 9.50504 513.888 9.54599 512.361C9.46676 511.42 9.19803 510.505 8.75599 509.671C7.74244 507.926 6.86967 506.104 6.14599 504.221C5.58599 502.281 5.79599 499.921 7.35599 498.631C8.62599 497.571 10.446 497.511 12.096 497.701C13.6383 497.969 15.1029 498.574 16.386 499.471C20.586 502.091 22.796 507.331 27.286 509.411C29.0808 510.069 30.9143 510.616 32.776 511.051C33.7057 511.273 34.579 511.686 35.34 512.265C36.101 512.843 36.7331 513.574 37.196 514.411C38.706 517.861 35.376 521.851 36.376 525.481C37.266 528.691 40.276 530.061 41.856 532.991C42.4939 534.285 42.704 535.749 42.456 537.171C42.1841 539.58 41.4723 541.918 40.356 544.071C39.1011 546.278 37.7152 548.409 36.206 550.451C36.206 550.451 17.266 562.371 17.076 562.471Z" fill="white"/>
</g>
<path d="M27.4158 556.181C27.2716 556.168 27.1382 556.099 27.0446 555.988C26.951 555.878 26.9047 555.735 26.9158 555.591C28.9158 534.271 20.0058 510.171 13.0358 502.941C12.9783 502.892 12.9315 502.832 12.8986 502.764C12.8656 502.696 12.8473 502.622 12.8446 502.547C12.8419 502.472 12.855 502.397 12.8831 502.327C12.9111 502.257 12.9535 502.194 13.0075 502.141C13.0614 502.089 13.1258 502.048 13.1964 502.022C13.2671 501.996 13.3424 501.984 13.4176 501.989C13.4928 501.994 13.5662 502.014 13.633 502.049C13.6999 502.083 13.7588 502.132 13.8058 502.191C20.9258 509.561 29.9858 534.061 27.9958 555.691C27.9807 555.831 27.9119 555.961 27.8039 556.052C27.6959 556.143 27.5569 556.189 27.4158 556.181Z" fill="white"/>
<path d="M25.306 529.881C25.2531 529.891 25.1988 529.891 25.146 529.881C20.1535 528.232 14.9965 527.133 9.76596 526.601C9.69493 526.594 9.62585 526.574 9.5627 526.541C9.49955 526.508 9.44358 526.462 9.39803 526.408C9.35247 526.353 9.31823 526.289 9.29728 526.221C9.27633 526.153 9.26908 526.082 9.27595 526.011C9.28077 525.939 9.30019 525.87 9.33298 525.807C9.36578 525.743 9.41127 525.687 9.46661 525.642C9.52195 525.597 9.58596 525.564 9.65466 525.545C9.72337 525.526 9.79529 525.521 9.86596 525.531C15.1895 526.065 20.4379 527.185 25.516 528.871C25.6495 528.92 25.7581 529.02 25.818 529.15C25.878 529.279 25.8844 529.427 25.836 529.561C25.7936 529.664 25.7192 529.75 25.6238 529.808C25.5283 529.866 25.4169 529.891 25.306 529.881Z" fill="white"/>
<path d="M292.416 548.401L304.936 555.631C304.776 551.161 304.386 544.511 304.996 540.041C308.786 512.661 319.446 503.641 324.516 490.311C329.856 476.311 323.346 471.761 314.886 474.311C307.336 476.561 296.426 487.721 292.986 508.151C290.696 521.721 291.146 536.471 292.416 548.401Z" fill="#4D7A52"/>
<path opacity="0.65" d="M292.416 548.401L304.936 555.631C304.776 551.161 304.386 544.511 304.996 540.041C308.786 512.661 319.446 503.641 324.516 490.311C329.856 476.311 323.346 471.761 314.886 474.311C307.336 476.561 296.426 487.721 292.986 508.151C290.696 521.721 291.146 536.471 292.416 548.401Z" fill="white"/>
<path d="M299.056 552.231L300.306 552.961C295.826 521.041 306.736 493.361 317.506 481.961C317.557 481.909 317.598 481.849 317.626 481.782C317.654 481.715 317.668 481.643 317.668 481.571C317.668 481.498 317.654 481.426 317.626 481.359C317.598 481.292 317.557 481.232 317.506 481.181C317.4 481.081 317.261 481.026 317.116 481.026C316.971 481.026 316.832 481.081 316.726 481.181C305.946 492.611 295.036 520.471 299.056 552.231Z" fill="white"/>
<path d="M301.416 553.601L308.466 557.671C312.206 546.671 316.056 542.221 320.836 534.961C325.186 528.361 330.256 524.271 332.946 519.621C335.326 515.511 337.116 510.351 333.576 507.231C327.936 502.231 320.576 507.511 315.576 513.231C311.146 518.121 302.386 531.211 301.416 553.601Z" fill="#4D7A52"/>
<path opacity="0.3" d="M301.416 553.601L308.466 557.671C312.206 546.671 316.056 542.221 320.836 534.961C325.186 528.361 330.256 524.271 332.946 519.621C335.326 515.511 337.116 510.351 333.576 507.231C327.936 502.231 320.576 507.511 315.576 513.231C311.146 518.121 302.386 531.211 301.416 553.601Z" fill="white"/>
<path d="M304.316 555.271L305.316 555.861C308.316 538.411 320.126 518.221 327.496 513.461C327.558 513.42 327.611 513.368 327.653 513.307C327.695 513.245 327.724 513.177 327.739 513.104C327.754 513.031 327.754 512.957 327.74 512.884C327.726 512.811 327.697 512.742 327.656 512.681C327.617 512.618 327.566 512.564 327.506 512.521C327.446 512.479 327.379 512.449 327.307 512.433C327.235 512.417 327.161 512.416 327.089 512.429C327.016 512.442 326.947 512.47 326.886 512.511C319.276 517.471 307.456 537.551 304.316 555.271Z" fill="white"/>
<path d="M77.8758 607.351C112.653 607.351 140.846 591.076 140.846 571.001C140.846 550.925 112.653 534.651 77.8758 534.651C43.0984 534.651 14.9058 550.925 14.9058 571.001C14.9058 591.076 43.0984 607.351 77.8758 607.351Z" fill="#ECECEC"/>
<path d="M256.536 607.361C289.822 607.361 316.806 591.78 316.806 572.561C316.806 553.341 289.822 537.761 256.536 537.761C223.249 537.761 196.266 553.341 196.266 572.561C196.266 591.78 223.249 607.361 256.536 607.361Z" fill="#ECECEC"/>
<path d="M293.846 527.231C292.422 521.93 290.409 516.804 287.846 511.951C285.387 507.3 282.415 502.94 278.986 498.951C275.865 495.257 272.147 492.113 267.986 489.651C264.654 487.562 260.835 486.376 256.906 486.211C253.726 486.106 250.604 487.079 248.046 488.971C245.576 490.831 223.146 502.911 220.686 504.771C217.977 506.976 215.957 509.912 214.866 513.231C213.373 517.503 212.655 522.007 212.746 526.531C212.761 531.89 213.474 537.225 214.866 542.401C216.239 547.627 218.194 552.682 220.696 557.471C223.106 562.111 226.082 566.433 229.556 570.341C232.731 573.994 236.472 577.114 240.636 579.581C243.949 581.656 247.733 582.86 251.636 583.081C254.8 583.215 257.918 582.289 260.496 580.451C263.016 578.621 285.336 566.451 287.856 564.651C290.596 562.528 292.677 559.67 293.856 556.411C295.439 552.139 296.189 547.604 296.066 543.051C296.032 537.702 295.285 532.382 293.846 527.231Z" fill="#BF9BC5"/>
<path opacity="0.4" d="M293.846 527.231C292.422 521.93 290.409 516.804 287.846 511.951C285.387 507.3 282.415 502.94 278.986 498.951C275.865 495.257 272.147 492.113 267.986 489.651C264.654 487.562 260.835 486.376 256.906 486.211C253.726 486.106 250.604 487.079 248.046 488.971C245.576 490.831 223.146 502.911 220.686 504.771C217.977 506.976 215.957 509.912 214.866 513.231C213.373 517.503 212.655 522.007 212.746 526.531C212.761 531.89 213.474 537.225 214.866 542.401C216.239 547.627 218.194 552.682 220.696 557.471C223.106 562.111 226.082 566.433 229.556 570.341C232.731 573.994 236.472 577.114 240.636 579.581C243.949 581.656 247.733 582.86 251.636 583.081C254.8 583.215 257.918 582.289 260.496 580.451C263.016 578.621 285.336 566.451 287.856 564.651C290.596 562.528 292.677 559.67 293.856 556.411C295.439 552.139 296.189 547.604 296.066 543.051C296.032 537.702 295.285 532.382 293.846 527.231Z" fill="white"/>
<path d="M342.405 332.841C339.013 320.652 334.112 308.935 327.815 297.961C321.57 287.075 313.973 277.022 305.205 268.041C296.547 259.124 286.697 251.448 275.935 245.231C269.007 241.109 261.625 237.803 253.935 235.381C247.848 233.47 241.524 232.417 235.145 232.251C229.673 232.145 224.217 232.894 218.975 234.471C214.163 235.946 209.543 237.99 205.215 240.561L177.855 256.361L189.855 288.651C191.855 294.711 195.059 299.017 199.465 301.571C200.411 302.104 201.46 302.43 202.541 302.524C203.622 302.619 204.712 302.482 205.735 302.121C208.559 301.312 211.427 300.668 214.325 300.191C218.435 299.603 222.613 299.688 226.695 300.441C231.555 301.201 237.495 303.604 244.515 307.651C249.428 310.505 253.929 314.014 257.895 318.081C262.003 322.248 265.571 326.914 268.515 331.971C271.465 337.023 273.789 342.416 275.435 348.031C277.098 353.65 277.937 359.481 277.925 365.341C277.925 374.527 276.482 381.614 273.595 386.601C272.492 388.472 271.235 390.249 269.835 391.911C267.452 392.987 265.143 394.223 262.925 395.611C260.235 397.311 239.555 408.881 235.565 411.421C231.503 414.003 228.189 417.606 225.955 421.871C223.569 426.311 222.739 432.601 223.465 440.741L226.605 482.681L257.805 500.681L285.145 484.931L289.395 451.431C289.665 448.965 290.441 446.582 291.675 444.431L292.585 444.031C294.101 443.371 295.568 442.606 296.975 441.741C300.145 439.811 322.355 427.101 323.515 426.431C327.17 424.29 330.481 421.61 333.335 418.481C337.395 414.101 340.782 408.137 343.495 400.591C346.209 393.044 347.559 383.044 347.545 370.591C347.565 357.832 345.836 345.13 342.405 332.841Z" fill="#BF9BC5"/>
<path opacity="0.4" d="M342.405 332.841C339.013 320.652 334.112 308.935 327.815 297.961C321.57 287.075 313.973 277.022 305.205 268.041C296.547 259.124 286.697 251.448 275.935 245.231C269.007 241.109 261.625 237.803 253.935 235.381C247.848 233.47 241.524 232.417 235.145 232.251C229.673 232.145 224.217 232.894 218.975 234.471C214.163 235.946 209.543 237.99 205.215 240.561L177.855 256.361L189.855 288.651C191.855 294.711 195.059 299.017 199.465 301.571C200.411 302.104 201.46 302.43 202.541 302.524C203.622 302.619 204.712 302.482 205.735 302.121C208.559 301.312 211.427 300.668 214.325 300.191C218.435 299.603 222.613 299.688 226.695 300.441C231.555 301.201 237.495 303.604 244.515 307.651C249.428 310.505 253.929 314.014 257.895 318.081C262.003 322.248 265.571 326.914 268.515 331.971C271.465 337.023 273.789 342.416 275.435 348.031C277.098 353.65 277.937 359.481 277.925 365.341C277.925 374.527 276.482 381.614 273.595 386.601C272.492 388.472 271.235 390.249 269.835 391.911C267.452 392.987 265.143 394.223 262.925 395.611C260.235 397.311 239.555 408.881 235.565 411.421C231.503 414.003 228.189 417.606 225.955 421.871C223.569 426.311 222.739 432.601 223.465 440.741L226.605 482.681L257.805 500.681L285.145 484.931L289.395 451.431C289.665 448.965 290.441 446.582 291.675 444.431L292.585 444.031C294.101 443.371 295.568 442.606 296.975 441.741C300.145 439.811 322.355 427.101 323.515 426.431C327.17 424.29 330.481 421.61 333.335 418.481C337.395 414.101 340.782 408.137 343.495 400.591C346.209 393.044 347.559 383.044 347.545 370.591C347.565 357.832 345.836 345.13 342.405 332.841Z" fill="white"/>
<path d="M260.486 527.761C258.026 523.111 255.055 518.75 251.626 514.761C248.505 511.067 244.787 507.924 240.626 505.461C237.294 503.372 233.475 502.186 229.546 502.021C226.366 501.916 223.244 502.889 220.686 504.781C217.977 506.986 215.957 509.922 214.866 513.241C213.373 517.513 212.655 522.017 212.746 526.541C212.761 531.9 213.474 537.235 214.866 542.411C216.24 547.633 218.195 552.685 220.696 557.471C223.106 562.111 226.082 566.434 229.556 570.341C232.731 573.994 236.472 577.114 240.636 579.581C243.949 581.656 247.733 582.86 251.636 583.081C254.8 583.215 257.918 582.29 260.496 580.451C263.236 578.328 265.317 575.471 266.496 572.211C268.08 567.94 268.831 563.405 268.706 558.851C268.674 553.506 267.931 548.189 266.496 543.041C265.071 537.739 263.055 532.613 260.486 527.761Z" fill="#FAFAFA"/>
<path d="M229.446 504.801H229.536C232.983 504.969 236.328 506.027 239.246 507.871C243.131 510.177 246.602 513.117 249.516 516.571C252.811 520.405 255.668 524.594 258.036 529.061C260.498 533.732 262.433 538.662 263.806 543.761C265.171 548.673 265.883 553.743 265.926 558.841C266.046 563.04 265.367 567.225 263.926 571.171C262.94 573.922 261.209 576.346 258.926 578.171C256.922 579.602 254.507 580.342 252.046 580.281H251.746C248.315 580.051 244.996 578.972 242.086 577.141C238.162 574.827 234.634 571.9 231.636 568.471C228.314 564.736 225.463 560.609 223.146 556.181C220.746 551.579 218.871 546.721 217.556 541.701C216.234 536.756 215.562 531.659 215.556 526.541C215.467 522.348 216.123 518.173 217.496 514.211C218.416 511.396 220.111 508.897 222.386 507.001C224.432 505.493 226.926 504.719 229.466 504.801M229.466 502.021C226.323 501.938 223.242 502.91 220.716 504.781C218.007 506.986 215.987 509.922 214.896 513.241C213.403 517.512 212.685 522.017 212.776 526.541C212.791 531.9 213.504 537.235 214.896 542.411C216.26 547.632 218.205 552.683 220.696 557.471C223.106 562.111 226.082 566.433 229.556 570.341C232.731 573.994 236.472 577.114 240.636 579.581C243.949 581.656 247.733 582.86 251.636 583.081H251.996C255.04 583.142 258.022 582.215 260.496 580.441C263.236 578.318 265.317 575.461 266.496 572.201C268.08 567.93 268.83 563.394 268.706 558.841C268.674 553.496 267.931 548.179 266.496 543.031C265.073 537.732 263.061 532.61 260.496 527.761C258.036 523.111 255.064 518.75 251.636 514.761C248.515 511.067 244.797 507.923 240.636 505.461C237.304 503.372 233.485 502.186 229.556 502.021H229.466Z" fill="#BF9BC5"/>
<path d="M315.046 348.641C311.653 336.452 306.752 324.735 300.456 313.761C294.213 302.872 286.616 292.819 277.846 283.841C269.182 274.93 259.333 267.255 248.576 261.031C241.647 256.909 234.265 253.603 226.576 251.181C220.472 249.269 214.13 248.219 207.736 248.061C202.269 247.964 196.82 248.719 191.586 250.301C186.775 251.78 182.156 253.824 177.826 256.391L189.826 288.681C191.826 294.741 195.029 299.047 199.436 301.601C200.381 302.134 201.43 302.46 202.511 302.554C203.593 302.649 204.682 302.512 205.706 302.151C208.529 301.342 211.397 300.698 214.296 300.221C218.405 299.633 222.583 299.718 226.666 300.471C231.526 301.231 237.466 303.634 244.486 307.681C249.398 310.535 253.899 314.044 257.866 318.111C261.973 322.278 265.541 326.944 268.486 332.001C271.436 337.053 273.759 342.446 275.406 348.061C277.068 353.68 277.907 359.511 277.896 365.371C277.896 374.557 276.452 381.644 273.566 386.631C270.928 391.328 267.23 395.345 262.766 398.361C258.46 401.208 253.805 403.487 248.916 405.141C244.229 406.71 239.747 408.835 235.566 411.471C231.503 414.053 228.189 417.656 225.956 421.921C223.569 426.361 222.739 432.651 223.466 440.791L226.606 482.731L257.806 500.731L262.056 467.231C262.676 462.344 264.552 458.711 267.686 456.331C271.143 453.777 274.893 451.645 278.856 449.981C283.162 448.121 287.746 446.121 292.606 443.981C297.699 441.693 302.262 438.373 306.006 434.231C310.059 429.851 313.442 423.887 316.156 416.341C318.869 408.794 320.219 398.794 320.206 386.341C320.214 373.598 318.478 360.913 315.046 348.641Z" fill="#FAFAFA"/>
<path d="M207.226 250.831H207.746C213.876 250.989 219.954 251.998 225.806 253.831C233.267 256.212 240.427 259.447 247.146 263.471C257.682 269.566 267.33 277.084 275.816 285.811C284.412 294.63 291.867 304.494 298.006 315.171C304.18 325.951 308.993 337.456 312.336 349.421C315.693 361.468 317.395 373.915 317.396 386.421C317.396 398.521 316.086 408.311 313.496 415.511C310.906 422.711 307.706 428.371 303.926 432.451C300.448 436.282 296.216 439.352 291.496 441.471C286.642 443.591 282.062 445.591 277.756 447.471C273.59 449.228 269.646 451.47 266.006 454.151C262.266 456.981 260.006 461.281 259.296 466.921L255.576 496.271L229.266 481.081L226.266 440.561C225.576 433.021 226.266 427.201 228.436 423.261C230.449 419.421 233.427 416.172 237.076 413.831C241.089 411.335 245.382 409.321 249.866 407.831C254.979 406.098 259.849 403.715 264.356 400.741C269.178 397.487 273.174 393.152 276.026 388.081C279.196 382.621 280.736 375.211 280.736 365.431C280.752 359.284 279.88 353.168 278.146 347.271C276.435 341.444 274.024 335.847 270.966 330.601C267.912 325.35 264.217 320.499 259.966 316.161C255.809 311.919 251.1 308.257 245.966 305.271C238.686 301.071 232.366 298.531 227.186 297.721C224.56 297.299 221.906 297.075 219.246 297.051C217.457 297.043 215.671 297.187 213.906 297.481C210.9 297.976 207.925 298.644 204.996 299.481C204.39 299.671 203.76 299.772 203.126 299.781C202.346 299.787 201.579 299.583 200.906 299.191C197.056 296.961 194.326 293.241 192.556 287.811V287.751L181.376 257.671C184.934 255.757 188.668 254.19 192.526 252.991C197.322 251.547 202.307 250.833 207.316 250.871M207.316 248.091C202.029 248.048 196.766 248.807 191.706 250.341C186.895 251.82 182.276 253.864 177.946 256.431L189.946 288.721C191.946 294.781 195.149 299.087 199.556 301.641C200.643 302.294 201.887 302.64 203.156 302.641C204.062 302.632 204.961 302.491 205.826 302.221C208.649 301.412 211.518 300.768 214.416 300.291C216.021 300.02 217.648 299.89 219.276 299.901C221.792 299.92 224.303 300.134 226.786 300.541C231.646 301.301 237.586 303.704 244.606 307.751C249.518 310.605 254.019 314.114 257.986 318.181C262.093 322.348 265.661 327.014 268.606 332.071C271.556 337.123 273.879 342.516 275.526 348.131C277.189 353.75 278.027 359.581 278.016 365.441C278.016 374.627 276.572 381.714 273.686 386.701C271.048 391.398 267.35 395.415 262.886 398.431C258.58 401.278 253.925 403.557 249.036 405.211C244.311 406.749 239.788 408.85 235.566 411.471C231.503 414.053 228.189 417.656 225.956 421.921C223.569 426.361 222.739 432.651 223.466 440.791L226.606 482.731L257.806 500.731L262.056 467.231C262.676 462.344 264.552 458.711 267.686 456.331C271.143 453.777 274.893 451.645 278.856 449.981C283.162 448.121 287.746 446.121 292.606 443.981C297.699 441.693 302.262 438.373 306.006 434.231C310.059 429.851 313.442 423.887 316.156 416.341C318.869 408.794 320.219 398.794 320.206 386.341C320.214 373.598 318.478 360.913 315.046 348.641C311.653 336.452 306.752 324.735 300.456 313.761C294.213 302.872 286.616 292.819 277.846 283.841C269.182 274.93 259.333 267.255 248.576 261.031C241.648 256.909 234.265 253.603 226.576 251.181C220.472 249.269 214.13 248.219 207.736 248.061L207.316 248.091Z" fill="#BF9BC5"/>
<path d="M160.696 362.471C160.086 362.121 159.176 362.391 158.186 362.891C158.599 362.585 158.901 362.153 159.046 361.661C159.046 360.741 158.506 360.241 156.696 361.061C154.886 361.881 150.346 364.161 146.696 364.141C146.046 364.141 144.746 364.301 144.206 363.871C144.116 363.804 144.045 363.714 144.003 363.609C143.961 363.505 143.948 363.392 143.966 363.281C144.046 362.751 144.696 362.161 144.966 361.861C145.403 361.46 145.811 361.029 146.186 360.571C146.631 360.081 146.971 359.506 147.186 358.881C147.296 358.567 147.336 358.233 147.301 357.903C147.267 357.573 147.159 357.254 146.986 356.971C146.786 356.681 146.456 356.441 146.136 356.681C144.876 357.621 143.576 358.521 142.296 359.461C141.039 360.307 139.858 361.26 138.766 362.311C137.576 363.571 136.616 365.311 134.886 367.051C132.506 369.383 129.873 371.442 127.036 373.191L118.576 378.731C118.576 378.731 109.976 365.041 106.626 359.731C101.266 351.231 98.5062 349.171 93.0562 348.731V371.841C93.0562 371.841 101.266 383.591 105.606 389.171C110.886 395.951 113.866 397.431 115.976 397.391C122.596 397.171 128.196 389.201 138.506 377.751C139.256 376.897 140.179 376.213 141.213 375.744C142.248 375.275 143.37 375.032 144.506 375.031C145.736 375.031 147.116 374.941 147.926 374.911C149.173 374.795 150.407 374.575 151.616 374.251C153.616 373.711 153.616 373.861 156.536 371.911C156.896 371.671 158.346 370.581 158.256 370.151C158.221 369.987 158.13 369.84 157.999 369.736C157.867 369.632 157.704 369.577 157.536 369.581C156.85 369.657 156.178 369.826 155.536 370.081C156.945 369.416 158.181 368.433 159.146 367.211C159.297 366.98 159.39 366.715 159.416 366.441C159.416 366.221 159.316 365.571 158.966 365.441L160.056 364.351C160.596 363.881 161.476 362.871 160.696 362.471Z" fill="#FFC9C8"/>
<path d="M155.666 370.021C154.767 370.381 153.84 370.672 152.896 370.891C151.956 371.141 150.996 371.271 150.036 371.521C151.024 371.557 152.013 371.463 152.976 371.241C153.947 371.024 154.863 370.608 155.666 370.021Z" fill="#FFB0B0"/>
<path d="M138.276 370.641C138.301 370.451 138.352 370.266 138.426 370.091C138.578 369.752 138.781 369.439 139.026 369.161C139.795 368.267 140.872 367.695 142.044 367.56C143.215 367.425 144.394 367.736 145.346 368.431C145.346 368.431 145.406 368.611 145.346 368.591C143.956 368.041 142.419 367.991 140.996 368.451C139.829 369.026 138.932 370.034 138.496 371.261C138.496 371.371 138.336 371.331 138.326 371.261C138.277 371.058 138.26 370.849 138.276 370.641Z" fill="#FFB0B0"/>
<path d="M149.146 366.351C150.704 365.954 152.231 365.446 153.716 364.831C155.136 364.291 156.526 363.641 157.906 363.011C157.906 363.011 157.906 363.011 157.906 363.061C156.544 363.988 155.069 364.738 153.516 365.291C152.09 365.779 150.625 366.144 149.136 366.381L149.146 366.351Z" fill="#FFB0B0"/>
<path d="M148.956 369.041C150.514 368.648 152.041 368.143 153.526 367.531C154.096 367.311 154.656 367.071 155.216 366.831C155.777 366.608 156.324 366.354 156.856 366.071L157.336 365.801C157.531 365.669 157.739 365.559 157.956 365.471C158.187 365.389 158.431 365.351 158.676 365.361C158.726 365.361 158.676 365.361 158.676 365.361C158.369 365.408 158.074 365.513 157.806 365.671C157.627 365.771 157.454 365.881 157.286 366.001C157.136 366.111 156.986 366.191 156.826 366.291C156.334 366.589 155.826 366.863 155.306 367.111C154.656 367.431 153.986 367.701 153.306 367.961C151.879 368.441 150.414 368.802 148.926 369.041C148.926 369.041 148.946 369.041 148.956 369.041Z" fill="#FFB0B0"/>
<path d="M118.686 378.691C116.982 379.636 115.532 380.981 114.461 382.609C113.39 384.237 112.729 386.101 112.536 388.041C112.036 384.171 112.366 380.141 117.776 377.241L118.686 378.691Z" fill="#FFB0B0"/>
<path d="M82.8962 438.551C82.8962 438.551 82.9462 438.451 82.9762 438.411L137.596 352.031C138.326 350.771 139.876 350.031 142.076 350.031C144.479 350.197 146.807 350.93 148.872 352.169C150.937 353.409 152.679 355.119 153.956 357.161C155.046 359.101 155.136 360.841 154.406 362.101L106.406 452.461C106.382 452.505 106.355 452.549 106.326 452.591C106.276 452.671 106.246 452.761 106.196 452.841C105.303 454.393 104.11 455.753 102.686 456.839C101.261 457.925 99.6344 458.716 97.9005 459.166C96.1666 459.615 94.3605 459.715 92.5877 459.458C90.815 459.201 89.1112 458.594 87.5762 457.671C84.4536 455.783 82.1962 452.746 81.2893 449.212C80.3823 445.677 80.8983 441.928 82.7262 438.771C82.7962 438.701 82.8562 438.631 82.8962 438.551Z" fill="#455A64"/>
<path d="M153.966 357.161C156.136 361.041 154.326 364.161 149.966 364.091C147.563 363.925 145.234 363.194 143.168 361.956C141.101 360.719 139.357 359.011 138.076 356.971C135.906 353.091 137.706 349.971 142.076 350.031C144.48 350.198 146.81 350.932 148.876 352.171C150.942 353.41 152.686 355.119 153.966 357.161Z" fill="#263238"/>
<path d="M100.806 444.981L145.736 363.221C147.077 363.748 148.497 364.042 149.936 364.091C152.116 364.091 153.656 363.381 154.396 362.091L106.396 452.431C106.372 452.475 106.345 452.519 106.316 452.561C106.266 452.641 106.236 452.731 106.186 452.811C105.294 454.364 104.1 455.723 102.676 456.809C101.251 457.895 99.6246 458.686 97.8907 459.136C96.1568 459.586 94.3507 459.685 92.5779 459.428C90.8052 459.171 89.1014 458.564 87.5664 457.641C91.7964 458.911 96.4164 453.041 100.806 444.981Z" fill="#37474F"/>
<path d="M159.486 325.471C160.938 325.572 162.345 326.015 163.593 326.764C164.841 327.513 165.894 328.547 166.666 329.781C166.973 330.212 167.161 330.716 167.21 331.243C167.26 331.77 167.168 332.3 166.946 332.781L151.086 360.121C150.785 360.547 150.374 360.883 149.897 361.094C149.42 361.306 148.894 361.384 148.376 361.321C146.926 361.219 145.519 360.777 144.272 360.03C143.024 359.283 141.97 358.252 141.196 357.021C140.891 356.589 140.705 356.084 140.658 355.557C140.61 355.03 140.703 354.5 140.926 354.021L156.776 326.681C157.077 326.254 157.488 325.916 157.965 325.703C158.442 325.49 158.968 325.409 159.486 325.471Z" fill="#E0E0E0"/>
<path opacity="0.25" d="M157.586 348.901L162.586 340.271C159.512 337.59 156.588 334.742 153.826 331.741L148.696 340.601C151.516 343.517 154.483 346.287 157.586 348.901Z" fill="black"/>
<path d="M114.206 247.921C114.306 287.441 142.206 335.441 176.456 355.111C186.456 360.831 195.826 363.531 204.156 363.511C209.808 363.575 215.374 362.136 220.286 359.341L240.236 347.751C251.446 341.251 258.356 327.351 258.306 307.591C258.206 268.061 230.306 220.071 196.056 200.391C178.916 190.561 163.426 189.661 152.226 196.161L132.226 207.771C121.056 214.281 114.146 228.171 114.206 247.921ZM144.016 236.311C144.016 226.941 145.706 219.201 148.916 213.441C155.586 213.531 163.276 215.971 171.196 220.521C186.296 229.191 200.616 244.311 211.526 263.081C222.436 281.851 228.456 301.781 228.526 319.201C228.526 328.581 226.836 336.321 223.616 342.071C216.946 341.971 209.266 339.521 201.346 334.991C186.246 326.311 171.926 311.201 161.016 292.421C150.106 273.641 144.056 253.721 144.016 236.311Z" fill="#BF9BC5"/>
<path opacity="0.1" d="M228.806 229.931L200.266 246.471C204.411 251.721 208.174 257.262 211.526 263.051C212.196 264.211 212.846 265.371 213.526 266.541L241.996 250.001C238.144 242.968 233.733 236.257 228.806 229.931ZM184.746 230.201C187.769 232.811 190.65 235.582 193.376 238.501L222.036 221.861C219.369 218.881 216.576 216.067 213.656 213.421L184.746 230.201Z" fill="white"/>
<path opacity="0.25" d="M220.366 359.291L240.236 347.751C251.446 341.251 258.356 327.351 258.306 307.591C258.306 306.831 258.306 306.071 258.246 305.301L238.306 316.891C238.306 317.661 238.306 318.411 238.306 319.171C238.386 338.881 231.516 352.771 220.366 359.291Z" fill="black"/>
<path d="M124.056 247.891C124.056 265.311 130.126 285.251 141.056 304.021C151.986 322.791 166.286 337.911 181.386 346.571C189.496 351.231 197.386 353.681 204.156 353.661C212.806 353.661 219.466 349.531 223.616 342.071C216.946 341.971 209.266 339.521 201.346 334.991C186.246 326.311 171.926 311.201 161.016 292.421C150.106 273.641 144.086 253.721 144.016 236.311C144.016 226.941 145.706 219.201 148.916 213.441H148.416C133.146 213.471 123.996 226.361 124.056 247.891Z" fill="#BF9BC5"/>
<path opacity="0.25" d="M124.056 247.891C124.056 265.311 130.126 285.251 141.056 304.021C151.986 322.791 166.286 337.911 181.386 346.571C189.496 351.231 197.386 353.681 204.156 353.661C212.806 353.661 219.466 349.531 223.616 342.071C216.946 341.971 209.266 339.521 201.346 334.991C186.246 326.311 171.926 311.201 161.016 292.421C150.106 273.641 144.086 253.721 144.016 236.311C144.016 226.941 145.706 219.201 148.916 213.441H148.416C133.146 213.471 123.996 226.361 124.056 247.891Z" fill="black"/>
<path opacity="0.3" d="M133.346 242.531C133.346 259.941 139.416 279.881 150.346 298.651C161.276 317.421 175.566 332.541 190.676 341.201C198.786 345.861 206.676 348.311 213.446 348.291C215.505 348.302 217.556 348.043 219.546 347.521C221.143 345.898 222.509 344.064 223.606 342.071C226.826 336.321 228.536 328.581 228.516 319.201C228.516 301.781 222.446 281.861 211.516 263.081C200.586 244.301 186.286 229.191 171.186 220.521C163.266 215.971 155.576 213.521 148.906 213.441H148.406C146.337 213.435 144.277 213.701 142.276 214.231C136.496 220.041 133.316 229.761 133.346 242.531Z" fill="white"/>
<path d="M114.206 247.921C114.306 287.441 142.206 335.441 176.456 355.111C210.706 374.781 238.456 358.701 238.336 319.181C238.216 279.661 210.336 231.661 176.096 211.981C141.856 192.301 114.146 208.401 114.206 247.921ZM141.026 304.021C130.126 285.251 124.096 265.311 124.026 247.891C123.996 226.361 133.146 213.471 148.416 213.471H148.916C155.586 213.561 163.276 216.001 171.196 220.551C186.296 229.221 200.616 244.341 211.526 263.111C222.436 281.881 228.456 301.811 228.526 319.231C228.526 328.611 226.836 336.351 223.616 342.101C219.466 349.561 212.806 353.671 204.156 353.691C197.366 353.691 189.496 351.261 181.386 346.601C166.256 337.911 151.926 322.791 141.026 304.021Z" fill="#BF9BC5"/>
<g opacity="0.3">
<path d="M114.206 247.921C114.306 287.441 142.206 335.441 176.456 355.111C210.706 374.781 238.456 358.701 238.336 319.181C238.216 279.661 210.336 231.661 176.096 211.981C141.856 192.301 114.146 208.401 114.206 247.921ZM141.026 304.021C130.126 285.251 124.096 265.311 124.026 247.891C123.996 226.361 133.146 213.471 148.416 213.471H148.916C155.586 213.561 163.276 216.001 171.196 220.551C186.296 229.221 200.616 244.341 211.526 263.111C222.436 281.881 228.456 301.811 228.526 319.231C228.526 328.611 226.836 336.351 223.616 342.101C219.466 349.561 212.806 353.671 204.156 353.691C197.366 353.691 189.496 351.261 181.386 346.601C166.256 337.911 151.926 322.791 141.026 304.021Z" fill="white"/>
</g>
<g opacity="0.3">
<path d="M223.146 263.811C228.888 274.934 233.151 286.761 235.826 298.991C237.115 305.101 237.835 311.317 237.976 317.561C238.154 323.796 237.481 330.027 235.976 336.081C234.545 342.143 231.751 347.799 227.806 352.621C223.767 357.392 218.325 360.769 212.256 362.271C206.167 363.681 199.827 363.599 193.776 362.031C187.696 360.551 181.855 358.222 176.426 355.111C181.81 358.339 187.624 360.787 193.696 362.381C199.801 364.012 206.211 364.139 212.376 362.751C218.562 361.254 224.121 357.85 228.266 353.021C232.316 348.149 235.199 342.416 236.696 336.261C238.164 330.137 238.797 323.843 238.576 317.551C238.398 311.273 237.635 305.026 236.296 298.891C234.952 292.771 233.17 286.756 230.966 280.891C228.713 275.042 226.101 269.338 223.146 263.811Z" fill="white"/>
</g>
<g opacity="0.3">
<path d="M148.416 213.471C145.307 213.425 142.22 213.999 139.336 215.161C136.447 216.378 133.868 218.226 131.786 220.571C129.729 222.946 128.086 225.65 126.926 228.571C125.739 231.464 124.883 234.484 124.376 237.571C123.402 243.736 123.241 250.003 123.896 256.211C124.5 262.411 125.671 268.544 127.396 274.531C129.092 280.525 131.248 286.379 133.846 292.041C136.414 297.71 139.35 303.205 142.636 308.491C149.145 319.145 157.177 328.79 166.476 337.121C171.179 341.252 176.3 344.881 181.756 347.951C187.22 351.112 193.209 353.26 199.436 354.291C202.598 354.777 205.819 354.733 208.966 354.161C212.142 353.541 215.137 352.211 217.726 350.271C219.02 349.314 220.198 348.21 221.236 346.981C222.281 345.773 223.205 344.467 223.996 343.081C225.565 340.324 226.743 337.362 227.496 334.281C228.943 328.183 229.456 321.902 229.016 315.651C228.638 309.437 227.657 303.274 226.086 297.251C224.515 291.243 222.483 285.365 220.006 279.671C217.559 273.981 214.726 268.464 211.526 263.161C217.617 273.894 222.2 285.416 225.146 297.401C226.605 303.379 227.485 309.484 227.776 315.631C228.118 321.747 227.531 327.88 226.036 333.821C225.27 336.746 224.106 339.552 222.576 342.161C221.091 344.758 219.094 347.027 216.706 348.831C214.317 350.601 211.558 351.808 208.636 352.361C205.681 352.884 202.659 352.908 199.696 352.431C193.704 351.397 187.947 349.297 182.696 346.231C177.375 343.198 172.381 339.622 167.796 335.561C158.587 327.399 150.619 317.936 144.146 307.471C137.582 297.052 132.434 285.807 128.836 274.031C127.051 268.156 125.806 262.131 125.116 256.031C124.389 249.928 124.453 243.757 125.306 237.671C125.733 234.636 126.505 231.66 127.606 228.801C128.661 225.92 130.196 223.238 132.146 220.871C134.136 218.53 136.619 216.659 139.416 215.391C142.259 214.16 145.319 213.507 148.416 213.471Z" fill="white"/>
</g>
<path d="M87.826 543.661L86.416 529.471L104.076 527.771C104.076 527.771 103.276 539.011 103.326 544.161C103.326 546.591 105.026 551.161 105.026 551.161C105.026 551.161 98.026 554.701 94.446 553.161C90.866 551.621 88.516 545.951 88.606 544.911L87.826 543.661Z" fill="#FFC9C8"/>
<path d="M125.076 568.561C125.316 568.561 125.406 570.851 124.006 571.911C120.253 574.265 115.749 575.115 111.396 574.291C105.476 573.201 102.346 571.201 100.066 569.101C97.7861 567.001 94.6161 564.041 91.9461 563.301C89.5541 562.505 87.3397 561.252 85.4261 559.611C84.6661 558.811 84.9761 555.421 84.9761 555.421L125.076 568.561Z" fill="#263238"/>
<path d="M87.7064 542.301C87.7064 542.301 87.3764 542.451 87.1764 543.231C86.9364 544.161 86.5764 546.861 86.0964 548.381C85.3161 551.045 84.9551 553.815 85.0264 556.591C85.2464 558.351 89.8964 560.711 92.4464 561.831C95.439 563.324 98.1899 565.259 100.606 567.571C103.276 570.001 109.046 572.701 112.936 572.891C117.546 573.111 122.816 571.941 124.126 569.891C125.746 567.371 126.996 564.411 120.356 560.891C119.096 560.231 114.706 557.331 113.216 556.291C109.216 553.461 106.376 550.921 104.726 546.221C104.599 545.646 104.282 545.132 103.826 544.761C103.417 544.562 102.955 544.496 102.506 544.571C100.224 544.696 97.9549 544.99 95.7164 545.451C94.7764 545.831 93.4464 546.261 93.3964 547.451C93.4 547.854 93.4641 548.256 93.5864 548.641C93.6564 548.881 93.6964 549.191 93.4864 549.321C93.2764 549.451 93.0264 549.321 92.8564 549.111C92.2219 548.401 91.6497 547.638 91.1464 546.831C90.644 546.107 90.0927 545.419 89.4964 544.771C89.107 544.523 88.733 544.253 88.3764 543.961C87.9629 543.504 87.7253 542.916 87.7064 542.301Z" fill="#455A64"/>
<path d="M100.606 567.571C99.4707 566.53 98.2824 565.549 97.0464 564.631C97.0464 564.631 104.796 569.881 108.166 567.881C110.336 566.591 109.446 564.881 109.426 564.281C109.406 563.681 117.016 560.281 119.056 560.171C119.475 560.448 119.909 560.702 120.356 560.931C125.566 563.331 126.116 566.071 125.026 569.431C123.716 571.431 118.966 573.381 113.026 573.041C109.146 572.821 103.276 570.001 100.606 567.571Z" fill="#37474F"/>
<path d="M108.956 562.651C113.106 564.561 111.246 565.241 110.046 565.341C108.846 565.441 101.946 560.931 97.7863 557.291C93.4463 553.501 90.1863 548.551 88.5763 547.161C87.9663 546.641 87.3263 546.001 86.7563 545.411C86.9263 544.501 87.0663 543.671 87.1763 543.231C87.3763 542.451 87.7063 542.301 87.7063 542.301C87.8299 542.889 88.0567 543.451 88.3763 543.961C88.733 544.253 89.107 544.523 89.4964 544.771C90.0926 545.419 90.6439 546.107 91.1463 546.831C91.6497 547.638 92.2218 548.401 92.8564 549.111C96.2964 553.951 104.806 560.741 108.956 562.651Z" fill="#37474F"/>
<path d="M109.786 564.711C109.689 564.706 109.597 564.667 109.526 564.601C109.487 564.562 109.455 564.516 109.434 564.466C109.412 564.415 109.401 564.361 109.401 564.306C109.401 564.25 109.412 564.196 109.434 564.145C109.455 564.095 109.487 564.049 109.526 564.011C110.816 562.641 116.696 559.521 119.796 560.011C119.904 560.029 119.999 560.09 120.062 560.179C120.125 560.268 120.15 560.378 120.131 560.486C120.113 560.593 120.052 560.689 119.963 560.751C119.874 560.814 119.764 560.839 119.656 560.821C116.756 560.351 111.166 563.451 110.146 564.541C110.104 564.596 110.05 564.64 109.987 564.67C109.924 564.699 109.855 564.713 109.786 564.711Z" fill="#263238"/>
<path d="M106.216 562.261C106.137 562.256 106.061 562.23 105.996 562.184C105.932 562.138 105.881 562.075 105.851 562.002C105.82 561.929 105.812 561.848 105.825 561.77C105.838 561.692 105.873 561.62 105.926 561.561C107.206 560.191 113.086 557.081 116.196 557.561C116.25 557.568 116.302 557.586 116.348 557.614C116.395 557.642 116.435 557.679 116.467 557.723C116.499 557.767 116.522 557.817 116.533 557.869C116.545 557.922 116.546 557.977 116.536 558.031C116.528 558.085 116.509 558.137 116.48 558.183C116.451 558.23 116.413 558.27 116.368 558.302C116.323 558.334 116.273 558.356 116.219 558.368C116.166 558.38 116.11 558.381 116.056 558.371C113.156 557.911 107.566 561.001 106.546 562.091C106.508 562.142 106.458 562.184 106.401 562.213C106.344 562.242 106.281 562.259 106.216 562.261Z" fill="#263238"/>
<path d="M102.636 559.931C102.54 559.921 102.45 559.883 102.376 559.821C102.337 559.782 102.305 559.736 102.284 559.686C102.262 559.635 102.251 559.581 102.251 559.526C102.251 559.47 102.262 559.416 102.284 559.365C102.305 559.315 102.337 559.269 102.376 559.231C103.656 557.851 109.536 554.741 112.646 555.231C112.754 555.249 112.849 555.31 112.912 555.399C112.975 555.488 113 555.598 112.981 555.706C112.963 555.813 112.902 555.909 112.813 555.971C112.724 556.034 112.614 556.059 112.506 556.041C109.606 555.571 104.016 558.671 102.996 559.761C102.954 559.816 102.9 559.86 102.837 559.89C102.774 559.919 102.706 559.933 102.636 559.931Z" fill="#263238"/>
<path d="M99.3462 557.311C99.2671 557.306 99.1908 557.28 99.1261 557.234C99.0615 557.188 99.011 557.125 98.9807 557.052C98.9504 556.979 98.9414 556.898 98.9547 556.82C98.9681 556.742 99.0033 556.669 99.0562 556.611C100.336 555.241 106.236 552.131 109.326 552.611C109.379 552.62 109.43 552.639 109.476 552.668C109.521 552.697 109.561 552.735 109.592 552.779C109.623 552.823 109.645 552.873 109.657 552.925C109.669 552.978 109.67 553.032 109.661 553.086C109.652 553.139 109.632 553.19 109.604 553.235C109.575 553.281 109.537 553.32 109.493 553.351C109.449 553.383 109.399 553.405 109.347 553.416C109.294 553.428 109.239 553.43 109.186 553.421C106.286 552.961 100.696 556.051 99.6762 557.141C99.6374 557.192 99.5876 557.234 99.5305 557.263C99.4734 557.292 99.4104 557.309 99.3462 557.311Z" fill="#263238"/>
<path d="M96.146 554.691C96.0502 554.689 95.9579 554.654 95.886 554.591C95.8464 554.552 95.8149 554.506 95.7934 554.456C95.7718 554.405 95.7607 554.351 95.7607 554.296C95.7607 554.24 95.7718 554.186 95.7934 554.135C95.8149 554.085 95.8464 554.039 95.886 554.001C97.646 552.051 103.766 549.521 106.886 550.001C106.94 550.008 106.992 550.026 107.039 550.054C107.086 550.081 107.127 550.118 107.16 550.162C107.192 550.206 107.216 550.256 107.229 550.309C107.242 550.362 107.244 550.417 107.236 550.471C107.226 550.525 107.206 550.577 107.176 550.624C107.146 550.671 107.107 550.711 107.062 550.743C107.016 550.774 106.965 550.796 106.911 550.808C106.857 550.82 106.801 550.821 106.746 550.811C103.956 550.351 98.096 552.811 96.526 554.521C96.4852 554.582 96.4278 554.63 96.3606 554.66C96.2933 554.691 96.2189 554.701 96.146 554.691Z" fill="#263238"/>
<path d="M57.5862 551.651L61.3662 534.091L44.0562 531.611L43.9562 548.911C43.9562 548.911 42.6762 553.571 43.6662 555.161C44.6562 556.751 55.0562 558.291 55.9962 557.221C56.9362 556.151 57.5862 551.651 57.5862 551.651Z" fill="#FFC9C8"/>
<path d="M56.1463 579.27C55.7363 583.21 54.9363 585.76 53.2563 587.91C51.5763 590.06 48.5563 590.461 45.5463 589.451C42.5363 588.441 38.7163 586.19 37.9863 582.68C37.322 579.553 37.4457 576.309 38.3463 573.24L56.1463 579.27Z" fill="#263238"/>
<path d="M43.9562 548.911C42.6962 548.861 43.0662 551.911 42.5362 557.251C41.9462 562.991 39.4162 567.511 38.5362 572.121C37.5362 577.381 37.7662 579.801 39.7562 583.271C41.7462 586.741 49.1162 590.731 52.9962 586.501C56.1462 583.051 56.4362 578.881 56.3762 573.501C56.2004 568.956 56.2839 564.405 56.6262 559.871C57.0262 555.871 58.6262 552.201 57.6262 551.641C57.5162 552.221 56.4962 556.261 55.7962 556.201C55.7412 555.699 55.7412 555.192 55.7962 554.691C55.8414 554.461 55.8391 554.224 55.7892 553.995C55.7393 553.767 55.643 553.551 55.5062 553.361C54.908 552.905 54.2296 552.566 53.5062 552.361C52.2762 552.011 50.0962 551.591 48.8562 551.361C48.2362 551.241 47.6062 551.151 46.9862 551.081C46.4555 551.005 45.9168 551.005 45.3862 551.081C45.2441 551.105 45.1089 551.159 44.9898 551.24C44.8707 551.321 44.7705 551.427 44.6962 551.551C44.621 551.741 44.5902 551.946 44.6062 552.151C44.5909 552.518 44.5236 552.882 44.4062 553.231C44.4062 553.391 44.2162 553.571 44.0462 553.511C43.9796 553.482 43.9246 553.432 43.8901 553.369C43.8556 553.305 43.8436 553.232 43.8562 553.161C43.8562 552.551 43.9162 549.251 43.9562 548.911Z" fill="#455A64"/>
<path d="M38.8762 570.631C38.7262 571.391 37.7962 576.411 39.3262 577.511C40.8562 578.611 42.0762 574.771 42.0762 574.771C42.0762 574.771 46.0762 574.131 51.8362 577.011C51.4962 577.811 52.2862 580.641 53.9062 580.241C55.5262 579.841 56.3662 574.051 56.3762 573.971C56.3762 579.121 56.0562 583.151 52.9962 586.501C49.1162 590.731 41.7462 586.741 39.7562 583.271C37.7662 579.801 37.5362 577.381 38.5362 572.121C38.6362 571.591 38.7562 571.101 38.8762 570.631Z" fill="#37474F"/>
<path d="M42.5263 575.171C42.4163 577.101 40.2863 576.171 40.3063 573.471C40.3263 570.771 41.6863 564.061 42.1863 559.571C42.4863 553.121 42.6963 548.861 43.9563 548.911C43.9563 548.971 43.9563 549.041 43.9563 549.101L43.8563 553.191C43.6663 557.131 43.6963 564.781 43.1663 568.351C42.8137 570.609 42.6 572.886 42.5263 575.171Z" fill="#37474F"/>
<path d="M51.1462 576.891C51.772 574.703 52.2596 572.479 52.6062 570.231C53.1762 566.711 55.2162 559.631 56.2162 555.831C56.5462 555.201 57.5762 551.651 57.5762 551.651C58.4462 551.881 57.5762 555.271 57.2262 556.861C56.8762 558.451 56.3562 560.141 55.8662 562.411C54.6162 566.901 54.5562 573.601 53.7462 576.191C52.9362 578.781 50.6762 578.741 51.1462 576.891Z" fill="#37474F"/>
<path d="M51.9462 577.181C51.8867 577.17 51.8294 577.149 51.7762 577.121C48.8363 575.555 45.5035 574.881 42.1862 575.181C42.0665 575.198 41.9444 575.173 41.8419 575.108C41.7393 575.044 41.6628 574.946 41.6262 574.831C41.6128 574.776 41.6117 574.72 41.6228 574.665C41.6339 574.61 41.657 574.558 41.6905 574.513C41.7239 574.468 41.7669 574.431 41.8162 574.405C41.8656 574.379 41.9202 574.363 41.9762 574.361C45.5299 574.028 49.1022 574.762 52.2362 576.471C52.288 576.495 52.3342 576.529 52.3719 576.573C52.4095 576.616 52.4377 576.666 52.4546 576.721C52.4716 576.775 52.4769 576.833 52.4703 576.89C52.4637 576.947 52.4452 577.001 52.4162 577.051C52.3579 577.114 52.2829 577.16 52.1998 577.183C52.1167 577.206 52.0288 577.205 51.9462 577.181Z" fill="#263238"/>
<path d="M53.1463 573.101L52.9963 573.051C49.6668 571.392 45.9582 570.644 42.2463 570.881C42.1271 570.892 42.0078 570.861 41.9091 570.794C41.8103 570.726 41.7386 570.626 41.7063 570.511C41.6961 570.457 41.6978 570.401 41.711 570.348C41.7242 570.295 41.7488 570.246 41.783 570.203C41.8172 570.16 41.8602 570.125 41.9091 570.101C41.958 570.076 42.0116 570.063 42.0663 570.061C45.99 569.789 49.9144 570.58 53.4263 572.351C53.4776 572.374 53.5236 572.408 53.5613 572.45C53.599 572.491 53.6277 572.541 53.6455 572.594C53.6634 572.648 53.67 572.704 53.6649 572.76C53.6599 572.817 53.6433 572.871 53.6163 572.921C53.5657 572.995 53.4936 573.052 53.4095 573.084C53.3255 573.117 53.2336 573.122 53.1463 573.101Z" fill="#263238"/>
<path d="M42.7162 566.931C42.6312 566.913 42.5519 566.875 42.4856 566.819C42.4192 566.763 42.3679 566.691 42.3362 566.611C42.3197 566.558 42.3149 566.502 42.3221 566.448C42.3292 566.393 42.3482 566.34 42.3777 566.294C42.4072 566.247 42.4465 566.207 42.4929 566.178C42.5393 566.148 42.5916 566.128 42.6462 566.121C48.3162 565.051 53.7562 568.181 53.9862 568.321C54.0369 568.345 54.082 568.379 54.1185 568.422C54.155 568.464 54.1822 568.514 54.1982 568.568C54.2143 568.621 54.2188 568.678 54.2116 568.734C54.2043 568.789 54.1855 568.843 54.1562 568.891C54.0831 568.983 53.9784 569.045 53.8622 569.066C53.746 569.086 53.6264 569.063 53.5262 569.001C53.5262 569.001 48.1862 565.931 42.9162 566.931C42.8499 566.941 42.7825 566.941 42.7162 566.931Z" fill="#263238"/>
<path d="M43.1462 563.201C43.0616 563.186 42.9822 563.15 42.9156 563.095C42.8491 563.041 42.7976 562.971 42.7662 562.891C42.7479 562.839 42.7414 562.783 42.7472 562.729C42.7529 562.674 42.7708 562.621 42.7996 562.574C42.8283 562.527 42.8672 562.487 42.9133 562.457C42.9594 562.427 43.0117 562.408 43.0662 562.401C47.061 561.691 51.1771 562.47 54.6362 564.591C54.6851 564.618 54.7276 564.656 54.761 564.7C54.7945 564.745 54.8181 564.797 54.8303 564.852C54.8426 564.906 54.8432 564.963 54.8322 565.018C54.8211 565.073 54.7987 565.125 54.7662 565.171C54.6872 565.259 54.578 565.316 54.4597 565.329C54.3415 565.342 54.2226 565.31 54.1262 565.241C50.8887 563.304 47.0631 562.594 43.3462 563.241C43.2771 563.248 43.2072 563.234 43.1462 563.201Z" fill="#263238"/>
<path d="M43.7265 559.021C43.6447 559.005 43.5681 558.97 43.5034 558.917C43.4388 558.865 43.3883 558.797 43.3565 558.721C43.3343 558.669 43.3244 558.613 43.3278 558.557C43.3311 558.501 43.3476 558.446 43.3757 558.398C43.4039 558.349 43.4431 558.308 43.4901 558.277C43.5371 558.246 43.5907 558.227 43.6465 558.221C49.4965 556.941 55.0565 560.381 55.2965 560.531C55.3461 560.557 55.3896 560.594 55.424 560.639C55.4584 560.683 55.4831 560.734 55.4963 560.789C55.5095 560.844 55.511 560.901 55.5007 560.956C55.4904 561.012 55.4685 561.064 55.4365 561.111C55.3605 561.2 55.2536 561.258 55.137 561.273C55.0204 561.288 54.9025 561.258 54.8065 561.191C54.7465 561.191 49.3765 557.831 43.9365 559.021C43.8679 559.04 43.7951 559.04 43.7265 559.021Z" fill="#263238"/>
<path d="M51.5262 396.871C49.2662 407.511 47.8262 413.871 47.2662 441.261C46.7462 467.091 46.2662 475.401 46.1162 478.651C45.9662 481.901 43.3262 489.171 42.7862 504.971C42.5298 516.097 42.9204 527.229 43.9562 538.311C43.9562 538.311 45.7562 541.061 51.8862 541.611C55.0548 541.984 58.2569 541.28 60.9762 539.611C60.9762 539.611 68.5462 509.031 70.6962 499.381C72.8462 489.731 78.6062 457.731 78.6062 457.731L80.8762 483.471C80.8762 483.471 79.3062 492.401 81.3162 506.941C83.2462 520.941 86.7562 534.641 86.7562 534.641C86.7562 534.641 89.1462 536.641 95.7562 536.231C98.6941 536.054 101.593 535.465 104.366 534.481C104.366 534.481 106.696 492.731 107.176 476.811C107.716 459.381 106.596 421.001 104.236 396.811L51.5262 396.871Z" fill="#37474F"/>
<path d="M83.6563 427.12L78.6563 457.75L80.8763 483.47L80.7363 457.38L85.2464 432.25C89.0864 431.33 97.8264 426.721 100.246 420.141C94.3064 426.351 83.6563 427.12 83.6563 427.12ZM65.7063 409.21C66.3863 406.64 67.0963 404.08 67.9063 401.5C66.4935 403.806 65.3334 406.256 64.4464 408.81C63.5297 411.348 62.7585 413.935 62.1364 416.56C61.5364 419.19 61.0263 421.83 60.6763 424.5C60.2949 427.17 60.1177 429.864 60.1463 432.56C60.7863 429.94 61.3863 427.34 61.9863 424.74C62.5863 422.14 63.1663 419.541 63.7963 416.951C64.4263 414.361 65.0363 411.78 65.7063 409.21ZM61.8463 407.28C62.7163 405.71 63.5863 404.13 64.3763 402.47C63.0358 403.715 61.8169 405.085 60.7363 406.56C59.6333 408.024 58.631 409.561 57.7363 411.16C56.8533 412.764 56.1008 414.436 55.4863 416.16C54.8465 417.883 54.4331 419.681 54.2563 421.51L56.7063 416.68C57.5363 415.1 58.3563 413.52 59.2263 411.97C60.0963 410.42 60.9863 408.85 61.8463 407.28ZM58.6463 509.56C57.153 517.854 55.7697 526.167 54.4964 534.5C56.4164 526.294 58.233 518.064 59.9464 509.81C61.6864 501.56 63.3164 493.33 64.9464 485.02C66.5764 476.71 67.4863 468.311 68.2963 459.921C69.1063 451.531 69.7363 443.12 70.2963 434.71C69.1363 443.06 68.0863 451.42 67.0363 459.77C65.9863 468.12 64.8663 476.46 63.3263 484.72C61.7863 492.98 60.1463 501.27 58.6463 509.56ZM99.5564 467.56C99.6764 471.43 99.8863 474.73 99.8363 478.56C99.7863 482.39 99.5664 485.631 99.4164 489.611C99.3164 492.611 99.1563 497.511 99.1163 500.421C99.0063 508.181 99.1163 515.091 99.1163 522.641C99.7363 515.291 100.116 507.961 100.426 500.641C100.736 493.321 101.426 485.951 101.496 478.641C101.566 471.331 100.876 463.991 100.496 456.641C100.116 449.291 99.4963 442.05 98.6263 434.83C98.8863 441.74 99.0363 449.95 99.1863 456.53C99.3063 460.81 99.4264 463.65 99.5564 467.52V467.56Z" fill="#263238"/>
<path d="M47.9563 412.601C49.3463 401.981 50.4364 393.121 50.0264 389.111C49.1564 380.671 48.6663 379.111 47.9563 374.401C46.4163 364.081 51.1463 352.481 53.5463 350.401C53.5463 350.401 66.0063 347.661 68.4363 347.251C72.6566 346.438 76.9756 346.269 81.2464 346.751C82.3664 346.861 93.1664 348.621 93.1664 348.621C95.2518 350.975 97.1541 353.486 98.8564 356.131C101.706 360.671 103.856 364.011 104.466 374.581C105.166 387.041 105.346 403.671 105.906 411.451C96.0763 423.221 60.2963 422.791 47.9563 412.601Z" fill="#F5F5F5"/>
<path d="M91.5563 325.311C91.7663 325.011 92.2063 324.121 92.6363 323.921C97.8163 318.681 96.0963 312.751 94.2163 309.141C90.0063 301.061 80.5663 299.331 74.8363 299.651C65.9363 300.141 60.0963 303.401 56.2563 308.081C52.1863 313.081 51.7463 320.021 52.2563 327.691C52.6663 333.921 52.7963 341.001 53.3163 347.991C55.3763 347.991 56.4463 347.871 58.6763 347.711C58.5063 345.771 58.2963 341.631 58.2963 341.631C58.2963 341.631 59.1563 346.681 59.3563 347.631C67.8263 347.101 74.4363 346.421 81.0463 345.371C81.0463 344.141 81.0463 342.011 81.0463 340.781C81.3263 342.011 81.8763 345.681 81.8763 345.681C81.8763 345.681 90.4863 344.461 93.3863 343.241C92.6063 339.661 91.9563 334.191 91.8463 333.361C91.5663 331.301 91.3463 329.641 91.2063 328.111C90.9914 327.165 91.1153 326.174 91.5563 325.311Z" fill="#37474F"/>
<path d="M64.0761 336.301C63.1592 336.622 62.1645 336.649 61.2319 336.376C60.2992 336.104 59.4754 335.546 58.8761 334.781C56.2461 331.881 55.9761 328.831 57.0061 326.781C57.4742 325.882 58.259 325.19 59.2086 324.837C60.1582 324.484 61.2049 324.496 62.1461 324.871C63.6061 325.591 63.8761 326.411 64.3861 327.801C64.4138 327.949 64.4748 328.09 64.5646 328.211C64.6543 328.333 64.7704 328.432 64.9042 328.503C65.0379 328.573 65.1859 328.612 65.3369 328.617C65.4879 328.622 65.6381 328.592 65.7761 328.531C66.0998 328.353 66.3721 328.095 66.5666 327.782C66.7611 327.468 66.8711 327.109 66.8861 326.741C67.0309 325.987 67.0812 325.217 67.0361 324.451C67.0196 324.229 67.0538 324.007 67.1361 323.801C67.2361 323.571 67.5961 323.511 67.8061 323.381C69.1207 322.598 70.0866 321.342 70.5061 319.871C70.518 321.071 70.3252 322.265 69.9361 323.401C72.4261 322.64 74.6716 321.236 76.4461 319.331C78.2161 317.434 79.6772 315.271 80.7761 312.921C81.5323 311.523 82.0239 309.997 82.2261 308.421C86.3061 310.131 90.2261 313.611 90.6861 318.221C90.9122 319.528 91.2161 320.82 91.5961 322.091C94.0361 332.701 92.2361 337.091 89.8561 339.741C88.4861 341.291 86.2961 342.471 82.7261 342.981L82.6661 347.701C84.7878 352.778 86.1913 358.126 86.8361 363.591C86.8361 363.591 84.3161 361.111 74.3761 354.591C71.1983 352.404 67.8548 350.468 64.3761 348.801L65.8261 333.941C65.7541 334.449 65.5563 334.931 65.2506 335.343C64.945 335.755 64.5413 336.084 64.0761 336.301Z" fill="#FFC9C8"/>
<path d="M81.2464 333.631C81.2404 333.854 81.1683 334.071 81.0392 334.253C80.9101 334.435 80.7299 334.575 80.5212 334.655C80.3126 334.735 80.0849 334.752 79.8669 334.702C79.649 334.653 79.4506 334.54 79.2969 334.378C79.1431 334.216 79.0409 334.012 79.0031 333.791C78.9653 333.571 78.9937 333.345 79.0846 333.14C79.1755 332.936 79.3249 332.764 79.5139 332.644C79.7029 332.525 79.923 332.465 80.1464 332.471C80.2948 332.474 80.441 332.508 80.5766 332.568C80.7122 332.628 80.8346 332.715 80.9368 332.823C81.0389 332.93 81.1189 333.057 81.172 333.196C81.2251 333.334 81.2504 333.482 81.2464 333.631Z" fill="#B16668"/>
<path d="M89.0364 318.001L85.3164 317.281C85.3512 317.036 85.4353 316.802 85.5637 316.591C85.692 316.38 85.8619 316.197 86.063 316.054C86.2641 315.911 86.4923 315.81 86.7335 315.758C86.9748 315.706 87.2241 315.703 87.4664 315.751C87.9656 315.855 88.4062 316.146 88.698 316.564C88.9899 316.982 89.1109 317.496 89.0364 318.001Z" fill="#263238"/>
<path d="M76.2562 318.131L72.8962 320.411C72.5874 319.98 72.4624 319.444 72.5486 318.92C72.6349 318.397 72.9254 317.93 73.3562 317.621C73.8131 317.318 74.3684 317.203 74.9079 317.298C75.4474 317.392 75.93 317.691 76.2562 318.131Z" fill="#263238"/>
<path d="M74.6764 323.331C74.7186 323.632 74.8491 323.914 75.0514 324.141C75.2538 324.368 75.5188 324.53 75.8132 324.607C76.1076 324.684 76.4181 324.672 76.7056 324.572C76.993 324.473 77.2445 324.29 77.4284 324.048C77.6123 323.805 77.7202 323.514 77.7387 323.21C77.7571 322.907 77.6852 322.604 77.532 322.341C77.3788 322.079 77.1512 321.867 76.8779 321.733C76.6047 321.6 76.2979 321.55 75.9964 321.591C75.7947 321.616 75.6001 321.682 75.4241 321.784C75.2481 321.886 75.0941 322.022 74.9712 322.184C74.8483 322.346 74.759 322.53 74.7083 322.727C74.6577 322.924 74.6468 323.129 74.6764 323.331Z" fill="#263238"/>
<path d="M85.7463 321.781C85.787 322.085 85.9171 322.37 86.1202 322.601C86.3233 322.831 86.5902 322.996 86.887 323.074C87.1839 323.152 87.4974 323.141 87.7877 323.041C88.078 322.941 88.332 322.757 88.5176 322.512C88.7031 322.268 88.8119 321.973 88.83 321.667C88.8481 321.36 88.7748 321.055 88.6193 320.791C88.4639 320.526 88.2333 320.313 87.9568 320.18C87.6803 320.046 87.3704 319.998 87.0663 320.041C86.6624 320.1 86.2978 320.316 86.051 320.641C85.8042 320.966 85.6949 321.375 85.7463 321.781Z" fill="#263238"/>
<path d="M80.6064 320.411L82.2964 329.751L87.2764 327.451L80.6064 320.411Z" fill="#FFB0B0"/>
<path d="M82.7264 342.981C79.5907 343.292 76.4243 342.952 73.4264 341.981C70.6964 340.981 68.3564 337.751 67.3564 335.551C67.442 337.092 67.9089 338.587 68.7153 339.903C69.5217 341.22 70.6422 342.315 71.9764 343.091C76.8464 345.841 82.7364 345.091 82.7364 345.091L82.7264 342.981Z" fill="#FFB0B0"/>
<path d="M53.5462 350.471C46.8962 351.571 44.6563 353.631 41.9063 360.841C39.2563 367.841 33.1063 383.471 34.9063 393.981C36.0163 400.401 52.2063 384.281 52.2063 384.281L57.6063 367.471C57.6063 367.471 58.3362 352.971 53.5462 350.471Z" fill="#FFC9C8"/>
<path d="M58.0463 355.471C59.1147 359.02 59.7658 362.681 59.9863 366.381L52.2263 384.251C52.2263 384.251 49.8963 386.571 46.9463 389.101L35.9463 383.401C36.0963 380.671 42.3763 372.701 46.2563 368.621C49.1463 365.621 55.0463 358.661 58.0463 355.471Z" fill="#FFB0B0"/>
<path d="M55.3965 359.261C57.0675 357.165 58.3048 354.759 59.0365 352.181C59.7865 349.181 62.1565 346.421 62.9565 345.281C63.7565 344.141 65.5065 342.471 66.8265 340.871C68.1465 339.271 68.5465 338.871 70.4565 338.511C73.0765 338.071 75.1365 337.651 76.1665 337.971C77.1965 338.291 77.1665 338.971 76.2665 339.861C75.3665 340.751 73.4965 340.991 72.9165 341.171C72.3365 341.351 71.0565 341.901 71.0565 341.901L68.6265 345.471C70.293 345.752 71.9373 346.154 73.5465 346.671C74.3565 347.111 75.0465 349.191 74.6965 350.341C75.0999 350.604 75.4068 350.991 75.571 351.443C75.7351 351.896 75.7476 352.39 75.6065 352.851C75.6065 352.851 76.5365 354.061 75.8965 355.041C75.1899 356.041 74.3675 356.954 73.4465 357.761C72.6636 358.104 71.8211 358.291 70.9665 358.311C70.0928 359.642 69.0471 360.853 67.8565 361.911C66.4465 362.961 65.5265 362.911 63.9765 365.081L55.3965 359.261Z" fill="#FFC9C8"/>
<path d="M70.4761 345.851C71.4761 345.431 71.6661 344.771 72.5861 345.121C73.5061 345.471 73.1561 346.521 73.1561 346.521L70.4761 345.851Z" fill="#FFB0B0"/>
<path d="M74.6664 350.471C74.0579 349.954 73.3858 349.517 72.6664 349.171C71.9964 348.851 70.5864 348.351 70.5864 348.351C71.5678 348.437 72.5314 348.666 73.4464 349.031C73.917 349.21 74.3691 349.434 74.7964 349.701C74.7987 349.927 74.7684 350.153 74.7064 350.371L74.6664 350.471Z" fill="#FFB0B0"/>
<path d="M74.7961 351.831C75.1196 351.97 75.4337 352.13 75.7361 352.311C75.7138 352.536 75.6634 352.758 75.5861 352.971C74.8297 352.278 73.9516 351.732 72.9961 351.361C73.6115 351.451 74.2152 351.608 74.7961 351.831Z" fill="#FFB0B0"/>
<path d="M70.5962 358.851C71.1575 357.709 71.8272 356.624 72.5962 355.611C72.8446 355.332 73.1893 355.159 73.5607 355.126C73.932 355.092 74.3021 355.201 74.5962 355.431C74.8562 355.821 73.5162 355.771 73.1262 355.941C72.1405 356.777 71.2875 357.758 70.5962 358.851Z" fill="#FFB0B0"/>
<path d="M67.4961 345.371C67.4961 345.371 68.2461 344.311 69.5961 342.621C70.9461 340.931 70.8661 341.171 72.1761 340.911C73.4861 340.651 75.9661 340.211 76.6461 339.421C76.5285 339.575 76.4016 339.722 76.2661 339.861C75.4061 340.741 73.4961 340.991 72.9161 341.171C72.3361 341.351 71.0561 341.901 71.0561 341.901L68.5561 345.581L67.4961 345.371Z" fill="#FFB0B0"/>
<path d="M55.396 359.261C50.986 364.571 39.126 377.341 36.396 382.421C34.496 385.941 34.026 394.111 35.956 397.071C37.886 400.031 43.426 398.801 47.956 394.861C51.816 391.461 55.0461 383.291 57.8561 377.471C60.6661 371.651 64.0261 365.091 64.0261 365.091L55.396 359.261Z" fill="#FFC9C8"/>
<path d="M55.3965 359.261C56.4124 357.924 57.306 356.498 58.0665 355.001C58.431 354.244 58.732 353.457 58.9665 352.651C59.1628 351.836 59.4374 351.042 59.7865 350.281C60.5333 348.784 61.4349 347.369 62.4765 346.061C63.4761 344.713 64.5688 343.436 65.7465 342.241C66.3165 341.631 66.8665 340.981 67.4065 340.341C67.8922 339.675 68.5636 339.167 69.3365 338.881C70.143 338.67 70.9611 338.507 71.7865 338.391C72.6165 338.251 73.4465 338.121 74.2765 338.031C75.0676 337.855 75.8952 337.961 76.6165 338.331C76.9265 338.561 76.8165 338.981 76.6165 339.331C76.3855 339.663 76.0895 339.945 75.7465 340.161C75.0139 340.539 74.2284 340.806 73.4165 340.951C72.5952 341.163 71.7952 341.451 71.0265 341.811L68.6065 345.391L68.5065 345.541H68.6865C70.1665 345.831 71.6865 346.111 73.1165 346.541C73.8765 346.681 74.2365 347.411 74.4965 348.101C74.7643 348.795 74.8268 349.552 74.6765 350.281V350.341H74.7265C75.1053 350.613 75.4082 350.978 75.6065 351.401C75.6931 351.614 75.7405 351.841 75.7465 352.071C75.7419 352.3 75.6979 352.526 75.6165 352.741C75.839 353.001 75.9909 353.315 76.0574 353.651C76.1239 353.987 76.103 354.335 75.9965 354.661C75.6308 355.267 75.1944 355.827 74.6965 356.331C74.4565 356.601 74.2065 356.851 73.9565 357.101C73.7337 357.367 73.4533 357.579 73.1365 357.721C72.4556 357.917 71.7543 358.035 71.0465 358.071C70.5965 358.751 70.1065 359.411 69.5965 360.071C69.0911 360.718 68.5065 361.299 67.8565 361.801C67.2065 362.291 66.4365 362.611 65.7765 363.101C65.1325 363.614 64.5725 364.225 64.1165 364.911C64.5806 364.234 65.1474 363.633 65.7965 363.131C66.4565 362.651 67.2265 362.341 67.8965 361.851C68.5577 361.359 69.1526 360.784 69.6665 360.141C70.1936 359.523 70.6844 358.875 71.1365 358.201C71.8509 358.172 72.5593 358.058 73.2465 357.861C73.5813 357.711 73.8785 357.489 74.1165 357.211C74.3765 356.961 74.6265 356.701 74.8765 356.441C75.3848 355.924 75.8311 355.35 76.2065 354.731C76.3258 354.385 76.3554 354.014 76.2924 353.654C76.2294 353.294 76.076 352.955 75.8465 352.671C75.9302 352.45 75.9742 352.216 75.9765 351.981C75.9736 351.726 75.9192 351.474 75.8165 351.241C75.6225 350.804 75.3194 350.426 74.9365 350.141C75.0799 349.391 75.0142 348.616 74.7465 347.901C74.6187 347.545 74.4438 347.209 74.2265 346.901C74.1053 346.736 73.9564 346.594 73.7865 346.481C73.6161 346.383 73.4349 346.306 73.2465 346.251C71.8376 345.845 70.4091 345.511 68.9665 345.251L71.2765 341.851C72.0171 341.501 72.791 341.226 73.5865 341.031C74.4258 340.879 75.2358 340.596 75.9865 340.191C76.3619 339.963 76.6828 339.656 76.9265 339.291C77.0594 339.103 77.1483 338.887 77.1865 338.661C77.2037 338.537 77.1878 338.41 77.1404 338.294C77.0929 338.178 77.0157 338.077 76.9165 338.001C76.552 337.74 76.1148 337.6 75.6665 337.601C75.2392 337.587 74.8114 337.604 74.3865 337.651C73.5465 337.741 72.7165 337.891 71.8965 338.031C71.0607 338.148 70.2325 338.315 69.4165 338.531C68.616 338.842 67.9218 339.376 67.4165 340.071C66.8765 340.711 66.3465 341.351 65.7765 341.971C64.6018 343.173 63.5125 344.456 62.5165 345.811C61.4694 347.131 60.5707 348.563 59.8365 350.081C59.4878 350.848 59.2165 351.649 59.0265 352.471C58.8086 353.281 58.5208 354.07 58.1665 354.831C57.3832 356.39 56.4559 357.873 55.3965 359.261Z" fill="#B16668"/>
</svg>
