<svg width="1024" height="488" viewBox="0 0 1024 488" fill="none" xmlns="http://www.w3.org/2000/svg">
<path d="M1050.34 293.039V440.334L1039.98 488L772.999 478.839L704.514 476.492L469.453 468.432L440.338 467.431V436.483C468.963 444.37 500.062 446.197 530.841 443.638C558.477 441.346 585.851 435.511 610.935 427.356C613.442 426.54 615.926 425.701 618.387 424.841C623.135 423.182 627.805 421.457 632.395 419.665C699.521 393.557 751.523 354.471 810.436 321.337C849.773 299.254 896.055 280.25 947.407 277.366C961.065 276.624 974.81 277.011 988.324 278.518C991.003 278.814 993.672 279.144 996.334 279.518C999.578 279.976 1002.81 280.494 1006.02 281.072C1021.33 283.827 1036.08 287.794 1049.95 292.888L1050.34 293.039Z" fill="url(#paint0_linear_272_4897)"/>
<path d="M1028.34 120L1027.8 484H0.338379C65.3242 360.938 251.142 283.042 416.351 302.063C431.868 303.846 447.564 306.328 463.291 308.7C469.022 309.553 474.753 310.406 480.483 311.259C518.617 316.556 556.562 319.473 592.062 308.435C606.81 303.846 620.115 297.107 632.419 289.14C647.641 279.305 661.346 267.619 674.377 255.874C704.621 228.578 733.801 199.516 768.363 176.289C781.969 167.028 796.681 158.887 812.281 151.987C848.234 136.309 888.686 128.888 929.474 125.545C930.212 125.476 930.96 125.417 931.697 125.365C938.671 124.811 945.655 124.384 952.629 124.052C977.69 122.849 1002.99 122.798 1027.8 120.068L1028.34 120Z" fill="url(#paint1_linear_272_4897)"/>
<path d="M1036.34 6.10352e-05V484H635.338C650.278 458.04 668.293 433.35 690.457 411.119C693.46 408.1 696.538 405.128 699.693 402.204C727.333 376.612 760.49 355.065 794.256 334.078C806.813 326.283 819.437 318.577 831.909 310.775C879.609 280.954 924.867 249.822 953.647 207.466C954.813 205.753 955.94 204.029 957.027 202.294C962.755 193.204 967.776 183.833 972.06 174.236C972.828 172.542 973.581 170.82 974.299 169.119C998.035 113.618 1003.36 51.7025 1036.34 6.10352e-05Z" fill="url(#paint2_linear_272_4897)"/>
<defs>
<linearGradient id="paint0_linear_272_4897" x1="665.472" y1="353.174" x2="837.506" y2="486.131" gradientUnits="userSpaceOnUse">
<stop stop-color="#79C082"/>
<stop offset="1" stop-color="#9094C9"/>
</linearGradient>
<linearGradient id="paint1_linear_272_4897" x1="582.086" y1="546.728" x2="528.584" y2="195.24" gradientUnits="userSpaceOnUse">
<stop stop-color="#79C082"/>
<stop offset="1" stop-color="#9094C9"/>
</linearGradient>
<linearGradient id="paint2_linear_272_4897" x1="744.908" y1="217.556" x2="1208.63" y2="408.26" gradientUnits="userSpaceOnUse">
<stop stop-color="#79C082"/>
<stop offset="1" stop-color="#9094C9"/>
</linearGradient>
</defs>
</svg>
