<svg width="1036" height="784" viewBox="0 0 1036 784" fill="none" xmlns="http://www.w3.org/2000/svg">
<g clip-path="url(#clip0_274_5238)">
<path d="M617.172 135.876H649.474L681.556 222.076L558.243 212.907C558.243 212.907 550.931 174.4 571.093 138.181C591.254 101.962 617.172 135.876 617.172 135.876Z" fill="#010101"/>
<path d="M621.131 101.448L664.594 207.454C664.594 207.454 686.165 248.78 706.343 285.286H738.737C739.236 285.286 739.708 285.286 740.181 285.227C745.048 284.866 749.598 282.68 752.923 279.108C756.247 275.536 758.101 270.841 758.113 265.961V212.772C753.968 208.298 750.245 204.988 748.295 203.865C725.069 190.357 714.237 202.236 704.477 191.201C691.459 176.469 706.453 166.591 699.479 146.861C692.345 126.742 677.047 127.155 662.998 119C650.014 111.52 648.325 94.5669 646.873 87.7621C646.105 84.1149 621.131 101.448 621.131 101.448Z" fill="#010101"/>
<path d="M645.53 97.1081C646.862 94.2061 647.325 90.9807 646.864 87.8212C646.371 84.7483 645.597 81.7272 644.551 78.796C640.828 68.8928 630.257 50.6735 603.452 53.333C566.963 57.0055 571.1 122.504 571.1 122.504L636.345 117.522L645.53 97.1081Z" fill="#010101"/>
<path d="M583.713 181.703C583.713 181.703 585.748 185.663 597.685 184.565C616.065 182.877 621.95 174.662 621.95 174.662L622.794 143.297L617.163 144.387L583.882 150.82L583.823 166.118L583.713 181.703Z" fill="#F8A792"/>
<path d="M583.09 166.134C591.836 165.29 608.612 161.618 615.434 147.375C615.918 146.443 616.252 145.44 616.421 144.403L583.14 150.836L583.09 166.134Z" fill="#010101"/>
<path d="M577.011 79.3786C577.011 79.3786 559.045 118.299 565.09 140.292C571.135 162.285 591.701 158.976 604.019 154.831C616.337 150.685 622.128 143.391 622.128 143.391C622.128 143.391 633.543 147.258 641.335 136.932C649.128 126.607 644.544 114.627 638.034 111.849C631.525 109.071 623.682 113.614 623.682 113.614L629.912 102.309C629.912 102.309 604.922 44.4091 577.011 79.3786Z" fill="#F8A792"/>
<path d="M601.317 100.055C601.553 100.056 601.786 99.9979 601.993 99.8857C602.341 99.7055 602.604 99.3949 602.724 99.0217C602.844 98.6484 602.812 98.2428 602.635 97.8933C599.899 92.5913 593.204 93.9674 592.934 94.035C592.744 94.0754 592.563 94.153 592.403 94.2631C592.243 94.3733 592.106 94.5139 592 94.677C591.894 94.84 591.822 95.0223 591.786 95.2135C591.751 95.4047 591.754 95.6009 591.794 95.791C591.835 95.9812 591.912 96.1615 592.022 96.3217C592.132 96.4819 592.273 96.6188 592.436 96.7246C592.599 96.8305 592.782 96.9031 592.973 96.9385C593.164 96.9739 593.36 96.9713 593.55 96.9308C593.744 96.8801 598.312 95.9683 600 99.2525C600.126 99.4939 600.315 99.6964 600.547 99.8378C600.779 99.9792 601.046 100.054 601.317 100.055V100.055Z" fill="#010101"/>
<path d="M573.472 95.5546C573.713 95.5534 573.95 95.4945 574.163 95.3829C574.376 95.2712 574.559 95.1101 574.697 94.913C574.975 94.5077 575.997 93.3511 576.968 93.3511C577.77 93.3511 578.521 94.1954 579.002 94.913C579.113 95.0732 579.255 95.21 579.418 95.3156C579.582 95.4212 579.765 95.4935 579.957 95.5283C580.148 95.5632 580.345 95.56 580.535 95.5189C580.726 95.4778 580.906 95.3995 581.067 95.2887C581.227 95.1778 581.364 95.0365 581.469 94.8727C581.575 94.709 581.647 94.5261 581.682 94.3344C581.717 94.1427 581.714 93.946 581.673 93.7556C581.631 93.5651 581.553 93.3847 581.442 93.2244C580.151 91.3333 578.648 90.3793 576.968 90.3793C574.258 90.3793 572.442 92.9121 572.248 93.2329C572.028 93.5565 571.945 93.9544 572.018 94.339C572.091 94.7237 572.313 95.0637 572.637 95.2845C572.882 95.4553 573.173 95.5493 573.472 95.5546V95.5546Z" fill="#010101"/>
<path d="M624.213 113.546C624.213 113.546 607.126 114.002 595.508 95.3181C583.891 76.6345 585.208 71.8897 585.208 71.8897L573.541 91.1981C573.541 91.1981 570.94 77.7996 576.293 69.2472C581.646 60.6948 587.192 62.493 587.192 62.493L624.222 71.78L633.973 101.456L624.213 113.546Z" fill="#010101"/>
<path d="M579.813 129.958C580.201 129.961 580.574 129.809 580.851 129.537C581.128 129.265 581.286 128.894 581.29 128.506C581.4 120.959 585.875 111.114 585.917 111.013C586.081 110.652 586.096 110.239 585.956 109.867C585.887 109.683 585.783 109.514 585.648 109.37C585.514 109.227 585.353 109.111 585.174 109.029C584.812 108.865 584.4 108.85 584.028 108.99C583.656 109.129 583.354 109.41 583.19 109.772C582.996 110.194 578.403 120.292 578.293 128.456C578.291 128.65 578.327 128.842 578.399 129.022C578.471 129.202 578.578 129.367 578.714 129.505C578.849 129.644 579.011 129.755 579.19 129.831C579.368 129.907 579.56 129.948 579.754 129.95L579.813 129.958Z" fill="#010101"/>
<path d="M625.632 130.034C625.831 130.034 626.027 129.995 626.209 129.918C626.392 129.841 626.558 129.729 626.696 129.587L637.393 118.611C637.528 118.472 637.635 118.308 637.707 118.128C637.778 117.947 637.814 117.755 637.811 117.561C637.808 117.367 637.767 117.175 637.691 116.997C637.614 116.819 637.503 116.657 637.363 116.522C637.224 116.387 637.06 116.28 636.88 116.208C636.699 116.137 636.507 116.101 636.313 116.104C636.119 116.107 635.927 116.148 635.749 116.224C635.571 116.301 635.409 116.412 635.274 116.551L624.56 127.502C624.423 127.638 624.313 127.801 624.239 127.98C624.164 128.158 624.126 128.35 624.126 128.544C624.126 128.738 624.164 128.93 624.239 129.109C624.313 129.288 624.423 129.45 624.56 129.587C624.698 129.732 624.865 129.846 625.049 129.923C625.234 130 625.432 130.038 625.632 130.034V130.034Z" fill="#010101"/>
<path d="M638.473 130.034C638.821 130.033 639.158 129.909 639.424 129.685C639.69 129.46 639.868 129.148 639.927 128.805C639.985 128.461 639.921 128.108 639.744 127.808C639.568 127.508 639.291 127.279 638.963 127.163L629.397 123.786C629.214 123.722 629.019 123.694 628.825 123.705C628.631 123.716 628.441 123.765 628.266 123.849C628.09 123.933 627.933 124.051 627.804 124.196C627.674 124.341 627.574 124.51 627.51 124.694C627.446 124.877 627.418 125.072 627.429 125.266C627.44 125.46 627.489 125.65 627.573 125.825C627.657 126 627.775 126.157 627.92 126.287C628.065 126.417 628.234 126.516 628.418 126.581L637.983 129.958C638.141 130.011 638.306 130.037 638.473 130.034V130.034Z" fill="#010101"/>
<path d="M573.903 112.304C573.7 112.301 573.499 112.257 573.314 112.174C573.128 112.092 572.961 111.972 572.823 111.823C572.685 111.674 572.578 111.498 572.51 111.307C572.442 111.115 572.413 110.912 572.426 110.709L573.042 103.11C573.083 102.722 573.271 102.365 573.568 102.112C573.865 101.859 574.248 101.729 574.638 101.751C575.028 101.786 575.388 101.972 575.641 102.271C575.894 102.57 576.019 102.956 575.989 103.347L575.381 110.903C575.361 111.281 575.197 111.638 574.922 111.899C574.647 112.16 574.282 112.305 573.903 112.304V112.304Z" fill="#010101"/>
<path d="M596.284 113.224C596.081 113.221 595.88 113.177 595.695 113.094C595.509 113.012 595.342 112.892 595.204 112.743C595.066 112.594 594.959 112.418 594.891 112.227C594.823 112.035 594.794 111.832 594.807 111.629L595.423 104.073C595.457 103.684 595.643 103.323 595.939 103.069C596.236 102.815 596.62 102.688 597.01 102.713C597.402 102.746 597.764 102.932 598.019 103.231C598.274 103.53 598.4 103.917 598.369 104.309L597.753 111.865C597.725 112.235 597.558 112.581 597.286 112.834C597.013 113.086 596.655 113.225 596.284 113.224V113.224Z" fill="#010101"/>
<path d="M593.321 67.829C595.364 72.8355 607.269 100.941 628.823 103.339C630.787 103.554 632.768 103.554 634.732 103.339" stroke="#3D3D3C" stroke-width="0.25" stroke-miterlimit="10"/>
<path d="M662.272 133.951C669.491 135.944 680.196 140.165 683.919 149.452C684.19 150.136 684.586 151.25 685.279 157.709C687.246 176.012 685.566 181.078 688.327 189.014C690.145 194.074 693.076 198.662 696.904 202.438" stroke="#3D3D3C" stroke-width="0.25" stroke-miterlimit="10"/>
<path d="M594.976 603.32H568.348V703.906H594.976V603.32Z" fill="#F9B2A1"/>
<path d="M665.979 603.32H639.351V703.906H665.979V603.32Z" fill="#F9B2A1"/>
<path d="M672.607 632.372L690.083 371.494L551.446 357.555L557.263 637.438C557.263 637.438 583.621 652.955 602.119 635.471C602.119 635.471 612.9 441.577 616.1 441.433C619.3 441.29 630.951 634.213 630.951 634.213C630.951 634.213 653.965 646.547 672.75 635.724" fill="black"/>
<path d="M583.934 180.462C583.934 180.462 598.598 189.63 623.015 171.377C623.015 171.377 659.63 185.983 659.63 204.236C659.63 222.489 677.942 324.696 662.687 361.202C662.687 361.202 613.854 386.758 549.766 361.202C549.766 361.202 549.766 196.933 565.03 189.63C580.295 182.328 583.934 180.462 583.934 180.462Z" fill="#CCBCBC"/>
<path d="M570.021 248.299C570.021 248.299 585.724 257.18 638.068 242.389" stroke="#C8967D" stroke-miterlimit="10"/>
<path d="M570.021 269.009C570.021 269.009 585.724 277.891 638.068 263.099" stroke="#C8967D" stroke-miterlimit="10"/>
<path d="M570.021 310.428C570.021 310.428 585.724 319.301 638.068 304.518" stroke="#C8967D" stroke-miterlimit="10"/>
<path d="M572.983 331.138C572.983 331.138 588.687 340.011 641.031 325.228" stroke="#C8967D" stroke-miterlimit="10"/>
<path d="M570.021 289.718C570.021 289.718 585.724 298.6 638.068 283.808" stroke="#C8967D" stroke-miterlimit="10"/>
<path d="M570.021 227.589C570.021 227.589 585.724 236.47 638.068 221.679" stroke="#C8967D" stroke-miterlimit="10"/>
<path d="M567.065 206.862C567.065 206.862 582.769 215.744 635.113 200.952" stroke="#C8967D" stroke-miterlimit="10"/>
<path d="M485.636 135.235C487.417 141.871 490.583 152.331 490.583 152.331C490.423 155.236 489.84 167.309 489.165 182.109L510.677 172.915C510.677 172.915 509.833 148.853 510.804 147.359C511.589 146.092 513.007 147.612 519.44 137.937C521.298 135.142 521.543 130.22 521.543 130.22C521.543 130.22 521.804 124.167 520.428 123.635C519.784 123.432 519.088 123.468 518.468 123.736C517.847 124.004 517.345 124.487 517.051 125.095C516.578 126.151 516.764 128.582 516.291 129.638C515.818 130.693 512.712 132.027 511.394 131.993C510.077 131.959 511.141 114.103 511.141 114.103C511.141 114.103 511.766 109.038 512.104 107.349C512.391 105.931 513.581 101.768 513.581 101.768C513.581 101.768 514.949 95.732 513.075 95.3183C511.969 95.0734 509.284 100.012 507.486 105.221C505.552 110.844 504.514 116.771 503.923 116.712C502.53 116.552 503.078 106.767 503.078 106.767C503.078 106.767 504.353 102.258 504.269 100.147C505.518 97.5302 506.27 92.7095 503.965 92.3633C503.543 92.3042 500.647 98.4674 500.647 98.4674C500.647 98.4674 499.558 102.79 498.908 104.816C497.768 108.379 497.717 113.977 497.135 116.459C496.645 118.519 496.147 117.683 495.936 117.776C495.725 117.869 495.995 115.015 496.248 111.114C496.367 109.156 496.096 106.893 496.586 104.656C497.013 102.404 497.272 100.124 497.363 97.8342C497.616 92.7686 494.45 93.3596 493.454 98.003C493.074 99.776 492.677 101.709 492.289 103.668C490.752 111.266 490.963 118.578 490.153 118.662C489.089 118.764 489.486 105.458 489.486 105.458C489.486 105.458 487.688 98.1381 486.227 105.002C485.181 109.831 484.739 114.771 484.91 119.709C485.104 121.659 483.863 128.608 485.636 135.235Z" fill="#F9B2A1"/>
<path d="M579.813 143.23C579.813 143.23 591.144 149.697 595.483 133.563Z" fill="#010101"/>
<path d="M581.713 179.499C558.461 189.812 538.647 206.567 524.615 227.783C524.429 225.546 524.05 221.029 523.864 218.716C520.985 184.379 520.824 183.814 520.841 179.423C520.841 174.645 521.112 161.542 521.255 154.847C521.255 154.619 521.255 154.492 521.255 154.492C514.619 154.796 507.401 154.847 499.676 154.492C492.921 154.188 486.632 153.648 480.781 152.871L480.452 247.429C480.198 249.692 478.611 266.129 489.848 276.134C493.212 279.271 497.41 281.371 501.938 282.179C510.381 283.53 517.177 279.334 522.344 276.134C527.691 272.806 532.316 268.439 535.945 263.293L534.856 386.454C534.856 386.454 585.833 411.664 698.247 387.721L688.723 208.449C688.723 208.449 676.904 172.019 621.182 170.626C621.182 170.626 606.281 229.674 605.521 267.455C605.513 267.455 594.934 189.014 581.713 179.499Z" fill="#7A7B80"/>
<path d="M698.408 387.974C681.949 391.925 665.234 394.721 648.385 396.341C640.584 397.084 633.07 397.556 625.869 397.801C627.937 388.649 636.945 353.899 669.053 334.988C677.212 330.227 686.114 326.871 695.385 325.059C696.393 346.02 697.4 366.991 698.408 387.974Z" fill="#E8E9EC"/>
<path d="M699.311 231.979C699.184 231.988 699.057 231.988 698.931 231.979L625.117 231.549C625.117 218.412 624.816 204.831 624.213 190.805C623.893 183.696 623.493 176.711 623.015 169.85C623.015 169.85 686.816 172.248 699.311 231.979Z" fill="#7A7B80"/>
<path d="M604.584 299.571L608.611 397.801" stroke="#575960" stroke-width="0.75" stroke-miterlimit="10"/>
<path d="M582.802 179.424L565.461 212.671L604.753 303.345C605.074 290.478 605.389 277.606 605.699 264.728C598.055 236.282 590.423 207.847 582.802 179.424Z" fill="#575960"/>
<path d="M628.51 236.006C631.869 238.238 635.812 239.43 639.845 239.43C643.877 239.43 647.82 238.238 651.179 236.006C649.395 239.278 648.46 242.946 648.46 246.673C648.46 250.4 649.395 254.068 651.179 257.34C647.818 255.113 643.876 253.925 639.845 253.925C635.813 253.925 631.871 255.113 628.51 257.34C630.262 254.058 631.178 250.394 631.178 246.673C631.178 242.952 630.262 239.289 628.51 236.006V236.006Z" fill="#E8EB8F"/>
<path d="M604.711 304.105L644.754 210.391L622.871 171.116C620.665 179.925 618.616 189.003 616.725 198.352C609.688 233.192 605.669 268.574 604.711 304.105V304.105Z" fill="#575960"/>
<path d="M582.473 179.499L566.93 211.159L604.711 301.082L607.167 263.217C607.167 263.217 588.94 174.282 582.473 179.499Z" fill="#213D73"/>
<path d="M604.711 301.833C617.561 271.113 630.405 240.385 643.243 209.648L621.335 170.356C619.117 179.136 617.068 188.218 615.188 197.6C608.374 231.93 604.865 266.834 604.711 301.833V301.833Z" fill="#213D73"/>
<path d="M643.243 209.648L637.224 199.069L604.711 301.082L643.243 209.648Z" fill="#848484"/>
<path d="M571.995 291.356L610.46 406.742C610.46 406.742 616.37 415.615 625.252 409.697L696.254 377.159C697.614 376.576 698.845 375.731 699.877 374.672C700.91 373.613 701.724 372.361 702.273 370.987C702.822 369.614 703.095 368.145 703.076 366.666C703.057 365.187 702.747 363.727 702.164 362.367C689.348 329.824 676.529 297.28 663.708 264.737C663.277 262.803 661.918 257.89 657.798 255.855C654.573 254.276 651.196 255.196 648.916 255.855C635.923 259.612 624.053 264.078 622.297 264.737C618.92 265.994 613.136 267.548 601.587 270.646C592.351 273.128 584.322 275.087 577.947 276.556C577.432 276.759 572.57 278.718 571.193 283.893C570.564 286.397 570.848 289.043 571.995 291.356V291.356Z" fill="#A9A8A8"/>
<path d="M574.959 291.356C587.763 329.821 600.582 368.283 613.415 406.742C613.415 406.742 619.325 415.615 628.206 409.697L699.217 377.159C700.577 376.576 701.808 375.731 702.841 374.672C703.873 373.613 704.687 372.361 705.236 370.987C705.785 369.614 706.058 368.145 706.039 366.666C706.02 365.187 705.711 363.727 705.127 362.367C692.3 329.824 679.479 297.28 666.663 264.737C666.232 262.803 664.873 257.89 660.753 255.855C657.536 254.276 654.159 255.196 651.88 255.855C638.878 259.612 627.008 264.078 625.251 264.737C621.874 265.994 616.091 267.548 604.542 270.646C595.314 273.128 587.276 275.087 580.902 276.556C580.379 276.759 575.524 278.718 574.148 283.893C573.52 286.398 573.807 289.045 574.959 291.356V291.356Z" fill="#D8D7D9"/>
<path d="M641.521 338.694C647.237 338.694 651.871 334.06 651.871 328.343C651.871 322.627 647.237 317.993 641.521 317.993C635.804 317.993 631.17 322.627 631.17 328.343C631.17 334.06 635.804 338.694 641.521 338.694Z" fill="#A9A8A8"/>
<path d="M645.336 379.531C651.297 375.032 660.533 367.543 660.533 367.543C663.53 366.521 675.941 362.165 691.146 356.795L673.07 338.846C673.07 338.846 649.127 349.518 647.236 349.189C645.632 348.91 646.594 346.858 634.192 344.326C630.612 343.6 625.547 345.364 625.547 345.364C625.547 345.364 619.333 347.584 619.358 349.18C619.421 349.913 619.744 350.6 620.269 351.115C620.794 351.631 621.486 351.942 622.22 351.992C623.478 351.992 625.85 350.852 627.108 350.894C628.366 350.936 630.984 353.52 631.49 354.87C631.997 356.221 613.541 362.469 613.541 362.469C613.541 362.469 608.172 363.921 606.356 364.259C604.811 364.546 600.126 365.052 600.126 365.052C600.126 365.052 593.481 366.141 593.828 368.201C594.03 369.417 600.109 370.101 606.112 369.789C612.57 369.442 618.978 368.058 619.155 368.683C619.569 370.143 609.489 373.638 609.489 373.638C609.489 373.638 604.423 374.196 602.321 375.141C599.172 374.956 593.996 376.171 594.596 378.637C594.706 379.092 602.11 379.481 602.11 379.481C602.11 379.481 606.914 378.814 609.218 378.637C613.288 378.324 618.953 376.104 621.688 375.665C623.968 375.31 623.335 376.154 623.512 376.34C623.689 376.526 620.7 377.404 616.665 378.746C614.639 379.422 612.444 380.629 610.012 381.043C607.566 381.54 605.159 382.214 602.81 383.06C597.601 384.876 599.493 387.831 604.583 386.927C606.525 386.59 608.636 386.193 610.772 385.796C619.079 384.226 626.357 381.017 626.771 381.811C627.311 382.833 613.727 387.881 613.727 387.881C613.727 387.881 607.074 392.694 614.571 391.351C619.872 390.438 625.037 388.864 629.945 386.665C631.853 385.635 639.376 384.04 645.336 379.531Z" fill="#F9B2A1"/>
<path d="M681.328 702.344C679.639 703.526 672.649 704.582 664.046 705.468C646.873 707.233 623.369 708.305 623.369 708.305L634.784 686.16L633.652 682.926C633.487 682.443 633.444 681.926 633.527 681.421C633.61 680.917 633.815 680.441 634.126 680.035C634.436 679.629 634.842 679.306 635.308 679.095C635.773 678.884 636.283 678.79 636.793 678.823L653.78 679.98L664.282 668.582C664.446 668.326 664.673 668.117 664.942 667.975C665.211 667.834 665.512 667.764 665.816 667.773C666.119 667.783 666.415 667.871 666.675 668.029C666.934 668.187 667.149 668.409 667.296 668.675C669.998 673.504 675.452 683.475 678.854 691.352C681.26 696.907 682.637 701.424 681.328 702.344Z" fill="#E0E1E0"/>
<path d="M681.328 702.345C681.328 702.345 654.235 727.673 649.929 728.568C645.624 729.463 604.491 732.561 603.638 729.944C602.786 727.327 604.618 724.22 607.429 721.079C613.246 714.595 623.369 708.305 623.369 708.305L663.049 694.797L671.644 698.36L681.328 702.345Z" fill="#E0E1E0"/>
<path d="M681.328 702.345C681.328 702.345 654.235 727.673 649.929 728.568C645.624 729.463 604.491 732.561 603.638 729.944C602.786 727.327 604.618 724.22 607.429 721.079C617.56 720.581 643.623 719.188 648.089 718.014C650.571 717.364 657.325 711.64 664.045 705.469C666.671 703.062 669.297 700.597 671.644 698.326C674.607 695.498 677.174 692.999 678.837 691.352C681.26 696.908 682.636 701.425 681.328 702.345Z" fill="#0C1B3F"/>
<path d="M630.47 695.033C630.378 695.007 630.297 694.951 630.24 694.875C630.182 694.799 630.151 694.706 630.151 694.611C630.151 694.515 630.182 694.423 630.24 694.346C630.297 694.27 630.378 694.215 630.47 694.189L640.246 693.859C640.305 693.855 640.363 693.862 640.418 693.881C640.474 693.9 640.524 693.931 640.567 693.97C640.61 694.01 640.644 694.058 640.667 694.112C640.691 694.165 640.702 694.223 640.702 694.282C640.705 694.339 640.695 694.397 640.675 694.451C640.655 694.505 640.625 694.555 640.586 694.597C640.547 694.639 640.499 694.674 640.447 694.698C640.394 694.722 640.338 694.735 640.28 694.737L630.504 695.058L630.47 695.033Z" fill="#5D6AA4"/>
<path d="M598.134 708.288C597.957 713.117 597.357 716.63 595.998 716.908C590.004 718.115 530.356 720.885 527.266 720.108C524.176 719.331 514.746 718.858 514.805 712.991C514.858 711.838 515.271 710.73 515.987 709.825C518.933 705.772 526.456 703.273 526.456 703.273L559.922 683.332C559.922 683.332 560.049 681.719 560.201 679.955C560.242 679.445 560.41 678.953 560.688 678.524C560.966 678.094 561.346 677.741 561.795 677.494C562.244 677.248 562.746 677.118 563.258 677.114C563.77 677.11 564.274 677.233 564.726 677.473L579.813 685.333L594.022 679.136C594.275 678.968 594.566 678.868 594.869 678.847C595.171 678.825 595.474 678.883 595.748 679.014C596.021 679.145 596.256 679.345 596.428 679.595C596.601 679.844 596.706 680.134 596.732 680.436C597.307 686.481 598.429 699.542 598.134 708.288Z" fill="#E0E1E0"/>
<path d="M598.134 708.288C597.957 713.117 597.357 716.629 595.998 716.908C590.004 718.115 530.356 720.884 527.266 720.108C524.176 719.331 514.746 718.858 514.805 712.991C514.858 711.838 515.271 710.73 515.987 709.825C524.616 710.822 533.295 711.321 541.982 711.319C557.018 711.446 589.252 708.98 598.134 708.288Z" fill="#0C1B3F"/>
<path d="M560.395 691.58C560.315 691.58 560.236 691.56 560.167 691.521L553.464 687.418C553.407 687.392 553.357 687.354 553.316 687.307C553.275 687.261 553.245 687.206 553.227 687.146C553.208 687.087 553.203 687.024 553.211 686.963C553.219 686.901 553.24 686.842 553.272 686.789C553.305 686.736 553.348 686.691 553.4 686.656C553.451 686.621 553.509 686.597 553.57 686.586C553.631 686.575 553.694 686.578 553.754 686.593C553.814 686.608 553.871 686.636 553.919 686.675L560.623 690.769C560.735 690.8 560.83 690.873 560.888 690.974C560.946 691.074 560.961 691.193 560.931 691.305C560.901 691.417 560.827 691.513 560.727 691.571C560.626 691.628 560.507 691.644 560.395 691.614V691.58Z" fill="#5D6AA4"/>
<path d="M694.633 217.965L668.942 224.01C671.095 228.881 674.354 236.471 678.01 245.918C682.349 257.13 684.511 263.85 688.589 275.392C691.299 283.041 695.343 294.21 700.678 307.879C695.209 313.987 689.409 319.79 683.303 325.262C682.577 325.904 672.573 334.811 666.68 337.352C662.399 339.193 657.14 341.075 657.14 341.075C658.203 346.85 659.183 351.536 659.875 354.727C661.716 363.128 664.046 372.55 664.054 372.575C680.458 364.132 729.645 336.795 728.64 302.594C728.429 295.519 725.263 287.203 718.813 270.858C711.743 252.791 703.67 235.132 694.633 217.965V217.965Z" fill="#7A7B80"/>
<path d="M473.993 152.222H525.375V168.094L473.233 167.342L473.993 152.222Z" fill="#213D73"/>
<path d="M649.508 340.872L659.107 376.171L672.176 371.815L662.155 336.533L649.508 340.872Z" fill="#213D73"/>
<path d="M534.864 387.223C570.053 400.824 603.199 397.801 603.199 397.801C582.802 329.036 535.227 326.292 535.227 326.292L534.864 387.223Z" fill="#E8E9EC"/>
<path d="M549.419 199.72C549.892 205.874 547.19 211.539 542.454 214.224C539.773 215.671 536.688 216.188 533.682 215.693C536.333 212.536 539.347 209.226 542.75 205.874C545.012 203.646 547.249 201.594 549.419 199.72Z" fill="#E8E9EC"/>
<path d="M912.495 578.305H885.867V678.891H912.495V578.305Z" fill="#F9B2A1"/>
<path d="M841.493 578.305H814.865V678.891H841.493V578.305Z" fill="#F9B2A1"/>
<path d="M918.743 306.123L921.369 645.289C921.369 645.289 905.59 667.316 876.665 649.696C876.665 649.696 855.626 447.073 853.026 420.647C850.425 394.222 847.766 398.62 847.766 398.62L850.392 649.696C850.392 649.696 818.833 667.316 805.646 649.696C792.458 632.077 779.347 319.336 779.347 319.336L918.743 306.123Z" fill="#010101"/>
<path d="M708.784 42.8638C710.557 49.4912 713.732 59.9601 713.732 59.9601C713.563 62.8644 712.989 74.9374 712.313 89.7374L733.825 80.5433C733.825 80.5433 732.981 56.4818 733.943 54.979C734.737 53.721 736.147 55.2407 742.589 45.5654C744.446 42.7709 744.691 37.8488 744.691 37.8488C744.691 37.8488 744.944 31.7954 743.576 31.2636C742.932 31.0642 742.237 31.1018 741.618 31.3696C740.999 31.6375 740.496 32.1179 740.199 32.7241C739.735 33.7795 739.912 36.2109 739.448 37.2663C738.984 38.3216 735.868 39.6556 734.543 39.6218C733.217 39.588 734.315 21.7318 734.315 21.7318C734.315 21.7318 734.94 16.6662 735.269 14.9777C735.556 13.5593 736.746 9.39709 736.746 9.39709C736.746 9.39709 738.114 3.36904 736.248 2.95535C735.142 2.71051 732.457 7.64946 730.659 12.8586C728.717 18.4814 727.687 24.4081 727.096 24.3406C725.703 24.1886 726.252 14.4036 726.252 14.4036C726.252 14.4036 727.535 9.89521 727.451 7.78455C728.692 5.16732 729.452 0.346571 727.139 0.000422323C726.716 -0.0586762 723.829 6.10446 723.829 6.10446C723.829 6.10446 722.74 10.4271 722.09 12.4533C720.891 16.0583 720.807 21.6305 720.249 24.1042C719.768 26.1726 719.27 25.3368 719.051 25.4297C718.831 25.5226 719.118 22.6605 719.363 18.7684C719.49 16.8097 719.211 14.5471 719.709 12.3098C720.132 10.0578 720.389 7.77779 720.477 5.48815C720.739 0.422555 717.565 1.01354 716.577 5.657C716.197 7.42995 715.8 9.36332 715.403 11.322C713.867 18.9204 714.086 26.2317 713.267 26.3077C712.212 26.4175 712.6 13.1119 712.6 13.1119C712.6 13.1119 710.811 5.79208 709.35 12.656C708.299 17.4814 707.857 22.4193 708.033 27.3546C708.244 29.288 707.011 36.2363 708.784 42.8638Z" fill="#F9B2A1"/>
<path d="M789.832 149.959C770.068 168.533 751.604 183.805 747.382 180.352C747.081 180.098 746.856 179.765 746.732 179.39C743.355 170.179 743.355 62.704 743.355 62.704C729.847 65.6589 719.648 66.7818 715.807 66.8409C712.151 66.9 709.23 66.9506 705.912 65.7771C705.456 65.6167 705.38 65.566 705.22 65.5829C701.302 65.9966 702.231 93.9418 702.51 117.978C703.287 186.625 698.466 200.843 712.717 213.16C724.182 223.106 739.429 224.313 742.705 224.592C755.614 225.613 775.437 222.667 782.614 210.94C786.447 204.676 783.922 200.648 784.176 185.545C784.384 173.476 786.288 161.497 789.832 149.959V149.959Z" fill="#7A7B80"/>
<path d="M921.512 231.692C921.512 231.692 923.564 269.591 924.594 302.779C925.295 325.296 925.522 345.643 924.332 350.548C921.369 362.697 794.155 378.89 776.408 358.644C776.408 358.644 767.333 230.012 771.866 229.556C776.4 229.1 921.512 231.692 921.512 231.692Z" fill="#7A7B80"/>
<path d="M770.49 233.752C774.775 237.444 779.287 240.865 783.998 243.993H922.796L924.298 155.759C888.839 130.195 854.402 136.569 854.402 136.569C854.402 136.569 809.208 131.284 785.603 153.454C782.101 156.726 779.175 160.565 776.949 164.81C773.209 172.045 771.351 201.096 770.49 233.752Z" fill="#7A7B80"/>
<path d="M822.329 216.453C831.219 253.356 836.116 260.566 838.953 260.279C841.638 260 842.288 253.001 848.02 239.121C851.027 231.821 854.562 224.75 858.599 217.964C862.37 195.805 866.147 173.64 869.929 151.47C866.636 150.524 824.676 138.848 814.773 154.492C813.659 156.24 811.936 159.946 814.773 180.183C816.481 192.428 819.006 204.545 822.329 216.453V216.453Z" fill="#6977A8"/>
<path d="M867.962 103.862L868.621 136.332C868.621 136.332 862.955 145.78 843.993 147.704C829.869 149.14 824.837 146.016 824.837 146.016L826.475 129.536L828.096 113.495L862.238 105.255L867.962 103.862Z" fill="#F9B2A1"/>
<path d="M803.704 81.7846C804.473 72.3879 810.459 65.2117 817.128 65.7436H820.556C820.969 65.714 821.384 65.714 821.797 65.7436C828.441 66.2923 833.211 74.3466 832.443 83.7433C831.675 93.14 825.689 100.308 819.011 99.7843H815.592C815.176 99.8138 814.758 99.8138 814.342 99.7843C807.698 99.2356 802.936 91.1982 803.704 81.7846Z" fill="#475982"/>
<path d="M868.122 111.536C854.74 109.004 816.419 47.3723 816.419 47.3723C816.419 47.3723 797.339 23.851 802.489 20.7357C807.639 17.6204 812.535 22.4242 812.535 22.4242C823.37 20.7749 834.28 19.6704 845.225 19.1147C847.209 19.0218 849.16 18.9712 851.059 18.9712C856.8 18.9712 862.035 19.3089 865.606 20.3305C879.781 24.3492 889.296 47.5833 889.296 47.5833C889.296 47.5833 896.396 46.9332 899.427 56.6085C902.458 66.2838 881.486 113.993 868.122 111.536Z" fill="#010101"/>
<path d="M862.237 105.238C862.12 106.325 861.836 107.387 861.393 108.387C854.462 124.749 834.672 128.65 826.517 129.544L828.138 113.503L862.237 105.238Z" fill="#010101"/>
<path d="M819.356 39.6214C819.356 39.6214 803.146 80.6695 810.297 103.152C817.448 125.635 838.031 121.312 850.256 116.483C862.481 111.654 867.986 103.819 867.986 103.819C867.986 103.819 879.687 107.331 887.032 96.3053C894.378 85.2792 889.177 73.0965 882.482 70.5046C875.787 67.9127 868.129 72.953 868.129 72.953L873.862 60.9897C873.862 60.9897 845.756 2.26265 819.356 39.6214Z" fill="#F9B2A1"/>
<path d="M819.357 39.6214C819.357 39.6214 832.021 34.5558 837.383 38.9967C842.744 43.4375 849.135 81.0664 868.08 72.9868C887.025 64.9072 877.223 40.7949 877.223 40.7949C877.223 40.7949 829.565 0.016939 819.357 39.6214Z" fill="#010101"/>
<path d="M869.532 91.1975C869.147 91.1996 868.778 91.0511 868.502 90.7838C868.225 90.5055 868.07 90.1292 868.07 89.7369C868.07 89.3447 868.225 88.9684 868.502 88.69L878.684 78.0861C878.961 77.832 879.325 77.6936 879.702 77.6989C880.078 77.7042 880.438 77.8529 880.708 78.1147C880.979 78.3765 881.139 78.7316 881.157 79.1075C881.174 79.4834 881.048 79.8519 880.803 80.1376L870.579 90.7332C870.444 90.876 870.281 90.9905 870.102 91.0702C869.922 91.15 869.728 91.1932 869.532 91.1975Z" fill="#010101"/>
<path d="M883.368 88.5978C883.239 88.5976 883.111 88.5805 882.988 88.5471L874.165 86.2423C873.785 86.143 873.459 85.8971 873.26 85.5585C873.061 85.2199 873.004 84.8162 873.101 84.4356C873.148 84.2463 873.233 84.0684 873.35 83.9123C873.467 83.7562 873.614 83.6251 873.782 83.5268C873.95 83.4284 874.137 83.3648 874.33 83.3396C874.524 83.3144 874.72 83.3282 874.908 83.3802L883.747 85.6851C884.1 85.7711 884.409 85.9841 884.615 86.2833C884.821 86.5826 884.909 86.9471 884.863 87.3074C884.817 87.6677 884.64 87.9984 884.366 88.2364C884.091 88.4744 883.739 88.6031 883.376 88.5978H883.368Z" fill="#010101"/>
<path d="M816.681 58.1451C816.358 58.1439 816.043 58.0372 815.786 57.8412C815.48 57.6082 815.278 57.2638 815.224 56.8828C815.171 56.5019 815.269 56.1151 815.499 55.8065C815.609 55.6545 818.31 52.1424 825.048 53.1217C825.241 53.1496 825.427 53.2155 825.595 53.3156C825.762 53.4158 825.909 53.5482 826.025 53.7053C826.141 53.8623 826.225 54.0408 826.272 54.2305C826.318 54.4202 826.327 54.6172 826.297 54.8103C826.235 55.1984 826.023 55.5468 825.708 55.7817C825.393 56.0166 824.998 56.1193 824.609 56.0682C819.704 55.3421 817.914 57.5119 817.855 57.6048C817.711 57.7755 817.531 57.9125 817.328 58.0059C817.125 58.0992 816.904 58.1468 816.681 58.1451Z" fill="#010101"/>
<path d="M847.259 58.5334C846.913 58.5345 846.577 58.4117 846.314 58.1873C845.256 57.3207 844.017 56.7037 842.689 56.3821C841.36 56.0605 839.976 56.0427 838.639 56.3299C838.453 56.3836 838.257 56.3994 838.064 56.3765C837.871 56.3535 837.684 56.2923 837.515 56.1964C837.346 56.1005 837.198 55.9718 837.079 55.8178C836.961 55.6639 836.874 55.4878 836.824 55.2999C836.771 55.1131 836.756 54.9177 836.779 54.7249C836.802 54.5321 836.862 54.3457 836.957 54.1764C837.052 54.007 837.179 53.858 837.332 53.7379C837.484 53.6178 837.659 53.5289 837.846 53.4763C839.645 53.065 841.515 53.0711 843.312 53.494C845.109 53.9169 846.786 54.7454 848.213 55.9162C848.513 56.1689 848.701 56.53 848.736 56.9206C848.771 57.3112 848.65 57.6998 848.399 58.0015C848.259 58.1673 848.084 58.3006 847.887 58.3925C847.691 58.4843 847.476 58.5324 847.259 58.5334V58.5334Z" fill="#010101"/>
<path d="M818.892 73.2149C818.699 73.2242 818.507 73.1937 818.326 73.1254C818.145 73.0571 817.981 72.9525 817.842 72.8179C817.704 72.6833 817.594 72.5217 817.521 72.3431C817.447 72.1645 817.411 71.9727 817.415 71.7796L818.031 65.0255C818.093 64.6669 818.287 64.3444 818.574 64.1211C818.861 63.8977 819.222 63.7897 819.585 63.8182C819.767 63.8204 819.948 63.859 820.116 63.9317C820.284 64.0045 820.435 64.11 820.562 64.2421C820.688 64.3741 820.787 64.5301 820.853 64.7009C820.919 64.8716 820.949 65.0537 820.944 65.2366L820.328 71.9907C820.28 72.3352 820.108 72.6503 819.843 72.876C819.578 73.1017 819.24 73.2223 818.892 73.2149V73.2149Z" fill="#010101"/>
<path d="M841.248 75.2499C841.044 75.2458 840.844 75.2005 840.658 75.1168C840.472 75.033 840.305 74.9127 840.167 74.7628C840.029 74.613 839.923 74.4368 839.855 74.2448C839.787 74.0529 839.758 73.8491 839.77 73.6458L840.378 66.0896C840.417 65.7014 840.605 65.3434 840.903 65.0913C841.201 64.8392 841.585 64.7128 841.974 64.7388C842.168 64.7538 842.356 64.8067 842.529 64.8945C842.702 64.9824 842.856 65.1035 842.982 65.2509C843.109 65.3983 843.205 65.5691 843.265 65.7536C843.325 65.938 843.348 66.1326 843.333 66.326L842.717 73.9244C842.679 74.2879 842.508 74.6246 842.237 74.8694C841.966 75.1142 841.613 75.2498 841.248 75.2499V75.2499Z" fill="#010101"/>
<path d="M823.451 92.3633C823.169 92.3668 822.893 92.289 822.655 92.1392C822.417 91.9894 822.227 91.7741 822.108 91.519C817.347 80.8644 824.481 72.2698 824.793 71.9152C824.919 71.7672 825.073 71.6454 825.246 71.5568C825.419 71.4682 825.607 71.4145 825.801 71.3989C825.994 71.3832 826.189 71.4058 826.374 71.4654C826.559 71.525 826.73 71.6205 826.879 71.7463C827.027 71.8722 827.148 72.0259 827.237 72.1988C827.325 72.3717 827.379 72.5604 827.395 72.754C827.41 72.9477 827.388 73.1425 827.328 73.3274C827.269 73.5123 827.173 73.6837 827.047 73.8317C826.786 74.1356 820.817 81.3878 824.802 90.3117C824.882 90.4884 824.926 90.6793 824.932 90.8732C824.938 91.0672 824.906 91.2604 824.837 91.4417C824.768 91.623 824.663 91.7889 824.53 91.9297C824.396 92.0705 824.236 92.1834 824.059 92.262C823.866 92.3404 823.658 92.375 823.451 92.3633V92.3633Z" fill="#010101"/>
<path d="M858.91 85.7184C859.02 95.1404 864.508 102.722 871.169 102.604C877.83 102.485 883.157 94.828 883.056 85.406C882.955 75.984 877.467 68.4025 870.797 68.4701C864.128 68.5376 858.809 76.2879 858.91 85.7184Z" fill="#475982"/>
<path d="M870.797 68.5125L875.458 68.7995L875.829 102.933L871.177 102.646L865.487 98.0111L861.451 79.623L870.797 68.5125Z" fill="#475982"/>
<path d="M863.571 85.9976C863.681 95.4196 869.169 103.001 875.83 102.934C882.491 102.866 887.819 95.1578 887.717 85.7358C887.616 76.3138 882.128 68.7239 875.459 68.7999C868.789 68.8759 863.487 76.5756 863.571 85.9976Z" fill="#6977A8"/>
<path d="M879.764 72.9027C879.764 72.9027 882.154 37.7137 882.154 34.7588C881.578 32.6096 880.572 30.5992 879.199 28.8489C877.324 26.4895 874.843 24.6833 872.022 23.6229L869.093 71.6869L879.764 72.9027Z" fill="#6977A8"/>
<path d="M822.962 99.8434C834.782 99.8434 840.691 93.9336 840.691 93.9336C840.691 93.9336 840.691 105.753 834.782 105.753C828.872 105.753 822.962 99.8434 822.962 99.8434Z" fill="#010101"/>
<path d="M826.862 137.869C825.073 142.564 823.731 147.418 822.852 152.365C822.16 156.257 819.965 168.499 822.725 168.524C826.187 168.524 830.999 152.365 840.903 151.639C849.674 151.031 854.36 164.083 861.621 162.006C866.425 160.63 869.126 153.564 869.928 151.428C870.905 148.766 871.417 145.956 871.44 143.12C871.474 140.326 871.049 137.545 870.182 134.889C869.169 135.843 853.845 149.68 837.39 144.328C833.429 143.017 829.826 140.806 826.862 137.869V137.869Z" fill="#F3B06A"/>
<path d="M955.697 360.434C954.076 353.139 951.13 341.598 951.13 341.598C951.442 338.449 952.641 325.346 954.085 309.28L930.243 318.254C930.243 318.254 929.989 344.477 928.9 346.056C927.98 347.398 926.519 345.668 919.056 355.892C916.903 358.847 916.405 364.182 916.405 364.182C916.405 364.182 915.839 370.759 917.3 371.401C917.991 371.649 918.748 371.642 919.434 371.38C920.12 371.118 920.69 370.619 921.04 369.974C921.597 368.843 921.521 366.192 922.079 365.069C922.636 363.946 926.08 362.637 927.524 362.739C928.968 362.84 926.942 382.207 926.942 382.207C926.942 382.207 926.021 387.695 925.582 389.485C925.202 391.013 923.708 395.488 923.708 395.488C923.708 395.488 921.935 401.98 923.953 402.52C925.143 402.841 928.301 397.598 930.504 392.009C932.877 385.99 934.278 379.59 934.92 379.691C936.431 379.919 935.41 390.54 935.41 390.54C935.41 390.54 933.805 395.386 933.797 397.683C932.32 400.477 931.264 405.678 933.797 406.168C934.261 406.252 937.698 399.684 937.698 399.684C937.698 399.684 939.082 395.032 939.884 392.862C941.294 389.038 941.623 382.959 942.375 380.291C942.999 378.071 943.506 378.999 943.742 378.906C943.979 378.813 943.54 381.912 943.084 386.133C942.856 388.261 943.084 390.726 942.408 393.141C941.838 395.571 941.448 398.04 941.243 400.528C940.72 406.024 944.198 405.534 945.465 400.528C945.963 398.62 946.486 396.543 947.01 394.432C949.036 386.218 949.146 378.273 950.041 378.222C951.197 378.163 950.134 392.575 950.134 392.575C950.134 392.575 951.746 400.621 953.654 393.217C955.02 388.017 955.738 382.669 955.79 377.294C955.638 375.225 957.31 367.728 955.697 360.434Z" fill="#F9B2A1"/>
<path d="M924.332 155.759C924.332 155.759 950.96 184.818 953.882 229.21C956.803 273.601 959.791 335.714 959.791 335.714C959.791 335.714 945 347.533 924.332 335.714C924.332 335.705 909.541 165.155 924.332 155.759Z" fill="#7A7B80"/>
<path d="M903.411 684.809C903.37 684.817 903.327 684.817 903.285 684.809C894.656 681.947 884.272 684.809 884.171 684.809C884.109 684.822 884.046 684.823 883.985 684.811C883.923 684.799 883.865 684.774 883.813 684.738C883.762 684.703 883.718 684.657 883.685 684.604C883.652 684.55 883.631 684.491 883.622 684.429C883.591 684.303 883.607 684.169 883.668 684.054C883.728 683.939 883.829 683.85 883.951 683.804C884.061 683.804 894.673 680.866 903.538 683.804C903.659 683.855 903.758 683.948 903.815 684.066C903.873 684.184 903.885 684.319 903.85 684.446C903.827 684.546 903.771 684.635 903.692 684.701C903.612 684.766 903.514 684.804 903.411 684.809V684.809Z" fill="white"/>
<path d="M811.311 680.014H795.946C795.881 680.023 795.815 680.018 795.753 679.999C795.691 679.981 795.633 679.949 795.584 679.906C795.535 679.863 795.496 679.81 795.469 679.751C795.442 679.692 795.428 679.628 795.428 679.562C795.428 679.497 795.442 679.433 795.469 679.374C795.496 679.314 795.535 679.262 795.584 679.219C795.633 679.176 795.691 679.144 795.753 679.126C795.815 679.107 795.881 679.102 795.946 679.111H811.311C811.42 679.126 811.52 679.18 811.593 679.263C811.665 679.346 811.705 679.452 811.705 679.562C811.705 679.673 811.665 679.779 811.593 679.862C811.52 679.945 811.42 679.999 811.311 680.014Z" fill="white"/>
<path d="M814.004 675.573L804.902 674.635C804.839 674.629 804.778 674.611 804.722 674.581C804.666 674.551 804.616 674.511 804.576 674.462C804.535 674.413 804.505 674.356 804.486 674.295C804.468 674.235 804.461 674.171 804.468 674.108C804.474 674.045 804.492 673.983 804.522 673.927C804.552 673.871 804.592 673.821 804.641 673.781C804.69 673.741 804.747 673.71 804.808 673.692C804.868 673.673 804.932 673.667 804.995 673.673L814.054 674.602C814.183 674.617 814.302 674.681 814.384 674.782C814.466 674.883 814.505 675.012 814.493 675.142C814.479 675.261 814.421 675.371 814.33 675.451C814.24 675.53 814.124 675.573 814.004 675.573V675.573Z" fill="white"/>
<path d="M930.031 692.121C928.343 693.303 921.352 694.358 912.749 695.245C895.577 697.001 872.072 698.081 872.072 698.081L883.487 675.928C883.487 675.928 882.938 674.4 882.355 672.703C882.188 672.219 882.144 671.701 882.225 671.196C882.307 670.691 882.512 670.214 882.824 669.807C883.135 669.401 883.542 669.078 884.008 668.867C884.474 668.656 884.986 668.564 885.496 668.6L902.483 669.756L912.977 658.359C913.142 658.103 913.37 657.894 913.639 657.752C913.909 657.611 914.21 657.541 914.514 657.551C914.819 657.56 915.115 657.648 915.375 657.806C915.636 657.964 915.851 658.186 915.999 658.451C918.701 663.281 924.155 673.251 927.557 681.12C929.964 686.684 931.34 691.201 930.031 692.121Z" fill="#0E3659"/>
<path d="M930.031 692.121C930.031 692.121 902.93 717.448 898.633 718.343C894.336 719.238 853.195 722.337 852.334 719.72C851.472 717.102 853.313 713.995 856.133 710.846C861.941 704.362 872.072 698.081 872.072 698.081L911.753 684.573L920.364 688.093L930.031 692.121Z" fill="#0E3659"/>
<path d="M930.031 692.121C930.031 692.121 902.93 717.449 898.633 718.343C894.336 719.238 853.195 722.337 852.334 719.72C851.472 717.102 853.313 713.996 856.133 710.846C866.264 710.357 892.326 708.964 896.793 707.79C899.266 707.14 906.02 701.407 912.749 695.244C915.375 692.838 918 690.365 920.348 688.102C923.311 685.274 925.877 682.775 927.541 681.12C929.964 686.684 931.34 691.2 930.031 692.121Z" fill="#E0E1E0"/>
<path d="M879.138 684.809C879.046 684.783 878.966 684.728 878.908 684.652C878.851 684.576 878.82 684.483 878.82 684.387C878.82 684.292 878.851 684.199 878.908 684.123C878.966 684.047 879.046 683.991 879.138 683.965L888.915 683.644C888.972 683.641 889.03 683.649 889.084 683.669C889.138 683.689 889.188 683.719 889.23 683.759C889.272 683.798 889.305 683.846 889.328 683.899C889.351 683.952 889.362 684.009 889.362 684.067C889.365 684.124 889.355 684.182 889.335 684.236C889.315 684.29 889.285 684.34 889.246 684.382C889.207 684.424 889.159 684.459 889.107 684.483C889.054 684.507 888.998 684.52 888.94 684.522L879.164 684.843L879.138 684.809Z" fill="#E0E1E0"/>
<path d="M846.83 698.055C846.661 702.885 846.053 706.405 844.702 706.675C838.699 707.883 779.06 710.66 775.97 709.875C772.88 709.09 763.45 708.634 763.509 702.766C763.557 701.614 763.968 700.506 764.683 699.6C767.637 695.548 775.16 693.049 775.16 693.049L808.61 673.107C808.61 673.107 808.736 671.486 808.88 669.73C808.915 669.217 809.078 668.72 809.354 668.286C809.629 667.851 810.009 667.492 810.458 667.24C810.907 666.989 811.411 666.853 811.926 666.846C812.441 666.838 812.949 666.959 813.405 667.198L828.484 675.1L842.693 668.895C842.946 668.727 843.239 668.627 843.543 668.607C843.846 668.586 844.15 668.645 844.424 668.777C844.698 668.908 844.933 669.109 845.106 669.359C845.279 669.609 845.384 669.9 845.411 670.203C846.002 676.273 847.125 689.317 846.83 698.055Z" fill="#0E3659"/>
<path d="M846.83 698.055C846.661 702.885 846.053 706.405 844.702 706.675C838.699 707.883 779.06 710.66 775.97 709.875C772.88 709.09 763.45 708.634 763.509 702.766C763.557 701.614 763.968 700.506 764.683 699.601C773.312 700.593 781.991 701.092 790.678 701.095C805.739 701.222 837.956 698.756 846.83 698.055Z" fill="#E0E1E0"/>
<path d="M809.107 681.339C809.027 681.339 808.948 681.319 808.879 681.28L802.125 677.177C802.027 677.116 801.957 677.018 801.93 676.906C801.903 676.794 801.922 676.676 801.981 676.577C802.01 676.527 802.048 676.483 802.094 676.449C802.14 676.414 802.193 676.388 802.249 676.374C802.305 676.36 802.363 676.357 802.42 676.366C802.477 676.375 802.531 676.395 802.581 676.425L809.335 680.528C809.384 680.558 809.427 680.597 809.461 680.643C809.495 680.689 809.519 680.742 809.533 680.798C809.546 680.854 809.548 680.912 809.539 680.968C809.529 681.025 809.509 681.079 809.478 681.128C809.441 681.193 809.386 681.247 809.321 681.284C809.256 681.321 809.182 681.34 809.107 681.339Z" fill="#E0E1E0"/>
<path d="M698.677 64.9663L746.497 63.033L747.147 79.8338L698.027 80.4755L698.677 64.9663Z" fill="#213D73"/>
<path d="M921.31 326.013V341.885L963.625 343.397L962.113 323.751L921.31 322.991V326.013Z" fill="#213D73"/>
<path d="M776.857 161.179C777.777 167.477 774.839 173.361 769.892 175.683C765.189 177.895 760.512 176.029 759.609 175.683C762.986 173.277 766.557 170.516 770.188 167.367C772.594 165.257 774.839 163.197 776.857 161.179Z" fill="#E8E9EC"/>
<path d="M776.409 358.644L773.15 307.043C773.15 307.043 821.383 320.838 825.242 368.007C825.267 368.007 786.397 369.367 776.409 358.644Z" fill="#E8E9EC"/>
<path d="M924.333 350.548L925.093 293.526C925.093 293.526 876.734 319.217 884.29 363.052C884.29 363.052 918.288 358.459 924.333 350.548Z" fill="#E8E9EC"/>
<path d="M823.324 138.789L803.433 168.094C815.028 203.362 826.614 238.624 838.191 273.88C839.444 228.384 834.442 182.932 823.324 138.798V138.789Z" fill="#575960"/>
<path d="M873.676 136.872L889.574 162.808C872.447 199.826 855.308 236.85 838.158 273.88C840.413 226.255 852.485 179.611 873.617 136.872H873.676Z" fill="#575960"/>
<path d="M836.917 269.633L840.944 367.863" stroke="#575960" stroke-width="0.75" stroke-miterlimit="10"/>
<path d="M872.165 135.362L888.062 161.272C871.177 197.53 854.292 233.797 837.406 270.073C839.39 223.22 851.222 177.311 872.131 135.336L872.165 135.362Z" fill="#213D73"/>
<path d="M825.588 137.278L805.705 166.582L837.441 270.098C841.358 225.474 837.356 180.509 825.621 137.278H825.588Z" fill="#213D73"/>
<path d="M882.373 152.323L888.064 161.298L838.775 268.848L882.373 152.323Z" fill="#848484"/>
<path d="M875.593 198.985C878.953 201.212 882.895 202.4 886.927 202.4C890.959 202.4 894.901 201.212 898.261 198.985C896.477 202.258 895.543 205.925 895.543 209.652C895.543 213.38 896.477 217.047 898.261 220.32C894.712 218.665 890.843 217.808 886.927 217.808C883.011 217.808 879.142 218.665 875.593 220.32C877.344 217.037 878.261 213.373 878.261 209.652C878.261 205.932 877.344 202.268 875.593 198.985V198.985Z" fill="#E8EB8F"/>
<path d="M173 898C209.88 854.783 250.532 814.896 295.816 780.683C300.055 777.479 304.344 774.338 308.682 771.261C332.858 753.897 358.306 738.373 384.81 724.819V724.819C411.208 711.301 438.713 700.061 467.026 691.224V691.224C481.408 686.764 495.978 682.995 510.738 679.917C520.069 677.991 529.471 676.354 538.943 675.007C570.699 670.527 603.106 669.48 635.209 667.187C668.422 664.821 701.31 661.136 732.805 650.991C734.901 650.293 736.996 649.595 739.092 648.897C751.655 644.455 763.841 639.011 775.532 632.618C842.136 596.321 891.893 531.821 932.891 466.158C934.337 463.845 935.783 461.521 937.208 459.196C944.745 446.962 952.107 434.622 959.294 422.178C960.206 420.597 961.128 419.037 962.029 417.414C986.148 375.384 1008.3 332.293 1028.48 288.141C1028.65 287.764 1028.82 287.377 1029 287" stroke="white" stroke-miterlimit="10"/>
<path d="M1029 388C1009.85 391.296 990.561 394.087 971.396 396.581C966.235 397.251 961.095 397.899 955.944 398.525L953.352 398.844L945.489 399.789C901.965 405.051 857.134 410.94 820.661 434.891C792.853 453.195 772.766 480.145 757.972 510.325C749.692 527.457 742.827 545.238 737.446 563.49C730.055 588.012 724.322 613.358 718.545 638.682C717.161 644.747 715.766 650.808 714.36 656.865C703.795 702.152 691.769 746.67 668.475 785.409C663.588 793.547 658.196 801.37 652.331 808.832C627.214 840.694 593.453 864.535 559.484 886.728C553.671 890.522 547.843 894.279 542 898" stroke="white" stroke-miterlimit="10"/>
<path d="M1050 595.039V742.334L1039.64 790L772.661 780.839L704.176 778.492L469.114 770.432L440 769.431V738.483C468.624 746.37 499.724 748.197 530.503 745.637C558.139 743.346 585.513 737.511 610.597 729.356C613.104 728.54 615.588 727.701 618.049 726.841C622.797 725.182 627.467 723.457 632.057 721.665C699.182 695.557 751.184 656.471 810.098 623.337C849.435 601.254 895.717 582.25 947.069 579.366C960.727 578.624 974.472 579.011 987.986 580.517C990.664 580.814 993.334 581.143 995.996 581.518C999.24 581.976 1002.47 582.494 1005.68 583.072C1020.99 585.827 1035.74 589.794 1049.61 594.888L1050 595.039Z" fill="url(#paint0_linear_274_5238)"/>
<path d="M1028 422L1027.46 786H0C64.9858 662.938 250.804 585.042 416.012 604.063C431.529 605.846 447.225 608.328 462.953 610.7C468.684 611.553 474.414 612.406 480.145 613.259C518.279 618.556 556.223 621.473 591.724 610.435C606.472 605.846 619.777 599.107 632.081 591.14C647.303 581.305 661.008 569.619 674.038 557.874C704.282 530.578 733.462 501.516 768.025 478.289C781.631 469.027 796.343 460.887 811.942 453.987C847.896 438.309 888.347 430.888 929.136 427.544C929.873 427.476 930.621 427.417 931.359 427.365C938.332 426.811 945.317 426.384 952.29 426.052C977.351 424.849 1002.65 424.798 1027.46 422.068L1028 422Z" fill="url(#paint1_linear_274_5238)"/>
<path d="M1036 302V786H635C649.939 760.039 667.955 735.35 690.119 713.119C693.121 710.1 696.2 707.128 699.355 704.204C726.994 678.612 760.152 657.065 793.918 636.078C806.474 628.283 819.099 620.577 831.571 612.775C879.271 582.954 924.529 551.822 953.309 509.466C954.475 507.753 955.602 506.029 956.689 504.294C962.417 495.204 967.438 485.833 971.721 476.236C972.49 474.542 973.242 472.82 973.961 471.119C997.696 415.618 1003.02 353.702 1036 302Z" fill="url(#paint2_linear_274_5238)"/>
</g>
<defs>
<linearGradient id="paint0_linear_274_5238" x1="665.134" y1="655.174" x2="837.168" y2="788.131" gradientUnits="userSpaceOnUse">
<stop stop-color="#79C082"/>
<stop offset="1" stop-color="#9094C9"/>
</linearGradient>
<linearGradient id="paint1_linear_274_5238" x1="581.748" y1="848.728" x2="528.246" y2="497.24" gradientUnits="userSpaceOnUse">
<stop stop-color="#79C082"/>
<stop offset="1" stop-color="#9094C9"/>
</linearGradient>
<linearGradient id="paint2_linear_274_5238" x1="744.57" y1="519.556" x2="1208.29" y2="710.26" gradientUnits="userSpaceOnUse">
<stop stop-color="#79C082"/>
<stop offset="1" stop-color="#9094C9"/>
</linearGradient>
<clipPath id="clip0_274_5238">
<rect width="1036" height="784" fill="white"/>
</clipPath>
</defs>
</svg>
