<svg width="70" height="70" viewBox="0 0 70 70" fill="none" xmlns="http://www.w3.org/2000/svg">
<rect width="70" height="70" rx="5" fill="white"/>
<path fill-rule="evenodd" clip-rule="evenodd" d="M10.4076 17.7562L46.2001 10.0675C46.3696 10.0213 46.5465 9.99856 46.7243 10.0001C47.0746 9.99997 47.4168 10.0901 47.7068 10.259L61.0727 17.9157C61.2116 17.985 61.3393 18.0697 61.4525 18.1676C61.6146 18.3074 61.7429 18.4734 61.83 18.6559C61.9172 18.8385 61.9614 19.0341 61.9602 19.2315V50.1495C61.9596 50.3538 61.9102 50.5559 61.8151 50.7432C61.7199 50.9304 61.5811 51.0989 61.4071 51.2382C61.3156 51.3155 61.2129 51.3822 61.1016 51.4368L47.7068 59.1043C47.6179 59.156 47.524 59.2011 47.4261 59.239C47.3676 59.2626 47.3069 59.2816 47.2444 59.2958H47.2197H46.7243C46.5467 59.2956 46.37 59.2729 46.2001 59.2284L10.3168 51.5893C9.9403 51.5098 9.60582 51.324 9.36703 51.0616C9.12824 50.7992 8.99898 50.4755 9.00001 50.1424V19.1889V19.1606V19.0293H9.0289V18.9974V18.9655V18.9336V18.9017V18.8733V18.8485V18.8201V18.7988V18.7811V18.7563V18.7243C9.0289 18.7031 9.0289 18.6853 9.0578 18.6641V18.6428V18.6215V18.6002V18.5789V18.5541V18.5293V18.5009V18.4796V18.4584V18.4406V18.4194L9.07843 18.3981H9.44168L9.46645 18.3732H9.44168L9.46645 18.352L9.49122 18.3307H9.51186H9.53663L9.56139 18.313L9.59029 18.2952L9.61918 18.2775H9.64395H9.66872H9.69348H9.85447L9.91226 18.2491H9.94528H9.97005H9.99894H10.0278H10.0567H10.0815H10.1104H10.1475H10.2673H10.3044C10.3406 18.2387 10.3779 18.2315 10.4159 18.2278L10.4076 17.7562ZM48.4622 14.2877V19.5117L55.6446 18.4016L48.4622 14.2877ZM48.4622 22.5616V46.8016L58.4763 48.3479V21.0189L48.4622 22.5616ZM48.4622 49.8693V55.0897L55.6446 50.9758L48.4622 49.8693ZM44.9824 55.9692V49.3196L26.9313 46.5356L16.5787 49.8551L44.9824 55.955V55.9692ZM44.9824 46.2803V23.1007L28.5371 25.6364V43.7233L44.9824 46.259V46.2803ZM44.9824 20.0614V13.4082L16.5787 19.5081L26.9313 22.8311L44.9824 20.0472V20.0614ZM25.0614 25.4236L12.4756 21.3735V47.9932L25.0532 43.9574L25.0614 25.4236Z" fill="#231F20"/>
</svg>
