<svg width="42" height="42" viewBox="0 0 42 42" fill="none" xmlns="http://www.w3.org/2000/svg">
<path id="Vector" d="M33.0909 12.3636C33.0909 12.3636 24.4545 24.4545 11.5 24.4545M11.5 24.4545C8.04545 24.4545 2 26.1818 2 33.0909V40H21V33.0909C21 28.7727 26.1818 31.3636 33.0909 19.2727L30.5 16.6818M11.5 24.4545C13.1034 24.4545 14.641 23.8176 15.7748 22.6839C16.9085 21.5501 17.5455 20.0124 17.5455 18.4091C17.5455 16.8057 16.9085 15.2681 15.7748 14.1343C14.641 13.0006 13.1034 12.3636 11.5 12.3636C9.89665 12.3636 8.35896 13.0006 7.22522 14.1343C6.09148 15.2681 5.45455 16.8057 5.45455 18.4091C5.45455 20.0124 6.09148 21.5501 7.22522 22.6839C8.35896 23.8176 9.89665 24.4545 11.5 24.4545ZM5.45455 8.90909V3.72727H40V27.9091H34.8182M19.2727 2H26.1818V5.45455H19.2727V2Z" stroke="#F3DEAA" stroke-width="3"/>
</svg>
