<svg width="44" height="38" viewBox="0 0 44 38" fill="none" xmlns="http://www.w3.org/2000/svg">
<path id="Vector" d="M21.9643 0.00271196C23.5885 0.00271196 25.1462 0.639064 26.2947 1.77178C27.4433 2.90449 28.0885 4.44078 28.0885 6.04268C28.0885 7.64458 27.4433 9.18087 26.2947 10.3136C25.1462 11.4463 23.5885 12.0827 21.9643 12.0827C20.3396 12.0827 18.7816 11.4462 17.6328 10.3132C16.484 9.18022 15.8386 7.64358 15.8386 6.04132C15.8386 4.43907 16.484 2.90243 17.6328 1.76946C18.7816 0.636495 20.3396 0.00271196 21.9643 0.00271196ZM21.9643 2.71487C21.0693 2.71487 20.2111 3.06547 19.5783 3.68956C18.9455 4.31365 18.59 5.16009 18.59 6.04268C18.59 6.92527 18.9455 7.77171 19.5783 8.3958C20.2111 9.01989 21.0693 9.37049 21.9643 9.37049C22.8595 9.37049 23.7181 9.01974 24.3512 8.3954C24.9842 7.77106 25.3399 6.92427 25.3399 6.04132C25.3399 5.15837 24.9842 4.31159 24.3512 3.68725C23.7181 3.06291 22.8595 2.71487 21.9643 2.71487ZM2.794 23.0831C2.794 23.4428 2.64913 23.7877 2.39127 24.042C2.13341 24.2964 1.78367 24.4392 1.419 24.4392C1.05433 24.4392 0.70459 24.2964 0.446728 24.042C0.188865 23.7877 0.0440001 23.4428 0.0440001 23.0831V16.3407C0.0440889 15.6764 0.291379 15.0353 0.738967 14.5389C1.18655 14.0424 1.80331 13.7253 2.47225 13.6476L2.794 13.6286H10.3757C9.97561 14.3095 9.73156 15.0686 9.66075 15.8525L9.63875 16.3407H2.79125L2.794 23.0831ZM42.5975 24.4392C42.9622 24.4392 43.3119 24.2964 43.5698 24.042C43.8276 23.7877 43.9725 23.4428 43.9725 23.0831V16.3407L43.9533 16.0261C43.8751 15.3659 43.5538 14.757 43.0504 14.315C42.5469 13.873 41.8965 13.6287 41.2225 13.6286H33.5665C33.968 14.3148 34.2265 15.1013 34.287 15.9366L34.3008 16.3434H41.2225V23.0831C41.2225 23.4428 41.3674 23.7877 41.6252 24.042C41.8831 24.2964 42.2328 24.4392 42.5975 24.4392ZM28.8035 13.6286C29.4775 13.6287 30.1279 13.873 30.6314 14.315C31.1348 14.757 31.4561 15.3659 31.5343 16.0261L31.5507 16.3407V23.0831C31.5507 23.4428 31.4059 23.7877 31.148 24.042C30.8902 24.2964 30.5404 24.4392 30.1757 24.4392C29.8111 24.4392 29.4613 24.2964 29.2035 24.042C28.9456 23.7877 28.8007 23.4428 28.8007 23.0831V16.3407H15.1388V23.0831C15.1388 23.4428 14.9939 23.7877 14.736 24.042C14.4782 24.2964 14.1284 24.4392 13.7638 24.4392C13.3991 24.4392 13.0493 24.2964 12.7915 24.042C12.5336 23.7877 12.3888 23.4428 12.3888 23.0831V16.3407C12.3888 15.6764 12.6361 15.0353 13.0837 14.5389C13.5313 14.0424 14.1481 13.7253 14.817 13.6476L15.1388 13.6286H28.8007H28.8035ZM40.942 6.8943C40.942 5.5179 40.3876 4.19788 39.4008 3.22462C38.4139 2.25136 37.0755 1.70459 35.6799 1.70459C34.2843 1.70459 32.9458 2.25136 31.959 3.22462C30.9722 4.19788 30.4177 5.5179 30.4177 6.8943C30.4177 8.27069 30.9722 9.59072 31.959 10.564C32.9458 11.5372 34.2843 12.084 35.6799 12.084C37.0755 12.084 38.4139 11.5372 39.4008 10.564C40.3876 9.59072 40.942 8.27069 40.942 6.8943ZM33.1678 6.8943C33.1678 6.23721 33.4324 5.60703 33.9035 5.1424C34.3746 4.67777 35.0136 4.41674 35.6799 4.41674C36.3461 4.41674 36.9851 4.67777 37.4562 5.1424C37.9273 5.60703 38.192 6.23721 38.192 6.8943C38.192 7.55139 37.9273 8.18156 37.4562 8.64619C36.9851 9.11082 36.3461 9.37185 35.6799 9.37185C35.0136 9.37185 34.3746 9.11082 33.9035 8.64619C33.4324 8.18156 33.1678 7.55139 33.1678 6.8943ZM8.294 1.70323C9.6896 1.70323 11.028 2.25 12.0149 3.22326C13.0017 4.19652 13.5561 5.51654 13.5561 6.89294C13.5561 8.26934 13.0017 9.58936 12.0149 10.5626C11.028 11.5359 9.6896 12.0827 8.294 12.0827C6.8984 12.0827 5.55996 11.5359 4.57312 10.5626C3.58628 9.58936 3.03187 8.26934 3.03187 6.89294C3.03187 5.51654 3.58628 4.19652 4.57312 3.22326C5.55996 2.25 6.8984 1.70323 8.294 1.70323ZM8.294 4.41539C7.62774 4.41539 6.98877 4.67641 6.51766 5.14105C6.04655 5.60568 5.78187 6.23585 5.78187 6.89294C5.78187 7.55003 6.04655 8.18021 6.51766 8.64484C6.98877 9.10947 7.62774 9.37049 8.294 9.37049C8.96026 9.37049 9.59923 9.10947 10.0703 8.64484C10.5415 8.18021 10.8061 7.55003 10.8061 6.89294C10.8061 6.23585 10.5415 5.60568 10.0703 5.14105C9.59923 4.67641 8.96026 4.41539 8.294 4.41539ZM1.375 27.1514C1.01033 27.1514 0.660591 27.2943 0.402728 27.5486C0.144866 27.8029 0 28.1478 0 28.5075V31.2196C0 33.0179 0.724328 34.7425 2.01364 36.0141C3.30295 37.2856 5.05164 38 6.875 38H37.125C38.9484 38 40.697 37.2856 41.9864 36.0141C43.2757 34.7425 44 33.0179 44 31.2196V28.5075C44 28.1478 43.8551 27.8029 43.5973 27.5486C43.3394 27.2943 42.9897 27.1514 42.625 27.1514H1.375ZM2.75 31.2196V29.8635H41.25V31.2196C41.25 32.2986 40.8154 33.3333 40.0418 34.0963C39.2682 34.8592 38.219 35.2878 37.125 35.2878H6.875C5.78098 35.2878 4.73177 34.8592 3.95818 34.0963C3.1846 33.3333 2.75 32.2986 2.75 31.2196Z" fill="#F3BABA"/>
</svg>
