<svg width="565" height="565" viewBox="0 0 565 565" fill="none" xmlns="http://www.w3.org/2000/svg">
<path d="M513.651 356.291C520.431 360.201 520.431 366.596 513.73 370.506L262.543 516.491C255.763 520.401 244.768 520.401 237.999 516.491L51.3571 408.723C44.5771 404.813 44.5771 398.417 51.2667 394.507L302.454 248.534C309.234 244.624 320.241 244.624 327.009 248.534L513.651 356.291Z" fill="#2B2B2B"/>
<path d="M513.731 371.861L262.543 517.846C255.763 521.744 244.768 521.744 238 517.846L51.3577 410.078C47.9677 408.111 46.2388 405.558 46.2501 402.913C46.2501 407.049 46.2501 411.253 46.2501 415.343C46.2501 417.942 47.9451 420.541 51.3577 422.508L238 530.264C244.78 534.174 255.82 534.174 262.543 530.264L513.72 384.325C517.11 382.381 518.737 379.805 518.748 377.274C518.748 373.138 518.748 368.934 518.748 364.844C518.748 367.364 517.076 369.929 513.731 371.861Z" fill="#030303"/>
<path d="M513.731 370.505L262.543 516.489C255.763 520.399 244.768 520.399 238 516.489L51.3577 408.721C47.9677 406.755 46.2388 404.201 46.2501 401.557C46.2501 405.693 46.2501 409.896 46.2501 413.987C46.2501 416.586 47.9451 419.185 51.3577 421.151L238 528.908C244.78 532.818 255.82 532.818 262.543 528.908L513.72 382.968C517.11 381.025 518.737 378.449 518.748 375.917C518.748 371.782 518.748 367.578 518.748 363.487C518.748 366.007 517.076 368.572 513.731 370.505Z" fill="#212121"/>
<path d="M513.731 370.505L262.543 516.49C255.763 520.4 244.768 520.4 238 516.49L51.3577 408.722C47.9677 406.756 46.2388 404.202 46.2501 401.558V402.688C46.2501 405.253 47.979 407.818 51.3464 409.762L237.988 517.541C244.768 521.451 255.809 521.451 262.532 517.541L513.72 371.579C517.11 369.635 518.737 367.059 518.748 364.516V363.533C518.669 366.121 517.042 368.584 513.731 370.505Z" fill="#424242"/>
<path d="M504.477 361.601C506.149 362.562 506.16 364.189 504.477 365.161L253.3 511.157C252.347 511.63 251.297 511.877 250.232 511.877C249.168 511.877 248.118 511.63 247.164 511.157L60.5222 403.411C58.8611 402.451 58.8611 400.823 60.5222 399.863L311.699 253.867C312.651 253.391 313.702 253.143 314.767 253.143C315.832 253.143 316.882 253.391 317.834 253.867L504.477 361.601Z" fill="#1487C8"/>
<path d="M116.107 390.122L166.957 419.672L180.111 412.078L178.303 411.027L189.896 404.337L191.704 405.388L195.366 403.264L193.558 402.224L205.151 395.501L206.959 396.552L210.621 394.439L208.813 393.388L220.406 386.698L222.214 387.749L225.876 385.636L224.068 384.585L235.65 377.895L237.458 378.946L241.131 376.833L239.323 375.782L250.916 369.081L252.724 370.132L256.386 368.019L205.536 338.47L201.874 340.583L203.682 341.634L192.1 348.346L190.292 347.295L186.631 349.408L188.439 350.459L176.845 357.149L175.048 356.098L171.353 358.211L173.161 359.25L161.59 365.963L159.782 364.912L156.121 367.025L157.929 368.076L146.346 374.765L144.538 373.714L140.877 375.828L142.674 376.878L131.08 383.568L129.283 382.528L116.107 390.122ZM143.069 377.127L152.109 382.382L140.515 389.082L131.475 383.817L143.069 377.127ZM180.224 398.71L168.63 405.411L159.477 400.089L171.071 393.388L180.224 398.71ZM159.262 400.021L150.109 394.699L161.692 387.998L170.856 393.241L159.262 400.021ZM149.894 394.574L140.741 389.252L152.335 382.562L161.488 387.885L149.894 394.574ZM158.324 368.37L167.364 373.635L155.782 380.325L146.742 375.059L158.324 368.37ZM195.49 389.907L183.885 396.631L174.732 391.309L186.314 384.619L195.49 389.907ZM174.54 391.15L165.387 385.828L165.183 385.715L156.019 380.381L167.602 373.703L176.766 379.025L165.183 385.715L165.387 385.828L176.969 379.138L186.134 384.461L174.54 391.15ZM173.602 359.51L182.642 364.776L171.048 371.466L162.008 366.2L173.602 359.51ZM210.756 381.093L199.162 387.794L190.009 382.472L201.603 375.782L210.756 381.093ZM180.63 377.025L192.224 370.336L201.389 375.658L189.795 382.348L180.63 377.025ZM180.427 376.901L180.585 377.003L180.427 376.912L171.263 371.579L182.857 364.889L192.021 370.211L180.427 376.901ZM188.846 350.708L197.886 355.962L186.303 362.652L177.263 357.397L188.846 350.708ZM226 372.291L214.417 378.98L205.264 373.658L216.847 366.968L226 372.291ZM205.05 373.545L195.897 368.211L207.479 361.522L216.632 366.855L205.05 373.545ZM195.682 368.098L186.529 362.776L198.112 356.086L207.276 361.409L195.682 368.098ZM204.112 341.894L213.152 347.159L201.558 353.849L192.518 348.583L204.112 341.894ZM232.305 358.041L232.102 357.928L232.317 358.041H232.305ZM241.255 363.488L229.661 370.178L220.508 364.855L232.079 358.211L241.255 363.488ZM220.305 364.731L211.14 359.409L222.734 352.719L231.899 358.041L220.305 364.731ZM210.914 359.341L201.75 354.019L213.344 347.318L222.508 352.651L210.914 359.341ZM252.724 369.714L202.722 340.651L205.536 339.023L255.549 368.087L252.724 369.714ZM238.882 375.602L229.842 370.347L241.436 363.646L250.476 368.912L238.882 375.602ZM187.433 349.453L190.258 347.826L240.261 376.89L237.436 378.517L187.433 349.453ZM223.593 384.416L214.553 379.15L226.136 372.46L235.176 377.726L223.593 384.416ZM222.147 387.331L172.201 358.211L175.014 356.584L225.028 385.647L222.147 387.331ZM219.887 386.529L208.293 393.218L199.253 387.952L210.847 381.263L219.887 386.529ZM156.946 367.025L159.771 365.398L209.773 394.461L206.959 396.088L156.946 367.025ZM193.106 401.976L184.066 396.721L195.648 390.032L204.688 395.286L193.106 401.976ZM141.702 375.828L144.516 374.212L194.518 403.264L191.704 404.891L141.702 375.828ZM177.862 410.79L168.822 405.524L180.427 398.891L189.467 404.145L177.862 410.79ZM149.567 409.061L158.934 403.648L143.725 394.8L134.346 400.213L116.955 390.111L129.261 383.071L179.274 412.134L166.957 419.231L149.567 409.061ZM134.56 400.337L143.725 395.049L158.528 403.648L149.352 408.937L134.56 400.337Z" fill="white"/>
<path d="M104.4 393.522L167.556 430.225L266.623 373.047L267.041 373.284L167.545 430.711L103.971 393.771L104.4 393.522Z" fill="#79F564"/>
<path d="M488.668 363.308L492.047 361.341L490.499 360.449L487.12 362.415L483.708 360.438L482.171 361.341L485.572 363.308L482.193 365.274L483.742 366.167L487.12 364.2L490.533 366.167L492.081 365.274L488.668 363.308Z" fill="white"/>
<path d="M319.913 261.958L318.365 261.065L314.986 263.031L311.574 261.054L310.025 261.958L313.438 263.924L310.059 265.89L311.607 266.783L314.986 264.817L318.399 266.783L319.936 265.89L316.534 263.924L319.913 261.958Z" fill="white"/>
<path d="M254.95 499.122L253.402 498.229L250.023 500.196L246.611 498.229L245.062 499.122L248.475 501.1L245.096 503.066L246.645 503.959L250.023 501.992L253.436 503.959L254.973 503.066L251.571 501.088L254.95 499.122Z" fill="white"/>
<path d="M82.8059 399.738L81.2691 398.846L77.8791 400.812L74.4778 398.846L72.9297 399.738L76.3423 401.716L72.9523 403.682L74.5117 404.575L77.8904 402.609L81.2917 404.575L82.8398 403.682L79.4272 401.705L82.8059 399.738Z" fill="white"/>
<path d="M204.947 460.193L212.111 464.329L214.699 458.679L204.947 460.193Z" fill="#2B2B2B"/>
<path style="mix-blend-mode:overlay" opacity="0.15" d="M504.5 365.183L371.962 442.204V285.134L504.477 361.601C506.149 362.584 506.161 364.211 504.5 365.183Z" fill="url(#paint0_linear_525_2716)"/>
<path style="mix-blend-mode:overlay" opacity="0.15" d="M60.5107 403.412L164.188 463.302V339.578L60.5107 399.841V403.412Z" fill="url(#paint1_linear_525_2716)"/>
<path d="M150.56 470.827L138.763 464.047C137.904 463.561 137.215 463.956 137.215 464.928C137.244 465.46 137.399 465.978 137.666 466.44C137.933 466.901 138.305 467.293 138.752 467.584L150.549 474.364C151.396 474.849 152.097 474.465 152.097 473.482C152.068 472.95 151.913 472.432 151.646 471.971C151.379 471.509 151.007 471.117 150.56 470.827Z" fill="#424242"/>
<path d="M103.044 444.272C102.626 444.023 102.275 444.215 102.275 444.712C102.286 444.977 102.36 445.236 102.492 445.466C102.624 445.696 102.809 445.891 103.032 446.034C103.462 446.283 103.812 446.034 103.812 445.594C103.798 445.328 103.72 445.07 103.587 444.84C103.453 444.611 103.267 444.416 103.044 444.272Z" fill="#424242"/>
<path d="M98.3993 441.594C97.9812 441.345 97.6309 441.538 97.6309 442.023C97.6428 442.291 97.7189 442.552 97.8526 442.784C97.9863 443.016 98.1738 443.212 98.3993 443.357C98.8287 443.605 99.1677 443.357 99.179 442.927C99.1639 442.659 99.0854 442.399 98.9498 442.167C98.8143 441.935 98.6256 441.739 98.3993 441.594Z" fill="#424242"/>
<path d="M93.7889 438.915C93.3595 438.666 93.0205 438.859 93.0205 439.356C93.0316 439.625 93.1072 439.888 93.2409 440.122C93.3746 440.356 93.5626 440.554 93.7889 440.7C94.207 440.949 94.5573 440.7 94.5573 440.271C94.5452 440 94.4693 439.737 94.3358 439.501C94.2022 439.265 94.0148 439.065 93.7889 438.915Z" fill="#424242"/>
<path d="M89.1219 436.237C88.7038 435.989 88.3535 436.181 88.3535 436.678C88.369 436.943 88.4467 437.201 88.5802 437.431C88.7136 437.66 88.8992 437.855 89.1219 438C89.54 438.249 89.8903 438 89.8903 437.559C89.8775 437.294 89.801 437.035 89.6673 436.805C89.5336 436.575 89.3465 436.38 89.1219 436.237Z" fill="#424242"/>
<path d="M84.4897 433.559C84.0603 433.31 83.7213 433.502 83.71 433.999C83.7255 434.265 83.8031 434.522 83.9366 434.752C84.0701 434.982 84.2556 435.177 84.4784 435.321C84.9078 435.57 85.2468 435.321 85.2468 434.881C85.2361 434.616 85.1618 434.357 85.03 434.127C84.8982 433.897 84.7128 433.702 84.4897 433.559Z" fill="#424242"/>
<path d="M79.8446 430.882C79.4152 430.633 79.0762 430.825 79.0762 431.323C79.0917 431.588 79.1693 431.846 79.3028 432.075C79.4363 432.305 79.6219 432.5 79.8446 432.645C80.2627 432.893 80.613 432.645 80.613 432.204C80.6002 431.938 80.5237 431.679 80.39 431.449C80.2562 431.219 80.0692 431.025 79.8446 430.882Z" fill="#424242"/>
<path d="M75.2118 428.203C74.7824 427.955 74.4434 428.147 74.4434 428.644C74.4531 428.909 74.527 429.168 74.6589 429.398C74.7908 429.629 74.9766 429.823 75.2005 429.966C75.6299 430.215 75.9689 429.966 75.9802 429.525C75.9646 429.26 75.887 429.002 75.7535 428.773C75.6201 428.543 75.4345 428.348 75.2118 428.203Z" fill="#424242"/>
<path d="M70.5672 425.525C70.1491 425.277 69.7988 425.469 69.7988 425.966C69.8116 426.232 69.8881 426.491 70.0218 426.721C70.1556 426.951 70.3426 427.146 70.5672 427.288C70.9853 427.537 71.3356 427.288 71.3356 426.848C71.3201 426.582 71.2425 426.325 71.109 426.095C70.9755 425.865 70.7899 425.67 70.5672 425.525Z" fill="#424242"/>
<path d="M65.9237 422.847C65.5056 422.598 65.1553 422.79 65.1553 423.287C65.1699 423.553 65.2472 423.811 65.3807 424.041C65.5143 424.271 65.7003 424.465 65.9237 424.61C66.3418 424.847 66.6921 424.61 66.6921 424.169C66.6802 423.903 66.6041 423.644 66.4703 423.413C66.3365 423.183 66.1489 422.989 65.9237 422.847Z" fill="#424242"/>
<path d="M61.2904 420.169C60.861 419.921 60.5107 420.113 60.5107 420.599C60.5272 420.865 60.6051 421.124 60.7384 421.356C60.8717 421.587 61.0568 421.784 61.2791 421.932C61.7085 422.181 62.0475 421.932 62.0475 421.491C62.0408 421.226 61.9681 420.966 61.8359 420.735C61.7038 420.504 61.5163 420.31 61.2904 420.169Z" fill="#424242"/>
<path d="M228.021 516.411C227.603 516.163 227.253 516.411 227.253 516.852C227.268 517.117 227.346 517.375 227.48 517.604C227.613 517.834 227.799 518.029 228.021 518.174C228.451 518.423 228.801 518.174 228.801 517.745C228.786 517.476 228.707 517.216 228.572 516.984C228.436 516.752 228.248 516.556 228.021 516.411Z" fill="#424242"/>
<path d="M223.389 513.756C222.959 513.507 222.62 513.756 222.62 514.197C222.635 514.462 222.712 514.72 222.846 514.95C222.979 515.18 223.165 515.375 223.389 515.519C223.807 515.767 224.157 515.575 224.157 515.078C224.142 514.813 224.065 514.554 223.931 514.325C223.798 514.095 223.612 513.9 223.389 513.756Z" fill="#424242"/>
<path d="M218.755 511.078C218.326 510.83 217.976 511.078 217.976 511.519C217.991 511.784 218.069 512.042 218.202 512.271C218.336 512.501 218.521 512.696 218.744 512.841C219.173 513.09 219.512 512.841 219.512 512.4C219.499 512.136 219.423 511.878 219.292 511.649C219.16 511.419 218.977 511.223 218.755 511.078Z" fill="#424242"/>
<path d="M214.111 508.399C213.682 508.151 213.343 508.343 213.343 508.84C213.355 509.105 213.43 509.363 213.562 509.592C213.694 509.822 213.878 510.018 214.1 510.162C214.529 510.411 214.88 510.162 214.88 509.722C214.864 509.456 214.786 509.199 214.653 508.969C214.519 508.739 214.334 508.544 214.111 508.399Z" fill="#424242"/>
<path d="M209.467 505.71C209.049 505.473 208.698 505.71 208.698 506.151C208.713 506.418 208.79 506.677 208.924 506.909C209.057 507.141 209.243 507.338 209.467 507.484C209.896 507.733 210.235 507.484 210.235 507.043C210.223 506.776 210.147 506.515 210.013 506.283C209.88 506.051 209.692 505.854 209.467 505.71Z" fill="#424242"/>
<path d="M204.834 503.043C204.405 502.795 204.055 502.987 204.055 503.473C204.072 503.74 204.151 504 204.286 504.232C204.422 504.464 204.609 504.66 204.834 504.806C205.252 505.055 205.603 504.806 205.603 504.365C205.589 504.1 205.512 503.841 205.379 503.611C205.245 503.381 205.058 503.187 204.834 503.043Z" fill="#424242"/>
<path d="M200.189 500.364C199.771 500.116 199.421 500.308 199.421 500.805C199.434 501.071 199.51 501.33 199.644 501.56C199.778 501.79 199.965 501.984 200.189 502.127C200.607 502.376 200.958 502.127 200.958 501.686C200.945 501.421 200.868 501.162 200.735 500.932C200.601 500.702 200.414 500.507 200.189 500.364Z" fill="#424242"/>
<path d="M195.557 497.675C195.128 497.438 194.777 497.675 194.777 498.115C194.793 498.382 194.87 498.642 195.004 498.873C195.137 499.105 195.323 499.302 195.546 499.449C195.975 499.697 196.314 499.449 196.314 499.008C196.303 498.742 196.229 498.482 196.097 498.25C195.966 498.018 195.78 497.821 195.557 497.675Z" fill="#424242"/>
<path d="M190.969 494.998C190.55 494.761 190.2 494.998 190.2 495.439C190.213 495.705 190.288 495.964 190.419 496.196C190.551 496.428 190.735 496.625 190.957 496.772C191.387 497.021 191.726 496.772 191.737 496.331C191.724 496.064 191.648 495.804 191.514 495.572C191.38 495.34 191.193 495.143 190.969 494.998Z" fill="#424242"/>
<path d="M186.28 492.331C185.85 492.082 185.511 492.275 185.5 492.772C185.516 493.037 185.593 493.295 185.727 493.524C185.86 493.754 186.046 493.949 186.268 494.094C186.698 494.342 187.037 494.094 187.048 493.653C187.034 493.388 186.957 493.129 186.824 492.899C186.69 492.669 186.504 492.474 186.28 492.331Z" fill="#424242"/>
<path d="M150.56 470.431L138.763 463.651C137.904 463.165 137.215 463.561 137.215 464.533C137.244 465.065 137.399 465.583 137.666 466.044C137.933 466.506 138.305 466.897 138.752 467.188L150.549 473.968C151.396 474.454 152.097 474.058 152.097 473.098C152.069 472.564 151.916 472.044 151.649 471.58C151.382 471.117 151.009 470.723 150.56 470.431Z" fill="#030303"/>
<path d="M103.044 443.888C102.626 443.639 102.275 443.831 102.275 444.328C102.286 444.593 102.36 444.852 102.492 445.082C102.624 445.312 102.809 445.507 103.032 445.651C103.462 445.899 103.812 445.651 103.812 445.21C103.798 444.944 103.72 444.686 103.587 444.456C103.453 444.227 103.267 444.032 103.044 443.888Z" fill="#030303"/>
<path d="M98.3993 441.21C97.9812 440.962 97.6309 441.154 97.6309 441.64C97.6428 441.907 97.7189 442.168 97.8526 442.4C97.9863 442.632 98.1738 442.829 98.3993 442.973C98.8287 443.222 99.1677 443.03 99.179 442.532C99.1622 442.266 99.0828 442.008 98.9473 441.778C98.8119 441.548 98.6241 441.354 98.3993 441.21Z" fill="#030303"/>
<path d="M93.7889 438.531C93.3595 438.283 93.0205 438.475 93.0205 438.972C93.0351 439.237 93.1124 439.496 93.246 439.725C93.3795 439.955 93.5656 440.15 93.7889 440.294C94.207 440.543 94.5573 440.294 94.5573 439.853C94.5418 439.588 94.4641 439.33 94.3307 439.101C94.1972 438.871 94.0116 438.676 93.7889 438.531Z" fill="#030303"/>
<path d="M89.1219 435.854C88.7038 435.605 88.3535 435.854 88.3535 436.294C88.3699 436.559 88.4479 436.817 88.5813 437.046C88.7147 437.276 88.8998 437.471 89.1219 437.616C89.54 437.865 89.8903 437.616 89.8903 437.176C89.8775 436.91 89.801 436.651 89.6673 436.421C89.5336 436.191 89.3465 435.996 89.1219 435.854Z" fill="#030303"/>
<path d="M84.4897 433.175C84.0603 432.926 83.7213 433.175 83.71 433.616C83.7264 433.88 83.8044 434.138 83.9378 434.367C84.0712 434.597 84.2563 434.792 84.4784 434.938C84.9078 435.175 85.2468 434.938 85.2468 434.497C85.2371 434.232 85.1631 433.973 85.0312 433.743C84.8993 433.512 84.7135 433.317 84.4897 433.175Z" fill="#030303"/>
<path d="M79.8446 430.532C79.4152 430.283 79.0762 430.475 79.0762 430.961C79.0891 431.228 79.1655 431.489 79.2991 431.721C79.4327 431.953 79.6197 432.149 79.8446 432.294C80.2627 432.543 80.613 432.294 80.613 431.854C80.6011 431.588 80.525 431.328 80.3912 431.098C80.2574 430.868 80.0698 430.674 79.8446 430.532Z" fill="#030303"/>
<path d="M75.2118 427.818C74.7824 427.57 74.4434 427.762 74.4434 428.259C74.4531 428.524 74.527 428.783 74.6589 429.014C74.7908 429.244 74.9766 429.439 75.2005 429.581C75.6299 429.83 75.9689 429.581 75.9802 429.14C75.9646 428.875 75.887 428.618 75.7535 428.388C75.6201 428.158 75.4345 427.963 75.2118 427.818Z" fill="#030303"/>
<path d="M70.5672 425.142C70.1491 424.893 69.7988 425.085 69.7988 425.582C69.8144 425.847 69.892 426.105 70.0255 426.335C70.1589 426.565 70.3445 426.76 70.5672 426.904C70.9853 427.153 71.3356 426.904 71.3356 426.464C71.3219 426.198 71.245 425.94 71.1114 425.71C70.9777 425.48 70.7912 425.285 70.5672 425.142Z" fill="#030303"/>
<path d="M65.9237 422.452C65.5056 422.215 65.1553 422.452 65.1553 422.893C65.17 423.16 65.2471 423.419 65.3806 423.651C65.5141 423.883 65.7001 424.08 65.9237 424.226C66.3418 424.464 66.6921 424.226 66.6921 423.786C66.6792 423.518 66.6028 423.258 66.4691 423.026C66.3355 422.794 66.1485 422.597 65.9237 422.452Z" fill="#030303"/>
<path d="M61.2904 419.773C60.861 419.536 60.5107 419.717 60.5107 420.214C60.5272 420.481 60.6051 420.74 60.7384 420.971C60.8717 421.202 61.0568 421.4 61.2791 421.547C61.7085 421.796 62.0475 421.547 62.0475 421.107C62.0378 420.84 61.9638 420.58 61.8321 420.347C61.7003 420.115 61.5145 419.918 61.2904 419.773Z" fill="#030303"/>
<path d="M228.021 516.037C227.603 515.8 227.253 516.037 227.253 516.478C227.266 516.745 227.342 517.006 227.476 517.237C227.61 517.469 227.796 517.666 228.021 517.811C228.451 518.06 228.801 517.811 228.801 517.371C228.784 517.103 228.705 516.843 228.57 516.611C228.434 516.38 228.246 516.183 228.021 516.037Z" fill="#030303"/>
<path d="M223.389 513.372C222.959 513.124 222.62 513.316 222.62 513.813C222.635 514.078 222.712 514.336 222.846 514.566C222.979 514.796 223.165 514.991 223.389 515.135C223.807 515.384 224.157 515.135 224.157 514.694C224.144 514.428 224.068 514.17 223.934 513.939C223.8 513.709 223.613 513.515 223.389 513.372Z" fill="#030303"/>
<path d="M218.755 510.693C218.326 510.445 217.976 510.637 217.976 511.134C217.994 511.399 218.072 511.655 218.206 511.885C218.339 512.114 218.523 512.31 218.744 512.456C219.173 512.693 219.512 512.456 219.512 512.015C219.501 511.751 219.426 511.493 219.294 511.263C219.163 511.033 218.978 510.837 218.755 510.693Z" fill="#030303"/>
<path d="M214.111 508.015C213.682 507.766 213.343 507.958 213.343 508.444C213.353 508.711 213.428 508.971 213.559 509.203C213.691 509.435 213.876 509.632 214.1 509.778C214.529 510.026 214.88 509.778 214.88 509.337C214.866 509.071 214.789 508.813 214.655 508.583C214.522 508.353 214.335 508.158 214.111 508.015Z" fill="#030303"/>
<path d="M209.467 505.326C209.049 505.089 208.698 505.326 208.698 505.767C208.713 506.034 208.79 506.294 208.924 506.525C209.057 506.757 209.243 506.954 209.467 507.1C209.896 507.349 210.235 507.1 210.235 506.66C210.223 506.392 210.147 506.131 210.013 505.899C209.88 505.667 209.692 505.471 209.467 505.326Z" fill="#030303"/>
<path d="M204.834 502.66C204.405 502.411 204.055 502.603 204.055 503.089C204.072 503.357 204.151 503.617 204.286 503.848C204.422 504.08 204.609 504.276 204.834 504.422C205.252 504.671 205.603 504.422 205.603 503.982C205.589 503.716 205.512 503.458 205.379 503.228C205.245 502.998 205.058 502.803 204.834 502.66Z" fill="#030303"/>
<path d="M200.189 499.97C199.771 499.732 199.421 499.97 199.421 500.41C199.436 500.677 199.513 500.937 199.646 501.169C199.78 501.4 199.966 501.597 200.189 501.744C200.607 501.981 200.958 501.744 200.958 501.303C200.945 501.036 200.868 500.775 200.735 500.543C200.601 500.312 200.414 500.115 200.189 499.97Z" fill="#030303"/>
<path d="M195.557 497.291C195.128 497.054 194.777 497.291 194.777 497.732C194.794 497.998 194.872 498.257 195.005 498.489C195.138 498.72 195.323 498.917 195.546 499.065C195.975 499.302 196.314 499.065 196.314 498.624C196.303 498.358 196.229 498.098 196.097 497.866C195.966 497.634 195.78 497.437 195.557 497.291Z" fill="#030303"/>
<path d="M190.969 494.613C190.55 494.376 190.2 494.613 190.2 495.054C190.213 495.32 190.288 495.58 190.419 495.811C190.551 496.043 190.735 496.24 190.957 496.387C191.387 496.636 191.726 496.387 191.737 495.947C191.724 495.679 191.648 495.419 191.514 495.187C191.38 494.955 191.193 494.758 190.969 494.613Z" fill="#030303"/>
<path d="M186.28 491.935C185.85 491.686 185.511 491.935 185.5 492.375C185.515 492.642 185.592 492.902 185.725 493.134C185.859 493.365 186.045 493.562 186.268 493.709C186.698 493.957 187.037 493.709 187.048 493.268C187.033 493.001 186.955 492.742 186.822 492.51C186.688 492.279 186.503 492.082 186.28 491.935Z" fill="#030303"/>
<path d="M202.597 222.25L87.3368 288.784C81.6868 292.084 77.0312 300.084 77.0538 306.604V357.511C77.0538 361.861 80.3421 362.031 83.0089 358.426L98.7385 337.351L202.574 277.405C208.224 274.117 212.88 266.105 212.857 259.585L212.936 228.148C212.936 221.606 208.292 218.961 202.597 222.25Z" fill="#FFE23D"/>
<path d="M190.188 267.946L96.3193 322.141L96.3306 325.735L190.2 271.54L190.188 267.946Z" fill="white"/>
<path d="M190.156 256.047L96.2871 310.253L96.2984 313.846L190.168 259.652L190.156 256.047Z" fill="white"/>
<path d="M159.454 261.867L96.2529 298.355L96.2642 301.96L159.465 265.472L159.454 261.867Z" fill="white"/>
<g style="mix-blend-mode:multiply" opacity="0.4">
<path d="M440.767 332.097L337.282 272.343L268.883 312.096L339.587 352.912V371.839H372.368L440.767 332.097Z" fill="#8014C8"/>
</g>
<path d="M407.997 288.208L407.986 332.097L339.587 371.839L339.598 327.961L407.997 288.208Z" fill="#CDDADE"/>
<path d="M339.597 327.961L339.586 371.839L236.101 312.096L236.112 268.207L339.597 327.961Z" fill="#DFECF0"/>
<path d="M407.998 288.208L339.599 327.961L236.113 268.207L304.512 228.465L407.998 288.208Z" fill="black"/>
<path d="M418.076 282.546V290.309L340.162 335.588V327.825L418.076 282.546Z" fill="#ED6B4E"/>
<path d="M340.163 327.825V335.588L227.332 270.387V262.624L340.163 327.825Z" fill="#FF8D75"/>
<path d="M418.076 282.546L340.163 327.825L227.332 262.624L305.246 217.334L418.076 282.546Z" fill="#FFAD9C"/>
<path d="M407.986 177.592L339.598 217.334L339.587 322.673L407.986 282.92L407.997 100.865L407.986 177.592Z" fill="#CDDADE" stroke="black" stroke-width="0.25" stroke-miterlimit="10"/>
<path d="M339.598 144.245V217.334L407.985 177.592L407.997 104.695" stroke="black" stroke-width="0.25" stroke-linejoin="round"/>
<path d="M339.586 217.334L236.112 157.603L236.101 262.919L339.586 322.673L339.597 140.607H339.586V217.334Z" fill="#DFECF0" stroke="black" stroke-width="0.25" stroke-miterlimit="10"/>
<path d="M236.113 84.7734V157.602L339.587 217.334V143.963" stroke="black" stroke-width="0.25" stroke-linejoin="round"/>
<path d="M256.633 323.949L312.658 356.301V324.175L256.644 291.823L256.633 323.949Z" fill="#709CB9" stroke="black" stroke-miterlimit="10"/>
<g style="mix-blend-mode:multiply" opacity="0.5">
<path d="M284.024 339.769L285.279 340.481V308.355L284.024 307.644V339.769Z" fill="#709CB9"/>
</g>
<path d="M384.798 262.455V282.795L401.477 273.1V252.76L384.798 262.455ZM366.413 273.134L381.408 264.421V284.761L366.413 293.474V273.134ZM363.023 275.1L346.073 284.931V305.271L363.023 295.44V275.1Z" fill="#729DBD"/>
<g style="mix-blend-mode:multiply" opacity="0.5">
<path d="M400.154 253.528V272.331L384.797 281.269V282.84L401.476 273.145V252.805L400.154 253.528ZM361.734 275.868L363.045 275.1V295.44L346.095 305.271V303.7L361.7 294.66L361.734 275.868ZM380.108 283.959L366.435 291.869V293.439L381.407 284.761V264.421L380.085 265.189L380.108 283.959Z" fill="#709CB9"/>
</g>
<path d="M312.162 293.235L333.078 305.304V284.964L312.162 272.895V293.235ZM266.962 246.781L286.172 257.878V278.218L266.962 267.121V246.781ZM263.572 244.826L242.633 232.78V253.12L263.549 265.2L263.572 244.826ZM308.772 270.94L289.562 259.844V280.184L308.772 291.28V270.94Z" fill="#729DBD"/>
<g style="mix-blend-mode:multiply" opacity="0.5">
<path d="M313.484 292.67V273.652L312.162 272.895V293.235L333.078 305.304V303.97L313.484 292.67ZM263.549 263.844V265.211L242.633 253.12V232.78L243.955 233.549V252.51L263.549 263.844ZM268.261 266.556V247.549L266.939 246.781V267.121L286.149 278.218V276.85L268.261 266.556ZM290.861 279.607V260.601L289.539 259.844V280.184L308.749 291.28V289.902L290.861 279.607Z" fill="#709CB9"/>
</g>
<path d="M385.081 262.613V282.298L401.149 272.941V253.245L385.081 262.613ZM345.779 305.768V284.761L363.26 274.591V295.609L345.779 305.768ZM346.344 285.1V304.785L362.729 295.281V275.597L346.344 285.1ZM366.119 293.959V272.975L381.679 263.935V284.93L366.119 293.959ZM366.684 273.291V292.987L381.114 284.603V264.918L366.684 273.291ZM384.504 283.281V262.297L401.748 252.273V273.258L384.504 283.281Z" fill="white"/>
<path d="M312.444 293.066L332.784 304.818V285.133L312.444 273.381V293.066ZM333.349 305.801L311.879 293.371V272.41L333.349 284.84V305.801ZM289.833 280.015L308.489 290.783V271.099L289.833 260.33V280.015ZM309.043 291.767L289.279 280.342V259.347L309.066 270.771L309.043 291.767ZM267.233 266.963L285.889 277.732V258.047L267.233 247.278V266.963ZM286.443 278.715L266.679 267.291V246.341L286.466 257.765L286.443 278.715ZM242.949 252.928L263.289 264.68V244.996L242.949 233.244V252.928ZM263.866 265.652L242.396 253.222V232.261L263.866 244.691V265.652Z" fill="white"/>
<path d="M384.798 229.606V249.946L401.477 240.25V219.91L384.798 229.606ZM366.413 240.284L381.408 231.572V251.912L366.413 260.624V240.284ZM363.023 242.25L346.073 252.081V272.421L363.023 262.59V242.25Z" fill="#729DBD"/>
<g style="mix-blend-mode:multiply" opacity="0.5">
<path d="M400.154 220.679V239.437L384.797 248.364V249.946L401.476 240.25V219.91L400.154 220.679ZM361.734 243.019L363.045 242.25V262.59L346.095 272.421V270.851L361.7 261.811L361.734 243.019ZM380.108 251.109L366.435 259.019V260.59L381.43 251.878V231.538L380.108 232.306V251.109Z" fill="#709CB9"/>
</g>
<path d="M312.162 260.387L333.078 272.456V252.116L312.162 240.047V260.387ZM266.962 213.933L286.172 225.03V245.37L266.962 234.273V213.933ZM263.572 211.978L242.633 199.898V220.238L263.549 232.318L263.572 211.978ZM308.772 238.081L289.562 226.985V247.325L308.772 258.421V238.081Z" fill="#729DBD"/>
<g style="mix-blend-mode:multiply" opacity="0.5">
<path d="M313.484 259.766V240.804L312.162 240.047V260.387L333.078 272.456V271.088L313.484 259.766ZM263.549 230.94V232.318L242.633 220.238V199.898L243.955 200.667V219.628L263.549 230.94ZM268.261 233.663V214.701L266.939 213.933V234.273L286.149 245.37V244.002L268.261 233.663ZM290.861 246.714V227.753L289.539 226.985V247.325L308.749 258.421V257.054L290.861 246.714Z" fill="#709CB9"/>
</g>
<path d="M385.081 229.763V249.448L401.149 240.08V220.35L385.081 229.763ZM345.779 272.918V251.922L363.26 241.752V262.748L345.779 272.918ZM346.344 252.25V271.935L362.729 262.431V242.747L346.344 252.25ZM366.119 261.109V240.125L381.679 231.085V252.069L366.119 261.109ZM366.684 240.442V260.126L381.114 251.753V232.068L366.684 240.442ZM384.504 250.431V229.39L401.748 219.367V240.363L384.504 250.431Z" fill="white"/>
<path d="M312.444 260.217L332.784 271.969V252.285L312.444 240.533V260.217ZM333.349 272.953L311.879 260.523V239.561L333.349 251.991V272.953ZM289.821 247.166L308.489 257.935V238.25L289.833 227.481L289.821 247.166ZM309.031 258.918L289.279 247.471V226.498L309.065 237.923L309.031 258.918ZM267.221 234.114L285.889 244.883V225.199L267.233 214.419L267.221 234.114ZM286.431 245.866L266.679 234.442V213.447L286.443 224.871L286.431 245.866ZM242.949 220.08L263.289 231.832V212.136L242.949 200.395V220.08ZM263.831 232.781L242.361 220.351V199.412L263.831 211.842V232.781Z" fill="white"/>
<path d="M384.798 196.756V217.096L401.477 207.401V187.061L384.798 196.756ZM366.413 207.434L381.408 198.722V219.062L366.413 227.774V207.434ZM363.023 209.401L346.073 219.232V239.572L363.023 229.741V209.401Z" fill="#729DBD"/>
<g style="mix-blend-mode:multiply" opacity="0.5">
<path d="M400.155 187.818V206.587L384.798 215.514V217.096L401.477 207.401V187.061L400.155 187.818ZM361.712 210.18L363.023 209.412V229.752L346.073 239.583V238.012L361.679 228.972L361.712 210.18ZM380.086 218.26L366.413 226.17V227.752L381.408 219.04V198.7L380.086 199.468V218.26Z" fill="#709CB9"/>
</g>
<path d="M312.163 227.538L333.079 239.561V219.221L312.163 207.153V227.538ZM266.963 181.083L286.173 192.18V212.52L266.963 201.423V181.083ZM263.573 179.129L242.656 167.049V187.389L263.573 199.469V179.129ZM308.773 205.232L289.563 194.135V214.475L308.773 225.572V205.232Z" fill="#729DBD"/>
<g style="mix-blend-mode:multiply" opacity="0.5">
<path d="M313.484 226.916V207.921L312.162 207.164V227.504L333.078 239.561V238.194L313.484 226.916ZM263.549 198.09V199.469L242.633 187.389V167.049L243.955 167.817V186.779L263.549 198.09ZM268.261 200.813V181.841L266.939 181.083V201.423L286.149 212.52V211.153L268.261 200.813ZM290.861 213.865V194.903L289.539 194.135V214.475L308.749 225.572V224.204L290.861 213.865Z" fill="#709CB9"/>
</g>
<path d="M385.081 196.915V216.599L401.149 207.231V187.581L385.081 196.915ZM345.779 240.069V219.074L363.26 208.904V229.888L345.779 240.069ZM346.344 219.402V239.086L362.729 229.583V209.898L346.344 219.402ZM366.119 228.261V207.265L381.679 198.225V219.221L366.119 228.261ZM366.684 207.593V227.278L381.114 218.904V199.208L366.684 207.593ZM384.504 217.582V196.621L401.748 186.598V207.593L384.504 217.582Z" fill="white"/>
<path d="M312.444 227.369L332.784 239.121V219.436L312.444 207.684V227.369ZM333.349 240.093L311.879 227.663V206.701L333.349 219.131V240.093ZM289.821 214.317L308.489 225.086V205.402L289.833 194.633L289.821 214.317ZM309.031 226.069L289.279 214.701V193.65L309.065 205.074L309.031 226.069ZM267.221 201.266L285.889 212.035V192.35L267.233 181.57L267.221 201.266ZM286.431 213.006L266.679 201.593V180.598L286.465 192.022L286.431 213.006ZM242.949 187.231L263.289 198.983V179.287L242.949 167.535V187.231ZM263.831 200.011L242.361 187.581V166.563L263.831 178.993V200.011Z" fill="white"/>
<path d="M384.798 163.851V184.191L401.477 174.507V154.167L384.798 163.851ZM366.413 174.541L381.408 165.829V186.169L366.413 194.881V174.541ZM363.023 176.507L346.073 186.338V206.678L363.023 196.847V176.507Z" stroke="black" stroke-width="0.5" stroke-linejoin="round"/>
<path d="M400.154 154.969V173.739L384.797 182.666V184.191L401.476 174.507V154.167L400.154 154.969ZM361.734 177.321L363.045 176.552V196.892L346.095 206.723V205.153L361.7 196.113L361.734 177.321ZM380.108 185.4L366.435 193.31V194.892L381.43 186.18V165.84L380.108 166.608V185.4Z" stroke="black" stroke-width="0.25" stroke-linejoin="round"/>
<path d="M312.163 194.678L333.079 206.791V186.451L312.163 174.372V194.678ZM266.963 148.235L286.173 159.331V179.671L266.963 168.575V148.235ZM263.573 146.28L242.656 134.2V154.54L263.573 166.62V146.28ZM308.773 172.383L289.563 161.286V181.626L308.773 192.723V172.383Z" stroke="black" stroke-width="0.5" stroke-linejoin="round"/>
<path d="M313.484 194.068V175.151L312.162 174.383V194.723L333.078 206.791V205.413L313.484 194.068ZM263.549 165.241V166.62L242.633 154.54V134.2L243.955 134.957V153.93L263.549 165.241ZM268.261 167.965V148.992L266.939 148.235V168.575L286.149 179.671V178.293L268.261 167.965ZM290.861 181.016V162.055L289.539 161.286V181.626L308.749 192.723V191.356L290.861 181.016Z" stroke="black" stroke-width="0.25" stroke-linejoin="round"/>
<path d="M243.955 153.93L242.633 154.54" stroke="black" stroke-width="0.25" stroke-linejoin="round"/>
<path d="M313.484 194.067L312.162 194.678" stroke="black" stroke-width="0.25" stroke-linejoin="round"/>
<path d="M268.261 167.965L266.938 168.575" stroke="black" stroke-width="0.25" stroke-linejoin="round"/>
<path d="M290.872 181.016L289.55 181.626" stroke="black" stroke-width="0.25" stroke-linejoin="round"/>
<path d="M361.712 196.079L363.023 196.893" stroke="black" stroke-width="0.25" stroke-linejoin="round"/>
<path d="M380.086 185.4L381.408 186.214" stroke="black" stroke-width="0.25" stroke-linejoin="round"/>
<path d="M400.166 173.738L401.477 174.552" stroke="black" stroke-width="0.25" stroke-linejoin="round"/>
<path d="M384.798 131.08V151.42L401.477 141.725V121.385L384.798 131.08ZM366.413 141.759L381.408 133.058V153.398L366.413 162.099V141.759ZM363.023 143.736L346.073 153.567V173.907L363.023 164.076V143.736Z" stroke="black" stroke-width="0.5" stroke-linejoin="round"/>
<path d="M400.154 122.119V140.889L384.797 149.816V151.42L401.476 141.725V121.385L400.154 122.119ZM361.734 144.471L363.045 143.702V164.042L346.095 173.873V172.303L361.7 163.263L361.734 144.471ZM380.085 152.55L366.412 160.46V162.031L381.407 153.33V132.99L380.085 133.747V152.55Z" stroke="black" stroke-width="0.25" stroke-linejoin="round"/>
<path d="M312.162 161.828L333.078 173.908V153.568L312.162 141.488V161.828ZM266.962 115.385L286.172 126.482V146.822L266.962 135.725V115.385ZM263.572 113.43L242.633 101.351V121.691L263.549 133.77L263.572 113.43ZM308.772 139.533L289.562 128.437V148.777L308.772 159.873V139.533Z" stroke="black" stroke-width="0.5" stroke-linejoin="round"/>
<path d="M313.484 161.218V142.257L312.162 141.488V161.828L333.078 173.908V172.529L313.484 161.218ZM263.549 132.392V133.77L242.633 121.691V101.351L243.955 102.108V121.08L263.549 132.392ZM268.261 135.115V116.142L266.939 115.385V135.725L286.149 146.822V145.443L268.261 135.115ZM290.861 148.166V129.194L289.539 128.437V148.777L308.749 159.873V158.495L290.861 148.166Z" stroke="black" stroke-width="0.25" stroke-linejoin="round"/>
<path d="M243.955 121.012L242.633 121.622" stroke="black" stroke-width="0.25" stroke-linejoin="round"/>
<path d="M313.484 161.161L312.162 161.771" stroke="black" stroke-width="0.25" stroke-linejoin="round"/>
<path d="M268.261 135.048L266.938 135.658" stroke="black" stroke-width="0.25" stroke-linejoin="round"/>
<path d="M290.872 148.099L289.55 148.72" stroke="black" stroke-width="0.25" stroke-linejoin="round"/>
<path d="M361.712 163.173L363.023 163.975" stroke="black" stroke-width="0.25" stroke-linejoin="round"/>
<path d="M380.086 152.494L381.408 153.296" stroke="black" stroke-width="0.25" stroke-linejoin="round"/>
<path d="M400.166 140.832L401.477 141.634" stroke="black" stroke-width="0.25" stroke-linejoin="round"/>
<path d="M414.766 91.9833V100.854L339.61 144.528L229.355 80.8754V72.0049" stroke="black" stroke-width="0.5" stroke-linejoin="round"/>
<path d="M229.355 72.0046L304.512 28.3301L414.766 91.983L339.61 135.657L229.355 72.0046Z" stroke="black" stroke-width="0.5" stroke-linejoin="round"/>
<path d="M247.39 71.9822L304.522 38.7715L396.73 92.0058L339.586 125.216L247.39 71.9822Z" stroke="black" stroke-width="0.5" stroke-linejoin="round"/>
<path d="M253.525 75.5305L304.522 45.8906L390.583 95.5767" stroke="black" stroke-width="0.25" stroke-linejoin="round"/>
<path d="M339.609 135.658V144.529" stroke="black" stroke-width="0.5" stroke-linejoin="round"/>
<path d="M304.522 45.8899V38.7822" stroke="black" stroke-width="0.25" stroke-linejoin="round"/>
<path d="M421.274 91.6777H434.077" stroke="white" stroke-width="0.5" stroke-linecap="round" stroke-linejoin="round"/>
<path d="M421.274 331.983H434.077" stroke="white" stroke-width="0.5" stroke-linecap="round" stroke-linejoin="round"/>
<path d="M427.67 91.6777V331.984" stroke="white" stroke-width="0.5" stroke-linecap="round" stroke-linejoin="round"/>
<path d="M421.274 343.43L352.875 383.183" stroke="white" stroke-width="0.5" stroke-linecap="round" stroke-linejoin="round"/>
<path d="M350.412 381.76L355.339 384.596" stroke="white" stroke-width="0.5" stroke-linecap="round" stroke-linejoin="round"/>
<path d="M418.812 342.007L423.738 344.854" stroke="white" stroke-width="0.5" stroke-linecap="round" stroke-linejoin="round"/>
<path d="M242.283 420.859L242.328 428.746L244.86 427.277L244.814 419.39L242.283 420.859Z" fill="#79F564"/>
<path d="M191.364 450.442L191.387 452.351L193.929 453.82L193.907 448.973L191.364 450.442Z" fill="#79F564"/>
<path d="M237.649 423.548L237.695 431.436L240.226 429.967L240.192 422.079L237.649 423.548Z" fill="#79F564"/>
<path d="M233.017 426.237L233.073 434.124L235.604 432.655L235.559 424.768L233.017 426.237Z" fill="#79F564"/>
<path d="M228.396 428.926L228.441 436.813L230.983 435.344L230.927 427.457L228.396 428.926Z" fill="#79F564"/>
<path d="M223.762 431.615L223.807 439.503L226.349 438.034L226.304 430.146L223.762 431.615Z" fill="#79F564"/>
<path d="M219.14 434.305L219.185 442.192L221.716 440.723L221.671 432.836L219.14 434.305Z" fill="#79F564"/>
<path d="M214.508 436.994L214.564 444.882L217.096 443.413L217.05 435.525L214.508 436.994Z" fill="#79F564"/>
<path d="M209.874 439.685L209.931 447.572L212.473 446.103L212.417 438.216L209.874 439.685Z" fill="#79F564"/>
<path d="M205.252 442.373L205.297 450.261L207.84 448.792L207.783 440.904L205.252 442.373Z" fill="#79F564"/>
<path d="M200.631 445.063L200.676 452.961L203.207 451.481L203.162 443.594L200.631 445.063Z" fill="#79F564"/>
<path d="M286.499 401.095L283.945 399.626L283.979 404.541L286.522 403.061L286.499 401.095Z" fill="#79F564"/>
<path d="M281.381 398.134L279.302 399.343L279.347 407.23L281.889 405.75L281.844 398.405L281.381 398.134Z" fill="#79F564"/>
<path d="M265.414 407.411L265.471 415.299L268.002 413.83L267.957 405.942L265.414 407.411Z" fill="#79F564"/>
<path d="M251.537 415.479L251.582 423.366L254.114 421.897L254.068 414.01L251.537 415.479Z" fill="#79F564"/>
<path d="M256.158 412.789L256.215 420.677L258.746 419.208L258.701 411.32L256.158 412.789Z" fill="#79F564"/>
<path d="M270.046 404.722L270.091 412.609L272.634 411.14L272.588 403.253L270.046 404.722Z" fill="#79F564"/>
<path d="M246.904 418.169L246.961 426.057L249.492 424.588L249.436 416.7L246.904 418.169Z" fill="#79F564"/>
<path d="M260.792 410.1L260.837 417.987L263.368 416.518L263.323 408.631L260.792 410.1Z" fill="#79F564"/>
<path d="M195.998 447.752L196.043 455.041L196.563 455.346L198.586 454.171L198.529 446.283L195.998 447.752Z" fill="#79F564"/>
<path d="M274.68 402.032L274.725 409.92L277.256 408.451L277.211 400.563L274.68 402.032Z" fill="#79F564"/>
<path d="M244.746 476.058L245.854 476.702L338.886 422.643L337.779 421.999L244.746 476.058Z" fill="#FFE23D"/>
<path d="M264.555 487.506L265.662 488.15L358.706 434.08L357.588 433.436L264.555 487.506Z" fill="#FFE23D"/>
<path d="M226.858 463.572L227.966 464.216L320.999 410.145L319.891 409.513L226.858 463.572Z" fill="#FFE23D"/>
<path d="M348.774 431.412L347.644 430.757L345.18 432.192L342.694 430.757L341.564 431.412L344.05 432.847L341.587 434.282L342.717 434.938L345.18 433.503L347.666 434.938L348.796 434.282L346.31 432.847L348.774 431.412Z" fill="#79F564"/>
<path d="M516.974 420.835C518.087 420.194 519.062 419.339 519.845 418.32C520.628 417.301 521.202 416.138 521.535 414.897C521.868 413.656 521.954 412.362 521.787 411.088C521.62 409.815 521.203 408.586 520.562 407.473C519.92 406.36 519.065 405.385 518.046 404.602C517.027 403.819 515.864 403.245 514.624 402.912C513.383 402.579 512.088 402.493 510.815 402.66C509.541 402.827 508.312 403.244 507.199 403.885L500.035 408.032L507.154 426.418L516.974 420.835Z" fill="#FA8A8A"/>
<path d="M503.764 425.457L510.759 421.4L507.154 426.451L500.386 430.384L503.764 425.457Z" fill="#030303"/>
<path d="M375.601 499.948L503.765 425.458L500.387 430.385L371.996 504.999L375.601 499.948Z" fill="#FF901A"/>
<path d="M500.115 416.315L507.2 412.202L510.76 421.4L503.765 425.457L500.115 416.315Z" fill="#212121"/>
<path d="M503.764 425.457L375.599 499.947L372.028 490.749L500.114 416.315L503.764 425.457Z" fill="#FFAB1A"/>
<path d="M500.114 416.315L372.029 490.748L364.876 486.613L492.928 412.202L500.114 416.315Z" fill="#FFCC31"/>
<path d="M500.115 416.315L492.928 412.202L500.035 408.066L507.2 412.202L500.115 416.315Z" fill="#2B2B2B"/>
<path d="M354.978 498.049L364.876 486.614C364.876 486.614 371.509 484.817 373.51 489.891C376.368 491.732 378.369 496.772 376.538 499.405C376.753 501.496 374.346 503.643 372.018 504.999L359.498 506.502C359.102 503.218 357.489 500.201 354.978 498.049Z" fill="#FFD0BD"/>
<path d="M354.977 498.048C357.489 500.2 359.102 503.216 359.497 506.5L346.321 508.082L354.977 498.048Z" fill="#2B2B2B"/>
<path d="M222.29 451.08C222.272 451.123 222.299 451.139 222.373 451.128C223.077 450.959 223.757 450.914 224.415 450.994C225.072 451.074 225.683 451.276 226.247 451.6C227.08 452.079 227.459 452.605 227.385 453.179C227.32 453.748 226.852 454.282 225.982 454.781L222.62 456.708C222.528 456.761 222.435 456.761 222.343 456.708L212.903 451.283C212.811 451.23 212.811 451.176 212.903 451.123L216.168 449.252C217.066 448.737 217.992 448.461 218.945 448.424C219.908 448.382 220.792 448.593 221.597 449.055C222.106 449.348 222.416 449.67 222.527 450.02C222.638 450.361 222.559 450.714 222.29 451.08ZM214.667 451.1C214.63 451.122 214.63 451.143 214.667 451.164L217.998 453.079C218.035 453.1 218.072 453.1 218.11 453.079L220.471 451.725C221.054 451.391 221.364 451.037 221.402 450.665C221.448 450.288 221.217 449.953 220.708 449.661C220.171 449.352 219.57 449.208 218.903 449.229C218.236 449.24 217.612 449.412 217.028 449.747L214.667 451.1ZM225.107 454.278C225.691 453.944 225.987 453.582 225.997 453.194C226.015 452.801 225.742 452.442 225.178 452.118C224.613 451.794 223.984 451.639 223.29 451.655C222.595 451.66 221.947 451.835 221.345 452.18L218.942 453.557C218.905 453.579 218.905 453.6 218.942 453.621L222.538 455.688C222.575 455.709 222.612 455.709 222.649 455.688L225.107 454.278ZM234.496 450.027C233.847 450.399 233.144 450.653 232.385 450.791C231.625 450.929 230.876 450.944 230.135 450.838C229.385 450.726 228.7 450.492 228.08 450.135L221.5 446.354C221.408 446.301 221.408 446.247 221.501 446.194L222.209 445.788C222.302 445.735 222.394 445.735 222.487 445.788L229.094 449.586C229.751 449.963 230.501 450.15 231.343 450.145C232.177 450.135 232.94 449.93 233.635 449.532C234.329 449.134 234.686 448.696 234.705 448.218C234.714 447.734 234.39 447.304 233.733 446.926L227.126 443.128C227.033 443.075 227.033 443.022 227.126 442.969L227.834 442.563C227.927 442.51 228.019 442.51 228.112 442.563L234.692 446.345C235.312 446.701 235.719 447.094 235.913 447.525C236.107 447.945 236.084 448.373 235.843 448.808C235.602 449.244 235.153 449.65 234.496 450.027ZM240.335 446.551C240.243 446.604 240.15 446.604 240.058 446.551L230.618 441.126C230.526 441.073 230.526 441.02 230.618 440.967L231.327 440.561C231.419 440.508 231.512 440.508 231.604 440.561L241.044 445.986C241.136 446.039 241.136 446.092 241.044 446.145L240.335 446.551ZM243.93 444.49C243.837 444.544 243.745 444.543 243.652 444.49L234.213 439.065C234.12 439.012 234.12 438.959 234.213 438.906L234.921 438.5C235.014 438.447 235.106 438.447 235.199 438.5L243.861 443.478C243.898 443.499 243.935 443.499 243.972 443.478L248.875 440.667C248.968 440.614 249.06 440.614 249.153 440.667L249.736 441.002C249.828 441.055 249.828 441.109 249.736 441.162L243.93 444.49ZM251.824 439.964C251.732 440.017 251.639 440.017 251.547 439.964L242.107 434.539C242.015 434.486 242.015 434.433 242.107 434.38L245.385 432.5C246.302 431.975 247.269 431.696 248.288 431.665C249.315 431.628 250.241 431.847 251.065 432.32L255.423 434.825C256.247 435.298 256.626 435.83 256.561 436.42C256.505 437.004 256.019 437.559 255.102 438.085L251.824 439.964ZM251.755 438.952C251.792 438.973 251.829 438.973 251.866 438.952L254.283 437.566C254.885 437.221 255.186 436.847 255.186 436.443C255.196 436.034 254.905 435.659 254.312 435.319L250.217 432.965C249.616 432.619 248.963 432.446 248.26 432.446C247.556 432.446 246.899 432.621 246.288 432.971L243.871 434.357C243.834 434.378 243.834 434.399 243.871 434.421L251.755 438.952ZM260.41 435.042C260.318 435.095 260.225 435.095 260.133 435.041L250.693 429.616C250.601 429.563 250.601 429.51 250.693 429.457L251.402 429.051C251.494 428.998 251.587 428.998 251.679 429.051L261.119 434.476C261.211 434.529 261.211 434.582 261.119 434.635L260.41 435.042ZM260.08 424.235C259.987 424.182 259.987 424.129 260.08 424.075L260.788 423.669C260.881 423.616 260.973 423.616 261.066 423.669L270.505 429.094C270.598 429.148 270.598 429.201 270.505 429.254L269.811 429.652C269.746 429.689 269.658 429.702 269.547 429.692L257.106 427.98C257.069 427.969 257.046 427.972 257.037 427.987C257.018 427.998 257.023 428.011 257.051 428.027L264.713 432.415C264.806 432.468 264.806 432.521 264.713 432.575L264.005 432.981C263.912 433.034 263.82 433.034 263.727 432.981L254.288 427.556C254.195 427.502 254.195 427.449 254.288 427.396L254.982 426.998C255.047 426.961 255.135 426.948 255.246 426.958L267.687 428.67C267.724 428.681 267.752 428.681 267.77 428.671C267.779 428.655 267.77 428.639 267.742 428.623L260.08 424.235ZM276.322 426.046C275.674 426.418 274.979 426.673 274.239 426.81C273.489 426.943 272.744 426.956 272.003 426.849C271.272 426.737 270.606 426.508 270.004 426.163L266.173 423.961C265.571 423.615 265.173 423.232 264.979 422.812C264.794 422.387 264.822 421.962 265.063 421.537C265.295 421.107 265.735 420.706 266.383 420.334C267.022 419.968 267.712 419.716 268.452 419.578C269.202 419.435 269.938 419.417 270.66 419.523C271.373 419.625 272.012 419.838 272.576 420.162L272.756 420.266C272.849 420.319 272.849 420.372 272.756 420.425L272.048 420.831C271.955 420.884 271.863 420.884 271.77 420.831L271.604 420.735C270.984 420.379 270.271 420.209 269.466 420.224C268.669 420.234 267.929 420.436 267.244 420.829C266.558 421.222 266.206 421.652 266.188 422.12C266.169 422.587 266.483 423.007 267.131 423.379L271.018 425.613C271.666 425.986 272.402 426.164 273.226 426.148C274.049 426.133 274.809 425.926 275.503 425.528C276.179 425.14 276.531 424.726 276.559 424.285C276.596 423.839 276.305 423.437 275.685 423.081L274.422 422.355C274.385 422.334 274.348 422.334 274.311 422.355L272.269 423.526C272.176 423.579 272.084 423.579 271.991 423.525L271.408 423.19C271.316 423.137 271.316 423.084 271.408 423.031L274.353 421.343C274.445 421.29 274.538 421.29 274.63 421.343L276.421 422.372C277.411 422.941 277.888 423.555 277.85 424.214C277.822 424.867 277.313 425.478 276.322 426.046Z" fill="white"/>
<path d="M243.769 468.862C243.676 468.915 243.584 468.915 243.491 468.862L234.052 463.437C233.959 463.384 233.959 463.331 234.052 463.278L234.76 462.872C234.853 462.819 234.945 462.819 235.038 462.872L244.477 468.297C244.57 468.35 244.57 468.403 244.477 468.456L243.769 468.862ZM243.438 458.056C243.346 458.002 243.346 457.949 243.438 457.896L244.147 457.49C244.239 457.437 244.332 457.437 244.424 457.49L253.864 462.915C253.956 462.968 253.956 463.021 253.864 463.075L253.169 463.473C253.104 463.51 253.016 463.523 252.905 463.512L240.465 461.8C240.428 461.79 240.405 461.792 240.395 461.808C240.377 461.819 240.381 461.832 240.409 461.848L248.072 466.236C248.164 466.289 248.164 466.342 248.072 466.395L247.363 466.801C247.271 466.855 247.178 466.855 247.086 466.801L237.646 461.376C237.554 461.323 237.554 461.27 237.646 461.217L238.341 460.819C238.406 460.782 238.493 460.768 238.605 460.779L251.045 462.491C251.082 462.502 251.11 462.502 251.129 462.491C251.138 462.475 251.129 462.459 251.101 462.443L243.438 458.056ZM253.704 452.839C253.796 452.892 253.796 452.946 253.704 452.999L248.606 455.921C248.569 455.943 248.569 455.964 248.606 455.985L252.035 457.956C252.072 457.977 252.109 457.977 252.146 457.956L255.716 455.909C255.808 455.856 255.901 455.856 255.993 455.909L256.576 456.244C256.669 456.297 256.669 456.351 256.576 456.404L253.007 458.45C252.97 458.472 252.97 458.493 253.007 458.514L257.268 460.963C257.361 461.016 257.361 461.07 257.268 461.123L256.56 461.529C256.467 461.582 256.375 461.582 256.282 461.529L246.843 456.104C246.75 456.051 246.75 455.997 246.843 455.944L252.843 452.504C252.936 452.451 253.028 452.451 253.121 452.504L253.704 452.839ZM267.372 455.457C266.715 455.834 266.002 456.089 265.234 456.221C264.465 456.354 263.701 456.361 262.942 456.244C262.183 456.116 261.485 455.869 260.846 455.502L257.348 453.491C256.709 453.124 256.284 452.725 256.071 452.295C255.858 451.854 255.868 451.413 256.099 450.972C256.331 450.531 256.776 450.122 257.433 449.745C258.091 449.368 258.804 449.113 259.572 448.981C260.35 448.843 261.118 448.838 261.877 448.966C262.636 449.083 263.335 449.326 263.973 449.693L267.471 451.703C268.11 452.07 268.536 452.474 268.748 452.915C268.961 453.346 268.947 453.784 268.706 454.23C268.474 454.671 268.03 455.08 267.372 455.457ZM266.526 454.97C267.229 454.567 267.581 454.121 267.582 453.632C267.582 453.143 267.23 452.697 266.527 452.292L262.973 450.25C262.27 449.846 261.492 449.643 260.641 449.643C259.78 449.637 258.998 449.836 258.294 450.24C257.599 450.638 257.257 451.084 257.266 451.578C257.265 452.067 257.617 452.514 258.32 452.918L261.874 454.96C262.577 455.364 263.355 455.567 264.206 455.567C265.058 455.568 265.831 455.369 266.526 454.97ZM278.569 448.91C278.485 448.958 278.397 448.972 278.305 448.95L271.96 447.648C271.923 447.637 271.89 447.64 271.862 447.656L269.501 449.009C269.464 449.031 269.464 449.052 269.501 449.073L273.749 451.514C273.841 451.568 273.841 451.621 273.749 451.674L273.04 452.08C272.948 452.133 272.855 452.133 272.763 452.08L263.323 446.655C263.231 446.602 263.231 446.549 263.323 446.495L266.921 444.433C267.717 443.976 268.611 443.751 269.601 443.757C270.582 443.757 271.471 443.986 272.267 444.444C272.915 444.816 273.289 445.233 273.391 445.696C273.492 446.158 273.307 446.599 272.835 447.018C272.816 447.05 272.83 447.069 272.876 447.074L279.235 448.337C279.263 448.342 279.291 448.353 279.319 448.369C279.383 448.406 279.379 448.446 279.305 448.488L278.569 448.91ZM265.087 446.472C265.05 446.494 265.05 446.515 265.087 446.536L268.599 448.555C268.636 448.576 268.673 448.576 268.71 448.555L271.293 447.073C271.83 446.766 272.099 446.42 272.099 446.038C272.099 445.655 271.831 445.31 271.294 445.001C270.758 444.693 270.156 444.538 269.49 444.538C268.814 444.532 268.207 444.683 267.67 444.991L265.087 446.472ZM277.944 437.411C277.925 437.342 277.949 437.288 278.019 437.248L278.794 436.804C278.894 436.747 278.993 436.747 279.093 436.804L289.227 442.628C289.327 442.685 289.327 442.742 289.227 442.799L288.467 443.236C288.367 443.293 288.268 443.292 288.169 443.235L279.882 438.473C279.852 438.456 279.822 438.45 279.792 438.456C279.763 438.461 279.758 438.476 279.778 438.499L281.073 442.034C281.093 442.102 281.068 442.156 280.998 442.196L280.61 442.418C280.541 442.458 280.451 442.475 280.342 442.47L274.215 441.739C274.175 441.728 274.15 441.73 274.141 441.748C274.131 441.765 274.14 441.782 274.17 441.799L282.412 446.536C282.512 446.593 282.512 446.65 282.412 446.707L281.652 447.143C281.552 447.2 281.453 447.2 281.353 447.143L271.219 441.318C271.119 441.261 271.119 441.204 271.219 441.147L271.994 440.702C272.074 440.657 272.163 440.64 272.263 440.651L279.314 441.485C279.334 441.485 279.354 441.479 279.374 441.468C279.393 441.456 279.403 441.445 279.403 441.434L277.944 437.411ZM298.352 437.568C298.262 437.619 298.163 437.631 298.053 437.602L295.579 436.865C295.539 436.854 295.504 436.856 295.475 436.874L291.016 439.43C290.986 439.447 290.981 439.467 291.001 439.49L292.282 440.911C292.332 440.974 292.312 441.031 292.222 441.082L291.417 441.544C291.308 441.607 291.213 441.598 291.134 441.518L284.28 433.795C284.23 433.733 284.25 433.676 284.34 433.624L285.354 433.043C285.443 432.992 285.543 432.98 285.652 433.009L299.112 436.944L299.187 436.97C299.256 437.01 299.246 437.055 299.157 437.106L298.352 437.568ZM290.315 438.754C290.325 438.771 290.345 438.782 290.375 438.788C290.405 438.782 290.43 438.774 290.45 438.762L294.297 436.556C294.317 436.545 294.327 436.533 294.327 436.522C294.327 436.499 294.312 436.485 294.282 436.479L286.263 434.096C286.233 434.09 286.208 434.093 286.188 434.105C286.168 434.116 286.163 434.13 286.173 434.147L290.315 438.754ZM296.106 426.878C296.205 426.821 296.305 426.821 296.404 426.879L297.045 427.247C297.144 427.304 297.144 427.361 297.045 427.418L294.122 429.094C294.082 429.117 294.082 429.139 294.122 429.162L303.407 434.499C303.506 434.556 303.506 434.613 303.407 434.67L302.646 435.106C302.547 435.163 302.448 435.163 302.348 435.106L293.063 429.769C293.023 429.747 292.984 429.747 292.944 429.769L290.14 431.377C290.041 431.434 289.941 431.434 289.842 431.377L289.201 431.008C289.102 430.951 289.102 430.894 289.201 430.837L296.106 426.878ZM308.885 431.529C308.786 431.586 308.686 431.586 308.587 431.529L298.452 425.704C298.353 425.647 298.353 425.59 298.452 425.533L299.213 425.097C299.312 425.04 299.412 425.04 299.511 425.097L309.646 430.922C309.745 430.979 309.745 431.036 309.646 431.093L308.885 431.529ZM315.936 427.624C315.23 428.028 314.464 428.302 313.639 428.444C312.814 428.586 311.994 428.594 311.179 428.468C310.364 428.331 309.614 428.065 308.929 427.671L305.173 425.513C304.487 425.119 304.03 424.691 303.802 424.228C303.573 423.755 303.584 423.281 303.832 422.808C304.081 422.334 304.558 421.895 305.264 421.491C305.97 421.086 306.736 420.813 307.561 420.67C308.396 420.522 309.22 420.517 310.035 420.655C310.85 420.78 311.601 421.04 312.286 421.434L316.042 423.593C316.728 423.987 317.185 424.421 317.413 424.894C317.641 425.357 317.626 425.827 317.367 426.306C317.119 426.78 316.641 427.219 315.936 427.624ZM315.026 427.101C315.782 426.668 316.16 426.189 316.16 425.664C316.16 425.139 315.783 424.66 315.028 424.226L311.212 422.033C310.457 421.599 309.623 421.382 308.708 421.381C307.784 421.375 306.944 421.589 306.188 422.022C305.443 422.449 305.075 422.928 305.084 423.459C305.084 423.984 305.462 424.463 306.217 424.897L310.032 427.09C310.787 427.524 311.622 427.741 312.536 427.742C313.451 427.742 314.281 427.529 315.026 427.101ZM317.807 414.608C317.708 414.551 317.708 414.493 317.807 414.436L318.568 414C318.667 413.943 318.766 413.943 318.866 414.001L329 419.825C329.1 419.882 329.1 419.939 329 419.996L328.255 420.424C328.185 420.464 328.091 420.478 327.971 420.466L314.614 418.628C314.575 418.617 314.55 418.62 314.54 418.637C314.52 418.648 314.525 418.662 314.555 418.679L322.782 423.39C322.881 423.448 322.881 423.505 322.782 423.562L322.021 423.998C321.922 424.055 321.822 424.055 321.723 423.998L311.588 418.173C311.489 418.116 311.489 418.059 311.588 418.002L312.334 417.574C312.404 417.534 312.498 417.52 312.617 417.532L325.974 419.37C326.014 419.381 326.044 419.381 326.064 419.37C326.074 419.353 326.064 419.336 326.034 419.319L317.807 414.608Z" fill="white"/>
<path d="M259.741 470.961C259.722 470.897 259.746 470.847 259.81 470.809L260.533 470.395C260.625 470.342 260.718 470.342 260.81 470.395L270.25 475.82C270.342 475.874 270.342 475.927 270.25 475.98L269.541 476.386C269.449 476.439 269.356 476.439 269.264 476.386L261.546 471.95C261.518 471.934 261.49 471.929 261.462 471.934C261.434 471.939 261.43 471.953 261.448 471.974L262.655 475.266C262.673 475.33 262.65 475.381 262.585 475.418L262.224 475.625C262.159 475.662 262.076 475.678 261.974 475.673L256.267 474.992C256.23 474.981 256.207 474.984 256.198 475C256.189 475.016 256.198 475.032 256.226 475.048L263.902 479.46C263.995 479.513 263.995 479.566 263.902 479.619L263.194 480.025C263.101 480.078 263.009 480.078 262.916 480.025L253.477 474.6C253.384 474.547 253.384 474.494 253.477 474.441L254.199 474.027C254.273 473.984 254.356 473.968 254.449 473.979L261.016 474.755C261.035 474.755 261.053 474.75 261.072 474.74C261.09 474.729 261.1 474.718 261.1 474.708L259.741 470.961ZM276.095 472.756C275.438 473.133 274.725 473.388 273.956 473.52C273.188 473.652 272.424 473.66 271.665 473.543C270.906 473.415 270.207 473.167 269.569 472.8L266.071 470.79C265.432 470.423 265.006 470.024 264.794 469.594C264.581 469.152 264.591 468.711 264.822 468.271C265.054 467.83 265.498 467.421 266.156 467.044C266.813 466.667 267.526 466.412 268.295 466.28C269.072 466.142 269.841 466.137 270.6 466.265C271.359 466.382 272.058 466.624 272.696 466.991L276.194 469.002C276.833 469.369 277.258 469.773 277.471 470.214C277.684 470.644 277.67 471.083 277.429 471.529C277.197 471.97 276.753 472.379 276.095 472.756ZM275.248 472.269C275.952 471.866 276.304 471.42 276.304 470.931C276.305 470.442 275.953 469.995 275.25 469.591L271.696 467.549C270.993 467.145 270.215 466.942 269.364 466.942C268.503 466.936 267.72 467.135 267.017 467.538C266.322 467.937 265.979 468.383 265.988 468.877C265.988 469.366 266.34 469.812 267.043 470.217L270.597 472.259C271.3 472.663 272.077 472.865 272.929 472.866C273.781 472.866 274.554 472.667 275.248 472.269ZM281.763 469.379C281.671 469.432 281.578 469.432 281.485 469.379L272.046 463.954C271.953 463.9 271.954 463.847 272.046 463.794L275.324 461.915C276.241 461.389 277.208 461.111 278.227 461.079C279.254 461.043 280.18 461.261 281.003 461.734L285.362 464.239C286.186 464.713 286.565 465.244 286.5 465.834C286.444 466.419 285.958 466.974 285.041 467.499L281.763 469.379ZM281.694 468.366C281.731 468.388 281.768 468.388 281.805 468.366L284.222 466.981C284.824 466.636 285.125 466.261 285.125 465.857C285.135 465.448 284.843 465.073 284.251 464.733L280.156 462.38C279.555 462.034 278.902 461.861 278.198 461.861C277.495 461.86 276.838 462.035 276.226 462.386L273.81 463.771C273.773 463.792 273.773 463.814 273.81 463.835L281.694 468.366ZM287.507 455.758C287.6 455.812 287.6 455.865 287.507 455.918L282.396 458.848C282.359 458.87 282.359 458.891 282.396 458.912L285.824 460.883C285.861 460.904 285.899 460.904 285.936 460.883L289.519 458.828C289.612 458.775 289.704 458.775 289.797 458.828L290.38 459.163C290.472 459.217 290.472 459.27 290.38 459.323L286.796 461.377C286.759 461.399 286.759 461.42 286.796 461.441L290.28 463.444C290.317 463.465 290.354 463.465 290.392 463.444L295.503 460.513C295.596 460.46 295.688 460.46 295.781 460.513L296.364 460.848C296.456 460.902 296.456 460.955 296.364 461.008L290.349 464.456C290.257 464.509 290.164 464.509 290.072 464.456L280.632 459.031C280.54 458.978 280.54 458.925 280.632 458.871L286.647 455.423C286.739 455.37 286.832 455.37 286.924 455.423L287.507 455.758ZM298.759 459.634C298.667 459.687 298.574 459.687 298.481 459.634L289.042 454.209C288.949 454.156 288.949 454.103 289.042 454.05L289.75 453.644C289.843 453.591 289.936 453.591 290.028 453.644L298.69 458.622C298.727 458.643 298.764 458.643 298.801 458.622L303.704 455.811C303.797 455.758 303.89 455.758 303.982 455.811L304.565 456.146C304.658 456.199 304.658 456.253 304.565 456.306L298.759 459.634ZM306.654 455.108C306.561 455.161 306.468 455.161 306.376 455.108L296.936 449.683C296.844 449.63 296.844 449.577 296.936 449.524L297.645 449.118C297.737 449.064 297.83 449.065 297.923 449.118L307.362 454.543C307.455 454.596 307.455 454.649 307.362 454.702L306.654 455.108ZM306.323 444.301C306.23 444.248 306.23 444.195 306.323 444.142L307.031 443.736C307.124 443.683 307.217 443.683 307.309 443.736L316.749 449.161C316.841 449.214 316.841 449.267 316.748 449.32L316.054 449.719C315.989 449.756 315.901 449.769 315.79 449.758L303.349 448.046C303.312 448.036 303.289 448.038 303.28 448.054C303.262 448.065 303.266 448.078 303.294 448.094L310.957 452.482C311.049 452.535 311.049 452.588 310.956 452.641L310.248 453.047C310.155 453.1 310.063 453.1 309.97 453.047L300.531 447.622C300.438 447.569 300.438 447.516 300.531 447.463L301.225 447.065C301.29 447.028 301.378 447.014 301.489 447.025L313.93 448.737C313.967 448.748 313.995 448.748 314.013 448.737C314.023 448.721 314.013 448.705 313.986 448.689L306.323 444.301ZM322.565 446.113C321.917 446.485 321.223 446.739 320.482 446.877C319.732 447.01 318.987 447.023 318.246 446.916C317.515 446.804 316.849 446.575 316.247 446.229L312.416 444.027C311.814 443.682 311.416 443.299 311.222 442.879C311.037 442.454 311.065 442.029 311.306 441.604C311.538 441.173 311.978 440.773 312.626 440.401C313.265 440.035 313.955 439.783 314.695 439.645C315.445 439.502 316.181 439.483 316.903 439.59C317.616 439.691 318.255 439.904 318.819 440.229L319 440.332C319.092 440.386 319.092 440.439 318.999 440.492L318.291 440.898C318.199 440.951 318.106 440.951 318.013 440.898L317.847 440.802C317.227 440.446 316.514 440.275 315.709 440.291C314.913 440.301 314.172 440.503 313.487 440.896C312.801 441.288 312.449 441.719 312.431 442.186C312.412 442.654 312.726 443.074 313.374 443.446L317.261 445.68C317.909 446.052 318.645 446.231 319.469 446.215C320.293 446.2 321.052 445.993 321.746 445.595C322.422 445.207 322.774 444.793 322.802 444.352C322.839 443.905 322.548 443.504 321.928 443.148L320.665 442.422C320.628 442.4 320.591 442.4 320.554 442.422L318.512 443.592C318.419 443.645 318.327 443.645 318.234 443.592L317.651 443.257C317.559 443.204 317.559 443.151 317.651 443.098L320.596 441.409C320.688 441.356 320.781 441.356 320.874 441.409L322.664 442.439C323.655 443.008 324.131 443.622 324.094 444.281C324.065 444.934 323.556 445.545 322.565 446.113Z" fill="white"/>
<path d="M387.008 375.641C386.97 375.663 386.934 375.672 386.902 375.668C386.87 375.657 386.848 375.637 386.835 375.607L385.631 372.589C385.624 372.571 385.605 372.56 385.573 372.556L380.317 371.861C380.278 371.854 380.252 371.847 380.24 371.839C380.201 371.817 380.207 371.791 380.259 371.762L380.799 371.452C380.844 371.426 380.905 371.417 380.982 371.424L385.448 372.019C385.461 372.019 385.473 372.015 385.486 372.008C385.499 372.001 385.506 371.993 385.506 371.986L384.465 369.428C384.452 369.383 384.469 369.348 384.514 369.322L385.044 369.018C385.083 368.996 385.118 368.991 385.15 369.002C385.182 369.005 385.205 369.022 385.218 369.052L386.441 372.07C386.454 372.084 386.473 372.095 386.499 372.103L391.736 372.798C391.774 372.805 391.8 372.812 391.813 372.82C391.851 372.842 391.845 372.868 391.794 372.897L391.263 373.201C391.218 373.227 391.157 373.236 391.08 373.229L386.634 372.634C386.614 372.631 386.598 372.632 386.585 372.64C386.573 372.647 386.569 372.656 386.576 372.667L387.597 375.226C387.61 375.27 387.594 375.305 387.549 375.331L387.008 375.641ZM390.89 369.098C390.825 369.135 390.761 369.135 390.697 369.098L390.292 368.866C390.227 368.829 390.227 368.792 390.292 368.755L394.17 366.531C394.234 366.494 394.299 366.494 394.363 366.531L394.768 366.764C394.832 366.801 394.832 366.838 394.768 366.875L390.89 369.098ZM392.905 370.257C392.84 370.293 392.776 370.293 392.712 370.256L392.307 370.024C392.243 369.987 392.243 369.95 392.307 369.913L396.185 367.689C396.25 367.653 396.314 367.653 396.378 367.69L396.783 367.922C396.847 367.959 396.847 367.996 396.783 368.033L392.905 370.257ZM401.753 366.446C401.766 366.475 401.788 366.481 401.82 366.462L404.85 364.725C404.914 364.688 404.978 364.689 405.043 364.725L405.448 364.958C405.512 364.995 405.512 365.032 405.448 365.069L401.598 367.276C401.534 367.313 401.469 367.313 401.405 367.276L401 367.043C400.955 367.017 400.933 366.986 400.933 366.949C400.894 366.676 400.782 366.046 400.596 365.061L400.423 364.142C400.263 363.355 399.97 362.84 399.546 362.597C399.205 362.401 398.817 362.31 398.379 362.325C397.942 362.339 397.537 362.453 397.164 362.667C396.797 362.878 396.607 363.108 396.594 363.359C396.575 363.606 396.739 363.826 397.086 364.018L397.385 364.19C397.449 364.227 397.449 364.264 397.385 364.301L396.883 364.588C396.819 364.625 396.755 364.625 396.69 364.588L396.305 364.367C395.823 364.075 395.607 363.741 395.659 363.364C395.717 362.984 396.019 362.637 396.566 362.324C396.952 362.103 397.367 361.95 397.81 361.865C398.254 361.78 398.688 361.768 399.113 361.827C399.53 361.882 399.903 362.004 400.231 362.193C400.778 362.507 401.134 363.059 401.301 363.849C401.391 364.262 401.529 365.039 401.714 366.18L401.753 366.446ZM407.544 360.48C407.885 360.609 408.203 360.759 408.499 360.929C408.814 361.11 409.055 361.281 409.222 361.444C409.524 361.743 409.633 362.057 409.549 362.385C409.459 362.71 409.182 363.005 408.719 363.271C408.263 363.532 407.758 363.689 407.205 363.74C406.652 363.792 406.125 363.74 405.623 363.585C405.437 363.529 405.266 363.464 405.112 363.39L405.093 363.379C405.041 363.35 405.045 363.318 405.103 363.285L405.614 362.992C405.678 362.955 405.746 362.953 405.816 362.987C405.855 363.009 405.932 363.038 406.048 363.075C406.389 363.197 406.742 363.249 407.109 363.231C407.475 363.205 407.81 363.106 408.112 362.933C408.421 362.756 408.591 362.558 408.623 362.34C408.662 362.119 408.563 361.903 408.325 361.692C408.215 361.585 408.042 361.464 407.804 361.327C407.586 361.201 407.361 361.09 407.129 360.994C406.788 360.85 406.435 360.795 406.068 360.828C405.702 360.861 405.361 360.968 405.046 361.148C404.763 361.31 404.573 361.493 404.476 361.696C404.38 361.899 404.406 362.08 404.553 362.239C404.592 362.283 404.585 362.32 404.534 362.349L404.013 362.648C403.949 362.685 403.884 362.685 403.82 362.648L400.089 360.503C400.024 360.466 400.024 360.43 400.089 360.393L403.465 358.457C403.53 358.42 403.594 358.42 403.658 358.457L404.063 358.69C404.128 358.727 404.128 358.763 404.063 358.8L401.314 360.377C401.288 360.391 401.288 360.406 401.314 360.421L403.637 361.768C403.65 361.775 403.663 361.779 403.676 361.779C403.695 361.775 403.705 361.766 403.705 361.751C403.718 361.574 403.795 361.4 403.937 361.231C404.072 361.057 404.261 360.901 404.506 360.76C404.963 360.499 405.461 360.342 406.001 360.291C406.535 360.235 407.049 360.299 407.544 360.48Z" fill="#79F564"/>
<path d="M437.815 212.105V211.081L444.101 201.697H437.747V200.445H445.786V201.469L439.5 210.853H445.855V212.105H437.815ZM448.588 205.205V203.975H455.602V205.205H448.588ZM448.588 208.575V207.345H455.602V208.575H448.588ZM466.741 212.265C466.073 212.265 465.471 212.132 464.936 211.866C464.401 211.601 463.972 211.236 463.649 210.773C463.327 210.31 463.15 209.782 463.12 209.19H464.486C464.539 209.718 464.778 210.154 465.204 210.5C465.633 210.841 466.145 211.012 466.741 211.012C467.219 211.012 467.644 210.9 468.016 210.676C468.392 210.452 468.686 210.145 468.899 209.754C469.115 209.359 469.223 208.913 469.223 208.416C469.223 207.907 469.111 207.454 468.887 207.055C468.667 206.653 468.364 206.336 467.976 206.104C467.589 205.873 467.147 205.755 466.65 205.751C466.293 205.747 465.927 205.802 465.551 205.916C465.175 206.026 464.866 206.169 464.623 206.343L463.302 206.184L464.008 200.445H470.066V201.697H465.192L464.782 205.136H464.851C465.09 204.946 465.39 204.789 465.75 204.664C466.111 204.538 466.487 204.476 466.878 204.476C467.591 204.476 468.227 204.647 468.785 204.988C469.347 205.326 469.787 205.789 470.106 206.377C470.429 206.966 470.59 207.638 470.59 208.393C470.59 209.137 470.423 209.801 470.089 210.386C469.759 210.967 469.303 211.426 468.722 211.764C468.142 212.098 467.481 212.265 466.741 212.265ZM476.655 212.265C475.797 212.265 475.067 212.031 474.463 211.565C473.86 211.094 473.398 210.413 473.08 209.52C472.761 208.625 472.601 207.543 472.601 206.275C472.601 205.015 472.761 203.939 473.08 203.047C473.402 202.151 473.865 201.468 474.469 200.997C475.076 200.522 475.805 200.285 476.655 200.285C477.506 200.285 478.232 200.522 478.836 200.997C479.443 201.468 479.906 202.151 480.225 203.047C480.548 203.939 480.709 205.015 480.709 206.275C480.709 207.543 480.55 208.625 480.231 209.52C479.912 210.413 479.451 211.094 478.847 211.565C478.244 212.031 477.513 212.265 476.655 212.265ZM476.655 211.012C477.506 211.012 478.166 210.602 478.637 209.782C479.107 208.962 479.343 207.793 479.343 206.275C479.343 205.265 479.235 204.406 479.018 203.696C478.806 202.986 478.498 202.445 478.096 202.073C477.697 201.701 477.217 201.515 476.655 201.515C475.813 201.515 475.154 201.931 474.679 202.762C474.205 203.589 473.968 204.76 473.968 206.275C473.968 207.285 474.074 208.143 474.287 208.849C474.499 209.555 474.805 210.092 475.203 210.46C475.606 210.828 476.09 211.012 476.655 211.012Z" fill="#363636"/>
<defs>
<linearGradient id="paint0_linear_525_2716" x1="449.028" y1="322.085" x2="256.442" y2="425.977" gradientUnits="userSpaceOnUse">
<stop stop-color="white"/>
<stop offset="0.05" stop-color="white" stop-opacity="0.9"/>
<stop offset="0.15" stop-color="white" stop-opacity="0.69"/>
<stop offset="0.26" stop-color="white" stop-opacity="0.51"/>
<stop offset="0.37" stop-color="white" stop-opacity="0.35"/>
<stop offset="0.48" stop-color="white" stop-opacity="0.22"/>
<stop offset="0.6" stop-color="white" stop-opacity="0.12"/>
<stop offset="0.72" stop-color="white" stop-opacity="0.05"/>
<stop offset="0.85" stop-color="white" stop-opacity="0.01"/>
<stop offset="1" stop-color="white" stop-opacity="0"/>
</linearGradient>
<linearGradient id="paint1_linear_525_2716" x1="185.398" y1="390.711" x2="50.0469" y2="459.064" gradientUnits="userSpaceOnUse">
<stop stop-color="white"/>
<stop offset="0.05" stop-color="white" stop-opacity="0.9"/>
<stop offset="0.15" stop-color="white" stop-opacity="0.69"/>
<stop offset="0.26" stop-color="white" stop-opacity="0.51"/>
<stop offset="0.37" stop-color="white" stop-opacity="0.35"/>
<stop offset="0.48" stop-color="white" stop-opacity="0.22"/>
<stop offset="0.6" stop-color="white" stop-opacity="0.12"/>
<stop offset="0.72" stop-color="white" stop-opacity="0.05"/>
<stop offset="0.85" stop-color="white" stop-opacity="0.01"/>
<stop offset="1" stop-color="white" stop-opacity="0"/>
</linearGradient>
</defs>
</svg>
