<svg width="161" height="150" viewBox="0 0 161 150" fill="none" xmlns="http://www.w3.org/2000/svg">
<path d="M35.6312 10.987C34.9815 10.9878 34.3464 11.1797 33.805 11.5389L32.0591 12.6928L3.46179 31.7577C3.01623 32.0575 2.65134 32.4624 2.39934 32.9366C2.14734 33.4109 2.01599 33.9399 2.01687 34.4769V115.412C2.01752 115.967 2.1598 116.513 2.4302 116.997C2.70061 117.482 3.09024 117.89 3.56217 118.182L33.805 138.421C34.3434 138.777 34.9755 138.966 35.6212 138.962C35.9611 138.971 36.3001 138.923 36.6246 138.822H36.715L61.7301 132.571L64.4694 131.888L68.1118 130.975L60.3554 126.199L52.8197 128.085L50.0704 128.768L37.1364 131.999L36.2734 132.209L35.541 131.718L9.45221 114.339L8.55915 113.747V36.273L9.45221 35.671L35.541 18.2918L36.2734 17.8002L37.1364 18.0209L44.1603 19.7669L46.8996 20.4492L54.9269 22.456L62.7536 17.6998L58.5392 16.6462L55.7597 16.004L36.4641 11.1275C36.2089 11.059 35.9456 11.0252 35.6814 11.0271M35.6814 9.02029C36.1113 9.01986 36.5395 9.0738 36.9558 9.18083L56.2514 13.9972L58.9908 14.6795L67.891 16.9071L55.248 24.6033L46.3577 22.3757L43.6184 21.6934L36.5945 19.9475L10.5058 37.3266V112.583L36.5945 129.962L49.5085 126.781L52.2578 126.099L60.6062 124.002L73.1489 131.718L64.8808 133.795L62.1415 134.477L37.1665 140.728C36.6649 140.877 36.1443 140.951 35.6212 140.949C34.5832 140.952 33.5676 140.648 32.7013 140.076L2.43835 119.898C1.69148 119.421 1.07659 118.764 0.650468 117.987C0.224343 117.21 0.000642488 116.338 0 115.452V34.517C0.000835799 33.6495 0.215571 32.7955 0.625113 32.0306C1.03465 31.2658 1.6264 30.6137 2.34802 30.1321L32.7013 9.90329C33.5677 9.32142 34.5876 9.01055 35.6312 9.01025L35.6814 9.02029ZM61.1983 123.871L60.6464 124.002L61.2384 123.891L61.1983 123.871ZM73.8212 131.567L73.6506 132.009L73.189 131.718L73.8212 131.567Z" fill="#231F20"/>
<path d="M156.994 34.9984L139.936 24.5729L127.303 16.8767L102.449 1.72518C100.614 0.597178 98.502 0 96.3481 0C94.1941 0 92.0823 0.597178 90.2473 1.72518L35.6616 34.9984C34.5977 35.6494 33.7182 36.5621 33.1069 37.6493C32.4957 38.7366 32.173 39.9622 32.1697 41.2095V105.518C32.1736 107.531 32.692 109.509 33.6754 111.266C34.6588 113.022 36.0748 114.497 37.7888 115.552L92.5552 148.926C93.6957 149.628 95.0087 150 96.3481 150C97.6874 150 99.0005 149.628 100.141 148.926L121.373 135.992L133.996 128.296L154.867 115.532C156.581 114.477 157.997 113.002 158.981 111.245C159.964 109.489 160.482 107.511 160.486 105.498V41.2095C160.483 39.9622 160.16 38.7366 159.549 37.6493C158.938 36.5621 158.058 35.6494 156.994 34.9984ZM153.984 105.518C153.98 106.408 153.75 107.282 153.314 108.058C152.879 108.834 152.253 109.486 151.496 109.953L125.086 126.008L112.463 133.704L96.338 143.528L41.1502 109.913C40.3929 109.446 39.7671 108.794 39.3317 108.018C38.8963 107.242 38.6657 106.368 38.6618 105.478V40.7881L93.6589 7.30416C94.4709 6.80546 95.4052 6.54147 96.3581 6.54147C97.311 6.54147 98.2453 6.80546 99.0573 7.30416L118.413 19.1043L131.056 26.8005L153.954 40.7881L153.984 105.518Z" fill="#231F20"/>
<path d="M65.9343 93.3172L35.3101 74.6537V38.8018L65.9343 57.4653V93.3172ZM38.3203 72.968L62.924 87.959V59.151L38.3203 44.17V72.968Z" fill="#231F20"/>
<path d="M96.3881 147.541L65.7639 128.878V93.0259L96.3881 111.689V147.541ZM68.7742 127.182L93.3778 142.183V113.335L68.7742 98.3841V127.182Z" fill="#231F20"/>
<path d="M96.3078 39.0823L65.6936 20.4188L91.1301 4.91602C92.6885 3.96163 94.4804 3.45654 96.3078 3.45654C98.1352 3.45654 99.927 3.96163 101.485 4.91602L126.922 20.4188L96.3078 39.0823ZM71.4733 20.4188L96.3078 35.5603L121.142 20.4188L99.92 7.4647C98.8341 6.79522 97.5835 6.4407 96.3078 6.4407C95.0321 6.4407 93.7814 6.79522 92.6955 7.4647L71.4733 20.4188Z" fill="#231F20"/>
<path d="M96.3078 76.2086L65.6936 57.5451L96.3078 38.8916L126.922 57.5451L96.3078 76.2086ZM71.4733 57.5451L96.3078 72.6766L121.142 57.5451L96.3078 42.3835L71.4733 57.5451Z" fill="#231F20"/>
<path d="M96.2275 111.88V76.0278L126.852 57.3643V93.2664L96.2275 111.88ZM99.2378 77.7637V106.562L123.842 91.5706V62.7325L99.2378 77.7637Z" fill="#231F20"/>
<path d="M126.681 128.998V93.1464L157.305 74.4829V104.736C157.299 106.443 156.857 108.121 156.021 109.61C155.185 111.099 153.983 112.35 152.529 113.245L126.681 128.998ZM129.691 94.8321V123.64L150.964 110.676C151.977 110.05 152.815 109.176 153.398 108.137C153.98 107.098 154.289 105.927 154.295 104.736V79.8411L129.691 94.8321Z" fill="#231F20"/>
<path d="M126.681 93.3172V57.4653L157.305 38.8018V74.6537L126.681 93.3172ZM129.691 59.2012V87.9991L154.295 73.0081V44.17L129.691 59.2012Z" fill="#231F20"/>
<path d="M96.2275 147.541V111.689L126.852 93.0259V128.878L96.2275 147.541ZM99.2378 113.425V142.223L123.842 127.222V98.3841L99.2378 113.425Z" fill="#231F20"/>
<path d="M126.771 57.6158L96.1572 38.9523L126.771 20.2988L157.376 38.9523L126.771 57.6158ZM101.937 38.9523L126.771 54.134L151.606 39.0025L126.771 23.8208L101.937 38.9523Z" fill="#231F20"/>
<path d="M65.8541 57.6158L35.24 38.9523L65.8541 20.2988L96.4683 38.9523L65.8541 57.6158ZM41.0196 38.9523L65.8541 54.134L90.6485 38.9523L65.8541 23.8208L41.0196 38.9523Z" fill="#231F20"/>
<path d="M96.3881 111.88L65.7639 93.2664V57.3643L96.3881 76.0278V111.88ZM68.7742 91.5305L93.3778 106.522V77.7235L68.7742 62.7325V91.5305Z" fill="#231F20"/>
<path d="M65.9343 128.998L40.0863 113.245C38.632 112.35 37.43 111.099 36.5942 109.61C35.7584 108.121 35.3164 106.443 35.3101 104.736V74.4829L65.9343 93.1464V128.998ZM38.3203 79.8311V104.726C38.3262 105.917 38.6351 107.088 39.2179 108.127C39.8007 109.166 40.6381 110.04 41.6516 110.666L62.924 123.63V94.8321L38.3203 79.8311Z" fill="#231F20"/>
</svg>
