<svg width="141" height="150" viewBox="0 0 141 150" fill="none" xmlns="http://www.w3.org/2000/svg">
<path d="M66.6092 141.037L57.3563 138.723V9.25285H30.4653V131.784L21.2124 129.47V4.79991C21.2124 3.5269 21.7181 2.30602 22.6183 1.40586C23.5184 0.5057 24.7393 0 26.0123 0H61.8093C63.0823 0 64.3032 0.5057 65.2033 1.40586C66.1035 2.30602 66.6092 3.5269 66.6092 4.79991V141.037Z" fill="#231F20"/>
<path d="M59.0255 61.0416L22.8728 91.0454L28.782 98.1656L64.9346 68.1617L59.0255 61.0416Z" fill="#231F20"/>
<path d="M28.7773 31.0751L22.8682 38.1953L59.0208 68.1992L64.93 61.079L28.7773 31.0751Z" fill="#231F20"/>
<path d="M59.0299 1.05474L22.8772 31.0586L28.7864 38.1788L64.939 8.17491L59.0299 1.05474Z" fill="#231F20"/>
<path d="M28.7747 90.8012L22.8655 97.9214L59.0181 127.925L64.9273 120.805L28.7747 90.8012Z" fill="#231F20"/>
<path d="M134.803 50.3469C135.799 50.35 136.753 50.747 137.457 51.4513C138.162 52.1555 138.559 53.1099 138.562 54.1059V120.599C138.561 121.238 138.398 121.865 138.089 122.424C137.779 122.982 137.333 123.453 136.792 123.791L101.909 147.051C101.293 147.465 100.569 147.686 99.827 147.687C99.4346 147.693 99.0439 147.634 98.6704 147.513H98.5547L5.57518 124.266C4.76186 124.064 4.0396 123.595 3.52383 122.935C3.00807 122.274 2.72853 121.46 2.7299 120.622V54.1059C2.73135 53.6058 2.83229 53.111 3.02678 52.6503C3.22128 52.1896 3.50547 51.7722 3.86282 51.4224C4.22018 51.0726 4.64353 50.7973 5.10827 50.6127C5.57301 50.428 6.06985 50.3377 6.56984 50.3469H134.837M99.0983 139.868L99.9427 139.301L130.014 119.269L131.044 118.587V57.8764H10.2941V117.673L12.0521 118.101L98.1152 139.625L99.1099 139.868M134.803 48.0337H6.56984C4.95833 48.0337 3.41266 48.6731 2.27207 49.8115C1.13148 50.9499 0.489148 52.4944 0.486084 54.1059V120.599C0.488416 121.956 0.945337 123.274 1.78391 124.341C2.62249 125.408 3.79438 126.163 5.11251 126.486L98.0805 149.734C98.6619 149.91 99.2659 149.999 99.8733 150C101.072 149.998 102.244 149.64 103.239 148.971L138.122 125.723C138.982 125.173 139.689 124.415 140.178 123.52C140.667 122.624 140.923 121.62 140.921 120.599V54.1059C140.921 52.4954 140.281 50.9509 139.143 49.8122C138.004 48.6734 136.459 48.0337 134.849 48.0337H134.803ZM98.6704 137.382L12.6073 115.857V60.1896H128.719V117.349L98.6472 137.382H98.6704Z" fill="#231F20"/>
<path d="M110.433 39.8106H61.9597V30.5577H110.433C112.545 30.5577 114.57 29.7197 116.064 28.2278C117.558 26.7358 118.399 24.7118 118.402 22.6003C118.402 20.4868 117.562 18.4598 116.068 16.9653C114.574 15.4709 112.547 14.6313 110.433 14.6313H61.9828V5.37842H110.433C115.001 5.37842 119.381 7.19286 122.611 10.4226C125.84 13.6523 127.655 18.0328 127.655 22.6003C127.652 27.1658 125.836 31.5433 122.607 34.7705C119.377 37.9977 114.999 39.8106 110.433 39.8106Z" fill="#231F20"/>
<path d="M110.456 39.1973H93.9858V49.9306H110.456V39.1973Z" fill="#231F20"/>
<path d="M107.102 42.4126H97.3518V53.1459H107.102V42.4126Z" fill="#231F20"/>
<path d="M103.956 51.458H100.486V68.7377H103.956V51.458Z" fill="#231F20"/>
<path d="M110.664 81.5758C110.168 83.141 109.248 84.5382 108.006 85.612C106.764 86.6859 105.249 87.3945 103.628 87.6591C102.008 87.9237 100.345 87.7339 98.8262 87.1109C97.307 86.4879 95.9903 85.456 95.0222 84.1298C94.0541 82.8036 93.4725 81.235 93.342 79.5983C93.2115 77.9615 93.5373 76.3206 94.2831 74.8578C95.0289 73.395 96.1655 72.1675 97.5668 71.3117C98.9681 70.4559 100.579 70.0052 102.221 70.0097C102.804 70.009 103.385 70.0671 103.956 70.1832V66.7134C101.58 66.3747 99.1558 66.7359 96.9813 67.7527C94.8067 68.7694 92.9755 70.3978 91.7116 72.4387C90.4477 74.4795 89.8059 76.8445 89.8645 79.2443C89.9232 81.6441 90.6798 83.9748 92.042 85.9515C93.4041 87.9282 95.3126 89.4651 97.5343 90.3744C99.7559 91.2838 102.194 91.526 104.551 91.0717C106.909 90.6173 109.082 89.4859 110.807 87.8159C112.531 86.1459 113.732 84.0097 114.261 81.6683L110.664 81.5758Z" fill="#231F20"/>
</svg>
