<svg width="162" height="150" viewBox="0 0 162 150" fill="none" xmlns="http://www.w3.org/2000/svg">
<path d="M36.5526 10.987C35.9029 10.9878 35.2678 11.1797 34.7264 11.5389L32.9805 12.6928L4.38318 31.7577C3.93762 32.0575 3.57272 32.4624 3.32072 32.9366C3.06873 33.4109 2.93738 33.9399 2.93826 34.4769V115.412C2.9389 115.967 3.08118 116.513 3.35159 116.997C3.622 117.482 4.01162 117.89 4.48356 118.182L34.7264 138.421C35.2648 138.777 35.8969 138.966 36.5426 138.962C36.8825 138.971 37.2215 138.923 37.546 138.822H37.6363L62.6514 132.571L65.3907 131.888L69.0331 130.975L61.2768 126.199L53.7411 128.085L50.9918 128.768L38.0578 131.999L37.1948 132.209L36.4624 131.718L10.3736 114.339L9.48054 113.747V36.273L10.3736 35.671L36.4624 18.2918L37.1948 17.8002L38.0578 18.0209L45.0817 19.7669L47.821 20.4492L55.8483 22.456L63.6749 17.6998L59.4606 16.6462L56.6811 16.004L37.3855 11.1275C37.1303 11.059 36.867 11.0252 36.6028 11.0271M36.6028 9.02029C37.0326 9.01986 37.4608 9.0738 37.8771 9.18083L57.1728 13.9972L59.9121 14.6795L68.8124 16.9071L56.1694 24.6033L47.2791 22.3757L44.5398 21.6934L37.5159 19.9475L11.4272 37.3266V112.583L37.5159 129.962L50.4299 126.781L53.1792 126.099L61.5276 124.002L74.0703 131.718L65.8022 133.795L63.0629 134.477L38.0879 140.728C37.5863 140.877 37.0657 140.951 36.5426 140.949C35.5046 140.952 34.489 140.648 33.6227 140.076L3.35974 119.898C2.61287 119.421 1.99798 118.764 1.57185 117.987C1.14573 117.21 0.922029 116.338 0.921387 115.452V34.517C0.922223 33.6495 1.13696 32.7955 1.5465 32.0306C1.95604 31.2658 2.54779 30.6137 3.2694 30.1321L33.6227 9.90329C34.4891 9.32142 35.509 9.01055 36.5526 9.01025L36.6028 9.02029ZM62.1197 123.871L61.5677 124.002L62.1598 123.891L62.1197 123.871ZM74.7426 131.567L74.572 132.009L74.1104 131.718L74.7426 131.567Z" fill="#231F20"/>
<path d="M157.916 34.9984L140.858 24.5729L128.225 16.8767L103.37 1.72518C101.535 0.597178 99.4234 0 97.2695 0C95.1155 0 93.0037 0.597178 91.1687 1.72518L36.583 34.9984C35.5191 35.6494 34.6396 36.5621 34.0283 37.6493C33.4171 38.7366 33.0944 39.9622 33.0911 41.2095V105.518C33.095 107.531 33.6134 109.509 34.5968 111.266C35.5802 113.022 36.9962 114.497 38.7102 115.552L93.4766 148.926C94.6171 149.628 95.9301 150 97.2695 150C98.6088 150 99.9219 149.628 101.062 148.926L122.295 135.992L134.918 128.296L155.789 115.532C157.503 114.477 158.919 113.002 159.902 111.245C160.885 109.489 161.404 107.511 161.408 105.498V41.2095C161.404 39.9622 161.082 38.7366 160.47 37.6493C159.859 36.5621 158.98 35.6494 157.916 34.9984ZM154.906 105.518C154.902 106.408 154.671 107.282 154.236 108.058C153.8 108.834 153.174 109.486 152.417 109.953L126.007 126.008L113.384 133.704L97.2594 143.528L42.0716 109.913C41.3143 109.446 40.6885 108.794 40.2531 108.018C39.8177 107.242 39.5871 106.368 39.5832 105.478V40.7881L94.5803 7.30416C95.3923 6.80546 96.3266 6.54147 97.2795 6.54147C98.2324 6.54147 99.1667 6.80546 99.9787 7.30416L119.335 19.1043L131.978 26.8005L154.875 40.7881L154.906 105.518Z" fill="#231F20"/>
<path d="M66.8557 93.3172L36.2314 74.6537V38.8018L66.8557 57.4653V93.3172ZM39.2417 72.968L63.8454 87.959V59.151L39.2417 44.17V72.968Z" fill="#231F20"/>
<path d="M97.3095 147.541L66.6853 128.878V93.0259L97.3095 111.689V147.541ZM69.6955 127.182L94.2992 142.183V113.335L69.6955 98.3841V127.182Z" fill="#231F20"/>
<path d="M97.2292 39.0823L66.615 20.4188L92.0515 4.91602C93.6099 3.96163 95.4018 3.45654 97.2292 3.45654C99.0566 3.45654 100.848 3.96163 102.407 4.91602L127.843 20.4188L97.2292 39.0823ZM72.3947 20.4188L97.2292 35.5603L122.064 20.4188L100.841 7.4647C99.7555 6.79522 98.5049 6.4407 97.2292 6.4407C95.9534 6.4407 94.7028 6.79522 93.6168 7.4647L72.3947 20.4188Z" fill="#231F20"/>
<path d="M97.2292 76.2086L66.615 57.5451L97.2292 38.8916L127.843 57.5451L97.2292 76.2086ZM72.3947 57.5451L97.2292 72.6766L122.064 57.5451L97.2292 42.3835L72.3947 57.5451Z" fill="#231F20"/>
<path d="M97.1489 111.88V76.0278L127.773 57.3643V93.2664L97.1489 111.88ZM100.159 77.7637V106.562L124.763 91.5706V62.7325L100.159 77.7637Z" fill="#231F20"/>
<path d="M127.603 128.998V93.1464L158.227 74.4829V104.736C158.22 106.443 157.778 108.121 156.943 109.61C156.107 111.099 154.905 112.35 153.45 113.245L127.603 128.998ZM130.613 94.8321V123.64L151.885 110.676C152.899 110.05 153.736 109.176 154.319 108.137C154.902 107.098 155.211 105.927 155.217 104.736V79.8411L130.613 94.8321Z" fill="#231F20"/>
<path d="M127.603 93.3172V57.4653L158.227 38.8018V74.6537L127.603 93.3172ZM130.613 59.2012V87.9991L155.217 73.0081V44.17L130.613 59.2012Z" fill="#231F20"/>
<path d="M97.1489 147.541V111.689L127.773 93.0259V128.878L97.1489 147.541ZM100.159 113.425V142.223L124.763 127.222V98.3841L100.159 113.425Z" fill="#231F20"/>
<path d="M127.693 57.6158L97.0786 38.9523L127.693 20.2988L158.297 38.9523L127.693 57.6158ZM102.858 38.9523L127.693 54.134L152.527 39.0025L127.693 23.8208L102.858 38.9523Z" fill="#231F20"/>
<path d="M66.7755 57.6158L36.1614 38.9523L66.7755 20.2988L97.3897 38.9523L66.7755 57.6158ZM41.941 38.9523L66.7755 54.134L91.5699 38.9523L66.7755 23.8208L41.941 38.9523Z" fill="#231F20"/>
<path d="M97.3095 111.88L66.6853 93.2664V57.3643L97.3095 76.0278V111.88ZM69.6955 91.5305L94.2992 106.522V77.7235L69.6955 62.7325V91.5305Z" fill="#231F20"/>
<path d="M66.8557 128.998L41.0077 113.245C39.5534 112.35 38.3514 111.099 37.5156 109.61C36.6798 108.121 36.2378 106.443 36.2314 104.736V74.4829L66.8557 93.1464V128.998ZM39.2417 79.8311V104.726C39.2476 105.917 39.5565 107.088 40.1393 108.127C40.722 109.166 41.5595 110.04 42.573 110.666L63.8454 123.63V94.8321L39.2417 79.8311Z" fill="#231F20"/>
</svg>
