<svg width="141" height="150" viewBox="0 0 141 150" fill="none" xmlns="http://www.w3.org/2000/svg">
<path d="M66.5303 141.037L57.2775 138.723V9.25285H30.3864V131.784L21.1335 129.47V4.79991C21.1335 3.5269 21.6393 2.30602 22.5394 1.40586C23.4396 0.5057 24.6604 0 25.9335 0H61.7304C63.0034 0 64.2243 0.5057 65.1245 1.40586C66.0246 2.30602 66.5303 3.5269 66.5303 4.79991V141.037Z" fill="#231F20"/>
<path d="M58.9466 61.0416L22.7939 91.0454L28.7031 98.1656L64.8558 68.1617L58.9466 61.0416Z" fill="#231F20"/>
<path d="M28.6985 31.0751L22.7893 38.1953L58.942 68.1992L64.8511 61.079L28.6985 31.0751Z" fill="#231F20"/>
<path d="M58.951 1.05474L22.7983 31.0586L28.7075 38.1788L64.8602 8.17491L58.951 1.05474Z" fill="#231F20"/>
<path d="M28.6958 90.8012L22.7866 97.9214L58.9393 127.925L64.8485 120.805L28.6958 90.8012Z" fill="#231F20"/>
<path d="M134.724 50.3469C135.72 50.35 136.674 50.747 137.379 51.4513C138.083 52.1555 138.48 53.1099 138.483 54.1059V120.599C138.482 121.238 138.32 121.865 138.01 122.424C137.701 122.982 137.254 123.453 136.713 123.791L101.83 147.051C101.215 147.465 100.49 147.686 99.7481 147.687C99.3557 147.693 98.965 147.634 98.5915 147.513H98.4759L5.49632 124.266C4.683 124.064 3.96074 123.595 3.44498 122.935C2.92921 122.274 2.64968 121.46 2.65105 120.622V54.1059C2.65249 53.6058 2.75343 53.111 2.94793 52.6503C3.14242 52.1896 3.42661 51.7722 3.78397 51.4224C4.14132 51.0726 4.56467 50.7973 5.02942 50.6127C5.49416 50.428 5.99099 50.3377 6.49099 50.3469H134.759M99.0195 139.868L99.8638 139.301L129.936 119.269L130.965 118.587V57.8764H10.2153V117.673L11.9733 118.101L98.0363 139.625L99.031 139.868M134.724 48.0337H6.49099C4.87948 48.0337 3.3338 48.6731 2.19321 49.8115C1.05262 50.9499 0.41029 52.4944 0.407227 54.1059V120.599C0.409559 121.956 0.866479 123.274 1.70506 124.341C2.54363 125.408 3.71552 126.163 5.03365 126.486L98.0017 149.734C98.5831 149.91 99.1871 149.999 99.7944 150C100.994 149.998 102.165 149.64 103.16 148.971L138.043 125.723C138.903 125.173 139.61 124.415 140.099 123.52C140.588 122.624 140.844 121.62 140.842 120.599V54.1059C140.842 52.4954 140.203 50.9509 139.064 49.8122C137.925 48.6734 136.381 48.0337 134.77 48.0337H134.724ZM98.5915 137.382L12.5285 115.857V60.1896H128.64V117.349L98.5684 137.382H98.5915Z" fill="#231F20"/>
<path d="M110.354 39.8106H61.8809V30.5577H110.354C112.466 30.5577 114.491 29.7197 115.985 28.2278C117.479 26.7358 118.32 24.7118 118.323 22.6003C118.323 20.4868 117.484 18.4598 115.989 16.9653C114.495 15.4709 112.468 14.6313 110.354 14.6313H61.904V5.37842H110.354C114.922 5.37842 119.302 7.19286 122.532 10.4226C125.762 13.6523 127.576 18.0328 127.576 22.6003C127.573 27.1658 125.757 31.5433 122.528 34.7705C119.298 37.9977 114.92 39.8106 110.354 39.8106Z" fill="#231F20"/>
<path d="M110.377 39.1973H93.907V49.9306H110.377V39.1973Z" fill="#231F20"/>
<path d="M107.023 42.4126H97.2729V53.1459H107.023V42.4126Z" fill="#231F20"/>
<path d="M103.877 51.458H100.407V68.7377H103.877V51.458Z" fill="#231F20"/>
<path d="M110.586 81.5758C110.09 83.141 109.169 84.5382 107.927 85.612C106.685 86.6859 105.17 87.3945 103.549 87.6591C101.929 87.9237 100.267 87.7339 98.7474 87.1109C97.2282 86.4879 95.9114 85.456 94.9433 84.1298C93.9752 82.8036 93.3936 81.235 93.2632 79.5983C93.1327 77.9615 93.4584 76.3206 94.2042 74.8578C94.95 73.395 96.0867 72.1675 97.488 71.3117C98.8893 70.4559 100.5 70.0052 102.142 70.0097C102.725 70.009 103.306 70.0671 103.877 70.1832V66.7134C101.501 66.3747 99.077 66.7359 96.9024 67.7527C94.7278 68.7694 92.8967 70.3978 91.6328 72.4387C90.3689 74.4795 89.727 76.8445 89.7857 79.2443C89.8443 81.6441 90.601 83.9748 91.9631 85.9515C93.3252 87.9282 95.2338 89.4651 97.4554 90.3744C99.6771 91.2838 102.116 91.526 104.473 91.0717C106.83 90.6173 109.003 89.4859 110.728 87.8159C112.452 86.1459 113.653 84.0097 114.183 81.6683L110.586 81.5758Z" fill="#231F20"/>
</svg>
