<svg width="162" height="150" viewBox="0 0 162 150" fill="none" xmlns="http://www.w3.org/2000/svg">
<path d="M36.474 10.987C35.8243 10.9878 35.1892 11.1797 34.6478 11.5389L32.9019 12.6928L4.30456 31.7577C3.85901 32.0575 3.49411 32.4624 3.24211 32.9366C2.99011 33.4109 2.85877 33.9399 2.85965 34.4769V115.412C2.86029 115.967 3.00257 116.513 3.27298 116.997C3.54339 117.482 3.93301 117.89 4.40494 118.182L34.6478 138.421C35.1862 138.777 35.8183 138.966 36.464 138.962C36.8039 138.971 37.1428 138.923 37.4674 138.822H37.5577L62.5728 132.571L65.3121 131.888L68.9545 130.975L61.1982 126.199L53.6625 128.085L50.9132 128.768L37.9791 131.999L37.1162 132.209L36.3837 131.718L10.295 114.339L9.40193 113.747V36.273L10.295 35.671L36.3837 18.2918L37.1162 17.8002L37.9791 18.0209L45.003 19.7669L47.7424 20.4492L55.7697 22.456L63.5963 17.6998L59.382 16.6462L56.6025 16.004L37.3069 11.1275C37.0517 11.059 36.7884 11.0252 36.5242 11.0271M36.5242 9.02029C36.954 9.01986 37.3822 9.0738 37.7985 9.18083L57.0942 13.9972L59.8335 14.6795L68.7338 16.9071L56.0908 24.6033L47.2005 22.3757L44.4612 21.6934L37.4373 19.9475L11.3486 37.3266V112.583L37.4373 129.962L50.3513 126.781L53.1006 126.099L61.449 124.002L73.9917 131.718L65.7236 133.795L62.9843 134.477L38.0093 140.728C37.5077 140.877 36.9871 140.951 36.464 140.949C35.426 140.952 34.4104 140.648 33.5441 140.076L3.28112 119.898C2.53425 119.421 1.91937 118.764 1.49324 117.987C1.06712 117.21 0.843416 116.338 0.842773 115.452V34.517C0.843609 33.6495 1.05834 32.7955 1.46789 32.0306C1.87743 31.2658 2.46917 30.6137 3.19079 30.1321L33.5441 9.90329C34.4104 9.32142 35.4304 9.01055 36.474 9.01025L36.5242 9.02029ZM62.0411 123.871L61.4891 124.002L62.0812 123.891L62.0411 123.871ZM74.664 131.567L74.4934 132.009L74.0318 131.718L74.664 131.567Z" fill="#231F20"/>
<path d="M157.837 34.9984L140.779 24.5729L128.146 16.8767L103.291 1.72518C101.456 0.597178 99.3446 0 97.1906 0C95.0366 0 92.9248 0.597178 91.0898 1.72518L36.5041 34.9984C35.4402 35.6494 34.5607 36.5621 33.9495 37.6493C33.3382 38.7366 33.0156 39.9622 33.0122 41.2095V105.518C33.0162 107.531 33.5345 109.509 34.5179 111.266C35.5014 113.022 36.9173 114.497 38.6314 115.552L93.3977 148.926C94.5382 149.628 95.8513 150 97.1906 150C98.5299 150 99.843 149.628 100.984 148.926L122.216 135.992L134.839 128.296L155.71 115.532C157.424 114.477 158.84 113.002 159.823 111.245C160.807 109.489 161.325 107.511 161.329 105.498V41.2095C161.325 39.9622 161.003 38.7366 160.392 37.6493C159.78 36.5621 158.901 35.6494 157.837 34.9984ZM154.827 105.518C154.823 106.408 154.592 107.282 154.157 108.058C153.722 108.834 153.096 109.486 152.338 109.953L125.928 126.008L113.305 133.704L97.1806 143.528L41.9928 109.913C41.2354 109.446 40.6096 108.794 40.1742 108.018C39.7388 107.242 39.5083 106.368 39.5043 105.478V40.7881L94.5015 7.30416C95.3134 6.80546 96.2477 6.54147 97.2006 6.54147C98.1536 6.54147 99.0878 6.80546 99.8998 7.30416L119.256 19.1043L131.899 26.8005L154.797 40.7881L154.827 105.518Z" fill="#231F20"/>
<path d="M66.7771 93.3172L36.1528 74.6537V38.8018L66.7771 57.4653V93.3172ZM39.1631 72.968L63.7668 87.959V59.151L39.1631 44.17V72.968Z" fill="#231F20"/>
<path d="M97.2306 147.541L66.6064 128.878V93.0259L97.2306 111.689V147.541ZM69.6167 127.182L94.2204 142.183V113.335L69.6167 98.3841V127.182Z" fill="#231F20"/>
<path d="M97.1503 39.0823L66.5361 20.4188L91.9727 4.91602C93.531 3.96163 95.3229 3.45654 97.1503 3.45654C98.9777 3.45654 100.77 3.96163 102.328 4.91602L127.764 20.4188L97.1503 39.0823ZM72.3158 20.4188L97.1503 35.5603L121.985 20.4188L100.763 7.4647C99.6766 6.79522 98.426 6.4407 97.1503 6.4407C95.8746 6.4407 94.6239 6.79522 93.538 7.4647L72.3158 20.4188Z" fill="#231F20"/>
<path d="M97.1503 76.2086L66.5361 57.5451L97.1503 38.8916L127.764 57.5451L97.1503 76.2086ZM72.3158 57.5451L97.1503 72.6766L121.985 57.5451L97.1503 42.3835L72.3158 57.5451Z" fill="#231F20"/>
<path d="M97.0703 111.88V76.0278L127.695 57.3643V93.2664L97.0703 111.88ZM100.081 77.7637V106.562L124.684 91.5706V62.7325L100.081 77.7637Z" fill="#231F20"/>
<path d="M127.524 128.998V93.1464L158.148 74.4829V104.736C158.142 106.443 157.7 108.121 156.864 109.61C156.028 111.099 154.826 112.35 153.372 113.245L127.524 128.998ZM130.534 94.8321V123.64L151.807 110.676C152.82 110.05 153.658 109.176 154.24 108.137C154.823 107.098 155.132 105.927 155.138 104.736V79.8411L130.534 94.8321Z" fill="#231F20"/>
<path d="M127.524 93.3172V57.4653L158.148 38.8018V74.6537L127.524 93.3172ZM130.534 59.2012V87.9991L155.138 73.0081V44.17L130.534 59.2012Z" fill="#231F20"/>
<path d="M97.0703 147.541V111.689L127.695 93.0259V128.878L97.0703 147.541ZM100.081 113.425V142.223L124.684 127.222V98.3841L100.081 113.425Z" fill="#231F20"/>
<path d="M127.614 57.6158L97 38.9523L127.614 20.2988L158.218 38.9523L127.614 57.6158ZM102.78 38.9523L127.614 54.134L152.449 39.0025L127.614 23.8208L102.78 38.9523Z" fill="#231F20"/>
<path d="M66.6971 57.6158L36.083 38.9523L66.6971 20.2988L97.3113 38.9523L66.6971 57.6158ZM41.8626 38.9523L66.6971 54.134L91.4915 38.9523L66.6971 23.8208L41.8626 38.9523Z" fill="#231F20"/>
<path d="M97.2306 111.88L66.6064 93.2664V57.3643L97.2306 76.0278V111.88ZM69.6167 91.5305L94.2204 106.522V77.7235L69.6167 62.7325V91.5305Z" fill="#231F20"/>
<path d="M66.7771 128.998L40.9291 113.245C39.4748 112.35 38.2728 111.099 37.437 109.61C36.6012 108.121 36.1592 106.443 36.1528 104.736V74.4829L66.7771 93.1464V128.998ZM39.1631 79.8311V104.726C39.169 105.917 39.4779 107.088 40.0607 108.127C40.6434 109.166 41.4809 110.04 42.4944 110.666L63.7668 123.63V94.8321L39.1631 79.8311Z" fill="#231F20"/>
</svg>
