<svg width="1512" height="309" viewBox="0 0 1512 309" fill="none" xmlns="http://www.w3.org/2000/svg">
<path d="M223.741 50.3172C145.884 -13.9417 41.4733 -3.23191 -1 10.1554V312H1516V134.657L1433 112L1384 105.54H1335.4C1291.26 104.87 1200 112 1147.79 147.709C1101.11 179.633 1089 176.827 1055.48 176.827C973 163 965.586 133.653 919.032 77.4262C872.479 21.1997 793 32 756.497 50.3172C740.444 62.031 682.051 99.1136 576.905 153.734C471.758 208.354 373.902 169.129 338.118 142.689C332.432 138.673 301.597 114.576 223.741 50.3172Z" fill="#336097"/>
<path d="M27 280.227L-1 312.727H337.5C326 294.727 300 261.71 283 269.727C266.382 277.563 248.167 281.377 238.5 277.71C216.5 264.727 219.3 253.027 204.5 228.227C186 197.227 162.851 193.066 141.5 199.709C119 206.71 106.5 249.227 100.5 264.727C95.7 277.127 82 275.191 68.5 272.709C47 264.691 33.1667 274.727 27 280.227Z" fill="#FAB140"/>
<path d="M1173 226.579C1150.6 228.579 1125 283.079 1115 310.079H1455C1450.2 274.079 1438.33 253.412 1433 247.579C1429.33 241.912 1417 232.879 1397 242.079C1377 251.279 1359.67 235.579 1353.5 226.579C1341.1 198.179 1324 188.412 1317 187.079C1311.17 186.245 1294.6 191.679 1275 220.079C1255.4 248.479 1230.83 250.246 1221 247.579C1194.2 227.979 1177.83 225.412 1173 226.579Z" fill="#00A652"/>
</svg>
