<svg width="1088" height="252" viewBox="0 0 1088 252" fill="none" xmlns="http://www.w3.org/2000/svg">
<path d="M303.074 185.075L292.466 187.464L295.359 200.305L290.893 201.311L292.779 209.686L295.571 209.057L301.608 235.855C303.017 242.108 309.204 243.53 312.121 243.459L319.379 241.824L316.989 231.217L313.639 231.971C311.852 232.374 310.819 229.869 310.525 228.566L306.988 207.658L313.688 206.149L311.675 197.216L306.092 198.474L303.074 185.075Z" fill="white" stroke="black" stroke-width="2.28913"/>
<path d="M333.906 178.716L325.406 180.044L329.106 235.527L337.732 234.757C337.601 232.44 337.109 225.745 336.192 217.505C335.274 209.264 336.854 206.716 339.691 204.397C343.655 201.158 349.992 203.25 350.998 207.716L352.876 234.278L361.935 232.824L360.339 217.931L358.744 203.038C352.627 191.51 339.21 195.315 334.777 200.811L333.906 178.716Z" fill="white"/>
<path d="M325.406 180.044L325.229 178.913L324.194 179.075L324.264 180.12L325.406 180.044ZM333.906 178.716L335.049 178.671L334.999 177.386L333.729 177.585L333.906 178.716ZM334.777 200.811L333.634 200.856L333.754 203.903L335.668 201.53L334.777 200.811ZM358.744 203.038L359.882 202.916C359.866 202.771 359.823 202.63 359.755 202.501L358.744 203.038ZM361.935 232.824L362.116 233.954L363.188 233.782L363.073 232.702L361.935 232.824ZM352.876 234.278L351.734 234.359L351.823 235.606L353.058 235.408L352.876 234.278ZM350.998 207.716L352.14 207.635L352.134 207.549L352.115 207.464L350.998 207.716ZM339.691 204.397L338.967 203.511L339.691 204.397ZM336.192 217.505L335.054 217.631L336.192 217.505ZM337.732 234.757L337.833 235.897L338.937 235.798L338.874 234.692L337.732 234.757ZM329.106 235.527L327.964 235.603L328.042 236.771L329.208 236.667L329.106 235.527ZM360.339 217.931L359.201 218.053L360.339 217.931ZM325.582 181.175L334.082 179.847L333.729 177.585L325.229 178.913L325.582 181.175ZM332.762 178.761L333.634 200.856L335.921 200.766L335.049 178.671L332.762 178.761ZM335.668 201.53C337.658 199.063 341.8 196.869 346.177 196.684C350.458 196.503 354.903 198.241 357.733 203.574L359.755 202.501C356.468 196.307 351.146 194.183 346.081 194.397C341.112 194.607 336.329 197.064 333.886 200.093L335.668 201.53ZM361.753 231.694L352.695 233.148L353.058 235.408L362.116 233.954L361.753 231.694ZM354.018 234.197L352.14 207.635L349.857 207.797L351.734 234.359L354.018 234.197ZM352.115 207.464C351.502 204.743 349.294 202.841 346.789 202.073C344.274 201.301 341.288 201.614 338.967 203.511L340.416 205.283C342.059 203.941 344.223 203.68 346.118 204.261C348.025 204.846 349.489 206.222 349.882 207.968L352.115 207.464ZM338.967 203.511C337.453 204.749 336.172 206.135 335.445 208.377C334.735 210.562 334.588 213.45 335.054 217.631L337.329 217.378C336.877 213.319 337.061 210.812 337.622 209.084C338.165 207.411 339.093 206.365 340.416 205.283L338.967 203.511ZM335.054 217.631C335.97 225.853 336.459 232.526 336.589 234.821L338.874 234.692C338.742 232.353 338.249 225.638 337.329 217.378L335.054 217.631ZM337.63 233.617L329.004 234.387L329.208 236.667L337.833 235.897L337.63 233.617ZM330.248 235.45L326.548 179.968L324.264 180.12L327.964 235.603L330.248 235.45ZM357.606 203.16L359.201 218.053L361.477 217.809L359.882 202.916L357.606 203.16ZM359.201 218.053L360.796 232.946L363.073 232.702L361.477 217.809L359.201 218.053Z" fill="black"/>
<path d="M403.661 224.207L402.633 191.001C392.348 189.094 381.765 193.255 378.068 196.535C373.342 200.728 365.772 211.741 373.301 222.247C380.83 232.753 388.647 227.003 391.614 222.814L392.369 226.164L403.661 224.207Z" fill="white" stroke="black" stroke-width="2.28913"/>
<path d="M386.389 215.982C393.34 215.589 391.453 207.613 390.626 200.948C389.511 201.2 385.499 200.578 383.134 206.742C380.768 212.907 384.132 215.512 386.389 215.982Z" fill="#4785CE" stroke="black" stroke-width="2.28913" stroke-linejoin="round"/>
<path d="M417.704 180.369L416.548 188.256L411.272 188.271L411.162 192.989L415.88 193.099L416.067 214.762C416.095 217.493 418.512 223.011 427.947 223.232C437.383 223.452 437.767 213.002 436.779 207.75L431.07 208.449C430.996 211.594 430.266 217.899 427.932 217.955C425.598 218.012 425.377 214.425 425.558 212.624L425.873 193.194L434.067 193.108L434.736 188.265L425.3 188.044L425.214 179.85L417.704 180.369Z" fill="white" stroke="black" stroke-width="2.28913" stroke-linejoin="round"/>
<path d="M37 12L2 17L25 157L59 150.5L49 86L81.5 81L91 145L126 139.5L102 2L69 6.5L79 67.5L46.5 73.5L37 12Z" fill="white" stroke="black" stroke-width="2"/>
<path d="M159 192V128.5C146.6 125.3 141.167 109.833 140 102.5L135 41H161.5C163 57.8333 166.2 92.7 167 97.5C167.8 102.3 171 102.5 173 102.5C176.5 102.5 178.5 99.5 179 96L184.5 41L210 42.5C208.667 56.6667 205.8 88.5 205 102.5C204.2 116.5 192 125.667 186 128.5V192H159Z" fill="white" stroke="black" stroke-width="2"/>
<path d="M210 146L241 1C241.5 1 253.3 1.2 296.5 2C339.7 2.8 341 33 336.5 50.5C327 92.5 282.667 98.1667 260 95.5L249 146H210Z" fill="white" stroke="black" stroke-width="2"/>
<path d="M265 61L271.5 31L289 31.5C296 33.5 294.427 40.0152 294 44.5C293 55 286.5 61 280 61H265Z" fill="#4785CE" stroke="black" stroke-width="2"/>
<path d="M434 46.5L351 31L330 144.5L414.5 160L419 129.5L373.5 121L375.5 108L419 117L424.5 89.5L381 81L383.5 68.5L428.5 76.5L434 46.5Z" fill="white" stroke="black" stroke-width="2"/>
<path d="M547.43 140.46L545.022 110.356C543.015 111.36 539.002 112.163 535.992 112.163C533.398 112.163 522.747 109.153 517.93 109.754C507.093 109.754 488.911 114.21 483.612 129.622C478.314 145.035 486.623 156.515 491.439 160.328C497.861 163.94 512.872 172.249 521.542 176.583C530.213 180.918 523.349 187.421 519.134 187.421C517.93 187.621 512.993 187.902 502.878 187.421C492.764 186.939 487.425 177.988 486.021 173.573L480 175.379L484.817 209.095L488.429 207.289L499.266 209.095C508.498 210.901 530.092 211.985 542.615 201.87C555.138 191.755 551.846 173.573 548.635 165.746C546.709 158.04 524.953 147.684 514.317 143.47C506.61 139.617 508.297 135.929 510.704 134.439C523.349 126.612 540.005 136.044 541.41 141.664L547.43 140.46Z" fill="white" stroke="black" stroke-width="2.40825" stroke-linejoin="round"/>
<path d="M531 81.8371V71L602.646 72.8062V81.8371H573.747L571.94 163.116H559.899L561.103 81.8371H531Z" fill="white" stroke="black" stroke-width="2.40825" stroke-linejoin="round"/>
<path d="M684.096 186.425C684.578 180.646 680.283 181.609 678.076 182.813C674.263 188.232 665.073 199.55 658.812 201.477C652.55 203.403 646.167 192.245 643.759 186.425C648.092 186.425 662.539 176.124 668.56 170.104C678.795 159.869 689.637 137.417 673.261 126.821C656.885 116.225 637.137 134.046 629.31 144.281C631.719 131.996 622.687 125.515 617.87 123.811C618.459 115.622 614.976 113.446 611.851 114.113C607.751 115.919 610.044 120.8 611.851 123.811C599.809 121.402 584.271 130.97 578.134 141.27C569.821 159.267 579.94 165.353 586.563 165.353C604.866 162.945 615.061 141.872 617.87 131.637C623.168 135.491 621.683 146.89 620.279 152.108L596.798 202.079C596.316 210.267 602.216 207.899 605.227 205.691L610.762 193.584L616.064 181.007C620.279 172.512 628.827 150.904 643.759 138.862C658.69 126.821 667.64 130.634 670.249 134.046C681.327 150.904 654.796 172.377 640.146 181.007L636.533 176.793C631.917 173.582 621.963 169.448 619.073 178.599C616.183 187.75 629.509 189.235 636.533 188.834C639.343 196.059 647.491 210.267 657.605 209.304C667.72 208.341 679.48 193.65 684.096 186.425Z" fill="white" stroke="black" stroke-width="2.40825" stroke-linejoin="round"/>
<path d="M609.553 129.164C598.916 131.572 576.439 144.216 583.062 155.655C587.877 159.267 601.847 156.618 609.553 129.164Z" fill="#4785CE" stroke="black" stroke-width="2.40825" stroke-linejoin="round"/>
<path d="M633.641 182.915C632.437 180.708 628.824 176.895 624.008 179.303C624.008 181.511 625.934 185.323 633.641 182.915Z" fill="black" stroke="black" stroke-width="2.40825" stroke-linejoin="round"/>
<path d="M715.909 110H684V116.623H692.429L693.031 160.573C692.63 169.805 697.607 188.268 720.726 188.268C743.845 188.268 750.026 171.812 750.227 163.584V124.45C750.227 119.151 750.829 116.623 753.839 116.623H756.248H758.656V110H729.757V116.021H736.982C741.798 116.021 743.002 121.64 743.002 124.45V162.38C743.604 168.4 740.955 180.441 725.542 180.441C710.13 180.441 706.678 169.604 706.878 164.186V116.623H715.909V110Z" fill="white" stroke="black" stroke-width="2.40825" stroke-linejoin="round"/>
<path d="M819.469 181.399L814.05 179.593C814.05 186.336 804.016 188.423 798.999 188.623C775.398 189.587 774.315 167.551 777.927 158.52C789.366 136.846 808.632 145.446 815.255 153.704L820.071 151.897L815.857 126.611L812.847 128.417L788.743 126.004C778.91 125.803 758.279 132.988 754.425 163.332C750.572 193.676 773.691 206.686 791.774 207.288L814.05 206.686L819.469 181.399Z" fill="white" stroke="black" stroke-width="2.40825" stroke-linejoin="round"/>
<path d="M820 117.266L826.623 98C836.256 106.188 873.985 110.242 891.646 111.245L888.033 132.318H882.013V126.297C882.013 122.04 875.39 119.674 875.39 119.674L862.747 117.266C859.335 133.321 852.391 166.515 851.909 170.85C851.434 175.129 853.266 176.044 854.858 176.839L854.92 176.87L860.338 178.677L859.134 184.095L826.623 178.677L827.225 172.656C827.626 172.656 829.392 172.776 833.245 173.258C837.099 173.74 838.865 169.445 839.266 167.237L850.103 114.256C847.695 113.453 841.674 111.727 836.858 111.245C832.041 110.764 829.633 111.847 828.429 114.256L825.419 119.674L820 117.266Z" fill="white" stroke="black" stroke-width="2.40825" stroke-linejoin="round"/>
<path d="M885.45 147H871.602L871 176.501V193.359V209.615C874.01 227.677 892.875 230.486 902.307 230.687C923.982 233.095 933.615 209.013 934.217 203.594L936.625 150.01H923.982L921.573 195.767C921.774 203.193 918.202 218.164 902.307 218.646C886.413 219.127 883.643 202.39 884.245 193.359L885.45 147Z" fill="white" stroke="black" stroke-width="2.40825" stroke-linejoin="round"/>
<path d="M947.584 116.49L948.043 110.487L970.393 110.386C981.336 109.412 1003.89 111.38 1006.55 127.042C1009.22 142.704 995.42 151.55 988.187 154.016C997.718 155.711 999.645 172.605 999.418 180.84C1000.93 186.27 1006.18 181.961 1008.61 179.128L1008.01 186.932C1007.9 188.373 1004.55 190.088 1002.88 190.766C994.353 194.944 986.584 190.726 983.766 188.095C982.642 187.003 980.477 182.167 980.805 171.565C981.134 160.963 977.644 157.637 975.859 157.299L966.854 156.609C966.04 161.982 964.33 173.806 963.999 178.129C963.669 182.451 966.295 184.946 967.65 185.654L971.252 185.93L970.792 191.933L933.99 191.531L934.45 185.528L939.852 185.941C945.135 186.346 947.068 178.443 947.375 174.441C949.724 159.525 954.644 128.382 955.529 123.136C956.413 117.89 952.602 116.672 950.585 116.719L947.584 116.49Z" fill="white" stroke="black" stroke-width="2.40825" stroke-linejoin="round"/>
<path d="M968.586 148.375L973.376 117.343C979.056 116.772 990.028 119.101 988.482 132.991C986.935 146.882 974.573 149.035 968.586 148.375Z" fill="#4785CE" stroke="black" stroke-width="2.40825" stroke-linejoin="round"/>
<path d="M1006 97.2248V102.041H1009.01C1011.9 101.56 1012.62 104.65 1012.62 106.256C1014.03 123.113 1016.96 157.552 1017.44 160.441C1017.92 163.331 1016.44 164.857 1015.63 165.258H1012.62V171.279L1084.27 164.054L1086.68 139.971L1081.26 139.369C1079.33 145.631 1074.84 146.795 1072.83 146.594L1039.11 149.604V139.369C1047.34 138.767 1064.28 137.563 1066.21 137.563C1068.13 137.563 1069.02 139.971 1069.22 141.175H1072.83L1071.62 114.685H1066.21C1066.69 116.611 1064.8 118.698 1063.8 119.501L1036.71 121.909V112.276C1047.14 111.474 1068.98 109.868 1072.83 109.868C1076.68 109.868 1078.85 113.079 1079.45 114.685L1083.67 112.276L1075.84 90L1006 97.2248Z" fill="white" stroke="black" stroke-width="2.40825" stroke-linejoin="round"/>
</svg>
