<svg width="1512" height="475" viewBox="0 0 1512 475" fill="none" xmlns="http://www.w3.org/2000/svg">
<path d="M1412.34 474C1450.41 474.605 1485.24 474.559 1516 474H1412.34C1088.43 468.849 530.151 416.539 252.77 231.855C233.847 217.903 223.6 181.2 334 146C358 133.333 387.2 100.4 312 70C236.8 39.6 72.6666 10.6667 0 0V474H1412.34Z" fill="#009975"/>
<path d="M120.416 83.0063C42.6835 45.1913 -29.5945 98.7625 -56.0168 130.275C-76.1758 154.317 -116.713 187.533 -83.1687 220.98C-74.0969 230.025 -44.0841 220.98 -35.5608 220.98C-29.5945 220.98 -9.22367 216.892 24.5288 200.539C58.2812 184.187 138.315 193.726 174.113 200.539C273.534 206.927 254.659 163.917 231.646 145.605C226.958 140.495 198.149 120.821 120.416 83.0063Z" fill="#D9D9D9"/>
</svg>
