<svg width="328" height="171" viewBox="0 0 328 171" fill="none" xmlns="http://www.w3.org/2000/svg">
<path d="M39.5538 85.1846C34.3538 60.7846 67.0538 53.6846 84.0538 53.1846C148.721 45.5179 281.655 36.8846 296.055 63.6846C310.455 90.4846 280.388 97.1846 263.555 97.1846C251.055 97.1846 220.255 99.4846 197.055 108.685C173.855 117.885 120.055 117.851 96.0547 116.685C79.3877 116.351 44.7538 109.585 39.5538 85.1846Z" fill="#FEDF84"/>
<path d="M81.6419 27.2757C89.2855 26.7855 90.7628 20.0492 90.546 16.7423L240.254 1.34496C240.714 8.69577 247.443 10.0999 250.75 9.88306L251.051 12.8113C249.092 13.9006 250.36 14.4853 251.239 14.6415L251.578 17.9358C249.619 19.0251 250.912 19.8538 251.804 20.132L252.105 23.0603C250.146 24.1496 251.439 24.9783 252.331 25.2565L252.632 28.1848C250.703 29.5669 252.004 30.4688 252.896 30.747L253.197 33.6753C251.237 34.7646 252.531 35.5933 253.423 35.8715L253.724 38.7998C251.795 40.1819 253.096 41.0838 253.987 41.362L254.289 44.2903C252.299 45.0868 253.61 46.0863 254.514 46.4865L254.816 49.4148C252.856 50.5041 254.15 51.3328 255.042 51.611L255.38 54.9053C253.421 55.9946 254.714 56.8233 255.606 57.1015L255.907 60.0298C253.978 61.4119 255.279 62.3138 256.171 62.592L256.397 64.7882C249.076 65.5412 247.654 72.0991 247.859 75.2839L133.29 87.0673L97.7846 90.719C97.3847 83.9538 90.5957 81.9641 87.2512 81.8148L87.0253 79.6186C88.6919 78.5594 87.5692 77.7132 86.7994 77.4224L86.4983 74.4941C88.4577 73.4048 87.139 72.3321 86.2348 71.9319L85.9712 69.3697C87.6077 68.0176 86.4774 67.0982 85.7077 66.8074L85.4442 64.2452C87.0807 62.8932 85.9253 61.7296 85.143 61.3169L84.8795 58.7547C86.8088 57.3725 85.5077 56.4706 84.616 56.1924L84.3148 53.2641C86.2742 52.1748 84.9806 51.3461 84.0889 51.0679L83.7877 48.1397C85.7171 46.7575 84.4285 45.9776 83.543 45.7604L83.2607 43.0152C84.8972 41.6632 83.7669 40.7437 82.9972 40.4529L82.7336 37.8907C84.663 36.5086 83.3618 35.6066 82.4701 35.3284L82.1689 32.4002C84.0983 31.018 82.7971 30.1161 81.9054 29.8379L81.6419 27.2757Z" fill="#EB7C95"/>
<path d="M125.281 12.7998L132.923 87.1048" stroke="black" stroke-width="0.220779" stroke-dasharray="2.21 2.21"/>
<path d="M158.657 42.9888L157.49 43.1088C157.438 42.9209 157.359 42.7577 157.254 42.6192C157.149 42.4787 157.025 42.3633 156.881 42.273C156.737 42.1827 156.578 42.1203 156.402 42.0858C156.228 42.0491 156.043 42.0408 155.847 42.0609C155.5 42.0966 155.201 42.2156 154.951 42.4179C154.7 42.6181 154.516 42.8934 154.399 43.2439C154.281 43.5923 154.247 44.0067 154.297 44.4871C154.347 44.9758 154.465 45.3798 154.652 45.699C154.84 46.016 155.076 46.246 155.359 46.3892C155.645 46.53 155.96 46.5827 156.306 46.5472C156.497 46.5275 156.673 46.4842 156.834 46.4172C156.998 46.3478 157.141 46.2564 157.263 46.1429C157.388 46.0292 157.489 45.8948 157.566 45.7398C157.644 45.5846 157.692 45.4116 157.708 45.2208L158.875 45.107C158.863 45.4152 158.797 45.7098 158.679 45.991C158.563 46.272 158.399 46.5263 158.187 46.7541C157.975 46.9798 157.719 47.1659 157.418 47.3123C157.118 47.4567 156.777 47.5485 156.397 47.5876C155.835 47.6454 155.321 47.567 154.853 47.3523C154.385 47.1377 154 46.7981 153.695 46.3333C153.391 45.8686 153.204 45.2931 153.133 44.6068C153.062 43.9184 153.13 43.3167 153.335 42.8016C153.541 42.2845 153.85 41.8733 154.264 41.5679C154.679 41.2626 155.164 41.0813 155.722 41.024C156.077 40.9874 156.413 41.0033 156.729 41.0717C157.045 41.1401 157.333 41.2587 157.592 41.4275C157.851 41.5942 158.071 41.809 158.254 42.0719C158.438 42.3324 158.573 42.6381 158.657 42.9888ZM165.533 43.3315C165.604 44.0199 165.535 44.6227 165.328 45.1401C165.122 45.6551 164.811 46.0654 164.395 46.3709C163.981 46.6763 163.494 46.8577 162.935 46.9152C162.375 46.9728 161.861 46.8943 161.391 46.6799C160.923 46.4632 160.535 46.1238 160.227 45.6615C159.921 45.197 159.732 44.6216 159.662 43.9353C159.591 43.2469 159.658 42.6452 159.864 42.1301C160.071 41.6128 160.382 41.2015 160.796 40.8962C161.212 40.5906 161.7 40.4091 162.26 40.3516C162.819 40.294 163.333 40.3726 163.8 40.5872C164.27 40.8016 164.658 41.141 164.964 41.6056C165.273 42.0678 165.462 42.6431 165.533 43.3315ZM164.369 43.4511C164.319 42.9666 164.201 42.5657 164.015 42.2486C163.831 41.9291 163.597 41.6978 163.313 41.5547C163.03 41.4094 162.714 41.3547 162.367 41.3904C162.019 41.4261 161.721 41.544 161.473 41.744C161.224 41.9419 161.041 42.2161 160.924 42.5665C160.808 42.9147 160.775 43.3311 160.825 43.8156C160.875 44.3002 160.992 44.7022 161.176 45.0217C161.362 45.3388 161.597 45.57 161.881 45.7152C162.165 45.8584 162.481 45.9121 162.828 45.8764C163.175 45.8407 163.473 45.7239 163.722 45.5259C163.97 45.3259 164.152 45.0519 164.268 44.7037C164.385 44.3532 164.419 43.9357 164.369 43.4511ZM171.549 39.4845L172.206 45.8734L171.176 45.9793L167.718 41.9371L167.665 41.9425L168.113 46.2944L166.956 46.4134L166.298 40.0245L167.334 39.9179L170.789 43.9636L170.846 43.9578L170.398 39.6029L171.549 39.4845ZM173.665 39.2668L175.845 44.1246L175.91 44.1179L177.053 38.9184L178.325 38.7875L176.73 45.4081L175.301 45.5551L172.395 39.3974L173.665 39.2668ZM179.824 45.0899L179.167 38.7009L183.322 38.2736L183.422 39.2438L180.424 39.5521L180.602 41.2866L183.385 41.0004L183.485 41.9706L180.702 42.2568L180.882 44.0007L183.904 43.6898L184.004 44.66L179.824 45.0899ZM185.16 44.5411L184.503 38.1521L186.899 37.9057C187.39 37.8552 187.81 37.8982 188.161 38.0345C188.513 38.1706 188.79 38.3838 188.992 38.674C189.196 38.962 189.319 39.3098 189.361 39.7174C189.403 40.1271 189.353 40.4917 189.209 40.8113C189.067 41.1285 188.836 41.3866 188.516 41.5856C188.196 41.7824 187.791 41.9061 187.3 41.9566L185.593 42.1321L185.494 41.1712L187.045 41.0118C187.332 40.9823 187.563 40.9186 187.738 40.8207C187.912 40.7208 188.036 40.5894 188.107 40.4265C188.18 40.2613 188.205 40.0654 188.182 39.8387C188.159 39.612 188.094 39.4232 187.988 39.2722C187.882 39.1192 187.733 39.0105 187.542 38.9462C187.35 38.8797 187.11 38.8614 186.82 38.8911L185.76 39.0002L186.317 44.4221L185.16 44.5411ZM188.163 41.3066L190.042 44.039L188.751 44.1718L186.899 41.4366L188.163 41.3066ZM193.869 38.9637C193.812 38.6943 193.668 38.4948 193.436 38.3652C193.206 38.2354 192.919 38.1882 192.576 38.2234C192.335 38.2483 192.132 38.3059 191.967 38.3965C191.802 38.487 191.68 38.5994 191.601 38.7336C191.522 38.8678 191.49 39.0151 191.505 39.1754C191.518 39.3085 191.56 39.4208 191.631 39.5124C191.703 39.6037 191.796 39.6782 191.909 39.736C192.022 39.7916 192.145 39.8357 192.279 39.8682C192.412 39.9007 192.546 39.9258 192.681 39.9435L193.295 40.0316C193.542 40.063 193.782 40.115 194.014 40.1878C194.249 40.2604 194.462 40.3604 194.653 40.4878C194.847 40.615 195.007 40.7761 195.132 40.9713C195.257 41.1665 195.334 41.4024 195.362 41.6791C195.401 42.0534 195.339 42.3929 195.177 42.6975C195.015 43 194.761 43.25 194.416 43.4473C194.072 43.6424 193.644 43.7662 193.133 43.8188C192.636 43.87 192.196 43.8374 191.814 43.7211C191.435 43.6047 191.127 43.4094 190.89 43.1352C190.656 42.8609 190.509 42.5124 190.449 42.0898L191.587 41.9727C191.627 42.1935 191.715 42.3716 191.85 42.5068C191.986 42.6421 192.155 42.7362 192.355 42.7891C192.558 42.8418 192.781 42.8557 193.022 42.8309C193.273 42.805 193.49 42.7449 193.672 42.6506C193.855 42.5539 193.994 42.4325 194.088 42.2862C194.182 42.1378 194.221 41.972 194.204 41.7887C194.185 41.6226 194.122 41.4903 194.015 41.392C193.908 41.2916 193.764 41.2139 193.584 41.1589C193.406 41.1016 193.2 41.0555 192.965 41.0208L192.219 40.9084C191.679 40.8273 191.242 40.6653 190.908 40.4222C190.576 40.1768 190.386 39.8254 190.339 39.3678C190.3 38.9914 190.368 38.6513 190.543 38.3474C190.72 38.0434 190.977 37.7952 191.314 37.6029C191.652 37.4085 192.044 37.2883 192.491 37.2423C192.944 37.1957 193.35 37.2338 193.707 37.3568C194.066 37.4775 194.358 37.6671 194.582 37.9257C194.806 38.1822 194.94 38.49 194.983 38.8492L193.869 38.9637ZM197.296 43.2929L196.061 43.42L197.653 36.7997L199.082 36.6527L201.991 42.81L200.756 42.9371L198.527 38.0339L198.477 38.039L197.296 43.2929ZM197.079 40.7837L200.448 40.4372L200.544 41.3668L197.175 41.7133L197.079 40.7837ZM201.222 37.413L201.123 36.4428L206.22 35.9185L206.32 36.8887L204.345 37.0918L204.903 42.5106L203.755 42.6287L203.197 37.2099L201.222 37.413ZM208.36 35.6984L209.017 42.0874L207.86 42.2064L207.203 35.8175L208.36 35.6984ZM215.651 38.1769C215.722 38.8653 215.653 39.4681 215.446 39.9855C215.24 40.5005 214.93 40.9108 214.513 41.2163C214.099 41.5216 213.612 41.7031 213.053 41.7606C212.493 41.8181 211.979 41.7397 211.509 41.5253C211.041 41.3086 210.653 40.9691 210.345 40.5069C210.039 40.0424 209.85 39.467 209.78 38.7807C209.709 38.0923 209.776 37.4906 209.982 36.9755C210.189 36.4582 210.5 36.0469 210.914 35.7415C211.331 35.436 211.818 35.2545 212.378 35.1969C212.937 35.1394 213.451 35.2179 213.918 35.4326C214.388 35.647 214.776 35.9864 215.083 36.4509C215.391 36.9132 215.58 37.4885 215.651 38.1769ZM214.487 38.2965C214.437 37.812 214.32 37.4111 214.134 37.0939C213.949 36.7745 213.715 36.5432 213.432 36.4001C213.148 36.2548 212.832 36.2001 212.485 36.2358C212.137 36.2715 211.84 36.3894 211.591 36.5894C211.342 36.7873 211.159 37.0615 211.042 37.4119C210.926 37.7601 210.894 38.1764 210.943 38.661C210.993 39.1456 211.11 39.5476 211.294 39.867C211.481 40.1842 211.716 40.4154 211.999 40.5606C212.283 40.7038 212.599 40.7575 212.946 40.7218C213.293 40.6861 213.591 40.5692 213.84 40.3713C214.089 40.1713 214.27 39.8972 214.386 39.5491C214.503 39.1986 214.537 38.7811 214.487 38.2965ZM221.667 34.3298L222.324 40.7188L221.295 40.8247L217.837 36.7825L217.783 36.7879L218.231 41.1398L217.074 41.2588L216.417 34.8698L217.452 34.7633L220.908 38.809L220.964 38.8032L220.516 34.4482L221.667 34.3298ZM226.074 33.8766L227.722 36.0716L227.772 36.0664L228.944 33.5814L230.264 33.4457L228.624 36.8426L230.952 39.8314L229.611 39.9694L227.949 37.7916L227.899 37.7967L226.716 40.2671L225.38 40.4045L227.07 37.0024L224.748 34.0129L226.074 33.8766ZM174.015 52.4673L172.848 52.5873C172.795 52.3994 172.717 52.2362 172.612 52.0977C172.507 51.9572 172.383 51.8418 172.239 51.7515C172.095 51.6612 171.935 51.5988 171.759 51.5643C171.585 51.5276 171.401 51.5193 171.205 51.5394C170.858 51.5751 170.559 51.6941 170.309 51.8964C170.058 52.0966 169.874 52.3719 169.757 52.7224C169.639 53.0708 169.605 53.4852 169.655 53.9656C169.705 54.4543 169.823 54.8583 170.009 55.1775C170.198 55.4944 170.433 55.7245 170.717 55.8677C171.003 56.0085 171.318 56.0612 171.663 56.0257C171.855 56.006 172.031 55.9627 172.192 55.8956C172.355 55.8263 172.498 55.7349 172.621 55.6214C172.746 55.5076 172.847 55.3733 172.923 55.2183C173.002 55.0631 173.049 54.8901 173.066 54.6993L174.233 54.5855C174.22 54.8936 174.155 55.1883 174.037 55.4695C173.921 55.7504 173.757 56.0048 173.545 56.2326C173.333 56.4583 173.076 56.6444 172.776 56.7908C172.476 56.9352 172.135 57.027 171.755 57.0661C171.193 57.1239 170.679 57.0454 170.211 56.8308C169.743 56.6162 169.357 56.2765 169.053 55.8118C168.749 55.3471 168.562 54.7716 168.491 54.0853C168.42 53.3969 168.488 52.7951 168.693 52.2801C168.898 51.763 169.208 51.3517 169.622 51.0464C170.037 50.7411 170.522 50.5598 171.08 50.5025C171.435 50.4659 171.771 50.4818 172.087 50.5502C172.403 50.6186 172.691 50.7372 172.95 50.906C173.209 51.0727 173.429 51.2875 173.612 51.5504C173.796 51.8109 173.931 52.1166 174.015 52.4673ZM180.891 52.81C180.961 53.4983 180.893 54.1012 180.686 54.6186C180.48 55.1336 180.169 55.5439 179.753 55.8494C179.339 56.1547 178.852 56.3362 178.293 56.3937C177.733 56.4512 177.219 56.3728 176.749 56.1584C176.281 55.9417 175.893 55.6022 175.585 55.14C175.279 54.6755 175.09 54.1001 175.02 53.4138C174.949 52.7254 175.016 52.1237 175.222 51.6086C175.429 51.0913 175.74 50.68 176.154 50.3746C176.57 50.0691 177.058 49.8876 177.618 49.83C178.177 49.7725 178.691 49.851 179.158 50.0657C179.628 50.2801 180.016 50.6195 180.322 51.084C180.63 51.5463 180.82 52.1216 180.891 52.81ZM179.727 52.9296C179.677 52.4451 179.559 52.0442 179.373 51.727C179.189 51.4076 178.955 51.1763 178.671 51.0331C178.387 50.8879 178.072 50.8332 177.724 50.8689C177.377 50.9046 177.079 51.0225 176.831 51.2225C176.582 51.4204 176.399 51.6946 176.282 52.045C176.166 52.3932 176.133 52.8095 176.183 53.2941C176.233 53.7787 176.35 54.1807 176.534 54.5001C176.72 54.8173 176.955 55.0485 177.239 55.1937C177.523 55.3369 177.838 55.3906 178.186 55.3549C178.533 55.3192 178.831 55.2023 179.08 55.0044C179.328 54.8044 179.51 54.5303 179.626 54.1822C179.743 53.8317 179.777 53.4142 179.727 52.9296ZM186.907 48.9629L187.564 55.3519L186.534 55.4578L183.076 51.4155L183.023 51.421L183.471 55.7729L182.313 55.8919L181.656 49.5029L182.692 49.3964L186.147 53.4421L186.203 53.4363L185.755 49.0813L186.907 48.9629ZM193.858 50.4264L192.691 50.5464C192.638 50.3585 192.56 50.1953 192.455 50.0569C192.35 49.9163 192.226 49.8009 192.082 49.7106C191.938 49.6203 191.778 49.5579 191.603 49.5235C191.429 49.4867 191.244 49.4784 191.048 49.4985C190.701 49.5342 190.402 49.6532 190.152 49.8555C189.901 50.0558 189.717 50.3311 189.6 50.6815C189.482 51.0299 189.448 51.4443 189.498 51.9247C189.548 52.4135 189.666 52.8174 189.852 53.1367C190.041 53.4536 190.277 53.6836 190.56 53.8268C190.846 53.9677 191.161 54.0204 191.507 53.9848C191.698 53.9652 191.874 53.9218 192.035 53.8548C192.199 53.7855 192.342 53.6941 192.464 53.5805C192.589 53.4668 192.69 53.3324 192.767 53.1774C192.845 53.0222 192.892 52.8492 192.909 52.6584L194.076 52.5447C194.064 52.8528 193.998 53.1474 193.88 53.4286C193.764 53.7096 193.6 53.964 193.388 54.1917C193.176 54.4174 192.919 54.6035 192.619 54.75C192.319 54.8944 191.978 54.9861 191.598 55.0253C191.036 55.083 190.522 55.0046 190.054 54.79C189.586 54.5754 189.2 54.2357 188.896 53.771C188.592 53.3062 188.405 52.7307 188.334 52.0444C188.263 51.356 188.331 50.7543 188.536 50.2392C188.742 49.7221 189.051 49.3109 189.465 49.0056C189.88 48.7003 190.365 48.5189 190.923 48.4616C191.278 48.425 191.614 48.4409 191.93 48.5093C192.246 48.5777 192.534 48.6963 192.793 48.8651C193.052 49.0319 193.272 49.2467 193.455 49.5095C193.639 49.7701 193.774 50.0757 193.858 50.4264ZM195.353 54.5507L194.696 48.1618L198.852 47.7344L198.951 48.7046L195.953 49.0129L196.132 50.7474L198.915 50.4612L199.014 51.4314L196.232 51.7176L196.411 53.4615L199.434 53.1506L199.534 54.1208L195.353 54.5507ZM200.69 54.0019L200.032 47.613L202.428 47.3666C202.919 47.3161 203.34 47.359 203.69 47.4953C204.042 47.6314 204.32 47.8446 204.522 48.1348C204.726 48.4228 204.849 48.7706 204.891 49.1782C204.933 49.588 204.882 49.9526 204.738 50.2721C204.597 50.5893 204.366 50.8474 204.046 51.0464C203.725 51.2433 203.32 51.3669 202.829 51.4174L201.123 51.5929L201.024 50.6321L202.574 50.4726C202.861 50.4431 203.092 50.3794 203.267 50.2816C203.442 50.1816 203.565 50.0502 203.636 49.8873C203.71 49.7222 203.735 49.5262 203.712 49.2995C203.688 49.0728 203.624 48.884 203.518 48.7331C203.412 48.5801 203.263 48.4714 203.071 48.407C202.879 48.3405 202.639 48.3222 202.35 48.3519L201.289 48.461L201.847 53.8829L200.69 54.0019ZM203.692 50.7675L205.572 53.4998L204.28 53.6326L202.429 50.8974L203.692 50.7675ZM205.565 48.0244L205.465 47.0542L210.563 46.5299L210.662 47.5001L208.688 47.7032L209.245 53.122L208.097 53.2401L207.54 47.8213L205.565 48.0244ZM217.3 49.0653C217.37 49.7537 217.302 50.3566 217.095 50.8739C216.889 51.389 216.578 51.7993 216.162 52.1048C215.748 52.4101 215.261 52.5915 214.702 52.6491C214.142 52.7066 213.628 52.6282 213.158 52.4138C212.69 52.1971 212.302 51.8576 211.994 51.3954C211.688 50.9309 211.499 50.3555 211.429 49.6692C211.358 48.9808 211.425 48.379 211.631 47.864C211.838 47.3466 212.149 46.9353 212.563 46.63C212.979 46.3245 213.467 46.1429 214.027 46.0854C214.586 46.0279 215.1 46.1064 215.567 46.321C216.037 46.5354 216.425 46.8749 216.731 47.3394C217.039 47.8016 217.229 48.3769 217.3 49.0653ZM216.136 49.185C216.086 48.7004 215.968 48.2995 215.782 47.9824C215.598 47.663 215.364 47.4317 215.08 47.2885C214.796 47.1433 214.481 47.0885 214.133 47.1242C213.786 47.16 213.488 47.2778 213.24 47.4778C212.991 47.6757 212.808 47.9499 212.691 48.3004C212.575 48.6485 212.542 49.0649 212.592 49.5495C212.642 50.0341 212.759 50.4361 212.943 50.7555C213.129 51.0726 213.364 51.3038 213.648 51.4491C213.932 51.5922 214.247 51.646 214.595 51.6102C214.942 51.5745 215.24 51.4577 215.489 51.2598C215.737 51.0598 215.919 50.7857 216.035 50.4375C216.152 50.0871 216.186 49.6696 216.136 49.185Z" fill="white"/>
<path d="M110.367 67.7056L110.447 68.5296L106.04 67.4429L105.947 66.4898L110.063 64.5738L110.143 65.3978L106.866 66.8649L106.869 66.8982L110.367 67.7056ZM108.693 67.8407L108.475 65.5933L109.095 65.5331L109.313 67.7805L108.693 67.8407ZM109.868 62.5683L110.009 64.0124L105.747 64.4261L105.604 62.9528C105.563 62.5296 105.613 62.1579 105.754 61.8375C105.894 61.5159 106.114 61.2578 106.416 61.0633C106.718 60.8687 107.09 60.75 107.533 60.707C107.976 60.6639 108.366 60.7095 108.701 60.8436C109.036 60.9763 109.304 61.1891 109.505 61.4819C109.705 61.7733 109.826 62.1354 109.868 62.5683ZM109.266 63.3052L109.204 62.6705C109.175 62.3737 109.097 62.1313 108.97 61.9434C108.841 61.7557 108.663 61.6223 108.437 61.5435C108.21 61.4647 107.933 61.4412 107.607 61.4728C107.281 61.5045 107.015 61.5807 106.81 61.7014C106.603 61.8223 106.456 61.9857 106.368 62.1917C106.279 62.3964 106.248 62.6431 106.276 62.9316L106.34 63.5892L109.266 63.3052ZM105.335 60.1799L105.243 59.2352L108.208 57.6702L108.203 57.6203L104.993 56.6548L104.901 55.7101L109.163 55.2964L109.234 56.0372L106.307 56.3214L106.31 56.361L109.34 57.2558L109.394 57.8093L106.587 59.2707L106.59 59.3102L109.525 59.0255L109.596 59.7663L105.335 60.1799ZM104.744 54.0973L109.006 53.6837L109.081 54.4557L104.819 54.8694L104.744 54.0973ZM105.329 53.3858L104.681 53.4486L104.351 50.0484L104.998 49.9855L105.126 51.3028L108.741 50.952L108.815 51.7177L105.201 52.0686L105.329 53.3858ZM105.908 43.9244C106.367 43.8798 106.769 43.9277 107.113 44.0679C107.455 44.2069 107.728 44.4158 107.93 44.6944C108.132 44.9717 108.251 45.2969 108.287 45.6701C108.323 46.0433 108.269 46.386 108.124 46.6984C107.978 47.0094 107.75 47.2668 107.441 47.4705C107.13 47.6729 106.746 47.7963 106.288 47.8407C105.829 47.8853 105.428 47.8381 105.085 47.6991C104.741 47.5588 104.468 47.3501 104.266 47.0728C104.064 46.7941 103.945 46.4682 103.909 46.095C103.873 45.7219 103.927 45.3798 104.072 45.0689C104.217 44.7565 104.444 44.4992 104.755 44.2968C105.064 44.0931 105.449 43.969 105.908 43.9244ZM105.983 44.7006C105.66 44.732 105.392 44.8091 105.18 44.9319C104.967 45.0534 104.811 45.2085 104.715 45.3971C104.617 45.5859 104.579 45.7961 104.602 46.0278C104.624 46.2595 104.702 46.4585 104.834 46.6249C104.965 46.7914 105.147 46.9145 105.38 46.9941C105.612 47.0724 105.889 47.0959 106.213 47.0645C106.536 47.0332 106.804 46.9567 107.018 46.8351C107.23 46.7123 107.385 46.5565 107.483 46.3678C107.58 46.1792 107.617 45.969 107.594 45.7374C107.572 45.5057 107.495 45.3066 107.364 45.14C107.232 44.9736 107.05 44.8513 106.818 44.7729C106.585 44.6933 106.306 44.6692 105.983 44.7006ZM103.366 39.8991L107.628 39.4855L107.695 40.1722L104.987 42.462L104.99 42.4974L107.893 42.2157L107.968 42.9877L103.706 43.4013L103.639 42.7105L106.349 40.4225L106.346 40.385L103.441 40.667L103.366 39.8991ZM107.546 38.6443L103.285 39.0579L103.016 36.2861L103.663 36.2233L103.857 38.2231L105.014 38.1108L104.834 36.2546L105.481 36.1918L105.661 38.048L106.824 37.9351L106.629 35.9186L107.276 35.8558L107.546 38.6443Z" fill="white"/>
<path d="M94.4047 21.8936C94.7142 27.7802 90.13 29.4847 87.7993 29.6011L92.8439 78.6498C99.0836 78.8958 101.07 83.1057 101.284 85.1799L119.951 83.2599C119.177 78.6048 123.763 75.963 126.153 75.2239L121.108 26.1753C115.545 26.7475 113.433 22.2793 113.072 19.9736L94.4047 21.8936Z" stroke="#BD2F49" stroke-width="0.735931"/>
<path d="M137.575 74.7891L132.531 25.7404C138.095 25.1682 139.446 19.8505 139.427 17.2631L236.792 7.2492C237.485 13.9842 242.244 14.7031 244.537 14.2206L249.582 63.2693C243.816 64.7501 243.045 69.2436 243.38 71.3052L146.015 81.3192C144.272 75.8759 139.662 74.6977 137.575 74.7891Z" stroke="#BD2F49" stroke-width="0.735931"/>
<path d="M66.4233 154.67C66.319 154.38 66.1798 154.127 66.0058 153.913C65.8313 153.695 65.6243 153.514 65.3848 153.372C65.1453 153.23 64.876 153.131 64.5769 153.074C64.2774 153.013 63.953 152.996 63.6038 153.025C62.9006 153.081 62.3055 153.301 61.8186 153.682C61.3364 154.063 60.9825 154.591 60.7567 155.264C60.5306 155.933 60.455 156.731 60.5298 157.656C60.6051 158.585 60.8037 159.367 61.1258 160.001C61.4479 160.636 61.8778 161.104 62.4153 161.408C62.9529 161.711 63.5851 161.833 64.3119 161.774C64.9537 161.722 65.4881 161.575 65.9149 161.331C66.3461 161.082 66.6616 160.755 66.8615 160.35C67.0615 159.944 67.1402 159.479 67.0978 158.955L67.7554 158.98L64.23 159.266L64.0232 156.71L70.2741 156.204L70.4293 158.123C70.5344 159.421 70.3482 160.554 69.8709 161.524C69.3983 162.493 68.7007 163.265 67.778 163.838C66.8601 164.411 65.7782 164.748 64.5322 164.849C63.1494 164.961 61.9099 164.76 60.8137 164.245C59.7175 163.73 58.8319 162.942 58.1569 161.881C57.4816 160.814 57.0821 159.516 56.9583 157.987C56.8621 156.798 56.9537 155.729 57.2332 154.78C57.5123 153.826 57.942 153.003 58.5225 152.31C59.1077 151.617 59.8046 151.071 60.6132 150.673C61.4265 150.275 62.3169 150.036 63.2844 149.958C64.1244 149.89 64.9152 149.947 65.6568 150.129C66.403 150.311 67.0724 150.599 67.6648 150.993C68.2619 151.386 68.7596 151.871 69.1577 152.447C69.5558 153.023 69.8266 153.668 69.9699 154.383L66.4233 154.67ZM72.9811 163.966L71.8077 149.468L81.9167 148.65L82.147 151.495L75.5422 152.03L75.7828 155.003L81.8709 154.51L82.1018 157.363L76.0137 157.856L76.2549 160.836L82.8597 160.302L83.09 163.148L72.9811 163.966ZM83.8673 151.356L83.637 148.51L95.8909 147.519L96.1212 150.364L91.7251 150.72L92.6681 162.373L89.2135 162.652L88.2705 151L83.8673 151.356ZM101.163 147.092L105.078 146.775L108.634 152.594L108.762 152.584L111.336 146.269L115.251 145.952L110.73 156.037L111.122 160.879L107.639 161.161L107.247 156.319L101.163 147.092ZM130.036 152.052C130.165 153.647 129.968 155.024 129.444 156.183C128.92 157.341 128.158 158.251 127.157 158.912C126.16 159.572 125.013 159.954 123.716 160.059C122.413 160.165 121.217 159.969 120.127 159.473C119.037 158.977 118.14 158.202 117.437 157.147C116.739 156.087 116.325 154.762 116.197 153.172C116.067 151.577 116.262 150.2 116.781 149.042C117.305 147.883 118.065 146.973 119.062 146.313C120.058 145.653 121.208 145.27 122.51 145.165C123.808 145.06 125.002 145.253 126.091 145.744C127.186 146.235 128.084 147.011 128.788 148.07C129.491 149.129 129.907 150.457 130.036 152.052ZM126.454 152.342C126.378 151.398 126.179 150.611 125.857 149.982C125.54 149.352 125.118 148.89 124.59 148.595C124.068 148.3 123.457 148.181 122.759 148.237C122.065 148.293 121.482 148.509 121.008 148.885C120.535 149.26 120.191 149.785 119.974 150.458C119.763 151.13 119.695 151.939 119.771 152.883C119.848 153.826 120.045 154.613 120.362 155.243C120.683 155.873 121.108 156.335 121.635 156.629C122.163 156.924 122.773 157.043 123.467 156.987C124.165 156.931 124.749 156.715 125.217 156.34C125.69 155.964 126.033 155.44 126.244 154.767C126.461 154.094 126.531 153.286 126.454 152.342ZM140.266 143.927L143.764 143.644L144.52 152.996C144.608 154.077 144.427 155.039 143.977 155.883C143.527 156.722 142.86 157.398 141.975 157.912C141.09 158.421 140.039 158.724 138.821 158.823C137.589 158.922 136.496 158.792 135.54 158.433C134.585 158.068 133.82 157.508 133.245 156.752C132.671 155.99 132.34 155.07 132.252 153.989L131.495 144.637L135 144.354L135.732 153.401C135.772 153.901 135.917 154.338 136.166 154.712C136.419 155.086 136.753 155.368 137.168 155.558C137.582 155.747 138.051 155.821 138.575 155.779C139.099 155.736 139.548 155.588 139.921 155.335C140.3 155.081 140.584 154.749 140.774 154.339C140.964 153.93 141.039 153.475 140.999 152.975L140.266 143.927ZM147.133 157.965L145.96 143.467L151.949 142.982C153.034 142.894 153.987 143.014 154.807 143.342C155.631 143.665 156.287 144.172 156.775 144.864C157.263 145.552 157.547 146.391 157.628 147.382C157.709 148.387 157.559 149.259 157.177 149.998C156.794 150.732 156.214 151.316 155.437 151.749C154.66 152.178 153.719 152.437 152.614 152.526L148.827 152.833L148.604 150.072L151.74 149.818C152.268 149.775 152.704 149.671 153.047 149.506C153.394 149.335 153.648 149.101 153.809 148.803C153.97 148.5 154.032 148.124 153.996 147.676C153.96 147.228 153.838 146.865 153.63 146.587C153.422 146.304 153.133 146.105 152.762 145.987C152.391 145.865 151.944 145.825 151.42 145.868L149.693 146.008L150.637 157.681L147.133 157.965ZM154.759 150.678L158.906 157.012L155.083 157.321L151.007 150.982L154.759 150.678ZM163.198 144.936L162.967 142.09L175.221 141.099L175.452 143.944L171.056 144.3L171.999 155.952L168.544 156.232L167.601 144.58L163.198 144.936ZM180.437 140.677L181.61 155.175L178.106 155.458L176.933 140.96L180.437 140.677ZM196.222 144.686L192.682 144.973C192.606 144.613 192.483 144.293 192.313 144.012C192.143 143.731 191.929 143.497 191.671 143.309C191.414 143.121 191.116 142.986 190.776 142.904C190.442 142.817 190.076 142.789 189.68 142.821C188.976 142.878 188.384 143.1 187.902 143.485C187.425 143.871 187.076 144.4 186.855 145.074C186.639 145.747 186.568 146.546 186.643 147.471C186.721 148.434 186.923 149.229 187.249 149.859C187.58 150.483 188.009 150.94 188.536 151.229C189.067 151.514 189.677 151.629 190.366 151.573C190.753 151.542 191.101 151.464 191.409 151.339C191.722 151.214 191.991 151.047 192.217 150.839C192.446 150.626 192.628 150.376 192.762 150.089C192.9 149.798 192.985 149.475 193.018 149.121L196.559 148.856C196.55 149.503 196.415 150.15 196.154 150.798C195.897 151.446 195.521 152.049 195.025 152.607C194.528 153.16 193.905 153.619 193.155 153.984C192.41 154.348 191.54 154.57 190.544 154.651C189.232 154.757 188.034 154.564 186.949 154.073C185.868 153.576 184.984 152.797 184.294 151.737C183.605 150.676 183.196 149.351 183.068 147.76C182.939 146.165 183.134 144.788 183.653 143.63C184.172 142.472 184.927 141.562 185.919 140.903C186.91 140.243 188.05 139.861 189.339 139.757C190.217 139.686 191.038 139.743 191.804 139.928C192.569 140.108 193.254 140.409 193.858 140.83C194.462 141.247 194.968 141.778 195.376 142.425C195.785 143.071 196.067 143.825 196.222 144.686ZM198.975 153.769L197.802 139.271L201.306 138.988L201.802 145.118L201.994 145.103L206.29 138.584L210.417 138.25L205.801 145.137L211.682 152.741L207.492 153.08L203.42 147.674L202.162 149.557L202.48 153.486L198.975 153.769ZM212.973 152.636L211.799 138.138L221.908 137.32L222.139 140.166L215.534 140.701L215.774 143.674L221.862 143.181L222.093 146.034L216.005 146.527L216.246 149.507L222.851 148.973L223.082 151.818L212.973 152.636ZM223.859 140.027L223.629 137.181L235.882 136.189L236.113 139.035L231.717 139.391L232.66 151.043L229.205 151.323L228.262 139.671L223.859 140.027ZM243.05 150.202L241.877 135.704L245.381 135.421L245.852 141.24L251.565 140.777L251.094 134.958L254.591 134.675L255.764 149.173L252.267 149.456L251.796 143.63L246.083 144.093L246.554 149.919L243.05 150.202ZM257.962 148.996L256.789 134.497L266.898 133.679L267.128 136.525L260.523 137.06L260.764 140.033L266.852 139.54L267.083 142.393L260.995 142.886L261.236 145.866L267.841 145.332L268.071 148.177L257.962 148.996ZM270.266 148L269.092 133.502L275.081 133.017C276.167 132.929 277.12 133.049 277.939 133.377C278.764 133.7 279.42 134.207 279.908 134.899C280.396 135.587 280.68 136.426 280.76 137.417C280.842 138.422 280.691 139.294 280.309 140.033C279.927 140.767 279.347 141.351 278.57 141.784C277.792 142.213 276.851 142.472 275.747 142.561L271.96 142.868L271.736 140.107L274.872 139.853C275.401 139.81 275.836 139.706 276.179 139.541C276.527 139.37 276.781 139.136 276.942 138.838C277.103 138.535 277.165 138.159 277.129 137.711C277.092 137.263 276.97 136.9 276.763 136.622C276.554 136.339 276.265 136.14 275.895 136.022C275.524 135.9 275.076 135.861 274.553 135.903L272.825 136.043L273.77 147.716L270.266 148ZM277.892 140.713L282.038 147.047L278.216 147.356L274.14 141.017L277.892 140.713ZM283.465 146.932L282.291 132.434L292.4 131.615L292.631 134.461L286.026 134.996L286.267 137.969L292.355 137.476L292.586 140.329L286.497 140.822L286.739 143.802L293.343 143.268L293.574 146.114L283.465 146.932Z" fill="white"/>
<mask id="path-9-outside-1_781_5464" maskUnits="userSpaceOnUse" x="306.262" y="127.052" width="19.2238" height="36.7588" fill="black">
<rect fill="white" x="306.262" y="127.052" width="19.2238" height="36.7588"/>
<path d="M322.492 131.945L317.526 151.52L311.824 150.269L315.513 130.413L322.492 131.945ZM312.671 159.995C311.681 159.778 310.907 159.239 310.349 158.38C309.801 157.523 309.636 156.595 309.855 155.596C310.07 154.615 310.606 153.855 311.461 153.316C312.327 152.769 313.255 152.605 314.245 152.822C315.198 153.031 315.958 153.566 316.525 154.427C317.103 155.281 317.285 156.199 317.07 157.179C316.924 157.845 316.62 158.413 316.158 158.884C315.705 159.357 315.17 159.695 314.553 159.899C313.946 160.105 313.318 160.137 312.671 159.995Z"/>
</mask>
<path d="M322.492 131.945L324.43 132.437L324.938 130.434L322.92 129.992L322.492 131.945ZM317.526 151.52L317.098 153.474L318.989 153.889L319.465 152.012L317.526 151.52ZM311.824 150.269L309.858 149.904L309.504 151.807L311.395 152.223L311.824 150.269ZM315.513 130.413L315.942 128.46L313.924 128.017L313.546 130.048L315.513 130.413ZM310.349 158.38L308.665 159.458L308.672 159.469L310.349 158.38ZM311.461 153.316L312.528 155.008L312.528 155.007L311.461 153.316ZM316.525 154.427L314.855 155.527L314.862 155.538L314.869 155.549L316.525 154.427ZM316.158 158.884L314.73 157.483L314.722 157.492L314.713 157.501L316.158 158.884ZM314.553 159.899L313.925 158L313.918 158.002L313.911 158.005L314.553 159.899ZM320.553 131.453L315.588 151.029L319.465 152.012L324.43 132.437L320.553 131.453ZM317.955 149.567L312.253 148.315L311.395 152.223L317.098 153.474L317.955 149.567ZM313.79 150.634L317.479 130.779L313.546 130.048L309.858 149.904L313.79 150.634ZM315.084 132.367L322.063 133.899L322.92 129.992L315.942 128.46L315.084 132.367ZM313.1 158.041C312.63 157.938 312.302 157.715 312.027 157.291L308.672 159.469C309.513 160.764 310.732 161.617 312.242 161.948L313.1 158.041ZM312.034 157.302C311.773 156.894 311.703 156.508 311.809 156.024L307.902 155.167C307.569 156.681 307.829 158.152 308.665 159.458L312.034 157.302ZM311.809 156.024C311.908 155.571 312.121 155.264 312.528 155.008L310.394 151.624C309.09 152.447 308.233 153.66 307.902 155.167L311.809 156.024ZM312.528 155.007C312.955 154.738 313.347 154.672 313.816 154.775L314.674 150.868C313.164 150.537 311.699 150.801 310.394 151.624L312.528 155.007ZM313.816 154.775C314.228 154.866 314.556 155.074 314.855 155.527L318.195 153.327C317.36 152.058 316.167 151.196 314.674 150.868L313.816 154.775ZM314.869 155.549C315.15 155.963 315.21 156.322 315.116 156.75L319.023 157.608C319.36 156.075 319.057 154.6 318.181 153.306L314.869 155.549ZM315.116 156.75C315.048 157.062 314.92 157.29 314.73 157.483L317.585 160.285C318.319 159.537 318.8 158.628 319.023 157.608L315.116 156.75ZM314.713 157.501C314.485 157.739 314.23 157.899 313.925 158L315.181 161.798C316.111 161.49 316.925 160.974 317.602 160.268L314.713 157.501ZM313.911 158.005C313.66 158.09 313.404 158.108 313.1 158.041L312.242 161.948C313.233 162.166 314.231 162.12 315.196 161.793L313.911 158.005Z" fill="#FDAF41" mask="url(#path-9-outside-1_781_5464)"/>
<path d="M22.7856 150.705L22.5501 147.097C22.5386 146.92 22.4637 146.777 22.3256 146.67C22.1875 146.563 22.0293 146.518 21.8511 146.536L17.9022 146.933C17.724 146.951 17.5736 147.027 17.4512 147.16C17.3288 147.293 17.2734 147.449 17.285 147.626L17.5205 151.235C17.532 151.412 17.6069 151.554 17.745 151.661C17.8831 151.769 18.0413 151.813 18.2195 151.795L22.1684 151.398C22.3466 151.38 22.4969 151.305 22.6194 151.171C22.7418 151.038 22.7972 150.883 22.7856 150.705ZM22.2809 143.606L22.0823 134.851C22.0724 134.699 21.996 134.586 21.8531 134.511C21.6657 134.39 21.4966 134.337 21.3458 134.352L16.8211 134.807C16.6703 134.822 16.5103 134.908 16.3411 135.065C16.2098 135.167 16.1499 135.307 16.1615 135.485L17.0775 144.129C17.0858 144.256 17.1611 144.353 17.3036 144.422C17.4461 144.49 17.6133 144.515 17.8053 144.496L21.6102 144.113C21.8021 144.094 21.9606 144.037 22.0854 143.941C22.2103 143.846 22.2755 143.734 22.2809 143.606ZM20.8354 125.896L38.3759 151.05C38.9079 151.8 38.9462 152.599 38.491 153.448C38.2818 153.838 37.982 154.161 37.5916 154.417C37.2012 154.673 36.7729 154.825 36.3067 154.871L4.71576 158.047C4.24957 158.093 3.80721 158.03 3.38868 157.855C2.97015 157.68 2.63236 157.421 2.3753 157.077C1.81593 156.331 1.75017 155.534 2.17801 154.688L16.2284 126.359C16.4359 125.943 16.7379 125.6 17.1343 125.331C17.5308 125.062 17.969 124.903 18.4489 124.855C18.9288 124.806 19.3818 124.876 19.8081 125.062C20.2343 125.249 20.5767 125.527 20.8354 125.896Z" fill="#FDAF41"/>
</svg>
