<svg width="95" height="175" viewBox="0 0 95 175" fill="none" xmlns="http://www.w3.org/2000/svg">
<path d="M74.1446 2.75943C67.3446 -8.84057 52.6446 18.9261 46.1446 34.2594C39.9779 22.0929 24.8445 0.159765 13.6446 9.75977C2.44461 19.3598 27.6446 41.7598 41.6446 51.7598V76.7598C34.6446 66.4264 17.5446 48.4598 5.14458 59.2598C-7.25542 70.0598 5.64458 79.7598 13.6446 83.2598L41.6446 105.26V174.76H53.6446V142.76L59.6446 140.26C74.1446 134.926 101.045 121.56 92.6446 110.76C84.2446 99.9598 63.1446 115.26 53.6446 124.26V100.76C69.9779 95.0931 100.645 79.6598 92.6446 63.2598C84.6446 46.8598 63.3112 62.7598 53.6446 72.7598V45.7598L65.6446 34.2594C71.3112 28.5928 80.9446 14.3594 74.1446 2.75943Z" fill="#0D9E51"/>
</svg>
