<svg width="117" height="183" viewBox="0 0 117 183" fill="none" xmlns="http://www.w3.org/2000/svg">
<path d="M41.1994 146.25C41.1994 150.857 41.6994 156.108 41.6994 161C43.1992 174 44.6859 177.307 49.1992 181C51.0313 182.499 55.1986 181.853 57.6992 182C60.9966 182.194 65.7834 177.633 66.1716 174.528C66.5847 171.223 66.5882 162 66.5882 162C66.5882 162 64.9265 154.866 63.5327 151.444C62.8754 149.831 61.9494 146.028 61.9494 146.028L60.9494 142.222C60.9494 142.222 59.9424 138.25 59.7271 136.528C59.0864 131.402 60.6889 124.677 63.1438 120.333C65.0439 116.972 68.1484 113.846 69.2549 110.25C69.7494 108.643 71.7122 106.741 72.9494 105.917C74.0432 105.187 74.7335 103.436 75.7549 102.528C76.9685 101.449 78.5974 101.021 79.8105 99.8889C81.0199 98.7601 82.2928 98.2814 83.6994 97.5C85.1075 96.7177 85.8976 95.6334 87.1994 94.7222C91.098 91.9932 94.8908 89.2266 98.6438 86.2778C100.551 84.7791 101.617 82.8283 103.449 81.2778C107.133 78.1608 109.953 73.2763 113.088 69.5C115.649 66.4154 116.699 63.1582 116.699 59.2222C116.699 55.8563 116.931 54.272 115.699 51.5C115 49.9266 115.252 47.8362 114.199 46.5C113.435 45.5298 112.773 44.1945 111.699 43.5C110.826 42.9348 108.828 41.5201 107.977 41C105.498 39.4849 104.699 39.7222 99.8938 39C96.3996 39 96.1992 39 92.6992 39.7222C90.9753 40.5388 88.6992 41.5 85.6992 43.5C83.9771 44.6481 81.2645 46.3853 80.1994 47.2222C77.1994 52.2222 75.1992 55.5 71.8105 59.7778C69.862 61.1888 66.4532 60.5368 64.4771 59.9722C61.4501 59.1073 63.4441 53.7816 64.3105 52.2222C66.2497 48.7317 69.6422 44.5712 73.4216 42.5556C74.7581 41.8427 76.0458 40.7316 77.1994 39.7222C78.605 38.4923 79.3554 36.395 80.9216 35.5C82.1407 34.8033 83.1507 32.624 83.9771 31.5C85.1972 29.8408 85.6992 28.0875 85.6992 26C85.6992 23.5172 86.7839 19.7873 85.1994 17.75C83.2948 15.3013 80.6128 15.2992 77.1994 15.5C75.1663 15.6196 72.2922 16.7262 70.4494 17.75C67.7527 19.2481 66.2756 20.7326 64.8105 23.5C63.5757 25.8323 59.7262 31.3648 56.6992 30.5C54.9066 29.9878 54.8826 27.8668 54.1992 26.5C53.5721 25.2458 53.1328 22.7525 52.6992 21.5C52.2504 20.2034 51.3466 16.8985 51.1994 15.5C51.1994 15.5 50.8759 13.4886 50.1992 12C49.5226 10.5114 48.2878 7.86199 46.8938 6.77778C44.9776 5.2874 42.8131 3.22359 40.6994 2.11111C38.0095 0.695408 36.0809 0 32.9494 0C30.399 0 30.1994 3.54457 30.1994 5.5C30.1994 12.4188 31.6994 19.631 31.6994 26.5C31.6994 29.0959 32.105 32.0857 30.4216 34.25C28.5367 36.6735 26.7252 36.0375 23.9216 35.5278C21.3487 35.06 19.1049 35.124 16.6994 34.1111C15.6834 33.6833 11.0642 32.1689 10.1994 33.25C9.82474 33.7183 8.32021 34.5602 7.69936 34.8889C6.94274 35.2895 6.6584 36.7172 6.31047 37.5C5.46923 39.3928 6.3147 42.894 6.72714 44.75C7.28316 47.2521 9.20455 49.8259 10.9771 51.5C13.8274 54.1919 16.8463 57.0568 19.4216 60C22.1889 63.1626 27.6994 67.9704 27.6994 72.5C27.6994 75.8165 26.5533 75.8034 23.9494 77.25C21.7842 78.4529 18.2887 78 15.8105 78C14.1269 78 9.84557 78.3172 8.69936 79.75C8.31506 80.2304 7.46517 79.9289 6.92158 80.0278C5.94514 80.2053 5.81107 80.8883 5.19936 81.5C4.51517 82.1842 3.38505 83.6826 2.69936 84.1111C-1.45556 86.7079 -0.0361382 95.012 1.81047 98.5C2.8417 100.448 4.04823 102.495 5.97714 103.722C7.96247 104.986 10.9908 107.027 12.4494 108.972C13.5041 110.379 15.3226 110.261 16.6994 111.5C17.5473 112.263 19.5355 113.855 20.6994 114C21.5338 114.104 22.8987 116.033 23.9494 116.5C24.7645 116.862 25.6915 118.133 26.4494 118.722C28.6997 120.472 30.4488 122.587 32.8105 124.222C34.6756 125.513 38.6524 129.413 39.1716 131.75C39.669 133.989 41.0693 136.159 41.1994 138.5C41.3418 141.064 41.1994 143.682 41.1994 146.25Z" fill="#F38355"/>
</svg>
