<svg width="1512" height="621" viewBox="0 0 1512 621" fill="none" xmlns="http://www.w3.org/2000/svg">
<path d="M490 315.077C393.2 365.477 304 252.949 260 210.077C167.222 119.678 45.82 150.848 -4.67473 178.347L-6 549.077H994C953 479.41 913.2 368.677 886 315.077C858.8 261.477 755 205.5 696 210.077C664.096 212.552 547.667 275.41 490 315.077Z" fill="black"/>
<path d="M1402 140C1501 50 1603 54 1607 51V621H504C520 602 564 538 612 482C660 426 764.667 408.667 811 407C850 405.597 877 322 904 272C1004.8 126.4 1156.67 140.667 1220 166C1247.67 187.333 1322.8 212 1402 140Z" fill="#312F92"/>
<path d="M1512.49 157V0C1485.69 11.6 1475.33 28.1667 1473.49 35C1472.99 40.1667 1471.8 53 1485 53C1498.2 53 1500.33 61.3333 1499.5 67.5C1498.83 71.1667 1495.19 78 1475.99 78C1456.79 78 1451.49 87 1451.49 94C1445.99 119 1487.83 143.667 1512.49 157Z" fill="#EB7C95"/>
<ellipse cx="139.5" cy="228.5" rx="13.5" ry="9.5" fill="white"/>
<ellipse cx="84.5" cy="230.5" rx="13.5" ry="9.5" fill="white"/>
<circle cx="80.5" cy="230.5" r="9.5" fill="#820000"/>
<circle cx="135.5" cy="228.5" r="9.5" fill="#820000"/>
<path d="M313.5 349L299 323.5H313.5L328.5 349H313.5Z" fill="#EB7B93"/>
<path d="M299.5 323L314.655 349.25H284.345L299.5 323Z" fill="#017FD3"/>
<path d="M691.5 311L677 285.5H691.5L706.5 311H691.5Z" fill="#F2B058"/>
<path d="M677.5 285L692.655 311.25H662.345L677.5 285Z" fill="#F38770"/>
<path d="M516.5 401L502 375.5H516.5L531.5 401H516.5Z" fill="#333085"/>
<path d="M502.5 375L517.655 401.25H487.345L502.5 375Z" fill="#F1F9FC"/>
</svg>
