<svg width="1512" height="527" viewBox="0 0 1512 527" fill="none" xmlns="http://www.w3.org/2000/svg">
<path d="M860.5 289.848C838.1 270.248 821.5 288.348 816 299.848V419H935V278.849C922.6 240.849 908.167 258.682 902.5 272.349C871.3 246.749 861.5 273.348 860.5 289.848Z" fill="#F77F9A"/>
<path d="M608.5 94.8826C272.5 -42.7174 47 155.217 -18 269.884L-6 290.883C174.8 18.8831 481.667 56.8835 596 118.884L608.5 94.8826Z" fill="#E61F26"/>
<path d="M618.5 118.765C282.5 -18.8346 57 179.1 -8 293.766L4 314.766C184.8 42.7659 491.667 80.7663 606 142.766L618.5 118.765Z" fill="#EE6727"/>
<path d="M623.5 141.765C287.5 4.16543 62 202.1 -3 316.766L9 337.766C189.8 65.7659 496.667 103.766 611 165.766L623.5 141.765Z" fill="#FDCF08"/>
<path d="M634.5 163.765C298.5 26.1654 73 224.1 8 338.766L20 359.766C200.8 87.7659 507.667 125.766 622 187.766L634.5 163.765Z" fill="#18A34A"/>
<path d="M646.5 185.765C310.5 48.1654 85 246.1 20 360.766L32 381.766C212.8 109.766 519.667 147.766 634 209.766L646.5 185.765Z" fill="#1E85C7"/>
<path d="M656.5 208.765C320.5 71.1654 95 269.1 30 383.766L42 404.766C222.8 132.766 529.667 170.766 644 232.766L656.5 208.765Z" fill="#B24B9C"/>
<path d="M663.5 234.765C327.5 97.1654 102 295.1 37 409.766L49 430.766C229.8 158.766 536.667 196.766 651 258.766L663.5 234.765Z" fill="#60007D"/>
<path d="M1219.17 230.555C1339.43 6.0569 1460.87 33.3803 1521 80.1887V325H1139L1219.17 230.555Z" fill="#168ECD"/>
<path d="M1131 131.001C1057.4 123.001 996.333 207.409 973 237.742L926 290.5L1068.5 394L1283 318.743C1264.33 268.076 1204.6 139.001 1131 131.001Z" fill="#FEDF8D"/>
<path d="M388 282.62C295.2 251.42 226 292.287 203 316.62V526.62L1094 489.62L880 96.6203C868.667 68.6202 829 0.619973 740 0.620117C654.658 0.620256 584 95.2868 559 148.62C540.667 206.287 480.8 313.82 388 282.62Z" fill="#11774B"/>
<path d="M1079 198.992C1056.6 175.392 1021.5 186.667 1010 194C1012 178.5 1045.5 136.991 1113 130.491C1167 125.291 1202.17 162.658 1213 181.991C1221.8 193.591 1230.5 204.833 1225 206.5C1200.6 185.3 1165.83 190.158 1160 198.992C1145.2 227.792 1128.83 230.658 1122.5 228.491C1117.33 228.491 1101.4 222.592 1079 198.992Z" fill="#FAB243"/>
<ellipse cx="322.945" cy="280.854" rx="13.9237" ry="20.3641" transform="rotate(19.5874 322.945 280.854)" fill="#F1BB51"/>
<ellipse cx="318.651" cy="292.92" rx="9" ry="8" transform="rotate(13.8383 318.651 292.92)" fill="#F6F4E8"/>
<ellipse cx="353.192" cy="285.628" rx="12.2285" ry="18.8892" transform="rotate(16.9001 353.192 285.628)" fill="#F1BB51"/>
<ellipse cx="349.651" cy="295.653" rx="8.82451" ry="8.71086" transform="rotate(13.8383 349.651 295.653)" fill="#F6F4E8"/>
<ellipse cx="383.705" cy="285.399" rx="13.2321" ry="25" transform="rotate(13.5067 383.705 285.399)" fill="#F1BB51"/>
<ellipse cx="379.651" cy="301.569" rx="8.82451" ry="8.71086" transform="rotate(13.8383 379.651 301.569)" fill="#F6F4E8"/>
<ellipse cx="416.979" cy="296.223" rx="13.857" ry="20.8017" transform="rotate(19.3956 416.979 296.223)" fill="#F1BB51"/>
<ellipse cx="413.665" cy="307.478" rx="8.10159" ry="10.0117" transform="rotate(13.8383 413.665 307.478)" fill="#F6F4E8"/>
</svg>
