<svg width="1512" height="320" viewBox="0 0 1512 320" fill="none" xmlns="http://www.w3.org/2000/svg">
<path d="M1270 34.5C1239.6 29.3 1211.33 9.33333 1201 0H1516V274.5C1492 263.333 1465 241.5 1449 204.5C1440.33 184.458 1390.5 182.29 1375 171C1361.5 161.167 1334.8 135.4 1336 111C1337.2 86.6 1327.5 69.5 1322.5 64C1317.67 56.3333 1300.4 39.7 1270 34.5Z" fill="#3371BA"/>
<path d="M178 241C79.6 240.2 18.3333 293.333 0 320V0H751C731 52.8 627.5 51.5 554 46C496 46 479.5 65 460 101C440.956 136.158 397.5 195 369 214C346.333 223.333 276.4 241.8 178 241Z" fill="#3371BA"/>
<path d="M154 81C127.6 105 40.3333 107 0 105V-16H220C203.2 41.6 169 72.6667 154 81Z" fill="#1C5EA8"/>
</svg>
