<svg width="1512" height="439" viewBox="0 0 1512 439" fill="none" xmlns="http://www.w3.org/2000/svg">
<path d="M364.279 101.963C346.959 117.167 310.877 121.635 295 121.968V241H669V178.983C659.077 155.31 631.005 114.966 598.097 142.974C565.189 170.981 543.251 170.355 534.771 165.021C516.369 134.012 502.838 129.97 489.848 126.469C479.456 123.669 454.487 130.637 443.301 134.471C437.889 134.805 426.089 131.371 422.192 114.966C418.296 98.5618 407.579 90.793 402.708 88.9591C397.115 86.9586 381.599 86.7585 364.279 101.963Z" fill="#FDAF41"/>
<path d="M389.661 169.544C372.461 166.744 369.417 180 370.083 187C410.484 240.2 490.661 222.711 525.66 206.544C529.26 191.744 516.16 191.044 509.16 192.544C513.96 173.744 498.155 174.975 489.652 177.94C488.389 162.86 472.809 166.386 465.16 170.044C458.76 156.044 448.493 157.711 443.66 160.544C442.86 140.544 425.66 146.544 417.16 152.044C397.16 125.644 390.494 152.71 389.661 169.544Z" fill="#FEDF84"/>
<path d="M134.085 113.899C99.0925 115.634 70.9038 88.9559 61.1835 75.3998C41.431 39.815 0 0.5 0 0.5V439H1512V144.363C1476.87 174.686 1438.3 199.759 1415.54 212.587C1266.92 278.09 1134.37 243.134 1086.67 217.468C1062.91 204.996 992.49 168.34 900.904 121.491C809.317 74.6407 709.019 107.031 670.318 129.082C636.837 144.445 558.751 178.426 514.254 191.44C469.757 204.454 413.992 194.693 391.672 188.186C354.519 179.944 314.99 123.298 299.869 96.0051C294.685 81.6899 278.629 66.5432 271.249 60.7593C259.188 50.9989 227.4 39.5033 196.727 71.6041C166.054 103.705 142.186 113.176 134.085 113.899Z" fill="#F9F7EA"/>
</svg>
