<svg width="1512" height="651" viewBox="0 0 1512 651" fill="none" xmlns="http://www.w3.org/2000/svg">
<path d="M71 94C111.8 36.4 38.6667 7.33333 -3 0V317C18.3333 279 60.4 200.8 58 192C55 181 45 142 45 125C45 111.4 57 109.5 71 94Z" fill="#F37895"/>
<path d="M1092 472.791C1040.8 407.591 978.333 538 970 585C1188.8 717 1434.5 487.958 1513.5 383.291V309.791C1513.5 296 1483.5 287.291 1470.5 285.291C1434.83 279.624 1360.3 289.691 1347.5 375.291C1334.7 460.891 1296.5 453 1280.5 431.291C1256.5 383.691 1226.5 379.458 1214.5 383.291C1202.83 385.458 1174.3 400.491 1153.5 443.291C1132.7 486.091 1103.83 480.791 1092 472.791Z" fill="black"/>
<path d="M99 277.754C68.6 188.154 20.3333 182.42 0 190.754V570.754H346V474.754C346 439.554 295 406.5 256 398.754C216.333 395.754 129.4 367.354 99 277.754Z" fill="black" stroke="black"/>
<path d="M120 387.274C64.8 323.276 15.3333 360.608 -1 387.274V650.5H1512V339C1410 431.411 1322 547.27 1192 567.959C1097.27 583.034 1012 560.363 962 540.373C939 531.178 807 434.17 704 453.479C614.622 470.235 587 504.512 513 550.028C458 583.857 421.231 588.648 397 540.373C394 534.396 380.6 508.65 351 453.479C321.4 398.309 278 430.491 260 453.479C250.667 472.329 221.7 504.098 186.5 499.685C151.3 495.271 139.5 420.377 120 387.274Z" fill="#4785CE"/>
</svg>
