<svg width="60" height="55" viewBox="0 0 60 55" fill="none" xmlns="http://www.w3.org/2000/svg">
<path d="M24.6473 4.22595C17.6927 -0.299628 10.2826 2.37187 7.53216 4.27619C6.91402 4.91645 7.49542 5.62844 7.86339 5.90441C8.16696 5.95959 10.4924 5.01444 12.7757 6.48372C14.868 7.83013 20.481 21.971 22.9099 29.3117C24.8327 35.4105 30.2515 48.2704 36.5437 50.9194C44.409 54.2307 49.3763 51.0568 51.1701 49.8149C52.6051 48.8213 52.5222 47.5519 51.1976 47.9383C50.6843 48.088 49.7681 48.5565 47.1408 47.8281C44.5136 47.0996 41.0782 38.0498 39.689 33.616C37.5729 25.705 31.602 8.75153 24.6473 4.22595Z" fill="white" stroke="white"/>
<path d="M22.8841 48.4368L4.06288 45.0157C5.82864 35.3015 16.6831 28.4937 21.8896 26.3041L35.6328 23.1574C43.7792 18.3662 40.6824 9.7543 38.1157 6.04723L57.2405 9.52356C53.9735 19.2158 42.0261 24.215 36.4608 25.5031L22.7177 28.6498C16.4258 34.2799 20.207 44.187 22.8841 48.4368Z" fill="white" stroke="white"/>
</svg>
