<svg width="21" height="21" viewBox="0 0 21 21" fill="none" xmlns="http://www.w3.org/2000/svg">
<path id="Vector" d="M0.567699 0.567699C0.747408 0.387733 0.960834 0.244962 1.19577 0.147551C1.4307 0.0501399 1.68254 0 1.93687 0C2.19119 0 2.44303 0.0501399 2.67796 0.147551C2.9129 0.244962 3.12632 0.387733 3.30603 0.567699L10.3327 7.59178L17.3594 0.567699C17.5392 0.387897 17.7526 0.245271 17.9875 0.147963C18.2225 0.0506551 18.4743 0.000571574 18.7285 0.000571569C18.9828 0.000571564 19.2346 0.0506551 19.4695 0.147963C19.7044 0.245271 19.9179 0.387897 20.0977 0.567699C20.2775 0.747501 20.4201 0.960956 20.5174 1.19588C20.6147 1.4308 20.6648 1.68259 20.6648 1.93687C20.6648 2.19114 20.6147 2.44293 20.5174 2.67785C20.4201 2.91278 20.2775 3.12623 20.0977 3.30603L13.0736 10.3327L20.0977 17.3594C20.4608 17.7225 20.6648 18.215 20.6648 18.7285C20.6648 19.2421 20.4608 19.7346 20.0977 20.0977C19.7346 20.4608 19.2421 20.6648 18.7285 20.6648C18.215 20.6648 17.7225 20.4608 17.3594 20.0977L10.3327 13.0736L3.30603 20.0977C2.94291 20.4608 2.4504 20.6648 1.93687 20.6648C1.42333 20.6648 0.930825 20.4608 0.567699 20.0977C0.204573 19.7346 0.000571569 19.2421 0.000571569 18.7285C0.000571569 18.215 0.204573 17.7225 0.567699 17.3594L7.59178 10.3327L0.567699 3.30603C0.387733 3.12632 0.244962 2.9129 0.147551 2.67796C0.0501399 2.44303 0 2.19119 0 1.93687C0 1.68254 0.0501399 1.4307 0.147551 1.19577C0.244962 0.960834 0.387733 0.747408 0.567699 0.567699Z" fill="black"/>
</svg>
