<svg width="21" height="21" viewBox="0 0 21 21" fill="none" xmlns="http://www.w3.org/2000/svg">
<path id="Vector" d="M0.734935 0.735057C0.914645 0.555092 1.12807 0.41232 1.36301 0.314909C1.59794 0.217498 1.84977 0.167358 2.1041 0.167358C2.35843 0.167358 2.61026 0.217498 2.8452 0.314909C3.08013 0.41232 3.29356 0.555092 3.47327 0.735057L10.4999 7.75914L17.5266 0.735057C17.7064 0.555256 17.9199 0.412629 18.1548 0.315321C18.3897 0.218014 18.6415 0.16793 18.8958 0.16793C19.15 0.16793 19.4018 0.218014 19.6368 0.315321C19.8717 0.412629 20.0851 0.555256 20.2649 0.735057C20.4447 0.914859 20.5874 1.12831 20.6847 1.36324C20.782 1.59816 20.8321 1.84995 20.8321 2.10422C20.8321 2.3585 20.782 2.61029 20.6847 2.84521C20.5874 3.08013 20.4447 3.29359 20.2649 3.47339L13.2409 10.5001L20.2649 17.5267C20.6281 17.8899 20.8321 18.3824 20.8321 18.8959C20.8321 19.4094 20.6281 19.9019 20.2649 20.2651C19.9018 20.6282 19.4093 20.8322 18.8958 20.8322C18.3822 20.8322 17.8897 20.6282 17.5266 20.2651L10.4999 13.241L3.47327 20.2651C3.11014 20.6282 2.61764 20.8322 2.1041 20.8322C1.59056 20.8322 1.09806 20.6282 0.734935 20.2651C0.37181 19.9019 0.167808 19.4094 0.167808 18.8959C0.167808 18.3824 0.37181 17.8899 0.734935 17.5267L7.75902 10.5001L0.734935 3.47339C0.55497 3.29368 0.412198 3.08026 0.314787 2.84532C0.217376 2.61039 0.167236 2.35855 0.167236 2.10422C0.167236 1.8499 0.217376 1.59806 0.314787 1.36313C0.412198 1.12819 0.55497 0.914767 0.734935 0.735057Z" fill="white"/>
</svg>
