<svg width="351" height="40" viewBox="0 0 351 40" fill="none" xmlns="http://www.w3.org/2000/svg">
<path fill-rule="evenodd" clip-rule="evenodd" d="M0.945369 6.29357L24.9843 0.0547344C25.0981 0.0172846 25.2169 -0.00117118 25.3364 5.75449e-05C25.5716 -2.59382e-05 25.8014 0.0731472 25.9962 0.210124L34.973 6.42306C35.0663 6.47928 35.152 6.54798 35.228 6.62739C35.3369 6.74084 35.4231 6.87552 35.4816 7.02369C35.5401 7.17185 35.5698 7.33057 35.569 7.4907V32.5784C35.5686 32.7442 35.5355 32.9082 35.4716 33.0602C35.4077 33.2121 35.3144 33.3489 35.1975 33.4619C35.1361 33.5245 35.0672 33.5787 34.9924 33.623L25.9962 39.8446C25.9365 39.8866 25.8734 39.9232 25.8076 39.954C25.7684 39.9731 25.7276 39.9885 25.6857 40H25.669H25.3364C25.217 39.9998 25.0984 39.9814 24.9843 39.9453L0.884378 33.7468C0.631525 33.6823 0.406882 33.5315 0.246505 33.3185C0.0861269 33.1056 -0.000684328 32.8429 4.06271e-06 32.5727V7.45616V7.43314V7.32667H0.0194104V7.30077V7.27487V7.24897V7.22306V7.20005V7.1799V7.15688V7.13962V7.12522V7.10509V7.07918C0.0194104 7.06191 0.0194104 7.04753 0.0388167 7.03026V7.013V6.99573V6.97847V6.9612V6.94106V6.92091V6.89789V6.88063V6.86335V6.84897V6.8317L0.0526783 6.81444H0.296644L0.313278 6.79429H0.296644L0.313278 6.77702L0.329912 6.75976H0.343773H0.360407L0.377041 6.74537L0.396448 6.73098L0.415854 6.7166H0.432488H0.449122H0.465756H0.573877L0.612689 6.69357H0.634868H0.651502H0.670908H0.690315H0.709721H0.726355H0.745761H0.770712H0.85111H0.876061C0.900355 6.68509 0.925446 6.6793 0.950914 6.6763L0.945369 6.29357ZM26.5035 3.47919V7.71803L31.3274 6.81732L26.5035 3.47919ZM26.5035 10.1928V29.8619L33.2292 31.1166V8.94105L26.5035 10.1928ZM26.5035 32.3511V36.5871L31.3274 33.2489L26.5035 32.3511ZM24.1664 37.3007V31.905L12.043 29.6461L5.09001 32.3396L24.1664 37.2892V37.3007ZM24.1664 29.4389V10.6303L13.1215 12.6878V27.3641L24.1664 29.4216V29.4389ZM24.1664 8.16408V2.76552L5.09001 7.71516L12.043 10.4116L24.1664 8.15256V8.16408ZM10.7871 12.5151L2.33431 9.22882V30.8288L10.7816 27.554L10.7871 12.5151Z" fill="black"/>
<path fill-rule="evenodd" clip-rule="evenodd" d="M186.806 4.65967L183.513 9.59055L180.196 4.65967H174.12L180.451 14.1246L173.487 24.4245H179.563L183.513 18.6257L187.439 24.4245H193.515L186.551 14.1246L192.882 4.65967H186.806Z" fill="#231F20"/>
<path fill-rule="evenodd" clip-rule="evenodd" d="M146.08 24.3997H157.882V20.1673H151.069V16.5425H157.094V12.1779H151.069V8.94578H157.882V4.65967H146.08V24.3997Z" fill="#231F20"/>
<path fill-rule="evenodd" clip-rule="evenodd" d="M125.207 4.65967L120.194 15.8978L115.205 4.65967H110.192L119.055 24.4245H121.333L130.168 4.65967H125.207Z" fill="#231F20"/>
<path d="M94.308 4.65967H89.3187V24.3708H94.308V4.65967Z" fill="#231F20"/>
<path fill-rule="evenodd" clip-rule="evenodd" d="M71.7587 7.52815C70.8833 6.61484 69.842 5.89101 68.695 5.39861C67.5481 4.90622 66.3184 4.65507 65.0772 4.65973C63.5132 4.65778 61.973 5.05681 60.5933 5.82138C59.2136 6.58594 58.0372 7.69238 57.1685 9.0424C56.2999 10.3924 55.7659 11.9442 55.614 13.56C55.4621 15.1757 55.697 16.8054 56.2978 18.3043C56.8987 19.8031 57.8468 21.1248 59.0581 22.1518C60.2693 23.1788 61.7062 23.8793 63.2411 24.1913C64.7759 24.5032 66.3612 24.4168 67.8562 23.9398C69.3512 23.4628 70.7095 22.6099 71.8105 21.457L68.2667 17.828C67.7465 18.3686 67.1059 18.7679 66.4017 18.9904C65.6975 19.2129 64.9514 19.2519 64.2292 19.1038C63.507 18.9558 62.8312 18.6253 62.2613 18.1416C61.6915 17.6578 61.2453 17.0358 60.9622 16.3305C60.6791 15.6252 60.5678 14.8583 60.6381 14.0978C60.7085 13.3372 60.9583 12.6063 61.3655 11.9698C61.7727 11.3333 62.3248 10.8107 62.9729 10.4484C63.621 10.086 64.3451 9.89506 65.0812 9.89233C65.6677 9.87706 66.2513 9.98282 66.7981 10.2035C67.3449 10.4241 67.8441 10.7553 68.2667 11.1778L71.7587 7.52815Z" fill="#231F20"/>
<path d="M61.5019 31.133C61.2296 30.861 60.8644 30.7123 60.4866 30.7197C60.1231 30.7397 59.7808 30.9036 59.5304 31.1778C59.2799 31.4519 59.1402 31.8153 59.1402 32.1931C59.1402 32.571 59.2799 32.9344 59.5304 33.2085C59.7808 33.4827 60.1231 33.6466 60.4866 33.6666C60.6739 33.6719 60.8603 33.638 61.0347 33.567C61.2091 33.496 61.368 33.3893 61.5019 33.2533L62.6328 34.4065C62.2822 34.7726 61.8501 35.0433 61.3746 35.1946C60.8991 35.3459 60.395 35.373 59.907 35.2736C59.419 35.1742 58.9622 34.9513 58.5771 34.6247C58.1919 34.2982 57.8904 33.878 57.6991 33.4015C57.5079 32.9249 57.4329 32.4068 57.4809 31.893C57.5288 31.3792 57.6981 30.8856 57.9738 30.456C58.2495 30.0264 58.6231 29.674 59.0614 29.4302C59.4997 29.1863 59.9893 29.0585 60.4866 29.0581C60.8822 29.0565 61.2742 29.1364 61.6399 29.2932C62.0056 29.45 62.3376 29.6806 62.6168 29.9716L61.5019 31.133Z" fill="#231F20"/>
<path d="M68.2712 29.0581H69.864V35.3364H68.2712V29.0581Z" fill="#231F20"/>
<path d="M81.3428 29.0493L78.5277 35.3359H77.803L74.9799 29.0493H76.5726L78.1653 32.6245L79.7581 29.0493H81.3428Z" fill="#231F20"/>
<path d="M86.4631 29.0581H88.0559V35.3364H86.4631V29.0581Z" fill="#231F20"/>
<path d="M93.7062 29.0581H95.2989V33.679H97.473V35.3323H93.7102L93.7062 29.0581Z" fill="#231F20"/>
<path d="M111.123 29.0581H114.877V30.4221H112.715V31.443H114.631V32.8317H112.715V33.989H114.881V35.3364H111.123V29.0581Z" fill="#231F20"/>
<path d="M126.075 29.0581L124.06 32.0629L126.278 35.3364H124.343L123.093 33.493L121.834 35.3364H119.883L122.101 32.0629L120.086 29.0581H122.022L123.077 30.6246L124.128 29.0581H126.075Z" fill="#231F20"/>
<path d="M131.403 29.0582H133.951C134.54 29.0538 135.107 29.2926 135.527 29.722C135.946 30.1514 136.185 30.7363 136.189 31.3479C136.193 31.9596 135.963 32.548 135.549 32.9836C135.136 33.4192 134.572 33.6664 133.983 33.6708H132.991V35.3241H131.399L131.403 29.0582ZM132.995 32.249H133.979C134.209 32.249 134.43 32.1541 134.593 31.9851C134.756 31.8161 134.847 31.5869 134.847 31.3479C134.847 31.109 134.756 30.8798 134.593 30.7108C134.43 30.5418 134.209 30.4469 133.979 30.4469H132.995V32.249Z" fill="#231F20"/>
<path d="M144.36 29.0581C144.959 29.0557 145.545 29.2377 146.044 29.5812C146.544 29.9247 146.933 30.4142 147.164 30.9877C147.395 31.5612 147.457 32.193 147.342 32.803C147.227 33.413 146.94 33.9739 146.518 34.4146C146.095 34.8553 145.557 35.1561 144.97 35.2788C144.382 35.4014 143.773 35.3405 143.22 35.1038C142.666 34.867 142.192 34.4651 141.859 33.9488C141.525 33.4325 141.347 32.8251 141.346 32.2035C141.347 31.3725 141.665 30.5756 142.229 29.9864C142.794 29.3972 143.56 29.0636 144.36 29.0581ZM144.36 30.7114C144.074 30.7114 143.795 30.7995 143.557 30.9646C143.319 31.1296 143.134 31.3642 143.025 31.6385C142.915 31.9129 142.887 32.2148 142.943 32.506C142.999 32.7971 143.137 33.0644 143.34 33.2741C143.542 33.4838 143.8 33.6263 144.081 33.6838C144.361 33.7412 144.652 33.7109 144.916 33.5967C145.18 33.4825 145.406 33.2895 145.564 33.0423C145.722 32.795 145.807 32.5045 145.806 32.2076C145.808 32.0096 145.772 31.8131 145.7 31.6296C145.628 31.4461 145.522 31.2793 145.388 31.1389C145.253 30.9985 145.093 30.8873 144.917 30.8117C144.74 30.7362 144.551 30.6979 144.36 30.699V30.7114Z" fill="#231F20"/>
<path d="M163.353 31.7447C163.514 31.5703 163.608 31.3412 163.619 31.0999C163.608 30.9086 163.529 30.7286 163.396 30.5954C163.263 30.4622 163.087 30.3856 162.903 30.3808C162.809 30.3813 162.717 30.401 162.631 30.4388C162.545 30.4766 162.468 30.5317 162.403 30.6009C162.337 30.6701 162.286 30.752 162.252 30.8419C162.217 30.9318 162.2 31.028 162.202 31.1247H160.896C160.897 30.8517 160.951 30.5817 161.053 30.3301C161.155 30.0785 161.304 29.8502 161.491 29.6583C161.678 29.4664 161.9 29.3146 162.143 29.2117C162.387 29.1087 162.648 29.0565 162.911 29.0581C163.174 29.0598 163.434 29.1152 163.676 29.2211C163.919 29.3271 164.138 29.4816 164.323 29.6758C164.508 29.87 164.654 30.1001 164.754 30.353C164.853 30.6059 164.903 30.8765 164.901 31.1495C164.891 31.5636 164.765 31.9657 164.539 32.3068L163.384 34.0056H165.093V35.3364H160.912L163.353 31.7447Z" fill="#231F20"/>
<path d="M170.692 31.1082C170.741 30.5984 170.971 30.1258 171.337 29.7821C171.703 29.4384 172.179 29.248 172.673 29.248C173.166 29.248 173.642 29.4384 174.008 29.7821C174.374 30.1258 174.604 30.5984 174.654 31.1082V33.2782C174.604 33.788 174.374 34.2606 174.008 34.6043C173.642 34.948 173.166 35.1383 172.673 35.1383C172.179 35.1383 171.703 34.948 171.337 34.6043C170.971 34.2606 170.741 33.788 170.692 33.2782V31.1082ZM171.958 33.2782C171.971 33.4643 172.052 33.6383 172.184 33.7652C172.316 33.8922 172.489 33.9627 172.669 33.9627C172.848 33.9627 173.022 33.8922 173.153 33.7652C173.285 33.6383 173.366 33.4643 173.379 33.2782V31.1248C173.366 30.9386 173.285 30.7647 173.153 30.6377C173.022 30.5107 172.848 30.4402 172.669 30.4402C172.489 30.4402 172.316 30.5107 172.184 30.6377C172.052 30.7647 171.971 30.9386 171.958 31.1248V33.2782Z" fill="#231F20"/>
<path d="M182.709 31.7447C182.87 31.5703 182.965 31.3412 182.976 31.0999C182.965 30.9086 182.885 30.7286 182.753 30.5954C182.62 30.4622 182.444 30.3856 182.259 30.3808C182.166 30.3813 182.074 30.401 181.988 30.4388C181.902 30.4766 181.824 30.5317 181.759 30.6009C181.694 30.6701 181.643 30.752 181.608 30.8419C181.574 30.9318 181.557 31.028 181.558 31.1247H180.26C180.262 30.8517 180.315 30.5817 180.417 30.3301C180.519 30.0785 180.668 29.8502 180.855 29.6583C181.042 29.4664 181.264 29.3146 181.508 29.2117C181.751 29.1087 182.012 29.0565 182.275 29.0581C182.538 29.0598 182.798 29.1152 183.041 29.2211C183.283 29.3271 183.503 29.4816 183.688 29.6758C183.873 29.87 184.019 30.1001 184.118 30.353C184.217 30.6059 184.268 30.8765 184.266 31.1495C184.256 31.5636 184.13 31.9657 183.904 32.3068L182.749 34.0056H184.457V35.3364H180.276L182.709 31.7447Z" fill="#231F20"/>
<path d="M191.015 33.8152C191.11 33.9183 191.231 33.99 191.365 34.0212C191.499 34.0523 191.639 34.0415 191.767 33.9902C191.895 33.9388 192.005 33.8493 192.084 33.7327C192.163 33.6162 192.206 33.4781 192.21 33.3358C192.214 33.2418 192.201 33.1478 192.171 33.0592C192.141 32.9705 192.094 32.8889 192.033 32.819C191.973 32.7491 191.899 32.6923 191.818 32.6519C191.736 32.6115 191.647 32.5883 191.557 32.5835C191.134 32.5835 191.015 32.8067 191.015 32.8067L190.123 31.8726L191.079 30.4384H189.844V29.1323H193.5L192.003 31.3436C192.421 31.4643 192.789 31.7234 193.052 32.0815C193.315 32.4396 193.458 32.8771 193.46 33.3275C193.462 33.8538 193.264 34.3598 192.91 34.7358C192.555 35.1118 192.071 35.3275 191.565 35.3362C191.029 35.341 190.513 35.1307 190.123 34.7493C190.123 34.7493 191.015 33.7904 191.015 33.8152Z" fill="#231F20"/>
<path d="M203.516 5V35" stroke="black" stroke-linecap="round"/>
<path d="M215.042 16.14C214.883 16.14 214.757 16.112 214.664 16.056C214.58 16 214.519 15.9253 214.482 15.832C214.444 15.7293 214.426 15.6173 214.426 15.496V6.984C214.426 6.86267 214.44 6.75533 214.468 6.662C214.505 6.56867 214.57 6.494 214.664 6.438C214.757 6.382 214.888 6.354 215.056 6.354L217.814 6.368C218.504 6.368 219.13 6.48467 219.69 6.718C220.259 6.942 220.744 7.264 221.146 7.684C221.547 8.104 221.855 8.61267 222.07 9.21C222.284 9.80733 222.392 10.47 222.392 11.198C222.392 11.954 222.284 12.6353 222.07 13.242C221.855 13.8487 221.542 14.3667 221.132 14.796C220.73 15.2253 220.245 15.5567 219.676 15.79C219.106 16.0233 218.472 16.14 217.772 16.14H215.042ZM215.686 14.866H217.814C218.495 14.866 219.083 14.7213 219.578 14.432C220.072 14.1333 220.455 13.718 220.726 13.186C220.996 12.6447 221.132 12.0053 221.132 11.268C221.132 10.5213 220.996 9.87733 220.726 9.336C220.455 8.79467 220.068 8.37933 219.564 8.09C219.069 7.79133 218.481 7.642 217.8 7.642H215.686V14.866ZM232.603 16.238C231.94 16.238 231.315 16.112 230.727 15.86C230.148 15.608 229.635 15.258 229.187 14.81C228.748 14.3527 228.403 13.83 228.151 13.242C227.899 12.654 227.773 12.0193 227.773 11.338C227.773 10.6473 227.894 9.99867 228.137 9.392C228.38 8.776 228.716 8.23933 229.145 7.782C229.584 7.32467 230.088 6.96533 230.657 6.704C231.226 6.44267 231.833 6.312 232.477 6.312C233.149 6.312 233.774 6.438 234.353 6.69C234.941 6.942 235.45 7.29667 235.879 7.754C236.318 8.202 236.663 8.72933 236.915 9.336C237.167 9.94267 237.293 10.5913 237.293 11.282C237.293 11.9633 237.167 12.6027 236.915 13.2C236.672 13.788 236.336 14.3153 235.907 14.782C235.478 15.2393 234.978 15.5987 234.409 15.86C233.849 16.112 233.247 16.238 232.603 16.238ZM232.519 14.964C233.004 14.964 233.457 14.8707 233.877 14.684C234.306 14.4973 234.68 14.236 234.997 13.9C235.314 13.5547 235.562 13.1627 235.739 12.724C235.926 12.276 236.019 11.7907 236.019 11.268C236.019 10.764 235.926 10.2927 235.739 9.854C235.562 9.406 235.31 9.014 234.983 8.678C234.666 8.33267 234.297 8.062 233.877 7.866C233.457 7.67 233.009 7.572 232.533 7.572C232.057 7.572 231.609 7.67 231.189 7.866C230.769 8.062 230.396 8.328 230.069 8.664C229.752 9 229.5 9.392 229.313 9.84C229.136 10.288 229.047 10.7687 229.047 11.282C229.047 11.786 229.136 12.262 229.313 12.71C229.5 13.158 229.752 13.55 230.069 13.886C230.396 14.222 230.764 14.488 231.175 14.684C231.595 14.8707 232.043 14.964 232.519 14.964ZM247.449 16.168C246.945 16.168 246.455 16.0933 245.979 15.944C245.503 15.7947 245.059 15.58 244.649 15.3C244.238 15.02 243.874 14.6747 243.557 14.264C243.249 13.844 243.006 13.3773 242.829 12.864C242.651 12.3413 242.563 11.7673 242.563 11.142C242.563 10.5447 242.651 9.994 242.829 9.49C243.006 8.97667 243.249 8.524 243.557 8.132C243.865 7.74 244.224 7.40867 244.635 7.138C245.055 6.858 245.503 6.648 245.979 6.508C246.464 6.35867 246.959 6.284 247.463 6.284C247.929 6.284 248.331 6.33067 248.667 6.424C249.003 6.51733 249.278 6.62 249.493 6.732C249.707 6.83467 249.852 6.914 249.927 6.97C250.057 7.04467 250.183 7.13333 250.305 7.236C250.426 7.33867 250.491 7.46 250.501 7.6C250.519 7.70267 250.51 7.78667 250.473 7.852C250.445 7.91733 250.407 7.98733 250.361 8.062C250.286 8.174 250.207 8.258 250.123 8.314C250.048 8.36067 249.964 8.384 249.871 8.384C249.777 8.384 249.693 8.356 249.619 8.3C249.544 8.244 249.446 8.17867 249.325 8.104C249.269 8.06667 249.157 8.006 248.989 7.922C248.821 7.838 248.606 7.75867 248.345 7.684C248.083 7.6 247.766 7.558 247.393 7.558C246.917 7.558 246.459 7.64667 246.021 7.824C245.591 7.992 245.213 8.23467 244.887 8.552C244.56 8.86933 244.303 9.252 244.117 9.7C243.93 10.148 243.837 10.652 243.837 11.212C243.837 11.7813 243.93 12.2947 244.117 12.752C244.303 13.2 244.56 13.5827 244.887 13.9C245.223 14.2173 245.605 14.46 246.035 14.628C246.464 14.796 246.917 14.88 247.393 14.88C247.747 14.88 248.055 14.8427 248.317 14.768C248.587 14.6933 248.807 14.614 248.975 14.53C249.152 14.4367 249.273 14.3667 249.339 14.32C249.441 14.264 249.53 14.208 249.605 14.152C249.689 14.096 249.777 14.068 249.871 14.068C249.964 14.068 250.048 14.096 250.123 14.152C250.207 14.1987 250.286 14.278 250.361 14.39C250.407 14.4553 250.445 14.53 250.473 14.614C250.51 14.6887 250.519 14.7727 250.501 14.866C250.491 15.006 250.426 15.1273 250.305 15.23C250.183 15.3233 250.057 15.412 249.927 15.496C249.843 15.5333 249.693 15.6127 249.479 15.734C249.273 15.846 249.003 15.944 248.667 16.028C248.331 16.1213 247.925 16.168 247.449 16.168ZM260.371 16.182C259.745 16.182 259.185 16.0747 258.691 15.86C258.205 15.636 257.79 15.328 257.445 14.936C257.109 14.5347 256.852 14.0633 256.675 13.522C256.497 12.9713 256.409 12.374 256.409 11.73V6.998C256.409 6.86733 256.423 6.75533 256.451 6.662C256.488 6.56867 256.549 6.49867 256.633 6.452C256.726 6.396 256.866 6.368 257.053 6.368C257.239 6.368 257.379 6.396 257.473 6.452C257.566 6.49867 257.627 6.56867 257.655 6.662C257.683 6.75533 257.697 6.872 257.697 7.012V11.73C257.697 12.3553 257.799 12.906 258.005 13.382C258.21 13.858 258.513 14.236 258.915 14.516C259.316 14.7867 259.815 14.922 260.413 14.922C260.973 14.922 261.453 14.7913 261.855 14.53C262.256 14.2687 262.564 13.9 262.779 13.424C262.993 12.948 263.101 12.3787 263.101 11.716V6.914C263.101 6.802 263.115 6.70867 263.143 6.634C263.18 6.55 263.245 6.48467 263.339 6.438C263.432 6.39133 263.572 6.368 263.759 6.368C263.936 6.368 264.067 6.396 264.151 6.452C264.244 6.49867 264.305 6.56867 264.333 6.662C264.361 6.75533 264.375 6.872 264.375 7.012V11.758C264.375 12.4113 264.286 13.0087 264.109 13.55C263.931 14.082 263.67 14.5487 263.325 14.95C262.989 15.342 262.569 15.6453 262.065 15.86C261.57 16.0747 261.005 16.182 260.371 16.182ZM271.177 16.14C271.009 16.14 270.878 16.112 270.785 16.056C270.701 16 270.64 15.9253 270.603 15.832C270.566 15.7293 270.547 15.6173 270.547 15.496V6.984C270.547 6.86267 270.566 6.76 270.603 6.676C270.64 6.58267 270.706 6.508 270.799 6.452C270.892 6.396 271.028 6.368 271.205 6.368C271.345 6.368 271.457 6.37733 271.541 6.396C271.625 6.41467 271.69 6.44267 271.737 6.48C271.793 6.508 271.849 6.55467 271.905 6.62L275.559 11.912H275.125L278.821 6.578C278.877 6.51267 278.933 6.466 278.989 6.438C279.045 6.41 279.115 6.39133 279.199 6.382C279.292 6.37267 279.4 6.368 279.521 6.368C279.698 6.368 279.829 6.396 279.913 6.452C280.006 6.508 280.072 6.58733 280.109 6.69C280.146 6.78333 280.165 6.89067 280.165 7.012V15.524C280.165 15.636 280.146 15.7387 280.109 15.832C280.072 15.9253 280.006 16 279.913 16.056C279.82 16.112 279.684 16.14 279.507 16.14C279.339 16.14 279.208 16.112 279.115 16.056C279.031 16 278.97 15.9253 278.933 15.832C278.905 15.7293 278.891 15.6173 278.891 15.496V8.468L275.895 12.878C275.867 12.9247 275.83 12.9713 275.783 13.018C275.736 13.0553 275.676 13.088 275.601 13.116C275.536 13.144 275.452 13.158 275.349 13.158C275.237 13.158 275.148 13.144 275.083 13.116C275.027 13.088 274.976 13.0553 274.929 13.018C274.882 12.9713 274.836 12.92 274.789 12.864L271.807 8.482V15.524C271.807 15.636 271.788 15.7387 271.751 15.832C271.723 15.9253 271.662 16 271.569 16.056C271.485 16.112 271.354 16.14 271.177 16.14ZM287.028 16.14C286.841 16.14 286.701 16.112 286.608 16.056C286.524 16.0093 286.468 15.9393 286.44 15.846C286.412 15.7433 286.398 15.6267 286.398 15.496V6.998C286.398 6.75533 286.445 6.592 286.538 6.508C286.641 6.41467 286.818 6.368 287.07 6.368H292.698C292.829 6.368 292.941 6.382 293.034 6.41C293.127 6.438 293.197 6.49867 293.244 6.592C293.291 6.68533 293.314 6.82533 293.314 7.012C293.314 7.19867 293.286 7.33867 293.23 7.432C293.183 7.516 293.113 7.572 293.02 7.6C292.927 7.628 292.815 7.642 292.684 7.642H287.658V10.54H291.158C291.289 10.54 291.396 10.554 291.48 10.582C291.573 10.61 291.643 10.666 291.69 10.75C291.737 10.834 291.76 10.9647 291.76 11.142C291.76 11.31 291.737 11.436 291.69 11.52C291.643 11.604 291.573 11.66 291.48 11.688C291.387 11.7067 291.27 11.716 291.13 11.716H287.658V14.88H292.698C292.829 14.88 292.941 14.894 293.034 14.922C293.127 14.95 293.197 15.0107 293.244 15.104C293.291 15.188 293.314 15.3233 293.314 15.51C293.314 15.6967 293.286 15.8367 293.23 15.93C293.183 16.014 293.113 16.07 293.02 16.098C292.927 16.126 292.815 16.14 292.684 16.14H287.028ZM299.769 16.14C299.61 16.14 299.484 16.112 299.391 16.056C299.307 16 299.246 15.9253 299.209 15.832C299.181 15.7293 299.167 15.6127 299.167 15.482V6.956C299.167 6.83467 299.185 6.732 299.223 6.648C299.26 6.564 299.325 6.49867 299.419 6.452C299.521 6.396 299.661 6.368 299.839 6.368C300.044 6.368 300.189 6.38667 300.273 6.424C300.357 6.46133 300.441 6.52667 300.525 6.62L305.789 14.068V6.956C305.789 6.83467 305.803 6.732 305.831 6.648C305.868 6.564 305.933 6.49867 306.027 6.452C306.12 6.396 306.255 6.368 306.433 6.368C306.601 6.368 306.727 6.396 306.811 6.452C306.904 6.508 306.965 6.58733 306.993 6.69C307.03 6.78333 307.049 6.89067 307.049 7.012V15.496C307.049 15.6173 307.025 15.7293 306.979 15.832C306.941 15.9253 306.871 16 306.769 16.056C306.675 16.112 306.54 16.14 306.363 16.14C306.213 16.14 306.087 16.1213 305.985 16.084C305.891 16.0467 305.803 15.9767 305.719 15.874L300.427 8.482V15.496C300.427 15.6173 300.408 15.7293 300.371 15.832C300.333 15.9253 300.268 16 300.175 16.056C300.081 16.112 299.946 16.14 299.769 16.14ZM320.587 6.368C320.708 6.368 320.806 6.382 320.881 6.41C320.965 6.438 321.03 6.494 321.077 6.578C321.123 6.65267 321.147 6.77867 321.147 6.956C321.147 7.124 321.119 7.25 321.063 7.334C321.016 7.418 320.951 7.474 320.867 7.502C320.783 7.52067 320.68 7.53 320.559 7.53H317.661V15.524C317.661 15.6453 317.642 15.7527 317.605 15.846C317.577 15.9393 317.516 16.0093 317.423 16.056C317.339 16.112 317.208 16.14 317.031 16.14C316.844 16.14 316.704 16.112 316.611 16.056C316.527 16.0093 316.471 15.9393 316.443 15.846C316.424 15.7433 316.415 15.6313 316.415 15.51V7.53H313.475C313.353 7.53 313.251 7.52067 313.167 7.502C313.083 7.474 313.017 7.418 312.971 7.334C312.924 7.25 312.901 7.124 312.901 6.956C312.901 6.77867 312.919 6.65267 312.957 6.578C313.003 6.494 313.069 6.438 313.153 6.41C313.246 6.382 313.349 6.368 313.461 6.368H320.587ZM215.112 34.14C214.944 34.14 214.813 34.112 214.72 34.056C214.636 34 214.575 33.9253 214.538 33.832C214.5 33.7293 214.482 33.6173 214.482 33.496V24.984C214.482 24.8627 214.5 24.76 214.538 24.676C214.575 24.5827 214.64 24.508 214.734 24.452C214.827 24.396 214.962 24.368 215.14 24.368C215.28 24.368 215.392 24.3773 215.476 24.396C215.56 24.4147 215.625 24.4427 215.672 24.48C215.728 24.508 215.784 24.5547 215.84 24.62L219.494 29.912H219.06L222.756 24.578C222.812 24.5127 222.868 24.466 222.924 24.438C222.98 24.41 223.05 24.3913 223.134 24.382C223.227 24.3727 223.334 24.368 223.456 24.368C223.633 24.368 223.764 24.396 223.848 24.452C223.941 24.508 224.006 24.5873 224.044 24.69C224.081 24.7833 224.1 24.8907 224.1 25.012V33.524C224.1 33.636 224.081 33.7387 224.044 33.832C224.006 33.9253 223.941 34 223.848 34.056C223.754 34.112 223.619 34.14 223.442 34.14C223.274 34.14 223.143 34.112 223.05 34.056C222.966 34 222.905 33.9253 222.868 33.832C222.84 33.7293 222.826 33.6173 222.826 33.496V26.468L219.83 30.878C219.802 30.9247 219.764 30.9713 219.718 31.018C219.671 31.0553 219.61 31.088 219.536 31.116C219.47 31.144 219.386 31.158 219.284 31.158C219.172 31.158 219.083 31.144 219.018 31.116C218.962 31.088 218.91 31.0553 218.864 31.018C218.817 30.9713 218.77 30.92 218.724 30.864L215.742 26.482V33.524C215.742 33.636 215.723 33.7387 215.686 33.832C215.658 33.9253 215.597 34 215.504 34.056C215.42 34.112 215.289 34.14 215.112 34.14ZM238.721 33.244C238.796 33.384 238.833 33.5053 238.833 33.608C238.842 33.7013 238.814 33.79 238.749 33.874C238.684 33.9487 238.581 34.0187 238.441 34.084C238.217 34.1867 238.04 34.21 237.909 34.154C237.788 34.098 237.676 33.9627 237.573 33.748L234.073 26.3L230.601 33.734C230.498 33.9487 230.382 34.084 230.251 34.14C230.13 34.196 229.952 34.1727 229.719 34.07C229.579 34.014 229.476 33.944 229.411 33.86C229.355 33.776 229.332 33.6733 229.341 33.552C229.36 33.4307 229.406 33.2907 229.481 33.132L233.499 24.746C233.555 24.634 233.634 24.5453 233.737 24.48C233.849 24.4053 233.966 24.368 234.087 24.368C234.171 24.368 234.25 24.382 234.325 24.41C234.4 24.438 234.465 24.48 234.521 24.536C234.577 24.592 234.624 24.6667 234.661 24.76L238.721 33.244ZM231.441 31.354L231.917 30.276H236.257L236.719 31.354H231.441ZM244.728 34.14C244.57 34.14 244.444 34.112 244.35 34.056C244.266 34 244.206 33.9253 244.168 33.832C244.14 33.7293 244.126 33.6127 244.126 33.482V24.956C244.126 24.8347 244.145 24.732 244.182 24.648C244.22 24.564 244.285 24.4987 244.378 24.452C244.481 24.396 244.621 24.368 244.798 24.368C245.004 24.368 245.148 24.3867 245.232 24.424C245.316 24.4613 245.4 24.5267 245.484 24.62L250.748 32.068V24.956C250.748 24.8347 250.762 24.732 250.79 24.648C250.828 24.564 250.893 24.4987 250.986 24.452C251.08 24.396 251.215 24.368 251.392 24.368C251.56 24.368 251.686 24.396 251.77 24.452C251.864 24.508 251.924 24.5873 251.952 24.69C251.99 24.7833 252.008 24.8907 252.008 25.012V33.496C252.008 33.6173 251.985 33.7293 251.938 33.832C251.901 33.9253 251.831 34 251.728 34.056C251.635 34.112 251.5 34.14 251.322 34.14C251.173 34.14 251.047 34.1213 250.944 34.084C250.851 34.0467 250.762 33.9767 250.678 33.874L245.386 26.482V33.496C245.386 33.6173 245.368 33.7293 245.33 33.832C245.293 33.9253 245.228 34 245.134 34.056C245.041 34.112 244.906 34.14 244.728 34.14ZM266.89 33.244C266.965 33.384 267.002 33.5053 267.002 33.608C267.012 33.7013 266.984 33.79 266.918 33.874C266.853 33.9487 266.75 34.0187 266.61 34.084C266.386 34.1867 266.209 34.21 266.078 34.154C265.957 34.098 265.845 33.9627 265.742 33.748L262.242 26.3L258.77 33.734C258.668 33.9487 258.551 34.084 258.42 34.14C258.299 34.196 258.122 34.1727 257.888 34.07C257.748 34.014 257.646 33.944 257.58 33.86C257.524 33.776 257.501 33.6733 257.51 33.552C257.529 33.4307 257.576 33.2907 257.65 33.132L261.668 24.746C261.724 24.634 261.804 24.5453 261.906 24.48C262.018 24.4053 262.135 24.368 262.256 24.368C262.34 24.368 262.42 24.382 262.494 24.41C262.569 24.438 262.634 24.48 262.69 24.536C262.746 24.592 262.793 24.6667 262.83 24.76L266.89 33.244ZM259.61 31.354L260.086 30.276H264.426L264.888 31.354H259.61ZM276.916 34.168C276.188 34.168 275.534 34.0513 274.956 33.818C274.377 33.5753 273.878 33.2347 273.458 32.796C273.047 32.348 272.73 31.8113 272.506 31.186C272.282 30.5607 272.17 29.8653 272.17 29.1C272.17 28.372 272.282 27.714 272.506 27.126C272.739 26.538 273.07 26.034 273.5 25.614C273.929 25.194 274.442 24.8673 275.04 24.634C275.637 24.3913 276.309 24.2653 277.056 24.256C277.345 24.256 277.639 24.284 277.938 24.34C278.246 24.396 278.54 24.4753 278.82 24.578C279.1 24.6807 279.352 24.802 279.576 24.942C279.734 25.0447 279.87 25.152 279.982 25.264C280.094 25.3667 280.154 25.474 280.164 25.586C280.173 25.642 280.164 25.712 280.136 25.796C280.108 25.88 280.07 25.9593 280.024 26.034C279.949 26.146 279.865 26.23 279.772 26.286C279.688 26.3327 279.604 26.356 279.52 26.356C279.482 26.356 279.417 26.3327 279.324 26.286C279.23 26.2393 279.114 26.1693 278.974 26.076C278.815 25.9827 278.628 25.894 278.414 25.81C278.208 25.726 277.984 25.6607 277.742 25.614C277.499 25.5673 277.247 25.544 276.986 25.544C276.267 25.544 275.642 25.6887 275.11 25.978C274.578 26.2673 274.167 26.6827 273.878 27.224C273.598 27.7653 273.453 28.4047 273.444 29.142C273.453 29.9073 273.602 30.57 273.892 31.13C274.181 31.69 274.587 32.124 275.11 32.432C275.642 32.74 276.262 32.894 276.972 32.894C277.205 32.894 277.443 32.8753 277.686 32.838C277.928 32.8007 278.166 32.7493 278.4 32.684C278.642 32.6093 278.866 32.5207 279.072 32.418V29.716H276.622C276.5 29.716 276.393 29.702 276.3 29.674C276.216 29.646 276.15 29.59 276.104 29.506C276.066 29.422 276.048 29.296 276.048 29.128C276.048 28.96 276.071 28.834 276.118 28.75C276.164 28.666 276.23 28.61 276.314 28.582C276.398 28.554 276.5 28.54 276.622 28.54H279.66C279.846 28.54 279.986 28.5727 280.08 28.638C280.173 28.7033 280.238 28.7873 280.276 28.89C280.322 28.9833 280.346 29.1 280.346 29.24V32.684C280.346 32.8333 280.262 32.992 280.094 33.16C279.935 33.3187 279.706 33.468 279.408 33.608C279.193 33.72 278.95 33.818 278.68 33.902C278.418 33.986 278.138 34.0513 277.84 34.098C277.541 34.1447 277.233 34.168 276.916 34.168ZM287.192 34.14C287.005 34.14 286.865 34.112 286.772 34.056C286.688 34.0093 286.632 33.9393 286.604 33.846C286.576 33.7433 286.562 33.6267 286.562 33.496V24.998C286.562 24.7553 286.609 24.592 286.702 24.508C286.805 24.4147 286.982 24.368 287.234 24.368H292.862C292.993 24.368 293.105 24.382 293.198 24.41C293.291 24.438 293.361 24.4987 293.408 24.592C293.455 24.6853 293.478 24.8253 293.478 25.012C293.478 25.1987 293.45 25.3387 293.394 25.432C293.347 25.516 293.277 25.572 293.184 25.6C293.091 25.628 292.979 25.642 292.848 25.642H287.822V28.54H291.322C291.453 28.54 291.56 28.554 291.644 28.582C291.737 28.61 291.807 28.666 291.854 28.75C291.901 28.834 291.924 28.9647 291.924 29.142C291.924 29.31 291.901 29.436 291.854 29.52C291.807 29.604 291.737 29.66 291.644 29.688C291.551 29.7067 291.434 29.716 291.294 29.716H287.822V32.88H292.862C292.993 32.88 293.105 32.894 293.198 32.922C293.291 32.95 293.361 33.0107 293.408 33.104C293.455 33.188 293.478 33.3233 293.478 33.51C293.478 33.6967 293.45 33.8367 293.394 33.93C293.347 34.014 293.277 34.07 293.184 34.098C293.091 34.126 292.979 34.14 292.848 34.14H287.192ZM300.017 34.14C299.849 34.14 299.718 34.112 299.625 34.056C299.541 34 299.48 33.9253 299.443 33.832C299.405 33.7293 299.387 33.6173 299.387 33.496V24.984C299.387 24.8627 299.405 24.76 299.443 24.676C299.48 24.5827 299.545 24.508 299.639 24.452C299.732 24.396 299.867 24.368 300.045 24.368C300.185 24.368 300.297 24.3773 300.381 24.396C300.465 24.4147 300.53 24.4427 300.577 24.48C300.633 24.508 300.689 24.5547 300.745 24.62L304.399 29.912H303.965L307.661 24.578C307.717 24.5127 307.773 24.466 307.829 24.438C307.885 24.41 307.955 24.3913 308.039 24.382C308.132 24.3727 308.239 24.368 308.361 24.368C308.538 24.368 308.669 24.396 308.753 24.452C308.846 24.508 308.911 24.5873 308.949 24.69C308.986 24.7833 309.005 24.8907 309.005 25.012V33.524C309.005 33.636 308.986 33.7387 308.949 33.832C308.911 33.9253 308.846 34 308.753 34.056C308.659 34.112 308.524 34.14 308.347 34.14C308.179 34.14 308.048 34.112 307.955 34.056C307.871 34 307.81 33.9253 307.773 33.832C307.745 33.7293 307.731 33.6173 307.731 33.496V26.468L304.735 30.878C304.707 30.9247 304.669 30.9713 304.623 31.018C304.576 31.0553 304.515 31.088 304.441 31.116C304.375 31.144 304.291 31.158 304.189 31.158C304.077 31.158 303.988 31.144 303.923 31.116C303.867 31.088 303.815 31.0553 303.769 31.018C303.722 30.9713 303.675 30.92 303.629 30.864L300.647 26.482V33.524C300.647 33.636 300.628 33.7387 300.591 33.832C300.563 33.9253 300.502 34 300.409 34.056C300.325 34.112 300.194 34.14 300.017 34.14ZM315.867 34.14C315.681 34.14 315.541 34.112 315.447 34.056C315.363 34.0093 315.307 33.9393 315.279 33.846C315.251 33.7433 315.237 33.6267 315.237 33.496V24.998C315.237 24.7553 315.284 24.592 315.377 24.508C315.48 24.4147 315.657 24.368 315.909 24.368H321.537C321.668 24.368 321.78 24.382 321.873 24.41C321.967 24.438 322.037 24.4987 322.083 24.592C322.13 24.6853 322.153 24.8253 322.153 25.012C322.153 25.1987 322.125 25.3387 322.069 25.432C322.023 25.516 321.953 25.572 321.859 25.6C321.766 25.628 321.654 25.642 321.523 25.642H316.497V28.54H319.997C320.128 28.54 320.235 28.554 320.319 28.582C320.413 28.61 320.483 28.666 320.529 28.75C320.576 28.834 320.599 28.9647 320.599 29.142C320.599 29.31 320.576 29.436 320.529 29.52C320.483 29.604 320.413 29.66 320.319 29.688C320.226 29.7067 320.109 29.716 319.969 29.716H316.497V32.88H321.537C321.668 32.88 321.78 32.894 321.873 32.922C321.967 32.95 322.037 33.0107 322.083 33.104C322.13 33.188 322.153 33.3233 322.153 33.51C322.153 33.6967 322.125 33.8367 322.069 33.93C322.023 34.014 321.953 34.07 321.859 34.098C321.766 34.126 321.654 34.14 321.523 34.14H315.867ZM328.608 34.14C328.449 34.14 328.323 34.112 328.23 34.056C328.146 34 328.085 33.9253 328.048 33.832C328.02 33.7293 328.006 33.6127 328.006 33.482V24.956C328.006 24.8347 328.025 24.732 328.062 24.648C328.099 24.564 328.165 24.4987 328.258 24.452C328.361 24.396 328.501 24.368 328.678 24.368C328.883 24.368 329.028 24.3867 329.112 24.424C329.196 24.4613 329.28 24.5267 329.364 24.62L334.628 32.068V24.956C334.628 24.8347 334.642 24.732 334.67 24.648C334.707 24.564 334.773 24.4987 334.866 24.452C334.959 24.396 335.095 24.368 335.272 24.368C335.44 24.368 335.566 24.396 335.65 24.452C335.743 24.508 335.804 24.5873 335.832 24.69C335.869 24.7833 335.888 24.8907 335.888 25.012V33.496C335.888 33.6173 335.865 33.7293 335.818 33.832C335.781 33.9253 335.711 34 335.608 34.056C335.515 34.112 335.379 34.14 335.202 34.14C335.053 34.14 334.927 34.1213 334.824 34.084C334.731 34.0467 334.642 33.9767 334.558 33.874L329.266 26.482V33.496C329.266 33.6173 329.247 33.7293 329.21 33.832C329.173 33.9253 329.107 34 329.014 34.056C328.921 34.112 328.785 34.14 328.608 34.14ZM349.426 24.368C349.547 24.368 349.645 24.382 349.72 24.41C349.804 24.438 349.869 24.494 349.916 24.578C349.963 24.6527 349.986 24.7787 349.986 24.956C349.986 25.124 349.958 25.25 349.902 25.334C349.855 25.418 349.79 25.474 349.706 25.502C349.622 25.5207 349.519 25.53 349.398 25.53H346.5V33.524C346.5 33.6453 346.481 33.7527 346.444 33.846C346.416 33.9393 346.355 34.0093 346.262 34.056C346.178 34.112 346.047 34.14 345.87 34.14C345.683 34.14 345.543 34.112 345.45 34.056C345.366 34.0093 345.31 33.9393 345.282 33.846C345.263 33.7433 345.254 33.6313 345.254 33.51V25.53H342.314C342.193 25.53 342.09 25.5207 342.006 25.502C341.922 25.474 341.857 25.418 341.81 25.334C341.763 25.25 341.74 25.124 341.74 24.956C341.74 24.7787 341.759 24.6527 341.796 24.578C341.843 24.494 341.908 24.438 341.992 24.41C342.085 24.382 342.188 24.368 342.3 24.368H349.426Z" fill="#231F20"/>
</svg>
