<svg width="194" height="40" viewBox="0 0 194 40" fill="none" xmlns="http://www.w3.org/2000/svg">
<path fill-rule="evenodd" clip-rule="evenodd" d="M0.945369 6.29357L24.9843 0.0547344C25.0981 0.0172846 25.2169 -0.00117118 25.3363 5.75449e-05C25.5716 -2.59382e-05 25.8014 0.0731472 25.9962 0.210124L34.973 6.42306C35.0663 6.47928 35.152 6.54798 35.228 6.62739C35.3369 6.74084 35.4231 6.87552 35.4816 7.02368C35.5401 7.17185 35.5698 7.33057 35.569 7.4907V32.5784C35.5686 32.7442 35.5355 32.9082 35.4716 33.0602C35.4077 33.2121 35.3144 33.3489 35.1975 33.4619C35.1361 33.5245 35.0672 33.5787 34.9924 33.623L25.9962 39.8446C25.9365 39.8866 25.8734 39.9232 25.8076 39.954C25.7684 39.9731 25.7276 39.9885 25.6857 40H25.669H25.3363C25.217 39.9998 25.0984 39.9814 24.9843 39.9453L0.884378 33.7468C0.631525 33.6823 0.406882 33.5315 0.246505 33.3185C0.0861269 33.1056 -0.000684328 32.8429 4.06271e-06 32.5727V7.45616V7.43314V7.32666H0.0194104V7.30077V7.27487V7.24897V7.22306V7.20005V7.1799V7.15688V7.13962V7.12522V7.10509V7.07918C0.0194104 7.06191 0.0194104 7.04753 0.0388167 7.03026V7.013V6.99573V6.97847V6.9612V6.94105V6.92091V6.89789V6.88063V6.86335V6.84897V6.8317L0.0526783 6.81444H0.296644L0.313278 6.79429H0.296644L0.313278 6.77702L0.329912 6.75976H0.343773H0.360407L0.377041 6.74537L0.396448 6.73098L0.415854 6.7166H0.432488H0.449122H0.465756H0.573877L0.612689 6.69357H0.634868H0.651502H0.670908H0.690315H0.709721H0.726355H0.745761H0.770712H0.85111H0.876061C0.900355 6.68509 0.925446 6.6793 0.950914 6.6763L0.945369 6.29357ZM26.5035 3.47919V7.71803L31.3274 6.81732L26.5035 3.47919ZM26.5035 10.1928V29.8619L33.2292 31.1166V8.94105L26.5035 10.1928ZM26.5035 32.3511V36.5871L31.3274 33.2489L26.5035 32.3511ZM24.1664 37.3007V31.905L12.043 29.6461L5.09001 32.3396L24.1664 37.2892V37.3007ZM24.1664 29.4389V10.6303L13.1215 12.6878V27.3641L24.1664 29.4216V29.4389ZM24.1664 8.16407V2.76552L5.09001 7.71516L12.043 10.4116L24.1664 8.15256V8.16407ZM10.7871 12.5151L2.33431 9.22882V30.8288L10.7816 27.554L10.7871 12.5151Z" fill="black"/>
<path fill-rule="evenodd" clip-rule="evenodd" d="M186.806 4.65955L183.513 9.59043L180.196 4.65955H174.12L180.451 14.1245L173.487 24.4244H179.563L183.513 18.6255L187.439 24.4244H193.515L186.551 14.1245L192.882 4.65955H186.806Z" fill="#231F20"/>
<path fill-rule="evenodd" clip-rule="evenodd" d="M146.08 24.3996H157.882V20.1672H151.069V16.5424H157.094V12.1778H151.069V8.94566H157.882V4.65955H146.08V24.3996Z" fill="#231F20"/>
<path fill-rule="evenodd" clip-rule="evenodd" d="M125.207 4.65955L120.194 15.8976L115.205 4.65955H110.192L119.055 24.4244H121.333L130.168 4.65955H125.207Z" fill="#231F20"/>
<path d="M94.308 4.65955H89.3187V24.3706H94.308V4.65955Z" fill="#231F20"/>
<path fill-rule="evenodd" clip-rule="evenodd" d="M71.7587 7.52803C70.8833 6.61472 69.842 5.89088 68.695 5.39849C67.5481 4.9061 66.3184 4.65495 65.0772 4.65961C63.5132 4.65766 61.973 5.05669 60.5933 5.82126C59.2136 6.58582 58.0372 7.69226 57.1685 9.04228C56.2999 10.3923 55.7659 11.9441 55.614 13.5599C55.4621 15.1756 55.697 16.8053 56.2978 18.3042C56.8987 19.803 57.8468 21.1247 59.0581 22.1517C60.2693 23.1787 61.7062 23.8792 63.2411 24.1912C64.7759 24.5031 66.3612 24.4167 67.8562 23.9397C69.3512 23.4627 70.7095 22.6098 71.8105 21.4568L68.2667 17.8279C67.7465 18.3685 67.1059 18.7677 66.4017 18.9903C65.6975 19.2128 64.9514 19.2518 64.2292 19.1037C63.507 18.9557 62.8312 18.6251 62.2613 18.1414C61.6915 17.6577 61.2453 17.0357 60.9622 16.3304C60.6791 15.6251 60.5678 14.8582 60.6381 14.0976C60.7085 13.337 60.9583 12.6062 61.3655 11.9697C61.7727 11.3331 62.3248 10.8106 62.9729 10.4483C63.621 10.0859 64.3451 9.89494 65.0812 9.89221C65.6677 9.87694 66.2513 9.9827 66.7981 10.2034C67.3449 10.424 67.8441 10.7552 68.2667 11.1776L71.7587 7.52803Z" fill="#231F20"/>
<path d="M61.5019 31.1329C61.2296 30.8609 60.8644 30.7122 60.4866 30.7196C60.1231 30.7396 59.7808 30.9036 59.5304 31.1777C59.2799 31.4518 59.1402 31.8153 59.1402 32.1931C59.1402 32.5709 59.2799 32.9343 59.5304 33.2085C59.7808 33.4826 60.1231 33.6466 60.4866 33.6666C60.6739 33.6718 60.8603 33.638 61.0347 33.567C61.2091 33.496 61.368 33.3893 61.5019 33.2532L62.6328 34.4064C62.2822 34.7726 61.8501 35.0433 61.3746 35.1945C60.8991 35.3458 60.395 35.3729 59.907 35.2735C59.419 35.1741 58.9622 34.9512 58.5771 34.6247C58.1919 34.2981 57.8904 33.8779 57.6991 33.4014C57.5079 32.9249 57.4329 32.4067 57.4809 31.8929C57.5288 31.3791 57.6981 30.8855 57.9738 30.4559C58.2495 30.0263 58.6231 29.674 59.0614 29.4301C59.4997 29.1863 59.9893 29.0585 60.4866 29.0581C60.8822 29.0565 61.2742 29.1364 61.6399 29.2932C62.0056 29.45 62.3376 29.6805 62.6168 29.9715L61.5019 31.1329Z" fill="#231F20"/>
<path d="M68.2712 29.058H69.864V35.3363H68.2712V29.058Z" fill="#231F20"/>
<path d="M81.3428 29.0493L78.5277 35.3359H77.803L74.9799 29.0493H76.5726L78.1653 32.6245L79.7581 29.0493H81.3428Z" fill="#231F20"/>
<path d="M86.4631 29.058H88.0559V35.3363H86.4631V29.058Z" fill="#231F20"/>
<path d="M93.7062 29.058H95.2989V33.6789H97.473V35.3322H93.7102L93.7062 29.058Z" fill="#231F20"/>
<path d="M111.123 29.058H114.877V30.422H112.715V31.4429H114.631V32.8316H112.715V33.9889H114.881V35.3363H111.123V29.058Z" fill="#231F20"/>
<path d="M126.075 29.058L124.06 32.0629L126.278 35.3363H124.343L123.093 33.4929L121.834 35.3363H119.883L122.101 32.0629L120.086 29.058H122.022L123.077 30.6245L124.128 29.058H126.075Z" fill="#231F20"/>
<path d="M131.403 29.0581H133.951C134.54 29.0537 135.107 29.2925 135.527 29.7219C135.946 30.1513 136.185 30.7362 136.189 31.3479C136.193 31.9596 135.963 32.5479 135.549 32.9835C135.136 33.4192 134.572 33.6663 133.983 33.6707H132.991V35.324H131.399L131.403 29.0581ZM132.995 32.2489H133.979C134.209 32.2489 134.43 32.154 134.593 31.985C134.756 31.816 134.847 31.5869 134.847 31.3479C134.847 31.1089 134.756 30.8797 134.593 30.7108C134.43 30.5418 134.209 30.4469 133.979 30.4469H132.995V32.2489Z" fill="#231F20"/>
<path d="M144.36 29.0581C144.959 29.0556 145.545 29.2377 146.044 29.5811C146.544 29.9246 146.933 30.4141 147.164 30.9876C147.395 31.5611 147.457 32.1929 147.342 32.8029C147.227 33.413 146.94 33.9739 146.518 34.4146C146.095 34.8553 145.557 35.156 144.97 35.2787C144.382 35.4014 143.773 35.3405 143.22 35.1037C142.666 34.867 142.192 34.465 141.859 33.9487C141.525 33.4324 141.347 32.825 141.346 32.2034C141.347 31.3724 141.665 30.5755 142.229 29.9863C142.794 29.3972 143.56 29.0635 144.36 29.0581ZM144.36 30.7113C144.074 30.7113 143.795 30.7994 143.557 30.9645C143.319 31.1295 143.134 31.3641 143.025 31.6385C142.915 31.9129 142.887 32.2148 142.943 32.5059C142.999 32.7971 143.137 33.0644 143.34 33.274C143.542 33.4837 143.8 33.6263 144.081 33.6837C144.361 33.7411 144.652 33.7108 144.916 33.5966C145.18 33.4824 145.406 33.2895 145.564 33.0422C145.722 32.7949 145.807 32.5045 145.806 32.2076C145.808 32.0095 145.772 31.813 145.7 31.6296C145.628 31.4461 145.522 31.2793 145.388 31.1388C145.253 30.9984 145.093 30.8872 144.917 30.8117C144.74 30.7362 144.551 30.6978 144.36 30.6989V30.7113Z" fill="#231F20"/>
<path d="M163.353 31.7446C163.514 31.5702 163.608 31.3412 163.619 31.0999C163.608 30.9086 163.529 30.7285 163.396 30.5953C163.263 30.4621 163.087 30.3855 162.903 30.3807C162.809 30.3812 162.717 30.401 162.631 30.4387C162.545 30.4765 162.468 30.5316 162.403 30.6008C162.337 30.67 162.286 30.7519 162.252 30.8419C162.217 30.9318 162.2 31.0279 162.202 31.1247H160.896C160.897 30.8517 160.951 30.5816 161.053 30.33C161.155 30.0784 161.304 29.8501 161.491 29.6582C161.678 29.4663 161.9 29.3146 162.143 29.2116C162.387 29.1086 162.648 29.0565 162.911 29.0581C163.174 29.0597 163.434 29.1151 163.676 29.2211C163.919 29.3271 164.138 29.4816 164.323 29.6758C164.508 29.87 164.654 30.1001 164.754 30.3529C164.853 30.6058 164.903 30.8764 164.901 31.1495C164.891 31.5635 164.765 31.9656 164.539 32.3068L163.384 34.0055H165.093V35.3364H160.912L163.353 31.7446Z" fill="#231F20"/>
<path d="M170.692 31.1082C170.741 30.5984 170.971 30.1258 171.337 29.7821C171.703 29.4384 172.179 29.248 172.673 29.248C173.166 29.248 173.642 29.4384 174.008 29.7821C174.374 30.1258 174.604 30.5984 174.654 31.1082V33.2782C174.604 33.788 174.374 34.2606 174.008 34.6043C173.642 34.948 173.166 35.1383 172.673 35.1383C172.179 35.1383 171.703 34.948 171.337 34.6043C170.971 34.2606 170.741 33.788 170.692 33.2782V31.1082ZM171.958 33.2782C171.971 33.4643 172.052 33.6383 172.184 33.7652C172.316 33.8922 172.489 33.9627 172.669 33.9627C172.848 33.9627 173.022 33.8922 173.153 33.7652C173.285 33.6383 173.366 33.4643 173.379 33.2782V31.1248C173.366 30.9386 173.285 30.7647 173.153 30.6377C173.022 30.5107 172.848 30.4402 172.669 30.4402C172.489 30.4402 172.316 30.5107 172.184 30.6377C172.052 30.7647 171.971 30.9386 171.958 31.1248V33.2782Z" fill="#231F20"/>
<path d="M182.709 31.7446C182.87 31.5702 182.965 31.3412 182.976 31.0999C182.965 30.9086 182.885 30.7285 182.753 30.5953C182.62 30.4621 182.444 30.3855 182.259 30.3807C182.166 30.3812 182.074 30.401 181.988 30.4387C181.902 30.4765 181.824 30.5316 181.759 30.6008C181.694 30.67 181.643 30.7519 181.608 30.8419C181.574 30.9318 181.557 31.0279 181.558 31.1247H180.26C180.262 30.8517 180.315 30.5816 180.417 30.33C180.519 30.0784 180.668 29.8501 180.855 29.6582C181.042 29.4663 181.264 29.3146 181.508 29.2116C181.751 29.1086 182.012 29.0565 182.275 29.0581C182.538 29.0597 182.798 29.1151 183.041 29.2211C183.283 29.3271 183.503 29.4816 183.688 29.6758C183.873 29.87 184.019 30.1001 184.118 30.3529C184.217 30.6058 184.268 30.8764 184.266 31.1495C184.256 31.5635 184.13 31.9656 183.904 32.3068L182.749 34.0055H184.457V35.3364H180.276L182.709 31.7446Z" fill="#231F20"/>
<path d="M191.015 33.8152C191.11 33.9183 191.231 33.99 191.365 34.0212C191.499 34.0523 191.639 34.0415 191.767 33.9902C191.895 33.9388 192.005 33.8493 192.084 33.7327C192.163 33.6162 192.206 33.4781 192.21 33.3358C192.214 33.2418 192.201 33.1478 192.171 33.0592C192.141 32.9705 192.094 32.8889 192.033 32.819C191.973 32.7491 191.899 32.6923 191.818 32.6519C191.736 32.6115 191.647 32.5883 191.557 32.5835C191.134 32.5835 191.015 32.8067 191.015 32.8067L190.123 31.8726L191.079 30.4384H189.844V29.1323H193.5L192.003 31.3436C192.421 31.4643 192.789 31.7234 193.052 32.0815C193.315 32.4396 193.458 32.8771 193.46 33.3275C193.462 33.8538 193.264 34.3598 192.91 34.7358C192.555 35.1118 192.071 35.3275 191.565 35.3362C191.029 35.341 190.513 35.1307 190.123 34.7493C190.123 34.7493 191.015 33.7904 191.015 33.8152Z" fill="#231F20"/>
</svg>
