<svg width="12" height="23" viewBox="0 0 12 23" fill="none" xmlns="http://www.w3.org/2000/svg">
<g clip-path="url(#clip0_317_4617)">
<path d="M3.82976 4.45455V19H0.754475V7.37358H0.669248L-2.66172 9.46165V6.73438L0.939134 4.45455H3.82976ZM13.7899 19.3196C12.5683 19.3149 11.5172 19.0142 10.6365 18.4176C9.76056 17.821 9.08584 16.9569 8.61236 15.8253C8.14361 14.6937 7.9116 13.3324 7.91634 11.7415C7.91634 10.1553 8.15071 8.8035 8.61946 7.68608C9.09295 6.56865 9.76766 5.71875 10.6436 5.13636C11.5243 4.54924 12.5731 4.25568 13.7899 4.25568C15.0068 4.25568 16.0532 4.54924 16.9291 5.13636C17.8098 5.72348 18.4869 6.57576 18.9604 7.69318C19.4339 8.80587 19.6682 10.1553 19.6635 11.7415C19.6635 13.3371 19.4268 14.7008 18.9533 15.8324C18.4845 16.964 17.8122 17.8281 16.9362 18.4247C16.0603 19.0213 15.0115 19.3196 13.7899 19.3196ZM13.7899 16.7699C14.6232 16.7699 15.2885 16.3509 15.7857 15.5128C16.2828 14.6747 16.529 13.4176 16.5243 11.7415C16.5243 10.6383 16.4107 9.7197 16.1834 8.9858C15.9608 8.25189 15.6436 7.70028 15.2317 7.33097C14.8245 6.96165 14.3439 6.77699 13.7899 6.77699C12.9613 6.77699 12.2984 7.19129 11.8013 8.01989C11.3041 8.84848 11.0532 10.089 11.0484 11.7415C11.0484 12.8589 11.1597 13.7917 11.3822 14.5398C11.6095 15.2831 11.9291 15.8419 12.3411 16.2159C12.753 16.5852 13.2359 16.7699 13.7899 16.7699Z" fill="#1C6792"/>
</g>
<path d="M11.7 0V23H12.3V0H11.7Z" fill="#1C6792" mask="url(#path-1-inside-1_317_4617)"/>
<defs>
<clipPath id="clip0_317_4617">
<path d="M0 0H12V23H0V0Z" fill="white"/>
</clipPath>
</defs>
</svg>
