<svg width="12" height="24" viewBox="0 0 12 24" fill="none" xmlns="http://www.w3.org/2000/svg">
<g clip-path="url(#clip0_18_780)">
<mask id="path-1-inside-1_18_780" fill="white">
<path d="M0 0.884766H12V23.8848H0V0.884766Z"/>
</mask>
<path d="M0 0.884766H12V23.8848H0V0.884766Z" fill="white"/>
<path d="M3.38015 19.8848V17.6689L8.55771 12.8748C8.99805 12.4487 9.36737 12.0652 9.66566 11.7243C9.96869 11.3833 10.1983 11.0495 10.3546 10.7228C10.5108 10.3914 10.589 10.0339 10.589 9.65039C10.589 9.22425 10.4919 8.8573 10.2978 8.54954C10.1036 8.23704 9.83848 7.99793 9.50231 7.83221C9.16613 7.66175 8.78498 7.57653 8.35884 7.57653C7.91377 7.57653 7.52551 7.66649 7.19407 7.84641C6.86263 8.02634 6.60695 8.28439 6.42702 8.62056C6.2471 8.95673 6.15714 9.35683 6.15714 9.82084H3.2381C3.2381 8.86914 3.45354 8.04291 3.88441 7.34215C4.31528 6.64139 4.91897 6.09925 5.69549 5.71573C6.47201 5.33221 7.36689 5.14045 8.38015 5.14045C9.42182 5.14045 10.3285 5.32511 11.1003 5.69442C11.8768 6.05901 12.4805 6.56564 12.9114 7.21431C13.3423 7.86298 13.5577 8.60636 13.5577 9.44442C13.5577 9.99367 13.4488 10.5358 13.231 11.0708C13.0179 11.6059 12.6368 12.2001 12.0875 12.8535C11.5383 13.5022 10.7641 14.2811 9.76509 15.1902L7.64151 17.2711V17.3706H13.7495V19.8848H3.38015Z" fill="#1C6792"/>
</g>
<path d="M11.7 0.884766V23.8848H12.3V0.884766H11.7Z" fill="#1C6792" mask="url(#path-1-inside-1_18_780)"/>
<defs>
<clipPath id="clip0_18_780">
<path d="M0 0.884766H12V23.8848H0V0.884766Z" fill="white"/>
</clipPath>
</defs>
</svg>
