<svg width="12" height="24" viewBox="0 0 12 24" fill="none" xmlns="http://www.w3.org/2000/svg">
<g clip-path="url(#clip0_18_786)">
<mask id="path-1-inside-1_18_786" fill="white">
<path d="M0 0.474609H12V23.4746H0V0.474609Z"/>
</mask>
<path d="M0 0.474609H12V23.4746H0V0.474609Z" fill="white"/>
<path d="M8.9636 19.6735C7.90299 19.6735 6.95839 19.4912 6.12979 19.1266C5.30593 18.7573 4.65489 18.2507 4.17667 17.6067C3.70318 16.958 3.45934 16.2099 3.44513 15.3624H6.54173C6.56067 15.7175 6.67667 16.03 6.88974 16.2999C7.10754 16.565 7.39637 16.771 7.75621 16.9178C8.11606 17.0646 8.52089 17.138 8.9707 17.138C9.43945 17.138 9.85375 17.0551 10.2136 16.8894C10.5734 16.7237 10.8552 16.494 11.0588 16.2005C11.2624 15.9069 11.3642 15.5684 11.3642 15.1848C11.3642 14.7966 11.2553 14.4533 11.0375 14.155C10.8244 13.852 10.5166 13.6152 10.1142 13.4448C9.71644 13.2743 9.24296 13.1891 8.69371 13.1891H7.33718V10.9306H8.69371C9.15773 10.9306 9.56729 10.8501 9.92241 10.6891C10.2823 10.5281 10.5616 10.3056 10.7605 10.0215C10.9593 9.73266 11.0588 9.39648 11.0588 9.01296C11.0588 8.64838 10.9712 8.32878 10.796 8.05415C10.6255 7.7748 10.3841 7.557 10.0716 7.40075C9.76379 7.2445 9.40394 7.16637 8.99201 7.16637C8.57534 7.16637 8.19419 7.24213 7.84854 7.39364C7.5029 7.54042 7.22591 7.75112 7.01758 8.02575C6.80924 8.30037 6.69798 8.62234 6.68377 8.99165H3.73633C3.75053 8.15359 3.98964 7.41495 4.45366 6.77575C4.91767 6.13654 5.54267 5.63701 6.32866 5.27717C7.11938 4.91258 8.0119 4.73029 9.00621 4.73029C10.01 4.73029 10.8883 4.91258 11.6412 5.27717C12.394 5.64175 12.9788 6.13417 13.3954 6.75444C13.8168 7.36997 14.0252 8.06126 14.0204 8.8283C14.0252 9.6427 13.7718 10.3221 13.2605 10.8667C12.7538 11.4112 12.0933 11.7568 11.2789 11.9036V12.0172C12.349 12.1545 13.1634 12.5262 13.7221 13.1323C14.2856 13.7336 14.5649 14.4864 14.5602 15.3908C14.5649 16.2194 14.3258 16.9557 13.8429 17.5996C13.3646 18.2435 12.7041 18.7502 11.8613 19.1195C11.0185 19.4888 10.0526 19.6735 8.9636 19.6735Z" fill="#1C6792"/>
</g>
<path d="M11.7 0.474609V23.4746H12.3V0.474609H11.7Z" fill="#1C6792" mask="url(#path-1-inside-1_18_786)"/>
<defs>
<clipPath id="clip0_18_786">
<path d="M0 0.474609H12V23.4746H0V0.474609Z" fill="white"/>
</clipPath>
</defs>
</svg>
