<svg width="12" height="24" viewBox="0 0 12 24" fill="none" xmlns="http://www.w3.org/2000/svg">
<g clip-path="url(#clip0_18_798)">
<mask id="path-1-inside-1_18_798" fill="white">
<path d="M0 0.655273H12V23.6553H0V0.655273Z"/>
</mask>
<path d="M0 0.655273H12V23.6553H0V0.655273Z" fill="white"/>
<path d="M8.54616 19.8541C7.54238 19.8541 6.64749 19.6695 5.86151 19.3002C5.08026 18.9308 4.45999 18.4218 4.00071 17.7732C3.54143 17.1245 3.30232 16.3811 3.28338 15.5431H6.26634C6.29948 16.1065 6.53622 16.5634 6.97656 16.9138C7.4169 17.2642 7.9401 17.4394 8.54616 17.4394C9.02912 17.4394 9.45526 17.3328 9.82457 17.1198C10.1986 16.902 10.4898 16.6013 10.6982 16.2178C10.9112 15.8295 11.0178 15.3844 11.0178 14.8825C11.0178 14.3712 10.9089 13.9214 10.6911 13.5331C10.478 13.1449 10.1821 12.8418 9.80327 12.624C9.42448 12.4062 8.99124 12.295 8.50355 12.2902C8.07741 12.2902 7.66312 12.3778 7.26065 12.553C6.86293 12.7282 6.55279 12.9673 6.33026 13.2703L3.59588 12.7803L4.2848 5.10982H13.1768V7.62402H6.82031L6.44389 11.2675H6.52912C6.7848 10.9076 7.17069 10.6093 7.68679 10.3726C8.20289 10.1359 8.78054 10.0175 9.41974 10.0175C10.2957 10.0175 11.0769 10.2235 11.7635 10.6354C12.45 11.0473 12.9922 11.6131 13.3899 12.3328C13.7876 13.0478 13.9841 13.8717 13.9794 14.8044C13.9841 15.7845 13.7569 16.6557 13.2976 17.4181C12.843 18.1756 12.2062 18.7722 11.3871 19.2078C10.5727 19.6387 9.62571 19.8541 8.54616 19.8541Z" fill="#1C6792"/>
</g>
<path d="M11.7 0.655273V23.6553H12.3V0.655273H11.7Z" fill="#1C6792" mask="url(#path-1-inside-1_18_798)"/>
<defs>
<clipPath id="clip0_18_798">
<path d="M0 0.655273H12V23.6553H0V0.655273Z" fill="white"/>
</clipPath>
</defs>
</svg>
