<svg width="12" height="24" viewBox="0 0 12 24" fill="none" xmlns="http://www.w3.org/2000/svg">
<g clip-path="url(#clip0_18_804)">
<mask id="path-1-inside-1_18_804" fill="white">
<path d="M0 0.245117H12V23.2451H0V0.245117Z"/>
</mask>
<path d="M0 0.245117H12V23.2451H0V0.245117Z" fill="white"/>
<path d="M8.1598 19.444C7.4117 19.4392 6.68963 19.3138 5.99361 19.0676C5.30232 18.8213 4.68205 18.4213 4.13281 17.8673C3.58357 17.3133 3.14796 16.5794 2.82599 15.6656C2.50876 14.7517 2.35014 13.6296 2.35014 12.2991C2.35488 11.0775 2.49455 9.98612 2.76918 9.02495C3.04853 8.05904 3.44626 7.23991 3.96236 6.56756C4.48319 5.89521 5.10582 5.38385 5.83026 5.03347C6.55469 4.67836 7.36671 4.5008 8.26634 4.5008C9.23698 4.5008 10.094 4.69019 10.8374 5.06898C11.5807 5.44303 12.1773 5.95203 12.6271 6.59597C13.0817 7.23991 13.3563 7.96197 13.451 8.76216H10.4183C10.3 8.25553 10.0514 7.85781 9.67259 7.56898C9.2938 7.28016 8.82505 7.13574 8.26634 7.13574C7.31937 7.13574 6.59967 7.54767 6.10724 8.37154C5.61955 9.1954 5.37098 10.3152 5.36151 11.7309H5.46094C5.67874 11.3 5.9723 10.9331 6.34162 10.6301C6.71567 10.3223 7.13944 10.0879 7.61293 9.92694C8.09115 9.76122 8.59541 9.67836 9.12571 9.67836C9.98745 9.67836 10.7545 9.88195 11.4268 10.2892C12.0992 10.6916 12.6295 11.2456 13.0178 11.9511C13.406 12.6566 13.6001 13.4639 13.6001 14.373C13.6001 15.3578 13.3705 16.2338 12.9112 17.0008C12.4567 17.7678 11.8198 18.3692 11.0007 18.8048C10.1863 19.2356 9.23935 19.4487 8.1598 19.444ZM8.1456 17.0292C8.61908 17.0292 9.04285 16.9156 9.4169 16.6883C9.79096 16.461 10.0845 16.1533 10.2976 15.765C10.5107 15.3767 10.6172 14.9411 10.6172 14.4582C10.6172 13.9752 10.5107 13.542 10.2976 13.1585C10.0893 12.7749 9.80043 12.4695 9.43111 12.2423C9.06179 12.015 8.64039 11.9014 8.1669 11.9014C7.81179 11.9014 7.48272 11.9677 7.17969 12.1002C6.88139 12.2328 6.61861 12.4175 6.39134 12.6542C6.1688 12.891 5.99361 13.1656 5.86577 13.4781C5.73793 13.7858 5.67401 14.1149 5.67401 14.4653C5.67401 14.934 5.78054 15.3625 5.99361 15.7508C6.21141 16.1391 6.50497 16.4492 6.87429 16.6812C7.24834 16.9132 7.67211 17.0292 8.1456 17.0292Z" fill="#1C6792"/>
</g>
<path d="M11.7 0.245117V23.2451H12.3V0.245117H11.7Z" fill="#1C6792" mask="url(#path-1-inside-1_18_804)"/>
<defs>
<clipPath id="clip0_18_804">
<path d="M0 0.245117H12V23.2451H0V0.245117Z" fill="white"/>
</clipPath>
</defs>
</svg>
