<svg width="12" height="24" viewBox="0 0 12 24" fill="none" xmlns="http://www.w3.org/2000/svg">
<g clip-path="url(#clip0_18_1472)">
<mask id="path-1-inside-1_18_1472" fill="white">
<path d="M0 0.424805H12V23.4248H0V0.424805Z"/>
</mask>
<path d="M0 0.424805H12V23.4248H0V0.424805Z" fill="white"/>
<path d="M7.99379 19.6237C6.90004 19.6237 5.92702 19.4461 5.07475 19.091C4.22721 18.7311 3.56197 18.2411 3.07901 17.6208C2.59606 17.0006 2.35458 16.2974 2.35458 15.5115C2.35458 14.9054 2.49189 14.349 2.76651 13.8424C3.04587 13.3311 3.42466 12.9073 3.90288 12.5711C4.3811 12.2302 4.91613 12.0124 5.50799 11.9177V11.8183C4.73148 11.662 4.10174 11.2856 3.61879 10.689C3.13583 10.0877 2.89435 9.38929 2.89435 8.59384C2.89435 7.841 3.11452 7.17102 3.55487 6.58389C3.99521 5.99204 4.5989 5.52802 5.36594 5.19185C6.13772 4.85094 7.01367 4.68049 7.99379 4.68049C8.9739 4.68049 9.84748 4.85094 10.6145 5.19185C11.3863 5.53276 11.9924 5.99914 12.4327 6.591C12.873 7.17812 13.0956 7.84573 13.1003 8.59384C13.0956 9.39403 12.8494 10.0924 12.3617 10.689C11.874 11.2856 11.249 11.662 10.4867 11.8183V11.9177C11.0691 12.0124 11.597 12.2302 12.0705 12.5711C12.5487 12.9073 12.9275 13.3311 13.2069 13.8424C13.4909 14.349 13.6354 14.9054 13.6401 15.5115C13.6354 16.2974 13.3915 17.0006 12.9086 17.6208C12.4256 18.2411 11.758 18.7311 10.9057 19.091C10.0582 19.4461 9.08754 19.6237 7.99379 19.6237ZM7.99379 17.3651C8.48148 17.3651 8.90761 17.2776 9.27219 17.1024C9.63678 16.9224 9.92087 16.6762 10.1245 16.3637C10.3328 16.0465 10.437 15.6819 10.437 15.27C10.437 14.8486 10.3304 14.4769 10.1174 14.1549C9.9043 13.8282 9.61547 13.5725 9.25089 13.3879C8.8863 13.1985 8.46727 13.1038 7.99379 13.1038C7.52504 13.1038 7.106 13.1985 6.73668 13.3879C6.36737 13.5725 6.07617 13.8282 5.8631 14.1549C5.65477 14.4769 5.5506 14.8486 5.5506 15.27C5.5506 15.6819 5.6524 16.0465 5.856 16.3637C6.0596 16.6762 6.34606 16.9224 6.71538 17.1024C7.08469 17.2776 7.51083 17.3651 7.99379 17.3651ZM7.99379 10.8666C8.40098 10.8666 8.7632 10.7837 9.08043 10.618C9.39767 10.4523 9.64625 10.2226 9.82617 9.92907C10.0061 9.63551 10.0961 9.29696 10.0961 8.91344C10.0961 8.53465 10.0061 8.20321 9.82617 7.91912C9.64625 7.6303 9.40004 7.40539 9.08754 7.24441C8.77504 7.07869 8.41045 6.99583 7.99379 6.99583C7.58185 6.99583 7.21727 7.07869 6.90004 7.24441C6.5828 7.40539 6.33422 7.6303 6.1543 7.91912C5.97911 8.20321 5.89151 8.53465 5.89151 8.91344C5.89151 9.29696 5.98147 9.63551 6.1614 9.92907C6.34132 10.2226 6.5899 10.4523 6.90714 10.618C7.22437 10.7837 7.58659 10.8666 7.99379 10.8666Z" fill="#1C6792"/>
</g>
<path d="M11.7 0.424805V23.4248H12.3V0.424805H11.7Z" fill="#1C6792" mask="url(#path-1-inside-1_18_1472)"/>
<defs>
<clipPath id="clip0_18_1472">
<path d="M0 0.424805H12V23.4248H0V0.424805Z" fill="white"/>
</clipPath>
</defs>
</svg>
