<svg width="12" height="24" viewBox="0 0 12 24" fill="none" xmlns="http://www.w3.org/2000/svg">
<g clip-path="url(#clip0_18_1478)">
<mask id="path-1-inside-1_18_1478" fill="white">
<path d="M0 0.0146484H12V23.0146H0V0.0146484Z"/>
</mask>
<path d="M0 0.0146484H12V23.0146H0V0.0146484Z" fill="white"/>
<path d="M7.8402 4.27033C8.58831 4.27033 9.308 4.3958 9.99929 4.64675C10.6953 4.8977 11.3156 5.29779 11.8601 5.84703C12.4093 6.39628 12.8426 7.12544 13.1598 8.03453C13.4818 8.93889 13.6451 10.0492 13.6499 11.3655C13.6499 12.6013 13.5102 13.7045 13.2308 14.6752C12.9562 15.6411 12.5608 16.4626 12.0447 17.1396C11.5286 17.8167 10.906 18.3328 10.1768 18.6879C9.44768 19.0383 8.63329 19.2135 7.73366 19.2135C6.76302 19.2135 5.90601 19.0265 5.16264 18.6524C4.41927 18.2736 3.82031 17.7599 3.36577 17.1112C2.91596 16.4578 2.6437 15.7239 2.54901 14.9095H5.58168C5.70005 15.4398 5.94863 15.8518 6.32741 16.1453C6.7062 16.4342 7.17495 16.5786 7.73366 16.5786C8.68063 16.5786 9.40033 16.1666 9.89276 15.3428C10.3852 14.5142 10.6338 13.3802 10.6385 11.9408H10.5391C10.3213 12.3669 10.0277 12.7339 9.65838 13.0416C9.28906 13.3447 8.86529 13.579 8.38707 13.7448C7.91359 13.9105 7.40933 13.9933 6.87429 13.9933C6.01728 13.9933 5.2526 13.7921 4.58026 13.3896C3.90791 12.9872 3.3776 12.4332 2.98935 11.7277C2.60109 11.0222 2.40696 10.2173 2.40696 9.31294C2.40223 8.33757 2.62713 7.46872 3.08168 6.70641C3.53622 5.9441 4.17069 5.34751 4.98509 4.91664C5.80421 4.48103 6.75592 4.26559 7.8402 4.27033ZM7.86151 6.6851C7.38329 6.6851 6.95715 6.79874 6.5831 7.02601C6.21378 7.25328 5.92022 7.55868 5.70241 7.9422C5.48935 8.32573 5.38518 8.75423 5.38991 9.22772C5.38991 9.70594 5.49408 10.1368 5.70241 10.5203C5.91548 10.8991 6.20431 11.2021 6.56889 11.4294C6.93821 11.652 7.35961 11.7632 7.8331 11.7632C8.18821 11.7632 8.51728 11.6969 8.82031 11.5644C9.12334 11.4318 9.38613 11.2495 9.60866 11.0175C9.83594 10.7807 10.0135 10.5085 10.1413 10.2007C10.2692 9.89296 10.3331 9.56626 10.3331 9.22061C10.3284 8.76133 10.2195 8.33993 10.0064 7.95641C9.79332 7.57289 9.49976 7.26512 9.12571 7.03311C8.75166 6.80111 8.33026 6.6851 7.86151 6.6851Z" fill="#1C6792"/>
</g>
<path d="M11.7 0.0146484V23.0146H12.3V0.0146484H11.7Z" fill="#1C6792" mask="url(#path-1-inside-1_18_1478)"/>
<defs>
<clipPath id="clip0_18_1478">
<path d="M0 0.0146484H12V23.0146H0V0.0146484Z" fill="white"/>
</clipPath>
</defs>
</svg>
